ply
format ascii 1.0
comment created by PLYWriter
element vertex 496
property float x
property float y
property float z
element face 988
property list uchar int vertex_indices
end_header
-0.024754431 0.034791738 0.14695854 
-0.024796931 0.03221274 0.1465881 
-0.025140692 0.029899782 0.148457 
-0.025504377 0.02718004 0.14950174 
-0.02608041 0.024910364 0.15065101 
-0.027303915 0.021638334 0.15385227 
-0.029812364 0.016933592 0.1570554 
-0.030792635 0.013264823 0.15828945 
-0.030950304 0.010177839 0.15764248 
-0.03220143 0.00795763 0.15736428 
-0.03367889 0.0048711402 0.156582 
-0.035592455 0.0015573176 0.15714952 
-0.03696031 -0.001276402 0.15579748 
-0.022175353 0.034482576 0.14628868 
-0.022252388 0.032034904 0.14703938 
-0.022759125 0.02969419 0.14851347 
-0.022965657 0.02714363 0.14932936 
-0.023471521 0.0246136 0.15057473 
-0.024258718 0.021649357 0.15292718 
-0.026023876 0.017342238 0.15508512 
-0.026758725 0.013998501 0.15599197 
-0.028036367 0.011427312 0.15642838 
-0.028332973 0.008201468 0.15650561 
-0.029720187 0.0044667143 0.15636085 
-0.032123305 0.00011584746 0.15709284 
-0.034233157 -0.0032385457 0.1577324 
-0.039871305 -0.0106568 0.15581705 
-0.019437037 0.034389306 0.1463917 
-0.020066073 0.03217539 0.14863549 
-0.020198533 0.0296105 0.14887685 
-0.020422392 0.027043281 0.14988369 
-0.020741682 0.02459688 0.15036023 
-0.02160808 0.021489363 0.15341033 
-0.023655605 0.016939577 0.1566072 
-0.024967695 0.014337353 0.15675484 
-0.025166698 0.011280674 0.15700823 
-0.02563995 0.0080286525 0.15772332 
-0.02737835 0.0031445832 0.15937683 
-0.029274864 -5.2413277e-05 0.15814143 
-0.03176153 -0.0045171357 0.15755112 
-0.0371113 -0.010831401 0.15719704 
-0.037348304 -0.013725211 0.15827705 
-0.016919887 0.034583505 0.14689513 
-0.017490054 0.032113593 0.14896072 
-0.017523427 0.02959396 0.14877039 
-0.017939005 0.027092978 0.15082088 
-0.018293772 0.024663948 0.15144145 
-0.01897197 0.021472696 0.15386716 
-0.02124151 0.017764565 0.15703881 
-0.021641405 0.014850652 0.15639985 
-0.022149516 0.011626319 0.15792076 
-0.022991259 0.0075894226 0.15977016 
-0.025645107 0.0022351157 0.1592458 
-0.02662106 -0.00096191803 0.16006295 
-0.029740267 -0.00527523 0.16038926 
-0.034594305 -0.010634701 0.15879704 
-0.032162145 -0.009627426 0.16208072 
-0.014744221 0.034575414 0.14727873 
-0.0150995 0.032274533 0.14875323 
-0.015015399 0.029816207 0.14836228 
-0.015576825 0.02740153 0.1509406 
-0.01590126 0.024625422 0.15153116 
-0.01696697 0.021666033 0.15404537 
-0.018499264 0.017733278 0.15793632 
-0.018887581 0.014786713 0.15725312 
-0.01937173 0.011553721 0.15878437 
-0.020656805 0.008458719 0.16095458 
-0.022311522 0.004305194 0.15945123 
-0.023666205 -0.0007999025 0.16224068 
-0.028856156 -0.002806461 0.16213453 
-0.027925076 -0.0045661745 0.16321048 
-0.02738192 -0.008345949 0.1639056 
-0.0121895615 0.034619827 0.14725721 
-0.01252283 0.032213964 0.14869602 
-0.01243879 0.029741796 0.14963152 
-0.0129499305 0.027327804 0.15151891 
-0.013487174 0.024809826 0.15211111 
-0.0142165385 0.021769075 0.15449883 
-0.015007126 0.017965104 0.15753567 
-0.015885396 0.014821804 0.15703721 
-0.01640684 0.01153305 0.15890795 
-0.017742613 0.008854733 0.16141266 
-0.0204116 0.0035029298 0.16283034 
-0.023181679 0.00037992324 0.16463959 
-0.023643771 -0.0017496081 0.16528945 
-0.02527806 -0.004496739 0.16575165 
-0.022904994 -0.009331598 0.16387795 
-0.009643225 0.034529854 0.14720994 
-0.009916322 0.032254715 0.1483803 
-0.01010842 0.030015973 0.15052451 
-0.010512195 0.027098913 0.15187137 
-0.011063989 0.024558073 0.15265347 
-0.011402389 0.021838997 0.1546656 
-0.011682765 0.018583192 0.15743773 
-0.012185864 0.015398925 0.15640238 
-0.013128324 0.012129142 0.1588994 
-0.014680642 0.009041476 0.16259517 
-0.017689899 0.0026185242 0.16431552 
-0.020397823 0.0012546324 0.16527537 
-0.020348348 -0.002311089 0.16637494 
-0.020373724 -0.0055615595 0.16699453 
-0.020268178 -0.009131014 0.16598225 
-0.0073732915 0.034754246 0.14730656 
-0.0075913584 0.03250274 0.14850089 
-0.0077247364 0.030035485 0.15105909 
-0.007664158 0.027375868 0.15183777 
-0.007941683 0.02461584 0.1523986 
-0.008555566 0.021728942 0.15532222 
-0.009360213 0.018602595 0.15822224 
-0.008915339 0.015624135 0.1575607 
-0.010398556 0.011938309 0.1602969 
-0.012332873 0.008698659 0.16302799 
-0.014011381 0.003570791 0.16418329 
-0.017258769 0.0009171567 0.1659592 
-0.017661076 -0.0021923354 0.16817714 
-0.01754555 -0.0058694435 0.16880612 
-0.018442675 -0.005183002 0.1717101 
-0.0048497934 0.034969606 0.14756124 
-0.004871445 0.032421086 0.14932482 
-0.0049075484 0.030283405 0.15098786 
-0.0048676366 0.027424527 0.1531091 
-0.0054197693 0.024676802 0.15443827 
-0.0066821813 0.021882562 0.15871044 
-0.006697184 0.018729094 0.15954591 
-0.0068656476 0.015791534 0.15975544 
-0.0073725134 0.012674827 0.1623083 
-0.0094078425 0.009537378 0.16400813 
-0.008659999 0.0055727097 0.16646911 
-0.009907273 0.002024473 0.16887067 
-0.011273518 -0.0007599265 0.16873504 
-0.012006481 -0.0036416866 0.16951057 
-0.01248803 -0.0050669517 0.17349394 
-0.0022820726 0.034930315 0.14776927 
-0.002394982 0.03239674 0.14962655 
-0.0022109381 0.030223811 0.15090366 
-0.002224215 0.027638255 0.15236138 
-0.0024774862 0.025068222 0.15435636 
-0.0031673436 0.022518324 0.15874566 
-0.0033851466 0.01932545 0.15992944 
-0.004392182 0.016134372 0.16176096 
-0.0046669743 0.013551588 0.16306596 
-0.005504632 0.010076009 0.16555168 
-0.0060130134 0.006171879 0.16851419 
-0.00699579 0.0027849479 0.17033345 
-0.008341161 0.0008347016 0.17087986 
-0.007786233 -0.001577559 0.17027783 
-0.009339855 -0.0046103047 0.1752024 
0.00025352807 0.0349876 0.14851242 
0.00016166002 0.032395914 0.14998536 
0.00016216644 0.030109787 0.15172596 
0.00015720644 0.0277992 0.15328847 
0.00014438506 0.025175987 0.1565074 
0.00017566355 0.022604696 0.15893671 
-0.00029402232 0.019971827 0.16057968 
-0.0008857778 0.01742641 0.1624056 
-0.0007727083 0.014580657 0.16459045 
-0.0024876746 0.01048604 0.16642866 
-0.003216126 0.0068874704 0.1697265 
-0.0036803212 0.0032839512 0.17036217 
-0.0032259503 0.0033518851 0.17208445 
-0.003380418 -0.00032207568 0.17387079 
-0.0041757775 -0.0032365886 0.1765765 
0.0028860131 0.03574978 0.14878231 
0.0026351667 0.033304904 0.15118237 
0.0025726457 0.030495761 0.15216526 
0.0028468417 0.027717045 0.15420377 
0.002845948 0.025136216 0.15663631 
0.002722006 0.022863409 0.15869316 
0.002701345 0.020536229 0.15968136 
0.0027025938 0.017877815 0.16269507 
0.0020953664 0.015024308 0.16484043 
0.0022361095 0.012131782 0.16768485 
0.0018359371 0.0094535705 0.17019607 
0.0017343473 0.0059551066 0.17082404 
0.0011793916 0.0037596428 0.17047586 
0.00030508888 0.00023417121 0.17415175 
0.00021265612 -0.0028028286 0.17511214 
0.0055766883 0.03556419 0.14737774 
0.0050067566 0.033510074 0.15021352 
0.0054793516 0.030866269 0.15170555 
0.005594143 0.028368918 0.15437792 
0.00580857 0.026312672 0.15746792 
0.0057999454 0.023762692 0.159025 
0.006076393 0.021123245 0.16060662 
0.0056673405 0.018294076 0.16295965 
0.005161768 0.015376524 0.16458343 
0.0051314603 0.013268839 0.16951926 
0.0044512684 0.010392331 0.17078292 
0.004473732 0.007277286 0.17207341 
0.0034276836 0.0053475318 0.17192432 
0.0032250127 0.0018370372 0.17554416 
0.0029402017 -0.0011710481 0.17839773 
0.0077588903 0.0359965 0.14852223 
0.007717564 0.03372316 0.15061367 
0.007783833 0.031081522 0.15092044 
0.007802041 0.029311674 0.1555106 
0.0079379175 0.026869252 0.1586315 
0.008292902 0.024269309 0.15990232 
0.008590954 0.02170345 0.16234471 
0.008756631 0.019294368 0.16402857 
0.008243169 0.016594725 0.16622898 
0.008211152 0.013518474 0.1695836 
0.008379973 0.010488524 0.16964328 
0.0069145113 0.008426761 0.17024954 
0.006484904 0.005094226 0.17396882 
0.0060110632 0.0019972944 0.17854226 
0.006396715 -0.0018346276 0.18070069 
0.010476544 0.035941042 0.14778212 
0.010480155 0.03336275 0.14901298 
0.01035967 0.03136983 0.15129529 
0.010722757 0.029797023 0.15619972 
0.0107943965 0.027362224 0.15892792 
0.01116447 0.024353126 0.15855771 
0.0113788145 0.022087878 0.1624942 
0.011392595 0.019846493 0.16476554 
0.011584578 0.017015526 0.16647808 
0.011844002 0.014044901 0.1674709 
0.011983422 0.010879885 0.1683168 
0.010113593 0.008310553 0.17044729 
0.009798902 0.004891438 0.17551216 
0.0102310935 0.00118606 0.17840846 
0.013134041 0.03570962 0.14610963 
0.013183656 0.033247154 0.14783065 
0.012903944 0.03148584 0.15185684 
0.013485495 0.029709687 0.15696855 
0.013864779 0.027642602 0.1586844 
0.014065298 0.024935294 0.15958503 
0.014257765 0.022586744 0.1637341 
0.014646288 0.020258714 0.16508053 
0.014981572 0.01742244 0.16656297 
0.015221583 0.014459267 0.16757865 
0.01610398 0.010873785 0.16836776 
0.013548341 0.00915147 0.17122167 
0.013856334 0.005531324 0.17489076 
0.014272477 0.0007513248 0.17630745 
0.015490779 0.035570275 0.14383715 
0.01568018 0.033340827 0.14756824 
0.015616879 0.03183134 0.15319252 
0.016561497 0.028147856 0.15779603 
-0.024375 0.038066 0.1491 
-0.02409387 0.035307765 0.14946128 
-0.024687106 0.032420177 0.15131672 
-0.025110729 0.029354574 0.15261698 
-0.025931288 0.02655273 0.15406097 
-0.02776387 0.022741862 0.1570838 
-0.030151818 0.018528502 0.16038775 
-0.031319786 0.0151434075 0.1617242 
-0.03175804 0.012078192 0.16132565 
-0.031801373 0.009174976 0.16069932 
-0.03257864 0.005908189 0.16016461 
-0.034467436 0.0024480193 0.16013592 
-0.03577138 -0.00068761373 0.15913707 
-0.021928 0.037908 0.1484 
-0.021821246 0.035347767 0.14961398 
-0.022459108 0.032533545 0.151499 
-0.02268716 0.029560657 0.15246953 
-0.023448674 0.026477588 0.15396714 
-0.024788518 0.022924952 0.15628168 
-0.026436266 0.018970596 0.1584682 
-0.027607875 0.015826346 0.1595485 
-0.028233785 0.0126347765 0.16001612 
-0.028679147 0.0093518235 0.15990117 
-0.029452138 0.005891027 0.15912239 
-0.031722307 0.0021044023 0.16019695 
-0.03387469 -0.0015867525 0.16048272 
-0.035827953 -0.0064745387 0.15846528 
-0.019301 0.038026 0.14837 
-0.019592792 0.035472445 0.1509176 
-0.020110982 0.032439746 0.1517369 
-0.02034241 0.029524306 0.15286964 
-0.020875633 0.026612954 0.1535833 
-0.022414971 0.023030404 0.15664653 
-0.024285233 0.018951878 0.15984438 
-0.025095789 0.015772702 0.16045748 
-0.025642969 0.012712202 0.16042657 
-0.026335929 0.009141992 0.16064781 
-0.028307997 0.0054815877 0.16189164 
-0.029857859 0.00093784963 0.1620362 
-0.031422053 -0.0028155101 0.16070017 
-0.03363598 -0.006519726 0.16046247 
-0.035308532 -0.00925418 0.16135994 
-0.01669 0.038186 0.14921 
-0.017305156 0.035626747 0.15078357 
-0.017552981 0.032416772 0.15164338 
-0.01810273 0.029615529 0.15369524 
-0.018419184 0.026908645 0.15432283 
-0.019690776 0.023533437 0.1568973 
-0.021640556 0.019283902 0.16035703 
-0.021945283 0.016311964 0.15990177 
-0.023098135 0.013072056 0.1610062 
-0.024542429 0.008896121 0.1627127 
-0.025972009 0.004526687 0.16282536 
-0.026985517 0.0011742587 0.162595 
-0.030310184 -0.001339186 0.1628354 
-0.03203617 -0.004951856 0.16303812 
-0.031956777 -0.0073326724 0.16250296 
-0.014177 0.038104 0.14895 
-0.014799326 0.035563737 0.15069352 
-0.014880506 0.03257001 0.15131778 
-0.015722146 0.029756809 0.15373893 
-0.016184263 0.026636763 0.1551389 
-0.017114902 0.023510333 0.15719211 
-0.018815905 0.019560771 0.16103913 
-0.019273091 0.016662572 0.16054532 
-0.02081163 0.013415044 0.16217239 
-0.02195702 0.0097650485 0.16394746 
-0.023077467 0.0050867763 0.16299424 
-0.025647657 0.0023956639 0.1646031 
-0.027526818 -0.0006963879 0.16595009 
-0.02837147 -0.0029432008 0.16613685 
-0.028823601 -0.0059055095 0.16520809 
-0.011691 0.038245 0.14897 
-0.0122476425 0.03554214 0.15079586 
-0.012398185 0.032593895 0.15241091 
-0.013250643 0.029561285 0.1544536 
-0.013633645 0.02691399 0.1555542 
-0.014349232 0.023743303 0.15742202 
-0.01565033 0.019995807 0.16029045 
-0.016201183 0.016803453 0.16026899 
-0.017708648 0.0137993675 0.1621153 
-0.018957661 0.00985403 0.16433635 
-0.02145887 0.005430754 0.165919 
-0.023410905 0.00254217 0.16799605 
-0.024491664 -0.00015765957 0.16849819 
-0.025414597 -0.0024899826 0.16832031 
-0.024055583 -0.0055473344 0.1664124 
-0.0092084 0.038259 0.14898 
-0.009592104 0.0356549 0.15052533 
-0.009785726 0.03288671 0.15277946 
-0.010726458 0.029475084 0.154825 
-0.011128986 0.026548726 0.15592992 
-0.011860316 0.023628803 0.15783232 
-0.012487915 0.02054935 0.16045201 
-0.012732821 0.017208282 0.15963095 
-0.014142545 0.013981951 0.16216944 
-0.016257502 0.010144364 0.16529281 
-0.01827215 0.005402851 0.1669068 
-0.019618295 0.0026685502 0.16876552 
-0.020481912 0.00023288064 0.1691118 
-0.021389488 -0.0025225664 0.16903245 
-0.020678401 -0.0054009785 0.16862367 
-0.0066193 0.038308 0.14927 
-0.006878538 0.035674624 0.15083586 
-0.007267306 0.0331003 0.15310244 
-0.007777234 0.030052306 0.15454102 
-0.008196689 0.026842488 0.15557227 
-0.009036337 0.024075128 0.1583085 
-0.009816669 0.020508511 0.16121411 
-0.009856186 0.017336806 0.1607629 
-0.011093841 0.014239196 0.16329853 
-0.013133082 0.010203675 0.1658439 
-0.013751371 0.0051643513 0.16703819 
-0.015880896 0.0027730009 0.16876504 
-0.016810184 0.00073348527 0.17050077 
-0.017095907 -0.0021436282 0.17042841 
-0.01769037 -0.0021872472 0.17342606 
-0.0041349 0.038434 0.14985 
-0.0043750154 0.035779536 0.15153225 
-0.0049061053 0.032918043 0.15334311 
-0.005337729 0.029848298 0.15561521 
-0.0056511024 0.026951281 0.15737359 
-0.006576906 0.023965107 0.16143498 
-0.007067713 0.020778386 0.16242076 
-0.0072914604 0.017930172 0.16276135 
-0.008458944 0.014987333 0.16501617 
-0.009743107 0.011477426 0.16682951 
-0.0102217095 0.0071840426 0.16868237 
-0.011890745 0.0044715884 0.17060801 
-0.012858149 0.001534001 0.17072764 
-0.013029408 -0.0009699649 0.17120042 
-0.01292777 -0.0017307057 0.17513497 
-0.0016168 0.038476 0.15007 
-0.001963361 0.035898477 0.15192299 
-0.0021133863 0.03344534 0.15347685 
-0.0025340684 0.030422362 0.15544403 
-0.0027325496 0.027474463 0.15740468 
-0.003374169 0.024684897 0.16151239 
-0.0038462162 0.021557774 0.16252291 
-0.004493458 0.018617101 0.16438472 
-0.005095632 0.015811471 0.16593085 
-0.006685567 0.011764161 0.16837455 
-0.007651357 0.008004443 0.1708678 
-0.0089404145 0.0051883124 0.17222592 
-0.010074256 0.002995837 0.17364608 
-0.008210255 0.0005740652 0.17278764 
-0.009607319 -0.0014523173 0.1771057 
0.00086337 0.038656 0.15075 
0.00047712168 0.036041416 0.15216732 
-1.695885e-05 0.033166856 0.15448275 
-3.7004484e-05 0.03035328 0.15632091 
-0.0001707845 0.027441064 0.15931405 
-0.00042382127 0.024857676 0.1615588 
-0.0009021123 0.0219427 0.1634428 
-0.0015320396 0.019205019 0.16538316 
-0.0019048505 0.016390609 0.16702949 
-0.002965315 0.012432563 0.16899267 
-0.004380108 0.009251838 0.1719852 
-0.0047944775 0.006179619 0.17304973 
-0.0059286766 0.004137274 0.1745074 
-0.005094341 0.0015817719 0.17532884 
-0.0061442326 -0.0012169443 0.17736953 
0.0033867 0.038768 0.15121 
0.0029853825 0.036258433 0.15346576 
0.0025498548 0.03341374 0.15461813 
0.0025182257 0.030321829 0.15683024 
0.002577748 0.02779876 0.15938807 
0.0026133324 0.025596129 0.16156384 
0.0026522703 0.022931624 0.162459 
0.0021304179 0.020231584 0.16525824 
0.0015279574 0.017581483 0.16739151 
0.00074531836 0.014249589 0.16978706 
-0.00062323746 0.010620847 0.17207788 
-0.0009122827 0.0075689396 0.17237206 
-0.00086823956 0.005648562 0.17350274 
-0.0014079148 0.003059594 0.17598532 
-0.0013667148 3.6926784e-05 0.17748486 
0.0058548 0.038502 0.15011 
0.0054592444 0.036307607 0.15276636 
0.0050715716 0.033465866 0.15443388 
0.0048431936 0.031210704 0.15712295 
0.0050960593 0.028875226 0.16028763 
0.0053483094 0.026248224 0.16213371 
0.005552994 0.02365479 0.16350266 
0.005468733 0.021017194 0.16552258 
0.0050034947 0.018245734 0.16730368 
0.0043802676 0.015465182 0.1715197 
0.0031889216 0.01254904 0.1729554 
0.0023831064 0.009324578 0.17387676 
0.0021305818 0.006967503 0.1755203 
0.0016620326 0.0040663686 0.17725846 
0.001334965 0.0015252869 0.17970367 
0.0083977 0.038667 0.15084 
0.008097763 0.036542367 0.15309708 
0.0076161344 0.033891372 0.15376839 
0.007823212 0.031673208 0.15849897 
0.008101204 0.029270021 0.16145325 
0.008275991 0.026646925 0.16260105 
0.0085158 0.024207795 0.16500124 
0.008535517 0.021630088 0.16710812 
0.008281855 0.018824846 0.16885136 
0.008034449 0.01616267 0.17164196 
0.0076155085 0.01312766 0.17203139 
0.0066529717 0.010454092 0.17350538 
0.0058575426 0.0072299135 0.17658687 
0.004730172 0.004589112 0.17964964 
0.004480007 0.0015500198 0.18147738 
0.010862 0.0385 0.15015 
0.010541125 0.036108397 0.15166634 
0.010498858 0.03410261 0.15410447 
0.010845693 0.03211284 0.15907712 
0.011077581 0.029842349 0.16160417 
0.011188696 0.02705105 0.16141416 
0.0115351975 0.024972685 0.16501756 
0.011745236 0.022673005 0.16742209 
0.011910884 0.01984703 0.16885072 
0.011795741 0.016772758 0.16984405 
0.011548309 0.013505398 0.1707507 
0.010661978 0.0105373645 0.17295764 
0.010140957 0.007370836 0.17686047 
0.008462699 0.00408679 0.179592 
0.013229 0.038143 0.14866 
0.013187983 0.035932746 0.15050691 
0.013499767 0.03406833 0.15473056 
0.01386923 0.03237045 0.15926398 
0.0140230665 0.030179666 0.16123386 
0.01447 0.027859 0.16214 
0.0147 0.025584 0.16627 
0.014954 0.022936 0.16732 
0.015137 0.02026 0.16876 
0.015188 0.017514 0.16982 
0.015221 0.01461 0.17075 
0.014865 0.011328 0.17295 
0.015236 0.0077504 0.1756 
0.012471738 0.0044721873 0.1766259 
0.015323 0.037628 0.14672 
0.015606 0.035891 0.15012 
0.016176 0.034518 0.15582 
0.016661 0.030555 0.16101 
-0.029671492 -0.0024500603 0.16470452 
-0.029813683 0.010855918 0.16026469 
0.013279998 0.024024198 0.16643578 
-0.02655361 -0.003942535 0.16572224 
-0.016087746 0.03400186 0.15128669 
0.009818014 0.014895066 0.17105308 
-0.036583535 -0.0048378324 0.15633222 
-0.03691244 -0.0037732902 0.15922835 
-0.024486994 0.03347949 0.14795953 
-0.023695376 -0.0069899186 0.16522141 
0.0139952125 0.026365142 0.1608135 
0.015360958 0.03634007 0.14541835 
-0.024362432 0.036313772 0.14818467 
-0.031299386 0.011048986 0.15955184 
-0.027899107 -0.006875445 0.16427106 
-0.027364267 -0.0055847703 0.16561963 
-0.014459881 0.036099665 0.14822455 
-0.031368367 -0.008146336 0.16256487 
3 15 1 14 
3 14 29 15 
3 1 13 14 
3 15 2 1 
3 29 16 15 
3 14 28 29 
3 13 27 14 
3 15 16 2 
3 16 3 2 
3 29 30 16 
3 28 44 29 
3 14 27 28 
3 27 43 28 
3 16 17 3 
3 30 31 16 
3 29 44 30 
3 44 45 30 
3 28 43 44 
3 43 59 44 
3 27 42 43 
3 17 4 3 
3 16 31 17 
3 31 32 17 
3 30 46 31 
3 45 46 30 
3 45 60 46 
3 44 60 45 
3 44 59 60 
3 59 74 60 
3 43 58 59 
3 42 58 43 
3 42 57 58 
3 17 18 4 
3 32 18 17 
3 32 19 18 
3 31 47 32 
3 46 47 31 
3 46 61 47 
3 60 61 46 
3 60 75 61 
3 74 75 60 
3 74 90 75 
3 59 73 74 
3 58 73 59 
3 58 57 73 
3 57 72 73 
3 18 5 4 
3 19 5 18 
3 61 62 47 
3 75 76 61 
3 90 76 75 
3 90 91 76 
3 74 89 90 
3 73 88 74 
3 72 88 73 
3 72 87 88 
3 61 77 62 
3 76 77 61 
3 76 91 77 
3 91 92 77 
3 90 106 91 
3 89 105 90 
3 74 88 89 
3 88 103 89 
3 87 102 88 
3 77 78 62 
3 92 78 77 
3 92 93 78 
3 91 106 92 
3 106 107 92 
3 90 105 106 
3 105 120 106 
3 89 104 105 
3 103 104 89 
3 103 118 104 
3 88 102 103 
3 102 117 103 
3 93 94 78 
3 92 107 93 
3 107 108 93 
3 106 121 107 
3 120 121 106 
3 120 135 121 
3 105 119 120 
3 104 119 105 
3 104 118 119 
3 118 134 119 
3 103 117 118 
3 117 132 118 
3 94 79 78 
3 93 108 94 
3 108 109 94 
3 107 122 108 
3 121 122 107 
3 121 137 122 
3 135 136 121 
3 120 119 135 
3 119 134 135 
3 134 149 135 
3 118 133 134 
3 132 133 118 
3 132 148 133 
3 79 64 78 
3 94 95 79 
3 109 95 94 
3 109 110 95 
3 108 123 109 
3 122 123 108 
3 122 138 123 
3 137 138 122 
3 137 152 138 
3 121 136 137 
3 136 151 137 
3 135 150 136 
3 149 150 135 
3 149 164 150 
3 134 148 149 
3 148 134 133 
3 132 147 148 
3 64 63 78 
3 79 80 64 
3 95 80 79 
3 109 124 110 
3 123 124 109 
3 123 138 124 
3 138 139 124 
3 152 153 138 
3 137 151 152 
3 151 166 152 
3 136 150 151 
3 150 165 151 
3 164 165 150 
3 164 179 165 
3 149 148 164 
3 148 163 164 
3 147 162 148 
3 64 48 63 
3 80 65 64 
3 124 125 110 
3 139 125 124 
3 139 140 125 
3 138 153 139 
3 153 154 139 
3 152 168 153 
3 166 167 152 
3 151 165 166 
3 165 180 166 
3 179 180 165 
3 179 194 180 
3 164 178 179 
3 163 178 164 
3 163 162 178 
3 162 163 148 
3 64 49 48 
3 65 50 64 
3 80 66 65 
3 125 111 110 
3 140 126 125 
3 139 154 140 
3 154 155 140 
3 153 169 154 
3 168 169 153 
3 168 184 169 
3 152 167 168 
3 167 182 168 
3 166 181 167 
3 180 181 166 
3 180 195 181 
3 194 195 180 
3 179 178 194 
3 178 193 194 
3 162 177 178 
3 49 33 48 
3 64 50 49 
3 50 35 49 
3 65 51 50 
3 66 51 65 
3 66 52 51 
3 80 81 66 
3 111 96 110 
3 125 126 111 
3 140 141 126 
3 154 170 155 
3 169 170 154 
3 169 185 170 
3 184 185 169 
3 184 199 185 
3 168 183 184 
3 182 183 168 
3 182 197 183 
3 167 181 182 
3 181 196 182 
3 195 196 181 
3 195 210 196 
3 193 208 194 
3 178 192 193 
3 177 192 178 
3 49 34 33 
3 35 34 49 
3 35 20 34 
3 50 36 35 
3 51 36 50 
3 51 37 36 
3 52 37 51 
3 52 38 37 
3 66 67 52 
3 81 67 66 
3 141 127 126 
3 170 171 155 
3 199 200 185 
3 184 198 199 
3 183 198 184 
3 183 197 198 
3 197 213 198 
3 182 196 197 
3 196 212 197 
3 210 211 196 
3 208 209 194 
3 193 192 208 
3 192 207 208 
3 34 19 33 
3 35 21 20 
3 36 22 35 
3 37 23 36 
3 38 24 37 
3 52 53 38 
3 67 53 52 
3 67 68 53 
3 141 142 127 
3 171 156 155 
3 199 215 200 
3 198 213 199 
3 213 214 199 
3 197 212 213 
3 212 226 213 
3 196 211 212 
3 211 225 212 
3 210 225 211 
3 210 224 225 
3 208 222 209 
3 207 222 208 
3 207 221 222 
3 34 20 19 
3 20 6 19 
3 21 7 20 
3 35 22 21 
3 22 9 21 
3 36 23 22 
3 23 9 22 
3 23 10 9 
3 37 24 23 
3 24 10 23 
3 24 11 10 
3 38 25 24 
3 53 39 38 
3 68 54 53 
3 67 82 68 
3 142 128 127 
3 141 157 142 
3 171 172 156 
3 215 216 200 
3 199 214 215 
3 214 228 215 
3 213 228 214 
3 213 227 228 
3 226 227 213 
3 212 225 226 
3 225 238 226 
3 224 238 225 
3 210 223 224 
3 222 223 209 
3 221 235 222 
3 20 7 6 
3 21 8 7 
3 9 8 21 
3 24 12 11 
3 25 12 24 
3 38 39 25 
3 39 26 25 
3 53 54 39 
3 54 40 39 
3 68 69 54 
3 82 83 68 
3 128 112 127 
3 142 143 128 
3 157 158 142 
3 141 156 157 
3 172 157 156 
3 172 173 157 
3 171 187 172 
3 216 201 200 
3 215 229 216 
3 228 229 215 
3 223 237 224 
3 210 209 223 
3 222 236 223 
3 235 236 222 
3 39 40 26 
3 40 41 26 
3 54 55 40 
3 69 70 54 
3 68 83 69 
3 83 84 69 
3 82 97 83 
3 128 113 112 
3 143 129 128 
3 142 158 143 
3 158 159 143 
3 157 173 158 
3 173 174 158 
3 172 188 173 
3 187 188 172 
3 187 203 188 
3 171 186 187 
3 201 186 200 
3 216 202 201 
3 229 230 216 
3 40 55 41 
3 55 56 41 
3 54 70 55 
3 70 71 55 
3 69 84 70 
3 84 85 70 
3 83 99 84 
3 97 98 83 
3 113 97 112 
3 128 129 113 
3 129 114 113 
3 143 144 129 
3 159 144 143 
3 159 145 144 
3 158 174 159 
3 174 175 159 
3 173 188 174 
3 188 189 174 
3 203 189 188 
3 203 204 189 
3 187 202 203 
3 216 217 202 
3 230 231 216 
3 55 71 56 
3 70 86 71 
3 85 86 70 
3 85 100 86 
3 84 100 85 
3 84 99 100 
3 99 115 100 
3 83 98 99 
3 98 113 99 
3 113 98 97 
3 114 99 113 
3 114 115 99 
3 114 130 115 
3 129 130 114 
3 129 145 130 
3 145 129 144 
3 159 160 145 
3 175 160 159 
3 175 176 160 
3 174 189 175 
3 189 190 175 
3 204 190 189 
3 204 205 190 
3 202 218 203 
3 217 218 202 
3 217 232 218 
3 216 231 217 
3 231 232 217 
3 100 101 86 
3 115 101 100 
3 115 116 101 
3 130 116 115 
3 130 131 116 
3 176 161 160 
3 175 190 176 
3 190 191 176 
3 205 191 190 
3 205 206 191 
3 204 219 205 
3 205 220 206 
3 219 220 205 
3 219 234 220 
3 219 233 234 
3 1 0 13 
3 47 48 32 
3 62 63 47 
3 110 96 95 
3 96 81 95 
3 63 62 78 
3 48 47 63 
3 155 156 140 
3 156 141 140 
3 194 209 195 
3 209 210 195 
3 33 32 48 
3 80 95 81 
3 111 97 96 
3 126 112 111 
3 185 171 170 
3 81 82 67 
3 81 96 82 
3 19 32 33 
3 6 5 19 
3 251 484 485 
3 112 126 127 
3 223 236 237 
3 82 96 97 
3 171 185 186 
3 186 202 187 
3 186 201 202 
3 97 111 112 
3 203 218 204 
3 218 219 204 
3 218 233 219 
3 218 232 233 
3 145 131 130 
3 200 186 185 
3 224 237 238 
3 160 161 145 
3 161 146 145 
3 145 146 131 
3 240 254 253 
3 268 253 254 
3 252 240 253 
3 241 254 240 
3 255 268 254 
3 267 253 268 
3 266 252 253 
3 255 254 241 
3 242 255 241 
3 269 268 255 
3 283 267 268 
3 266 253 267 
3 282 266 267 
3 256 255 242 
3 270 269 255 
3 283 268 269 
3 284 283 269 
3 282 267 283 
3 12 25 484 
3 281 266 282 
3 243 256 242 
3 270 255 256 
3 271 270 256 
3 285 269 270 
3 285 284 269 
3 299 284 285 
3 299 283 284 
3 298 283 299 
3 313 298 299 
3 441 456 483 
3 297 281 282 
3 296 281 297 
3 257 256 243 
3 257 271 256 
3 258 271 257 
3 286 270 271 
3 286 285 270 
3 300 285 286 
3 300 299 285 
3 314 299 300 
3 314 313 299 
3 329 313 314 
3 312 298 313 
3 312 297 298 
3 296 297 312 
3 311 296 312 
3 244 257 243 
3 244 258 257 
3 301 300 286 
3 315 314 300 
3 315 329 314 
3 330 329 315 
3 328 313 329 
3 327 312 313 
3 327 311 312 
3 326 311 327 
3 316 300 301 
3 316 315 300 
3 330 315 316 
3 331 330 316 
3 345 329 330 
3 344 328 329 
3 327 313 328 
3 342 327 328 
3 341 326 327 
3 317 316 301 
3 317 331 316 
3 332 331 317 
3 345 330 331 
3 346 345 331 
3 344 329 345 
3 359 344 345 
3 343 328 344 
3 343 342 328 
3 357 342 343 
3 341 327 342 
3 356 341 342 
3 333 332 317 
3 346 331 332 
3 347 346 332 
3 360 345 346 
3 360 359 345 
3 374 359 360 
3 358 344 359 
3 358 343 344 
3 357 343 358 
3 373 357 358 
3 356 342 357 
3 371 356 357 
3 318 333 317 
3 347 332 333 
3 348 347 333 
3 361 346 347 
3 361 360 346 
3 376 360 361 
3 375 374 360 
3 358 359 374 
3 373 358 374 
3 388 373 374 
3 372 357 373 
3 372 371 357 
3 387 371 372 
3 303 318 317 
3 334 333 318 
3 334 348 333 
3 349 348 334 
3 362 347 348 
3 362 361 347 
3 377 361 362 
3 377 376 361 
3 391 376 377 
3 375 360 376 
3 390 375 376 
3 389 374 375 
3 389 388 374 
3 403 388 389 
3 387 373 388 
3 373 387 372 
3 386 371 387 
3 302 303 317 
3 319 318 303 
3 319 334 318 
3 363 348 349 
3 363 362 348 
3 377 362 363 
3 378 377 363 
3 392 391 377 
3 390 376 391 
3 405 390 391 
3 389 375 390 
3 404 389 390 
3 404 403 389 
3 418 403 404 
3 387 388 403 
3 402 387 403 
3 401 386 387 
3 287 303 302 
3 304 319 303 
3 364 363 349 
3 364 378 363 
3 379 378 364 
3 392 377 378 
3 393 392 378 
3 407 391 392 
3 406 405 391 
3 404 390 405 
3 419 404 405 
3 419 418 404 
3 433 418 419 
3 417 403 418 
3 417 402 403 
3 401 402 417 
3 402 401 387 
3 288 303 287 
3 289 304 303 
3 305 319 304 
3 350 364 349 
3 365 379 364 
3 393 378 379 
3 394 393 379 
3 408 392 393 
3 408 407 392 
3 423 407 408 
3 406 391 407 
3 421 406 407 
3 420 405 406 
3 420 419 405 
3 434 419 420 
3 434 433 419 
3 417 418 433 
3 432 417 433 
3 416 401 417 
3 272 288 287 
3 289 303 288 
3 274 289 288 
3 290 304 289 
3 290 305 304 
3 291 305 290 
3 320 319 305 
3 335 350 349 
3 365 364 350 
3 380 379 365 
3 409 393 394 
3 409 408 393 
3 424 408 409 
3 424 423 408 
3 438 423 424 
3 422 407 423 
3 422 421 407 
3 436 421 422 
3 420 406 421 
3 435 420 421 
3 435 434 420 
3 449 434 435 
3 447 432 433 
3 431 417 432 
3 431 416 417 
3 273 288 272 
3 273 274 288 
3 259 274 273 
3 275 289 274 
3 275 290 289 
3 276 290 275 
3 276 291 290 
3 277 291 276 
3 306 305 291 
3 306 320 305 
3 366 380 365 
3 410 409 394 
3 439 438 424 
3 437 423 438 
3 437 422 423 
3 436 422 437 
3 452 436 437 
3 435 421 436 
3 451 435 436 
3 450 449 435 
3 448 447 433 
3 431 432 447 
3 446 431 447 
3 258 273 272 
3 260 274 259 
3 261 275 274 
3 262 276 275 
3 263 277 276 
3 292 291 277 
3 292 306 291 
3 307 306 292 
3 381 380 366 
3 395 410 394 
3 454 438 439 
3 452 437 438 
3 453 452 438 
3 451 436 452 
3 465 451 452 
3 450 435 451 
3 464 450 451 
3 464 449 450 
3 463 449 464 
3 461 447 448 
3 461 446 447 
3 460 446 461 
3 259 273 258 
3 245 259 258 
3 246 260 259 
3 261 274 260 
3 297 282 482 
3 262 275 261 
3 248 262 261 
3 249 262 248 
3 263 276 262 
3 249 263 262 
3 250 263 249 
3 264 277 263 
3 278 292 277 
3 293 307 292 
3 321 306 307 
3 367 381 366 
3 396 380 381 
3 411 410 395 
3 455 454 439 
3 453 438 454 
3 467 453 454 
3 456 455 483 
3 325 324 481 
3 466 465 452 
3 464 451 465 
3 477 464 465 
3 477 463 464 
3 462 449 463 
3 462 461 448 
3 474 460 461 
3 246 259 245 
3 247 260 246 
3 467 466 480 
3 251 263 250 
3 251 264 263 
3 278 277 264 
3 265 278 264 
3 293 292 278 
3 279 293 278 
3 308 307 293 
3 322 321 307 
3 351 367 366 
3 382 381 367 
3 397 396 381 
3 395 380 396 
3 396 411 395 
3 412 411 396 
3 426 410 411 
3 440 455 439 
3 468 454 455 
3 468 467 454 
3 476 462 463 
3 448 449 462 
3 475 461 462 
3 475 474 461 
3 279 278 265 
3 280 279 265 
3 294 293 279 
3 324 309 481 
3 322 307 308 
3 323 322 308 
3 336 321 322 
3 352 367 351 
3 368 382 367 
3 397 381 382 
3 398 397 382 
3 412 396 397 
3 413 412 397 
3 427 411 412 
3 427 426 411 
3 442 426 427 
3 425 410 426 
3 425 440 439 
3 265 264 485 
3 469 468 455 
3 294 279 280 
3 295 294 280 
3 260 247 479 
3 310 309 294 
3 323 308 309 
3 324 323 309 
3 338 322 323 
3 337 336 322 
3 336 352 351 
3 368 367 352 
3 353 368 352 
3 383 382 368 
3 383 398 382 
3 384 398 383 
3 413 397 398 
3 414 413 398 
3 427 412 413 
3 428 427 413 
3 428 442 427 
3 443 442 428 
3 441 426 442 
3 251 12 484 
3 470 469 455 
3 310 294 295 
3 264 251 485 
3 298 297 482 
3 339 324 325 
3 339 323 324 
3 338 323 339 
3 354 338 339 
3 337 322 338 
3 352 337 338 
3 337 352 336 
3 338 353 352 
3 354 353 338 
3 369 353 354 
3 369 368 353 
3 384 368 369 
3 368 384 383 
3 399 398 384 
3 399 414 398 
3 415 414 399 
3 428 413 414 
3 429 428 414 
3 429 443 428 
3 444 443 429 
3 457 441 442 
3 457 456 441 
3 471 456 457 
3 470 455 456 
3 471 470 456 
3 340 339 325 
3 340 354 339 
3 355 354 340 
3 355 369 354 
3 370 369 355 
3 400 415 399 
3 429 414 415 
3 430 429 415 
3 430 444 429 
3 445 444 430 
3 458 443 444 
3 459 444 445 
3 459 458 444 
3 473 458 459 
3 472 458 473 
3 239 240 252 
3 287 286 271 
3 302 301 286 
3 335 349 334 
3 320 335 334 
3 301 302 317 
3 286 287 302 
3 395 394 379 
3 380 395 379 
3 448 433 434 
3 449 448 434 
3 271 272 287 
3 334 319 320 
3 336 350 335 
3 351 365 350 
3 410 424 409 
3 321 320 306 
3 335 320 321 
3 271 258 272 
3 244 245 258 
3 241 240 486 
3 365 351 366 
3 475 462 476 
3 335 321 336 
3 424 410 425 
3 441 425 426 
3 440 425 441 
3 350 336 351 
3 457 442 443 
3 458 457 443 
3 472 457 458 
3 471 457 472 
3 370 384 369 
3 425 439 424 
3 476 463 477 
3 400 399 384 
3 385 400 384 
3 385 384 370 
3 385 370 146 
3 370 131 146 
3 385 146 400 
3 146 161 400 
3 400 161 415 
3 161 176 415 
3 430 415 191 
3 415 176 191 
3 430 191 445 
3 191 206 445 
3 445 206 459 
3 206 220 459 
3 459 220 473 
3 220 234 473 
3 472 473 233 
3 473 234 233 
3 471 472 232 
3 472 233 232 
3 470 471 231 
3 471 232 231 
3 469 470 230 
3 470 231 230 
3 468 469 229 
3 469 230 229 
3 467 468 228 
3 468 229 228 
3 466 467 227 
3 467 228 227 
3 466 227 465 
3 240 239 490 
3 477 465 238 
3 221 474 489 
3 477 238 476 
3 238 237 476 
3 476 237 475 
3 237 236 475 
3 475 236 474 
3 7 8 491 
3 460 474 221 
3 239 252 490 
3 446 460 207 
3 460 221 207 
3 431 446 192 
3 446 207 192 
3 431 192 416 
3 192 177 416 
3 401 416 162 
3 416 177 162 
3 401 162 386 
3 162 147 386 
3 386 147 371 
3 147 132 371 
3 371 132 356 
3 132 117 356 
3 356 117 341 
3 117 102 341 
3 341 102 326 
3 102 87 326 
3 326 87 311 
3 87 72 311 
3 56 492 495 
3 295 280 495 
3 281 42 266 
3 42 27 266 
3 266 27 252 
3 27 13 252 
3 481 310 493 
3 248 247 491 
3 8 248 491 
3 86 101 487 
3 235 221 489 
3 465 227 488 
3 241 2 242 
3 2 3 242 
3 242 3 243 
3 3 4 243 
3 244 243 5 
3 243 4 5 
3 245 244 6 
3 244 5 6 
3 246 245 7 
3 245 6 7 
3 246 7 247 
3 325 481 493 
3 57 42 494 
3 8 9 248 
3 248 9 249 
3 9 10 249 
3 249 10 250 
3 10 11 250 
3 250 11 251 
3 11 12 251 
3 0 1 486 
3 56 71 492 
3 265 26 280 
3 26 41 280 
3 280 41 56 
3 72 57 494 
3 492 325 493 
3 280 56 495 
3 238 465 488 
3 247 7 491 
3 226 238 488 
3 355 340 116 
3 340 101 116 
3 370 355 131 
3 355 116 131 
3 466 452 480 
3 293 294 478 
3 294 309 478 
3 247 248 479 
3 308 293 478 
3 309 308 478 
3 261 260 479 
3 248 261 479 
3 453 467 480 
3 452 453 480 
3 310 295 495 
3 309 310 481 
3 283 298 482 
3 282 283 482 
3 440 441 483 
3 455 440 483 
3 25 26 484 
3 310 492 493 
3 71 86 487 
3 484 26 485 
3 26 265 485 
3 1 2 486 
3 2 241 486 
3 340 325 487 
3 101 340 487 
3 227 226 488 
3 474 236 489 
3 236 235 489 
3 252 13 490 
3 13 0 490 
3 0 486 490 
3 486 240 490 
3 71 487 492 
3 487 325 492 
3 281 296 494 
3 42 281 494 
3 311 72 494 
3 296 311 494 
3 492 310 495 
