ply
format ascii 1.0
comment PCL generated
element vertex 672
property float x
property float y
property float z
element face 1340
property list uchar int vertex_indices
end_header
-0.055307 0.032275 0.18528 
-0.055856 0.029368 0.18637 
-0.056593 0.026493 0.18862 
-0.057509 0.023585 0.19125 
-0.057882 0.020542 0.19329 
-0.051285 0.034839 0.18175 
-0.05173 0.032155 0.18344 
-0.052082 0.029135 0.18439 
-0.052734 0.026361 0.18653 
-0.053678 0.02357 0.1898 
-0.054533 0.020746 0.19288 
-0.054978 0.017673 0.19507 
-0.05576 0.014407 0.19794 
-0.047793 0.037662 0.17992 
-0.048124 0.03471 0.18112 
-0.048505 0.031891 0.18258 
-0.048946 0.029115 0.18427 
-0.049787 0.026495 0.18736 
-0.050495 0.023675 0.19004 
-0.051146 0.021016 0.193 
-0.051973 0.018108 0.19617 
-0.05317 0.014497 0.20007 
-0.053992 0.010808 0.20373 
-0.05446 0.0071429 0.20596 
-0.044234 0.040384 0.17832 
-0.044583 0.037614 0.17947 
-0.045054 0.034812 0.18117 
-0.045568 0.031978 0.18318 
-0.046005 0.029135 0.18493 
-0.046895 0.026658 0.18838 
-0.047388 0.023733 0.19049 
-0.047947 0.021273 0.19331 
-0.049093 0.018532 0.19735 
-0.050258 0.014548 0.20195 
-0.051316 0.010569 0.20614 
-0.05185 0.0068393 0.20827 
-0.052673 0.0038661 0.21151 
-0.053035 0.00072522 0.21342 
-0.040978 0.043044 0.17827 
-0.041411 0.040566 0.17924 
-0.041745 0.037816 0.18042 
-0.042385 0.035109 0.18279 
-0.04289 0.032284 0.18505 
-0.043207 0.029389 0.18645 
-0.043903 0.026807 0.18939 
-0.044282 0.023843 0.19105 
-0.044911 0.021181 0.19375 
-0.045797 0.018585 0.19762 
-0.046999 0.014712 0.20265 
-0.047802 0.010874 0.20608 
-0.048434 0.006875 0.20866 
-0.049119 0.0038753 0.21159 
-0.049487 0.00068366 0.2135 
-0.049788 -0.0026652 0.21557 
-0.050267 -0.0059251 0.21815 
-0.050205 -0.0089828 0.22071 
-0.038172 0.04325 0.17844 
-0.038545 0.040622 0.18012 
-0.038903 0.0379 0.18123 
-0.039546 0.035343 0.18397 
-0.040001 0.032454 0.18633 
-0.040274 0.029562 0.18755 
-0.040787 0.02687 0.18985 
-0.041121 0.02395 0.19144 
-0.041698 0.021278 0.19416 
-0.042715 0.018694 0.19871 
-0.043531 0.015148 0.20262 
-0.044257 0.011487 0.206 
-0.044842 0.007466 0.20859 
-0.045518 0.0040034 0.21152 
-0.046009 0.00068231 0.2141 
-0.046401 -0.0026587 0.2167 
-0.046716 -0.0061472 0.21832 
-0.047055 -0.0095371 0.22065 
-0.047281 -0.013367 0.22266 
-0.047141 -0.017011 0.22467 
-0.03522 0.043195 0.17895 
-0.035518 0.040536 0.18033 
-0.035878 0.037837 0.18162 
-0.036534 0.035337 0.18449 
-0.036867 0.032392 0.18643 
-0.037018 0.029574 0.18775 
-0.037607 0.026912 0.19021 
-0.038012 0.023983 0.19209 
-0.038637 0.021393 0.19523 
-0.039509 0.018637 0.1995 
-0.040216 0.015442 0.20331 
-0.040805 0.011885 0.20619 
-0.041333 0.0080251 0.20874 
-0.042071 0.0042863 0.21244 
-0.042462 0.00071954 0.21441 
-0.042961 -0.002658 0.21746 
-0.043232 -0.0061737 0.21958 
-0.0434 -0.009811 0.22052 
-0.043656 -0.013704 0.22182 
-0.043759 -0.017669 0.22352 
-0.043973 -0.022108 0.22515 
-0.032219 0.043186 0.17929 
-0.03257 0.040611 0.18102 
-0.033004 0.037901 0.18266 
-0.033348 0.035281 0.18445 
-0.03374 0.032521 0.1867 
-0.033993 0.029699 0.18871 
-0.03462 0.027084 0.19142 
-0.0351 0.024339 0.19406 
-0.035701 0.02151 0.19718 
-0.03632 0.018529 0.20067 
-0.036858 0.015322 0.20362 
-0.03743 0.011862 0.20673 
-0.037952 0.008089 0.20956 
-0.038468 0.0043539 0.21246 
-0.038952 0.00072022 0.21519 
-0.039272 -0.0027072 0.21808 
-0.039541 -0.0063004 0.21998 
-0.039652 -0.010102 0.22033 
-0.039777 -0.014039 0.22127 
-0.040012 -0.018508 0.22321 
-0.040431 -0.022481 0.22477 
-0.029291 0.043167 0.17983 
-0.029605 0.040719 0.18168 
-0.030066 0.038273 0.18422 
-0.03049 0.035604 0.18614 
-0.030831 0.032809 0.18827 
-0.031142 0.029943 0.19018 
-0.031604 0.027287 0.19288 
-0.032039 0.02441 0.19552 
-0.032525 0.021524 0.19821 
-0.033009 0.018421 0.20131 
-0.03353 0.015079 0.2045 
-0.034065 0.011724 0.20771 
-0.034534 0.0080737 0.21041 
-0.034995 0.0043327 0.21344 
-0.035358 0.00073081 0.21648 
-0.035639 -0.0028725 0.21777 
-0.035803 -0.0066405 0.21983 
-0.036073 -0.01051 0.22178 
-0.036193 -0.014407 0.2231 
-0.036395 -0.01849 0.22387 
-0.036724 -0.022283 0.22561 
-0.026468 0.043666 0.18088 
-0.026651 0.040908 0.18234 
-0.027185 0.038586 0.18542 
-0.027554 0.035925 0.18775 
-0.027814 0.033045 0.18945 
-0.028038 0.030139 0.19108 
-0.028518 0.027469 0.19411 
-0.028958 0.024551 0.19705 
-0.029298 0.021443 0.19928 
-0.029714 0.018171 0.20238 
-0.030196 0.014903 0.20559 
-0.030678 0.011443 0.20902 
-0.031132 0.0077751 0.21201 
-0.031489 0.0041367 0.21477 
-0.031711 0.00055132 0.21726 
-0.031989 -0.0030623 0.21801 
-0.032197 -0.0067797 0.22097 
-0.032547 -0.010627 0.22335 
-0.032706 -0.014475 0.22433 
-0.03299 -0.018395 0.226 
-0.033553 -0.022254 0.22824 
-0.023511 0.043853 0.18144 
-0.023731 0.041175 0.18296 
-0.02408 0.038632 0.18552 
-0.024391 0.035955 0.18791 
-0.024616 0.033181 0.19005 
-0.024907 0.030371 0.19199 
-0.025344 0.027601 0.19491 
-0.025755 0.02466 0.19817 
-0.026038 0.021381 0.20045 
-0.02635 0.018144 0.20299 
-0.026731 0.014769 0.20577 
-0.027125 0.011204 0.20943 
-0.027439 0.0075536 0.2125 
-0.027828 0.0039255 0.21566 
-0.02812 0.00046669 0.21818 
-0.028304 -0.0032095 0.2194 
-0.028622 -0.0067964 0.22259 
-0.028846 -0.010648 0.2239 
-0.029411 -0.014361 0.22611 
-0.029746 -0.01835 0.22836 
-0.030164 -0.022353 0.23024 
-0.030472 -0.026309 0.23217 
-0.020548 0.044101 0.18203 
-0.02071 0.041368 0.18358 
-0.020891 0.038589 0.18518 
-0.021185 0.035987 0.1879 
-0.021485 0.03328 0.19093 
-0.021698 0.030432 0.19313 
-0.022063 0.027728 0.19626 
-0.022381 0.024591 0.19932 
-0.022639 0.021426 0.2017 
-0.022933 0.018082 0.20462 
-0.023238 0.014695 0.2068 
-0.023514 0.011028 0.20989 
-0.023868 0.0074164 0.21317 
-0.024267 0.0039248 0.21666 
-0.024522 0.00043825 0.21905 
-0.024664 -0.0032422 0.2203 
-0.025042 -0.006839 0.22384 
-0.02521 -0.01058 0.22399 
-0.025587 -0.014347 0.22613 
-0.026123 -0.018407 0.22945 
-0.026526 -0.022403 0.23224 
-0.026523 -0.026349 0.23224 
-0.017755 0.044454 0.18381 
-0.017791 0.041753 0.18516 
-0.017837 0.038792 0.18599 
-0.018079 0.036094 0.18859 
-0.018224 0.033343 0.19127 
-0.018421 0.030481 0.19345 
-0.018749 0.027708 0.19746 
-0.019025 0.024569 0.2002 
-0.019274 0.02137 0.20262 
-0.019517 0.017978 0.20553 
-0.019733 0.014463 0.20806 
-0.020066 0.011007 0.21142 
-0.020343 0.0074816 0.21419 
-0.020743 0.0039774 0.2181 
-0.020926 0.00046362 0.22013 
-0.021031 -0.0032412 0.2217 
-0.021566 -0.0067331 0.22493 
-0.021777 -0.010417 0.22506 
-0.02194 -0.014325 0.2268 
-0.022364 -0.018387 0.23026 
-0.022423 -0.022454 0.2309 
-0.022662 -0.026446 0.23299 
-0.01474 0.042009 0.18626 
-0.014792 0.039105 0.1874 
-0.014924 0.036216 0.18911 
-0.015077 0.033468 0.19187 
-0.015134 0.030555 0.19414 
-0.015393 0.027879 0.19782 
-0.015781 0.024746 0.20204 
-0.015965 0.021507 0.20433 
-0.01594 0.017838 0.20687 
-0.016243 0.014435 0.20906 
-0.016569 0.01108 0.21262 
-0.016823 0.0075949 0.21552 
-0.017087 0.0041453 0.21863 
-0.017285 0.00049688 0.22112 
-0.017592 -0.0030557 0.2234 
-0.018126 -0.0066172 0.22642 
-0.018193 -0.010347 0.22705 
-0.018397 -0.014338 0.22928 
-0.018526 -0.018533 0.23101 
-0.018588 -0.022562 0.23177 
-0.01911 -0.026768 0.23632 
-0.011876 0.039327 0.1882 
-0.011758 0.036491 0.18972 
-0.011877 0.033617 0.19207 
-0.011902 0.030856 0.1949 
-0.012043 0.028075 0.19794 
-0.012406 0.024946 0.20284 
-0.012524 0.021467 0.20581 
-0.01267 0.017977 0.20853 
-0.012775 0.014571 0.21064 
-0.013067 0.011228 0.21394 
-0.01341 0.0079 0.21684 
-0.013534 0.0044132 0.21873 
-0.013718 0.00054436 0.22136 
-0.014031 -0.0030494 0.22443 
-0.014219 -0.0067051 0.22666 
-0.014332 -0.010682 0.2307 
-0.014511 -0.014667 0.23125 
-0.014564 -0.01871 0.23257 
-0.014764 -0.022936 0.23426 
-0.015485 -0.027156 0.24051 
-0.009038 0.03643 0.19087 
-0.0086628 0.033876 0.1929 
-0.0087001 0.031165 0.19606 
-0.008776 0.02843 0.1992 
-0.0089692 0.025101 0.2031 
-0.0090383 0.021514 0.20628 
-0.0091568 0.018049 0.20899 
-0.0093077 0.014678 0.21187 
-0.0094468 0.01127 0.21412 
-0.0097429 0.008022 0.21727 
-0.0099007 0.0044758 0.21994 
-0.0099947 0.00056514 0.22182 
-0.010165 -0.0032319 0.22479 
-0.010269 -0.0069096 0.22754 
-0.010414 -0.010941 0.23078 
-0.010461 -0.014781 0.23249 
-0.010535 -0.018828 0.23462 
-0.010599 -0.022877 0.23615 
-0.0115 -0.026665 0.24219 
-0.0055376 0.034447 0.19648 
-0.0055928 0.031772 0.19889 
-0.0056516 0.028927 0.20174 
-0.0056166 0.025457 0.20464 
-0.0055331 0.021631 0.20665 
-0.0056181 0.018174 0.20936 
-0.0057388 0.014717 0.21226 
-0.0059595 0.011422 0.21475 
-0.0060548 0.0080661 0.21683 
-0.0061671 0.0044803 0.21995 
-0.0062429 0.00051531 0.22208 
-0.0063119 -0.0033818 0.22448 
-0.0064051 -0.0072273 0.22696 
-0.0064497 -0.011001 0.22926 
-0.0065042 -0.014924 0.23106 
-0.0065609 -0.018933 0.23434 
-0.0068907 -0.022965 0.23713 
-0.0022526 0.032115 0.19992 
-0.0022283 0.029129 0.20194 
-0.0021327 0.025911 0.20462 
-0.0019258 0.021763 0.2065 
-0.0020628 0.018224 0.20936 
-0.0021486 0.014863 0.21227 
-0.0023501 0.011434 0.21451 
-0.0024153 0.0080774 0.21687 
-0.0024528 0.0044201 0.21948 
-0.0024697 0.00030236 0.22278 
-0.0024932 -0.003651 0.22403 
-0.0026001 -0.007638 0.22583 
-0.0025847 -0.011257 0.22776 
-0.0029777 -0.01489 0.22962 
0.00064339 0.032084 0.20161 
0.0011818 0.02928 0.20198 
0.0013818 0.02641 0.20398 
0.0016456 0.021945 0.20579 
0.0015129 0.018367 0.2086 
0.0013023 0.014831 0.21083 
0.0012103 0.011507 0.21312 
0.0011699 0.0080448 0.21626 
0.001224 0.0042559 0.2183 
0.0012655 0.00025767 0.22131 
0.0010865 -0.0037145 0.2223 
0.0011435 -0.0077407 0.22504 
0.004605 0.029309 0.20173 
0.0048362 0.026258 0.20234 
0.0051314 0.02211 0.20456 
0.0049048 0.018616 0.20758 
0.00467 0.014975 0.20972 
0.0046264 0.01153 0.21176 
0.0042484 0.0079643 0.21587 
-0.056924 0.037552 0.19175 
-0.057639 0.035185 0.1935 
-0.058364 0.03227 0.1957 
-0.059208 0.02913 0.19805 
-0.059633 0.026255 0.20029 
-0.053256 0.041273 0.18963 
-0.053757 0.038769 0.19155 
-0.054316 0.036424 0.19332 
-0.054961 0.033629 0.19544 
-0.055727 0.030258 0.198 
-0.05644 0.026968 0.20051 
-0.056915 0.023992 0.20282 
-0.057639 0.020539 0.20545 
-0.049822 0.044283 0.18804 
-0.050317 0.041864 0.18989 
-0.050805 0.039396 0.19178 
-0.051312 0.036836 0.19374 
-0.051986 0.03367 0.19615 
-0.052613 0.030586 0.19851 
-0.053126 0.027476 0.20092 
-0.053807 0.024094 0.20351 
-0.054824 0.019891 0.20668 
-0.055521 0.015797 0.20985 
-0.056083 0.012436 0.21245 
-0.046302 0.047132 0.18659 
-0.046798 0.044842 0.18834 
-0.047338 0.042266 0.1903 
-0.047877 0.039511 0.19242 
-0.048381 0.036887 0.19443 
-0.049031 0.033629 0.19693 
-0.049546 0.030776 0.19912 
-0.049968 0.027868 0.20139 
-0.050811 0.024138 0.20422 
-0.051739 0.019381 0.20787 
-0.052622 0.014831 0.21136 
-0.053268 0.011468 0.21394 
-0.053944 0.0080147 0.21659 
-0.054388 0.0051392 0.21883 
-0.042856 0.049174 0.18579 
-0.043427 0.047144 0.1873 
-0.043903 0.044857 0.18905 
-0.044496 0.041998 0.19123 
-0.044989 0.039133 0.19345 
-0.045433 0.036656 0.19536 
-0.045985 0.033599 0.19771 
-0.046459 0.030947 0.19976 
-0.046989 0.027962 0.20206 
-0.047589 0.024435 0.20479 
-0.048476 0.019533 0.20856 
-0.049207 0.015461 0.2117 
-0.049916 0.011711 0.21458 
-0.050506 0.008399 0.21714 
-0.050961 0.0054953 0.21939 
-0.051347 0.0024209 0.22181 
-0.05182 -0.00085871 0.22436 
-0.051751 -0.0039395 0.22689 
-0.040104 0.049553 0.18617 
-0.040529 0.047099 0.18806 
-0.041036 0.044859 0.18976 
-0.04156 0.041917 0.19203 
-0.041999 0.038973 0.19432 
-0.042427 0.036588 0.19616 
-0.042906 0.033785 0.19833 
-0.043344 0.031202 0.20033 
-0.043821 0.028206 0.20265 
-0.044448 0.024349 0.20564 
-0.045087 0.020224 0.20885 
-0.04573 0.016294 0.21189 
-0.046393 0.012528 0.2148 
-0.047031 0.0089393 0.21757 
-0.047522 0.0056174 0.22015 
-0.047918 0.0022918 0.22277 
-0.048399 -0.00065579 0.22505 
-0.048788 -0.0038803 0.22759 
-0.049167 -0.007212 0.23021 
-0.049173 -0.010381 0.23279 
-0.037191 0.049626 0.18683 
-0.037593 0.047306 0.18863 
-0.038071 0.044993 0.19039 
-0.038584 0.042027 0.19269 
-0.038971 0.039258 0.19485 
-0.039258 0.036885 0.19671 
-0.039784 0.034016 0.19892 
-0.040248 0.03128 0.20104 
-0.040703 0.028134 0.20349 
-0.04125 0.024317 0.20647 
-0.041758 0.020472 0.20948 
-0.042329 0.016858 0.21228 
-0.042925 0.013217 0.2151 
-0.043542 0.0090853 0.21832 
-0.044055 0.0059166 0.22078 
-0.044493 0.0023391 0.22359 
-0.044861 -0.00085542 0.2261 
-0.045316 -0.0035573 0.22819 
-0.045836 -0.0065917 0.23054 
-0.046157 -0.0098459 0.23311 
-0.046651 -0.013369 0.23586 
-0.034251 0.049817 0.18741 
-0.034643 0.047376 0.18931 
-0.035143 0.044883 0.19122 
-0.035525 0.042387 0.19316 
-0.035903 0.039579 0.19535 
-0.036189 0.036865 0.1975 
-0.03671 0.033903 0.19978 
-0.037114 0.030912 0.20212 
-0.037576 0.02763 0.20468 
-0.03802 0.024077 0.20747 
-0.038491 0.02065 0.21015 
-0.039001 0.016987 0.21301 
-0.039539 0.013269 0.21591 
-0.040058 0.0095432 0.21882 
-0.040558 0.0059609 0.22161 
-0.040853 0.0024507 0.2244 
-0.041261 -0.0006861 0.22686 
-0.041766 -0.0032024 0.22879 
-0.042216 -0.0060817 0.23102 
-0.042689 -0.0097709 0.23392 
-0.043335 -0.013004 0.23639 
-0.031353 0.049895 0.18808 
-0.031677 0.04748 0.18996 
-0.032042 0.044718 0.19213 
-0.032487 0.042121 0.19413 
-0.032838 0.039361 0.1963 
-0.0332 0.036659 0.19841 
-0.033568 0.033696 0.20074 
-0.033944 0.030629 0.20314 
-0.034365 0.027526 0.20557 
-0.034749 0.024097 0.20827 
-0.035184 0.020476 0.21112 
-0.035632 0.016837 0.21397 
-0.036124 0.013262 0.21677 
-0.036571 0.0094757 0.21974 
-0.036906 0.0057815 0.22267 
-0.037416 0.0029267 0.22488 
-0.03772 -0.00038443 0.2275 
-0.038156 -0.0037147 0.23011 
-0.03854 -0.0067502 0.23249 
-0.039106 -0.0096449 0.23471 
-0.039618 -0.012841 0.23719 
-0.028421 0.050038 0.18869 
-0.028712 0.047633 0.19058 
-0.029055 0.044688 0.1929 
-0.029388 0.041908 0.19508 
-0.029732 0.039304 0.19712 
-0.030055 0.036721 0.19915 
-0.030394 0.033592 0.20161 
-0.030738 0.030358 0.20417 
-0.03111 0.027355 0.20652 
-0.031447 0.023827 0.20932 
-0.031834 0.020249 0.21214 
-0.032211 0.016445 0.21515 
-0.032648 0.012722 0.21808 
-0.033023 0.0091421 0.2209 
-0.0333 0.0057355 0.22361 
-0.033885 0.0031249 0.2256 
-0.034097 -0.00058074 0.22857 
-0.034544 -0.0041115 0.23134 
-0.035009 -0.0069604 0.23354 
-0.035504 -0.010191 0.23605 
-0.036178 -0.013688 0.23874 
-0.025468 0.050237 0.18927 
-0.025776 0.047846 0.19114 
-0.026041 0.045032 0.19337 
-0.026311 0.042222 0.19559 
-0.026547 0.039482 0.19777 
-0.026878 0.036804 0.19987 
-0.027203 0.033667 0.20235 
-0.027475 0.030273 0.20505 
-0.027805 0.027147 0.20752 
-0.02812 0.02392 0.21007 
-0.028484 0.020488 0.21278 
-0.028755 0.016522 0.21595 
-0.029044 0.01279 0.21892 
-0.02939 0.0090217 0.22191 
-0.029715 0.0056705 0.22456 
-0.03015 0.0028127 0.22679 
-0.030417 -0.00093716 0.22978 
-0.030899 -0.0039487 0.23211 
-0.031562 -0.0073414 0.23472 
-0.03203 -0.010896 0.2375 
-0.032634 -0.014292 0.24012 
-0.033119 -0.017671 0.24275 
-0.022498 0.050462 0.18983 
-0.022752 0.048031 0.19175 
-0.023023 0.045545 0.19371 
-0.02322 0.042626 0.19604 
-0.02339 0.039496 0.19855 
-0.023613 0.03668 0.20079 
-0.02383 0.033496 0.20333 
-0.024065 0.030084 0.20606 
-0.024343 0.026986 0.20852 
-0.024598 0.023515 0.21128 
-0.024978 0.020371 0.21375 
-0.025229 0.016624 0.21675 
-0.025522 0.012814 0.21978 
-0.025813 0.0089702 0.22285 
-0.026125 0.0056685 0.22546 
-0.026515 0.0027992 0.2277 
-0.026792 -0.001129 0.23084 
-0.027374 -0.0035186 0.23264 
-0.027872 -0.0068909 0.23527 
-0.028387 -0.011019 0.23851 
-0.028843 -0.014841 0.24151 
-0.029306 -0.017266 0.24338 
-0.019506 0.050166 0.19082 
-0.019664 0.047865 0.19265 
-0.019937 0.045646 0.1944 
-0.020113 0.042731 0.19673 
-0.02019 0.039757 0.19914 
-0.020401 0.036945 0.20138 
-0.020465 0.033308 0.20433 
-0.020706 0.030055 0.20692 
-0.020974 0.026916 0.20942 
-0.021186 0.023425 0.21221 
-0.021444 0.020047 0.2149 
-0.021687 0.016297 0.2179 
-0.021969 0.012788 0.22069 
-0.022202 0.0087389 0.22394 
-0.0225 0.0055978 0.22643 
-0.022811 0.0025654 0.22882 
-0.023272 -0.0011677 0.23175 
-0.023891 -0.0035185 0.23351 
-0.024258 -0.0067608 0.23607 
-0.024645 -0.010943 0.23938 
-0.025089 -0.013755 0.24157 
-0.025488 -0.017224 0.2443 
-0.016535 0.047866 0.19343 
-0.016762 0.045533 0.19528 
-0.016983 0.042934 0.19735 
-0.017056 0.039925 0.19978 
-0.017127 0.037056 0.20211 
-0.017158 0.033639 0.20489 
-0.017292 0.029678 0.20808 
-0.01752 0.02658 0.21055 
-0.017561 0.023129 0.21336 
-0.017938 0.019967 0.21584 
-0.018133 0.016184 0.21888 
-0.018371 0.012645 0.22171 
-0.018582 0.0090253 0.22461 
-0.018842 0.0055802 0.22735 
-0.019228 0.0022844 0.22995 
-0.019727 -0.0013922 0.23282 
-0.02014 -0.0039944 0.23484 
-0.020485 -0.0075255 0.23764 
-0.020855 -0.010935 0.24032 
-0.021279 -0.01378 0.24254 
-0.021622 -0.018572 0.24636 
-0.013809 0.045637 0.19593 
-0.013811 0.043189 0.19793 
-0.013924 0.040296 0.20026 
-0.013865 0.037262 0.20275 
-0.01389 0.034101 0.20533 
-0.0139 0.029821 0.20881 
-0.013996 0.026267 0.21169 
-0.014154 0.022818 0.21446 
-0.014351 0.019715 0.21695 
-0.014551 0.016068 0.21987 
-0.014853 0.012611 0.22262 
-0.015111 0.0095602 0.22504 
-0.015364 0.0059169 0.22795 
-0.015646 0.0022203 0.23089 
-0.015936 -0.0010999 0.23353 
-0.015931 -0.0054643 0.23709 
-0.016494 -0.0081992 0.23918 
-0.016831 -0.011311 0.24164 
-0.017278 -0.014734 0.24432 
-0.017567 -0.020362 0.24884 
-0.01103 0.04293 0.19884 
-0.010676 0.040447 0.20095 
-0.010575 0.037284 0.20356 
-0.010516 0.034109 0.20616 
-0.010531 0.030198 0.20935 
-0.010561 0.026482 0.21237 
-0.010693 0.023061 0.21513 
-0.010819 0.019608 0.21792 
-0.011029 0.016435 0.22045 
-0.011243 0.012916 0.22327 
-0.011427 0.0094578 0.22604 
-0.011708 0.006155 0.22867 
-0.01189 0.0023968 0.23169 
-0.012027 -0.0011752 0.23457 
-0.012173 -0.0052003 0.23782 
-0.012425 -0.0083735 0.24034 
-0.012665 -0.011878 0.24314 
-0.012984 -0.015097 0.24569 
-0.013425 -0.020382 0.24989 
-0.0070792 0.039478 0.20264 
-0.0070986 0.036685 0.20491 
-0.0070795 0.033587 0.20745 
-0.0070356 0.030087 0.21031 
-0.0071155 0.026795 0.21298 
-0.0072128 0.023377 0.21574 
-0.0073175 0.019869 0.21858 
-0.0075599 0.016645 0.22115 
-0.007747 0.013588 0.2236 
-0.0078272 0.0098976 0.22659 
-0.0080596 0.0064436 0.22935 
-0.0082386 0.0029052 0.23219 
-0.0084242 -0.0006389 0.23503 
-0.0085792 -0.0040521 0.23778 
-0.0088337 -0.0073224 0.24038 
-0.0088872 -0.011342 0.24365 
-0.0092781 -0.015175 0.24668 
-0.00369 0.036805 0.20567 
-0.0037266 0.034018 0.20793 
-0.0036261 0.030785 0.2106 
-0.0036448 0.027373 0.21338 
-0.0037809 0.02383 0.21623 
-0.0038388 0.020378 0.21903 
-0.0041138 0.01719 0.22157 
-0.0042313 0.014003 0.22414 
-0.0043217 0.010519 0.22696 
-0.0043461 0.0064252 0.23029 
-0.0046549 0.0034032 0.23268 
-0.0049681 8.93e-05 0.2353 
-0.0051015 -0.003044 0.23782 
-0.0056393 -0.006205 0.24027 
-0.00065763 0.03633 0.20682 
-0.00041573 0.034493 0.20837 
-0.00027231 0.031807 0.2106 
-0.00028395 0.028241 0.21351 
-0.00042718 0.024698 0.21636 
-0.00072457 0.021445 0.21894 
-0.00087421 0.018309 0.22146 
-0.00086875 0.014697 0.22441 
-0.0009678 0.011408 0.22707 
-0.00096434 0.0075341 0.23023 
-0.001463 0.0046047 0.23249 
-0.0014858 0.00083918 0.23556 
0.00285 0.035036 0.20875 
0.0028016 0.032897 0.21048 
0.0029175 0.029335 0.21342 
0.0027237 0.025733 0.21631 
0.0023775 0.022456 0.21889 
0.0022236 0.019371 0.22137 
0.0020329 0.015194 0.22473 
3 1 0 7
3 7 8 1
3 0 6 7
3 8 2 1
3 7 16 8
3 6 15 7
3 0 5 6
3 8 9 2
3 16 17 8
3 7 15 16
3 15 28 16
3 6 5 15
3 5 14 15
3 9 3 2
3 8 18 9
3 17 18 8
3 17 30 18
3 16 28 17
3 28 29 17
3 15 27 28
3 14 26 15
3 5 13 14
3 9 10 3
3 18 19 9
3 30 31 18
3 17 29 30
3 29 45 30
3 28 43 29
3 27 43 28
3 27 42 43
3 15 26 27
3 26 41 27
3 14 13 26
3 13 25 26
3 10 4 3
3 9 19 10
3 19 11 10
3 18 31 19
3 31 20 19
3 30 46 31
3 45 46 30
3 45 64 46
3 29 44 45
3 43 44 29
3 43 62 44
3 42 61 43
3 27 41 42
3 41 59 42
3 26 40 41
3 25 40 26
3 25 24 40
3 13 24 25
3 10 11 4
3 19 20 11
3 20 12 11
3 31 32 20
3 46 47 31
3 64 47 46
3 64 65 47
3 45 63 64
3 44 63 45
3 44 62 63
3 62 82 63
3 43 61 62
3 61 82 62
3 61 81 82
3 42 60 61
3 59 60 42
3 59 80 60
3 41 58 59
3 40 58 41
3 40 39 58
3 24 39 40
3 24 38 39
3 20 21 12
3 32 21 20
3 32 33 21
3 31 47 32
3 65 66 47
3 64 84 65
3 63 83 64
3 82 83 63
3 82 103 83
3 81 102 82
3 61 60 81
3 60 80 81
3 80 101 81
3 59 79 80
3 58 79 59
3 58 78 79
3 39 57 58
3 38 56 39
3 33 22 21
3 32 48 33
3 66 48 47
3 65 85 66
3 84 85 65
3 84 105 85
3 64 83 84
3 83 104 84
3 103 104 83
3 103 124 104
3 82 102 103
3 102 123 103
3 81 101 102
3 101 122 102
3 80 79 101
3 79 100 101
3 78 100 79
3 78 99 100
3 58 57 78
3 57 77 78
3 39 56 57
3 56 77 57
3 56 76 77
3 33 34 22
3 48 49 33
3 66 67 48
3 85 86 66
3 105 106 85
3 84 104 105
3 104 125 105
3 124 125 104
3 124 145 125
3 103 123 124
3 123 144 124
3 102 122 123
3 122 144 123
3 122 143 144
3 101 121 122
3 100 121 101
3 100 120 121
3 99 120 100
3 99 119 120
3 78 98 99
3 77 98 78
3 77 97 98
3 76 97 77
3 34 23 22
3 33 49 34
3 49 50 34
3 48 67 49
3 67 68 49
3 66 87 67
3 86 87 66
3 86 107 87
3 85 107 86
3 85 106 107
3 106 127 107
3 105 126 106
3 125 126 105
3 125 146 126
3 145 146 125
3 145 166 146
3 124 144 145
3 144 165 145
3 143 164 144
3 122 121 143
3 121 142 143
3 120 141 121
3 119 140 120
3 99 98 119
3 98 118 119
3 97 118 98
3 34 35 23
3 50 35 34
3 50 51 35
3 49 68 50
3 68 69 50
3 67 88 68
3 87 88 67
3 87 108 88
3 107 108 87
3 107 128 108
3 127 128 107
3 127 148 128
3 106 126 127
3 126 147 127
3 146 147 126
3 146 167 147
3 166 167 146
3 166 188 167
3 145 165 166
3 165 187 166
3 144 164 165
3 164 186 165
3 143 163 164
3 142 163 143
3 142 141 163
3 141 142 121
3 120 140 141
3 140 162 141
3 119 118 140
3 118 139 140
3 51 36 35
3 50 69 51
3 69 70 51
3 68 89 69
3 88 89 68
3 88 110 89
3 108 109 88
3 128 129 108
3 148 149 128
3 127 147 148
3 147 168 148
3 167 168 147
3 167 189 168
3 188 189 167
3 188 210 189
3 166 187 188
3 187 209 188
3 165 186 187
3 186 209 187
3 186 208 209
3 164 185 186
3 163 185 164
3 163 162 185
3 162 163 141
3 140 161 162
3 139 161 140
3 139 160 161
3 51 52 36
3 70 52 51
3 70 53 52
3 69 90 70
3 89 90 69
3 89 110 90
3 110 111 90
3 88 109 110
3 109 130 110
3 108 129 109
3 129 130 109
3 129 150 130
3 128 149 129
3 149 150 129
3 149 170 150
3 148 170 149
3 148 169 170
3 168 169 148
3 168 190 169
3 189 190 168
3 189 211 190
3 210 211 189
3 210 231 211
3 188 209 210
3 209 230 210
3 208 229 209
3 186 185 208
3 185 207 208
3 162 184 185
3 161 184 162
3 161 183 184
3 160 183 161
3 160 182 183
3 52 37 36
3 53 37 52
3 70 71 53
3 90 71 70
3 90 91 71
3 111 91 90
3 111 112 91
3 110 131 111
3 130 131 110
3 130 151 131
3 150 151 130
3 150 171 151
3 170 171 150
3 170 192 171
3 169 191 170
3 190 191 169
3 190 212 191
3 211 212 190
3 211 232 212
3 231 232 211
3 231 251 232
3 210 230 231
3 230 251 231
3 230 250 251
3 209 229 230
3 229 249 230
3 208 228 229
3 207 228 208
3 207 206 228
3 185 206 207
3 185 184 206
3 184 183 206
3 183 205 206
3 182 204 183
3 71 72 53
3 91 72 71
3 91 92 72
3 112 113 91
3 111 133 112
3 131 132 111
3 151 152 131
3 171 172 151
3 192 193 171
3 170 191 192
3 191 213 192
3 212 213 191
3 212 233 213
3 232 233 212
3 232 252 233
3 251 252 232
3 251 270 252
3 250 269 251
3 230 249 250
3 249 268 250
3 229 228 249
3 228 248 249
3 206 227 228
3 205 226 206
3 183 204 205
3 204 226 205
3 72 54 53
3 92 93 72
3 91 113 92
3 113 114 92
3 112 134 113
3 133 134 112
3 133 154 134
3 111 132 133
3 132 154 133
3 132 153 154
3 131 152 132
3 152 153 132
3 152 173 153
3 151 172 152
3 172 173 152
3 172 194 173
3 171 193 172
3 193 194 172
3 193 215 194
3 192 214 193
3 213 214 192
3 213 234 214
3 233 234 213
3 233 253 234
3 252 253 233
3 252 271 253
3 270 271 252
3 270 288 271
3 251 269 270
3 269 287 270
3 250 268 269
3 268 286 269
3 249 267 268
3 248 267 249
3 248 247 267
3 228 227 248
3 227 247 248
3 227 226 247
3 226 227 206
3 72 55 54
3 93 73 72
3 92 114 93
3 114 115 93
3 113 134 114
3 134 135 114
3 154 155 134
3 153 174 154
3 173 174 153
3 173 195 174
3 194 195 173
3 194 216 195
3 215 216 194
3 215 236 216
3 193 214 215
3 214 235 215
3 234 235 214
3 234 254 235
3 253 254 234
3 253 272 254
3 271 272 253
3 271 290 272
3 288 289 271
3 270 287 288
3 287 304 288
3 269 286 287
3 286 303 287
3 72 73 55
3 73 74 55
3 93 94 73
3 115 94 93
3 115 95 94
3 114 135 115
3 135 136 115
3 134 155 135
3 155 156 135
3 154 175 155
3 174 175 154
3 174 196 175
3 195 196 174
3 195 217 196
3 216 217 195
3 216 237 217
3 236 237 216
3 236 256 237
3 215 235 236
3 235 255 236
3 254 255 235
3 254 273 255
3 272 273 254
3 272 290 273
3 290 291 273
3 271 289 290
3 289 306 290
3 288 305 289
3 304 305 288
3 304 319 305
3 287 303 304
3 303 318 304
3 73 94 74
3 94 95 74
3 95 75 74
3 115 116 95
3 136 137 115
3 135 156 136
3 156 157 136
3 155 177 156
3 175 176 155
3 196 197 175
3 217 218 196
3 237 238 217
3 256 257 237
3 236 255 256
3 255 275 256
3 273 274 255
3 291 274 273
3 291 292 274
3 290 307 291
3 306 307 290
3 306 321 307
3 289 305 306
3 305 320 306
3 319 320 305
3 319 331 320
3 304 318 319
3 318 330 319
3 303 317 318
3 95 96 75
3 116 96 95
3 116 117 96
3 115 137 116
3 137 138 116
3 136 157 137
3 157 158 137
3 156 177 157
3 177 178 157
3 155 176 177
3 176 199 177
3 175 197 176
3 197 198 176
3 196 218 197
3 218 219 197
3 217 238 218
3 238 239 218
3 237 258 238
3 257 258 237
3 257 276 258
3 256 276 257
3 256 275 276
3 275 294 276
3 255 274 275
3 274 292 275
3 292 293 275
3 291 308 292
3 307 308 291
3 307 322 308
3 321 322 307
3 321 333 322
3 306 320 321
3 320 332 321
3 331 332 320
3 319 330 331
3 318 329 330
3 317 329 318
3 116 138 117
3 137 158 138
3 158 159 138
3 157 178 158
3 178 179 158
3 177 200 178
3 199 200 177
3 199 222 200
3 176 198 199
3 198 221 199
3 197 219 198
3 219 220 198
3 218 239 219
3 239 240 219
3 238 259 239
3 258 259 238
3 258 278 259
3 276 277 258
3 294 295 276
3 275 293 294
3 293 310 294
3 292 309 293
3 308 309 292
3 308 323 309
3 322 323 308
3 322 334 323
3 333 334 322
3 321 332 333
3 158 179 159
3 179 180 159
3 178 200 179
3 200 201 179
3 222 201 200
3 222 223 201
3 199 221 222
3 221 242 222
3 198 220 221
3 220 241 221
3 219 240 220
3 240 241 220
3 240 261 241
3 239 259 240
3 259 260 240
3 278 260 259
3 278 279 260
3 258 277 278
3 277 295 278
3 295 277 276
3 294 311 295
3 310 311 294
3 310 325 311
3 293 309 310
3 309 324 310
3 323 324 309
3 323 335 324
3 334 335 323
3 180 181 159
3 179 201 180
3 201 202 180
3 223 224 201
3 222 243 223
3 242 243 222
3 242 262 243
3 221 241 242
3 241 261 242
3 261 262 242
3 261 280 262
3 240 260 261
3 260 279 261
3 279 280 261
3 279 298 280
3 278 297 279
3 295 296 278
3 311 296 295
3 311 312 296
3 325 326 311
3 310 324 325
3 324 335 325
3 180 203 181
3 202 203 180
3 202 224 203
3 224 202 201
3 223 244 224
3 243 244 223
3 243 263 244
3 262 263 243
3 262 281 263
3 280 281 262
3 280 299 281
3 298 299 280
3 298 315 299
3 279 297 298
3 297 314 298
3 278 296 297
3 296 313 297
3 312 313 296
3 312 327 313
3 311 326 312
3 326 327 312
3 224 225 203
3 244 245 224
3 263 264 244
3 281 282 263
3 299 300 281
3 315 316 299
3 298 314 315
3 314 328 315
3 297 313 314
3 313 328 314
3 313 327 328
3 224 245 225
3 245 246 225
3 244 264 245
3 264 265 245
3 263 282 264
3 282 283 264
3 281 300 282
3 300 301 282
3 299 316 300
3 245 265 246
3 264 283 265
3 283 284 265
3 282 301 283
3 301 284 283
3 301 302 284
3 21 22 12
3 47 48 32
3 35 36 23
3 268 267 286
3 300 316 301
3 265 266 246
3 284 266 265
3 284 285 266
3 302 285 284
3 337 336 343
3 343 344 337
3 336 342 343
3 344 338 337
3 343 352 344
3 342 351 343
3 336 341 342
3 344 345 338
3 352 353 344
3 343 351 352
3 351 364 352
3 342 341 351
3 341 350 351
3 345 339 338
3 344 354 345
3 353 354 344
3 353 366 354
3 352 364 353
3 364 365 353
3 351 363 364
3 350 362 351
3 341 349 350
3 345 346 339
3 354 355 345
3 366 367 354
3 353 365 366
3 365 381 366
3 364 379 365
3 363 379 364
3 363 378 379
3 351 362 363
3 362 377 363
3 350 349 362
3 349 361 362
3 346 340 339
3 345 355 346
3 355 347 346
3 354 367 355
3 367 356 355
3 366 382 367
3 381 382 366
3 381 400 382
3 365 380 381
3 379 380 365
3 379 398 380
3 378 397 379
3 363 377 378
3 377 395 378
3 362 376 377
3 361 376 362
3 361 360 376
3 349 360 361
3 346 347 340
3 355 356 347
3 356 348 347
3 367 368 356
3 382 383 367
3 400 383 382
3 400 401 383
3 381 399 400
3 380 399 381
3 380 398 399
3 398 418 399
3 379 397 398
3 397 418 398
3 397 417 418
3 378 396 397
3 395 396 378
3 395 416 396
3 377 394 395
3 376 394 377
3 376 375 394
3 360 375 376
3 360 374 375
3 356 357 348
3 368 357 356
3 368 369 357
3 367 383 368
3 401 402 383
3 400 420 401
3 399 419 400
3 418 419 399
3 418 439 419
3 417 438 418
3 397 396 417
3 396 416 417
3 416 437 417
3 395 415 416
3 394 415 395
3 394 414 415
3 375 393 394
3 374 392 375
3 369 358 357
3 368 384 369
3 402 384 383
3 401 421 402
3 420 421 401
3 420 441 421
3 400 419 420
3 419 440 420
3 439 440 419
3 439 460 440
3 418 438 439
3 438 459 439
3 417 437 438
3 437 458 438
3 416 415 437
3 415 436 437
3 414 436 415
3 414 435 436
3 394 393 414
3 393 413 414
3 375 392 393
3 392 413 393
3 392 412 413
3 369 370 358
3 384 385 369
3 402 403 384
3 421 422 402
3 441 442 421
3 420 440 441
3 440 461 441
3 460 461 440
3 460 481 461
3 439 459 460
3 459 480 460
3 438 458 459
3 458 480 459
3 458 479 480
3 437 457 458
3 436 457 437
3 436 456 457
3 435 456 436
3 435 455 456
3 414 434 435
3 413 434 414
3 413 433 434
3 412 433 413
3 370 359 358
3 369 385 370
3 385 386 370
3 384 403 385
3 403 404 385
3 402 423 403
3 422 423 402
3 422 443 423
3 421 443 422
3 421 442 443
3 442 463 443
3 441 462 442
3 461 462 441
3 461 482 462
3 481 482 461
3 481 502 482
3 460 480 481
3 480 501 481
3 479 500 480
3 458 457 479
3 457 478 479
3 456 477 457
3 455 476 456
3 435 434 455
3 434 454 455
3 433 454 434
3 370 371 359
3 386 371 370
3 386 387 371
3 385 404 386
3 404 405 386
3 403 424 404
3 423 424 403
3 423 444 424
3 443 444 423
3 443 464 444
3 463 464 443
3 463 484 464
3 442 462 463
3 462 483 463
3 482 483 462
3 482 503 483
3 502 503 482
3 502 524 503
3 481 501 502
3 501 523 502
3 480 500 501
3 500 522 501
3 479 499 500
3 478 499 479
3 478 477 499
3 477 478 457
3 456 476 477
3 476 498 477
3 455 454 476
3 454 475 476
3 387 372 371
3 386 405 387
3 405 406 387
3 404 425 405
3 424 425 404
3 424 446 425
3 444 445 424
3 464 465 444
3 484 485 464
3 463 483 484
3 483 504 484
3 503 504 483
3 503 525 504
3 524 525 503
3 524 546 525
3 502 523 524
3 523 545 524
3 501 522 523
3 522 545 523
3 522 544 545
3 500 521 522
3 499 521 500
3 499 498 521
3 498 499 477
3 476 497 498
3 475 497 476
3 475 496 497
3 387 388 372
3 406 388 387
3 406 389 388
3 405 426 406
3 425 426 405
3 425 446 426
3 446 447 426
3 424 445 446
3 445 466 446
3 444 465 445
3 465 466 445
3 465 486 466
3 464 485 465
3 485 486 465
3 485 506 486
3 484 506 485
3 484 505 506
3 504 505 484
3 504 526 505
3 525 526 504
3 525 547 526
3 546 547 525
3 546 567 547
3 524 545 546
3 545 566 546
3 544 565 545
3 522 521 544
3 521 543 544
3 498 520 521
3 497 520 498
3 497 519 520
3 496 519 497
3 496 518 519
3 388 373 372
3 389 373 388
3 406 407 389
3 426 407 406
3 426 427 407
3 447 427 426
3 447 448 427
3 446 467 447
3 466 467 446
3 466 487 467
3 486 487 466
3 486 507 487
3 506 507 486
3 506 528 507
3 505 527 506
3 526 527 505
3 526 548 527
3 547 548 526
3 547 568 548
3 567 568 547
3 567 587 568
3 546 566 567
3 566 587 567
3 566 586 587
3 545 565 566
3 565 585 566
3 544 564 565
3 543 564 544
3 543 542 564
3 521 542 543
3 521 520 542
3 520 519 542
3 519 541 542
3 518 540 519
3 407 408 389
3 427 408 407
3 427 428 408
3 448 449 427
3 447 469 448
3 467 468 447
3 487 488 467
3 507 508 487
3 528 529 507
3 506 527 528
3 527 549 528
3 548 549 527
3 548 569 549
3 568 569 548
3 568 588 569
3 587 588 568
3 587 606 588
3 586 605 587
3 566 585 586
3 585 604 586
3 565 564 585
3 564 584 585
3 542 563 564
3 541 562 542
3 519 540 541
3 540 562 541
3 408 390 389
3 428 429 408
3 427 449 428
3 449 450 428
3 448 470 449
3 469 470 448
3 469 490 470
3 447 468 469
3 468 490 469
3 468 489 490
3 467 488 468
3 488 489 468
3 488 509 489
3 487 508 488
3 508 509 488
3 508 530 509
3 507 529 508
3 529 530 508
3 529 551 530
3 528 550 529
3 549 550 528
3 549 570 550
3 569 570 549
3 569 589 570
3 588 589 569
3 588 607 589
3 606 607 588
3 606 624 607
3 587 605 606
3 605 623 606
3 586 604 605
3 604 622 605
3 585 603 604
3 584 603 585
3 584 583 603
3 564 563 584
3 563 583 584
3 563 562 583
3 562 563 542
3 408 391 390
3 429 409 408
3 428 450 429
3 450 451 429
3 449 470 450
3 470 471 450
3 490 491 470
3 489 510 490
3 509 510 489
3 509 531 510
3 530 531 509
3 530 552 531
3 551 552 530
3 551 572 552
3 529 550 551
3 550 571 551
3 570 571 550
3 570 590 571
3 589 590 570
3 589 608 590
3 607 608 589
3 607 626 608
3 624 625 607
3 606 623 624
3 623 640 624
3 605 622 623
3 622 639 623
3 408 409 391
3 409 410 391
3 429 430 409
3 451 430 429
3 451 431 430
3 450 471 451
3 471 472 451
3 470 491 471
3 491 492 471
3 490 511 491
3 510 511 490
3 510 532 511
3 531 532 510
3 531 553 532
3 552 553 531
3 552 573 553
3 572 573 552
3 572 592 573
3 551 571 572
3 571 591 572
3 590 591 571
3 590 609 591
3 608 609 590
3 608 626 609
3 626 627 609
3 607 625 626
3 625 642 626
3 624 641 625
3 640 641 624
3 640 655 641
3 623 639 640
3 639 654 640
3 409 430 410
3 430 431 410
3 431 411 410
3 451 452 431
3 472 473 451
3 471 492 472
3 492 493 472
3 491 513 492
3 511 512 491
3 532 533 511
3 553 554 532
3 573 574 553
3 592 593 573
3 572 591 592
3 591 611 592
3 609 610 591
3 627 610 609
3 627 628 610
3 626 643 627
3 642 643 626
3 642 657 643
3 625 641 642
3 641 656 642
3 655 656 641
3 655 667 656
3 640 654 655
3 654 666 655
3 639 653 654
3 431 432 411
3 452 432 431
3 452 453 432
3 451 473 452
3 473 474 452
3 472 493 473
3 493 494 473
3 492 513 493
3 513 514 493
3 491 512 513
3 512 535 513
3 511 533 512
3 533 534 512
3 532 554 533
3 554 555 533
3 553 574 554
3 574 575 554
3 573 594 574
3 593 594 573
3 593 612 594
3 592 612 593
3 592 611 612
3 611 630 612
3 591 610 611
3 610 628 611
3 628 629 611
3 627 644 628
3 643 644 627
3 643 658 644
3 657 658 643
3 657 669 658
3 642 656 657
3 656 668 657
3 667 668 656
3 655 666 667
3 654 665 666
3 653 665 654
3 452 474 453
3 473 494 474
3 494 495 474
3 493 514 494
3 514 515 494
3 513 536 514
3 535 536 513
3 535 558 536
3 512 534 535
3 534 557 535
3 533 555 534
3 555 556 534
3 554 575 555
3 575 576 555
3 574 595 575
3 594 595 574
3 594 614 595
3 612 613 594
3 630 631 612
3 611 629 630
3 629 646 630
3 628 645 629
3 644 645 628
3 644 659 645
3 658 659 644
3 658 670 659
3 669 670 658
3 657 668 669
3 494 515 495
3 515 516 495
3 514 536 515
3 536 537 515
3 558 537 536
3 558 559 537
3 535 557 558
3 557 578 558
3 534 556 557
3 556 577 557
3 555 576 556
3 576 577 556
3 576 597 577
3 575 595 576
3 595 596 576
3 614 596 595
3 614 615 596
3 594 613 614
3 613 631 614
3 631 613 612
3 630 647 631
3 646 647 630
3 646 661 647
3 629 645 646
3 645 660 646
3 659 660 645
3 659 671 660
3 670 671 659
3 516 517 495
3 515 537 516
3 537 538 516
3 559 560 537
3 558 579 559
3 578 579 558
3 578 598 579
3 557 577 578
3 577 597 578
3 597 598 578
3 597 616 598
3 576 596 597
3 596 615 597
3 615 616 597
3 615 634 616
3 614 633 615
3 631 632 614
3 647 632 631
3 647 648 632
3 661 662 647
3 646 660 661
3 660 671 661
3 516 539 517
3 538 539 516
3 538 560 539
3 560 538 537
3 559 580 560
3 579 580 559
3 579 599 580
3 598 599 579
3 598 617 599
3 616 617 598
3 616 635 617
3 634 635 616
3 634 651 635
3 615 633 634
3 633 650 634
3 614 632 633
3 632 649 633
3 648 649 632
3 648 663 649
3 647 662 648
3 662 663 648
3 560 561 539
3 580 581 560
3 599 600 580
3 617 618 599
3 635 636 617
3 651 652 635
3 634 650 651
3 650 664 651
3 633 649 650
3 649 664 650
3 649 663 664
3 560 581 561
3 581 582 561
3 580 600 581
3 600 601 581
3 599 618 600
3 618 619 600
3 617 636 618
3 636 637 618
3 635 652 636
3 581 601 582
3 600 619 601
3 619 620 601
3 618 637 619
3 637 620 619
3 637 638 620
3 357 358 348
3 383 384 368
3 371 372 359
3 604 603 622
3 636 652 637
3 601 602 582
3 620 602 601
3 620 621 602
3 638 621 620
3 97 433 454
3 97 118 454
3 118 454 475
3 118 139 475
3 139 475 496
3 139 160 496
3 160 496 518
3 160 182 518
3 182 518 540
3 182 204 540
3 204 540 562
3 204 226 562
3 226 562 583
3 226 247 583
3 247 583 603
3 247 267 603
3 267 603 622
3 267 286 622
3 286 622 639
3 286 303 639
3 303 639 653
3 303 317 653
3 317 653 665
3 317 329 665
3 329 665 666
3 329 330 666
3 330 666 667
3 330 331 667
3 331 667 668
3 331 332 668
3 332 668 669
3 332 333 669
3 333 669 670
3 333 334 670
3 334 670 671
3 334 335 671
3 335 671 661
3 335 325 661
3 325 661 662
3 325 326 662
3 326 662 663
3 326 327 663
3 327 663 664
3 327 328 664
3 328 664 651
3 328 315 651
3 315 651 652
3 315 316 652
3 316 652 637
3 316 301 637
3 301 637 638
3 301 302 638
3 302 638 621
3 302 285 621
3 285 621 602
3 285 266 602
3 266 602 582
3 266 246 582
3 246 582 561
3 246 225 561
3 225 561 539
3 225 203 539
3 203 539 517
3 203 181 517
3 181 517 495
3 181 159 495
3 159 495 474
3 159 138 474
3 138 474 453
3 138 117 453
3 117 453 432
3 117 96 432
3 96 432 411
3 96 75 411
3 75 411 410
3 75 74 410
3 74 410 391
3 74 55 391
3 55 391 390
3 55 54 390
3 54 390 389
3 54 53 389
3 53 389 373
3 53 37 373
3 37 373 372
3 37 36 372
3 36 372 359
3 36 23 359
3 23 359 358
3 23 22 358
3 22 358 348
3 22 12 348
3 12 348 347
3 12 11 347
3 11 347 340
3 11 4 340
3 4 340 339
3 4 3 339
3 3 339 338
3 3 2 338
3 2 338 337
3 2 1 337
3 1 337 336
3 1 0 336
3 0 336 341
3 0 5 341
3 5 341 349
3 5 13 349
3 13 349 360
3 13 24 360
3 24 360 374
3 24 38 374
3 38 374 392
3 38 56 392
3 56 392 412
3 56 76 412
3 76 412 433
3 76 97 433
