ply
format ascii 1.0
comment created by PLYWriter
element vertex 760
property float x
property float y
property float z
element face 1516
property list uchar int vertex_indices
end_header
-0.057126667 0.031173123 0.18755704 
-0.057784934 0.028319063 0.18829532 
-0.05806484 0.025553811 0.18972722 
-0.058328032 0.022691496 0.19133754 
-0.05832647 0.019926919 0.19282326 
-0.05791577 0.016893616 0.19402874 
-0.053069815 0.033363905 0.18379691 
-0.05410941 0.030962743 0.18540336 
-0.053939935 0.028076343 0.18584305 
-0.054232534 0.025361253 0.1875067 
-0.05467952 0.022627842 0.1893721 
-0.05508115 0.019957986 0.19144163 
-0.055343386 0.016878204 0.19276619 
-0.0556466 0.013501263 0.19416545 
-0.05529918 0.010063681 0.195533 
-0.048162695 0.03589384 0.17983893 
-0.049186084 0.033486973 0.18112555 
-0.049866654 0.030606939 0.18249108 
-0.050228234 0.027767394 0.18409461 
-0.05061378 0.025310824 0.18654223 
-0.051110074 0.02254297 0.18836331 
-0.051539537 0.020044321 0.19056591 
-0.052064866 0.01725866 0.19226123 
-0.052542813 0.013493417 0.19339007 
-0.053202752 0.009163073 0.19524814 
-0.05360691 0.0054033822 0.19939849 
-0.05332871 0.001999037 0.20238921 
-0.04461493 0.038351573 0.1777337 
-0.045300785 0.036012 0.178627 
-0.045787208 0.0334449 0.1800804 
-0.046321083 0.030776426 0.18184128 
-0.046961624 0.027993754 0.184215 
-0.047239993 0.02537447 0.18688992 
-0.04769284 0.0227181 0.18895148 
-0.04835223 0.020159341 0.19095631 
-0.04897707 0.01731497 0.19298197 
-0.049525715 0.013360666 0.19364752 
-0.050156236 0.008804887 0.19440433 
-0.050695624 0.004309545 0.19815002 
-0.05055618 0.0011495799 0.2037824 
-0.051616218 -0.0019786176 0.20790425 
-0.05205502 -0.0039930027 0.21180463 
-0.041210078 0.04080332 0.17701098 
-0.042042635 0.038831275 0.17776045 
-0.042302053 0.036207806 0.17899404 
-0.04271004 0.033714462 0.18059255 
-0.043372057 0.031136254 0.18271811 
-0.04357771 0.028015032 0.1850937 
-0.043822195 0.025264526 0.18759722 
-0.04428649 0.02255957 0.18950623 
-0.04503101 0.01990022 0.19123167 
-0.045910075 0.01728751 0.19333345 
-0.04636703 0.01330434 0.19435827 
-0.046851274 0.008693158 0.1941018 
-0.04659745 0.003971042 0.19733298 
-0.04731884 0.0011558936 0.203825 
-0.048389956 -0.0017061228 0.20858811 
-0.049478002 -0.004176132 0.21256894 
-0.05022888 -0.006441755 0.21565507 
-0.05086267 -0.008781551 0.21888301 
-0.038784154 0.041528326 0.17676452 
-0.039143763 0.039089 0.17849122 
-0.039455086 0.036423232 0.17979838 
-0.03991446 0.033826057 0.18149446 
-0.040144138 0.03094694 0.18358164 
-0.040362693 0.02756989 0.18595387 
-0.040823106 0.025078695 0.18829115 
-0.041294463 0.022553783 0.18999864 
-0.04166838 0.0198571 0.19154356 
-0.042617943 0.017150734 0.193948 
-0.042991694 0.012979932 0.19486785 
-0.042751104 0.00818854 0.19298665 
-0.042334795 0.003352214 0.19608635 
-0.044144444 0.0013364897 0.20436902 
-0.045213826 -0.0015298525 0.20928788 
-0.04595517 -0.0035647564 0.21341935 
-0.046965014 -0.006178106 0.2167525 
-0.048278023 -0.009323383 0.21992262 
-0.048723698 -0.012674839 0.22311535 
-0.048061617 -0.016288508 0.22432436 
-0.035624973 0.043427013 0.1756271 
-0.03604328 0.042042922 0.17717735 
-0.036252625 0.03948037 0.17890266 
-0.036645424 0.036624245 0.18030265 
-0.0369833 0.034081418 0.1823722 
-0.037121646 0.030703988 0.18476386 
-0.0372916 0.02758131 0.18690379 
-0.03791567 0.025274476 0.18912613 
-0.038516924 0.022743154 0.19132118 
-0.03894563 0.020096855 0.19293195 
-0.03985371 0.017173465 0.19559717 
-0.04002754 0.013441694 0.19677573 
-0.040096 0.008594958 0.19620617 
-0.040077735 0.0038011686 0.1987755 
-0.04109883 0.0010193798 0.2060096 
-0.042074535 -0.001132769 0.21094958 
-0.042765368 -0.003569466 0.21451218 
-0.04293466 -0.0068480144 0.2163974 
-0.043592706 -0.010120342 0.21884564 
-0.04422801 -0.014281763 0.22118466 
-0.04467258 -0.018437989 0.22425398 
-0.043521985 -0.021090208 0.22633663 
-0.032922667 0.043856103 0.17609157 
-0.03305284 0.042449683 0.17749736 
-0.032955334 0.03986524 0.17947924 
-0.033059523 0.037090674 0.180838 
-0.033484392 0.034373842 0.18309699 
-0.033932257 0.03105691 0.18645072 
-0.03428194 0.027982322 0.18796527 
-0.034908663 0.025316013 0.19021611 
-0.035483148 0.022736052 0.19269748 
-0.036131583 0.020118263 0.19530517 
-0.03700527 0.017076744 0.1979216 
-0.037149254 0.014094649 0.19910294 
-0.03756785 0.009436745 0.20018844 
-0.037611566 0.0051911604 0.20347288 
-0.038444743 0.0021409087 0.20777978 
-0.038967524 -0.0006657859 0.21204968 
-0.039320305 -0.0034356266 0.21518685 
-0.039319422 -0.00691129 0.21669905 
-0.039538752 -0.010951553 0.21857287 
-0.0399733 -0.015086153 0.22039586 
-0.040267497 -0.018975487 0.22322534 
-0.040175345 -0.021551244 0.22607294 
-0.029918227 0.04395038 0.17673175 
-0.029852979 0.04246949 0.17793873 
-0.029975895 0.04001147 0.1798503 
-0.030194586 0.03740304 0.18189164 
-0.030421278 0.03459695 0.1843014 
-0.030895807 0.03144363 0.1874605 
-0.03128017 0.028479042 0.18912916 
-0.031842697 0.02548125 0.19134547 
-0.03231208 0.022504961 0.1943383 
-0.033192907 0.01997942 0.19702017 
-0.034128297 0.017045507 0.19972107 
-0.03426317 0.014360176 0.20106728 
-0.03414919 0.01002011 0.20295078 
-0.03438175 0.0061540883 0.20598176 
-0.035206247 0.003059216 0.2096049 
-0.035713706 -0.00015332972 0.21302707 
-0.03582489 -0.0033884624 0.21565482 
-0.035891656 -0.007045337 0.21726815 
-0.036268197 -0.011131583 0.21930681 
-0.036494374 -0.015074645 0.22117898 
-0.036529273 -0.018785313 0.22287895 
-0.036239073 -0.021592261 0.22555114 
-0.026858365 0.044218283 0.1771068 
-0.026867282 0.042677484 0.17834933 
-0.02711669 0.04004055 0.18004115 
-0.027160352 0.037568685 0.18248145 
-0.027373455 0.034700427 0.18510605 
-0.027775554 0.031804677 0.18791777 
-0.02819854 0.028774656 0.19011629 
-0.028693877 0.025789548 0.19246891 
-0.02928297 0.022530233 0.19597015 
-0.030292401 0.019822527 0.19952114 
-0.031003322 0.017147636 0.20146915 
-0.030740157 0.014709947 0.20305754 
-0.03098168 0.010809159 0.20569031 
-0.031063346 0.0071498714 0.20792611 
-0.031670965 0.0032755008 0.21104121 
-0.03219488 8.47417e-06 0.21378769 
-0.032319117 -0.0038843341 0.21673115 
-0.032628268 -0.0074299616 0.21792151 
-0.0329712 -0.011256816 0.2201527 
-0.033209223 -0.015015372 0.22286727 
-0.03297595 -0.018595213 0.22467446 
-0.03303079 -0.021776116 0.22701661 
-0.023991825 0.044454407 0.17797142 
-0.023906093 0.04301081 0.17922935 
-0.023946831 0.040209614 0.1805146 
-0.024121836 0.037513867 0.18272772 
-0.024376784 0.034940735 0.1855413 
-0.024668934 0.032146737 0.18814595 
-0.025136868 0.029098108 0.1911392 
-0.025610035 0.025797484 0.1940688 
-0.026143804 0.022349767 0.19801746 
-0.027012508 0.019434078 0.20137776 
-0.026798913 0.017252263 0.20360881 
-0.027116088 0.014930949 0.20533268 
-0.027774008 0.011110709 0.20876808 
-0.028009184 0.0075072674 0.21078104 
-0.028305916 0.0035017598 0.21354578 
-0.028534258 -0.0003184544 0.21550733 
-0.029021177 -0.0045010704 0.21798238 
-0.029102257 -0.007890738 0.21934848 
-0.029535793 -0.011384262 0.22128457 
-0.02970224 -0.014841726 0.22409908 
-0.029401954 -0.018357662 0.22594449 
-0.029876128 -0.02188846 0.22790667 
-0.03039879 -0.024896363 0.2317035 
-0.020980312 0.04482001 0.17900927 
-0.02079453 0.043325312 0.18032125 
-0.020960297 0.040399995 0.18189292 
-0.021024646 0.037547745 0.18330893 
-0.021296136 0.03491108 0.18635023 
-0.021678837 0.0322279 0.1887102 
-0.022049349 0.029463144 0.19168481 
-0.022503039 0.026158568 0.19487648 
-0.022883942 0.022184115 0.19946161 
-0.023338286 0.01921137 0.20283113 
-0.022907773 0.016600827 0.20552447 
-0.023348602 0.0140967565 0.2072614 
-0.02411391 0.010854752 0.21015194 
-0.024889227 0.0075431853 0.2130405 
-0.024808574 0.0035063056 0.21460813 
-0.024806874 -0.0008575745 0.21586572 
-0.02540084 -0.004479341 0.21910334 
-0.025605017 -0.008067755 0.22097138 
-0.025644407 -0.0113775395 0.22254325 
-0.025950823 -0.0147043485 0.22550571 
-0.025946246 -0.018322553 0.22690192 
-0.026511807 -0.022324445 0.22816133 
-0.0265606 -0.025987243 0.23209214 
-0.01811191 0.043244686 0.18177432 
-0.01808309 0.04101456 0.18369024 
-0.018107932 0.037981823 0.18489565 
-0.018340064 0.03508165 0.18675849 
-0.018514363 0.032239437 0.18917952 
-0.018768795 0.029545585 0.19178782 
-0.019079518 0.026231488 0.1961696 
-0.01943624 0.022720205 0.19946308 
-0.019705955 0.0191388 0.20278926 
-0.019773712 0.015873635 0.20536546 
-0.019849965 0.0129255215 0.20751205 
-0.02061771 0.009914865 0.21006471 
-0.021373253 0.006477132 0.21286409 
-0.021214822 0.0030944515 0.214808 
-0.021253943 -0.0005393134 0.21720606 
-0.021783989 -0.004224545 0.22077145 
-0.022154737 -0.007937223 0.22285846 
-0.02193444 -0.011486607 0.22382718 
-0.021752438 -0.014970484 0.22642635 
-0.021848872 -0.018416714 0.22710256 
-0.022244481 -0.02237788 0.22763267 
-0.022739822 -0.026451657 0.23268732 
-0.015211363 0.041083153 0.18494293 
-0.015255867 0.03838963 0.18645415 
-0.015321269 0.03535453 0.18785615 
-0.015514316 0.032347865 0.19015124 
-0.015818994 0.029600615 0.19239077 
-0.015777329 0.026472816 0.19669342 
-0.016214045 0.02287947 0.20030935 
-0.016347967 0.01959249 0.20276134 
-0.016588187 0.016148373 0.20488963 
-0.016380442 0.01291204 0.20814157 
-0.016952949 0.010010004 0.21076985 
-0.017450633 0.0067886524 0.21326956 
-0.017586572 0.0035510568 0.21603312 
-0.017757991 -0.00016676071 0.21935837 
-0.018139886 -0.003771753 0.22249444 
-0.018341783 -0.00754072 0.22451371 
-0.017872605 -0.011326312 0.22546944 
-0.017846521 -0.015089885 0.22656749 
-0.01843517 -0.018848509 0.2278423 
-0.018626155 -0.022802593 0.22964348 
-0.019133996 -0.026672265 0.23450069 
-0.012600238 0.038133916 0.18785706 
-0.012359194 0.035311937 0.18906097 
-0.012530347 0.03234227 0.19109808 
-0.012707803 0.029466653 0.19287115 
-0.012539933 0.02666038 0.19616379 
-0.012922019 0.023227267 0.20039716 
-0.013238278 0.019940626 0.20372367 
-0.013305332 0.016600283 0.20663467 
-0.013270309 0.013478701 0.20938832 
-0.013378893 0.010512383 0.21166657 
-0.01345251 0.00744182 0.21422027 
-0.013821433 0.003913032 0.2174832 
-0.014211439 0.00012189615 0.22099018 
-0.014360991 -0.003505118 0.22340734 
-0.01435753 -0.007263276 0.22488675 
-0.014167488 -0.011729611 0.2264166 
-0.014301538 -0.015682207 0.22779913 
-0.014768426 -0.019397346 0.2295725 
-0.015159141 -0.023447972 0.23260413 
-0.015324681 -0.026633179 0.23651963 
-0.009674744 0.035113737 0.18990979 
-0.009181235 0.03256803 0.19167839 
-0.009378991 0.029702183 0.19363286 
-0.009295971 0.026964642 0.19678916 
-0.009775265 0.023812467 0.20083818 
-0.010056508 0.020555355 0.20477678 
-0.009938583 0.017372126 0.20776825 
-0.009977754 0.014091173 0.21037449 
-0.00985474 0.010845985 0.2122774 
-0.009796324 0.0076285223 0.21548603 
-0.010218198 0.0040841796 0.2185544 
-0.01034594 0.00024396704 0.22157066 
-0.010559782 -0.0033757095 0.22370952 
-0.010881412 -0.0073829186 0.22541785 
-0.010558969 -0.011629886 0.22595087 
-0.010761033 -0.015765678 0.22911927 
-0.011009619 -0.019518275 0.23092929 
-0.011500598 -0.023786617 0.23477048 
-0.012258647 -0.02628922 0.23718044 
-0.0061081145 0.032306366 0.19252178 
-0.0060109673 0.029823422 0.19494608 
-0.0062360647 0.027017735 0.19837964 
-0.0065100044 0.024111673 0.20119195 
-0.006795725 0.021159908 0.20513698 
-0.006537498 0.017944442 0.20833172 
-0.0063496074 0.014534332 0.21071005 
-0.0063381153 0.011145698 0.21255386 
-0.0062394077 0.0075910646 0.21582077 
-0.006470727 0.0038413082 0.21896459 
-0.0066030696 -2.2751292e-05 0.22204547 
-0.0067299386 -0.003587486 0.22340475 
-0.0071152877 -0.007423379 0.22589482 
-0.007030526 -0.011895099 0.22645034 
-0.0072003948 -0.016006133 0.22981216 
-0.007851264 -0.019807464 0.23200636 
-0.008563477 -0.022830026 0.23382862 
-0.0034667598 0.031775475 0.19411439 
-0.0025771116 0.02989039 0.19670446 
-0.0027781385 0.027070057 0.1990054 
-0.0029487933 0.024165947 0.20148988 
-0.0029761805 0.02124605 0.2045582 
-0.00307024 0.018022398 0.20769972 
-0.0027204056 0.014508439 0.21050222 
-0.0028052016 0.011129112 0.2128257 
-0.002647548 0.0076641403 0.21572281 
-0.0027880846 0.0036931685 0.21824582 
-0.0027879046 -1.9903584e-07 0.22138159 
-0.0029956545 -0.0038682283 0.22294725 
-0.003299474 -0.007915085 0.22577925 
-0.0037871404 -0.012123355 0.2269335 
-0.0046380977 -0.015540433 0.22935441 
0.00038343653 0.02946355 0.19821157 
0.00059342885 0.02738926 0.19970469 
0.0005048241 0.02452722 0.20169781 
0.000534694 0.021411356 0.20400205 
0.0006310076 0.018171046 0.20667496 
0.00086230045 0.014623763 0.20954627 
0.00093522365 0.011161091 0.21220621 
0.0010499154 0.0076555773 0.21448666 
0.00067099807 0.0038104681 0.2168652 
0.0008695362 -6.750021e-05 0.21962348 
0.00029068047 -0.0037709454 0.22248034 
-0.0009557989 -0.0073114885 0.22613046 
0.0038209127 0.027579142 0.20030294 
0.0041890494 0.024749778 0.20195988 
0.004202968 0.02149385 0.20358115 
0.0040304447 0.018219326 0.20634924 
0.00428252 0.014771087 0.20843425 
0.0038392446 0.011593391 0.21085879 
-0.057898 0.035575 0.19312 
-0.058681 0.033478 0.19464 
-0.059087 0.031093 0.19648 
-0.059437 0.028587 0.19844 
-0.059657 0.026104 0.20041 
-0.059821 0.023744 0.20229 
-0.054525 0.039179 0.19102 
-0.05545567 0.036915142 0.19264276 
-0.05554235 0.035001714 0.19416888 
-0.05585707 0.032490548 0.19613406 
-0.05631807 0.029834962 0.1981635 
-0.056750495 0.027154306 0.20024727 
-0.057351604 0.024573691 0.20215651 
-0.058153 0.021717 0.20436 
-0.058083 0.018744 0.20681 
-0.050046 0.042977 0.18904 
-0.051218 0.040869 0.19047 
-0.052073102 0.038617622 0.19208959 
-0.052494247 0.036095873 0.19401921 
-0.05265739 0.033400908 0.19616812 
-0.053077027 0.030704234 0.1982486 
-0.05350184 0.027925178 0.2003435 
-0.05409133 0.025264991 0.20230545 
-0.05492811 0.02214854 0.20454378 
-0.055672042 0.018450286 0.20739272 
-0.056375 0.014174 0.21096 
-0.056079 0.010721 0.21385 
-0.04665 0.045804 0.18759 
-0.04741087 0.04385986 0.18898246 
-0.04800889 0.04158002 0.19069126 
-0.0486687 0.039226174 0.19243859 
-0.04940528 0.036606982 0.19436905 
-0.049463674 0.033723485 0.19668569 
-0.04986049 0.030945353 0.19880164 
-0.050403584 0.028192379 0.2008322 
-0.05093614 0.025233384 0.20300427 
-0.051797718 0.022031374 0.20525813 
-0.05240901 0.018506618 0.20788012 
-0.053054024 0.014077886 0.21112303 
-0.05344788 0.009679246 0.21504214 
-0.054293 0.00592 0.21821 
-0.054385 0.0027001 0.22082 
-0.043317 0.048081 0.18656 
-0.044100307 0.046399593 0.18774027 
-0.044522155 0.044162266 0.18946166 
-0.0449037 0.041782755 0.19130543 
-0.045527387 0.03920678 0.19323818 
-0.045922413 0.03656551 0.19526982 
-0.046131838 0.03365001 0.19753101 
-0.046594616 0.03100069 0.19950317 
-0.04719858 0.028154228 0.20152391 
-0.047817923 0.0251916 0.20361786 
-0.04855468 0.02172721 0.20610417 
-0.04899577 0.018045751 0.20849626 
-0.049378324 0.013915777 0.21183658 
-0.050207596 0.009436479 0.215599 
-0.050925415 0.005767857 0.2187055 
-0.051780663 0.0024612455 0.22150189 
-0.052313 -0.00041281 0.22388 
-0.052534 -0.0033181 0.22619 
-0.040856 0.048977 0.18645 
-0.04121212 0.046612833 0.18829273 
-0.041588057 0.044267405 0.19010127 
-0.041984815 0.04181407 0.19200717 
-0.04236799 0.03915124 0.19405748 
-0.042743992 0.036263715 0.19628282 
-0.043200377 0.033490214 0.19836521 
-0.043673515 0.030985765 0.20019668 
-0.044003066 0.028382348 0.20210235 
-0.04467211 0.025150027 0.20435049 
-0.04518735 0.021313328 0.20687011 
-0.045414656 0.017623598 0.20938446 
-0.04567713 0.013519352 0.21283141 
-0.04684958 0.009022858 0.21638942 
-0.047637746 0.0054787095 0.21938644 
-0.048118185 0.00258244 0.22209707 
-0.04889855 -0.00041071075 0.22450544 
-0.049874883 -0.0037783314 0.22711115 
-0.050262 -0.007415 0.2301 
-0.050065 -0.0099304 0.2322 
-0.037833 0.051152 0.18543 
-0.03807489 0.049503017 0.1867127 
-0.03834242 0.047021065 0.18867338 
-0.03873888 0.044456407 0.19065487 
-0.039063938 0.04189826 0.192659 
-0.039441712 0.038951177 0.19494696 
-0.039739538 0.036095407 0.19715795 
-0.040268473 0.03344507 0.19911377 
-0.040837992 0.030636208 0.2011482 
-0.041330986 0.028029723 0.20298833 
-0.04207005 0.024713978 0.20527628 
-0.042035487 0.021126632 0.20756961 
-0.042294297 0.016940307 0.21044195 
-0.042874888 0.012872444 0.21374077 
-0.04352639 0.008775632 0.21719472 
-0.044206563 0.0054985723 0.22011174 
-0.044683892 0.0025360256 0.22280598 
-0.045092206 -0.00012281179 0.22511302 
-0.045788907 -0.0032120626 0.22754906 
-0.046692327 -0.0064510144 0.23009758 
-0.04749233 -0.0102601135 0.23310126 
-0.046679 -0.012748 0.23535 
-0.035124 0.051519 0.18581 
-0.03517826 0.049944643 0.18708163 
-0.035212193 0.047427513 0.18911806 
-0.03547636 0.045063544 0.19097966 
-0.035882477 0.042274088 0.19313933 
-0.036301803 0.038795233 0.19585095 
-0.036751833 0.03612765 0.19786845 
-0.03724486 0.03321981 0.20003095 
-0.03782667 0.030324241 0.20210266 
-0.03838763 0.02723718 0.20423654 
-0.03899393 0.023968507 0.20648463 
-0.038960055 0.021164764 0.20831613 
-0.03924172 0.016930118 0.21124853 
-0.03973126 0.013059444 0.21434481 
-0.040285777 0.009069072 0.21755578 
-0.040811617 0.0056002024 0.22073644 
-0.041189536 0.0026590412 0.22339639 
-0.041541383 0.0002489219 0.22554955 
-0.04221883 -0.0026938752 0.22795026 
-0.042922966 -0.005873779 0.23043379 
-0.043455813 -0.009560262 0.23349647 
-0.043446 -0.012583 0.23602 
-0.032113 0.051643 0.18646 
-0.032166466 0.050168645 0.18764628 
-0.032327686 0.047690224 0.18962944 
-0.03254817 0.045088723 0.19169663 
-0.032869082 0.04223095 0.1939403 
-0.033240493 0.038814057 0.19659576 
-0.033687443 0.036133833 0.1986266 
-0.03417826 0.03309706 0.20088519 
-0.034666546 0.029894749 0.20321898 
-0.035382893 0.026729 0.20537162 
-0.036004398 0.023497399 0.20759308 
-0.03598544 0.020875491 0.20940626 
-0.03608099 0.016947838 0.21213433 
-0.03647809 0.01326824 0.2150529 
-0.036915556 0.009628796 0.21812548 
-0.03732661 0.006119424 0.22115134 
-0.03776487 0.0031261586 0.22395691 
-0.038196236 0.0005309853 0.22614338 
-0.03900457 -0.0027312567 0.2287509 
-0.039505232 -0.0058826096 0.2313514 
-0.0398542 -0.008912924 0.23388258 
-0.039704 -0.012041 0.23651 
-0.029233 0.051989 0.1869 
-0.029213957 0.0504232 0.18817678 
-0.029521694 0.047945727 0.19012278 
-0.029528111 0.04531074 0.19226724 
-0.029733062 0.042302825 0.19465806 
-0.030155713 0.039135415 0.1971076 
-0.030576523 0.036185507 0.19936244 
-0.030985612 0.033141643 0.20166135 
-0.03153134 0.029516082 0.2042957 
-0.032305196 0.025949573 0.20679586 
-0.03285613 0.023095101 0.2087717 
-0.032566257 0.020639542 0.21054941 
-0.032770958 0.016860299 0.21329477 
-0.03297712 0.013608997 0.21600248 
-0.033533167 0.009811066 0.21898594 
-0.034011576 0.006561116 0.22165257 
-0.03443038 0.003099596 0.22488439 
-0.03498784 0.00047349685 0.22702764 
-0.035709538 -0.0027720616 0.22968544 
-0.03608481 -0.006339196 0.23261143 
-0.036231246 -0.009413676 0.23519771 
-0.036454 -0.012426 0.23764 
-0.026317 0.052085 0.18755 
-0.02621416 0.050572496 0.1888048 
-0.026436295 0.048211955 0.1906812 
-0.026629014 0.04553828 0.19280306 
-0.026755806 0.042574354 0.19518414 
-0.026996832 0.03953472 0.19757654 
-0.027319726 0.036186144 0.20017478 
-0.027774453 0.032872666 0.20269178 
-0.028255481 0.028915783 0.20566212 
-0.02891927 0.02536446 0.20818006 
-0.028694332 0.022897478 0.2101352 
-0.028734878 0.020416459 0.21202196 
-0.029243058 0.016343025 0.21504214 
-0.029611604 0.013251912 0.21747465 
-0.029938797 0.009648086 0.22043529 
-0.030408472 0.006517361 0.22292027 
-0.031038586 0.0029274113 0.2259713 
-0.03140905 0.00023459915 0.2282648 
-0.032172073 -0.0028506955 0.23070262 
-0.032541625 -0.0063870144 0.233606 
-0.032542374 -0.00940291 0.23610188 
-0.033238176 -0.012525664 0.23851253 
-0.033741 -0.016125 0.24134 
-0.023349 0.052231 0.18817 
-0.023181949 0.050719224 0.18944484 
-0.02341242 0.04813915 0.19148907 
-0.02361039 0.045691304 0.19342993 
-0.023653518 0.042632338 0.19590163 
-0.023919996 0.039743446 0.19817883 
-0.024050351 0.036497198 0.20075585 
-0.024339149 0.03293674 0.20353332 
-0.024421236 0.028990397 0.20660913 
-0.02490896 0.02541794 0.20929618 
-0.024413096 0.022405155 0.2117772 
-0.024949793 0.01979048 0.21370247 
-0.02552039 0.016303066 0.21636356 
-0.026124066 0.01288907 0.21900268 
-0.026358347 0.009828648 0.22144526 
-0.026702067 0.006569737 0.2240717 
-0.027316572 0.0028353257 0.22713219 
-0.027727308 -0.00021296437 0.22962075 
-0.028085247 -0.0029726387 0.23191205 
-0.028605383 -0.006445309 0.23467194 
-0.029058993 -0.009379089 0.2369586 
-0.030007863 -0.0124095725 0.23923653 
-0.03019 -0.016568 0.24259 
-0.020429 0.050381 0.19041 
-0.020258123 0.04814136 0.19228198 
-0.020406436 0.04565596 0.1942538 
-0.020682517 0.04295196 0.19638516 
-0.020785442 0.0399062 0.19883262 
-0.020854276 0.037044592 0.20111506 
-0.020870697 0.032973357 0.20438425 
-0.021012988 0.029655008 0.2070087 
-0.021137133 0.02613776 0.20978099 
-0.02125816 0.022785079 0.21241567 
-0.021463882 0.019642081 0.21489225 
-0.02203126 0.016298098 0.21742171 
-0.022708211 0.012802603 0.22008646 
-0.022877984 0.00977007 0.22256158 
-0.023142627 0.006478888 0.22522537 
-0.023560375 0.0025681595 0.22837621 
-0.024194635 -0.0007842179 0.2310501 
-0.024368702 -0.0032728144 0.23310052 
-0.02428891 -0.006650655 0.23593621 
-0.024867421 -0.00922077 0.23791826 
-0.02586543 -0.011992316 0.23992106 
-0.026489 -0.016805 0.2437 
-0.017256 0.048036 0.19312 
-0.017364351 0.0456224 0.19505242 
-0.01751409 0.04298956 0.1971512 
-0.017650798 0.04006065 0.19948973 
-0.017858444 0.03726392 0.20170304 
-0.017626766 0.033364538 0.20491149 
-0.017746361 0.029779611 0.20775454 
-0.017947633 0.02674091 0.21014766 
-0.01826611 0.023688294 0.21252893 
-0.01809764 0.019920547 0.21563429 
-0.018552106 0.016545793 0.21824539 
-0.01906105 0.013283295 0.2207757 
-0.019220272 0.0099208625 0.22349563 
-0.019435823 0.0060132574 0.22664674 
-0.019821757 0.0023691852 0.2295738 
-0.020319536 -0.0009047462 0.23218076 
-0.020263733 -0.003549314 0.23441671 
-0.020278845 -0.0063951816 0.23673284 
-0.021088839 -0.00955312 0.23913954 
-0.021855965 -0.012897827 0.24167651 
-0.022633 -0.017556 0.24528 
-0.014544 0.0452 0.19611 
-0.014366581 0.042824388 0.19807905 
-0.014509624 0.040000275 0.20033704 
-0.014725989 0.037408955 0.20237528 
-0.014491704 0.03423958 0.20500663 
-0.014562105 0.030295372 0.20816442 
-0.014656989 0.026834045 0.21095785 
-0.014758785 0.023480786 0.21365716 
-0.014935526 0.020023666 0.21642081 
-0.015114868 0.016931122 0.2188867 
-0.015167486 0.013716578 0.22151388 
-0.015424465 0.009916104 0.22455539 
-0.015853768 0.005802628 0.22780532 
-0.016102178 0.0024495556 0.23051535 
-0.016411949 -0.00046226272 0.23285078 
-0.016496945 -0.0038117869 0.23558728 
-0.016727092 -0.0069138138 0.2380688 
-0.017169116 -0.010081229 0.24053277 
-0.017918853 -0.014183911 0.24370255 
-0.018345 -0.018081 0.24678 
-0.011732 0.04267 0.19887 
-0.011242592 0.040400323 0.20083983 
-0.011344163 0.037747588 0.20295548 
-0.011173217 0.03453524 0.20559444 
-0.011434126 0.030656688 0.20867051 
-0.011318494 0.026922943 0.21174657 
-0.011314675 0.023569252 0.214475 
-0.011698241 0.02032723 0.21702172 
-0.011714252 0.01742638 0.21938294 
-0.011506902 0.013740606 0.22246553 
-0.011807636 0.009876512 0.225532 
-0.01205136 0.0061071054 0.22855026 
-0.012332004 0.0027949894 0.23120476 
-0.012983188 -0.00047586224 0.23373477 
-0.0128808245 -0.0031976742 0.23599726 
-0.013147522 -0.0071356627 0.23915355 
-0.013505488 -0.0103370985 0.24166885 
-0.014077031 -0.014850859 0.24521738 
-0.014929 -0.017639 0.24727 
-0.0081946 0.040334 0.20166 
-0.0080109555 0.037691664 0.2038576 
-0.008105318 0.034242094 0.20660989 
-0.008138658 0.031129083 0.20913833 
-0.008192856 0.027361602 0.21220104 
-0.00800976 0.023977786 0.21499026 
-0.008069652 0.020842465 0.21753322 
-0.008242709 0.017887872 0.21990788 
-0.008067312 0.014016774 0.22312756 
-0.00813485 0.010073367 0.22631559 
-0.008339474 0.006174428 0.22945902 
-0.008761505 0.0032246467 0.23176284 
-0.009198302 -0.00036410303 0.23458561 
-0.009360858 -0.0031530873 0.23683894 
-0.009634454 -0.0071824333 0.24006473 
-0.01028 -0.010639 0.24273 
-0.011121 -0.013447 0.24481 
-0.0055146 0.039605 0.20293 
-0.0045389 0.03730569 0.20501834 
-0.0045812745 0.03454691 0.20727414 
-0.004662726 0.031582505 0.20965809 
-0.004590544 0.028211841 0.21241376 
-0.004647293 0.024759848 0.2152076 
-0.0045289434 0.02136581 0.21802302 
-0.0046674614 0.018144265 0.22060779 
-0.0045898375 0.014637193 0.2235067 
-0.0047435006 0.010836372 0.22658087 
-0.004785673 0.0068897153 0.22976921 
-0.0052599036 0.0037621073 0.2322259 
-0.0055913595 -9.901369e-05 0.23529027 
-0.0061969 -0.0031128 0.23761 
-0.0071032 -0.0063473 0.24002 
-0.0015804 0.036841 0.20617 
-0.0011989222 0.0348784 0.20785785 
-0.0012765137 0.032067005 0.21012649 
-0.0011698884 0.029135343 0.21253188 
-0.0011348666 0.025902178 0.2151831 
-0.0011312861 0.022414045 0.21803518 
-0.0010862111 0.01895664 0.22086553 
-0.0010313 0.015794 0.22347 
-0.0014019 0.012076 0.22642 
-0.0015742 0.0082159 0.22952 
-0.0022256 0.0044729 0.23241 
-0.0032191 0.0004202 0.23547 
0.0018553 0.035081 0.20846 
0.0022782 0.032625 0.21057 
0.002266 0.02993 0.21277 
0.0021046 0.026606 0.21544 
0.0020287 0.023613 0.21786 
0.0016399 0.020347 0.22043 
-0.0077885143 -0.0018782557 0.23618901 
-0.04797371 0.03231671 0.19815142 
-0.058382537 0.029521639 0.19217864 
-0.021872431 0.046867933 0.19290796 
-0.01620757 0.038749512 0.20091657 
-0.016211439 -0.016155617 0.2457404 
-0.015208728 0.008827483 0.212398 
-0.058886338 0.024252828 0.19564152 
-0.045813363 -0.017106663 0.2283935 
-0.0129995905 0.038886894 0.2016172 
-0.022765487 0.023851 0.211128 
-0.05901334 0.022597533 0.19798583 
-0.011750866 -0.020227484 0.24054356 
-0.03301285 0.05055936 0.18712167 
-0.048556358 -0.014276681 0.22563568 
-0.058592737 0.025750102 0.1932303 
-0.057834893 0.030948615 0.19004297 
-0.025001608 0.021073656 0.19996144 
-0.01674269 0.015433806 0.2196872 
-0.059030853 0.02316747 0.19681884 
-0.057108734 0.035148308 0.19366506 
-0.04378162 0.040621918 0.19252408 
-0.04025454 0.043224934 0.19128451 
-0.04324034 0.042979784 0.19074582 
-0.03666044 0.0485755 0.1878281 
-0.03380187 0.048698083 0.18843651 
-0.021193968 0.02454862 0.2110206 
-0.018911466 0.031958833 0.20571217 
-0.01908452 0.038368218 0.20050381 
-0.053533547 0.0015132482 0.22191735 
-0.046557043 0.0011853401 0.22367047 
-0.015972327 0.02881124 0.20899971 
-0.01354487 0.03156061 0.2074021 
-0.013526836 0.021401329 0.21567237 
-0.010065261 0.03213755 0.20782904 
-0.013534836 0.018901346 0.217709 
0.0005545088 0.018521713 0.22164302 
-0.009944697 -0.017785706 0.23971911 
-0.013380445 -0.022657929 0.24140157 
-0.016586231 -0.02306072 0.2407941 
-0.02837727 -0.021261038 0.23732929 
-0.037967224 -0.016770165 0.2309904 
-0.041609515 -0.017507754 0.2304596 
-0.044745505 -0.017740332 0.22989407 
-0.05690653 0.017580561 0.19923034 
-0.059167247 0.021298558 0.19936182 
-0.05883616 0.02528891 0.1944779 
-0.058140326 0.030302862 0.19072588 
-0.010534965 -0.015615272 0.24226527 
-0.034023393 0.047687784 0.18095273 
-0.03100697 0.047770455 0.18157138 
-0.02512969 0.048188277 0.18266219 
-0.028046347 0.04811035 0.18202019 
-0.04570416 -0.015232436 0.23261544 
-0.042561527 -0.014924279 0.23337641 
-0.02572208 0.050135963 0.1851091 
-0.028638719 0.05005239 0.18446998 
-0.031568028 0.049732212 0.18405983 
-0.034586042 0.04964737 0.18344104 
-0.027452594 0.046167918 0.17956282 
-0.024535403 0.04623638 0.18021394 
-0.03045916 0.04584975 0.17913474 
-0.03347038 0.045770008 0.17851368 
-0.017467067 -0.02056509 0.24378301 
-0.057573535 0.019640023 0.2017919 
-0.016123947 0.031814232 0.20654939 
-0.05628295 0.015560788 0.19671492 
-0.031840913 0.050685108 0.18526077 
3 9 1 8 
3 8 19 9 
3 1 7 8 
3 9 2 1 
3 19 20 9 
3 8 18 19 
3 7 17 8 
3 9 10 2 
3 20 10 9 
3 20 21 10 
3 19 33 20 
3 18 32 19 
3 8 17 18 
3 17 31 18 
3 7 6 17 
3 10 3 2 
3 21 11 10 
3 20 34 21 
3 33 34 20 
3 33 50 34 
3 19 32 33 
3 32 49 33 
3 18 31 32 
3 31 47 32 
3 17 30 31 
3 6 16 17 
3 10 11 3 
3 11 4 3 
3 21 22 11 
3 34 22 21 
3 34 35 22 
3 50 35 34 
3 50 51 35 
3 33 49 50 
3 49 68 50 
3 32 48 49 
3 47 48 32 
3 47 65 48 
3 31 30 47 
3 30 46 47 
3 17 16 30 
3 16 29 30 
3 11 12 4 
3 22 12 11 
3 22 23 12 
3 35 36 22 
3 51 36 35 
3 51 52 36 
3 50 69 51 
3 68 69 50 
3 68 89 69 
3 49 67 68 
3 48 67 49 
3 48 66 67 
3 65 66 48 
3 65 86 66 
3 47 64 65 
3 46 64 47 
3 46 45 64 
3 30 29 46 
3 29 45 46 
3 29 28 45 
3 16 15 29 
3 12 5 4 
3 23 13 12 
3 22 36 23 
3 36 37 23 
3 52 37 36 
3 52 53 37 
3 51 69 52 
3 69 70 52 
3 89 90 69 
3 68 88 89 
3 67 88 68 
3 67 87 88 
3 66 87 67 
3 66 86 87 
3 86 108 87 
3 65 85 86 
3 64 85 65 
3 64 84 85 
3 45 63 64 
3 28 44 45 
3 29 15 28 
3 15 27 28 
3 12 13 5 
3 23 14 13 
3 37 24 23 
3 53 38 37 
3 52 70 53 
3 70 71 53 
3 69 90 70 
3 90 91 70 
3 89 111 90 
3 88 110 89 
3 87 109 88 
3 108 109 87 
3 108 130 109 
3 86 85 108 
3 85 107 108 
3 84 106 85 
3 64 63 84 
3 63 83 84 
3 45 44 63 
3 44 62 63 
3 28 27 44 
3 27 43 44 
3 23 24 14 
3 24 25 14 
3 37 38 24 
3 38 25 24 
3 38 26 25 
3 53 54 38 
3 71 54 53 
3 71 72 54 
3 70 91 71 
3 91 92 71 
3 90 112 91 
3 111 112 90 
3 111 133 112 
3 89 110 111 
3 110 132 111 
3 88 109 110 
3 109 131 110 
3 130 131 109 
3 130 152 131 
3 108 129 130 
3 107 129 108 
3 107 128 129 
3 85 106 107 
3 106 128 107 
3 106 127 128 
3 84 83 106 
3 83 105 106 
3 63 62 83 
3 62 61 83 
3 44 43 62 
3 43 61 62 
3 43 42 61 
3 27 42 43 
3 38 39 26 
3 71 92 72 
3 92 93 72 
3 91 113 92 
3 112 113 91 
3 112 134 113 
3 133 134 112 
3 133 155 134 
3 111 132 133 
3 132 154 133 
3 110 131 132 
3 131 153 132 
3 152 153 131 
3 152 174 153 
3 130 151 152 
3 129 151 130 
3 129 128 151 
3 128 150 151 
3 127 149 128 
3 106 105 127 
3 105 126 127 
3 83 82 105 
3 61 82 83 
3 61 60 82 
3 42 60 61 
3 93 73 72 
3 92 114 93 
3 113 114 92 
3 113 135 114 
3 134 135 113 
3 134 156 135 
3 155 156 134 
3 155 177 156 
3 133 154 155 
3 154 176 155 
3 132 153 154 
3 153 175 154 
3 174 175 153 
3 174 197 175 
3 152 173 174 
3 151 173 152 
3 151 150 173 
3 150 172 173 
3 128 149 150 
3 149 171 150 
3 127 148 149 
3 126 148 127 
3 126 125 148 
3 105 104 126 
3 82 104 105 
3 82 103 104 
3 60 81 82 
3 73 55 72 
3 93 94 73 
3 114 115 93 
3 135 136 114 
3 156 157 135 
3 177 178 156 
3 155 176 177 
3 715 713 409 
3 154 175 176 
3 175 198 176 
3 197 198 175 
3 197 219 198 
3 174 196 197 
3 173 196 174 
3 173 195 196 
3 172 195 173 
3 172 194 195 
3 150 171 172 
3 171 194 172 
3 171 170 194 
3 149 148 171 
3 148 170 171 
3 148 147 170 
3 125 147 148 
3 125 146 147 
3 126 104 125 
3 104 103 125 
3 103 102 125 
3 82 81 103 
3 81 80 103 
3 60 80 81 
3 73 56 55 
3 94 74 73 
3 93 116 94 
3 115 116 93 
3 115 138 116 
3 114 136 115 
3 136 137 115 
3 135 157 136 
3 157 158 136 
3 156 178 157 
3 178 179 157 
3 177 200 178 
3 200 201 178 
3 593 613 710 
3 198 199 176 
3 198 221 199 
3 219 220 198 
3 197 196 219 
3 196 218 219 
3 195 217 196 
3 194 217 195 
3 194 216 217 
3 170 193 194 
3 147 169 170 
3 146 168 147 
3 125 124 146 
3 102 124 125 
3 103 80 102 
3 56 40 55 
3 73 74 56 
3 74 57 56 
3 94 95 74 
3 116 117 94 
3 138 139 116 
3 115 137 138 
3 137 160 138 
3 136 159 137 
3 158 159 136 
3 158 180 159 
3 157 179 158 
3 179 180 158 
3 179 202 180 
3 178 201 179 
3 201 202 179 
3 201 223 202 
3 200 223 201 
3 200 222 223 
3 199 222 200 
3 199 221 222 
3 221 243 222 
3 198 220 221 
3 220 241 221 
3 219 240 220 
3 218 240 219 
3 218 239 240 
3 196 217 218 
3 217 238 218 
3 216 237 217 
3 194 193 216 
3 193 215 216 
3 170 192 193 
3 169 192 170 
3 169 191 192 
3 147 168 169 
3 168 191 169 
3 40 39 55 
3 56 41 40 
3 57 41 56 
3 57 58 41 
3 74 75 57 
3 95 75 74 
3 95 96 75 
3 94 117 95 
3 117 118 95 
3 116 139 117 
3 139 140 117 
3 138 161 139 
3 160 161 138 
3 160 182 161 
3 137 159 160 
3 159 181 160 
3 180 181 159 
3 180 203 181 
3 202 203 180 
3 202 224 203 
3 223 224 202 
3 223 245 224 
3 222 244 223 
3 243 244 222 
3 243 263 244 
3 221 242 243 
3 241 242 221 
3 241 262 242 
3 220 240 241 
3 240 261 241 
3 239 260 240 
3 218 238 239 
3 238 258 239 
3 217 237 238 
3 237 257 238 
3 216 236 237 
3 215 236 216 
3 215 214 236 
3 193 214 215 
3 193 192 214 
3 192 191 214 
3 39 54 55 
3 57 76 58 
3 75 76 57 
3 75 97 76 
3 96 97 75 
3 96 119 97 
3 95 118 96 
3 118 119 96 
3 118 140 119 
3 140 118 117 
3 139 161 140 
3 161 162 140 
3 182 183 161 
3 160 181 182 
3 181 204 182 
3 203 204 181 
3 203 225 204 
3 224 225 203 
3 224 245 225 
3 245 246 225 
3 223 244 245 
3 244 264 245 
3 263 264 244 
3 263 282 264 
3 243 262 263 
3 262 243 242 
3 241 261 262 
3 261 280 262 
3 240 260 261 
3 260 279 261 
3 239 259 260 
3 258 259 239 
3 258 277 259 
3 238 257 258 
3 257 277 258 
3 237 236 257 
3 76 59 58 
3 97 98 76 
3 119 120 97 
3 140 141 119 
3 162 141 140 
3 162 163 141 
3 161 183 162 
3 183 184 162 
3 182 205 183 
3 204 205 182 
3 204 226 205 
3 225 226 204 
3 225 247 226 
3 246 247 225 
3 605 606 701 
3 245 266 246 
3 245 265 266 
3 264 265 245 
3 264 283 265 
3 282 283 264 
3 282 300 283 
3 263 281 282 
3 262 281 263 
3 262 280 281 
3 280 298 281 
3 261 279 280 
3 279 297 280 
3 260 278 279 
3 259 278 260 
3 259 277 278 
3 277 296 278 
3 76 77 59 
3 98 77 76 
3 98 99 77 
3 97 120 98 
3 120 121 98 
3 119 141 120 
3 141 142 120 
3 163 142 141 
3 163 164 142 
3 162 184 163 
3 184 185 163 
3 183 206 184 
3 205 206 183 
3 205 227 206 
3 226 227 205 
3 226 247 227 
3 247 248 227 
3 3 4 699 
3 265 285 266 
3 283 284 265 
3 300 301 283 
3 282 299 300 
3 281 299 282 
3 281 298 299 
3 298 316 299 
3 280 297 298 
3 297 314 298 
3 279 296 297 
3 296 279 278 
3 77 78 59 
3 99 78 77 
3 99 79 78 
3 98 121 99 
3 121 122 99 
3 120 142 121 
3 142 143 121 
3 164 143 142 
3 164 165 143 
3 163 185 164 
3 185 186 164 
3 184 207 185 
3 206 207 184 
3 206 228 207 
3 227 228 206 
3 227 248 228 
3 248 249 228 
3 247 267 248 
3 267 268 248 
3 266 285 267 
3 285 286 267 
3 265 284 285 
3 284 303 285 
3 283 302 284 
3 301 302 283 
3 301 319 302 
3 300 318 301 
3 299 317 300 
3 316 317 299 
3 316 331 317 
3 298 315 316 
3 314 315 298 
3 314 328 315 
3 297 313 314 
3 296 313 297 
3 99 100 79 
3 122 100 99 
3 122 101 100 
3 121 144 122 
3 143 144 121 
3 143 165 144 
3 165 166 144 
3 164 186 165 
3 186 187 165 
3 185 208 186 
3 207 208 185 
3 207 229 208 
3 228 229 207 
3 228 249 229 
3 249 250 229 
3 248 268 249 
3 268 269 249 
3 267 286 268 
3 286 287 268 
3 285 303 286 
3 303 304 286 
3 284 302 303 
3 302 319 303 
3 319 320 303 
3 301 318 319 
3 318 333 319 
3 300 317 318 
3 317 332 318 
3 331 332 317 
3 331 343 332 
3 316 330 331 
3 315 330 316 
3 315 329 330 
3 328 329 315 
3 328 340 329 
3 100 101 79 
3 122 123 101 
3 144 145 122 
3 166 145 144 
3 166 167 145 
3 165 187 166 
3 187 188 166 
3 186 209 187 
3 208 209 186 
3 208 230 209 
3 229 230 208 
3 229 250 230 
3 250 251 230 
3 249 269 250 
3 269 270 250 
3 268 287 269 
3 287 288 269 
3 286 305 287 
3 304 305 286 
3 304 322 305 
3 303 321 304 
3 320 321 303 
3 320 335 321 
3 319 334 320 
3 333 334 319 
3 333 345 334 
3 318 332 333 
3 332 344 333 
3 343 344 332 
3 331 342 343 
3 330 342 331 
3 330 341 342 
3 329 340 330 
3 340 341 330 
3 122 145 123 
3 166 189 167 
3 188 189 166 
3 188 212 189 
3 187 210 188 
3 209 210 187 
3 209 231 210 
3 230 231 209 
3 230 251 231 
3 251 252 231 
3 250 271 251 
3 270 271 250 
3 270 289 271 
3 269 289 270 
3 269 288 289 
3 288 307 289 
3 287 305 288 
3 305 306 288 
3 322 323 305 
3 304 321 322 
3 321 336 322 
3 335 336 321 
3 320 334 335 
3 334 345 335 
3 333 344 345 
3 189 190 167 
3 212 190 189 
3 212 213 190 
3 188 211 212 
3 210 211 188 
3 210 232 211 
3 231 232 210 
3 231 252 232 
3 252 253 232 
3 251 271 252 
3 271 272 252 
3 289 290 271 
3 307 290 289 
3 307 308 290 
3 288 306 307 
3 306 324 307 
3 305 323 306 
3 323 324 306 
3 323 338 324 
3 322 337 323 
3 336 337 322 
3 211 234 212 
3 232 233 211 
3 253 233 232 
3 253 254 233 
3 252 272 253 
3 272 273 253 
3 271 291 272 
3 290 291 271 
3 290 308 291 
3 308 309 291 
3 307 325 308 
3 324 325 307 
3 324 339 325 
3 338 339 324 
3 323 337 338 
3 211 233 234 
3 233 254 234 
3 254 255 234 
3 253 273 254 
3 273 274 254 
3 272 291 273 
3 291 292 273 
3 309 292 291 
3 309 310 292 
3 308 325 309 
3 325 326 309 
3 339 326 325 
3 254 274 255 
3 274 275 255 
3 273 292 274 
3 292 293 274 
3 310 293 292 
3 310 311 293 
3 309 327 310 
3 326 327 309 
3 275 256 255 
3 274 293 275 
3 293 294 275 
3 311 312 293 
3 310 327 311 
3 256 235 255 
3 275 276 256 
3 294 295 275 
3 293 312 294 
3 275 295 276 
3 7 0 6 
3 72 55 54 
3 38 54 39 
3 39 40 26 
3 314 313 328 
3 212 234 213 
3 234 235 213 
3 235 234 255 
3 7 1 0 
3 294 312 295 
3 712 347 355 
3 365 354 355 
3 442 421 722 
3 348 355 347 
3 366 365 355 
3 364 354 365 
3 364 363 353 
3 356 355 348 
3 356 366 355 
3 367 366 356 
3 379 365 366 
3 378 364 365 
3 364 353 354 
3 377 363 364 
3 352 353 363 
3 349 356 348 
3 357 367 356 
3 380 366 367 
3 380 379 366 
3 396 379 380 
3 378 365 379 
3 605 585 696 
3 377 364 378 
3 393 377 378 
3 376 363 377 
3 362 352 363 
3 357 356 349 
3 350 357 349 
3 368 367 357 
3 367 381 380 
3 368 381 367 
3 380 397 396 
3 381 397 380 
3 395 379 396 
3 414 395 396 
3 1 2 694 
3 394 393 378 
3 411 393 394 
3 376 377 393 
3 392 376 393 
3 362 363 376 
3 375 362 376 
3 358 357 350 
3 358 368 357 
3 369 368 358 
3 382 381 368 
3 381 398 397 
3 382 398 381 
3 415 396 397 
3 415 414 396 
3 435 414 415 
3 413 395 414 
3 395 412 394 
3 413 412 395 
3 412 411 394 
3 432 411 412 
3 410 393 411 
3 410 392 393 
3 713 715 391 
3 375 376 392 
3 391 375 392 
3 374 375 391 
3 361 362 375 
3 351 358 350 
3 359 369 358 
3 382 368 369 
3 383 382 369 
3 383 398 382 
3 399 398 383 
3 415 397 398 
3 416 415 398 
3 436 435 415 
3 434 414 435 
3 434 413 414 
3 433 413 434 
3 433 412 413 
3 432 412 433 
3 454 432 433 
3 431 411 432 
3 431 410 411 
3 430 410 431 
3 429 408 714 
3 390 374 391 
3 361 375 374 
3 373 361 374 
3 359 358 351 
3 360 369 359 
3 370 383 369 
3 384 399 383 
3 416 398 399 
3 417 416 399 
3 436 415 416 
3 437 436 416 
3 457 435 436 
3 456 434 435 
3 455 433 434 
3 455 454 433 
3 476 454 455 
3 453 431 432 
3 454 453 432 
3 452 430 431 
3 409 410 430 
3 566 567 719 
3 449 427 716 
3 427 428 716 
3 373 374 390 
3 389 373 390 
3 370 369 360 
3 371 370 360 
3 384 383 370 
3 371 384 370 
3 372 384 371 
3 400 399 384 
3 400 417 399 
3 418 417 400 
3 437 416 417 
3 438 437 417 
3 458 436 437 
3 458 457 436 
3 479 457 458 
3 456 435 457 
3 478 456 457 
3 455 434 456 
3 477 455 456 
3 477 476 455 
3 498 476 477 
3 475 454 476 
3 475 453 454 
3 474 453 475 
3 452 431 453 
3 474 452 453 
3 473 452 474 
3 429 430 452 
3 451 429 452 
3 408 390 715 
3 407 408 429 
3 389 390 408 
3 407 389 408 
3 388 389 407 
3 388 373 389 
3 385 384 372 
3 438 417 418 
3 439 438 418 
3 459 437 438 
3 459 458 437 
3 480 458 459 
3 480 479 458 
3 501 479 480 
3 478 457 479 
3 500 478 479 
3 477 456 478 
3 499 477 478 
3 499 498 477 
3 520 498 499 
3 498 475 476 
3 498 497 475 
3 474 475 497 
3 496 474 497 
3 495 473 474 
3 451 452 473 
3 472 451 473 
3 428 429 451 
3 428 407 429 
3 406 407 428 
3 406 388 407 
3 419 439 418 
3 460 438 439 
3 460 459 438 
3 481 459 460 
3 481 480 459 
3 502 480 481 
3 502 501 480 
3 523 501 502 
3 500 479 501 
3 522 500 501 
3 499 478 500 
3 521 499 500 
3 521 520 499 
3 543 520 521 
3 520 497 498 
3 520 519 497 
3 496 497 519 
3 518 496 519 
3 495 474 496 
3 518 517 495 
3 494 473 495 
3 494 472 473 
3 471 472 494 
3 450 451 472 
3 450 428 451 
3 569 590 718 
3 427 406 428 
3 401 419 418 
3 440 439 419 
3 461 460 439 
3 482 481 460 
3 503 502 481 
3 524 523 502 
3 522 501 523 
3 523 545 522 
3 521 500 522 
3 544 521 522 
3 544 543 521 
3 565 543 544 
3 542 520 543 
3 542 519 520 
3 541 519 542 
3 541 518 519 
3 540 518 541 
3 518 495 496 
3 540 517 518 
3 516 517 540 
3 516 494 495 
3 517 516 495 
3 493 494 516 
3 493 471 494 
3 492 471 493 
3 702 569 718 
3 568 702 718 
3 346 0 708 
3 471 449 717 
3 426 427 449 
3 426 406 427 
3 402 419 401 
3 420 440 419 
3 462 439 440 
3 462 461 439 
3 484 461 462 
3 482 460 461 
3 483 482 461 
3 503 481 482 
3 504 503 482 
3 524 502 503 
3 525 524 503 
3 546 523 524 
3 547 546 524 
3 546 545 523 
3 545 544 522 
3 545 566 544 
3 566 565 544 
3 542 543 565 
3 564 542 565 
3 563 541 542 
3 563 540 541 
3 562 540 563 
3 539 516 540 
3 515 493 516 
3 514 492 493 
3 470 471 492 
3 78 79 706 
3 426 449 448 
3 386 402 401 
3 420 419 402 
3 403 420 402 
3 441 440 420 
3 463 462 440 
3 485 484 462 
3 483 461 484 
3 506 483 484 
3 483 504 482 
3 483 505 504 
3 526 504 505 
3 525 503 504 
3 526 525 504 
3 548 525 526 
3 547 524 525 
3 548 547 525 
3 569 547 548 
3 470 448 705 
3 711 4 5 
3 568 545 546 
3 567 545 568 
3 589 567 568 
3 567 566 545 
3 403 387 721 
3 586 565 566 
3 387 58 721 
3 58 404 721 
3 563 542 564 
3 584 563 564 
3 583 562 563 
3 266 267 698 
3 606 605 696 
3 538 516 539 
3 538 515 516 
3 537 515 538 
3 514 493 515 
3 537 514 515 
3 385 386 401 
3 387 402 386 
3 387 403 402 
3 680 681 728 
3 421 420 403 
3 421 441 420 
3 442 441 421 
3 463 440 441 
3 464 463 441 
3 485 462 463 
3 486 485 463 
3 507 484 485 
3 507 506 484 
3 528 506 507 
3 505 483 506 
3 527 505 506 
3 527 526 505 
3 549 526 527 
3 549 548 526 
3 570 548 549 
3 570 569 548 
3 591 569 570 
3 567 588 719 
3 565 586 720 
3 609 589 590 
3 588 567 589 
3 585 564 720 
3 586 566 587 
3 587 606 586 
3 347 708 739 
3 584 564 585 
3 604 584 585 
3 583 563 584 
3 603 583 584 
3 582 562 583 
3 582 561 562 
3 560 561 582 
3 560 539 561 
3 538 539 560 
3 537 538 560 
3 400 385 401 
3 422 403 404 
3 422 421 403 
3 645 644 726 
3 608 588 723 
3 465 442 443 
3 464 441 442 
3 465 464 442 
3 487 486 464 
3 464 486 463 
3 508 507 485 
3 486 508 485 
3 529 528 507 
3 527 506 528 
3 550 527 528 
3 550 549 527 
3 571 549 550 
3 571 570 549 
3 592 591 570 
3 571 592 570 
3 590 569 591 
3 610 590 591 
3 610 609 590 
3 628 609 610 
3 610 611 725 
3 608 627 724 
3 607 587 757 
3 611 630 725 
3 607 606 587 
3 625 606 607 
3 621 622 697 
3 605 604 585 
3 623 604 605 
3 603 584 604 
3 623 603 604 
3 582 583 603 
3 405 422 404 
3 444 443 422 
3 466 465 443 
3 465 487 464 
3 486 509 508 
3 487 509 486 
3 529 507 508 
3 530 529 508 
3 551 528 529 
3 551 550 528 
3 572 550 551 
3 572 571 550 
3 593 571 572 
3 593 592 571 
3 346 347 712 
3 592 611 591 
3 612 611 592 
3 611 610 591 
3 612 631 727 
3 629 628 610 
3 646 628 629 
3 627 609 628 
3 627 608 609 
3 630 629 725 
3 631 630 727 
3 625 607 626 
3 643 625 626 
3 587 719 757 
3 736 5 758 
3 623 605 624 
3 642 623 624 
3 423 422 405 
3 423 444 422 
3 445 444 423 
3 466 443 444 
3 467 466 444 
3 488 487 465 
3 466 488 465 
3 487 510 509 
3 488 510 487 
3 530 508 509 
3 531 530 509 
3 552 529 530 
3 552 551 529 
3 573 551 552 
3 573 572 551 
3 593 572 573 
3 594 593 573 
3 703 350 711 
3 312 311 729 
3 627 645 726 
3 647 646 629 
3 646 627 628 
3 646 645 627 
3 630 611 727 
3 645 661 644 
3 643 626 644 
3 660 643 644 
3 642 625 643 
3 625 642 624 
3 424 423 405 
3 424 445 423 
3 425 445 424 
3 467 444 445 
3 468 467 445 
3 488 466 467 
3 489 488 467 
3 489 510 488 
3 511 510 489 
3 531 509 510 
3 532 531 510 
3 553 530 531 
3 553 552 530 
3 574 552 553 
3 574 573 552 
3 594 573 574 
3 595 594 574 
3 613 593 594 
3 614 613 594 
3 631 612 613 
3 632 631 613 
3 681 335 728 
3 649 630 631 
3 648 629 630 
3 648 647 629 
3 665 647 648 
3 664 646 647 
3 663 645 646 
3 663 662 645 
3 677 662 663 
3 662 661 645 
3 661 660 644 
3 674 660 661 
3 659 643 660 
3 659 642 643 
3 446 445 425 
3 446 468 445 
3 447 468 446 
3 490 467 468 
3 490 489 467 
3 511 489 490 
3 512 511 490 
3 532 510 511 
3 533 532 511 
3 554 531 532 
3 554 553 531 
3 575 553 554 
3 575 574 553 
3 595 574 575 
3 596 595 575 
3 614 594 595 
3 615 614 595 
3 632 613 614 
3 633 632 614 
3 649 631 632 
3 650 649 632 
3 648 630 649 
3 666 665 648 
3 649 666 648 
3 664 647 665 
3 679 664 665 
3 663 646 664 
3 678 663 664 
3 678 677 663 
3 689 677 678 
3 676 662 677 
3 676 661 662 
3 675 661 676 
3 675 674 661 
3 686 674 675 
3 447 446 425 
3 469 468 447 
3 491 490 468 
3 491 512 490 
3 513 512 491 
3 533 511 512 
3 534 533 512 
3 555 532 533 
3 555 554 532 
3 576 554 555 
3 576 575 554 
3 596 575 576 
3 597 596 576 
3 615 595 596 
3 616 615 596 
3 633 614 615 
3 634 633 615 
3 633 650 632 
3 633 651 650 
3 668 650 651 
3 650 666 649 
3 650 667 666 
3 681 666 667 
3 680 665 666 
3 680 679 665 
3 691 679 680 
3 678 664 679 
3 690 678 679 
3 690 689 678 
3 688 677 689 
3 688 676 677 
3 687 676 688 
3 686 675 676 
3 687 686 676 
3 491 468 469 
3 513 534 512 
3 513 535 534 
3 558 534 535 
3 556 533 534 
3 556 555 533 
3 577 555 556 
3 577 576 555 
3 597 576 577 
3 598 597 577 
3 617 596 597 
3 617 616 596 
3 636 635 616 
3 635 615 616 
3 634 615 635 
3 653 634 635 
3 651 633 634 
3 652 651 634 
3 669 668 651 
3 667 650 668 
3 682 667 668 
3 682 681 667 
3 680 666 681 
3 191 168 752 
3 690 679 691 
3 536 535 513 
3 536 558 535 
3 559 558 536 
3 557 534 558 
3 557 556 534 
3 578 556 557 
3 578 577 556 
3 598 577 578 
3 599 598 578 
3 617 597 598 
3 618 617 598 
3 617 636 616 
3 635 654 653 
3 636 654 635 
3 652 634 653 
3 670 652 653 
3 669 651 652 
3 670 669 652 
3 684 669 670 
3 683 668 669 
3 683 682 668 
3 580 557 558 
3 579 578 557 
3 578 600 599 
3 579 600 578 
3 618 598 599 
3 619 618 599 
3 618 636 617 
3 618 637 636 
3 654 636 637 
3 655 654 637 
3 671 653 654 
3 671 670 653 
3 685 670 671 
3 685 684 670 
3 683 669 684 
3 579 557 580 
3 600 579 580 
3 601 600 580 
3 619 599 600 
3 620 619 600 
3 637 618 619 
3 638 637 619 
3 638 655 637 
3 656 655 638 
3 561 539 695 
3 395 394 693 
3 672 685 671 
3 620 600 601 
3 621 620 601 
3 638 619 620 
3 639 638 620 
3 639 656 638 
3 657 656 639 
3 673 655 656 
3 673 672 655 
3 602 621 601 
3 639 620 621 
3 640 639 621 
3 658 657 639 
3 673 656 657 
3 581 602 601 
3 622 621 602 
3 425 79 700 
3 658 639 640 
3 267 247 698 
3 346 353 352 
3 401 418 400 
3 400 384 385 
3 386 385 372 
3 659 660 674 
3 580 558 559 
3 581 580 559 
3 580 581 601 
3 410 409 713 
3 658 640 641 
3 15 361 373 
3 27 15 373 
3 27 373 388 
3 42 27 388 
3 42 388 406 
3 60 42 406 
3 60 406 426 
3 80 60 426 
3 700 735 745 
3 741 753 754 
3 745 735 746 
3 447 425 745 
3 168 751 752 
3 741 426 750 
3 80 741 754 
3 748 744 749 
3 514 537 747 
3 425 700 745 
3 191 537 560 
3 214 191 560 
3 214 560 582 
3 236 214 582 
3 236 582 603 
3 257 236 603 
3 257 603 623 
3 277 257 623 
3 277 623 642 
3 296 277 642 
3 642 659 313 
3 296 642 313 
3 313 659 674 
3 328 313 674 
3 328 674 686 
3 340 328 686 
3 340 686 687 
3 341 340 687 
3 341 687 688 
3 342 341 688 
3 342 688 689 
3 343 342 689 
3 343 689 690 
3 344 343 690 
3 344 690 691 
3 345 344 691 
3 704 312 729 
3 101 734 735 
3 335 681 682 
3 336 335 682 
3 336 682 683 
3 337 336 683 
3 337 683 684 
3 338 337 684 
3 338 684 685 
3 339 338 685 
3 339 685 672 
3 326 339 672 
3 326 672 673 
3 327 326 673 
3 327 673 657 
3 311 327 657 
3 737 736 756 
3 704 641 730 
3 348 2 707 
3 471 470 705 
3 213 235 732 
3 559 536 732 
3 190 213 732 
3 491 469 746 
3 256 602 581 
3 235 256 581 
3 145 167 733 
3 123 145 733 
3 537 743 747 
3 190 536 513 
3 167 190 513 
3 426 448 750 
3 700 101 735 
3 123 733 734 
3 101 123 734 
3 14 360 736 
3 448 470 759 
3 354 353 712 
3 624 605 701 
3 176 199 709 
3 2 3 707 
3 78 424 405 
3 59 78 405 
3 59 405 404 
3 58 59 404 
3 443 442 722 
3 41 58 387 
3 41 387 386 
3 40 41 386 
3 40 386 372 
3 26 40 372 
3 26 372 371 
3 25 26 371 
3 25 371 360 
3 14 25 360 
3 351 703 737 
3 5 736 737 
3 392 410 713 
3 699 349 738 
3 424 78 706 
3 295 312 704 
3 568 546 702 
3 79 101 700 
3 613 612 710 
3 0 1 708 
3 622 641 697 
3 562 561 695 
3 711 5 703 
3 199 200 709 
3 0 346 352 
3 6 0 352 
3 6 352 362 
3 16 6 362 
3 362 361 15 
3 16 362 15 
3 80 426 741 
3 655 672 692 
3 672 671 692 
3 394 378 693 
3 654 655 692 
3 671 654 692 
3 379 395 693 
3 378 379 693 
3 2 348 694 
3 348 347 694 
3 540 562 695 
3 539 540 695 
3 586 606 696 
3 588 589 723 
3 640 621 697 
3 641 640 697 
3 247 246 698 
3 246 266 698 
3 712 355 354 
3 350 349 699 
3 608 724 757 
3 469 745 746 
3 625 624 701 
3 606 625 701 
3 547 569 702 
3 546 547 702 
3 707 3 738 
3 351 350 703 
3 295 704 730 
3 742 750 749 
3 449 471 705 
3 448 449 705 
3 79 425 706 
3 425 424 706 
3 708 1 739 
3 641 622 755 
3 657 658 740 
3 347 346 708 
3 200 177 709 
3 177 176 709 
3 592 593 710 
3 612 592 710 
3 350 699 711 
3 699 4 711 
3 353 346 712 
3 472 471 717 
3 3 699 738 
3 391 392 713 
3 430 429 714 
3 409 430 714 
3 390 391 715 
3 714 408 715 
3 409 714 715 
3 428 450 716 
3 450 472 717 
3 716 450 717 
3 449 716 717 
3 590 589 718 
3 589 568 718 
3 587 566 719 
3 564 565 720 
3 696 585 720 
3 586 696 720 
3 404 403 721 
3 422 443 722 
3 421 422 722 
3 609 608 723 
3 589 609 723 
3 626 607 724 
3 5 13 758 
3 748 749 759 
3 629 610 725 
3 644 626 726 
3 724 627 726 
3 626 724 726 
3 611 612 727 
3 691 680 728 
3 345 691 728 
3 335 345 728 
3 311 657 729 
3 168 146 751 
3 581 559 732 
3 235 581 732 
3 295 730 731 
3 276 295 731 
3 256 276 731 
3 602 256 731 
3 536 190 732 
3 167 513 733 
3 513 491 733 
3 719 588 757 
3 703 5 737 
3 492 514 747 
3 694 347 739 
3 729 657 740 
3 588 608 757 
3 349 348 738 
3 348 707 738 
3 1 694 739 
3 704 729 740 
3 658 641 740 
3 641 704 740 
3 622 602 755 
3 492 747 748 
3 102 80 754 
3 735 734 746 
3 469 447 745 
3 743 748 747 
3 537 191 743 
3 744 752 751 
3 751 124 753 
3 734 733 746 
3 733 491 746 
3 744 748 743 
3 743 191 752 
3 744 742 749 
3 741 750 742 
3 146 124 751 
3 360 359 756 
3 742 744 751 
3 742 751 753 
3 743 752 744 
3 741 742 753 
3 602 731 755 
3 736 360 756 
3 754 753 102 
3 753 124 102 
3 731 730 755 
3 730 641 755 
3 359 351 756 
3 351 737 756 
3 724 607 757 
3 14 736 758 
3 13 14 758 
3 749 750 759 
3 750 448 759 
3 470 492 759 
3 492 748 759 
