ply
format ascii 1.0
comment PCL generated
element vertex 346
property float x
property float y
property float z
element face 630
property list uchar int vertex_indices
end_header
-0.057113 0.030942 0.18741 
-0.05799 0.028148 0.18844 
-0.058242 0.025521 0.18984 
-0.058483 0.022666 0.19137 
-0.058452 0.019656 0.19195 
-0.057431 0.016286 0.19412 
-0.053168 0.033099 0.1837 
-0.054315 0.030752 0.18543 
-0.054239 0.02787 0.18609 
-0.054555 0.025224 0.18784 
-0.05511 0.022571 0.18976 
-0.055426 0.019454 0.19136 
-0.055342 0.016488 0.19325 
-0.0555 0.013499 0.19513 
-0.055469 0.010326 0.19678 
-0.048232 0.035299 0.17985 
-0.049208 0.033057 0.18108 
-0.050028 0.030346 0.18255 
-0.05058 0.027523 0.18423 
-0.050929 0.025053 0.18684 
-0.051472 0.022374 0.18876 
-0.05172 0.019601 0.19068 
-0.052004 0.016772 0.19275 
-0.052546 0.013189 0.19452 
-0.053513 0.0091218 0.19668 
-0.053989 0.0053415 0.19989 
-0.053932 0.0017193 0.2026 
-0.044679 0.037832 0.17786 
-0.045359 0.035474 0.17883 
-0.04583 0.032987 0.18019 
-0.046494 0.030398 0.18192 
-0.047192 0.027637 0.1843 
-0.04757 0.025066 0.18712 
-0.047957 0.022445 0.18923 
-0.048273 0.019725 0.19113 
-0.048745 0.016772 0.19328 
-0.049338 0.012825 0.19449 
-0.050105 0.0080897 0.19476 
-0.051058 0.0038493 0.19857 
-0.051259 0.00035969 0.20359 
-0.051752 -0.0022793 0.20768 
-0.052041 -0.0039915 0.21151 
-0.04136 0.040424 0.17708 
-0.042225 0.038454 0.17793 
-0.042433 0.035807 0.17925 
-0.042788 0.033351 0.18078 
-0.043569 0.030735 0.18287 
-0.044031 0.02773 0.18521 
-0.044219 0.025044 0.18769 
-0.044514 0.022329 0.18964 
-0.044916 0.019518 0.1916 
-0.045581 0.016669 0.19342 
-0.04584 0.012343 0.19426 
-0.046178 0.0070334 0.1937 
-0.046623 0.0021742 0.19745 
-0.047802 -0.00037201 0.20414 
-0.048627 -0.0026842 0.2086 
-0.049677 -0.0045998 0.21261 
-0.050507 -0.0066961 0.21563 
-0.05112 -0.00923 0.21912 
-0.039028 0.041318 0.17688 
-0.039356 0.038811 0.17867 
-0.039726 0.036145 0.18006 
-0.040101 0.033558 0.18172 
-0.040426 0.030738 0.18384 
-0.041012 0.027678 0.18616 
-0.041295 0.025079 0.18837 
-0.041697 0.022466 0.18992 
-0.041749 0.019744 0.19171 
-0.042287 0.016422 0.19348 
-0.042128 0.011268 0.19348 
-0.041315 0.0051159 0.19297 
-0.040115 -0.00026732 0.19589 
-0.044225 -0.0015778 0.20484 
-0.045282 -0.0030546 0.20957 
-0.04607 -0.0042524 0.21362 
-0.047175 -0.0065983 0.21715 
-0.048509 -0.0098103 0.22037 
-0.048698 -0.013292 0.2228 
-0.048151 -0.016837 0.22354 
-0.035875 0.04326 0.1758 
-0.036314 0.041852 0.17732 
-0.036534 0.039327 0.17904 
-0.036947 0.036417 0.18062 
-0.037263 0.033879 0.18279 
-0.037511 0.030723 0.18503 
-0.037881 0.027653 0.18699 
-0.038454 0.025179 0.18909 
-0.038915 0.022452 0.19089 
-0.038908 0.019457 0.19192 
-0.038901 0.015364 0.19338 
-0.038539 0.0099519 0.19306 
-0.03782 0.00441 0.19498 
-0.037507 7.9187e-05 0.19838 
-0.040577 -0.0021349 0.20573 
-0.041812 -0.0028758 0.21068 
-0.042708 -0.0044498 0.21459 
-0.04338 -0.0074132 0.217 
-0.044129 -0.010138 0.21953 
-0.044735 -0.014449 0.22169 
-0.045372 -0.01863 0.22474 
-0.044305 -0.021338 0.22676 
-0.033254 0.043803 0.17614 
-0.033293 0.042389 0.17763 
-0.033128 0.039842 0.1796 
-0.033304 0.037117 0.18104 
-0.03367 0.034324 0.18344 
-0.034141 0.031014 0.1866 
-0.034743 0.0279 0.1879 
-0.035412 0.02513 0.18994 
-0.035778 0.022066 0.19169 
-0.035777 0.018861 0.19317 
-0.035782 0.014714 0.19459 
-0.035361 0.010238 0.19424 
-0.034987 0.0054156 0.19666 
-0.035043 0.0016302 0.20064 
-0.037349 -0.00051607 0.20624 
-0.038564 -0.0025647 0.21188 
-0.039285 -0.0046951 0.21529 
-0.039669 -0.0076849 0.21702 
-0.040157 -0.011456 0.21945 
-0.04084 -0.015535 0.22132 
-0.041186 -0.019315 0.22411 
-0.040799 -0.021797 0.22664 
-0.030297 0.043965 0.17683 
-0.030176 0.042522 0.17811 
-0.030187 0.040034 0.18005 
-0.030326 0.037441 0.18204 
-0.030414 0.034484 0.18445 
-0.031051 0.03124 0.18757 
-0.031573 0.028249 0.18903 
-0.032262 0.025037 0.19092 
-0.03259 0.021512 0.1928 
-0.032746 0.018468 0.19461 
-0.032883 0.014493 0.19584 
-0.032673 0.010759 0.19591 
-0.032039 0.0065065 0.19865 
-0.032526 0.0031482 0.20257 
-0.034466 0.00097492 0.20716 
-0.035549 -0.0016016 0.21176 
-0.035846 -0.0044995 0.21557 
-0.036409 -0.0075668 0.21771 
-0.036921 -0.011404 0.2202 
-0.037386 -0.015477 0.222 
-0.037499 -0.019184 0.22379 
-0.036937 -0.021925 0.22622 
-0.027245 0.044136 0.17725 
-0.027162 0.042637 0.17852 
-0.02741 0.040102 0.18021 
-0.02736 0.037555 0.18272 
-0.027348 0.03466 0.18552 
-0.027853 0.031642 0.18809 
-0.028477 0.028488 0.19021 
-0.029115 0.025303 0.19201 
-0.029554 0.02137 0.19434 
-0.029705 0.017915 0.19702 
-0.030226 0.014835 0.19782 
-0.029975 0.01209 0.19844 
-0.029743 0.008373 0.20144 
-0.029646 0.0049134 0.20422 
-0.031294 0.0014254 0.20822 
-0.03244 -0.001211 0.21209 
-0.032772 -0.0044212 0.2167 
-0.033295 -0.0077144 0.21866 
-0.033839 -0.011585 0.22122 
-0.034233 -0.015514 0.22369 
-0.033958 -0.019072 0.22537 
-0.033678 -0.022144 0.22752 
-0.024268 0.04432 0.178 
-0.024152 0.042915 0.17933 
-0.024162 0.040208 0.18061 
-0.024265 0.037561 0.18312 
-0.024337 0.034936 0.18597 
-0.024743 0.032035 0.1884 
-0.025378 0.028932 0.19126 
-0.026102 0.02535 0.19377 
-0.02636 0.021013 0.1965 
-0.026428 0.017527 0.19901 
-0.026103 0.014788 0.20028 
-0.026971 0.01286 0.20106 
-0.027334 0.0089369 0.20425 
-0.027292 0.0052148 0.20646 
-0.0283 0.0018614 0.21048 
-0.028808 -0.0012305 0.21453 
-0.029598 -0.0048757 0.21854 
-0.029933 -0.008061 0.22023 
-0.030461 -0.011658 0.22222 
-0.030702 -0.015311 0.22479 
-0.030222 -0.018954 0.22659 
-0.030526 -0.022237 0.22838 
-0.031008 -0.025131 0.23197 
-0.021153 0.044667 0.17894 
-0.020905 0.043204 0.18036 
-0.021083 0.040266 0.18191 
-0.021127 0.037404 0.18364 
-0.021321 0.034857 0.18666 
-0.021827 0.032186 0.18891 
-0.022263 0.029489 0.19187 
-0.022757 0.026093 0.19496 
-0.022845 0.020812 0.19896 
-0.02322 0.016809 0.20158 
-0.023194 0.01439 0.20312 
-0.023673 0.012095 0.20364 
-0.02429 0.0088414 0.20596 
-0.024902 0.0052745 0.20863 
-0.025023 0.0019819 0.21236 
-0.025467 -0.00096585 0.21622 
-0.026102 -0.0046977 0.21962 
-0.026316 -0.0083391 0.2213 
-0.026307 -0.01163 0.22289 
-0.026589 -0.015104 0.22596 
-0.026446 -0.018664 0.22737 
-0.027017 -0.022645 0.22882 
-0.02693 -0.026363 0.23265 
-0.018195 0.043086 0.18175 
-0.018137 0.040795 0.18367 
-0.018096 0.037833 0.18497 
-0.018417 0.034943 0.18697 
-0.018675 0.032163 0.18924 
-0.018851 0.02957 0.19202 
-0.019207 0.02648 0.19639 
-0.019477 0.022121 0.19956 
-0.019666 0.018036 0.20266 
-0.019914 0.014668 0.20459 
-0.020261 0.012094 0.20606 
-0.021313 0.0092973 0.20813 
-0.021893 0.0058681 0.21143 
-0.021765 0.0027582 0.21445 
-0.021867 -0.00058909 0.21759 
-0.022307 -0.0042445 0.22129 
-0.022513 -0.0082417 0.22292 
-0.022191 -0.011942 0.22397 
-0.021879 -0.015413 0.22662 
-0.022051 -0.018677 0.22725 
-0.022512 -0.022681 0.22798 
-0.023038 -0.026857 0.23305 
-0.01523 0.040813 0.18487 
-0.015251 0.038123 0.18634 
-0.015391 0.035029 0.18774 
-0.015658 0.032126 0.19003 
-0.015955 0.029639 0.19255 
-0.015965 0.026661 0.19715 
-0.016381 0.022565 0.20058 
-0.016355 0.01907 0.20304 
-0.016544 0.015419 0.20502 
-0.016755 0.012513 0.20783 
-0.017679 0.0097742 0.2101 
-0.01807 0.0065421 0.21287 
-0.01804 0.003281 0.21588 
-0.018024 -0.00032299 0.21921 
-0.018342 -0.0037695 0.22285 
-0.01859 -0.0078272 0.22456 
-0.018025 -0.011741 0.22543 
-0.017972 -0.015481 0.22653 
-0.018691 -0.019287 0.22773 
-0.018961 -0.023293 0.2298 
-0.019331 -0.027132 0.23468 
-0.012657 0.037829 0.18759 
-0.012553 0.034794 0.18886 
-0.012778 0.032086 0.19096 
-0.012998 0.029459 0.19307 
-0.012758 0.026816 0.19665 
-0.013193 0.02326 0.20088 
-0.013406 0.019731 0.20416 
-0.013444 0.016258 0.20698 
-0.013436 0.013097 0.2094 
-0.013707 0.010089 0.21154 
-0.0138 0.0072756 0.2141 
-0.014081 0.0036124 0.21718 
-0.014279 -7.1581e-05 0.22083 
-0.014536 -0.0035771 0.22363 
-0.014554 -0.0075885 0.22487 
-0.014297 -0.012194 0.2263 
-0.014456 -0.016289 0.22768 
-0.015022 -0.020082 0.2293 
-0.015446 -0.023867 0.23227 
-0.01553 -0.02714 0.23636 
-0.0099206 0.034817 0.18978 
-0.0094735 0.032196 0.19162 
-0.0097003 0.029493 0.19378 
-0.0095856 0.026875 0.19709 
-0.010011 0.023864 0.20124 
-0.010364 0.020501 0.20517 
-0.010145 0.017245 0.20799 
-0.010039 0.013561 0.21019 
-0.0099567 0.010304 0.21224 
-0.0099345 0.007309 0.21534 
-0.010333 0.0038804 0.21834 
-0.010511 0.00012188 0.22166 
-0.010738 -0.0034264 0.22375 
-0.011085 -0.0076385 0.22509 
-0.010721 -0.012027 0.22577 
-0.010869 -0.016398 0.22883 
-0.011097 -0.020117 0.23059 
-0.011693 -0.024289 0.23451 
-0.012463 -0.026801 0.23709 
-0.0063348 0.031953 0.19266 
-0.0062675 0.029525 0.19519 
-0.0063867 0.026801 0.19856 
-0.0067804 0.023916 0.20154 
-0.006993 0.020943 0.20542 
-0.0066927 0.017582 0.20835 
-0.0064185 0.014027 0.21047 
-0.006339 0.0106 0.21246 
-0.0063132 0.0071977 0.21586 
-0.0065222 0.0035962 0.21902 
-0.0067163 -0.00011042 0.22208 
-0.0068069 -0.0036307 0.22325 
-0.0073161 -0.0075975 0.22548 
-0.0072547 -0.012216 0.22608 
-0.0073355 -0.016513 0.22956 
-0.0079412 -0.020215 0.23153 
-0.008737 -0.023359 0.2336 
-0.0037231 0.031495 0.19435 
-0.0027449 0.029715 0.19696 
-0.0029764 0.026815 0.19933 
-0.0031856 0.023868 0.20174 
-0.0032106 0.021017 0.20477 
-0.0032775 0.017714 0.20777 
-0.0028713 0.014052 0.21043 
-0.0027802 0.010714 0.21276 
-0.0026751 0.0072742 0.21578 
-0.0028863 0.0035395 0.21831 
-0.0028812 -9.9601e-05 0.22132 
-0.0030554 -0.0041058 0.22272 
-0.003402 -0.0081319 0.22534 
-0.0040086 -0.012376 0.22656 
-0.0048736 -0.016005 0.22927 
0.00018658 0.029255 0.19854 
0.00036146 0.027055 0.19996 
0.00020463 0.02425 0.20186 
0.00023649 0.0212 0.20429 
0.00034553 0.017825 0.20697 
0.00070418 0.014181 0.20985 
0.0009151 0.01076 0.2124 
0.0010181 0.0072326 0.21471 
0.00055205 0.0036297 0.21697 
0.00076889 -0.00024693 0.21955 
0.00019833 -0.0039729 0.22229 
-0.0011064 -0.0075808 0.2257 
0.0036867 0.02713 0.20055 
0.0040585 0.024296 0.20216 
0.004 0.021196 0.20389 
0.0037867 0.017876 0.20675 
0.004248 0.014334 0.20893 
0.0038303 0.011239 0.21128 
3 9 1 8
3 8 19 9
3 1 7 8
3 9 2 1
3 19 20 9
3 8 18 19
3 7 17 8
3 9 10 2
3 20 10 9
3 20 21 10
3 19 33 20
3 18 32 19
3 8 17 18
3 17 31 18
3 7 6 17
3 10 3 2
3 21 11 10
3 20 34 21
3 33 34 20
3 33 50 34
3 19 32 33
3 32 49 33
3 18 31 32
3 31 47 32
3 17 30 31
3 6 16 17
3 10 11 3
3 11 4 3
3 21 22 11
3 34 22 21
3 34 35 22
3 50 35 34
3 50 51 35
3 33 49 50
3 49 68 50
3 32 48 49
3 47 48 32
3 47 65 48
3 31 30 47
3 30 46 47
3 17 16 30
3 16 29 30
3 11 12 4
3 22 12 11
3 22 23 12
3 35 36 22
3 51 36 35
3 51 52 36
3 50 69 51
3 68 69 50
3 68 89 69
3 49 67 68
3 48 67 49
3 48 66 67
3 65 66 48
3 65 86 66
3 47 64 65
3 46 64 47
3 46 45 64
3 30 29 46
3 29 45 46
3 29 28 45
3 16 15 29
3 12 5 4
3 23 13 12
3 22 36 23
3 36 37 23
3 52 37 36
3 52 53 37
3 51 69 52
3 69 70 52
3 89 90 69
3 68 88 89
3 67 88 68
3 67 87 88
3 66 87 67
3 66 86 87
3 86 108 87
3 65 85 86
3 64 85 65
3 64 84 85
3 45 63 64
3 28 44 45
3 29 15 28
3 15 27 28
3 12 13 5
3 23 14 13
3 37 24 23
3 53 38 37
3 52 70 53
3 70 71 53
3 69 90 70
3 90 91 70
3 89 111 90
3 88 110 89
3 87 109 88
3 108 109 87
3 108 130 109
3 86 85 108
3 85 107 108
3 84 106 85
3 64 63 84
3 63 83 84
3 45 44 63
3 44 62 63
3 28 27 44
3 27 43 44
3 23 24 14
3 24 25 14
3 37 38 24
3 38 25 24
3 38 26 25
3 53 54 38
3 71 54 53
3 71 72 54
3 70 91 71
3 91 92 71
3 90 112 91
3 111 112 90
3 111 133 112
3 89 110 111
3 110 132 111
3 88 109 110
3 109 131 110
3 130 131 109
3 130 152 131
3 108 129 130
3 107 129 108
3 107 128 129
3 85 106 107
3 106 128 107
3 106 127 128
3 84 83 106
3 83 105 106
3 63 62 83
3 62 61 83
3 44 43 62
3 43 61 62
3 43 42 61
3 27 42 43
3 38 39 26
3 71 92 72
3 92 93 72
3 91 113 92
3 112 113 91
3 112 134 113
3 133 134 112
3 133 155 134
3 111 132 133
3 132 154 133
3 110 131 132
3 131 153 132
3 152 153 131
3 152 174 153
3 130 151 152
3 129 151 130
3 129 128 151
3 128 150 151
3 127 149 128
3 106 105 127
3 105 126 127
3 83 82 105
3 61 82 83
3 61 60 82
3 42 60 61
3 93 73 72
3 92 114 93
3 113 114 92
3 113 135 114
3 134 135 113
3 134 156 135
3 155 156 134
3 155 177 156
3 133 154 155
3 154 176 155
3 132 153 154
3 153 175 154
3 174 175 153
3 174 197 175
3 152 173 174
3 151 173 152
3 151 150 173
3 150 172 173
3 128 149 150
3 149 171 150
3 127 148 149
3 126 148 127
3 126 125 148
3 105 104 126
3 82 104 105
3 82 103 104
3 60 81 82
3 73 55 72
3 93 94 73
3 114 115 93
3 135 136 114
3 156 157 135
3 177 178 156
3 155 176 177
3 176 200 177
3 154 175 176
3 175 198 176
3 197 198 175
3 197 219 198
3 174 196 197
3 173 196 174
3 173 195 196
3 172 195 173
3 172 194 195
3 150 171 172
3 171 194 172
3 171 170 194
3 149 148 171
3 148 170 171
3 148 147 170
3 125 147 148
3 125 146 147
3 126 104 125
3 104 103 125
3 103 102 125
3 82 81 103
3 81 80 103
3 60 80 81
3 73 56 55
3 94 74 73
3 93 116 94
3 115 116 93
3 115 138 116
3 114 136 115
3 136 137 115
3 135 157 136
3 157 158 136
3 156 178 157
3 178 179 157
3 177 200 178
3 200 201 178
3 176 199 200
3 198 199 176
3 198 221 199
3 219 220 198
3 197 196 219
3 196 218 219
3 195 217 196
3 194 217 195
3 194 216 217
3 170 193 194
3 147 169 170
3 146 168 147
3 125 124 146
3 102 124 125
3 103 80 102
3 56 40 55
3 73 74 56
3 74 57 56
3 94 95 74
3 116 117 94
3 138 139 116
3 115 137 138
3 137 160 138
3 136 159 137
3 158 159 136
3 158 180 159
3 157 179 158
3 179 180 158
3 179 202 180
3 178 201 179
3 201 202 179
3 201 223 202
3 200 223 201
3 200 222 223
3 199 222 200
3 199 221 222
3 221 243 222
3 198 220 221
3 220 241 221
3 219 240 220
3 218 240 219
3 218 239 240
3 196 217 218
3 217 238 218
3 216 237 217
3 194 193 216
3 193 215 216
3 170 192 193
3 169 192 170
3 169 191 192
3 147 168 169
3 168 191 169
3 40 39 55
3 56 41 40
3 57 41 56
3 57 58 41
3 74 75 57
3 95 75 74
3 95 96 75
3 94 117 95
3 117 118 95
3 116 139 117
3 139 140 117
3 138 161 139
3 160 161 138
3 160 182 161
3 137 159 160
3 159 181 160
3 180 181 159
3 180 203 181
3 202 203 180
3 202 224 203
3 223 224 202
3 223 245 224
3 222 244 223
3 243 244 222
3 243 263 244
3 221 242 243
3 241 242 221
3 241 262 242
3 220 240 241
3 240 261 241
3 239 260 240
3 218 238 239
3 238 258 239
3 217 237 238
3 237 257 238
3 216 236 237
3 215 236 216
3 215 214 236
3 193 214 215
3 193 192 214
3 192 191 214
3 39 54 55
3 57 76 58
3 75 76 57
3 75 97 76
3 96 97 75
3 96 119 97
3 95 118 96
3 118 119 96
3 118 140 119
3 140 118 117
3 139 161 140
3 161 162 140
3 182 183 161
3 160 181 182
3 181 204 182
3 203 204 181
3 203 225 204
3 224 225 203
3 224 245 225
3 245 246 225
3 223 244 245
3 244 264 245
3 263 264 244
3 263 282 264
3 243 262 263
3 262 243 242
3 241 261 262
3 261 280 262
3 240 260 261
3 260 279 261
3 239 259 260
3 258 259 239
3 258 277 259
3 238 257 258
3 257 277 258
3 237 236 257
3 76 59 58
3 97 98 76
3 119 120 97
3 140 141 119
3 162 141 140
3 162 163 141
3 161 183 162
3 183 184 162
3 182 205 183
3 204 205 182
3 204 226 205
3 225 226 204
3 225 247 226
3 246 247 225
3 246 266 247
3 245 266 246
3 245 265 266
3 264 265 245
3 264 283 265
3 282 283 264
3 282 300 283
3 263 281 282
3 262 281 263
3 262 280 281
3 280 298 281
3 261 279 280
3 279 297 280
3 260 278 279
3 259 278 260
3 259 277 278
3 277 296 278
3 76 77 59
3 98 77 76
3 98 99 77
3 97 120 98
3 120 121 98
3 119 141 120
3 141 142 120
3 163 142 141
3 163 164 142
3 162 184 163
3 184 185 163
3 183 206 184
3 205 206 183
3 205 227 206
3 226 227 205
3 226 247 227
3 247 248 227
3 266 267 247
3 265 285 266
3 283 284 265
3 300 301 283
3 282 299 300
3 281 299 282
3 281 298 299
3 298 316 299
3 280 297 298
3 297 314 298
3 279 296 297
3 296 279 278
3 77 78 59
3 99 78 77
3 99 79 78
3 98 121 99
3 121 122 99
3 120 142 121
3 142 143 121
3 164 143 142
3 164 165 143
3 163 185 164
3 185 186 164
3 184 207 185
3 206 207 184
3 206 228 207
3 227 228 206
3 227 248 228
3 248 249 228
3 247 267 248
3 267 268 248
3 266 285 267
3 285 286 267
3 265 284 285
3 284 303 285
3 283 302 284
3 301 302 283
3 301 319 302
3 300 318 301
3 299 317 300
3 316 317 299
3 316 331 317
3 298 315 316
3 314 315 298
3 314 328 315
3 297 313 314
3 296 313 297
3 99 100 79
3 122 100 99
3 122 101 100
3 121 144 122
3 143 144 121
3 143 165 144
3 165 166 144
3 164 186 165
3 186 187 165
3 185 208 186
3 207 208 185
3 207 229 208
3 228 229 207
3 228 249 229
3 249 250 229
3 248 268 249
3 268 269 249
3 267 286 268
3 286 287 268
3 285 303 286
3 303 304 286
3 284 302 303
3 302 319 303
3 319 320 303
3 301 318 319
3 318 333 319
3 300 317 318
3 317 332 318
3 331 332 317
3 331 343 332
3 316 330 331
3 315 330 316
3 315 329 330
3 328 329 315
3 328 340 329
3 100 101 79
3 122 123 101
3 144 145 122
3 166 145 144
3 166 167 145
3 165 187 166
3 187 188 166
3 186 209 187
3 208 209 186
3 208 230 209
3 229 230 208
3 229 250 230
3 250 251 230
3 249 269 250
3 269 270 250
3 268 287 269
3 287 288 269
3 286 305 287
3 304 305 286
3 304 322 305
3 303 321 304
3 320 321 303
3 320 335 321
3 319 334 320
3 333 334 319
3 333 345 334
3 318 332 333
3 332 344 333
3 343 344 332
3 331 342 343
3 330 342 331
3 330 341 342
3 329 340 330
3 340 341 330
3 122 145 123
3 166 189 167
3 188 189 166
3 188 212 189
3 187 210 188
3 209 210 187
3 209 231 210
3 230 231 209
3 230 251 231
3 251 252 231
3 250 271 251
3 270 271 250
3 270 289 271
3 269 289 270
3 269 288 289
3 288 307 289
3 287 305 288
3 305 306 288
3 322 323 305
3 304 321 322
3 321 336 322
3 335 336 321
3 320 334 335
3 334 345 335
3 333 344 345
3 189 190 167
3 212 190 189
3 212 213 190
3 188 211 212
3 210 211 188
3 210 232 211
3 231 232 210
3 231 252 232
3 252 253 232
3 251 271 252
3 271 272 252
3 289 290 271
3 307 290 289
3 307 308 290
3 288 306 307
3 306 324 307
3 305 323 306
3 323 324 306
3 323 338 324
3 322 337 323
3 336 337 322
3 211 234 212
3 232 233 211
3 253 233 232
3 253 254 233
3 252 272 253
3 272 273 253
3 271 291 272
3 290 291 271
3 290 308 291
3 308 309 291
3 307 325 308
3 324 325 307
3 324 339 325
3 338 339 324
3 323 337 338
3 211 233 234
3 233 254 234
3 254 255 234
3 253 273 254
3 273 274 254
3 272 291 273
3 291 292 273
3 309 292 291
3 309 310 292
3 308 325 309
3 325 326 309
3 339 326 325
3 254 274 255
3 274 275 255
3 273 292 274
3 292 293 274
3 310 293 292
3 310 311 293
3 309 327 310
3 326 327 309
3 275 256 255
3 274 293 275
3 293 294 275
3 311 312 293
3 310 327 311
3 256 235 255
3 275 276 256
3 294 295 275
3 293 312 294
3 275 295 276
3 7 0 6
3 72 55 54
3 38 54 39
3 39 40 26
3 314 313 328
3 212 234 213
3 234 235 213
3 235 234 255
3 7 1 0
3 294 312 295
