ply
format ascii 1.0
comment PCL generated
element vertex 346
property float x
property float y
property float z
element face 630
property list uchar int vertex_indices
end_header
-0.05864 0.027393 0.18889 
-0.059311 0.024592 0.19008 
-0.05959 0.021753 0.19148 
-0.059665 0.018779 0.19311 
-0.059784 0.015727 0.19467 
-0.058378 0.011534 0.1979 
-0.054676 0.030285 0.18573 
-0.056046 0.027792 0.18729 
-0.055844 0.024616 0.18809 
-0.056053 0.021722 0.18985 
-0.056656 0.018789 0.19171 
-0.057109 0.015176 0.19395 
-0.056652 0.01159 0.19686 
-0.056248 0.0083638 0.19986 
-0.056002 0.0056367 0.20192 
-0.048387 0.032259 0.18187 
-0.049683 0.03025 0.18312 
-0.051416 0.027702 0.1845 
-0.052162 0.024574 0.18638 
-0.052228 0.021735 0.18865 
-0.052838 0.018825 0.19045 
-0.053333 0.015281 0.19255 
-0.053609 0.011573 0.19574 
-0.053769 0.0074416 0.19948 
-0.054486 0.0038884 0.20185 
-0.054444 0.00080557 0.20414 
-0.054492 -0.00184 0.20587 
-0.044939 0.034738 0.17968 
-0.045485 0.032612 0.1809 
-0.046105 0.030376 0.18235 
-0.047077 0.027998 0.18392 
-0.048445 0.024743 0.18648 
-0.04887 0.02169 0.18871 
-0.049324 0.018699 0.19049 
-0.049942 0.015407 0.19236 
-0.050597 0.011394 0.19566 
-0.050847 0.0064567 0.19905 
-0.051415 0.0019906 0.19981 
-0.052138 -0.00094524 0.20286 
-0.052027 -0.0036307 0.20582 
-0.052136 -0.0058155 0.20946 
-0.052707 -0.0071909 0.21303 
-0.042017 0.037805 0.17839 
-0.04255 0.035699 0.17946 
-0.042659 0.033273 0.181 
-0.043101 0.031016 0.1827 
-0.04382 0.028483 0.18479 
-0.044895 0.024844 0.18738 
-0.045213 0.021559 0.18932 
-0.045491 0.018676 0.19078 
-0.046461 0.015278 0.19263 
-0.047562 0.011484 0.1952 
-0.04742 0.005597 0.19777 
-0.047222 0.00020489 0.1976 
-0.047074 -0.0035181 0.20058 
-0.048442 -0.0044278 0.20582 
-0.049124 -0.0063846 0.21018 
-0.050539 -0.0080565 0.21397 
-0.051517 -0.0098672 0.21605 
-0.052287 -0.011973 0.21999 
-0.040118 0.039292 0.17805 
-0.039979 0.036483 0.17994 
-0.040151 0.033915 0.1816 
-0.040472 0.031489 0.18341 
-0.040907 0.028496 0.18577 
-0.041777 0.024545 0.18826 
-0.041932 0.02158 0.18984 
-0.042436 0.018863 0.19095 
-0.042822 0.015866 0.19272 
-0.04373 0.011849 0.19479 
-0.043818 0.0045016 0.19613 
-0.041631 -0.0014534 0.19506 
-0.038714 -0.0060073 0.1971 
-0.044566 -0.0059881 0.20592 
-0.045845 -0.0069101 0.21089 
-0.047152 -0.0077228 0.21502 
-0.048471 -0.0094568 0.21773 
-0.050031 -0.011932 0.22142 
-0.049928 -0.014743 0.22405 
-0.048634 -0.017233 0.22507 
-0.037229 0.041972 0.17686 
-0.037443 0.040433 0.17836 
-0.037476 0.037628 0.18011 
-0.037577 0.034462 0.18203 
-0.037698 0.032024 0.18442 
-0.038253 0.028033 0.18714 
-0.038631 0.024337 0.18892 
-0.039054 0.021531 0.19038 
-0.03937 0.018685 0.19156 
-0.039588 0.015515 0.19317 
-0.039906 0.011514 0.19454 
-0.040553 0.0039176 0.19509 
-0.038218 -0.0010355 0.19631 
-0.037066 -0.0048222 0.19976 
-0.041008 -0.0069221 0.20633 
-0.042513 -0.0074324 0.2115 
-0.04413 -0.0084869 0.21593 
-0.045294 -0.0098033 0.2183 
-0.046182 -0.011178 0.22136 
-0.04617 -0.014869 0.22461 
-0.046076 -0.019568 0.22787 
-0.044761 -0.022331 0.22916 
-0.034604 0.042966 0.17684 
-0.03437 0.041592 0.17836 
-0.033886 0.039316 0.18009 
-0.033861 0.036863 0.1818 
-0.034327 0.033043 0.18481 
-0.035021 0.028077 0.18854 
-0.035568 0.024619 0.18982 
-0.036116 0.021462 0.19131 
-0.036485 0.018359 0.19242 
-0.036762 0.015028 0.19421 
-0.037001 0.010705 0.19519 
-0.03751 0.0052611 0.19523 
-0.036087 0.00060453 0.19782 
-0.0358 -0.0024952 0.20156 
-0.038046 -0.0047493 0.20694 
-0.03925 -0.0078552 0.21313 
-0.041005 -0.0090744 0.21722 
-0.041753 -0.010428 0.21888 
-0.042287 -0.012604 0.22226 
-0.042842 -0.016423 0.22417 
-0.042539 -0.020272 0.22642 
-0.04132 -0.022526 0.22838 
-0.031601 0.043338 0.17727 
-0.031271 0.04202 0.17873 
-0.030921 0.039723 0.18075 
-0.030759 0.037403 0.18281 
-0.030833 0.033562 0.18579 
-0.031884 0.028868 0.18924 
-0.03243 0.025487 0.1907 
-0.0331 0.021633 0.19242 
-0.033658 0.018016 0.19349 
-0.033959 0.014582 0.19538 
-0.034449 0.010235 0.19606 
-0.035074 0.0061204 0.1963 
-0.033871 0.0022041 0.19936 
-0.033893 -0.00045287 0.2032 
-0.035511 -0.002833 0.20781 
-0.03674 -0.0062026 0.213 
-0.03814 -0.008184 0.21836 
-0.038896 -0.009887 0.22003 
-0.039159 -0.012499 0.22265 
-0.03949 -0.016367 0.22359 
-0.039237 -0.020057 0.22503 
-0.037653 -0.022459 0.22694 
-0.028615 0.04334 0.17793 
-0.028221 0.04207 0.17925 
-0.028117 0.039773 0.18105 
-0.027748 0.037475 0.18355 
-0.027459 0.033601 0.18643 
-0.028277 0.029943 0.18942 
-0.029263 0.026424 0.1917 
-0.030078 0.022555 0.19326 
-0.030812 0.017917 0.19493 
-0.030955 0.013689 0.19731 
-0.031721 0.010246 0.19748 
-0.032259 0.0077107 0.19772 
-0.031517 0.0046009 0.20102 
-0.031087 0.0019134 0.20477 
-0.032654 -0.0017941 0.20909 
-0.03386 -0.0048322 0.2133 
-0.035462 -0.0071901 0.21995 
-0.035871 -0.0097505 0.22132 
-0.036412 -0.01287 0.22324 
-0.03629 -0.016619 0.22441 
-0.03562 -0.020021 0.2255 
-0.034153 -0.022244 0.22702 
-0.025594 0.04357 0.17854 
-0.025286 0.042426 0.17987 
-0.02486 0.040019 0.18137 
-0.024537 0.037136 0.18368 
-0.024291 0.03416 0.18633 
-0.024915 0.031042 0.18912 
-0.025904 0.027503 0.19242 
-0.027041 0.023064 0.19484 
-0.0275 0.017663 0.19714 
-0.027726 0.013278 0.19931 
-0.027742 0.010808 0.19983 
-0.028931 0.0092614 0.20013 
-0.028723 0.0061063 0.20378 
-0.028719 0.0030263 0.20683 
-0.030072 -0.00081147 0.21186 
-0.030657 -0.003626 0.21721 
-0.031789 -0.0075331 0.22025 
-0.032545 -0.01032 0.22219 
-0.033213 -0.013082 0.22373 
-0.032767 -0.016672 0.22495 
-0.031385 -0.019573 0.22611 
-0.031128 -0.021998 0.22734 
-0.031003 -0.024816 0.23053 
-0.022383 0.044388 0.17916 
-0.02189 0.042873 0.18056 
-0.021727 0.039886 0.18214 
-0.021354 0.036861 0.18377 
-0.021446 0.034331 0.18692 
-0.02188 0.031681 0.18952 
-0.022319 0.02898 0.19233 
-0.023305 0.025187 0.19536 
-0.024215 0.019137 0.19942 
-0.024684 0.01446 0.20181 
-0.0247 0.011696 0.20282 
-0.025364 0.009312 0.20336 
-0.025914 0.0064636 0.20608 
-0.026524 0.0033713 0.20947 
-0.026786 0.00029378 0.21447 
-0.02662 -0.0034547 0.21778 
-0.027382 -0.0075733 0.22059 
-0.028222 -0.010667 0.22215 
-0.028326 -0.013257 0.22386 
-0.027921 -0.016261 0.22616 
-0.027053 -0.018773 0.22669 
-0.027557 -0.02217 0.22771 
-0.027092 -0.0256 0.23154 
-0.018771 0.042593 0.18186 
-0.018642 0.04027 0.18368 
-0.018477 0.03735 0.18495 
-0.018731 0.034528 0.18734 
-0.018973 0.032037 0.18987 
-0.019216 0.029494 0.19222 
-0.019859 0.026167 0.19629 
-0.020576 0.021545 0.19994 
-0.020988 0.016666 0.20306 
-0.021392 0.012726 0.20474 
-0.02188 0.010044 0.20598 
-0.022903 0.0071226 0.20814 
-0.023303 0.0039417 0.21215 
-0.022785 0.00071708 0.21609 
-0.022736 -0.0028292 0.21879 
-0.022987 -0.0067161 0.22164 
-0.02359 -0.0099447 0.22292 
-0.022993 -0.013086 0.22474 
-0.022259 -0.015858 0.22737 
-0.022416 -0.018547 0.22741 
-0.022878 -0.022188 0.22748 
-0.023007 -0.02613 0.23204 
-0.01567 0.040419 0.18487 
-0.015711 0.037736 0.18629 
-0.015873 0.034695 0.18832 
-0.016422 0.031765 0.1906 
-0.016711 0.029309 0.19282 
-0.016787 0.026221 0.19719 
-0.017636 0.022105 0.20088 
-0.017519 0.018459 0.20351 
-0.017768 0.014301 0.20563 
-0.018187 0.011017 0.2084 
-0.01936 0.0078421 0.21086 
-0.019406 0.0047458 0.21419 
-0.018939 0.0014307 0.21728 
-0.018497 -0.0021425 0.22012 
-0.018511 -0.0055065 0.22347 
-0.018984 -0.0089431 0.22471 
-0.018466 -0.012229 0.22587 
-0.018437 -0.015633 0.22707 
-0.01944 -0.019242 0.22804 
-0.019468 -0.02276 0.22939 
-0.019309 -0.02633 0.23362 
-0.013293 0.037521 0.1876 
-0.013511 0.034195 0.18957 
-0.013724 0.031468 0.19152 
-0.013897 0.028917 0.19347 
-0.013626 0.02635 0.19682 
-0.014433 0.022919 0.2012 
-0.01462 0.019217 0.20449 
-0.014362 0.015508 0.20752 
-0.014349 0.012078 0.21002 
-0.01465 0.0086003 0.21256 
-0.014795 0.0056772 0.21529 
-0.014743 0.002167 0.2182 
-0.014582 -0.0014047 0.22159 
-0.014841 -0.0047306 0.22417 
-0.014859 -0.008276 0.2255 
-0.014685 -0.01243 0.22676 
-0.014962 -0.016573 0.22824 
-0.015642 -0.020192 0.2301 
-0.015846 -0.023473 0.23227 
-0.015534 -0.026286 0.23563 
-0.011046 0.034259 0.19011 
-0.010564 0.031601 0.19201 
-0.010557 0.028937 0.19414 
-0.010316 0.026408 0.19727 
-0.011007 0.023563 0.20134 
-0.011511 0.020069 0.20525 
-0.01094 0.016736 0.20801 
-0.010637 0.012803 0.21026 
-0.010342 0.0093173 0.21275 
-0.010477 0.0060693 0.21595 
-0.010745 0.0027777 0.21892 
-0.010765 -0.00091467 0.22231 
-0.011077 -0.0042131 0.22427 
-0.011439 -0.0079598 0.22542 
-0.011219 -0.01214 0.22634 
-0.011299 -0.016439 0.22932 
-0.011424 -0.019994 0.23131 
-0.012049 -0.023795 0.23474 
-0.012662 -0.026063 0.23684 
-0.0071883 0.031543 0.19311 
-0.0069586 0.029162 0.19577 
-0.0070689 0.026413 0.19886 
-0.007625 0.023682 0.20185 
-0.0079291 0.020689 0.20556 
-0.0074788 0.017217 0.20828 
-0.006927 0.013464 0.21033 
-0.0065698 0.0098921 0.21254 
-0.0065808 0.006247 0.21622 
-0.0067972 0.0026846 0.21948 
-0.0069772 -0.00095105 0.22255 
-0.0070744 -0.0043381 0.22375 
-0.0077021 -0.0078366 0.22571 
-0.0077289 -0.012201 0.2265 
-0.0076553 -0.016495 0.23005 
-0.0082335 -0.020093 0.23204 
-0.0089785 -0.023017 0.23431 
-0.0045382 0.031177 0.19486 
-0.0032103 0.029369 0.19751 
-0.003435 0.026488 0.19997 
-0.0040837 0.023815 0.20225 
-0.0040612 0.020798 0.20514 
-0.0040664 0.017302 0.20794 
-0.0033176 0.013551 0.2101 
-0.0029424 0.010227 0.21245 
-0.0028409 0.0066068 0.2157 
-0.0031777 0.0028585 0.21874 
-0.0031056 -0.00084299 0.22201 
-0.0031589 -0.004755 0.22329 
-0.0038469 -0.0084278 0.22573 
-0.0044814 -0.012425 0.22693 
-0.0051897 -0.016079 0.22994 
-0.00018977 0.02876 0.19887 
-0.00018187 0.026465 0.20034 
-0.00057708 0.023847 0.20228 
-0.00071594 0.02081 0.2046 
-0.00046385 0.017114 0.20712 
0.00013481 0.013592 0.20967 
0.00057766 0.010352 0.21202 
0.00080582 0.0067658 0.2145 
0.00013957 0.0030967 0.2173 
0.00054442 -0.00079585 0.22031 
0.00010315 -0.00463 0.22298 
-0.001584 -0.0080014 0.22618 
0.003183 0.026303 0.20077 
0.0034104 0.023545 0.20245 
0.0031181 0.020494 0.20424 
0.0030418 0.017039 0.20676 
0.0038081 0.013286 0.20897 
0.0033632 0.010552 0.21113 
3 9 1 8
3 8 19 9
3 1 7 8
3 9 2 1
3 19 20 9
3 8 18 19
3 7 17 8
3 9 10 2
3 20 10 9
3 20 21 10
3 19 33 20
3 18 32 19
3 8 17 18
3 17 31 18
3 7 6 17
3 10 3 2
3 21 11 10
3 20 34 21
3 33 34 20
3 33 50 34
3 19 32 33
3 32 49 33
3 18 31 32
3 31 47 32
3 17 30 31
3 6 16 17
3 10 11 3
3 11 4 3
3 21 22 11
3 34 22 21
3 34 35 22
3 50 35 34
3 50 51 35
3 33 49 50
3 49 68 50
3 32 48 49
3 47 48 32
3 47 65 48
3 31 30 47
3 30 46 47
3 17 16 30
3 16 29 30
3 11 12 4
3 22 12 11
3 22 23 12
3 35 36 22
3 51 36 35
3 51 52 36
3 50 69 51
3 68 69 50
3 68 89 69
3 49 67 68
3 48 67 49
3 48 66 67
3 65 66 48
3 65 86 66
3 47 64 65
3 46 64 47
3 46 45 64
3 30 29 46
3 29 45 46
3 29 28 45
3 16 15 29
3 12 5 4
3 23 13 12
3 22 36 23
3 36 37 23
3 52 37 36
3 52 53 37
3 51 69 52
3 69 70 52
3 89 90 69
3 68 88 89
3 67 88 68
3 67 87 88
3 66 87 67
3 66 86 87
3 86 108 87
3 65 85 86
3 64 85 65
3 64 84 85
3 45 63 64
3 28 44 45
3 29 15 28
3 15 27 28
3 12 13 5
3 23 14 13
3 37 24 23
3 53 38 37
3 52 70 53
3 70 71 53
3 69 90 70
3 90 91 70
3 89 111 90
3 88 110 89
3 87 109 88
3 108 109 87
3 108 130 109
3 86 85 108
3 85 107 108
3 84 106 85
3 64 63 84
3 63 83 84
3 45 44 63
3 44 62 63
3 28 27 44
3 27 43 44
3 23 24 14
3 24 25 14
3 37 38 24
3 38 25 24
3 38 26 25
3 53 54 38
3 71 54 53
3 71 72 54
3 70 91 71
3 91 92 71
3 90 112 91
3 111 112 90
3 111 133 112
3 89 110 111
3 110 132 111
3 88 109 110
3 109 131 110
3 130 131 109
3 130 152 131
3 108 129 130
3 107 129 108
3 107 128 129
3 85 106 107
3 106 128 107
3 106 127 128
3 84 83 106
3 83 105 106
3 63 62 83
3 62 61 83
3 44 43 62
3 43 61 62
3 43 42 61
3 27 42 43
3 38 39 26
3 71 92 72
3 92 93 72
3 91 113 92
3 112 113 91
3 112 134 113
3 133 134 112
3 133 155 134
3 111 132 133
3 132 154 133
3 110 131 132
3 131 153 132
3 152 153 131
3 152 174 153
3 130 151 152
3 129 151 130
3 129 128 151
3 128 150 151
3 127 149 128
3 106 105 127
3 105 126 127
3 83 82 105
3 61 82 83
3 61 60 82
3 42 60 61
3 93 73 72
3 92 114 93
3 113 114 92
3 113 135 114
3 134 135 113
3 134 156 135
3 155 156 134
3 155 177 156
3 133 154 155
3 154 176 155
3 132 153 154
3 153 175 154
3 174 175 153
3 174 197 175
3 152 173 174
3 151 173 152
3 151 150 173
3 150 172 173
3 128 149 150
3 149 171 150
3 127 148 149
3 126 148 127
3 126 125 148
3 105 104 126
3 82 104 105
3 82 103 104
3 60 81 82
3 73 55 72
3 93 94 73
3 114 115 93
3 135 136 114
3 156 157 135
3 177 178 156
3 155 176 177
3 176 200 177
3 154 175 176
3 175 198 176
3 197 198 175
3 197 219 198
3 174 196 197
3 173 196 174
3 173 195 196
3 172 195 173
3 172 194 195
3 150 171 172
3 171 194 172
3 171 170 194
3 149 148 171
3 148 170 171
3 148 147 170
3 125 147 148
3 125 146 147
3 126 104 125
3 104 103 125
3 103 102 125
3 82 81 103
3 81 80 103
3 60 80 81
3 73 56 55
3 94 74 73
3 93 116 94
3 115 116 93
3 115 138 116
3 114 136 115
3 136 137 115
3 135 157 136
3 157 158 136
3 156 178 157
3 178 179 157
3 177 200 178
3 200 201 178
3 176 199 200
3 198 199 176
3 198 221 199
3 219 220 198
3 197 196 219
3 196 218 219
3 195 217 196
3 194 217 195
3 194 216 217
3 170 193 194
3 147 169 170
3 146 168 147
3 125 124 146
3 102 124 125
3 103 80 102
3 56 40 55
3 73 74 56
3 74 57 56
3 94 95 74
3 116 117 94
3 138 139 116
3 115 137 138
3 137 160 138
3 136 159 137
3 158 159 136
3 158 180 159
3 157 179 158
3 179 180 158
3 179 202 180
3 178 201 179
3 201 202 179
3 201 223 202
3 200 223 201
3 200 222 223
3 199 222 200
3 199 221 222
3 221 243 222
3 198 220 221
3 220 241 221
3 219 240 220
3 218 240 219
3 218 239 240
3 196 217 218
3 217 238 218
3 216 237 217
3 194 193 216
3 193 215 216
3 170 192 193
3 169 192 170
3 169 191 192
3 147 168 169
3 168 191 169
3 40 39 55
3 56 41 40
3 57 41 56
3 57 58 41
3 74 75 57
3 95 75 74
3 95 96 75
3 94 117 95
3 117 118 95
3 116 139 117
3 139 140 117
3 138 161 139
3 160 161 138
3 160 182 161
3 137 159 160
3 159 181 160
3 180 181 159
3 180 203 181
3 202 203 180
3 202 224 203
3 223 224 202
3 223 245 224
3 222 244 223
3 243 244 222
3 243 263 244
3 221 242 243
3 241 242 221
3 241 262 242
3 220 240 241
3 240 261 241
3 239 260 240
3 218 238 239
3 238 258 239
3 217 237 238
3 237 257 238
3 216 236 237
3 215 236 216
3 215 214 236
3 193 214 215
3 193 192 214
3 192 191 214
3 39 54 55
3 57 76 58
3 75 76 57
3 75 97 76
3 96 97 75
3 96 119 97
3 95 118 96
3 118 119 96
3 118 140 119
3 140 118 117
3 139 161 140
3 161 162 140
3 182 183 161
3 160 181 182
3 181 204 182
3 203 204 181
3 203 225 204
3 224 225 203
3 224 245 225
3 245 246 225
3 223 244 245
3 244 264 245
3 263 264 244
3 263 282 264
3 243 262 263
3 262 243 242
3 241 261 262
3 261 280 262
3 240 260 261
3 260 279 261
3 239 259 260
3 258 259 239
3 258 277 259
3 238 257 258
3 257 277 258
3 237 236 257
3 76 59 58
3 97 98 76
3 119 120 97
3 140 141 119
3 162 141 140
3 162 163 141
3 161 183 162
3 183 184 162
3 182 205 183
3 204 205 182
3 204 226 205
3 225 226 204
3 225 247 226
3 246 247 225
3 246 266 247
3 245 266 246
3 245 265 266
3 264 265 245
3 264 283 265
3 282 283 264
3 282 300 283
3 263 281 282
3 262 281 263
3 262 280 281
3 280 298 281
3 261 279 280
3 279 297 280
3 260 278 279
3 259 278 260
3 259 277 278
3 277 296 278
3 76 77 59
3 98 77 76
3 98 99 77
3 97 120 98
3 120 121 98
3 119 141 120
3 141 142 120
3 163 142 141
3 163 164 142
3 162 184 163
3 184 185 163
3 183 206 184
3 205 206 183
3 205 227 206
3 226 227 205
3 226 247 227
3 247 248 227
3 266 267 247
3 265 285 266
3 283 284 265
3 300 301 283
3 282 299 300
3 281 299 282
3 281 298 299
3 298 316 299
3 280 297 298
3 297 314 298
3 279 296 297
3 296 279 278
3 77 78 59
3 99 78 77
3 99 79 78
3 98 121 99
3 121 122 99
3 120 142 121
3 142 143 121
3 164 143 142
3 164 165 143
3 163 185 164
3 185 186 164
3 184 207 185
3 206 207 184
3 206 228 207
3 227 228 206
3 227 248 228
3 248 249 228
3 247 267 248
3 267 268 248
3 266 285 267
3 285 286 267
3 265 284 285
3 284 303 285
3 283 302 284
3 301 302 283
3 301 319 302
3 300 318 301
3 299 317 300
3 316 317 299
3 316 331 317
3 298 315 316
3 314 315 298
3 314 328 315
3 297 313 314
3 296 313 297
3 99 100 79
3 122 100 99
3 122 101 100
3 121 144 122
3 143 144 121
3 143 165 144
3 165 166 144
3 164 186 165
3 186 187 165
3 185 208 186
3 207 208 185
3 207 229 208
3 228 229 207
3 228 249 229
3 249 250 229
3 248 268 249
3 268 269 249
3 267 286 268
3 286 287 268
3 285 303 286
3 303 304 286
3 284 302 303
3 302 319 303
3 319 320 303
3 301 318 319
3 318 333 319
3 300 317 318
3 317 332 318
3 331 332 317
3 331 343 332
3 316 330 331
3 315 330 316
3 315 329 330
3 328 329 315
3 328 340 329
3 100 101 79
3 122 123 101
3 144 145 122
3 166 145 144
3 166 167 145
3 165 187 166
3 187 188 166
3 186 209 187
3 208 209 186
3 208 230 209
3 229 230 208
3 229 250 230
3 250 251 230
3 249 269 250
3 269 270 250
3 268 287 269
3 287 288 269
3 286 305 287
3 304 305 286
3 304 322 305
3 303 321 304
3 320 321 303
3 320 335 321
3 319 334 320
3 333 334 319
3 333 345 334
3 318 332 333
3 332 344 333
3 343 344 332
3 331 342 343
3 330 342 331
3 330 341 342
3 329 340 330
3 340 341 330
3 122 145 123
3 166 189 167
3 188 189 166
3 188 212 189
3 187 210 188
3 209 210 187
3 209 231 210
3 230 231 209
3 230 251 231
3 251 252 231
3 250 271 251
3 270 271 250
3 270 289 271
3 269 289 270
3 269 288 289
3 288 307 289
3 287 305 288
3 305 306 288
3 322 323 305
3 304 321 322
3 321 336 322
3 335 336 321
3 320 334 335
3 334 345 335
3 333 344 345
3 189 190 167
3 212 190 189
3 212 213 190
3 188 211 212
3 210 211 188
3 210 232 211
3 231 232 210
3 231 252 232
3 252 253 232
3 251 271 252
3 271 272 252
3 289 290 271
3 307 290 289
3 307 308 290
3 288 306 307
3 306 324 307
3 305 323 306
3 323 324 306
3 323 338 324
3 322 337 323
3 336 337 322
3 211 234 212
3 232 233 211
3 253 233 232
3 253 254 233
3 252 272 253
3 272 273 253
3 271 291 272
3 290 291 271
3 290 308 291
3 308 309 291
3 307 325 308
3 324 325 307
3 324 339 325
3 338 339 324
3 323 337 338
3 211 233 234
3 233 254 234
3 254 255 234
3 253 273 254
3 273 274 254
3 272 291 273
3 291 292 273
3 309 292 291
3 309 310 292
3 308 325 309
3 325 326 309
3 339 326 325
3 254 274 255
3 274 275 255
3 273 292 274
3 292 293 274
3 310 293 292
3 310 311 293
3 309 327 310
3 326 327 309
3 275 256 255
3 274 293 275
3 293 294 275
3 311 312 293
3 310 327 311
3 256 235 255
3 275 276 256
3 294 295 275
3 293 312 294
3 275 295 276
3 7 0 6
3 72 55 54
3 38 54 39
3 39 40 26
3 314 313 328
3 212 234 213
3 234 235 213
3 235 234 255
3 7 1 0
3 294 312 295
