ply
format ascii 1.0
comment PCL generated
element vertex 346
property float x
property float y
property float z
element face 630
property list uchar int vertex_indices
end_header
-0.059313 0.02719 0.19015 
-0.059727 0.024391 0.19119 
-0.059946 0.021685 0.19235 
-0.060099 0.018729 0.19374 
-0.060354 0.016049 0.1945 
-0.058918 0.012771 0.19694 
-0.055828 0.030027 0.18686 
-0.05701 0.027629 0.1885 
-0.056599 0.024541 0.18928 
-0.056614 0.021724 0.19083 
-0.05717 0.018851 0.19237 
-0.057601 0.015655 0.19391 
-0.057224 0.012834 0.196 
-0.056964 0.010002 0.19803 
-0.056865 0.0072858 0.19969 
-0.049003 0.03142 0.18211 
-0.050441 0.029693 0.18358 
-0.052611 0.027546 0.18542 
-0.053046 0.024538 0.18745 
-0.052734 0.021744 0.18961 
-0.053257 0.018899 0.19125 
-0.053585 0.015826 0.19288 
-0.054149 0.012886 0.19502 
-0.054744 0.0091584 0.19733 
-0.055598 0.005442 0.1993 
-0.055535 0.0021174 0.20172 
-0.055586 -0.00063687 0.20382 
-0.0454 0.033688 0.17966 
-0.045966 0.031705 0.18102 
-0.04672 0.029618 0.18267 
-0.047832 0.027543 0.18442 
-0.049183 0.024667 0.18743 
-0.049137 0.021706 0.18976 
-0.049496 0.018742 0.19159 
-0.049907 0.015767 0.19315 
-0.051057 0.012728 0.19481 
-0.052056 0.008325 0.19627 
-0.053067 0.0036898 0.19647 
-0.053577 0.00032487 0.19995 
-0.053149 -0.0024982 0.20353 
-0.053125 -0.0046071 0.20727 
-0.053591 -0.0060522 0.21098 
-0.042416 0.036774 0.17826 
-0.043006 0.034641 0.17938 
-0.043161 0.032406 0.18103 
-0.043617 0.030278 0.18296 
-0.044337 0.027901 0.18523 
-0.04524 0.024483 0.18828 
-0.045455 0.021478 0.1905 
-0.045652 0.018655 0.19197 
-0.046337 0.015416 0.19348 
-0.047868 0.012647 0.1945 
-0.048782 0.0077313 0.19414 
-0.049105 0.0025039 0.19287 
-0.048792 -0.0019951 0.19661 
-0.049531 -0.0031816 0.20352 
-0.050114 -0.0051119 0.20796 
-0.051424 -0.0069208 0.21186 
-0.052403 -0.0090008 0.21466 
-0.053322 -0.011104 0.21848 
-0.040483 0.038472 0.17787 
-0.040419 0.035562 0.17973 
-0.040658 0.033101 0.18154 
-0.041018 0.030856 0.18358 
-0.041437 0.027986 0.18625 
-0.042155 0.024097 0.18916 
-0.04231 0.021344 0.19092 
-0.042876 0.018803 0.19213 
-0.043073 0.015975 0.19337 
-0.043969 0.012456 0.19443 
-0.04502 0.0066105 0.19223 
-0.042696 0.00040114 0.19154 
-0.040122 -0.0044965 0.19433 
-0.045742 -0.0045498 0.20369 
-0.046939 -0.0055598 0.20872 
-0.048052 -0.0066366 0.21283 
-0.049419 -0.0086319 0.21632 
-0.051251 -0.011144 0.21999 
-0.05108 -0.013811 0.2224 
-0.049732 -0.016268 0.2224 
-0.037724 0.04145 0.1767 
-0.037831 0.039794 0.17806 
-0.03781 0.036837 0.17974 
-0.038183 0.033732 0.18196 
-0.038307 0.031478 0.18461 
-0.038774 0.027441 0.18776 
-0.039102 0.023886 0.18985 
-0.039562 0.021256 0.19147 
-0.040062 0.018712 0.19278 
-0.040378 0.015824 0.19374 
-0.040925 0.012068 0.19428 
-0.041526 0.0056436 0.19222 
-0.039374 0.00050374 0.19375 
-0.038993 -0.0035269 0.19739 
-0.04229 -0.0052757 0.20433 
-0.043732 -0.0057928 0.20946 
-0.045101 -0.0070996 0.21351 
-0.046336 -0.0088238 0.2167 
-0.047211 -0.010405 0.21976 
-0.047194 -0.013934 0.22197 
-0.047549 -0.018011 0.22492 
-0.046474 -0.020647 0.22655 
-0.035157 0.042684 0.17658 
-0.034781 0.04126 0.17804 
-0.034105 0.038936 0.17954 
-0.033989 0.036544 0.18144 
-0.034701 0.032662 0.18502 
-0.03545 0.027444 0.18914 
-0.036095 0.024133 0.1906 
-0.036767 0.021233 0.19236 
-0.037389 0.018571 0.19364 
-0.03775 0.015414 0.19452 
-0.038206 0.011285 0.19481 
-0.038309 0.0066388 0.1933 
-0.037541 0.0018611 0.19586 
-0.037814 -0.0014418 0.19967 
-0.039793 -0.0036676 0.20519 
-0.040528 -0.0059021 0.21122 
-0.042131 -0.0075862 0.21487 
-0.042814 -0.0095511 0.21724 
-0.0433 -0.01213 0.21957 
-0.043935 -0.01563 0.22126 
-0.04407 -0.01915 0.22373 
-0.042964 -0.021215 0.22589 
-0.032135 0.043147 0.17689 
-0.031655 0.041768 0.17835 
-0.031125 0.039402 0.1803 
-0.030879 0.037181 0.18241 
-0.03096 0.033367 0.1861 
-0.032184 0.028331 0.18978 
-0.032828 0.024988 0.19118 
-0.033706 0.02145 0.1932 
-0.034826 0.018257 0.1948 
-0.035105 0.014902 0.19569 
-0.035805 0.010729 0.19573 
-0.036099 0.0071311 0.1949 
-0.03542 0.0031275 0.19794 
-0.035678 0.00033692 0.20172 
-0.037357 -0.0020792 0.20622 
-0.038518 -0.0047637 0.21122 
-0.039317 -0.0068634 0.21582 
-0.040158 -0.009343 0.2181 
-0.040205 -0.01241 0.2194 
-0.040674 -0.015876 0.22061 
-0.040761 -0.019316 0.22255 
-0.039394 -0.021501 0.22489 
-0.029104 0.043076 0.17763 
-0.028604 0.041781 0.1789 
-0.028278 0.039487 0.1806 
-0.027834 0.037228 0.18323 
-0.027564 0.033658 0.18688 
-0.028425 0.029721 0.19005 
-0.029521 0.025918 0.19209 
-0.030656 0.022193 0.19385 
-0.032182 0.018111 0.1964 
-0.032493 0.013993 0.19784 
-0.033288 0.01066 0.19746 
-0.033508 0.0084082 0.19693 
-0.032933 0.005535 0.20006 
-0.03245 0.00269 0.20358 
-0.034517 -0.0011587 0.20773 
-0.035972 -0.003927 0.21191 
-0.036544 -0.0067412 0.21713 
-0.037267 -0.0098603 0.21895 
-0.037602 -0.01293 0.22006 
-0.037618 -0.016252 0.2216 
-0.037276 -0.0195 0.22322 
-0.035692 -0.021589 0.22564 
-0.026067 0.043357 0.17822 
-0.025649 0.042198 0.17947 
-0.025045 0.039816 0.18085 
-0.024637 0.037052 0.18359 
-0.024428 0.034349 0.18669 
-0.0251 0.031212 0.18968 
-0.026082 0.027193 0.19282 
-0.027558 0.022604 0.19534 
-0.029051 0.017653 0.19887 
-0.029768 0.013753 0.20033 
-0.029723 0.011803 0.2006 
-0.030663 0.010295 0.20032 
-0.030316 0.007063 0.20366 
-0.030212 0.0036509 0.20627 
-0.032086 -0.00028731 0.2108 
-0.0318 -0.0039804 0.2158 
-0.033124 -0.0078993 0.21892 
-0.034234 -0.010918 0.22019 
-0.034691 -0.013362 0.22114 
-0.034421 -0.016544 0.2226 
-0.032915 -0.019258 0.22488 
-0.031779 -0.021638 0.22679 
-0.030821 -0.02447 0.2304 
-0.022709 0.044452 0.17882 
-0.021973 0.042832 0.18029 
-0.021744 0.03981 0.18191 
-0.021489 0.03685 0.18388 
-0.021627 0.034494 0.18722 
-0.022011 0.031878 0.18992 
-0.022423 0.029042 0.1927 
-0.023311 0.024874 0.19563 
-0.024738 0.018258 0.20056 
-0.026039 0.014435 0.20276 
-0.026618 0.012608 0.2039 
-0.027405 0.01051 0.20415 
-0.027856 0.0072893 0.20639 
-0.028293 0.003796 0.20928 
-0.027818 -2.9361e-05 0.21389 
-0.027343 -0.004046 0.21801 
-0.028655 -0.0082247 0.22058 
-0.029755 -0.011468 0.222 
-0.029808 -0.013944 0.22369 
-0.028887 -0.016669 0.22611 
-0.027051 -0.018982 0.22702 
-0.02731 -0.022122 0.22791 
-0.026461 -0.025349 0.2317 
-0.018677 0.042558 0.18198 
-0.018662 0.040319 0.18381 
-0.018633 0.037452 0.18509 
-0.018961 0.034643 0.1876 
-0.01916 0.032183 0.19023 
-0.01927 0.029665 0.1926 
-0.01966 0.02608 0.19671 
-0.020268 0.021081 0.20052 
-0.020941 0.016265 0.20415 
-0.022287 0.012869 0.20636 
-0.023322 0.010667 0.20757 
-0.024612 0.0076736 0.20952 
-0.024426 0.003891 0.21285 
-0.023285 0.00016083 0.2164 
-0.023435 -0.0033948 0.21929 
-0.023948 -0.0073086 0.2221 
-0.0246 -0.01068 0.22333 
-0.023673 -0.013754 0.22546 
-0.0224 -0.016217 0.22782 
-0.022344 -0.018693 0.22769 
-0.022502 -0.022159 0.22768 
-0.022308 -0.025822 0.23194 
-0.015678 0.040502 0.1852 
-0.015859 0.03784 0.18662 
-0.016088 0.034727 0.18869 
-0.016692 0.031848 0.19126 
-0.016874 0.029398 0.1935 
-0.016662 0.026171 0.19766 
-0.017382 0.021816 0.2014 
-0.017213 0.018371 0.20428 
-0.017566 0.014208 0.2068 
-0.0187 0.011177 0.20952 
-0.020344 0.0078196 0.21167 
-0.019899 0.004375 0.21459 
-0.019379 0.00090984 0.21752 
-0.018998 -0.0024715 0.22076 
-0.018907 -0.0057211 0.22407 
-0.019471 -0.0092809 0.22502 
-0.018884 -0.012464 0.22615 
-0.018658 -0.015802 0.22728 
-0.019409 -0.019299 0.22817 
-0.01909 -0.022628 0.22933 
-0.018623 -0.02605 0.23342 
-0.013453 0.037487 0.18792 
-0.013795 0.034196 0.19012 
-0.014025 0.031564 0.19221 
-0.014093 0.029091 0.19421 
-0.013533 0.026408 0.19738 
-0.014177 0.022836 0.20172 
-0.014367 0.019234 0.20515 
-0.014049 0.015689 0.20848 
-0.014234 0.012104 0.21081 
-0.014822 0.0083072 0.213 
-0.015033 0.0051771 0.21557 
-0.014958 0.0017156 0.21842 
-0.01494 -0.0017364 0.22197 
-0.015257 -0.0050162 0.22437 
-0.015201 -0.0085031 0.22558 
-0.015087 -0.012615 0.22691 
-0.015178 -0.016726 0.22844 
-0.015619 -0.020363 0.23019 
-0.015602 -0.023426 0.23213 
-0.0152 -0.026051 0.23525 
-0.011221 0.03417 0.19045 
-0.010747 0.031538 0.19252 
-0.01072 0.028922 0.19473 
-0.010238 0.026482 0.19784 
-0.010834 0.023637 0.2019 
-0.011376 0.020286 0.20574 
-0.010791 0.017029 0.2087 
-0.010666 0.012851 0.21092 
-0.010377 0.0091261 0.21342 
-0.010574 0.0057444 0.21642 
-0.010849 0.0023717 0.2193 
-0.011028 -0.0012219 0.22256 
-0.011474 -0.0044318 0.22425 
-0.011766 -0.0081837 0.22535 
-0.011693 -0.012315 0.22651 
-0.011553 -0.016488 0.2295 
-0.011549 -0.020084 0.23138 
-0.011989 -0.023838 0.23454 
-0.012476 -0.026061 0.23663 
-0.0073092 0.031336 0.19352 
-0.0070695 0.029057 0.19631 
-0.0070055 0.026438 0.19943 
-0.0076664 0.02377 0.20228 
-0.0081309 0.020945 0.20605 
-0.0076445 0.017401 0.20881 
-0.0070277 0.013547 0.2109 
-0.0065593 0.0098394 0.21322 
-0.0066112 0.0061396 0.21693 
-0.0069655 0.0024758 0.21998 
-0.0071146 -0.0010587 0.22276 
-0.0072033 -0.0044258 0.22384 
-0.0078928 -0.00802 0.22567 
-0.0082144 -0.012449 0.22668 
-0.0079279 -0.016679 0.23017 
-0.0084094 -0.020193 0.23202 
-0.0089914 -0.023161 0.23423 
-0.0046344 0.030876 0.1952 
-0.003187 0.029075 0.19774 
-0.0034355 0.026205 0.20022 
-0.0042708 0.02359 0.20249 
-0.0042774 0.02069 0.20552 
-0.0043591 0.017354 0.20844 
-0.0035099 0.013543 0.21063 
-0.0029731 0.010231 0.21305 
-0.002829 0.0066087 0.21637 
-0.0033396 0.0028907 0.21928 
-0.0032484 -0.00075187 0.22224 
-0.0032134 -0.0046824 0.22338 
-0.0040081 -0.0085321 0.22576 
-0.0048948 -0.012711 0.227 
-0.0055258 -0.016386 0.23002 
-0.00010336 0.028216 0.19887 
-0.00024052 0.026001 0.20034 
-0.00078254 0.023449 0.20237 
-0.0010029 0.020528 0.20488 
-0.00081627 0.016939 0.20764 
-7.6813e-05 0.013448 0.2103 
0.00044837 0.010311 0.21265 
0.00072556 0.0067886 0.21521 
-3.3851e-05 0.0032752 0.21787 
0.00044843 -0.00051554 0.22052 
0.00012333 -0.0044665 0.22308 
-0.0017153 -0.0080636 0.2262 
0.0030723 0.025756 0.20076 
0.003205 0.023071 0.20263 
0.0027675 0.020131 0.20458 
0.0027244 0.016696 0.2073 
0.0036347 0.012845 0.20972 
0.0031287 0.010318 0.21185 
3 9 1 8
3 8 19 9
3 1 7 8
3 9 2 1
3 19 20 9
3 8 18 19
3 7 17 8
3 9 10 2
3 20 10 9
3 20 21 10
3 19 33 20
3 18 32 19
3 8 17 18
3 17 31 18
3 7 6 17
3 10 3 2
3 21 11 10
3 20 34 21
3 33 34 20
3 33 50 34
3 19 32 33
3 32 49 33
3 18 31 32
3 31 47 32
3 17 30 31
3 6 16 17
3 10 11 3
3 11 4 3
3 21 22 11
3 34 22 21
3 34 35 22
3 50 35 34
3 50 51 35
3 33 49 50
3 49 68 50
3 32 48 49
3 47 48 32
3 47 65 48
3 31 30 47
3 30 46 47
3 17 16 30
3 16 29 30
3 11 12 4
3 22 12 11
3 22 23 12
3 35 36 22
3 51 36 35
3 51 52 36
3 50 69 51
3 68 69 50
3 68 89 69
3 49 67 68
3 48 67 49
3 48 66 67
3 65 66 48
3 65 86 66
3 47 64 65
3 46 64 47
3 46 45 64
3 30 29 46
3 29 45 46
3 29 28 45
3 16 15 29
3 12 5 4
3 23 13 12
3 22 36 23
3 36 37 23
3 52 37 36
3 52 53 37
3 51 69 52
3 69 70 52
3 89 90 69
3 68 88 89
3 67 88 68
3 67 87 88
3 66 87 67
3 66 86 87
3 86 108 87
3 65 85 86
3 64 85 65
3 64 84 85
3 45 63 64
3 28 44 45
3 29 15 28
3 15 27 28
3 12 13 5
3 23 14 13
3 37 24 23
3 53 38 37
3 52 70 53
3 70 71 53
3 69 90 70
3 90 91 70
3 89 111 90
3 88 110 89
3 87 109 88
3 108 109 87
3 108 130 109
3 86 85 108
3 85 107 108
3 84 106 85
3 64 63 84
3 63 83 84
3 45 44 63
3 44 62 63
3 28 27 44
3 27 43 44
3 23 24 14
3 24 25 14
3 37 38 24
3 38 25 24
3 38 26 25
3 53 54 38
3 71 54 53
3 71 72 54
3 70 91 71
3 91 92 71
3 90 112 91
3 111 112 90
3 111 133 112
3 89 110 111
3 110 132 111
3 88 109 110
3 109 131 110
3 130 131 109
3 130 152 131
3 108 129 130
3 107 129 108
3 107 128 129
3 85 106 107
3 106 128 107
3 106 127 128
3 84 83 106
3 83 105 106
3 63 62 83
3 62 61 83
3 44 43 62
3 43 61 62
3 43 42 61
3 27 42 43
3 38 39 26
3 71 92 72
3 92 93 72
3 91 113 92
3 112 113 91
3 112 134 113
3 133 134 112
3 133 155 134
3 111 132 133
3 132 154 133
3 110 131 132
3 131 153 132
3 152 153 131
3 152 174 153
3 130 151 152
3 129 151 130
3 129 128 151
3 128 150 151
3 127 149 128
3 106 105 127
3 105 126 127
3 83 82 105
3 61 82 83
3 61 60 82
3 42 60 61
3 93 73 72
3 92 114 93
3 113 114 92
3 113 135 114
3 134 135 113
3 134 156 135
3 155 156 134
3 155 177 156
3 133 154 155
3 154 176 155
3 132 153 154
3 153 175 154
3 174 175 153
3 174 197 175
3 152 173 174
3 151 173 152
3 151 150 173
3 150 172 173
3 128 149 150
3 149 171 150
3 127 148 149
3 126 148 127
3 126 125 148
3 105 104 126
3 82 104 105
3 82 103 104
3 60 81 82
3 73 55 72
3 93 94 73
3 114 115 93
3 135 136 114
3 156 157 135
3 177 178 156
3 155 176 177
3 176 200 177
3 154 175 176
3 175 198 176
3 197 198 175
3 197 219 198
3 174 196 197
3 173 196 174
3 173 195 196
3 172 195 173
3 172 194 195
3 150 171 172
3 171 194 172
3 171 170 194
3 149 148 171
3 148 170 171
3 148 147 170
3 125 147 148
3 125 146 147
3 126 104 125
3 104 103 125
3 103 102 125
3 82 81 103
3 81 80 103
3 60 80 81
3 73 56 55
3 94 74 73
3 93 116 94
3 115 116 93
3 115 138 116
3 114 136 115
3 136 137 115
3 135 157 136
3 157 158 136
3 156 178 157
3 178 179 157
3 177 200 178
3 200 201 178
3 176 199 200
3 198 199 176
3 198 221 199
3 219 220 198
3 197 196 219
3 196 218 219
3 195 217 196
3 194 217 195
3 194 216 217
3 170 193 194
3 147 169 170
3 146 168 147
3 125 124 146
3 102 124 125
3 103 80 102
3 56 40 55
3 73 74 56
3 74 57 56
3 94 95 74
3 116 117 94
3 138 139 116
3 115 137 138
3 137 160 138
3 136 159 137
3 158 159 136
3 158 180 159
3 157 179 158
3 179 180 158
3 179 202 180
3 178 201 179
3 201 202 179
3 201 223 202
3 200 223 201
3 200 222 223
3 199 222 200
3 199 221 222
3 221 243 222
3 198 220 221
3 220 241 221
3 219 240 220
3 218 240 219
3 218 239 240
3 196 217 218
3 217 238 218
3 216 237 217
3 194 193 216
3 193 215 216
3 170 192 193
3 169 192 170
3 169 191 192
3 147 168 169
3 168 191 169
3 40 39 55
3 56 41 40
3 57 41 56
3 57 58 41
3 74 75 57
3 95 75 74
3 95 96 75
3 94 117 95
3 117 118 95
3 116 139 117
3 139 140 117
3 138 161 139
3 160 161 138
3 160 182 161
3 137 159 160
3 159 181 160
3 180 181 159
3 180 203 181
3 202 203 180
3 202 224 203
3 223 224 202
3 223 245 224
3 222 244 223
3 243 244 222
3 243 263 244
3 221 242 243
3 241 242 221
3 241 262 242
3 220 240 241
3 240 261 241
3 239 260 240
3 218 238 239
3 238 258 239
3 217 237 238
3 237 257 238
3 216 236 237
3 215 236 216
3 215 214 236
3 193 214 215
3 193 192 214
3 192 191 214
3 39 54 55
3 57 76 58
3 75 76 57
3 75 97 76
3 96 97 75
3 96 119 97
3 95 118 96
3 118 119 96
3 118 140 119
3 140 118 117
3 139 161 140
3 161 162 140
3 182 183 161
3 160 181 182
3 181 204 182
3 203 204 181
3 203 225 204
3 224 225 203
3 224 245 225
3 245 246 225
3 223 244 245
3 244 264 245
3 263 264 244
3 263 282 264
3 243 262 263
3 262 243 242
3 241 261 262
3 261 280 262
3 240 260 261
3 260 279 261
3 239 259 260
3 258 259 239
3 258 277 259
3 238 257 258
3 257 277 258
3 237 236 257
3 76 59 58
3 97 98 76
3 119 120 97
3 140 141 119
3 162 141 140
3 162 163 141
3 161 183 162
3 183 184 162
3 182 205 183
3 204 205 182
3 204 226 205
3 225 226 204
3 225 247 226
3 246 247 225
3 246 266 247
3 245 266 246
3 245 265 266
3 264 265 245
3 264 283 265
3 282 283 264
3 282 300 283
3 263 281 282
3 262 281 263
3 262 280 281
3 280 298 281
3 261 279 280
3 279 297 280
3 260 278 279
3 259 278 260
3 259 277 278
3 277 296 278
3 76 77 59
3 98 77 76
3 98 99 77
3 97 120 98
3 120 121 98
3 119 141 120
3 141 142 120
3 163 142 141
3 163 164 142
3 162 184 163
3 184 185 163
3 183 206 184
3 205 206 183
3 205 227 206
3 226 227 205
3 226 247 227
3 247 248 227
3 266 267 247
3 265 285 266
3 283 284 265
3 300 301 283
3 282 299 300
3 281 299 282
3 281 298 299
3 298 316 299
3 280 297 298
3 297 314 298
3 279 296 297
3 296 279 278
3 77 78 59
3 99 78 77
3 99 79 78
3 98 121 99
3 121 122 99
3 120 142 121
3 142 143 121
3 164 143 142
3 164 165 143
3 163 185 164
3 185 186 164
3 184 207 185
3 206 207 184
3 206 228 207
3 227 228 206
3 227 248 228
3 248 249 228
3 247 267 248
3 267 268 248
3 266 285 267
3 285 286 267
3 265 284 285
3 284 303 285
3 283 302 284
3 301 302 283
3 301 319 302
3 300 318 301
3 299 317 300
3 316 317 299
3 316 331 317
3 298 315 316
3 314 315 298
3 314 328 315
3 297 313 314
3 296 313 297
3 99 100 79
3 122 100 99
3 122 101 100
3 121 144 122
3 143 144 121
3 143 165 144
3 165 166 144
3 164 186 165
3 186 187 165
3 185 208 186
3 207 208 185
3 207 229 208
3 228 229 207
3 228 249 229
3 249 250 229
3 248 268 249
3 268 269 249
3 267 286 268
3 286 287 268
3 285 303 286
3 303 304 286
3 284 302 303
3 302 319 303
3 319 320 303
3 301 318 319
3 318 333 319
3 300 317 318
3 317 332 318
3 331 332 317
3 331 343 332
3 316 330 331
3 315 330 316
3 315 329 330
3 328 329 315
3 328 340 329
3 100 101 79
3 122 123 101
3 144 145 122
3 166 145 144
3 166 167 145
3 165 187 166
3 187 188 166
3 186 209 187
3 208 209 186
3 208 230 209
3 229 230 208
3 229 250 230
3 250 251 230
3 249 269 250
3 269 270 250
3 268 287 269
3 287 288 269
3 286 305 287
3 304 305 286
3 304 322 305
3 303 321 304
3 320 321 303
3 320 335 321
3 319 334 320
3 333 334 319
3 333 345 334
3 318 332 333
3 332 344 333
3 343 344 332
3 331 342 343
3 330 342 331
3 330 341 342
3 329 340 330
3 340 341 330
3 122 145 123
3 166 189 167
3 188 189 166
3 188 212 189
3 187 210 188
3 209 210 187
3 209 231 210
3 230 231 209
3 230 251 231
3 251 252 231
3 250 271 251
3 270 271 250
3 270 289 271
3 269 289 270
3 269 288 289
3 288 307 289
3 287 305 288
3 305 306 288
3 322 323 305
3 304 321 322
3 321 336 322
3 335 336 321
3 320 334 335
3 334 345 335
3 333 344 345
3 189 190 167
3 212 190 189
3 212 213 190
3 188 211 212
3 210 211 188
3 210 232 211
3 231 232 210
3 231 252 232
3 252 253 232
3 251 271 252
3 271 272 252
3 289 290 271
3 307 290 289
3 307 308 290
3 288 306 307
3 306 324 307
3 305 323 306
3 323 324 306
3 323 338 324
3 322 337 323
3 336 337 322
3 211 234 212
3 232 233 211
3 253 233 232
3 253 254 233
3 252 272 253
3 272 273 253
3 271 291 272
3 290 291 271
3 290 308 291
3 308 309 291
3 307 325 308
3 324 325 307
3 324 339 325
3 338 339 324
3 323 337 338
3 211 233 234
3 233 254 234
3 254 255 234
3 253 273 254
3 273 274 254
3 272 291 273
3 291 292 273
3 309 292 291
3 309 310 292
3 308 325 309
3 325 326 309
3 339 326 325
3 254 274 255
3 274 275 255
3 273 292 274
3 292 293 274
3 310 293 292
3 310 311 293
3 309 327 310
3 326 327 309
3 275 256 255
3 274 293 275
3 293 294 275
3 311 312 293
3 310 327 311
3 256 235 255
3 275 276 256
3 294 295 275
3 293 312 294
3 275 295 276
3 7 0 6
3 72 55 54
3 38 54 39
3 39 40 26
3 314 313 328
3 212 234 213
3 234 235 213
3 235 234 255
3 7 1 0
3 294 312 295
