ply
format ascii 1.0
comment Automatically gnerated by model-converter
element vertex 327
property float x
property float y
property float z
element face 0
property list uchar int vertex_indices
end_header
-0.0566891171038 0.030212931335 0.187586933374
-0.057068862021 0.0271565653384 0.188523158431
-0.0573847964406 0.0238963570446 0.190162867308
-0.0579580254853 0.020987695083 0.191890478134
-0.0579406954348 0.0177316721529 0.193066611886
-0.0578037574887 0.0145705938339 0.194346383214
-0.0522760748863 0.0326636955142 0.182076886296
-0.0531569607556 0.0299529191107 0.185073763132
-0.053765501827 0.0269961636513 0.185768455267
-0.054182626307 0.0239185970277 0.187550410628
-0.0547046586871 0.0207978766412 0.189567968249
-0.0549153909087 0.0175735913217 0.191177710891
-0.0551004633307 0.0141892246902 0.192982584238
-0.0537910349667 0.00919413566589 0.193563327193
-0.0537255592644 0.00460062129423 0.19369392097
-0.0489446371794 0.035777375102 0.179154723883
-0.048913538456 0.0327731706202 0.180100232363
-0.0494416616857 0.0299501027912 0.182008564472
-0.0502976588905 0.026866864413 0.184335783124
-0.0509333647788 0.0237259343266 0.186934858561
-0.0514264702797 0.0207369234413 0.188413515687
-0.0517219677567 0.0173623133451 0.190387025476
-0.051632411778 0.0134708583355 0.192327082157
-0.0510913468897 0.00764423655346 0.192834436893
-0.0505411885679 0.00347027904354 0.193708360195
-0.0515562556684 0.00184721266851 0.197281852365
-0.0527167022228 -0.000220305621042 0.2014862746
-0.0455532185733 0.0387358181179 0.177697494626
-0.0457977801561 0.0357965789735 0.178266301751
-0.0459299497306 0.0329115539789 0.17966555059
-0.0463382527232 0.0299842599779 0.181807130575
-0.0470678545535 0.0268192142248 0.184486821294
-0.0476386025548 0.0236194953322 0.186913862824
-0.04812348634 0.0203482583165 0.188709914684
-0.0483044423163 0.017177876085 0.190426722169
-0.0478523187339 0.0118326870725 0.191627636552
-0.0472934581339 0.00578783079982 0.191687837243
-0.0472930707037 0.00246232748032 0.193978995085
-0.0482617281377 0.000807520991657 0.19748622179
-0.049857545644 -0.000162810829352 0.20328643918
-0.0511326566339 -0.00275779888034 0.207140088081
-0.0520106144249 -0.00508607877418 0.211299955845
-0.0421402603388 0.0414374880493 0.176967591047
-0.0425796210766 0.0389192737639 0.177905783057
-0.0427928753197 0.036056984216 0.1790125072
-0.0429324395955 0.0330822952092 0.180460929871
-0.0433460734785 0.0301461350173 0.182585909963
-0.0438729561865 0.0268819816411 0.184923648834
-0.0442298352718 0.0233359914273 0.186615988612
-0.044641431421 0.019986698404 0.188257157803
-0.0447551608086 0.016585342586 0.190341889858
-0.043909996748 0.00909162964672 0.190391749144
-0.0436715297401 0.00506266159937 0.191804617643
-0.0437098667026 0.00153062620666 0.194188386202
-0.0443405359983 -0.000655702489894 0.19805380702
-0.0465396828949 -0.000426747748861 0.204536035657
-0.0480418689549 -0.00270956591703 0.208811655641
-0.0488488674164 -0.00544087495655 0.21167062223
-0.0496557578444 -0.00833133421838 0.214605808258
-0.0502603389323 -0.0107885310426 0.218937844038
-0.0392052978277 0.0418645404279 0.177099481225
-0.0399383530021 0.0388164110482 0.178627192974
-0.0398797504604 0.036199759692 0.179772645235
-0.0401001684368 0.033257368952 0.181378170848
-0.040386531502 0.0302439779043 0.18341204524
-0.0405865162611 0.0267791058868 0.18517588079
-0.0407161079347 0.0231610033661 0.186715200543
-0.0407142788172 0.0194728691131 0.188496768475
-0.0403776802123 0.0108459414914 0.189586028457
-0.0397622771561 0.00737798633054 0.190607428551
-0.0393346808851 0.00394056364894 0.191861540079
-0.0386606939137 0.000406653911341 0.193533495069
-0.0382890217006 -0.00339171639644 0.19679261744
-0.0434348732233 -0.000725607154891 0.205607026815
-0.0446725152433 -0.00278751854785 0.209791302681
-0.0456003621221 -0.00538860680535 0.212977528572
-0.0462806820869 -0.00840210542083 0.21554467082
-0.0473308004439 -0.0110856555402 0.220197498798
-0.0479183420539 -0.0143235018477 0.223651245236
-0.0476245172322 -0.0173224937171 0.225526258349
-0.0361494757235 0.0419647432864 0.17761978507
-0.0360123291612 0.0390078723431 0.178936108947
-0.0367892012 0.0363378375769 0.180020317435
-0.0371550247073 0.0333890244365 0.182047054172
-0.0373975299299 0.0302693080157 0.184228852391
-0.037452314049 0.0267114788294 0.185862287879
-0.0373997315764 0.0230881683528 0.187716543674
-0.0377278923988 0.0173252597451 0.189501821995
-0.0372701622546 0.0111095728353 0.191044032574
-0.0366908088326 0.00735986186191 0.192653656006
-0.0354056470096 0.00370359607041 0.193311929703
-0.034577652812 0.000366438966012 0.195263549685
-0.0363436602056 -0.00203163642436 0.199263721704
-0.0393770560622 -0.00255584344268 0.204528599977
-0.0408927537501 -0.00315012200736 0.209809049964
-0.0418470352888 -0.00572378002107 0.213250637054
-0.0425270050764 -0.00862438604236 0.215374916792
-0.0433295816183 -0.011554364115 0.218687459826
-0.0441544167697 -0.0150345200673 0.221821025014
-0.0444791950285 -0.0183032639325 0.225236803293
-0.033084616065 0.0420526377857 0.177999675274
-0.033312112093 0.0391284562647 0.179299235344
-0.0335668623447 0.0363182537258 0.180223271251
-0.0339067317545 0.0335316956043 0.18227468431
-0.0344778709114 0.0303021278232 0.185502871871
-0.0344223380089 0.0266036093235 0.187205284834
-0.0341941937804 0.0228083729744 0.189295575023
-0.0336930789053 0.0175974592566 0.190798938274
-0.0342130213976 0.0120742022991 0.192380160093
-0.0338019728661 0.00841800682247 0.194031283259
-0.0329688675702 0.00503665301949 0.195714235306
-0.0325046256185 0.00201763049699 0.197401255369
-0.0342850983143 -0.000498387089465 0.201362773776
-0.0361538976431 -0.00216475198977 0.205704972148
-0.0370109155774 -0.0041048983112 0.209229752421
-0.0381297282875 -0.00587935931981 0.213371396065
-0.0390016958117 -0.008808308281 0.215855076909
-0.0396206155419 -0.0118661615998 0.218327865005
-0.0403118431568 -0.0153784323484 0.220946937799
-0.0407696589828 -0.0189938917756 0.224122434855
-0.0412463508546 -0.0222697425634 0.227102532983
-0.0299110002816 0.0421601757407 0.178071305156
-0.0302433818579 0.0392361693084 0.179696083069
-0.0305563118309 0.0362734161317 0.181449979544
-0.0307245068252 0.0333852730691 0.18296007812
-0.031357191503 0.0305660683662 0.186168164015
-0.0312139745802 0.0266866628081 0.188607484102
-0.0309540946037 0.022914102301 0.190226942301
-0.0308097600937 0.0185566227883 0.19236946106
-0.0305288732052 0.0136980861425 0.193528801203
-0.0304972566664 0.00932120438665 0.195600822568
-0.0301652178168 0.0063158320263 0.197695627809
-0.0306086074561 0.00345903937705 0.200129687786
-0.031448032707 0.000848532596137 0.202963918447
-0.0327090285718 -0.00135459448211 0.206808969378
-0.0339540764689 -0.00361520657316 0.210036113858
-0.0349906645715 -0.00593884615228 0.213891491294
-0.0355387851596 -0.00907048210502 0.216369509697
-0.0361913666129 -0.0121600721031 0.219030350447
-0.0367760397494 -0.0157141070813 0.222234249115
-0.0377645306289 -0.0226659644395 0.227182596922
-0.0267618801445 0.0423554629087 0.178637444973
-0.0270938314497 0.0394059047103 0.179823130369
-0.0275012627244 0.0363320037723 0.182127773762
-0.027652701363 0.0331915877759 0.183247715235
-0.0281809046865 0.0306466519833 0.187103837729
-0.0281844735146 0.0269914716482 0.18972659111
-0.0281562488526 0.0234634783119 0.191365987062
-0.028126668185 0.0194030851126 0.194015815854
-0.0279580056667 0.0156664215028 0.19597196579
-0.0274819415063 0.0116475978866 0.19743411243
-0.0276205781847 0.00825901702046 0.19923812151
-0.0276292860508 0.00476327864453 0.201522529125
-0.0299847330898 -0.000811622943729 0.207955077291
-0.0306706503034 -0.00340955727734 0.210972160101
-0.0316088274121 -0.00618760567158 0.214595258236
-0.0321351289749 -0.00935409311205 0.217198237777
-0.032673317939 -0.0125351790339 0.220001980662
-0.0332689918578 -0.0158191993833 0.224129036069
-0.0335691049695 -0.0194237586111 0.225326538086
-0.034152854234 -0.0229314044118 0.228733092546
-0.0240097958595 0.042349755764 0.179516762495
-0.0239580441266 0.0396829433739 0.180090472102
-0.0242081396282 0.0365353226662 0.181911468506
-0.0244409237057 0.0336149707437 0.184425234795
-0.0249917730689 0.0304569397122 0.188048273325
-0.0255725979805 0.0273702796549 0.191563144326
-0.0253804810345 0.023886654526 0.193651720881
-0.0253392234445 0.0203554593027 0.195959612727
-0.0253883283585 0.0167269743979 0.198029965162
-0.0249609649181 0.0131661230698 0.198941394687
-0.0247738845646 0.00975887384266 0.200876325369
-0.0249724332243 0.00586225837469 0.203453630209
-0.0258477944881 0.00278274342418 0.206327259541
-0.0267094280571 -4.42708515038e-05 0.20931212604
-0.0277516376227 -0.00310574122705 0.212503135204
-0.0284729097039 -0.00611109798774 0.215596586466
-0.0291502010077 -0.00936447642744 0.218267530203
-0.0296241957694 -0.012709999457 0.221256867051
-0.0297146290541 -0.0161935612559 0.225092932582
-0.0299106314778 -0.0195871721953 0.227119967341
-0.0301620643586 -0.0231303181499 0.23001614213
-0.0304568875581 -0.0265205316246 0.233902513981
-0.0209138151258 0.0425225235522 0.180663153529
-0.0210168045014 0.0397311672568 0.181831970811
-0.02120061405 0.0370749942958 0.183098688722
-0.0215314831585 0.0341742821038 0.186185896397
-0.0219428669661 0.0311158690602 0.188882172108
-0.0223328508437 0.0275475215167 0.193493500352
-0.0222738031298 0.0242944713682 0.195823743939
-0.0223510339856 0.020872073248 0.198300436139
-0.0224637631327 0.0175967030227 0.200435042381
-0.0222848560661 0.0138710131869 0.201949730515
-0.0221593230963 0.0104717351496 0.203368276358
-0.0223012566566 0.00676056277007 0.205673247576
-0.0232300907373 0.00358791206963 0.208752557635
-0.0239611715078 0.000491447397508 0.211464211345
-0.0245087202638 -0.00271641742438 0.213935479522
-0.0253726579249 -0.00564678618684 0.217270255089
-0.0261719096452 -0.00886232312769 0.220618262887
-0.0260252077132 -0.0126565592363 0.22236135602
-0.0258374717087 -0.0163672734052 0.226120308042
-0.0260595530272 -0.0199271012098 0.228319764137
-0.0260857716203 -0.0238060820848 0.22982648015
-0.0261850766838 -0.0273138768971 0.233850285411
-0.018089003861 0.0426976568997 0.181773617864
-0.0183362327516 0.0402427688241 0.183767095208
-0.018410179764 0.0376109704375 0.184844776988
-0.0185438543558 0.0347830280662 0.187020793557
-0.0186855755746 0.031954690814 0.19012029469
-0.0186628252268 0.0284649431705 0.194065794349
-0.0190888009965 0.0246052220464 0.197342246771
-0.0191134605557 0.0214746594429 0.199647247791
-0.0190161075443 0.0180652048439 0.201650068164
-0.0191020555794 0.0147491497919 0.203564226627
-0.0192770548165 0.0112972063944 0.205153658986
-0.0197191722691 0.0075395735912 0.207972154021
-0.0203219372779 0.00419256137684 0.210613369942
-0.0210301838815 0.00101083598565 0.213624954224
-0.0215992648154 -0.00221551442519 0.2162514925
-0.022582931444 -0.00513603258878 0.220071330667
-0.0230382252485 -0.00833374168724 0.223038420081
-0.0223532114178 -0.0129599524662 0.22408528626
-0.022029530257 -0.0164685882628 0.227458506823
-0.0222583655268 -0.0203978773206 0.227948635817
-0.0224601197988 -0.024073721841 0.228848844767
-0.0223778113723 -0.0280951652676 0.234902411699
-0.015400942415 0.0405309982598 0.1849398911
-0.0154912071303 0.0379234738648 0.186629325151
-0.0154964141548 0.035172060132 0.188596233726
-0.01551258564 0.0322467721999 0.190861910582
-0.0154233714566 0.029167579487 0.193808153272
-0.0157010871917 0.0253514386714 0.197989702225
-0.0160311944783 0.0218627881259 0.201067626476
-0.0156570151448 0.0185087919235 0.202990368009
-0.015701411292 0.0152426762506 0.204519659281
-0.0161599311978 0.0122834416106 0.206592351198
-0.0164895989001 0.00846117176116 0.209556356072
-0.0168054271489 0.00489559117705 0.212283611298
-0.0175709910691 0.00172032578848 0.215409770608
-0.0184357520193 -0.0015595369041 0.219043508172
-0.0192783791572 -0.00466493191198 0.222392916679
-0.0193715710193 -0.00838754978031 0.224592104554
-0.0184427965432 -0.0130990436301 0.225552707911
-0.0184934958816 -0.0167232323438 0.227612257004
-0.0186757817864 -0.0205517113209 0.228576466441
-0.0188058540225 -0.0245461091399 0.230639800429
-0.0184178203344 -0.028280403465 0.236488878727
-0.0124264517799 0.0381159558892 0.188190683722
-0.0121556548402 0.0353330783546 0.189976915717
-0.0121467625722 0.0324379950762 0.19190980494
-0.0121335042641 0.0292277373374 0.1937571913
-0.0122532099485 0.0258625634015 0.197232216597
-0.0124144330621 0.0226984284818 0.201087847352
-0.0126093225554 0.0190449804068 0.20435090363
-0.012620084919 0.0157827157527 0.206270068884
-0.0130014503375 0.0125869093463 0.208828508854
-0.0132568227127 0.00890383776277 0.211198717356
-0.013540610671 0.00547190243378 0.21408829093
-0.0140977399424 0.00212516612373 0.217078208923
-0.0147743187845 -0.000880413979758 0.220435529947
-0.0153889972717 -0.00450106943026 0.22373983264
-0.015519448556 -0.00818077474833 0.226198449731
-0.0152269313112 -0.012747535482 0.226252138615
-0.0147989550605 -0.0168619696051 0.228254631162
-0.0148677090183 -0.0208003204316 0.229785576463
-0.0147649617866 -0.0247874259949 0.233215838671
-0.0141991861165 -0.0283445231616 0.237886339426
-0.00940241850913 0.0349715426564 0.190543085337
-0.00884714350104 0.0323983468115 0.19254425168
-0.00872885622084 0.0291782673448 0.194560497999
-0.00885602273047 0.0259141791612 0.197491556406
-0.00915532931685 0.0226804595441 0.201154828072
-0.00958846975118 0.019586648792 0.204613134265
-0.0096400687471 0.0162164382637 0.207283824682
-0.00957603566349 0.0127792973071 0.209977388382
-0.00982985086739 0.00929776858538 0.211906284094
-0.0101596629247 0.00595129560679 0.215096011758
-0.0103240795434 0.00238733645529 0.217938959599
-0.0107175223529 -0.00112773978617 0.221080109477
-0.0110138272867 -0.00456427643076 0.223337203264
-0.011222933419 -0.0084344977513 0.225672841072
-0.0117898629978 -0.012426010333 0.226086065173
-0.0110942209139 -0.0167149398476 0.228820323944
-0.0109999449924 -0.020836841315 0.23047952354
-0.0107434829697 -0.0251197498292 0.234784632921
-0.00561413960531 0.0322784595191 0.193670213223
-0.00517841521651 0.0290026329458 0.196127027273
-0.00515971565619 0.025578038767 0.198447987437
-0.00564405787736 0.0198382623494 0.204861283302
-0.0059174192138 0.0165975019336 0.207980766892
-0.0060129603371 0.0131206298247 0.210617154837
-0.00613304460421 0.00970011670142 0.212998911738
-0.006377896294 0.00633394997567 0.215801894665
-0.00651256740093 0.00276727648452 0.218408718705
-0.00694668712094 -0.00125870702323 0.222126945853
-0.00712706148624 -0.00482189562172 0.223112896085
-0.0071613881737 -0.00856969784945 0.225439041853
-0.00782449822873 -0.0127312224358 0.22671200335
-0.00800871662796 -0.0165675729513 0.228827536106
-0.00726656755432 -0.0207163151354 0.230645686388
-0.00189947360195 0.0290131215006 0.197038009763
-0.00179131899495 0.0258238147944 0.198306202888
-0.00180481537245 0.0228103790432 0.200788035989
-0.00194846617524 0.0200404953212 0.203812077641
-0.00217079860158 0.0169034600258 0.206950038671
-0.00225654616952 0.0135395256802 0.210244238377
-0.00258285645396 0.0100210700184 0.213425830007
-0.00275984918699 0.00292022526264 0.218735650182
-0.00328262289986 -0.00117658975068 0.222267836332
-0.00321200629696 -0.00487045710906 0.2231618613
-0.00327841774561 -0.00858388282359 0.224828004837
-0.00371325947344 -0.0123727992177 0.226631313562
0.00150420225691 0.0259321965277 0.198441714048
0.00159690727014 0.0229586493224 0.20053742826
0.00170706852805 0.0201607234776 0.20286655426
0.00151235761587 0.0171846766025 0.206560492516
0.00163341371808 0.0140211675316 0.209835425019
0.00137363094836 0.0103843864053 0.213027849793
0.00102953193709 0.00667311623693 0.215644791722
0.000888816837687 0.003206289839 0.218115612864
0.000538541935384 -0.000635795586277 0.221243530512
0.00480795046315 0.0261644814163 0.198813706636
0.00496772490442 0.0231875255704 0.200285464525
0.00511115044355 0.0200991146266 0.202225804329
0.00502622779459 0.0174500271678 0.205935314298
0.00476107979193 0.0143920164555 0.209579706192
