ply
format ascii 1.0
comment Automatically gnerated by model-converter
element vertex 326
property float x
property float y
property float z
element face 0
property list uchar int vertex_indices
end_header
-0.0570121631026 0.0296038500965 0.18638433516
-0.0573890917003 0.0265642851591 0.187432229519
-0.0576741956174 0.0233311075717 0.189016982913
-0.0582733489573 0.0203917138278 0.190804243088
-0.0581833384931 0.017166249454 0.191996201873
-0.0524516254663 0.0325828939676 0.181683585048
-0.0533923320472 0.0294769573957 0.184186816216
-0.0539466813207 0.0265032909811 0.18484531343
-0.0543625950813 0.0234016366303 0.186596155167
-0.0548797622323 0.0203100834042 0.188553899527
-0.0550794005394 0.0170418471098 0.190187424421
-0.0552450791001 0.0137332445011 0.192111924291
-0.0540514439344 0.00918382313102 0.193483576179
-0.0540819726884 0.004798816517 0.193642690778
-0.0490341708064 0.0358405821025 0.179122462869
-0.0489886291325 0.0327469818294 0.179912731051
-0.0495383925736 0.0297674033791 0.181510701776
-0.0504092536867 0.0265136938542 0.18357989192
-0.051070664078 0.02327654697 0.186051204801
-0.0515643805265 0.0202293992043 0.18748664856
-0.051836643368 0.0168609172106 0.189437717199
-0.0517694689333 0.0130496639758 0.191563040018
-0.0514017790556 0.00768170552328 0.192789301276
-0.0509331189096 0.00349174602889 0.193515196443
-0.0519164614379 0.00194750644732 0.197112426162
-0.0530597195029 -0.000269843585556 0.201196074486
-0.045644890517 0.0386478155851 0.177544757724
-0.0458832457662 0.0358002744615 0.178251758218
-0.0460021048784 0.0328938551247 0.179673194885
-0.0464473478496 0.0299802143127 0.181680008769
-0.0472356490791 0.0266352109611 0.184024199843
-0.0477974489331 0.0232464075089 0.186168730259
-0.0482460409403 0.0199019685388 0.187833368778
-0.0484130494297 0.0167016722262 0.189496040344
-0.0481053441763 0.0115164145827 0.19116820395
-0.0476641878486 0.00557489227504 0.191385149956
-0.0476026944816 0.00231556850486 0.193495377898
-0.0486356280744 0.000789291982073 0.197214797139
-0.0501955933869 -0.000313176424243 0.202975004911
-0.0514650754631 -0.00307357334532 0.206611067057
-0.0523602515459 -0.00549601810053 0.21068008244
-0.0422096326947 0.0412481240928 0.17663808167
-0.0426611527801 0.0388304255903 0.177769884467
-0.0429147221148 0.036100346595 0.179072424769
-0.0430717989802 0.0332066304982 0.180667296052
-0.0435892492533 0.0303211547434 0.18283572793
-0.0441466607153 0.0269109085202 0.184889987111
-0.044412266463 0.0231413785368 0.186136171222
-0.044738676399 0.0196107365191 0.187421768904
-0.0448320582509 0.0160994883627 0.189304530621
-0.0443235710263 0.00871742609888 0.190050527453
-0.0440401360393 0.00473598344252 0.191340520978
-0.0440675988793 0.00122163444757 0.193748891354
-0.0447151996195 -0.000854976766277 0.197664856911
-0.046880941838 -0.000637134595308 0.2041798383
-0.048408716917 -0.00299440906383 0.208301946521
-0.0492008067667 -0.00579515844584 0.211077466607
-0.0499908514321 -0.00876450631768 0.213925987482
-0.050638820976 -0.0114180054516 0.218138605356
-0.0393023230135 0.0416968651116 0.176856651902
-0.0400746576488 0.0387931838632 0.178616017103
-0.0400715842843 0.0363523289561 0.180078953505
-0.0403545089066 0.0334991812706 0.181786224246
-0.0407903119922 0.0305870175362 0.183999463916
-0.0409808345139 0.027044614777 0.185597166419
-0.0410473495722 0.0232272613794 0.186739310622
-0.0409756712615 0.0193473380059 0.188084021211
-0.0408965758979 0.0104743102565 0.189369931817
-0.0402255095541 0.00701130181551 0.190339311957
-0.0397189818323 0.00357366376556 0.191534861922
-0.0390147380531 6.61810991005e-05 0.193251639605
-0.0387087985873 -0.00363658834249 0.196714237332
-0.0438253693283 -0.000936276104767 0.205109581351
-0.0450705289841 -0.00303139840253 0.20927387476
-0.04599256441 -0.00571517646313 0.212374866009
-0.0466520860791 -0.00878977868706 0.214850321412
-0.0478272810578 -0.0117094544694 0.219383746386
-0.0482351854444 -0.0149972271174 0.22281242907
-0.0477991588414 -0.0179772023112 0.224689766765
-0.0363168641925 0.0419448204339 0.177672356367
-0.0362395718694 0.039199821651 0.179430142045
-0.0370357111096 0.0365946516395 0.180613100529
-0.0374843217432 0.0337281562388 0.182703211904
-0.0378557741642 0.0306670665741 0.184944674373
-0.0379257835448 0.0269760470837 0.186364457011
-0.0378828793764 0.0231876056641 0.187911510468
-0.0382560156286 0.0171416550875 0.189260885119
-0.0378748066723 0.0108035346493 0.190906003118
-0.0372301153839 0.00705756759271 0.192436695099
-0.035875108093 0.0034620903898 0.193195447326
-0.0351137965918 0.000203646166483 0.195280820131
-0.0366903468966 -0.00225090398453 0.199214696884
-0.0396685488522 -0.0028332346119 0.204128533602
-0.0412977486849 -0.00336186191998 0.209247007966
-0.0422513261437 -0.00599762704223 0.21261382103
-0.0429234690964 -0.00891610328108 0.214702025056
-0.0437027961016 -0.0118520045653 0.217941001058
-0.0444361940026 -0.0155000826344 0.221072331071
-0.0446406193078 -0.0188189540058 0.224466711283
-0.0333123505116 0.0421355068684 0.178288921714
-0.033561643213 0.0393753349781 0.179924309254
-0.0338455811143 0.036579284817 0.180920109153
-0.034221354872 0.0338189154863 0.182976543903
-0.0349017418921 0.0305395517498 0.186044812202
-0.0348663255572 0.0266300067306 0.187381222844
-0.0347096659243 0.0227071009576 0.189328044653
-0.0344733037055 0.0174502320588 0.19096583128
-0.0349043086171 0.011857656762 0.192378401756
-0.0344388075173 0.00820653233677 0.193982005119
-0.0335890725255 0.00487493118271 0.195720419288
-0.0331527739763 0.00184359832201 0.19766998291
-0.0346130207181 -0.000660221383441 0.201359137893
-0.0364932715893 -0.00233644922264 0.20541125536
-0.0373934619129 -0.00423010624945 0.208805084229
-0.038558524102 -0.00604916596785 0.21283249557
-0.0394637398422 -0.00890481844544 0.215331524611
-0.0401242040098 -0.0119064310566 0.217857673764
-0.0405837371945 -0.0155929690227 0.220290765166
-0.0408750772476 -0.0193459372967 0.223382517695
-0.0411909595132 -0.0226600337774 0.226300418377
-0.0301290061325 0.0422764979303 0.178437143564
-0.0304593853652 0.0393740981817 0.180099591613
-0.0307821128517 0.0364007167518 0.181878238916
-0.0309928171337 0.0335598774254 0.183501958847
-0.0316952317953 0.0305017996579 0.186376959085
-0.0316793695092 0.0265724435449 0.188705921173
-0.0315908826888 0.0227536167949 0.190264835954
-0.0314917378128 0.0183433573693 0.192325145006
-0.0313816964626 0.0135211599991 0.193763419986
-0.0311926770955 0.00916573032737 0.195670187473
-0.0308368783444 0.00619165645912 0.197778373957
-0.0312159135938 0.00345547473989 0.200194790959
-0.0318529941142 0.000803030503448 0.202872604132
-0.0331302173436 -0.00139633694198 0.206674739718
-0.0344520024955 -0.00365276215598 0.209821298718
-0.0355245992541 -0.00586700439453 0.213635489345
-0.0360618270934 -0.00890327803791 0.216267898679
-0.0367405414581 -0.0118373623118 0.218906641006
-0.0370475724339 -0.0158160608262 0.221617311239
-0.0377241447568 -0.0229212418199 0.226347997785
-0.0269714761525 0.0424579717219 0.178946658969
-0.0272896178067 0.0394759997725 0.180036783218
-0.027659021318 0.03631240502 0.182205021381
-0.0278316289186 0.0331828482449 0.183320313692
-0.0284656081349 0.0304260440171 0.187105804682
-0.028795318678 0.0268498510122 0.189842447639
-0.0287919621915 0.0232682786882 0.191244736314
-0.0285883489996 0.0190533846617 0.193629622459
-0.0284490771592 0.0153178377077 0.195751100779
-0.0279970001429 0.011321012862 0.19726985693
-0.0281144939363 0.00806194636971 0.19919770956
-0.0282770935446 0.00477364333346 0.201654851437
-0.0304872747511 -0.000718124851119 0.20793902874
-0.0312178321183 -0.00323112751357 0.211010619998
-0.0322534516454 -0.00574881210923 0.214597791433
-0.0328403674066 -0.00878975167871 0.217361047864
-0.0334490612149 -0.0118785612285 0.2203297019
-0.0335139147937 -0.0158022195101 0.223504707217
-0.0336601063609 -0.0194097142667 0.224513888359
-0.0340165868402 -0.0230982750654 0.227842405438
-0.0242035891861 0.0424207933247 0.179757103324
-0.0241464935243 0.0397300980985 0.180208399892
-0.0243771262467 0.0365180149674 0.181897267699
-0.0245984271169 0.0335606746376 0.18424731493
-0.0252448134124 0.0304620750248 0.188055858016
-0.026249140501 0.0272366721183 0.191604778171
-0.0258494243026 0.0235915798694 0.193298846483
-0.0255454815924 0.0198446307331 0.195231825113
-0.0255286060274 0.0162197388709 0.197376459837
-0.025249119848 0.0127163734287 0.198488339782
-0.0250665936619 0.00940558779985 0.200485020876
-0.0253414455801 0.00578405335546 0.203385561705
-0.0262850578874 0.00287100719288 0.206398203969
-0.0273349937052 0.000273331039352 0.209514975548
-0.0284643657506 -0.00268718926236 0.212782710791
-0.029217267409 -0.00555954920128 0.215800613165
-0.0299102924764 -0.00873097963631 0.218469411135
-0.0302783809602 -0.0121488440782 0.221287593246
-0.0299012605101 -0.0161048285663 0.22430343926
-0.0299249775708 -0.0195971541107 0.226177319884
-0.0299769062549 -0.0231987126172 0.228979125619
-0.0300408266485 -0.0267192367464 0.232785537839
-0.0211434215307 0.0425898432732 0.180868297815
-0.0212068911642 0.0397134199739 0.18179820478
-0.0213097929955 0.0370091386139 0.182846918702
-0.0215208716691 0.0339876636863 0.185814991593
-0.021907068789 0.0309341717511 0.188598781824
-0.0226398147643 0.0271172430366 0.192802250385
-0.0223044697195 0.0236128717661 0.194679811597
-0.0221115294844 0.0199396330863 0.196727961302
-0.0222317352891 0.0167989507318 0.199145302176
-0.0222192145884 0.0132766822353 0.200988143682
-0.0222612656653 0.0100959185511 0.202807128429
-0.0225877165794 0.00669339671731 0.205431818962
-0.023685162887 0.00371084129438 0.208759307861
-0.0246152784675 0.000878959079273 0.211723953485
-0.0252214595675 -0.00218399963342 0.214307114482
-0.0260467473418 -0.00513484887779 0.217369526625
-0.0267750900239 -0.008296540007 0.220701754093
-0.0265283603221 -0.0122648617253 0.222002536058
-0.0259708873928 -0.016164496541 0.225133478642
-0.0260314419866 -0.0198314134032 0.227216556668
-0.0258514005691 -0.0236854720861 0.22871004045
-0.025746833533 -0.027347760275 0.232578933239
-0.0182745233178 0.0427104122937 0.181909501553
-0.0184126570821 0.0401056036353 0.183643788099
-0.0183955542743 0.0373683311045 0.184401914477
-0.0184248499572 0.0344192236662 0.186375185847
-0.0183209367096 0.031301394105 0.189038574696
-0.0182553455234 0.0275399275124 0.192346006632
-0.0187509208918 0.023643989116 0.195634067059
-0.0187346190214 0.0204103626311 0.1977712363
-0.0186694674194 0.0171236116439 0.199985668063
-0.0188027173281 0.0139484135434 0.202131196856
-0.019263651222 0.0108688939363 0.20435833931
-0.0198575928807 0.00754085555673 0.207659244537
-0.0207216441631 0.00437876954675 0.210587501526
-0.0216258596629 0.00142145727295 0.213827192783
-0.0222549289465 -0.00167674571276 0.216524958611
-0.0232663787901 -0.00462291855365 0.220233052969
-0.023583939299 -0.00789573416114 0.222931459546
-0.0227357391268 -0.0126297753304 0.223232284188
-0.0220998656005 -0.0162909887731 0.226255878806
-0.0222730115056 -0.0201310887933 0.22647844255
-0.0222789477557 -0.0238206274807 0.227628722787
-0.0219638887793 -0.0280612502247 0.233528152108
-0.0153748113662 0.0402279049158 0.184581190348
-0.0153376311064 0.0374557450414 0.185914590955
-0.0152275664732 0.0345390662551 0.187585800886
-0.0149887017906 0.031307272613 0.189358204603
-0.0148920519277 0.0282012429088 0.192121341825
-0.015385678038 0.0244713798165 0.196362018585
-0.0155722582713 0.0208034850657 0.199116095901
-0.0152451014146 0.0175711605698 0.201209440827
-0.0154090626165 0.0144128818065 0.203001126647
-0.0160694438964 0.0119029991329 0.205748185515
-0.0166659150273 0.00851361174136 0.209334045649
-0.0171735342592 0.00522527843714 0.212406650186
-0.0180872865021 0.00209294538945 0.215492010117
-0.0190353710204 -0.00107935070992 0.219220921397
-0.0198649857193 -0.00419693393633 0.222424075007
-0.0198127720505 -0.00809549354017 0.224115610123
-0.0187167227268 -0.0127200502902 0.224406406283
-0.0185925774276 -0.016388297081 0.226373627782
-0.018646735698 -0.0202149134129 0.227392420173
-0.0186337865889 -0.0242642853409 0.229467719793
-0.0180448610336 -0.0281911753118 0.235084250569
-0.0121888518333 0.0374622046947 0.187178850174
-0.0117461420596 0.0344727300107 0.188675060868
-0.0115829920396 0.0314516983926 0.190406411886
-0.0116022452712 0.0283052828163 0.192314058542
-0.011942175217 0.0251026879996 0.195878654718
-0.012083472684 0.0218184031546 0.199496030807
-0.0122311832383 0.0181446243078 0.202591016889
-0.012383130379 0.0152131579816 0.205011129379
-0.0131404548883 0.0124906059355 0.208310812712
-0.0134943602607 0.00909915100783 0.211129799485
-0.0139030618593 0.00586184160784 0.214227572083
-0.0144829936326 0.00256612431258 0.217286393046
-0.0151553926989 -0.000542593304999 0.220243752003
-0.0157857984304 -0.00425156857818 0.223440513015
-0.0158967096359 -0.00808744411916 0.22553999722
-0.0155679481104 -0.0123110925779 0.225259006023
-0.0149068655446 -0.0164220836014 0.227151155472
-0.01484147273 -0.0203639883548 0.228676691651
-0.0145916100591 -0.0244667828083 0.232017964125
-0.0138559006155 -0.0281675457954 0.236483573914
-0.00891292653978 0.0340985842049 0.189255788922
-0.00833314005286 0.031510360539 0.191323339939
-0.00827668514103 0.0283471010625 0.193462193012
-0.00857749395072 0.0252084005624 0.196430340409
-0.00905863568187 0.0221082735807 0.200136825442
-0.00959801487625 0.01892939955 0.203622177243
-0.00977763626724 0.0156277045608 0.206435441971
-0.00975703634322 0.012633940205 0.209545075893
-0.0100540583953 0.00938136037439 0.21170155704
-0.0104130068794 0.00615904992446 0.215033873916
-0.0105561343953 0.00263518863358 0.21787776053
-0.0109686488286 -0.00103409122676 0.220632389188
-0.0113524477929 -0.00449245609343 0.222826942801
-0.011589887552 -0.00840283278376 0.225024282932
-0.012227313593 -0.0122480196878 0.225265517831
-0.0112623935565 -0.0161677710712 0.22782458365
-0.010979866609 -0.0202839691192 0.229423522949
-0.010569004342 -0.0247136484832 0.233592092991
-0.00522708520293 0.0315350629389 0.192859873176
-0.00495626032352 0.0283613204956 0.195636898279
-0.00512598734349 0.0249918345362 0.19820484519
-0.00578378746286 0.0191978085786 0.204234957695
-0.00613349163905 0.0158683098853 0.207205489278
-0.0061535933055 0.0127304354683 0.20992051065
-0.00630123633891 0.00954133179039 0.212559506297
-0.00653990916908 0.00625833077356 0.215383708477
-0.00667344173416 0.00269055506214 0.217957779765
-0.00713813630864 -0.00133795733564 0.221510842443
-0.0074118101038 -0.00486492179334 0.222432643175
-0.00753582268953 -0.00866853073239 0.224718406796
-0.00828162394464 -0.0126895355061 0.225927278399
-0.008380362764 -0.0161849297583 0.227917149663
-0.00729060405865 -0.020060768351 0.229660630226
-0.00190970476251 0.0286156367511 0.19732183218
-0.00182190630585 0.0254431534559 0.198654174805
-0.00188501656521 0.022330082953 0.200828656554
-0.00212798407301 0.0193884149194 0.203439131379
-0.00236858730204 0.016139773652 0.206227496266
-0.00239506573416 0.0128220850602 0.209344878793
-0.00265032309107 0.00934554822743 0.21250218153
-0.00286590447649 0.00249395193532 0.217869326472
-0.00342189939693 -0.00145906512626 0.221446797252
-0.00349473394454 -0.00514697562903 0.222357332706
-0.00368051580153 -0.00884102471173 0.223999604583
-0.00419879239053 -0.0126196462661 0.225802630186
0.00145108927973 0.0256817378104 0.199138253927
0.00147888727952 0.022555347532 0.200847625732
0.00155469134916 0.0195591878146 0.202798873186
0.00137303455267 0.0163635313511 0.205840155482
0.00152659090236 0.0130812069401 0.208690419793
0.00128118437715 0.00942737609148 0.211712539196
0.000896858226042 0.00584638211876 0.214329719543
0.00073582137702 0.00248853792436 0.216930538416
0.000367117492715 -0.00120933330618 0.220155626535
0.00472039077431 0.0259217731655 0.199655309319
0.00489898631349 0.0227993298322 0.200807183981
0.00498708244413 0.0195083264261 0.202395901084
0.0048570712097 0.0165395271033 0.205397099257
0.00464798137546 0.0132302120328 0.208201915026
