ply
format ascii 1.0
comment Automatically gnerated by model-converter
element vertex 326
property float x
property float y
property float z
element face 0
property list uchar int vertex_indices
end_header
-0.0560306832194 0.0270027723163 0.186756432056
-0.0564114935696 0.0240709148347 0.188170224428
-0.0566333048046 0.0209035184234 0.189944252372
-0.0571627169847 0.0180408973247 0.191881716251
-0.0570138059556 0.0148201128468 0.193196609616
-0.0515734292567 0.0299303140491 0.181339725852
-0.0525012426078 0.0267515648156 0.184142231941
-0.0530819110572 0.0239448621869 0.185306504369
-0.0534395165741 0.0209117997438 0.187293589115
-0.0538994520903 0.0179234556854 0.189479753375
-0.0540580265224 0.0146508328617 0.191244587302
-0.054060574621 0.011322462 0.193344548345
-0.0525187477469 0.00370731670409 0.19943498075
-0.0523734055459 -0.000734228058718 0.199555665255
-0.0485712513328 0.033889260143 0.179479584098
-0.0482431091368 0.0304828509688 0.17976231873
-0.0486486069858 0.0269472822547 0.180823072791
-0.0494959503412 0.0239141900092 0.183465972543
-0.0501531362534 0.0208118036389 0.186362802982
-0.0506137013435 0.0178323537111 0.188036754727
-0.0508030168712 0.01443998795 0.190202653408
-0.0509489811957 0.0098868906498 0.193383440375
-0.0501561164856 0.00149988010526 0.199135482311
-0.0494493246078 -0.00232957815751 0.199608549476
-0.0496406853199 -0.00315024284646 0.201954543591
-0.050669465214 -0.00438336888328 0.205013334751
-0.045373711735 0.0367367938161 0.177594766021
-0.0455182418227 0.0339407771826 0.178460374475
-0.0453940071166 0.0307524744421 0.179451793432
-0.0455949939787 0.0273997727782 0.180909872055
-0.0463542602956 0.0241337213665 0.183726668358
-0.0469302162528 0.0208917930722 0.186365008354
-0.0472845248878 0.0175703540444 0.188135638833
-0.0474374555051 0.0143533907831 0.189951524138
-0.0481661818922 0.00474517745897 0.196768194437
-0.0468902550638 -0.00121853384189 0.19760620594
-0.0457228273153 -0.00413920590654 0.198615655303
-0.0460525341332 -0.00479055847973 0.201814487576
-0.0476831831038 -0.00446390314028 0.206008777022
-0.0491469092667 -0.0061528920196 0.208604857326
-0.0498569905758 -0.00775386905298 0.212611481547
-0.0420594885945 0.0392625331879 0.176273718476
-0.0424236319959 0.0369079336524 0.17760142684
-0.0425878204405 0.0342354886234 0.178903967142
-0.0425534546375 0.0311710089445 0.180241689086
-0.0428656302392 0.028013529256 0.182036206126
-0.0433769114316 0.0246677119285 0.184519052505
-0.0435708425939 0.0210484154522 0.186390683055
-0.0437940768898 0.0175141207874 0.187893867493
-0.0437883138657 0.0139727806672 0.189551249146
-0.0449109151959 0.00161913025659 0.19561304152
-0.0434307456017 -0.00220383447595 0.196547225118
-0.0418847724795 -0.00550315715373 0.197900876403
-0.0414546616375 -0.00687133101746 0.201851427555
-0.0441566519439 -0.00487005570903 0.206540673971
-0.046074680984 -0.00618616770953 0.209561184049
-0.0468217134476 -0.00853920634836 0.212705150247
-0.0474969111383 -0.0111372675747 0.215858966112
-0.0483518205583 -0.0132439713925 0.219646289945
-0.0391846112907 0.0397130697966 0.176230370998
-0.0399007722735 0.0369517281651 0.178373366594
-0.0397679954767 0.0345867499709 0.179745614529
-0.0399650968611 0.0315785370767 0.18118365109
-0.0401789955795 0.0284244213253 0.183222383261
-0.0404185764492 0.025018543005 0.185184434056
-0.040429327637 0.021357094869 0.18685811758
-0.0401924848557 0.0174925569445 0.18829973042
-0.042489733547 0.00379261467606 0.193378642201
-0.0409031920135 0.000576276797801 0.194374725223
-0.0392179563642 -0.00266126729548 0.19516146183
-0.0371128953993 -0.00569945434108 0.195768669248
-0.0355679988861 -0.00857696589082 0.197882398963
-0.0408351495862 -0.00542893959209 0.204783469439
-0.0426942147315 -0.00650752615184 0.209533259273
-0.043514508754 -0.00880267936736 0.213021561503
-0.0442159250379 -0.0115270037204 0.215708553791
-0.0464585088193 -0.0132795497775 0.21934710443
-0.0475859642029 -0.015315933153 0.223130971193
-0.0474750958383 -0.0177902001888 0.225566744804
-0.0362343788147 0.040028847754 0.17695645988
-0.0361128225923 0.0374985933304 0.178902029991
-0.0368467308581 0.0349211208522 0.180169180036
-0.0372025296092 0.0319882556796 0.182076722383
-0.0374773852527 0.0287256333977 0.184120133519
-0.0375727079809 0.0250170063227 0.185792982578
-0.0374652929604 0.0212753321975 0.18757160008
-0.0388051941991 0.0136036109179 0.189725741744
-0.0391790606081 0.00487374374643 0.192977234721
-0.037397056818 0.00145315867849 0.194438591599
-0.035215832293 -0.00164487550501 0.194692060351
-0.0331256315112 -0.00432043429464 0.195680260658
-0.033910036087 -0.00654220301658 0.198800697923
-0.0373403467238 -0.00710423104465 0.203253880143
-0.038961250335 -0.00730846310034 0.208597794175
-0.0399110764265 -0.00947115756571 0.212172597647
-0.0408379584551 -0.0120207192376 0.21443554759
-0.0422271825373 -0.01415767055 0.217978492379
-0.0437794364989 -0.0164711195976 0.221770063043
-0.0444223619998 -0.0188371613622 0.225707635283
-0.0333176106215 0.0404484011233 0.177687495947
-0.0334809832275 0.0379420928657 0.179415568709
-0.0337345227599 0.0352383032441 0.180627539754
-0.0340333580971 0.0324223600328 0.182595074177
-0.0347063913941 0.0287574920803 0.185231328011
-0.0345542393625 0.0245548039675 0.186670005322
-0.0340860895813 0.0205349735916 0.188324213028
-0.0339886024594 0.01418537274 0.189438268542
-0.0358265861869 0.00665449304506 0.192470163107
-0.0343030616641 0.00332476058975 0.194147333503
-0.032419167459 0.00057792593725 0.195616945624
-0.0313002243638 -0.00206343247555 0.197138369083
-0.0320408791304 -0.00463513331488 0.20034134388
-0.0338842198253 -0.00650599692017 0.204231753945
-0.0351164117455 -0.00842755753547 0.207587912679
-0.0365203507245 -0.00977827515453 0.211699917912
-0.0376410335302 -0.0121119925752 0.214595153928
-0.0385822951794 -0.0144962090999 0.217596769333
-0.0398646518588 -0.0170352663845 0.221085786819
-0.0406932085752 -0.0197516456246 0.224846899509
-0.0415486097336 -0.0224160123616 0.228454858065
-0.0300886183977 0.0408728644252 0.17809034884
-0.0303784497082 0.0381839051843 0.179818943143
-0.030725562945 0.0355418995023 0.181773409247
-0.0308640208095 0.0328358784318 0.183544129133
-0.0314389467239 0.0286434534937 0.185694664717
-0.0310595128685 0.0244128089398 0.187659084797
-0.0305929202586 0.0203795488924 0.18876606226
-0.0301841758192 0.015737734735 0.190123692155
-0.0311395488679 0.0098590021953 0.191941589117
-0.0307320151478 0.00515743950382 0.194260850549
-0.029472630471 0.00259550684132 0.196441620588
-0.0293659456074 -0.000113192283607 0.199096113443
-0.0294772330672 -0.00296498392709 0.201619058847
-0.0305421706289 -0.0053998073563 0.205252692103
-0.0320428870618 -0.0078632440418 0.208110436797
-0.0336455143988 -0.00963503774256 0.212154060602
-0.0345810316503 -0.0119665795937 0.215328723192
-0.0354476608336 -0.0144031466916 0.218552932143
-0.0364509895444 -0.0170853696764 0.222797080874
-0.0380011536181 -0.0229394286871 0.228611916304
-0.0268895123154 0.0411399193108 0.178363129497
-0.0272195395082 0.0383949242532 0.179843708873
-0.0276460889727 0.0358075685799 0.182445943356
-0.0278527103364 0.0331468582153 0.184170231223
-0.0281113367528 0.0284710396081 0.186248555779
-0.0278941635042 0.0245613064617 0.188417568803
-0.0276341438293 0.0208739135414 0.189476981759
-0.0272349342704 0.0165070015937 0.191354975104
-0.0272717550397 0.0125166717917 0.193302303553
-0.026883020997 0.00854368600994 0.19489826262
-0.0267409030348 0.00530603108928 0.197021842003
-0.0265419557691 0.00199440517463 0.199748411775
-0.0278167687356 -0.00452319160104 0.206233233213
-0.0290462132543 -0.00742106465623 0.209024012089
-0.0304901022464 -0.0095527023077 0.213102772832
-0.0315075665712 -0.011639454402 0.216516405344
-0.0325285866857 -0.0138175534084 0.220122203231
-0.0335392281413 -0.0166678875685 0.224914044142
-0.0340085998178 -0.0199966169894 0.226371124387
-0.0345259718597 -0.0231771469116 0.230138301849
-0.0241411421448 0.0412484556437 0.179091185331
-0.0240680687129 0.0387572981417 0.17998483777
-0.0243690870702 0.036090683192 0.182406201959
-0.024534182623 0.0332565680146 0.184596687555
-0.0247272830456 0.0293286945671 0.187216371298
-0.0250902827829 0.0248882826418 0.189607426524
-0.0244535319507 0.0213055387139 0.1911239326
-0.0241636615247 0.0175693444908 0.193167701364
-0.0244079027325 0.0137542700395 0.194933280349
-0.024283265695 0.0102888392285 0.19633077085
-0.0239131934941 0.00716362195089 0.198365062475
-0.0237479656935 0.00323331775144 0.201422855258
-0.0243252050132 -0.000408498366596 0.204225838184
-0.0249240323901 -0.00380870187655 0.20714814961
-0.0264257248491 -0.00692934030667 0.210598647594
-0.02766248025 -0.00926773622632 0.21422110498
-0.0288884248585 -0.0114755155519 0.217514708638
-0.029901701957 -0.0138948848471 0.221172809601
-0.030145522207 -0.0171357654035 0.22564509511
-0.0303236301988 -0.0204330161214 0.227878198028
-0.0305165946484 -0.0236574131995 0.230840921402
-0.0306706409901 -0.0269437972456 0.234354004264
-0.0210233777761 0.0415034256876 0.180066972971
-0.0211504474282 0.0387871265411 0.181121468544
-0.0212408807129 0.0364056788385 0.182557165623
-0.0213502794504 0.0335178822279 0.185517609119
-0.0216008275747 0.0303500294685 0.188270762563
-0.0213451981544 0.0251202750951 0.191111862659
-0.0210442598909 0.0217486117035 0.193148970604
-0.0210964288563 0.0184699743986 0.195435211062
-0.021262248978 0.0150642199442 0.197531610727
-0.0213382598013 0.011488461867 0.199352115393
-0.0213555600494 0.00812489818782 0.201073944569
-0.021202262491 0.00427182391286 0.203350767493
-0.0215738136321 0.000164992350619 0.2064627707
-0.0224566105753 -0.00327413715422 0.209337055683
-0.0233713481575 -0.0066203866154 0.211997032166
-0.0244434569031 -0.00924444850534 0.215164929628
-0.0255766194314 -0.0113713014871 0.219288811088
-0.0263517405838 -0.0145987318829 0.221906110644
-0.0261261425912 -0.0174650400877 0.226153925061
-0.026351261884 -0.0208387747407 0.22857837379
-0.026329010725 -0.0248664170504 0.230105593801
-0.026370421052 -0.0281243454665 0.233985424042
-0.0181327387691 0.0416606292129 0.180970668793
-0.0182883664966 0.0392968803644 0.182815596461
-0.0182813890278 0.036753769964 0.183902814984
-0.0182216260582 0.0339697301388 0.186088815331
-0.0179713964462 0.0308676119894 0.188963219523
-0.0176057294011 0.0266596172005 0.192233338952
-0.0180016476661 0.0224468689412 0.195021435618
-0.0180319771171 0.0192062556744 0.19704952836
-0.018070705235 0.0158751197159 0.199323773384
-0.0182950627059 0.0124993538484 0.20107190311
-0.01864165999 0.00918148644269 0.20306353271
-0.0188452154398 0.00512187695131 0.206040635705
-0.0190407931805 0.00104480842128 0.208501070738
-0.0198269728571 -0.00272363238037 0.21153755486
-0.0205101557076 -0.00611796835437 0.213961392641
-0.0214075259864 -0.00909234117717 0.217476040125
-0.0220678821206 -0.0116162598133 0.220966532826
-0.0227611493319 -0.0147221172228 0.222998425364
-0.0222554001957 -0.0175609849393 0.226741850376
-0.0225114952773 -0.0211858414114 0.227291733027
-0.0226924307644 -0.0250569842756 0.229064553976
-0.0227189939469 -0.0288026351482 0.234886944294
-0.0152445966378 0.0395037643611 0.183914080262
-0.0151405576617 0.0369048565626 0.185467973351
-0.015006785281 0.0341317206621 0.18729609251
-0.0146846650168 0.0308513808995 0.189490661025
-0.0145158683881 0.0276350807399 0.192308157682
-0.0149305807427 0.0236786082387 0.196314156055
-0.0151132512838 0.019808858633 0.19877192378
-0.0148660643026 0.0164548493922 0.200810283422
-0.0151187377051 0.0132269030437 0.20252905786
-0.0156233049929 0.0100767342374 0.20503872633
-0.0159378349781 0.00590599328279 0.208199590445
-0.0162066854537 0.0020632345695 0.210899233818
-0.0165396854281 -0.00186961900908 0.213466838002
-0.017436588183 -0.00556158460677 0.216671943665
-0.0183135233819 -0.00877388101071 0.219795659184
-0.0187977086753 -0.0119530921802 0.222368523479
-0.0188309438527 -0.0144270155579 0.224300771952
-0.0188818201423 -0.0176696330309 0.226787984371
-0.0190404504538 -0.0213392693549 0.228336468339
-0.0191010069102 -0.0253109708428 0.230935156345
-0.0187442731112 -0.0288339648396 0.236575528979
-0.0119942342862 0.0369612202048 0.186910524964
-0.011507332325 0.0340489894152 0.188697174191
-0.0113432025537 0.0309828426689 0.1906927526
-0.0113081261516 0.0278148651123 0.192538797855
-0.0116759147495 0.0246627517045 0.196265235543
-0.0118086813018 0.0212260968983 0.199795469642
-0.0119828479365 0.0171121861786 0.20255883038
-0.0122066102922 0.013962793164 0.20489025116
-0.012508302927 0.00993749499321 0.207339003682
-0.0127164889127 0.00611119298264 0.209649413824
-0.0130558023229 0.00274810544215 0.212621688843
-0.0135166822001 -0.000780500064138 0.215536236763
-0.01425081864 -0.00386769906618 0.218548715115
-0.0153008755296 -0.0069842771627 0.222048461437
-0.0158894062042 -0.00984394736588 0.225027486682
-0.0158118642867 -0.0139002501965 0.225338190794
-0.0152716273442 -0.0177066642791 0.227631688118
-0.0153103657067 -0.0214884262532 0.229709848762
-0.0151905911043 -0.0254024341702 0.233483314514
-0.0144169144332 -0.0286951642483 0.238113626838
-0.00866982620209 0.033736243844 0.189654737711
-0.00805803295225 0.0310480576009 0.19169805944
-0.00802877359092 0.027726855129 0.193672537804
-0.00835903454572 0.0247766412795 0.196890205145
-0.0086989691481 0.0213084835559 0.200559511781
-0.00895235687494 0.0170829519629 0.203095704317
-0.00912935379893 0.0131513318047 0.205442294478
-0.00904889591038 0.00960573647171 0.207896366715
-0.0092913005501 0.0063099693507 0.210221588612
-0.00967185851187 0.00334206409752 0.213658943772
-0.00994776375592 0.00019515430904 0.216937333345
-0.0106913596392 -0.00285809417255 0.220170855522
-0.0111411157995 -0.00602739071473 0.222876444459
-0.0114629734308 -0.00952812936157 0.225464209914
-0.0124071883038 -0.013507399708 0.226231813431
-0.0116584049538 -0.0172158814967 0.228362128139
-0.0114584900439 -0.0214364286512 0.230545207858
-0.0112460087985 -0.0255954153836 0.235186055303
-0.00491865118966 0.0307737048715 0.193172976375
-0.00445896619931 0.0273469220847 0.195841819048
-0.00435405643657 0.0235484670848 0.197785645723
-0.00488589983433 0.0163828451186 0.202635452151
-0.00534174684435 0.0126512050629 0.205095842481
-0.00536063499749 0.00949632003903 0.207847654819
-0.00555071653798 0.0066947308369 0.211086899042
-0.00604795804247 0.00389327039011 0.214403733611
-0.00619367742911 0.000899915990885 0.217827767134
-0.00702830636874 -0.00259764771909 0.221811950207
-0.00713526178151 -0.00595905119553 0.223103687167
-0.00737483566627 -0.00935494247824 0.225898683071
-0.00829272530973 -0.0133718205616 0.227468639612
-0.0086899055168 -0.016828963533 0.229176148772
-0.00777526013553 -0.021167833358 0.230772733688
-0.000999288982712 0.0269121490419 0.196774736047
-0.000978766940534 0.0234931409359 0.197378277779
-0.00106081471313 0.019812444225 0.198810920119
-0.00135564466473 0.016334688291 0.200991332531
-0.00173694186378 0.0125749455765 0.203482583165
-0.00158623338211 0.00949168298393 0.207196816802
-0.00192758918274 0.00701056653634 0.211492687464
-0.00247999583371 0.00105987349525 0.218428760767
-0.00320628168993 -0.00241143628955 0.222189337015
-0.00322175980546 -0.0058583104983 0.22351141274
-0.00344062130898 -0.00924680009484 0.225761085749
-0.00399128906429 -0.0127539141104 0.228173926473
0.0023824966047 0.0232177060097 0.196795240045
0.00225503882393 0.0196427404881 0.197677731514
0.00218807230704 0.0162165556103 0.199348941445
0.00200006249361 0.0124972546473 0.202578812838
0.00229528802447 0.00972876418382 0.206616923213
0.00205051153898 0.00707263406366 0.210860088468
0.00154547358397 0.00419938424602 0.214308679104
0.00126196001656 0.00122320943046 0.217492550611
0.000716938171536 -0.00207219156437 0.221041992307
0.0057033658959 0.0227780696005 0.196290016174
0.00560511834919 0.0193480607122 0.196830570698
0.00551562616602 0.0158337913454 0.198170989752
0.00553194480017 0.0125572606921 0.20137141645
0.00550605123863 0.00991063658148 0.206226468086
