ply
format ascii 1.0
comment Automatically gnerated by model-converter
element vertex 326
property float x
property float y
property float z
element face 0
property list uchar int vertex_indices
end_header
-0.0562249422073 0.026396535337 0.185606226325
-0.0565895326436 0.0234638042748 0.187084302306
-0.0568003021181 0.0202952586114 0.188844203949
-0.057331584394 0.0174356773496 0.190738379955
-0.0571603924036 0.0142499394715 0.192077636719
-0.0515976957977 0.0297903809696 0.181325554848
-0.0525008030236 0.0263194572181 0.183285936713
-0.0530980713665 0.0234806891531 0.184429302812
-0.0534621067345 0.02042459324 0.186354100704
-0.0539496578276 0.0174283608794 0.188527956605
-0.0540790259838 0.0141719942912 0.190292835236
-0.0541364364326 0.0108830099925 0.19241116941
-0.0517655499279 0.00258355890401 0.199047714472
-0.0515646338463 -0.00182273297105 0.199133619666
-0.0486384034157 0.033830743283 0.179717406631
-0.0483418442309 0.030482955277 0.17979259789
-0.0487030632794 0.0268910881132 0.180377796292
-0.0494529828429 0.0236114487052 0.182684496045
-0.050097823143 0.020438881591 0.185499891639
-0.0505816489458 0.0174557249993 0.187202513218
-0.0507643409073 0.0140610188246 0.189397588372
-0.0509534366429 0.00954580586404 0.192765772343
-0.0493888519704 0.000420873140683 0.198920190334
-0.0486175715923 -0.00337684038095 0.199407055974
-0.0487978383899 -0.00418324535713 0.20144367218
-0.0499163419008 -0.00529804173857 0.204291641712
-0.0454255566001 0.036660708487 0.177698135376
-0.0456006154418 0.0338706411421 0.178575202823
-0.0454968325794 0.0307667665184 0.17946241796
-0.0457052476704 0.0273759067059 0.180492207408
-0.0463133491576 0.0238587986678 0.182890474796
-0.0468521825969 0.0205490626395 0.185505196452
-0.0471950471401 0.0172196757048 0.187310427427
-0.0473496988416 0.0140331247821 0.189149945974
-0.0474810674787 0.00378181273118 0.196654528379
-0.0461235903203 -0.00221443152986 0.197465673089
-0.0448939800262 -0.00510611943901 0.198216408491
-0.0450853332877 -0.00579172419384 0.201355144382
-0.0468952767551 -0.00534336082637 0.205093488097
-0.0485765188932 -0.00684482557699 0.207630187273
-0.049424123019 -0.00829531718045 0.211708173156
-0.0420840717852 0.0391236171126 0.176222369075
-0.0424706526101 0.0367720909417 0.177569553256
-0.042658355087 0.0341417677701 0.178917959332
-0.0426893942058 0.0311672762036 0.180261030793
-0.042972125113 0.0278667267412 0.181694209576
-0.0433118380606 0.0242942739278 0.183547303081
-0.043436050415 0.0206072647125 0.185220897198
-0.043629668653 0.0170984230936 0.186697259545
-0.04361025244 0.0135854706168 0.188384234905
-0.0443139672279 0.000752614811063 0.195583879948
-0.0427219197154 -0.00308894785121 0.196182370186
-0.0410555526614 -0.00637933239341 0.197051137686
-0.040430277586 -0.00786697305739 0.201193720102
-0.0434030778706 -0.0057029905729 0.205810666084
-0.0455970987678 -0.00687149399891 0.208755493164
-0.0464171022177 -0.00912180356681 0.211808860302
-0.0471638515592 -0.0116572249681 0.21499659121
-0.0482550114393 -0.0137800732628 0.218516424298
-0.0391673706472 0.0394882783294 0.176075935364
-0.0399334914982 0.0367656350136 0.178249523044
-0.0398170650005 0.0344978123903 0.17974448204
-0.0400926433504 0.0315304920077 0.181185528636
-0.0402846671641 0.0281974356622 0.182836636901
-0.0403584428132 0.0245654415339 0.184149906039
-0.0402843430638 0.0207668039948 0.185472413898
-0.0399673692882 0.016914146021 0.186689600348
-0.0422115884721 0.00296748499386 0.193184822798
-0.0404395349324 -0.000235519793932 0.193901047111
-0.038538839668 -0.00348538858816 0.194209039211
-0.036211527884 -0.00654168566689 0.194120779634
-0.0345750376582 -0.00942798145115 0.196302950382
-0.0398491919041 -0.00640001147985 0.203860282898
-0.0422203540802 -0.0072478055954 0.208642557263
-0.0430942326784 -0.00937909912318 0.212136209011
-0.0438689850271 -0.0120335379615 0.214854463935
-0.0464003272355 -0.0137276109308 0.218179777265
-0.0478047132492 -0.0158545933664 0.221618399024
-0.0478504151106 -0.0183630082756 0.223961234093
-0.0362407676876 0.0397511608899 0.176749393344
-0.0361214466393 0.037325553596 0.178783118725
-0.0368933603168 0.0348047576845 0.180088534951
-0.037295948714 0.0318607501686 0.181984350085
-0.0375748053193 0.0284429434687 0.183720216155
-0.0375111326575 0.0245365798473 0.184899568558
-0.0372999608517 0.0207155793905 0.18622712791
-0.0386359393597 0.0129280593246 0.188512548804
-0.0389658994973 0.00413129059598 0.192370846868
-0.0369827710092 0.00069259799784 0.193537563086
-0.034554079175 -0.00237154611386 0.19331215322
-0.0322633944452 -0.00499355513602 0.194005340338
-0.0329491123557 -0.00744677474722 0.197241827846
-0.036637455225 -0.00789184309542 0.202102735639
-0.0384982191026 -0.00802061893046 0.207628667355
-0.0394930429757 -0.0100393528119 0.211269333959
-0.0405182763934 -0.012506628409 0.213567003608
-0.0421220995486 -0.0145986462012 0.216956913471
-0.043938074261 -0.0169818568975 0.220448002219
-0.0448090210557 -0.0193790271878 0.224264875054
-0.0332612246275 0.0401655808091 0.177454978228
-0.0334689207375 0.0377858057618 0.179261103272
-0.0337666124105 0.0350734218955 0.180542692542
-0.0340761803091 0.0322724096477 0.182414114475
-0.034877743572 0.0285235457122 0.184938162565
-0.0345950424671 0.0242859832942 0.186124995351
-0.0340078957379 0.0201866272837 0.18766027689
-0.0341381393373 0.0140030197799 0.189212426543
-0.0356619544327 0.00596098601818 0.191562727094
-0.0339512228966 0.00263946596533 0.192999050021
-0.0318612679839 -0.000122832963825 0.19426484406
-0.0305105261505 -0.00278222188354 0.195677667856
-0.0311891380697 -0.00556049216539 0.198876783252
-0.0332139767706 -0.00736019341275 0.202914386988
-0.0346542261541 -0.00920584984124 0.206502750516
-0.036183655262 -0.0103834290057 0.210751324892
-0.0373923033476 -0.0126398066059 0.213690161705
-0.0384568311274 -0.014972101897 0.216672956944
-0.0399804674089 -0.017527481541 0.219962477684
-0.0410364754498 -0.0202566348016 0.22361060977
-0.0421011149883 -0.0229513756931 0.227086171508
-0.0300084203482 0.0406690016389 0.17791005969
-0.0303750298917 0.0380322001874 0.179771453142
-0.030718639493 0.0353495925665 0.181668683887
-0.0308950580657 0.0326378718019 0.1834269315
-0.0317095890641 0.028625831008 0.185811042786
-0.0312444027513 0.0243509095162 0.187687709928
-0.0308057647198 0.0203933045268 0.188920214772
-0.0305001623929 0.0158404372633 0.190347775817
-0.0311525426805 0.00951607339084 0.191260963678
-0.0304310191423 0.00455651106313 0.192981302738
-0.0289643127471 0.00196674722247 0.195097222924
-0.0287387277931 -0.000880039122421 0.19770154357
-0.0287450198084 -0.00384900858626 0.200297743082
-0.0299046598375 -0.00625289138407 0.203992635012
-0.0315945222974 -0.00866866577417 0.206962108612
-0.0333731286228 -0.0103142857552 0.211147159338
-0.0344106182456 -0.0125846117735 0.214361101389
-0.0353662520647 -0.0149813983589 0.217597663403
-0.0366719812155 -0.0175997111946 0.221780180931
-0.0385939180851 -0.0234479177743 0.227412939072
-0.0268184505403 0.0409053862095 0.178181424737
-0.0271752458066 0.0381997004151 0.179746538401
-0.0275652483106 0.0355439223349 0.182250723243
-0.0277729798108 0.0328120924532 0.183873549104
-0.0284521412104 0.0286499951035 0.186772122979
-0.0282135251909 0.0246671605855 0.188850417733
-0.0279500391334 0.0210059285164 0.189858943224
-0.027551067993 0.0166408829391 0.191602453589
-0.0274730026722 0.0124854240566 0.193234100938
-0.0268101990223 0.00835265126079 0.194263279438
-0.0263961665332 0.00489952182397 0.195981487632
-0.0259650517255 0.00132719788235 0.198421806097
-0.0272682309151 -0.00533622410148 0.20503719151
-0.0286889635026 -0.00820651557297 0.207940652966
-0.0302559863776 -0.0103137698025 0.212099686265
-0.0314072705805 -0.0123734511435 0.215524166822
-0.0325882136822 -0.0145529219881 0.219109132886
-0.0340873897076 -0.0174249801785 0.223634362221
-0.0345668829978 -0.02070350945 0.224973529577
-0.0353558883071 -0.0238116551191 0.228693634272
-0.0240483731031 0.0409516133368 0.178816497326
-0.0239989459515 0.0384959354997 0.179769024253
-0.0242492202669 0.0357331372797 0.182068496943
-0.0243698451668 0.0328913256526 0.184187889099
-0.0247401557863 0.0292322188616 0.187217473984
-0.0254003610462 0.0250284578651 0.19001622498
-0.0246872007847 0.021422598511 0.191345155239
-0.024397328496 0.017657360062 0.193354219198
-0.0246252249926 0.0137057704851 0.194883033633
-0.024261508137 0.0100882407278 0.195870086551
-0.0235944259912 0.00682277046144 0.197400718927
-0.0231226794422 0.00250803213567 0.200082883239
-0.0237781479955 -0.00128135678824 0.202910661697
-0.0244696028531 -0.00473394617438 0.205914109945
-0.0261732619256 -0.00769636267796 0.209514975548
-0.0275522433221 -0.00991778448224 0.213417083025
-0.0289512313902 -0.0121200494468 0.216703012586
-0.0302250534296 -0.0144769670442 0.220296904445
-0.0308848265558 -0.0176898185164 0.224564820528
-0.0310958158225 -0.0209688171744 0.226776450872
-0.0313969813287 -0.0240750368685 0.229853585362
-0.0316706001759 -0.0271037463099 0.233518913388
-0.0209325831383 0.0411438643932 0.179734423757
-0.0210448987782 0.0384441576898 0.180764377117
-0.0210949704051 0.036012545228 0.182134583592
-0.0212073903531 0.0332097113132 0.185139462352
-0.0215332973748 0.0302105303854 0.188118338585
-0.0215080305934 0.0251950118691 0.191407859325
-0.0211608372629 0.0218347441405 0.193420127034
-0.0211723763496 0.0185720492154 0.195737227798
-0.0213208664209 0.0150015549734 0.197580426931
-0.0210374444723 0.0111785745248 0.198873370886
-0.0207525584847 0.00761312805116 0.200089082122
-0.0205213055015 0.00349337002262 0.20201446116
-0.0210183169693 -0.000808289332781 0.205131456256
-0.0220523830503 -0.00420366181061 0.208172097802
-0.02317873016 -0.00737732090056 0.211146369576
-0.0245043598115 -0.00965042877942 0.214723259211
-0.0259575229138 -0.0117075676098 0.218882441521
-0.0269008036703 -0.0147302467376 0.221678584814
-0.0270376000553 -0.017665874213 0.225798740983
-0.02716993168 -0.021061938256 0.227944582701
-0.0271093081683 -0.0248165111989 0.229875713587
-0.0272679105401 -0.0279283933342 0.233824044466
-0.0180727802217 0.0413297489285 0.180706739426
-0.0181827880442 0.0389406792819 0.182476997375
-0.0181238073856 0.0363846421242 0.183547541499
-0.0181008428335 0.0337062031031 0.185809388757
-0.0178256314248 0.0306969359517 0.188801944256
-0.0174319446087 0.0265187900513 0.192152932286
-0.017963251099 0.0224493574351 0.195217221975
-0.017999464646 0.0192091390491 0.197241678834
-0.0179102197289 0.0157521292567 0.199212983251
-0.0179343856871 0.0121348826215 0.200528696179
-0.0180050637573 0.008595158346 0.202098011971
-0.0181966926903 0.00432162126526 0.204964607954
-0.0185275617987 0.000219738649321 0.207435652614
-0.0195568408817 -0.00350522389635 0.210579439998
-0.0204634498805 -0.00669873273 0.213257983327
-0.0217016916722 -0.0093597676605 0.217155560851
-0.022693766281 -0.0115000735968 0.221111923456
-0.0236163046211 -0.0144649688154 0.223432227969
-0.0234011653811 -0.0172157101333 0.227278038859
-0.023489991203 -0.0207326803356 0.227959305048
-0.023464391008 -0.0248787682503 0.229293093085
-0.023682128638 -0.0285397600383 0.235012277961
-0.0152055472136 0.0392049998045 0.183686167002
-0.0150862019509 0.0366617701948 0.185277551413
-0.0149464709684 0.0339712798595 0.187222570181
-0.0145055409521 0.0307891052216 0.189519956708
-0.0143310753629 0.0275702308863 0.192327782512
-0.0148219242692 0.0235386956483 0.196378275752
-0.0149762481451 0.019689951092 0.198769643903
-0.0145970378071 0.0162754431367 0.200623720884
-0.0147383101285 0.0129194138572 0.201950356364
-0.0150796519592 0.00956706423312 0.2043248564
-0.0155402142555 0.00547651061788 0.207704871893
-0.0159269180149 0.0016777664423 0.210327342153
-0.0164600331336 -0.00237901112996 0.212838172913
-0.0175691433251 -0.00592680787668 0.216167733073
-0.0187680460513 -0.00895646773279 0.219551250339
-0.0197480227798 -0.0115322712809 0.223125696182
-0.0198866650462 -0.0137895457447 0.225372895598
-0.0200223457068 -0.0172378495336 0.227713242173
-0.020028969273 -0.021108917892 0.228883206844
-0.0200152546167 -0.0251859407872 0.231275469065
-0.0198157336563 -0.028570542112 0.236880108714
-0.0120348790661 0.0369141511619 0.187025219202
-0.0115272216499 0.0340681001544 0.188888862729
-0.0112363677472 0.0311018731445 0.19090436399
-0.0111455237493 0.0280066914856 0.192836672068
-0.0116152381524 0.0247417800128 0.196457087994
-0.0116093633696 0.0209805835038 0.199656024575
-0.0116868391633 0.0168921556324 0.202358797193
-0.011823288165 0.0135748703033 0.204461142421
-0.0122615098953 0.00974835921079 0.207089170814
-0.0125844478607 0.00603877846152 0.209572076797
-0.0130367698148 0.00265026208945 0.212422937155
-0.0136021254584 -0.00101680238731 0.215128093958
-0.0143528254703 -0.00428519118577 0.218004897237
-0.0155138047412 -0.00761931110173 0.221382945776
-0.0162934176624 -0.0106835830957 0.224573627114
-0.0169167108834 -0.0137078789994 0.22622308135
-0.0164237879217 -0.0173852462322 0.228523224592
-0.0163377262652 -0.0213208701462 0.230308905244
-0.0162330567837 -0.025241503492 0.233920201659
-0.0155895007774 -0.0284326709807 0.238601386547
-0.00868200045079 0.033972799778 0.190023526549
-0.00802026037127 0.031498529017 0.192217364907
-0.00798147823662 0.0282747205347 0.194366514683
-0.00836018845439 0.0252665430307 0.197497710586
-0.0086565753445 0.0214518439025 0.200921133161
-0.00893717817962 0.017531292513 0.203757971525
-0.00901931151748 0.0135274799541 0.206016793847
-0.00897539407015 0.0098243765533 0.208198726177
-0.00931605882943 0.00652349693701 0.210513755679
-0.0098370956257 0.00345737952739 0.21387130022
-0.0101400148124 5.59388900001e-05 0.216880187392
-0.010725219734 -0.00342087750323 0.219731807709
-0.0112621700391 -0.00672143651173 0.222301289439
-0.0115611553192 -0.01033821702 0.224711820483
-0.0130104506388 -0.0139687173069 0.226234182715
-0.012695774436 -0.0171592514962 0.229051038623
-0.012557589449 -0.0212491583079 0.231338515878
-0.0123752215877 -0.0254389997572 0.235899448395
-0.00506219500676 0.0316026471555 0.194040730596
-0.0046490621753 0.02838887088 0.197060823441
-0.00442457245663 0.0248776972294 0.19941316545
-0.00492258556187 0.0176901184022 0.204481199384
-0.0052978140302 0.0137958982959 0.206691011786
-0.00539613096043 0.0101752635092 0.208755239844
-0.00574084557593 0.00711395870894 0.211778819561
-0.0062255365774 0.0041736876592 0.214784473181
-0.00638768728822 0.000727297447156 0.217900589108
-0.00716384360567 -0.00320948171429 0.2213986516
-0.0072349566035 -0.00662100315094 0.22266100347
-0.00742091052234 -0.0101492330432 0.225210249424
-0.00863536261022 -0.0140440827236 0.227028623223
-0.00944016687572 -0.0171593651175 0.229330465198
-0.00883986242115 -0.0210769027472 0.231610432267
-0.00127376965247 0.0285019353032 0.198485508561
-0.00105073442683 0.0252456497401 0.199546337128
-0.000933449948207 0.0217376463115 0.201404601336
-0.00116367836017 0.0182711910456 0.203659147024
-0.00147411006037 0.0143053298816 0.205830320716
-0.00151748454664 0.0107366004959 0.208812847733
-0.00196489179507 0.00752565823495 0.212450608611
-0.00259970640764 0.000903186039068 0.218549340963
-0.00332258595154 -0.00299643469043 0.221828937531
-0.00324007659219 -0.00647234590724 0.222974136472
-0.00345325958915 -0.00991862919182 0.225072801113
-0.0039968485944 -0.0135383531451 0.227384671569
0.00240148464218 0.0253420174122 0.199460208416
0.00254740123637 0.0219173897058 0.200736194849
0.00263535883278 0.0186160206795 0.202605202794
0.00237210816704 0.0147672127932 0.205601930618
0.00239853025414 0.0113698542118 0.208723366261
0.00199735257775 0.00792458374053 0.212277024984
0.00142677989788 0.00461640115827 0.215102031827
0.00112581101712 0.00129833992105 0.217977002263
0.000579218845814 -0.00240144925192 0.22097659111
0.00579418847337 0.025349477306 0.199595227838
0.0060368059203 0.02206764929 0.200469195843
0.00617221323773 0.018635276705 0.202006191015
0.00608436949551 0.0153462588787 0.20505219698
0.00562381464988 0.0118386615068 0.208725422621
