ply
format ascii 1.0
comment Automatically gnerated by model-converter
element vertex 324
property float x
property float y
property float z
element face 0
property list uchar int vertex_indices
end_header
-0.0556167773902 0.0267121754587 0.186397716403
-0.0560031682253 0.0237657744437 0.187933117151
-0.0561105422676 0.0205389559269 0.189397633076
-0.0565787740052 0.0175327397883 0.19112226367
-0.056398767978 0.0144162271172 0.192128926516
-0.050972212106 0.0304479040205 0.183681756258
-0.0521892793477 0.0268025901169 0.184019073844
-0.052900724113 0.0238269958645 0.185010641813
-0.0531419105828 0.0207843966782 0.186502724886
-0.0535871982574 0.0176132805645 0.188488766551
-0.0536142960191 0.014224386774 0.189966022968
-0.0535198003054 0.0108282631263 0.191833555698
-0.051524437964 0.0035328718368 0.195766821504
-0.0517479144037 -0.000917223398574 0.195151686668
-0.0482723638415 0.0341393463314 0.18134495616
-0.0482357367873 0.0310903191566 0.181500598788
-0.0488410443068 0.0277217514813 0.181750878692
-0.0496127717197 0.0241229441017 0.182836011052
-0.0500131845474 0.0206625517458 0.185134395957
-0.0503781698644 0.0175818819553 0.18658798933
-0.0504764802754 0.014036427252 0.188487112522
-0.0503854826093 0.00943675171584 0.191450670362
-0.0494203791022 0.00124199932907 0.195113003254
-0.0489762574434 -0.002774318913 0.195265874267
-0.049064591527 -0.00381395407021 0.197050005198
-0.050197456032 -0.00539399078116 0.200098156929
-0.0453303195536 0.0368191972375 0.178687393665
-0.0455850735307 0.0340615659952 0.179513111711
-0.0456053689122 0.0311708170921 0.18027292192
-0.0459992922843 0.0279793180525 0.181263700128
-0.0464969091117 0.0241879280657 0.182623788714
-0.0468763187528 0.0205860435963 0.184555947781
-0.0471259914339 0.0171762295067 0.185968562961
-0.0471495836973 0.013850892894 0.187498778105
-0.0471939072013 0.00489678606391 0.192275643349
-0.0466083623469 -0.00114720244892 0.192407235503
-0.0454681068659 -0.00419834256172 0.19183985889
-0.0455427803099 -0.00554806366563 0.19567091763
-0.0469770021737 -0.00570274423808 0.200781196356
-0.048758674413 -0.00755295855924 0.203123152256
-0.0497294664383 -0.00940414890647 0.207482740283
-0.0421530082822 0.0391699597239 0.176696702838
-0.0424742922187 0.036726731807 0.177820578218
-0.0426059775054 0.0340546965599 0.178937077522
-0.0427398607135 0.0312544032931 0.180271178484
-0.0430146679282 0.0279979538172 0.181609794497
-0.0433784537017 0.0243202615529 0.182747468352
-0.0435672849417 0.0204932112247 0.183738857508
-0.0437392555177 0.0169139821082 0.184712558985
-0.0436561852694 0.0132254464552 0.185862794518
-0.0443448089063 0.00200242828578 0.189878642559
-0.0431800112128 -0.00192190648522 0.189315125346
-0.0418804064393 -0.00541949784383 0.189377963543
-0.0412460230291 -0.00798828620464 0.1941909343
-0.0435075871646 -0.00628812331706 0.200748130679
-0.0459301583469 -0.00789835955948 0.204398393631
-0.0467773787677 -0.0103624789044 0.207421973348
-0.0475124269724 -0.013108227402 0.210431575775
-0.0480961762369 -0.015121685341 0.214329272509
-0.0392520315945 0.0393871106207 0.176191717386
-0.0398963466287 0.0365306846797 0.177930384874
-0.0397349745035 0.0342005863786 0.179146945477
-0.0400090180337 0.0311959311366 0.180394262075
-0.0401069447398 0.0278364531696 0.181614354253
-0.040440838784 0.0241779591888 0.182509079576
-0.0404370948672 0.0203478503972 0.183414250612
-0.0401656664908 0.0164360590279 0.183952495456
-0.0414516590536 0.00457226485014 0.186703234911
-0.0401032604277 0.00112342799548 0.186461269855
-0.0383134819567 -0.00250768801197 0.185572788119
-0.0361794233322 -0.00597751745954 0.185735836625
-0.0355204083025 -0.00930464547127 0.189373418689
-0.0403814576566 -0.00717180920765 0.197807386518
-0.0426875315607 -0.00844732206315 0.204096570611
-0.0435540117323 -0.010879737325 0.207454770803
-0.0443466939032 -0.013826712966 0.209886208177
-0.0464060343802 -0.0160074457526 0.213756605983
-0.0474027171731 -0.0188498627394 0.217085808516
-0.036358974874 0.0395740047097 0.176752075553
-0.0361909903586 0.0370428115129 0.17857426405
-0.0369371920824 0.0343927182257 0.179141744971
-0.0371853969991 0.0311871618032 0.180426761508
-0.0374679937959 0.0276579223573 0.18154810369
-0.0376091934741 0.0238053128123 0.18242059648
-0.0373683311045 0.01992402412 0.183424845338
-0.0379921831191 0.0131189171225 0.184623539448
-0.0378370210528 0.00539681315422 0.185840860009
-0.0362829603255 0.00161529215984 0.185934215784
-0.0340076498687 -0.00192347599659 0.185719549656
-0.0322460122406 -0.00503676803783 0.187227755785
-0.033661134541 -0.00762713234872 0.19128382206
-0.0374438129365 -0.00829213857651 0.196065068245
-0.0390388742089 -0.00921646971256 0.202919051051
-0.0400866903365 -0.0116947311908 0.206294536591
-0.0411282815039 -0.0144811440259 0.20822109282
-0.0424209162593 -0.0170794520527 0.211788058281
-0.0436794795096 -0.0197847597301 0.215789318085
-0.0443351753056 -0.0224289204925 0.219618946314
-0.0334142930806 0.040048122406 0.177493363619
-0.0335821956396 0.037478800863 0.179132193327
-0.0338688082993 0.0345122925937 0.179747492075
-0.0341399721801 0.031354945153 0.180562630296
-0.0347817763686 0.0274960510433 0.182171195745
-0.0345072746277 0.0233106352389 0.183222874999
-0.0336351618171 0.0189964585006 0.184007436037
-0.0326231531799 0.0133416261524 0.184187799692
-0.034405335784 0.00682180514559 0.185835748911
-0.0331187061965 0.00305311800912 0.186469569802
-0.031443413347 -0.000239385481109 0.187758222222
-0.0306474994868 -0.00321199581958 0.190029963851
-0.0317957401276 -0.00609192531556 0.193479895592
-0.0341083854437 -0.00776041485369 0.197585850954
-0.035433512181 -0.0102517493069 0.201543837786
-0.0368361994624 -0.012088614516 0.205722257495
-0.038007799536 -0.0147206410766 0.208317905664
-0.0389377139509 -0.0174432005733 0.211116850376
-0.0398603193462 -0.0201414693147 0.215047389269
-0.0405266396701 -0.0230023283511 0.218853905797
-0.0412612706423 -0.0258082039654 0.222387582064
-0.0302618164569 0.0406192317605 0.178134709597
-0.0305999927223 0.0377422012389 0.179682359099
-0.0308209173381 0.0346220992506 0.180702075362
-0.0308880694211 0.0314958654344 0.181579083204
-0.0315886996686 0.0275652557611 0.182926014066
-0.0308911111206 0.0230585411191 0.184288755059
-0.0300764162093 0.0190878733993 0.184833928943
-0.0291201937944 0.0146491294727 0.185437217355
-0.0295646898448 0.00909741781652 0.18617464602
-0.0296082068235 0.0044465335086 0.187232971191
-0.0284834038466 0.00127677631099 0.189343228936
-0.0288915410638 -0.00164825550746 0.192441761494
-0.0292187482119 -0.00458946544677 0.195332527161
-0.0309024192393 -0.00683537404984 0.199035182595
-0.0326447896659 -0.00953272823244 0.202082976699
-0.0341345481575 -0.0120547348633 0.206197693944
-0.03508169204 -0.0147848622873 0.209144175053
-0.0359240472317 -0.0175091922283 0.211929604411
-0.0363656207919 -0.0201580487192 0.216777607799
-0.0377238877118 -0.0259175039828 0.222808390856
-0.0270895846188 0.0409397780895 0.178450018167
-0.0274122711271 0.0380348339677 0.179675340652
-0.0276842880994 0.0348087511957 0.181243106723
-0.0277966056019 0.0317002646625 0.181892305613
-0.028220038861 0.0274463184178 0.183539003134
-0.027895219624 0.0233528595418 0.185340002179
-0.0272936951369 0.0198242757469 0.185987889767
-0.0264436695725 0.0154478373006 0.187204256654
-0.026044242084 0.0113298231736 0.188213482499
-0.0253859777004 0.00725739495829 0.189249813557
-0.0255022477359 0.00388259650208 0.191113874316
-0.0256296414882 0.00024643263896 0.193585723639
-0.0284078903496 -0.00603283150122 0.200439795852
-0.0298256501555 -0.00908287987113 0.203414022923
-0.0311529580504 -0.0119378818199 0.207400903106
-0.0322141163051 -0.0144851729274 0.210506781936
-0.0333394855261 -0.0171068012714 0.21387603879
-0.0334982573986 -0.0199904814363 0.218530058861
-0.0339085645974 -0.022952940315 0.220408678055
-0.0344494991004 -0.0254297424108 0.224515467882
-0.0243456568569 0.0409659743309 0.179009482265
-0.0242428295314 0.0383857637644 0.179701805115
-0.0243740845472 0.0351261720061 0.181199163198
-0.0243366248906 0.0321225747466 0.182903602719
-0.0246105156839 0.0282722804695 0.185483649373
-0.0253125075251 0.0240107346326 0.186786413193
-0.0243155676872 0.0204877424985 0.187971055508
-0.0237739905715 0.0165233332664 0.189630687237
-0.0235234629363 0.0125012043864 0.190358102322
-0.022844562307 0.00883218832314 0.191135257483
-0.0224814843386 0.00552148418501 0.192745536566
-0.0227457787842 0.0012874865206 0.1956949085
-0.0240973699838 -0.00221546599641 0.198740690947
-0.0257262345403 -0.00529403146356 0.202141553164
-0.0275182165205 -0.00860843900591 0.205661937594
-0.0286911856383 -0.0114599782974 0.20921894908
-0.0300247427076 -0.0141196539626 0.212356239557
-0.0310725811869 -0.0169404819608 0.215641751885
-0.0302222538739 -0.019896350801 0.219257712364
-0.0303410664201 -0.0227210000157 0.222206816077
-0.0304120518267 -0.0251935049891 0.225814476609
-0.0305279958993 -0.0275926701725 0.230031892657
-0.0212768409401 0.0412542410195 0.180174559355
-0.0213285218924 0.038538467139 0.181020975113
-0.0212811082602 0.0358759015799 0.181880638003
-0.021235447377 0.0327550135553 0.184399351478
-0.0214456859976 0.0294952131808 0.187071144581
-0.02154006809 0.0244601201266 0.189030393958
-0.0208618082106 0.0209333654493 0.190677136183
-0.0204596240073 0.0174542330205 0.19260109961
-0.0201168786734 0.0136098582298 0.19341699779
-0.0194952785969 0.00967928767204 0.194151625037
-0.019730405882 0.00618696305901 0.195859596133
-0.0203526578844 0.00231469119899 0.198043629527
-0.0216410625726 -0.00171982776374 0.201447382569
-0.0233056601137 -0.00484154326841 0.20498766005
-0.0246309991926 -0.00816164258868 0.207869201899
-0.0259382780641 -0.010879050009 0.211391448975
-0.0276142954826 -0.0133462138474 0.215277686715
-0.0276796836406 -0.0167816560715 0.217324852943
-0.0266654454172 -0.0194559507072 0.220681145787
-0.0265060216188 -0.0224482938647 0.223240211606
-0.0261550955474 -0.025233104825 0.226221770048
-0.0259978007525 -0.0279347598553 0.230429217219
-0.0185421817005 0.0414881296456 0.181311443448
-0.0185701847076 0.0389322862029 0.182851672173
-0.018398411572 0.0363015197217 0.183450341225
-0.0181681048125 0.0334551855922 0.18525980413
-0.017621062696 0.0302371736616 0.18797492981
-0.0168258864433 0.0258886534721 0.190371677279
-0.0172426644713 0.0214239805937 0.192416146398
-0.0171882342547 0.0180321093649 0.194051429629
-0.0169043466449 0.0144126694649 0.195642367005
-0.0168131068349 0.0107225254178 0.19630266726
-0.0174027122557 0.00731738656759 0.198359057307
-0.0181674174964 0.00327573087998 0.201879888773
-0.0189642403275 -0.00076387624722 0.204381167889
-0.0205900352448 -0.00447977846488 0.207748636603
-0.0220635924488 -0.00763775873929 0.210346415639
-0.0235894117504 -0.0102920765057 0.214154571295
-0.0245645362884 -0.0129166673869 0.217809677124
-0.0244048833847 -0.0161323528737 0.218875661492
-0.0234911907464 -0.0183378644288 0.222470164299
-0.0233758538961 -0.0215390101075 0.223455876112
-0.0227295197546 -0.025045434013 0.225669667125
-0.022563079372 -0.0282221548259 0.231307700276
-0.015578025952 0.0391968302429 0.18393702805
-0.015258256346 0.0365199632943 0.184987381101
-0.0149003900588 0.0336576327682 0.186482533813
-0.0142951663584 0.0304424334317 0.188447251916
-0.0139372777194 0.0271521620452 0.190792411566
-0.0141470609233 0.0224580988288 0.193664774299
-0.0141952615231 0.0184337347746 0.195615082979
-0.0140041578561 0.015114935115 0.197717607021
-0.0142246885225 0.0117187900469 0.198796510696
-0.014852761291 0.00856435578316 0.201617076993
-0.0155377779156 0.00477642938495 0.205469697714
-0.016170674935 0.00100283441134 0.207996502519
-0.0173721257597 -0.00370266940445 0.21050144732
-0.0191531572491 -0.00697991112247 0.213733270764
-0.0207057893276 -0.00969027075917 0.216827571392
-0.0214982088655 -0.0127195445821 0.218958452344
-0.0207777451724 -0.0145020466298 0.220673173666
-0.0203338582069 -0.0176865179092 0.223137497902
-0.0200149007142 -0.0211135260761 0.22453866899
-0.0195556245744 -0.0247936695814 0.227541282773
-0.0190405342728 -0.027812352404 0.232946828008
-0.0120199332014 0.0366480723023 0.186375379562
-0.0112645970657 0.0336815677583 0.187767356634
-0.010985435918 0.0309013519436 0.189700365067
-0.010810919106 0.0278286710382 0.191398277879
-0.0111180972308 0.0239337217063 0.194167673588
-0.0108884954825 0.0197444595397 0.196792244911
-0.0115663846955 0.0159192271531 0.1999912709
-0.0119684562087 0.0127001134679 0.202186927199
-0.012533375062 0.00929714739323 0.205321788788
-0.0130988005549 0.00571925984696 0.208027780056
-0.0136258928105 0.00226364168338 0.210717514157
-0.0143519742414 -0.0018910781946 0.213073134422
-0.015001937747 -0.00575276976451 0.215586870909
-0.0160933304578 -0.00914886500686 0.218438491225
-0.0171247813851 -0.0122511843219 0.221159666777
-0.0177153907716 -0.0142238615081 0.22196996212
-0.0170482881367 -0.0171336252242 0.224090963602
-0.016495693475 -0.0206741075963 0.226136937737
-0.0159889943898 -0.0242490451783 0.229917615652
-0.00850790180266 0.0338207669556 0.188999652863
-0.00781409628689 0.0314494930208 0.191054433584
-0.00768208410591 0.028226017952 0.19328661263
-0.00798383448273 0.0246229246259 0.195734485984
-0.00804058741778 0.0204489454627 0.198487505317
-0.00859882496297 0.0167577713728 0.20161280036
-0.00895150657743 0.0131128216162 0.204307690263
-0.00966250896454 0.0099807837978 0.20749618113
-0.00999443978071 0.00661028036848 0.209886237979
-0.0106653934345 0.00327459536493 0.213049292564
-0.0107835615054 -0.00046277945512 0.215453729033
-0.0110131818801 -0.00469896756113 0.217669010162
-0.0117018623278 -0.00805500056595 0.219971463084
-0.0120919756591 -0.0117355566472 0.222282186151
-0.0137951960787 -0.0147620001808 0.222910568118
-0.0134025719017 -0.0167239420116 0.224942401052
-0.0128096994013 -0.020021751523 0.22740714252
-0.0121623165905 -0.0239415764809 0.232147648931
-0.00480651669204 0.031699154526 0.19290561974
-0.0043050874956 0.0282345954329 0.196085438132
-0.00385470921174 0.024750130251 0.198269203305
-0.00461274152622 0.0176955386996 0.203334763646
-0.00514627480879 0.0139288110659 0.205733299255
-0.00617638044059 0.0108987251297 0.208982408047
-0.0068387449719 0.00751113938168 0.212079778314
-0.00715215597302 0.00418843235821 0.214542418718
-0.0071281902492 0.000287202507025 0.217040136456
-0.00765804667026 -0.00415955251083 0.219721272588
-0.00766436802223 -0.00765054067597 0.221083134413
-0.00797524675727 -0.0112590789795 0.223431184888
-0.00930674001575 -0.0148444678634 0.224632889032
-0.0103600732982 -0.0170775428414 0.22589674592
-0.00924546457827 -0.0196465738118 0.22791428864
-0.000905557768419 0.0286148246378 0.197750911117
-0.000531584548298 0.025341603905 0.198943644762
-0.000375438976334 0.0219551734626 0.200846984982
-0.000732497952413 0.0186540875584 0.203195244074
-0.00128164154012 0.0149237224832 0.205985710025
-0.00178098550532 0.0114635610953 0.209461182356
-0.00233757332899 0.00784039497375 0.212937563658
-0.00320848729461 0.000813404272776 0.2183483392
-0.00391563493758 -0.00351665494964 0.221050709486
-0.0037399767898 -0.00707994261757 0.222081899643
-0.00394677976146 -0.0106349941343 0.223888635635
-0.0046534514986 -0.014393103309 0.225968003273
0.00290919304825 0.0257968138903 0.199279725552
0.00315068289638 0.022452659905 0.200537919998
0.00320129073225 0.0192804206163 0.202542066574
0.00254191597924 0.0156419835985 0.206306904554
0.00222089816816 0.0119799934328 0.209597423673
0.00162302213721 0.00816549174488 0.212806075811
0.000907401379663 0.00478864787146 0.215400129557
0.000497360946611 0.0015203175135 0.218186467886
-6.31941948086e-05 -0.00234711775556 0.221010550857
0.00622146949172 0.0261653065681 0.199944362044
0.00662065017968 0.0229837875813 0.200933650136
0.00680719455704 0.0196473188698 0.202605515718
0.00641857087612 0.0163524691015 0.205991387367
0.00547476438805 0.0123598072678 0.209789246321
