ply
format ascii 1.0
comment PCL generated
element vertex 354
property float x
property float y
property float z
element camera 1
property float view_px
property float view_py
property float view_pz
property float x_axisx
property float x_axisy
property float x_axisz
property float y_axisx
property float y_axisy
property float y_axisz
property float z_axisx
property float z_axisy
property float z_axisz
property float focal
property float scalex
property float scaley
property float centerx
property float centery
property int viewportx
property int viewporty
property float k1
property float k2
end_header
-0.055774804 0.030656906 0.18736497
-0.057204701 0.027393786 0.18896142
-0.058200758 0.023657663 0.19117726
-0.058856674 0.019705981 0.193152
-0.058977284 0.016189627 0.19437076
-0.051229697 0.035583001 0.18468691
-0.052140307 0.033730306 0.18521439
-0.05277364 0.030819904 0.18588446
-0.053356286 0.027708713 0.18681601
-0.054488555 0.024365265 0.18930529
-0.055722695 0.020368831 0.19215572
-0.056445923 0.016521607 0.19363928
-0.056683701 0.012921236 0.19467759
-0.056352507 0.0093747145 0.19671574
-0.047827333 0.038090184 0.1823018
-0.048436426 0.03627336 0.18298776
-0.048910789 0.03374261 0.18372074
-0.049374275 0.030918363 0.18498842
-0.050005268 0.027798468 0.18644142
-0.051087387 0.024651637 0.18940184
-0.051630784 0.021356525 0.19139892
-0.052700255 0.017503515 0.1929265
-0.053446312 0.013201498 0.19508092
-0.053210169 0.0074271625 0.19916846
-0.052590612 0.0019689298 0.2003409
-0.052247271 -0.0016866935 0.2011589
-0.045524981 0.038660042 0.18083806
-0.045764018 0.036256544 0.182037
-0.045835469 0.033520579 0.18320572
-0.046141975 0.030623812 0.18493024
-0.046869554 0.027774032 0.18670639
-0.047897171 0.024994327 0.18984683
-0.048223782 0.02188555 0.19157243
-0.04899184 0.018121472 0.19314438
-0.05001995 0.013041193 0.19558471
-0.04946341 0.0059074666 0.19811304
-0.049100365 0.00078555796 0.1993085
-0.04904981 -0.0024469951 0.20188585
-0.049287949 -0.0048210453 0.20452154
-0.05083175 -0.0059635239 0.20653124
-0.042378686 0.040746398 0.17930768
-0.042728025 0.038844474 0.1806031
-0.042850833 0.036419153 0.18211813
-0.042852391 0.033585031 0.18372808
-0.04318884 0.030624615 0.18532276
-0.043930225 0.027595874 0.18698785
-0.044862442 0.025149623 0.19005066
-0.045236275 0.02215907 0.19160183
-0.045588505 0.018377412 0.19302754
-0.046191163 0.012767591 0.19536927
-0.046521965 0.0062354449 0.19656715
-0.046065222 0.00058864296 0.19839123
-0.04593927 -0.0017512342 0.2022451
-0.046496864 -0.0034984918 0.20515178
-0.048379902 -0.0057207486 0.20797831
-0.050203942 -0.0080252653 0.21196286
-0.051285896 -0.010211761 0.21618401
-0.051161926 -0.012550346 0.21903028
-0.039817072 0.041385084 0.17886531
-0.03995489 0.038969316 0.18071859
-0.039951298 0.036414251 0.18231787
-0.040085845 0.033703256 0.18392996
-0.040572338 0.030723695 0.18557465
-0.04099904 0.027757954 0.18761432
-0.041784722 0.024873717 0.19012564
-0.042111069 0.021886496 0.19152544
-0.04258604 0.018492116 0.19266674
-0.042851221 0.013724454 0.19469026
-0.043316785 0.0070426841 0.19571039
-0.043008361 0.0018831944 0.19648522
-0.042432368 -0.0012601423 0.2004142
-0.042637441 -0.0031620553 0.20454067
-0.045010086 -0.0054128459 0.20911175
-0.047229461 -0.0074383756 0.2133981
-0.048153371 -0.010040574 0.21695878
-0.048875283 -0.012782888 0.21964714
-0.049133804 -0.016079471 0.22255892
-0.048771739 -0.018928001 0.22492963
-0.036548626 0.043298937 0.17760845
-0.036850214 0.041695949 0.17921241
-0.03714031 0.039282404 0.18099719
-0.037127994 0.036775023 0.1825199
-0.037149347 0.033899356 0.18446754
-0.03769372 0.031154662 0.18648578
-0.037942261 0.02809578 0.1879766
-0.038594421 0.024796547 0.19025612
-0.039246459 0.021891706 0.19166784
-0.039488062 0.01847861 0.19242072
-0.039703477 0.013872721 0.19424286
-0.040428173 0.0081403796 0.19548362
-0.040019393 0.0032448117 0.19508015
-0.039184719 -0.00068729033 0.19723406
-0.039237875 -0.0028720011 0.20422375
-0.041738208 -0.005131701 0.21027927
-0.043972172 -0.0070320545 0.21432732
-0.044647574 -0.0098688351 0.21755594
-0.045147546 -0.013210077 0.21981774
-0.045187045 -0.016531624 0.221737
-0.045445256 -0.019696767 0.22387095
-0.045157488 -0.022303032 0.22594602
-0.03384722 0.043621588 0.17836545
-0.033934288 0.042040054 0.17986527
-0.034092583 0.039597236 0.18160449
-0.034268361 0.037113823 0.18310776
-0.034122802 0.034255195 0.18530221
-0.034565117 0.031297036 0.18755224
-0.0350434 0.028235668 0.18926023
-0.03555638 0.025111318 0.19091298
-0.036278479 0.022214478 0.19219886
-0.036409073 0.018443653 0.19345738
-0.036745962 0.013823666 0.1947993
-0.037393846 0.0086684329 0.19586094
-0.037391312 0.004502431 0.19633242
-0.036695227 0.00016390411 0.19708626
-0.03674404 -0.0029421109 0.204531
-0.038940664 -0.0050863381 0.21115378
-0.040336076 -0.0070776986 0.21519366
-0.040965524 -0.010022887 0.21773034
-0.041121766 -0.013576151 0.2195053
-0.041280907 -0.016820481 0.22161876
-0.041195359 -0.019930717 0.22310764
-0.041402008 -0.023068659 0.2252252
-0.030557947 0.044019043 0.17966029
-0.03079427 0.042312715 0.18067761
-0.030946253 0.039765999 0.18253702
-0.031159464 0.037362743 0.18534873
-0.03140064 0.034524757 0.18711676
-0.031631149 0.031422883 0.18926556
-0.031903006 0.02838207 0.19106461
-0.032344185 0.025223255 0.1923327
-0.033112854 0.02245822 0.19273727
-0.033362381 0.018535839 0.19422156
-0.033700418 0.014053164 0.19539757
-0.034540154 0.0090951025 0.19700219
-0.034613159 0.0050420719 0.19824143
-0.034305871 0.0013853605 0.19971325
-0.034892146 -0.0016665092 0.20635946
-0.036568362 -0.0048140599 0.21151893
-0.037376788 -0.0072658272 0.21469055
-0.037782114 -0.010261082 0.21803197
-0.037733331 -0.013594166 0.22008348
-0.037793048 -0.016778985 0.22190422
-0.037586037 -0.020029876 0.22280648
-0.037813365 -0.023177642 0.22497906
-0.027550872 0.04425915 0.18031533
-0.027547127 0.04246451 0.18150614
-0.027725041 0.039887924 0.18353488
-0.028098032 0.037473883 0.18700086
-0.028633816 0.034771256 0.18914278
-0.028778115 0.031794067 0.19090319
-0.02879357 0.028765153 0.19202437
-0.028916795 0.025922246 0.19365835
-0.029307283 0.02304239 0.19537209
-0.029820072 0.019049406 0.19549657
-0.03082872 0.013472048 0.19675836
-0.031227592 0.0093772132 0.19896287
-0.030753849 0.006094255 0.20124653
-0.030807387 0.003049829 0.20469043
-0.031728823 -3.0343101e-05 0.20876142
-0.032925203 -0.0039470503 0.21201609
-0.033822369 -0.0070873457 0.21524566
-0.034886032 -0.0096222674 0.21909252
-0.034519713 -0.013056423 0.22109717
-0.03443012 -0.01640439 0.22300252
-0.034241971 -0.019789413 0.22435011
-0.03411182 -0.023375148 0.22743089
-0.033612557 -0.025922282 0.23025526
-0.024192693 0.044268351 0.18112369
-0.024348268 0.04265283 0.1822973
-0.0242457 0.040018577 0.18389028
-0.024800047 0.037594587 0.18693458
-0.025564937 0.035176959 0.189867
-0.025732715 0.032176889 0.19190994
-0.025766456 0.029261978 0.19319502
-0.025873085 0.026224542 0.19535542
-0.025952341 0.023611708 0.1979351
-0.026448952 0.019988617 0.19927101
-0.026229829 0.014792633 0.20075585
-0.026180288 0.010547585 0.20175926
-0.026780743 0.0070211086 0.20441005
-0.02760352 0.0040667458 0.20752656
-0.028760979 0.00096679106 0.21061453
-0.029767454 -0.0027154554 0.21379942
-0.030408949 -0.0060664811 0.2168031
-0.031000722 -0.0087190205 0.22129479
-0.030666251 -0.01242108 0.22289252
-0.030663824 -0.01611769 0.22550227
-0.030210197 -0.019743521 0.22754122
-0.030103024 -0.02334241 0.22973762
-0.030063054 -0.026983418 0.23196448
-0.021027086 0.044568334 0.18149014
-0.021072028 0.042867575 0.18260512
-0.021106593 0.040163532 0.18402274
-0.021273717 0.037739787 0.18601695
-0.022075512 0.035347145 0.18990418
-0.022403717 0.032746095 0.19268967
-0.022563878 0.029916678 0.19458801
-0.022561098 0.027084947 0.19696322
-0.023040885 0.024180319 0.19989717
-0.023401197 0.020296803 0.20215225
-0.023078796 0.015791839 0.2033051
-0.022845713 0.011660505 0.20464087
-0.023533994 0.0078996662 0.20660892
-0.024461556 0.0047663487 0.20967916
-0.025749307 0.0016945042 0.21297409
-0.026567739 -0.0017664317 0.21579254
-0.027130451 -0.0052572777 0.21897097
-0.026901254 -0.0086271781 0.22340707
-0.026695026 -0.012346884 0.22434813
-0.02641649 -0.016152296 0.227507
-0.026090231 -0.019862974 0.22976258
-0.026172498 -0.023722289 0.23119241
-0.02641608 -0.027502824 0.23330498
-0.018391334 0.042768475 0.18343307
-0.01811335 0.04055541 0.18497446
-0.018186137 0.037852928 0.18639961
-0.018648781 0.035320804 0.18984374
-0.019143157 0.03284476 0.19306873
-0.019376451 0.03026248 0.19519781
-0.019656049 0.027643342 0.19815679
-0.020289054 0.024427302 0.20168245
-0.020551737 0.020551622 0.20402563
-0.020348486 0.016365955 0.20551205
-0.019955188 0.012531983 0.20679224
-0.020463308 0.0087244129 0.20923571
-0.021277418 0.0053203721 0.21148828
-0.022552582 0.0019666713 0.21537399
-0.023108277 -0.0016924555 0.2182959
-0.023603274 -0.0051220679 0.22134805
-0.023238694 -0.008404226 0.22546373
-0.022864066 -0.012177848 0.22614741
-0.022772778 -0.016101735 0.22845323
-0.022120725 -0.019845774 0.23051357
-0.022222983 -0.023615792 0.23053136
-0.022603562 -0.027810257 0.23488602
-0.015275842 0.040668666 0.18574199
-0.015282778 0.038062878 0.18744814
-0.015440535 0.035348702 0.18995623
-0.015632892 0.03282496 0.19311874
-0.01593703 0.030327847 0.19569103
-0.016277116 0.027820503 0.19980514
-0.017376145 0.024360979 0.20422611
-0.017401274 0.02068292 0.20603622
-0.01727213 0.017036431 0.20704608
-0.016912954 0.013081582 0.20808774
-0.017423401 0.0094058532 0.21133165
-0.017609796 0.0064867577 0.21399067
-0.018402906 0.0026753354 0.21697061
-0.019531088 -0.0016038776 0.22011192
-0.020088227 -0.0049231644 0.22376709
-0.019805728 -0.0082460353 0.2271661
-0.019229541 -0.012102122 0.22785179
-0.018976759 -0.016184609 0.22998464
-0.018417789 -0.019977961 0.23051345
-0.018473694 -0.023848297 0.23188244
-0.018849112 -0.028249834 0.23831886
-0.012675894 0.038033921 0.18878917
-0.012269934 0.035683632 0.19077484
-0.012501917 0.033106145 0.19381687
-0.012691755 0.030451367 0.19661257
-0.013139619 0.02756704 0.20021738
-0.013710213 0.024111643 0.20454808
-0.013675734 0.020769775 0.20675987
-0.013738609 0.017214738 0.2081985
-0.013887617 0.013487993 0.210085
-0.01404902 0.010149848 0.21322852
-0.014333979 0.0069953771 0.21550342
-0.014403678 0.0035712116 0.21811867
-0.0155931 -0.0013976427 0.22121814
-0.016373523 -0.0046312283 0.22530524
-0.016269337 -0.00803464 0.22797765
-0.015564839 -0.012101696 0.22934254
-0.015117298 -0.016173018 0.231049
-0.014862848 -0.020180332 0.23160298
-0.014704864 -0.024242526 0.23508137
-0.015130887 -0.02841568 0.24164407
-0.010117709 0.035402641 0.19183171
-0.0094989566 0.033270024 0.19455719
-0.0094190352 0.030442797 0.19752271
-0.0097067896 0.027281117 0.20014825
-0.010042515 0.02410968 0.20383967
-0.0099050114 0.020796757 0.20687911
-0.0098863728 0.017432541 0.20907612
-0.010563359 0.014180261 0.21203217
-0.010526255 0.010736184 0.21435119
-0.010566031 0.0073884223 0.21703181
-0.010378742 0.0039264248 0.21952537
-0.01075242 -0.00043146763 0.22185571
-0.012037862 -0.00467481 0.22537692
-0.011578379 -0.0080739278 0.22781269
-0.011225084 -0.01206267 0.23000066
-0.011140829 -0.016169932 0.23183219
-0.010968313 -0.020186771 0.23342769
-0.010997108 -0.024346607 0.23757297
-0.011504726 -0.027698865 0.242203
-0.0062040729 0.032738473 0.19702125
-0.0062469649 0.030260451 0.19897789
-0.0063165626 0.026896402 0.2013616
-0.0064673633 0.023738276 0.20407584
-0.0065980339 0.020746717 0.20665887
-0.006590202 0.017402468 0.20958205
-0.006847709 0.014073403 0.21228167
-0.0067514852 0.011012171 0.21460269
-0.006630877 0.0074943318 0.21723689
-0.0068112868 0.0038649193 0.21996927
-0.0068579586 -0.0002688808 0.22197758
-0.0070504323 -0.0047641508 0.22438537
-0.0070175207 -0.008460219 0.22741537
-0.0071973945 -0.012319978 0.22984663
-0.0070893778 -0.016202476 0.23157838
-0.0071138372 -0.020095 0.23444821
-0.0075484333 -0.023701115 0.23718345
-0.0036716454 0.032035735 0.19851673
-0.0031839861 0.029963547 0.19926575
-0.0031008113 0.026720477 0.20098814
-0.003144535 0.023557752 0.20345579
-0.0031807784 0.020629833 0.20610048
-0.0032963809 0.017342487 0.20917064
-0.0032863484 0.013860555 0.21206856
-0.0031270867 0.010632154 0.21447928
-0.0029891997 0.0075153797 0.21725291
-0.0031859116 0.0038731531 0.21942084
-0.0032718813 -0.00057022128 0.22230461
-0.0031854371 -0.0045442577 0.22377414
-0.0032627895 -0.0085296379 0.22666572
-0.0033407237 -0.012125866 0.22860859
-0.0038773709 -0.015618285 0.2305178
-0.00048321663 0.029237418 0.1994987
0.0001351797 0.026817169 0.20112164
-4.1698328e-05 0.023591435 0.203283
0.00020212587 0.020818325 0.20566669
0.00019649017 0.017357167 0.20810038
0.00030922997 0.013797781 0.21040112
0.00034883042 0.010553376 0.21336128
0.00048392726 0.007483555 0.21640816
0.0006125528 0.004010587 0.21793889
0.00042858178 -0.00017993603 0.2210736
0.00076318177 -0.0042009689 0.22304411
0.0001151664 -0.008067173 0.22578949
-0.00081616361 -0.011229725 0.2285839
0.0030661463 0.026588099 0.2016817
0.003352734 0.023915866 0.20282377
0.00369781 0.021006625 0.20509972
0.0037604016 0.017405296 0.20738919
0.0038323125 0.01384169 0.20951991
0.0036961697 0.010557381 0.21180971
0.0034525995 0.0072630062 0.21543799
0.0031195164 0.0042227297 0.21737848
0.0029424345 0.0001107279 0.22012366
0.0030267835 -0.0030820079 0.22237502
0.0052248146 0.02391837 0.20320758
0.0059271846 0.020801507 0.20512994
0.0059912647 0.017472086 0.20706458
0.0058918395 0.013499319 0.20962875
0 0 0 1 0 0 0 1 0 0 0 1 0 0 0 0 0 354 1 0 0
