ply
format ascii 1.0
comment PCL generated
element vertex 764
property float x
property float y
property float z
element camera 1
property float view_px
property float view_py
property float view_pz
property float x_axisx
property float x_axisy
property float x_axisz
property float y_axisx
property float y_axisy
property float y_axisz
property float z_axisx
property float z_axisy
property float z_axisz
property float focal
property float scalex
property float scaley
property float centerx
property float centery
property int viewportx
property int viewporty
property float k1
property float k2
end_header
-0.02943592 0.018574892 0.088418581
-0.030016897 0.01742604 0.090074174
-0.030262718 0.016042406 0.090863876
-0.030499637 0.01455406 0.091502316
-0.030926568 0.013087501 0.092570201
-0.031357422 0.011604646 0.093584739
-0.031515997 0.01003223 0.094191194
-0.031700246 0.0085576968 0.09475822
-0.032241583 0.0069748266 0.095997445
-0.032793216 0.0053111441 0.097810104
-0.033718918 0.0035230732 0.099940866
-0.034221701 0.0018347322 0.10104953
-0.034349959 0.00010807138 0.10147919
-0.034696665 -0.0014982636 0.10224235
-0.035286263 -0.0031902525 0.10344093
-0.036093004 -0.0049247374 0.10529359
-0.0372888 -0.0065113478 0.10842099
-0.028505277 0.018885361 0.089700453
-0.028870191 0.017704742 0.091005147
-0.029056258 0.016218388 0.091569737
-0.029302262 0.014708273 0.092194632
-0.029768437 0.013218419 0.093330108
-0.030121829 0.011683099 0.094166793
-0.030394293 0.010185148 0.095172912
-0.030716056 0.0086145876 0.095932253
-0.031152777 0.0070642363 0.097189024
-0.031825088 0.0054404251 0.098956309
-0.032534584 0.003641383 0.10087749
-0.032968506 0.0019467653 0.10206888
-0.033070199 0.00020088779 0.10248905
-0.033486024 -0.001498639 0.10344312
-0.034116376 -0.0032495838 0.10481378
-0.034862131 -0.0050489632 0.10652409
-0.035696533 -0.0068142633 0.10852525
-0.026734302 0.01869517 0.088668361
-0.027267896 0.017697342 0.090637244
-0.027787875 0.016246062 0.092114992
-0.028064977 0.014809011 0.092992216
-0.028428564 0.013358937 0.093982466
-0.02866363 0.011791474 0.094678186
-0.028934062 0.01022937 0.095613144
-0.029236615 0.0087324604 0.096451722
-0.029842101 0.0071380311 0.098262265
-0.030593377 0.0055167256 0.10009278
-0.031103842 0.0037662566 0.10171022
-0.031603947 0.0019219035 0.10310242
-0.03179726 0.00018935758 0.10398357
-0.032155849 -0.001562671 0.10483319
-0.032651681 -0.0033251485 0.10594827
-0.033501148 -0.0051545422 0.10784338
-0.034034513 -0.0069526518 0.10926314
-0.025102641 0.018621195 0.088132776
-0.025678487 0.017659899 0.090249516
-0.026457911 0.016429327 0.092667915
-0.026824737 0.014956084 0.093947418
-0.027273705 0.013511535 0.09539777
-0.027460171 0.011908911 0.095852584
-0.027648048 0.010329637 0.096431464
-0.027828529 0.0088036647 0.097277641
-0.028356904 0.0072183548 0.098885596
-0.029175149 0.0056202556 0.10126207
-0.029634602 0.0038259127 0.10247631
-0.029965257 0.0020334979 0.10362154
-0.030403361 9.2400674e-05 0.10508579
-0.030770047 -0.0016316663 0.10626132
-0.031137045 -0.003394508 0.1070923
-0.031753149 -0.0050870772 0.10837087
-0.032370746 -0.0069148988 0.11003362
-0.023595314 0.018594839 0.088045277
-0.024208477 0.017680103 0.090360336
-0.024958849 0.016418986 0.09262757
-0.025208123 0.015061473 0.093932696
-0.02568602 0.013531354 0.095398277
-0.025863443 0.011945449 0.096032441
-0.02626962 0.010370905 0.097297534
-0.02650723 0.0089088986 0.098491497
-0.026847541 0.0072835605 0.099411279
-0.02749506 0.0056587206 0.10156227
-0.027903281 0.0039178715 0.10252547
-0.028082766 0.0020387827 0.10372662
-0.028853454 0.00016013728 0.10565902
-0.029244298 -0.0016808547 0.10716239
-0.029622775 -0.0034560063 0.10812338
-0.030053964 -0.0051658205 0.10915705
-0.030484064 -0.0069176531 0.1103371
-0.022001484 0.018470565 0.087611303
-0.022816895 0.017545681 0.090436764
-0.023319945 0.016338697 0.092492536
-0.023515444 0.014959374 0.093325503
-0.023906752 0.01352259 0.094850309
-0.024217496 0.011923581 0.096072935
-0.024694908 0.010404528 0.097832724
-0.025012802 0.00887678 0.098853208
-0.025258245 0.0072899675 0.099773787
-0.02566828 0.0056697442 0.10112743
-0.025991838 0.0039588502 0.10222098
-0.026589859 0.0021425367 0.10383462
-0.027030045 5.6177854e-05 0.10587613
-0.027507849 -0.0017241784 0.10746066
-0.027893379 -0.0035883244 0.10853048
-0.028225835 -0.0054237098 0.10947578
-0.028585399 -0.0072238096 0.11043948
-0.020304285 0.018281704 0.087048598
-0.021210348 0.017460331 0.090127207
-0.021636868 0.016302301 0.092143811
-0.021942746 0.014960634 0.093445137
-0.022246838 0.013555939 0.094664365
-0.022640174 0.011894524 0.096169516
-0.023128444 0.010484032 0.098140009
-0.023387175 0.0089560412 0.099255934
-0.023564918 0.0073488439 0.09996511
-0.023817716 0.0057036253 0.10086431
-0.024091408 0.0040178974 0.10184874
-0.024583675 0.0022039989 0.10373454
-0.025152888 0.00017904665 0.10587332
-0.025690069 -0.0018087665 0.10755561
-0.02608875 -0.0036646721 0.10878403
-0.026387077 -0.0055106063 0.1098154
-0.026915109 -0.0071177757 0.11036132
-0.018761791 0.018193781 0.087124579
-0.019591274 0.017369278 0.089799076
-0.020030875 0.016252251 0.091977537
-0.020293225 0.014913479 0.093228243
-0.020670002 0.013554791 0.094864257
-0.020958159 0.011948803 0.096056089
-0.021393595 0.010481443 0.097871162
-0.021653676 0.0089872973 0.099227123
-0.021792801 0.0073503312 0.099935085
-0.022051819 0.0057224664 0.1008913
-0.022250704 0.0040074494 0.10158689
-0.022621067 0.0023072651 0.10325134
-0.023142647 0.00044399779 0.10533646
-0.023707179 -0.0016322149 0.10718209
-0.024048708 -0.0035964665 0.10835043
-0.024382312 -0.0055711484 0.10943484
-0.024634123 -0.0074115214 0.11034038
-0.017180396 0.018129846 0.086845852
-0.01773045 0.01722168 0.089174144
-0.018285038 0.016175158 0.091448635
-0.018637663 0.014932708 0.093221292
-0.019026361 0.013576881 0.09492299
-0.019233244 0.011918093 0.095876142
-0.019564815 0.010422406 0.097420871
-0.019947421 0.0090309652 0.099296436
-0.020137057 0.00740236 0.10008515
-0.020303234 0.0056818328 0.10067803
-0.020461706 0.0040077302 0.10143982
-0.020724157 0.0023387899 0.10281097
-0.021010173 0.00057466608 0.10427687
-0.021395275 -0.0013546989 0.10581756
-0.021811312 -0.003467361 0.10738561
-0.022303501 -0.0055367141 0.10841876
-0.022464972 -0.007473445 0.1093163
-0.022614731 -0.0093893306 0.11021531
-0.015609055 0.017924311 0.086076759
-0.016077507 0.017084302 0.088528231
-0.016495226 0.01598563 0.090542048
-0.016915387 0.014852284 0.092654221
-0.017340323 0.01355518 0.094679601
-0.017536908 0.012031089 0.095903091
-0.017845735 0.010404442 0.097219408
-0.018236199 0.0090448754 0.099129871
-0.018376874 0.0074301306 0.099863485
-0.018470421 0.0056601013 0.10038857
-0.01866995 0.0040058014 0.10128633
-0.018815883 0.0023598848 0.10220661
-0.019060401 0.00059838913 0.10362266
-0.019321626 -0.0012423088 0.10467814
-0.019502601 -0.0031316171 0.10578226
-0.019746067 -0.0050515933 0.10674018
-0.020074183 -0.0071416427 0.10758545
-0.020345431 -0.0090858461 0.10870792
-0.020713612 -0.011140844 0.11044624
-0.013991199 0.017771699 0.085357621
-0.014469645 0.016920986 0.087776333
-0.014771411 0.015797004 0.089771405
-0.015196682 0.014745929 0.092245691
-0.015552959 0.013405754 0.094152167
-0.015814448 0.011940659 0.095641702
-0.016107559 0.010456596 0.09721002
-0.016437659 0.0089954548 0.098895513
-0.016589222 0.0073820651 0.099761523
-0.016707962 0.005700402 0.10032704
-0.016825102 0.0040373406 0.10101891
-0.016919937 0.0023451948 0.10171719
-0.017132649 0.00062257302 0.10281491
-0.017209129 -0.0011866632 0.10332889
-0.017276112 -0.0030287663 0.10390569
-0.017420402 -0.0048867804 0.10464448
-0.017815351 -0.0069896108 0.10604245
-0.017999519 -0.0089689447 0.10727341
-0.018339755 -0.011046134 0.10915675
-0.018466232 -0.012704095 0.11080045
-0.012453292 0.017700391 0.084939674
-0.012944601 0.016838728 0.08755222
-0.013122296 0.015700513 0.089226447
-0.013449511 0.014687781 0.091808893
-0.01376383 0.013344199 0.093599908
-0.013960052 0.011903246 0.095050372
-0.014109305 0.010424915 0.096511029
-0.01438989 0.0089601632 0.098123759
-0.014757654 0.0073814336 0.09931536
-0.01483182 0.0057547004 0.10000347
-0.014993642 0.0040832032 0.10078346
-0.015014456 0.0023305207 0.10109545
-0.015105644 0.00060921733 0.10168574
-0.015219565 -0.0011609996 0.10231168
-0.015275616 -0.0029825852 0.10245379
-0.01540238 -0.0048263972 0.10325546
-0.015676314 -0.0068294504 0.10457627
-0.01586815 -0.0087795705 0.10591516
-0.016180351 -0.010780735 0.10782786
-0.016575821 -0.012972892 0.11045659
-0.01099718 0.01762234 0.08465901
-0.011288051 0.016726237 0.08674413
-0.01151779 0.015573502 0.088758923
-0.011680927 0.014501785 0.090764463
-0.011917216 0.013323449 0.092954256
-0.011960121 0.011817258 0.093799613
-0.012004969 0.010338687 0.09480416
-0.011971639 0.0089282095 0.096115142
-0.011946637 0.0074997596 0.097486317
-0.012879823 0.00566319 0.098910302
-0.013110577 0.0040107286 0.10010891
-0.013192204 0.0023298908 0.10075191
-0.013203003 0.00056416757 0.10108295
-0.013241305 -0.0012047914 0.10140082
-0.013399272 -0.0029893194 0.10187441
-0.013555747 -0.004830665 0.10272521
-0.013638677 -0.0067262547 0.10344235
-0.013823206 -0.0085754832 0.10471019
-0.01412523 -0.010613079 0.10673799
-0.014499969 -0.012783449 0.10927068
-0.0095305033 0.017499229 0.084183007
-0.0097763818 0.016706074 0.086507693
-0.0099483663 0.015554215 0.088403054
-0.010117574 0.01430691 0.090074398
-0.010086719 0.013145711 0.091623105
-0.010145449 0.01176127 0.092761025
-0.010083991 0.010276431 0.093496561
-0.0099444389 0.0088261059 0.09436696
-0.0098436167 0.0074210018 0.095467679
-0.0098624518 0.0059931148 0.096834876
-0.010592846 0.0041708848 0.099062853
-0.011244448 0.002319929 0.09977404
-0.011343672 0.00059654599 0.10055304
-0.011447851 -0.0011684358 0.10082415
-0.011530451 -0.0029715113 0.10139387
-0.011713662 -0.0048453142 0.10242979
-0.011812251 -0.0066413744 0.10316519
-0.011858203 -0.0085056536 0.10387783
-0.012058865 -0.010470773 0.10588426
-0.012421004 -0.012685217 0.10826813
-0.0080784829 0.017466031 0.084098309
-0.0082406728 0.016610019 0.086126529
-0.0083781928 0.015490603 0.087813146
-0.0085472716 0.014240368 0.089463748
-0.0085264975 0.012987268 0.090811372
-0.0083981119 0.011481978 0.091167122
-0.0082065742 0.010164283 0.09194836
-0.0081322268 0.0087324409 0.092724621
-0.0081069116 0.0072995583 0.093682341
-0.0082524577 0.0057300869 0.094704308
-0.0084568793 0.0041729719 0.096282162
-0.0089163575 0.0023695179 0.097992748
-0.0094143767 0.00055506674 0.099657968
-0.0096881613 -0.0012623922 0.1002069
-0.0097963596 -0.0029753894 0.10116348
-0.0098686609 -0.0047399248 0.10208011
-0.0099070398 -0.0065416419 0.10261899
-0.010002968 -0.008408824 0.10369341
-0.010243631 -0.010416834 0.1055012
-0.010375272 -0.012480042 0.10752421
-0.010703865 -0.014610231 0.11047864
-0.0066710492 0.017394334 0.083770759
-0.0067262137 0.016483299 0.085437976
-0.0068588299 0.015387987 0.0871953
-0.0069731809 0.014118515 0.088551469
-0.0069854306 0.012800321 0.089743808
-0.0068547763 0.011446055 0.090324253
-0.0065210299 0.0098943543 0.090735614
-0.0064507988 0.0084540006 0.09142068
-0.0065721199 0.0070646927 0.092509732
-0.0066763083 0.0055350256 0.093348406
-0.0068564378 0.0039414968 0.094430283
-0.0070998627 0.0022520823 0.095986642
-0.0075495378 0.00048979855 0.097930983
-0.0077931243 -0.0012694258 0.099581383
-0.0080154669 -0.0029825929 0.10099471
-0.0080424044 -0.0046395916 0.10192599
-0.0080751888 -0.0063934145 0.10254142
-0.0081676589 -0.0082593802 0.10359647
-0.0083221309 -0.010263714 0.10537839
-0.0084916325 -0.012393191 0.10728711
-0.0087736398 -0.014729188 0.11048947
-0.0051968745 0.017329533 0.08312925
-0.0052418406 0.016348764 0.084724963
-0.0053257756 0.015228424 0.086326212
-0.0054019135 0.013965137 0.087703399
-0.005455886 0.012625124 0.088982783
-0.0054096486 0.011152338 0.089462541
-0.0051809805 0.0097248005 0.089879699
-0.0051139477 0.0082431342 0.090286992
-0.0051591233 0.0067413375 0.090821125
-0.0052454146 0.0052453792 0.091824614
-0.005430528 0.0036196623 0.093040526
-0.0055733887 0.0020162149 0.09437225
-0.0057027787 0.00034399339 0.096283361
-0.0059896735 -0.0012522851 0.099199429
-0.0062250732 -0.002962237 0.10092103
-0.006294183 -0.0045931111 0.10194195
-0.0062860399 -0.0063155238 0.10257479
-0.0063544158 -0.008101088 0.10388675
-0.0064619295 -0.010193069 0.1053387
-0.0066231191 -0.01234195 0.10750448
-0.0068131723 -0.014706493 0.11051696
-0.0037705763 0.016190955 0.083899088
-0.0038432663 0.015179263 0.086013518
-0.0038845902 0.013958012 0.087455302
-0.0039137118 0.012617453 0.088721454
-0.003893693 0.011143788 0.089169852
-0.0038379785 0.0096437912 0.089446165
-0.0038092132 0.0080744131 0.089527711
-0.0038549667 0.0065475903 0.089781046
-0.0039256727 0.0050449991 0.090729319
-0.0039268383 0.0033895015 0.092141017
-0.0040356391 0.0017380179 0.093398035
-0.0041221436 8.1526559e-05 0.095221728
-0.0042488975 -0.0012746544 0.098724596
-0.0044530085 -0.0029448133 0.10049281
-0.0044956165 -0.0045233732 0.10139842
-0.0045503676 -0.0061913691 0.10250135
-0.0045739599 -0.0080273887 0.10383277
-0.0046192217 -0.010150752 0.1054065
-0.0047406987 -0.01229365 0.10774398
-0.0048651258 -0.01469008 0.11064629
-0.0021955294 0.016292242 0.083797291
-0.0022828851 0.015287166 0.085920952
-0.0023835956 0.014015179 0.087531507
-0.0023901113 0.012628045 0.088449806
-0.0023741596 0.011182097 0.089099318
-0.0023598329 0.0096032778 0.089299344
-0.0023450952 0.0079830252 0.089554779
-0.0023825376 0.0064158794 0.089673631
-0.0024250979 0.0050102733 0.09086825
-0.0024093287 0.0032022819 0.092222586
-0.0024156084 0.0015854132 0.093351938
-0.0024869007 -6.1836392e-05 0.094832979
-0.0025642265 -0.0013410609 0.098178498
-0.0026971246 -0.0029319078 0.1003898
-0.0027166707 -0.0045750909 0.10141221
-0.0027550759 -0.0062188655 0.10239818
-0.0027861635 -0.0079242028 0.10396758
-0.0028240737 -0.010028633 0.10534523
-0.0028376449 -0.01229047 0.10772367
-0.0029857971 -0.014741887 0.11031859
-0.00077633327 0.016301587 0.083844617
-0.00082954578 0.015248629 0.085799225
-0.00084388524 0.01405185 0.087588094
-0.00088193075 0.012690577 0.088502377
-0.00086177629 0.011237106 0.08921627
-0.00087102514 0.0096927164 0.089552373
-0.00091396621 0.0079927873 0.090019025
-0.00094847911 0.0064582508 0.090108261
-0.0010126801 0.0050158701 0.091302842
-0.00091437181 0.0034113149 0.092451312
-0.00085129659 0.0017452054 0.093725316
-0.00083275512 7.3052091e-05 0.095305651
-0.0010079156 -0.0014279967 0.098193601
-0.00096455618 -0.0029039769 0.10029753
-0.00097503996 -0.0045585902 0.10155232
-0.00095585751 -0.0062727421 0.10270373
-0.0010379379 -0.008078482 0.10383121
-0.0010458321 -0.01011012 0.10591557
-0.0010406477 -0.012493559 0.10806929
-0.00094311853 -0.014977942 0.11064125
0.00064553187 0.016299443 0.083776213
0.00064317253 0.015233482 0.085853107
0.00063384679 0.014064505 0.087372892
0.00062172074 0.012715655 0.088762052
0.00063532079 0.011207378 0.089465141
0.00047590659 0.009575557 0.09003444
0.00035541743 0.0080882004 0.09089876
0.00028060115 0.0066000088 0.091679901
0.00040666418 0.0051149372 0.092860833
0.00059562211 0.0035215653 0.093845248
0.00072696077 0.0018635252 0.094509996
0.00075122481 0.0002044829 0.095863737
0.00074515195 -0.001331155 0.09845385
0.00074707053 -0.0029480839 0.10016235
0.00074724021 -0.004573449 0.10158423
0.00075600925 -0.0063630636 0.10263073
0.00074108905 -0.0082173906 0.10362762
0.00077844854 -0.010204719 0.10586754
0.00085050071 -0.012486314 0.10802624
0.00095072982 -0.014971459 0.11048846
0.0020565256 0.016315823 0.083826274
0.0021081849 0.015216369 0.085851841
0.0021272025 0.014063643 0.087554954
0.002124103 0.012773536 0.088966399
0.0019924412 0.011218865 0.089573331
0.0019731151 0.0095326789 0.090577029
0.0020224797 0.0082279509 0.092354462
0.0020060048 0.0067527974 0.093230538
0.0021272849 0.0051872535 0.094050653
0.0022087751 0.0035991801 0.094802938
0.0022817613 0.002008287 0.095486976
0.0022951756 0.00029135065 0.096780799
0.0025014903 -0.0012968632 0.098983824
0.0025388675 -0.0030194677 0.10015644
0.0025360261 -0.0047230236 0.10119054
0.0024843023 -0.0064534843 0.1025772
0.00253657 -0.0082968157 0.10351124
0.0026570188 -0.010273636 0.10564344
0.0027634532 -0.012509462 0.1079144
0.0028573109 -0.014956414 0.11024141
0.0034670562 0.016292015 0.083692409
0.003559479 0.015131147 0.085652925
0.0035950469 0.013987326 0.087641701
0.0035940807 0.012639699 0.088718131
0.0035127634 0.011209683 0.089469559
0.0034673684 0.0095899384 0.090620063
0.0035023433 0.0082428958 0.092441626
0.0036141216 0.0067518977 0.093581602
0.0037125128 0.0052551245 0.094374992
0.0037318815 0.0037936296 0.095332578
0.0038324513 0.002151543 0.096185654
0.0039744256 0.00040857634 0.097850867
0.00425096 -0.0014119126 0.099397689
0.0043403269 -0.0031124174 0.10047106
0.0043177498 -0.0048062373 0.10137298
0.0043147597 -0.0065358127 0.10256249
0.0043267068 -0.0083987955 0.10365578
0.0044207657 -0.010425079 0.10575566
0.0046465886 -0.012637109 0.10802127
0.0048537604 -0.014922522 0.11055441
0.0048990254 0.016245104 0.083854847
0.0049840165 0.015104274 0.085452259
0.0050284718 0.013951363 0.087330431
0.0050752992 0.012611486 0.08827243
0.0050347866 0.01123385 0.089502722
0.0050317831 0.0097163673 0.090783402
0.0050504231 0.0083228815 0.092039801
0.0051543992 0.0069037266 0.093740217
0.0052969512 0.0053499085 0.094650507
0.0053625144 0.0039107306 0.095880024
0.0054419278 0.0022783873 0.097485155
0.0056973314 0.00044204551 0.098791599
0.0060747331 -0.0014942796 0.099839732
0.006106067 -0.0031069883 0.1009579
0.0061178757 -0.0048703076 0.10164378
0.0061395718 -0.0066223042 0.10270782
0.006116075 -0.0084579634 0.10408146
0.0062273573 -0.010693801 0.10568858
0.0065675247 -0.0129664 0.10808279
0.0063405614 0.016226687 0.084225357
0.0064252396 0.015074904 0.085376911
0.0064982018 0.013862734 0.086907499
0.0065289796 0.012516469 0.087758519
0.0065711001 0.011209635 0.089278236
0.0065965452 0.0097610503 0.090476334
0.0066403542 0.0083585177 0.091915376
0.0067364909 0.0069621932 0.0935307
0.0069396631 0.005487849 0.094954088
0.0071119908 0.0037202116 0.096532606
0.0072922306 0.0021767488 0.098258071
0.0076850713 0.00012408113 0.099206939
0.0077976631 -0.0015243612 0.10023113
0.0078960946 -0.0032076517 0.10133424
0.0079509104 -0.004933638 0.10228195
0.0080048116 -0.0067824298 0.10323778
0.0079697715 -0.0087406561 0.10445254
0.0081981281 -0.011079973 0.1061447
0.0084970454 -0.013444012 0.10810617
0.0087697608 -0.015467923 0.10980679
0.007661113 0.017379288 0.083268411
0.0077837128 0.016280491 0.084561251
0.0078840088 0.01510032 0.085572906
0.0079856757 0.013887751 0.086926669
0.0079853749 0.012505411 0.087591857
0.0080570448 0.011167312 0.089188769
0.00811233 0.0097566312 0.090320297
0.0081997784 0.0083968677 0.091516219
0.0083668139 0.0071151587 0.094029285
0.0085844398 0.0054375702 0.095101394
0.0088031618 0.0037400422 0.096743919
0.0091049168 0.0020322106 0.098764785
0.0093539217 0.00017779393 0.099637888
0.0095457053 -0.0015467525 0.10065547
0.0097115338 -0.0031571728 0.10197741
0.0097901598 -0.0050346535 0.10258058
0.0099363141 -0.0070701372 0.10332055
0.010032356 -0.0091073355 0.10475336
0.01019593 -0.011434606 0.10638811
0.010366736 -0.013903853 0.1078946
0.0090704812 0.017415453 0.083384648
0.0092123356 0.016314114 0.084666073
0.0092929108 0.015083382 0.085608505
0.0093756514 0.013906834 0.08694157
0.0094911465 0.012550985 0.088048108
0.0095825996 0.011208886 0.089306347
0.0096725803 0.0097877029 0.09024208
0.0097949672 0.0083327219 0.091306269
0.010031397 0.0071115978 0.094220378
0.01024986 0.0054276735 0.095031366
0.010639067 0.0037814826 0.097448833
0.010811866 0.0020620096 0.098925494
0.010977058 0.00025404655 0.09966667
0.011174021 -0.0014812972 0.10077219
0.011476652 -0.0033291418 0.10199142
0.011599093 -0.0051645129 0.10263698
0.01182558 -0.0071830223 0.10379688
0.012001935 -0.0092655271 0.10521937
0.012133985 -0.011737936 0.10694491
0.012236803 -0.014190816 0.10831461
0.010464289 0.017428983 0.083440475
0.010586753 0.016319012 0.084373854
0.010634671 0.015051522 0.085333258
0.010816649 0.013877889 0.086702131
0.010936564 0.012575296 0.087691069
0.011096275 0.011258789 0.0891141
0.011201566 0.0098664025 0.090187117
0.011334768 0.0084452545 0.091266118
0.011652618 0.0070695742 0.093841225
0.011954359 0.0054486408 0.095416017
0.0122725 0.0038476519 0.097620793
0.012528964 0.0021101462 0.099037357
0.012734126 0.00037423559 0.099956356
0.012899039 -0.0014212197 0.10092363
0.013201565 -0.0032471784 0.10203389
0.013450739 -0.0051452117 0.10297264
0.013711116 -0.007245671 0.10436785
0.013853547 -0.0095310519 0.10638297
0.014061131 -0.012003492 0.10791832
0.014196034 -0.014158626 0.108885
0.011958812 0.017582083 0.084115975
0.012037762 0.016364142 0.084591292
0.012065438 0.015086971 0.085358813
0.012289234 0.013888123 0.086804934
0.012436004 0.012575978 0.087602191
0.012580083 0.011232031 0.088920482
0.012699207 0.0098507544 0.089947812
0.012820267 0.00843505 0.090941049
0.013154984 0.0071384115 0.093563065
0.013626186 0.0054396084 0.095518507
0.0139421 0.0038534421 0.09752655
0.014272009 0.0021976449 0.099268667
0.014457356 0.000514791 0.10033145
0.014721311 -0.0012314544 0.10090952
0.014993365 -0.0031278303 0.10229329
0.015257753 -0.0051064426 0.10306972
0.015618165 -0.0074040219 0.10526969
0.015819347 -0.0098954653 0.10773257
0.016180245 -0.012207662 0.10921408
0.013358116 0.01759492 0.084148772
0.01344537 0.016418323 0.084824778
0.013530396 0.01512869 0.085375011
0.013806514 0.013944431 0.087190621
0.013990358 0.012555424 0.088007227
0.014082965 0.011254609 0.089033231
0.014222768 0.0098823244 0.089985251
0.014352988 0.0084551107 0.091027975
0.014669122 0.0070889811 0.092835806
0.015254758 0.005390428 0.095526502
0.015786435 0.0038873111 0.098229311
0.016089497 0.0022991931 0.099602573
0.01634649 0.00054151221 0.10078455
0.016459242 -0.0012348867 0.10123811
0.016774958 -0.0030490342 0.10270617
0.017246198 -0.0052285986 0.10432649
0.017690968 -0.0074508693 0.10687891
0.018052559 -0.0099549927 0.10907466
0.014844297 0.017772567 0.08467149
0.014969932 0.016599078 0.085403793
0.015101118 0.015290976 0.086143404
0.015340212 0.013927103 0.087130576
0.015495582 0.012605703 0.088099919
0.015673677 0.011298534 0.089280322
0.015790589 0.0099287676 0.090243518
0.01603171 0.0085483314 0.091756724
0.016498821 0.0071419799 0.093519136
0.016904889 0.0054632742 0.095361024
0.017525535 0.0038914548 0.098253243
0.017824614 0.0023027116 0.099657647
0.018093731 0.00059098745 0.10084449
0.018308733 -0.0010972105 0.10184402
0.018626887 -0.0030241064 0.103361
0.019288488 -0.0052309125 0.1056513
0.020037426 -0.0075720889 0.10922842
0.016389133 0.017970931 0.085492775
0.01653225 0.016724767 0.086082764
0.016667761 0.015358584 0.086676858
0.016930128 0.014036938 0.087485157
0.01705 0.01266113 0.088260762
0.017289035 0.011372131 0.08975365
0.017359724 0.0099875117 0.090662561
0.017745418 0.0085497219 0.09203992
0.018308241 0.0071473354 0.094246134
0.018545981 0.0055432371 0.095412605
0.01917778 0.0039396416 0.098000288
0.019521244 0.0023223707 0.099451475
0.019854894 0.00071187376 0.10097801
0.020289714 -0.0010867524 0.10268579
0.020722715 -0.0030440257 0.10461375
0.021488532 -0.0052050152 0.10732476
0.022246214 -0.0073186439 0.1104601
0.017960416 0.018069966 0.086108454
0.018109046 0.016803782 0.08664304
0.01821365 0.015428122 0.087058239
0.018499279 0.014131224 0.08803416
0.01870364 0.012740582 0.088941835
0.019060008 0.011454584 0.09028329
0.019082502 0.0099864602 0.090863593
0.019284012 0.0085236048 0.091992617
0.020024465 0.0071599209 0.09477409
0.020326992 0.0055975053 0.096060149
0.021057261 0.0039825062 0.098610185
0.021408008 0.0023482721 0.10006416
0.021863258 0.00062364392 0.10151857
0.022348549 -0.0012750856 0.10347899
0.023219621 -0.0032392524 0.10618024
0.02367069 -0.0051803486 0.10888127
0.019382421 0.018086016 0.08601103
0.01967565 0.016856588 0.086960629
0.019865852 0.015522723 0.087602645
0.0201285 0.014235385 0.088487357
0.020367736 0.012847227 0.089334421
0.020673847 0.011439312 0.090370417
0.020736471 0.0099639492 0.091076739
0.020930735 0.0085424995 0.09216059
0.021689085 0.0071801608 0.095028542
0.022031136 0.0056682178 0.096397758
0.022906059 0.0039858138 0.0989452
0.023256268 0.0023487958 0.10041043
0.023813369 0.00058876281 0.10222951
0.024554076 -0.0013446248 0.10439358
0.025297789 -0.0031995524 0.10711122
0.026026651 -0.0053006937 0.11037156
0.020800212 0.017996525 0.085765816
0.021210115 0.016868819 0.087019056
0.021549094 0.015586139 0.087913044
0.021761153 0.014274329 0.088785708
0.021906989 0.012832153 0.089270331
0.0221733 0.011400125 0.090107143
0.022291146 0.0099077597 0.090913437
0.022682535 0.0085427575 0.092583992
0.023230029 0.0071213269 0.094584525
0.023684198 0.0055379341 0.09601973
0.024569133 0.0039851139 0.098736368
0.025414158 0.0023200249 0.10173432
0.025858004 0.00052899984 0.10302514
0.026627734 -0.0013282764 0.10511208
0.027544973 -0.0032918584 0.10861041
0.022434151 0.017998766 0.086084276
0.02272819 0.016828939 0.08698415
0.023090407 0.015611743 0.088004217
0.023294026 0.014208986 0.088675052
0.023412619 0.012767175 0.089086153
0.023739822 0.011387089 0.090075694
0.024460912 0.010014269 0.091817096
0.024696946 0.0086122137 0.093309596
0.025019638 0.0069725979 0.094589785
0.025943905 0.0055331462 0.097240962
0.026738726 0.0040742494 0.099773236
0.027795156 0.0022994825 0.10301279
0.028320471 0.00055623194 0.10454424
0.028821517 -0.001321657 0.10639398
0.029802216 -0.0034293735 0.1100564
0.023983015 0.017963508 0.086141489
0.024341529 0.016842695 0.087180823
0.024644963 0.01555447 0.088090584
0.024818176 0.014155568 0.088571198
0.024966497 0.012735703 0.089076869
0.025389912 0.011351036 0.090026505
0.025991164 0.010036718 0.091412477
0.026225237 0.0086077964 0.092384905
0.026674561 0.0071196253 0.094244793
0.027789982 0.0055873422 0.097458825
0.028905818 0.0040003639 0.10092939
0.030240139 0.0023322531 0.10432544
0.030688561 0.00050830806 0.10620673
0.031129703 -0.0013359907 0.10791852
0.031943355 -0.0032987914 0.11064396
0.025414178 0.017909134 0.085837595
0.025854537 0.016774729 0.087054163
0.026171533 0.015492278 0.088035405
0.026348764 0.014153793 0.088531092
0.026512638 0.012700357 0.089021437
0.026891403 0.011271731 0.089539871
0.027186362 0.0099274786 0.090381444
0.027539765 0.0085099023 0.091523163
0.027925985 0.0070415605 0.092944257
0.029295195 0.0055821436 0.096792698
0.031259447 0.004041024 0.1022881
0.032340441 0.0023156689 0.10537236
0.032689147 0.00048680784 0.10671159
0.033391971 -0.0013425354 0.10877633
0.026961097 0.017965816 0.086184181
0.027328525 0.016801817 0.087172672
0.027661223 0.015474136 0.087869331
0.027966246 0.014179961 0.088667013
0.02822488 0.012616133 0.088926718
0.028386619 0.011164933 0.089310989
0.028566154 0.0097956629 0.08996401
0.029016633 0.0084394999 0.091321573
0.030111935 0.007107534 0.094484828
0.030959941 0.0055757184 0.096874498
0.033728372 0.0039425846 0.103761
0.034562331 0.0023077398 0.1065629
0.03509054 0.00048297062 0.10817419
0.03583324 -0.0015106165 0.11011853
0.028111769 0.017844979 0.085351072
0.028812187 0.016825359 0.087174565
0.02917723 0.015532183 0.087945528
0.029447895 0.014088206 0.088392504
0.029631 0.012552531 0.088619746
0.029783709 0.011090082 0.089044049
0.029898411 0.0096797869 0.089553334
0.030503877 0.0083330646 0.091292307
0.031605709 0.0070124543 0.094235554
0.032243241 0.0055573471 0.095940076
0.036408648 0.0039847489 0.10632052
0.037154239 0.0020217269 0.10806516
0.037589341 7.0085429e-05 0.10911847
0.038575631 -0.0019814307 0.11036556
0.029011255 0.01759856 0.083828598
0.029943544 0.01672193 0.086191893
0.03045146 0.015405477 0.087345146
0.030854994 0.014050552 0.088193856
0.03105614 0.012560159 0.088462837
0.031230722 0.011095272 0.088944055
0.031580828 0.0096179852 0.089944325
0.031871155 0.0082043381 0.090771668
0.032758899 0.0068283631 0.093100861
0.034859445 0.0054565007 0.09807051
0.039050579 0.0038223369 0.1073188
0.039614078 0.001909217 0.10876718
0.040275346 -0.00012469264 0.10973535
0.0407167 -0.0018580121 0.11060023
0.030810978 0.016452124 0.08465863
0.031504013 0.015208659 0.086155489
0.032067049 0.013893949 0.087188557
0.032381512 0.01246641 0.087978818
0.032634288 0.010991083 0.088663548
0.033053726 0.0095090028 0.089813925
0.033506867 0.0081248693 0.091073282
0.034343705 0.0067184712 0.093274094
0.0390261 0.0053653568 0.10284576
0.040958904 0.0037571532 0.1072837
0.04176712 0.0018794878 0.10898828
0.042308006 -0.0001750534 0.10976756
0.043102346 -0.0019100121 0.11059193
0.032402318 0.01510801 0.084352247
0.032980882 0.01374583 0.085522287
0.033757497 0.012419692 0.08753027
0.034178302 0.010871514 0.088510148
0.034519989 0.0094107483 0.089515641
0.035029732 0.0080735702 0.090846471
0.036908939 0.0066371011 0.095422372
0.041123465 0.0053154342 0.10356873
0.042679906 0.0038237618 0.10700759
0.043482371 0.0020150833 0.10834995
0.044145923 -7.9894868e-05 0.10930797
0.0445357 -0.0020086642 0.10973854
0 0 0 1 0 0 0 1 0 0 0 1 0 0 0 0 0 764 1 0 0
