ply
format ascii 1.0
comment PCL generated
element vertex 346
property float x
property float y
property float z
element face 630
property list uchar int vertex_indices
end_header
-0.057543 0.028279 0.18886 
-0.058343 0.025624 0.19006 
-0.058609 0.022827 0.19156 
-0.058656 0.019986 0.19321 
-0.058794 0.017389 0.19468 
-0.058183 0.013252 0.19625 
-0.053601 0.031059 0.18522 
-0.054978 0.028485 0.18683 
-0.054867 0.025459 0.18752 
-0.055108 0.022674 0.18942 
-0.055641 0.019876 0.19151 
-0.056079 0.016722 0.19375 
-0.056193 0.013202 0.19519 
-0.056635 0.010044 0.19712 
-0.057024 0.0072933 0.19904 
-0.048247 0.03398 0.18147 
-0.049373 0.031537 0.18251 
-0.050667 0.028445 0.18356 
-0.051372 0.025333 0.1853 
-0.051488 0.022635 0.18795 
-0.051946 0.019781 0.19 
-0.052385 0.016577 0.19202 
-0.052973 0.012971 0.19385 
-0.054032 0.0090687 0.19625 
-0.055415 0.0055093 0.1989 
-0.05551 0.0022879 0.2016 
-0.055296 -0.0006597 0.20379 
-0.044832 0.036619 0.17942 
-0.045411 0.034356 0.18045 
-0.045955 0.031856 0.1816 
-0.046774 0.028973 0.1829 
-0.047822 0.025508 0.18511 
-0.048218 0.022635 0.18779 
-0.048572 0.019662 0.18974 
-0.049011 0.016497 0.19134 
-0.049829 0.012417 0.19333 
-0.05113 0.0080211 0.19591 
-0.052407 0.0036405 0.19711 
-0.053204 0.00040076 0.20044 
-0.052815 -0.002564 0.20416 
-0.052521 -0.0048838 0.20801 
-0.052542 -0.0064139 0.21158 
-0.041662 0.039315 0.17837 
-0.042359 0.037365 0.17929 
-0.042514 0.034748 0.18054 
-0.042911 0.032299 0.18195 
-0.043619 0.029523 0.18381 
-0.044616 0.025885 0.18579 
-0.044921 0.022687 0.18792 
-0.045083 0.019618 0.18941 
-0.045746 0.016116 0.19088 
-0.046711 0.012087 0.1926 
-0.04789 0.0071086 0.19543 
-0.048868 0.0020278 0.19638 
-0.049139 -0.0016353 0.19974 
-0.049239 -0.0033857 0.20407 
-0.049442 -0.0054519 0.20846 
-0.050252 -0.0072233 0.21242 
-0.050718 -0.0094276 0.21525 
-0.050972 -0.011809 0.21904 
-0.039495 0.040338 0.17793 
-0.039574 0.037743 0.17974 
-0.039862 0.035089 0.1811 
-0.040175 0.032489 0.18257 
-0.040566 0.029393 0.18444 
-0.041632 0.025741 0.18632 
-0.041877 0.022703 0.18806 
-0.042296 0.019756 0.18924 
-0.042512 0.016488 0.19046 
-0.043196 0.012224 0.19195 
-0.045166 0.0060859 0.195 
-0.045301 0.00056949 0.19598 
-0.043529 -0.003729 0.19905 
-0.045351 -0.0043674 0.2045 
-0.046004 -0.0057952 0.20921 
-0.046729 -0.0069282 0.2131 
-0.047361 -0.0092347 0.21649 
-0.048308 -0.011992 0.22023 
-0.047857 -0.015231 0.22266 
-0.04676 -0.018708 0.22314 
-0.036454 0.042527 0.17655 
-0.036774 0.040998 0.17808 
-0.036824 0.038332 0.17975 
-0.037109 0.035397 0.18138 
-0.03728 0.032725 0.18345 
-0.037865 0.029115 0.1854 
-0.038459 0.025562 0.18688 
-0.038989 0.022663 0.18851 
-0.039507 0.01966 0.18992 
-0.039886 0.016275 0.19076 
-0.04023 0.012049 0.19173 
-0.042861 0.0054614 0.19457 
-0.042062 0.00082365 0.19725 
-0.040904 -0.0026419 0.20089 
-0.041684 -0.0045408 0.20537 
-0.042559 -0.0058663 0.20987 
-0.04342 -0.0078971 0.21327 
-0.043837 -0.010412 0.21571 
-0.044262 -0.012413 0.21879 
-0.044111 -0.016621 0.22147 
-0.044542 -0.020807 0.22494 
-0.043665 -0.023164 0.22705 
-0.033775 0.043177 0.17656 
-0.033676 0.041772 0.17808 
-0.03341 0.039336 0.17994 
-0.033578 0.036715 0.18153 
-0.03392 0.033457 0.18389 
-0.034608 0.029367 0.18681 
-0.03528 0.025785 0.18777 
-0.035964 0.02259 0.18927 
-0.036586 0.019228 0.19085 
-0.037028 0.015674 0.19199 
-0.037521 0.011254 0.19277 
-0.039836 0.0062932 0.19454 
-0.039181 0.0021448 0.19801 
-0.038507 -0.00057516 0.20185 
-0.038958 -0.0029307 0.20664 
-0.039002 -0.0060936 0.21082 
-0.039799 -0.0083386 0.21391 
-0.040118 -0.010749 0.21589 
-0.040078 -0.014225 0.21875 
-0.04043 -0.018094 0.22118 
-0.040704 -0.021463 0.22444 
-0.040145 -0.023201 0.22742 
-0.030811 0.043404 0.17706 
-0.030613 0.042016 0.17848 
-0.030522 0.039644 0.18049 
-0.030537 0.037182 0.18257 
-0.030688 0.034022 0.18499 
-0.031584 0.030117 0.18782 
-0.032015 0.026621 0.18899 
-0.032842 0.022594 0.19035 
-0.033661 0.018685 0.19209 
-0.034137 0.015101 0.1933 
-0.03481 0.010737 0.1938 
-0.036767 0.0066738 0.1951 
-0.035989 0.0031903 0.19878 
-0.035616 0.0010155 0.20286 
-0.036225 -0.0014337 0.20742 
-0.036463 -0.0045478 0.21153 
-0.036642 -0.0076055 0.2151 
-0.036925 -0.010309 0.21728 
-0.036868 -0.013907 0.2197 
-0.037125 -0.017768 0.22173 
-0.037091 -0.021092 0.2241 
-0.036185 -0.023058 0.22707 
-0.027859 0.043459 0.17752 
-0.027652 0.042085 0.17886 
-0.027758 0.039668 0.1807 
-0.027567 0.037323 0.18326 
-0.027553 0.034274 0.1859 
-0.028313 0.031072 0.18848 
-0.028954 0.027566 0.1904 
-0.029699 0.02348 0.19176 
-0.030812 0.018536 0.19384 
-0.031191 0.014081 0.19539 
-0.031938 0.010549 0.19521 
-0.032893 0.0075912 0.1959 
-0.032514 0.005014 0.19992 
-0.031988 0.0027274 0.2039 
-0.033027 -0.00063075 0.20826 
-0.033613 -0.0035908 0.21226 
-0.033666 -0.0069375 0.21686 
-0.033934 -0.010037 0.21874 
-0.034153 -0.013773 0.22112 
-0.034205 -0.017423 0.22354 
-0.033746 -0.020513 0.22565 
-0.032986 -0.02278 0.2279 
-0.024831 0.043589 0.17813 
-0.024638 0.042359 0.17954 
-0.024538 0.039842 0.18102 
-0.024476 0.037352 0.18354 
-0.024487 0.034626 0.18629 
-0.025164 0.031714 0.18879 
-0.025928 0.028552 0.19166 
-0.026721 0.024126 0.19388 
-0.027585 0.018112 0.19617 
-0.027981 0.013363 0.19708 
-0.027628 0.010304 0.19732 
-0.028922 0.008764 0.19797 
-0.028991 0.0060495 0.20224 
-0.029153 0.0033465 0.20558 
-0.029898 8.9461e-05 0.21051 
-0.02983 -0.0032864 0.21512 
-0.030441 -0.0069775 0.21896 
-0.030811 -0.010069 0.22072 
-0.031126 -0.013405 0.22254 
-0.030896 -0.016884 0.22489 
-0.029939 -0.019947 0.2269 
-0.030184 -0.022725 0.22856 
-0.030718 -0.025362 0.23172 
-0.021654 0.044086 0.17881 
-0.021327 0.042648 0.18017 
-0.02146 0.039896 0.18194 
-0.021345 0.037147 0.18389 
-0.021592 0.034684 0.18698 
-0.022179 0.032002 0.18936 
-0.022708 0.029335 0.19221 
-0.023681 0.025845 0.195 
-0.02444 0.018786 0.19856 
-0.024274 0.013722 0.19933 
-0.024223 0.010755 0.20003 
-0.025152 0.008605 0.20084 
-0.025827 0.0063082 0.20403 
-0.026487 0.0038425 0.2078 
-0.026285 0.00057342 0.21252 
-0.026222 -0.0027696 0.21684 
-0.027129 -0.0063056 0.22069 
-0.027431 -0.0096264 0.22251 
-0.027312 -0.012681 0.22422 
-0.027097 -0.016104 0.22664 
-0.026452 -0.019285 0.2275 
-0.027047 -0.022882 0.22884 
-0.026897 -0.026477 0.23282 
-0.018345 0.04237 0.18134 
-0.018362 0.040242 0.18339 
-0.018371 0.037517 0.18499 
-0.01876 0.03481 0.18742 
-0.019241 0.032154 0.18981 
-0.019639 0.029464 0.19224 
-0.020513 0.02597 0.19611 
-0.021044 0.020916 0.19934 
-0.020981 0.015914 0.20151 
-0.020936 0.011861 0.20237 
-0.021364 0.009351 0.20373 
-0.022513 0.0070524 0.20625 
-0.02294 0.0043775 0.2107 
-0.022452 0.001254 0.21474 
-0.022619 -0.0018087 0.21833 
-0.023241 -0.0050501 0.22262 
-0.023573 -0.008842 0.22436 
-0.02289 -0.01253 0.22546 
-0.022164 -0.015881 0.22792 
-0.022302 -0.018948 0.22808 
-0.022648 -0.022879 0.22838 
-0.02296 -0.026942 0.23338 
-0.015395 0.04012 0.18444 
-0.01554 0.037596 0.18606 
-0.015949 0.034984 0.1884 
-0.016541 0.03202 0.19064 
-0.017016 0.029267 0.1927 
-0.017358 0.025851 0.19709 
-0.018053 0.021483 0.20047 
-0.017781 0.017612 0.20255 
-0.017719 0.01339 0.20385 
-0.017895 0.010333 0.20628 
-0.018926 0.0080699 0.2091 
-0.019153 0.0052202 0.21271 
-0.018803 0.0022171 0.21618 
-0.018626 -0.00088537 0.22001 
-0.01878 -0.0037998 0.22425 
-0.01917 -0.007809 0.22611 
-0.018444 -0.011918 0.22668 
-0.018385 -0.015587 0.22764 
-0.019274 -0.01943 0.22882 
-0.019279 -0.023317 0.23046 
-0.019304 -0.027041 0.23509 
-0.013059 0.037318 0.18748 
-0.013451 0.034549 0.1898 
-0.01386 0.031595 0.19162 
-0.014155 0.028697 0.19332 
-0.014154 0.025872 0.19657 
-0.014797 0.022294 0.20083 
-0.01494 0.018467 0.20384 
-0.014645 0.014482 0.20627 
-0.014476 0.011348 0.20856 
-0.014657 0.0088399 0.21131 
-0.014769 0.0062692 0.21411 
-0.014766 0.0028844 0.21739 
-0.014666 -0.00030549 0.22153 
-0.01488 -0.0034393 0.2248 
-0.014779 -0.0075598 0.22615 
-0.014523 -0.012332 0.22713 
-0.014793 -0.016579 0.22848 
-0.015451 -0.020305 0.23034 
-0.015645 -0.023818 0.23292 
-0.015301 -0.02688 0.23664 
-0.011053 0.034483 0.19046 
-0.010738 0.03172 0.19223 
-0.010945 0.028683 0.19392 
-0.010909 0.025792 0.19675 
-0.011436 0.022888 0.20087 
-0.011955 0.019424 0.20484 
-0.011403 0.015924 0.20723 
-0.011027 0.012208 0.20936 
-0.010732 0.0092318 0.21192 
-0.01066 0.0064382 0.21511 
-0.010774 0.003383 0.2182 
-0.010863 -9.8654e-06 0.22195 
-0.011046 -0.0033587 0.22432 
-0.011308 -0.0076425 0.22546 
-0.011103 -0.012285 0.22612 
-0.011008 -0.0167 0.2291 
-0.011144 -0.020348 0.23096 
-0.011524 -0.024308 0.23483 
-0.012123 -0.026639 0.23724 
-0.0076444 0.031612 0.19342 
-0.0075918 0.028847 0.19551 
-0.0076139 0.025604 0.19805 
-0.0080824 0.022855 0.20102 
-0.008256 0.020069 0.20485 
-0.0078912 0.016497 0.20746 
-0.0074097 0.012997 0.20963 
-0.0070819 0.0097186 0.21211 
-0.0070087 0.006558 0.21567 
-0.0069988 0.0033367 0.21893 
-0.0071808 -0.00019118 0.22218 
-0.0071495 -0.0036937 0.2231 
-0.0075691 -0.0078024 0.22495 
-0.0076979 -0.012642 0.22555 
-0.0073596 -0.016888 0.22911 
-0.0077921 -0.020521 0.2312 
-0.0084464 -0.02352 0.23353 
-0.0051694 0.030996 0.19485 
-0.003944 0.028625 0.19667 
-0.0040713 0.025304 0.19832 
-0.0044621 0.022811 0.20074 
-0.0043456 0.020155 0.20391 
-0.0044566 0.016606 0.20685 
-0.0038332 0.013175 0.20959 
-0.0034939 0.010169 0.21234 
-0.003357 0.0069597 0.21569 
-0.0034441 0.0035872 0.21851 
-0.0033164 -2.0389e-05 0.22164 
-0.0033237 -0.0040599 0.22259 
-0.0037211 -0.0083518 0.22445 
-0.0043815 -0.012844 0.22542 
-0.0049488 -0.01651 0.22846 
-0.00088128 0.027607 0.19726 
-0.00075822 0.025086 0.19814 
-0.00097394 0.022691 0.20024 
-0.00097022 0.020097 0.20321 
-0.00083622 0.01659 0.20597 
-0.00028933 0.013396 0.20916 
8.915e-05 0.01037 0.2121 
0.00030444 0.0071946 0.21495 
-6.4024e-05 0.0039529 0.21741 
0.00034071 0.00022084 0.2201 
-9.9837e-05 -0.0037944 0.22242 
-0.0014993 -0.0077561 0.22493 
0.002769 0.024928 0.19832 
0.0030402 0.02246 0.2003 
0.0028074 0.01969 0.2026 
0.0026848 0.016587 0.20573 
0.0033169 0.013246 0.20849 
0.0029508 0.010659 0.21111 
3 9 1 8
3 8 19 9
3 1 7 8
3 9 2 1
3 19 20 9
3 8 18 19
3 7 17 8
3 9 10 2
3 20 10 9
3 20 21 10
3 19 33 20
3 18 32 19
3 8 17 18
3 17 31 18
3 7 6 17
3 10 3 2
3 21 11 10
3 20 34 21
3 33 34 20
3 33 50 34
3 19 32 33
3 32 49 33
3 18 31 32
3 31 47 32
3 17 30 31
3 6 16 17
3 10 11 3
3 11 4 3
3 21 22 11
3 34 22 21
3 34 35 22
3 50 35 34
3 50 51 35
3 33 49 50
3 49 68 50
3 32 48 49
3 47 48 32
3 47 65 48
3 31 30 47
3 30 46 47
3 17 16 30
3 16 29 30
3 11 12 4
3 22 12 11
3 22 23 12
3 35 36 22
3 51 36 35
3 51 52 36
3 50 69 51
3 68 69 50
3 68 89 69
3 49 67 68
3 48 67 49
3 48 66 67
3 65 66 48
3 65 86 66
3 47 64 65
3 46 64 47
3 46 45 64
3 30 29 46
3 29 45 46
3 29 28 45
3 16 15 29
3 12 5 4
3 23 13 12
3 22 36 23
3 36 37 23
3 52 37 36
3 52 53 37
3 51 69 52
3 69 70 52
3 89 90 69
3 68 88 89
3 67 88 68
3 67 87 88
3 66 87 67
3 66 86 87
3 86 108 87
3 65 85 86
3 64 85 65
3 64 84 85
3 45 63 64
3 28 44 45
3 29 15 28
3 15 27 28
3 12 13 5
3 23 14 13
3 37 24 23
3 53 38 37
3 52 70 53
3 70 71 53
3 69 90 70
3 90 91 70
3 89 111 90
3 88 110 89
3 87 109 88
3 108 109 87
3 108 130 109
3 86 85 108
3 85 107 108
3 84 106 85
3 64 63 84
3 63 83 84
3 45 44 63
3 44 62 63
3 28 27 44
3 27 43 44
3 23 24 14
3 24 25 14
3 37 38 24
3 38 25 24
3 38 26 25
3 53 54 38
3 71 54 53
3 71 72 54
3 70 91 71
3 91 92 71
3 90 112 91
3 111 112 90
3 111 133 112
3 89 110 111
3 110 132 111
3 88 109 110
3 109 131 110
3 130 131 109
3 130 152 131
3 108 129 130
3 107 129 108
3 107 128 129
3 85 106 107
3 106 128 107
3 106 127 128
3 84 83 106
3 83 105 106
3 63 62 83
3 62 61 83
3 44 43 62
3 43 61 62
3 43 42 61
3 27 42 43
3 38 39 26
3 71 92 72
3 92 93 72
3 91 113 92
3 112 113 91
3 112 134 113
3 133 134 112
3 133 155 134
3 111 132 133
3 132 154 133
3 110 131 132
3 131 153 132
3 152 153 131
3 152 174 153
3 130 151 152
3 129 151 130
3 129 128 151
3 128 150 151
3 127 149 128
3 106 105 127
3 105 126 127
3 83 82 105
3 61 82 83
3 61 60 82
3 42 60 61
3 93 73 72
3 92 114 93
3 113 114 92
3 113 135 114
3 134 135 113
3 134 156 135
3 155 156 134
3 155 177 156
3 133 154 155
3 154 176 155
3 132 153 154
3 153 175 154
3 174 175 153
3 174 197 175
3 152 173 174
3 151 173 152
3 151 150 173
3 150 172 173
3 128 149 150
3 149 171 150
3 127 148 149
3 126 148 127
3 126 125 148
3 105 104 126
3 82 104 105
3 82 103 104
3 60 81 82
3 73 55 72
3 93 94 73
3 114 115 93
3 135 136 114
3 156 157 135
3 177 178 156
3 155 176 177
3 176 200 177
3 154 175 176
3 175 198 176
3 197 198 175
3 197 219 198
3 174 196 197
3 173 196 174
3 173 195 196
3 172 195 173
3 172 194 195
3 150 171 172
3 171 194 172
3 171 170 194
3 149 148 171
3 148 170 171
3 148 147 170
3 125 147 148
3 125 146 147
3 126 104 125
3 104 103 125
3 103 102 125
3 82 81 103
3 81 80 103
3 60 80 81
3 73 56 55
3 94 74 73
3 93 116 94
3 115 116 93
3 115 138 116
3 114 136 115
3 136 137 115
3 135 157 136
3 157 158 136
3 156 178 157
3 178 179 157
3 177 200 178
3 200 201 178
3 176 199 200
3 198 199 176
3 198 221 199
3 219 220 198
3 197 196 219
3 196 218 219
3 195 217 196
3 194 217 195
3 194 216 217
3 170 193 194
3 147 169 170
3 146 168 147
3 125 124 146
3 102 124 125
3 103 80 102
3 56 40 55
3 73 74 56
3 74 57 56
3 94 95 74
3 116 117 94
3 138 139 116
3 115 137 138
3 137 160 138
3 136 159 137
3 158 159 136
3 158 180 159
3 157 179 158
3 179 180 158
3 179 202 180
3 178 201 179
3 201 202 179
3 201 223 202
3 200 223 201
3 200 222 223
3 199 222 200
3 199 221 222
3 221 243 222
3 198 220 221
3 220 241 221
3 219 240 220
3 218 240 219
3 218 239 240
3 196 217 218
3 217 238 218
3 216 237 217
3 194 193 216
3 193 215 216
3 170 192 193
3 169 192 170
3 169 191 192
3 147 168 169
3 168 191 169
3 40 39 55
3 56 41 40
3 57 41 56
3 57 58 41
3 74 75 57
3 95 75 74
3 95 96 75
3 94 117 95
3 117 118 95
3 116 139 117
3 139 140 117
3 138 161 139
3 160 161 138
3 160 182 161
3 137 159 160
3 159 181 160
3 180 181 159
3 180 203 181
3 202 203 180
3 202 224 203
3 223 224 202
3 223 245 224
3 222 244 223
3 243 244 222
3 243 263 244
3 221 242 243
3 241 242 221
3 241 262 242
3 220 240 241
3 240 261 241
3 239 260 240
3 218 238 239
3 238 258 239
3 217 237 238
3 237 257 238
3 216 236 237
3 215 236 216
3 215 214 236
3 193 214 215
3 193 192 214
3 192 191 214
3 39 54 55
3 57 76 58
3 75 76 57
3 75 97 76
3 96 97 75
3 96 119 97
3 95 118 96
3 118 119 96
3 118 140 119
3 140 118 117
3 139 161 140
3 161 162 140
3 182 183 161
3 160 181 182
3 181 204 182
3 203 204 181
3 203 225 204
3 224 225 203
3 224 245 225
3 245 246 225
3 223 244 245
3 244 264 245
3 263 264 244
3 263 282 264
3 243 262 263
3 262 243 242
3 241 261 262
3 261 280 262
3 240 260 261
3 260 279 261
3 239 259 260
3 258 259 239
3 258 277 259
3 238 257 258
3 257 277 258
3 237 236 257
3 76 59 58
3 97 98 76
3 119 120 97
3 140 141 119
3 162 141 140
3 162 163 141
3 161 183 162
3 183 184 162
3 182 205 183
3 204 205 182
3 204 226 205
3 225 226 204
3 225 247 226
3 246 247 225
3 246 266 247
3 245 266 246
3 245 265 266
3 264 265 245
3 264 283 265
3 282 283 264
3 282 300 283
3 263 281 282
3 262 281 263
3 262 280 281
3 280 298 281
3 261 279 280
3 279 297 280
3 260 278 279
3 259 278 260
3 259 277 278
3 277 296 278
3 76 77 59
3 98 77 76
3 98 99 77
3 97 120 98
3 120 121 98
3 119 141 120
3 141 142 120
3 163 142 141
3 163 164 142
3 162 184 163
3 184 185 163
3 183 206 184
3 205 206 183
3 205 227 206
3 226 227 205
3 226 247 227
3 247 248 227
3 266 267 247
3 265 285 266
3 283 284 265
3 300 301 283
3 282 299 300
3 281 299 282
3 281 298 299
3 298 316 299
3 280 297 298
3 297 314 298
3 279 296 297
3 296 279 278
3 77 78 59
3 99 78 77
3 99 79 78
3 98 121 99
3 121 122 99
3 120 142 121
3 142 143 121
3 164 143 142
3 164 165 143
3 163 185 164
3 185 186 164
3 184 207 185
3 206 207 184
3 206 228 207
3 227 228 206
3 227 248 228
3 248 249 228
3 247 267 248
3 267 268 248
3 266 285 267
3 285 286 267
3 265 284 285
3 284 303 285
3 283 302 284
3 301 302 283
3 301 319 302
3 300 318 301
3 299 317 300
3 316 317 299
3 316 331 317
3 298 315 316
3 314 315 298
3 314 328 315
3 297 313 314
3 296 313 297
3 99 100 79
3 122 100 99
3 122 101 100
3 121 144 122
3 143 144 121
3 143 165 144
3 165 166 144
3 164 186 165
3 186 187 165
3 185 208 186
3 207 208 185
3 207 229 208
3 228 229 207
3 228 249 229
3 249 250 229
3 248 268 249
3 268 269 249
3 267 286 268
3 286 287 268
3 285 303 286
3 303 304 286
3 284 302 303
3 302 319 303
3 319 320 303
3 301 318 319
3 318 333 319
3 300 317 318
3 317 332 318
3 331 332 317
3 331 343 332
3 316 330 331
3 315 330 316
3 315 329 330
3 328 329 315
3 328 340 329
3 100 101 79
3 122 123 101
3 144 145 122
3 166 145 144
3 166 167 145
3 165 187 166
3 187 188 166
3 186 209 187
3 208 209 186
3 208 230 209
3 229 230 208
3 229 250 230
3 250 251 230
3 249 269 250
3 269 270 250
3 268 287 269
3 287 288 269
3 286 305 287
3 304 305 286
3 304 322 305
3 303 321 304
3 320 321 303
3 320 335 321
3 319 334 320
3 333 334 319
3 333 345 334
3 318 332 333
3 332 344 333
3 343 344 332
3 331 342 343
3 330 342 331
3 330 341 342
3 329 340 330
3 340 341 330
3 122 145 123
3 166 189 167
3 188 189 166
3 188 212 189
3 187 210 188
3 209 210 187
3 209 231 210
3 230 231 209
3 230 251 231
3 251 252 231
3 250 271 251
3 270 271 250
3 270 289 271
3 269 289 270
3 269 288 289
3 288 307 289
3 287 305 288
3 305 306 288
3 322 323 305
3 304 321 322
3 321 336 322
3 335 336 321
3 320 334 335
3 334 345 335
3 333 344 345
3 189 190 167
3 212 190 189
3 212 213 190
3 188 211 212
3 210 211 188
3 210 232 211
3 231 232 210
3 231 252 232
3 252 253 232
3 251 271 252
3 271 272 252
3 289 290 271
3 307 290 289
3 307 308 290
3 288 306 307
3 306 324 307
3 305 323 306
3 323 324 306
3 323 338 324
3 322 337 323
3 336 337 322
3 211 234 212
3 232 233 211
3 253 233 232
3 253 254 233
3 252 272 253
3 272 273 253
3 271 291 272
3 290 291 271
3 290 308 291
3 308 309 291
3 307 325 308
3 324 325 307
3 324 339 325
3 338 339 324
3 323 337 338
3 211 233 234
3 233 254 234
3 254 255 234
3 253 273 254
3 273 274 254
3 272 291 273
3 291 292 273
3 309 292 291
3 309 310 292
3 308 325 309
3 325 326 309
3 339 326 325
3 254 274 255
3 274 275 255
3 273 292 274
3 292 293 274
3 310 293 292
3 310 311 293
3 309 327 310
3 326 327 309
3 275 256 255
3 274 293 275
3 293 294 275
3 311 312 293
3 310 327 311
3 256 235 255
3 275 276 256
3 294 295 275
3 293 312 294
3 275 295 276
3 7 0 6
3 72 55 54
3 38 54 39
3 39 40 26
3 314 313 328
3 212 234 213
3 234 235 213
3 235 234 255
3 7 1 0
3 294 312 295
