ply
format ascii 1.0
comment PCL generated
element vertex 346
property float x
property float y
property float z
element face 630
property list uchar int vertex_indices
end_header
-0.059201 0.02739 0.18883 
-0.059844 0.024528 0.19002 
-0.060111 0.021617 0.19141 
-0.060167 0.018582 0.193 
-0.060261 0.015541 0.19426 
-0.058941 0.011354 0.19713 
-0.055191 0.030387 0.18586 
-0.056579 0.027863 0.18735 
-0.05633 0.024643 0.18824 
-0.056512 0.021689 0.18999 
-0.057109 0.018664 0.19178 
-0.057542 0.01516 0.19376 
-0.057177 0.011573 0.19628 
-0.056771 0.0081663 0.1987 
-0.056476 0.0053046 0.20061 
-0.048629 0.032373 0.18262 
-0.050003 0.030368 0.18367 
-0.051863 0.027794 0.18482 
-0.052599 0.02465 0.18671 
-0.052632 0.021765 0.18897 
-0.053245 0.018804 0.19074 
-0.053704 0.015463 0.19273 
-0.0541 0.011803 0.19543 
-0.054307 0.0074187 0.19832 
-0.054893 0.0036258 0.20051 
-0.054719 0.00047739 0.20292 
-0.054663 -0.0021648 0.20492 
-0.045097 0.034818 0.18042 
-0.045705 0.032682 0.18163 
-0.046368 0.030455 0.183 
-0.04744 0.028109 0.18451 
-0.048864 0.024817 0.18692 
-0.049247 0.021695 0.18915 
-0.04971 0.018709 0.19101 
-0.050271 0.015646 0.19286 
-0.051077 0.01183 0.1955 
-0.051358 0.0066648 0.19779 
-0.051735 0.0020255 0.19829 
-0.052341 -0.0011648 0.20158 
-0.05215 -0.003887 0.20501 
-0.052242 -0.0059446 0.2088 
-0.052842 -0.0071358 0.21253 
-0.042088 0.037834 0.17893 
-0.042677 0.035733 0.18009 
-0.042839 0.033261 0.18159 
-0.043348 0.030996 0.1833 
-0.04412 0.028474 0.18537 
-0.045257 0.024823 0.18794 
-0.045537 0.021585 0.19003 
-0.045849 0.018799 0.19166 
-0.046757 0.015574 0.1934 
-0.048005 0.012041 0.19537 
-0.047824 0.0061394 0.19636 
-0.047361 0.00077798 0.19565 
-0.047133 -0.0034108 0.19894 
-0.048536 -0.0045973 0.20514 
-0.049223 -0.006426 0.2096 
-0.050674 -0.0079337 0.21354 
-0.051677 -0.0099128 0.21624 
-0.052544 -0.012027 0.22022 
-0.040168 0.039288 0.17838 
-0.040051 0.036441 0.18037 
-0.04029 0.033829 0.18206 
-0.040676 0.031397 0.1839 
-0.041208 0.02839 0.18626 
-0.042099 0.024515 0.18887 
-0.042242 0.021689 0.19072 
-0.042786 0.01909 0.19206 
-0.04309 0.016238 0.19365 
-0.044049 0.012362 0.19541 
-0.043843 0.0052689 0.19459 
-0.041241 -0.0007349 0.19327 
-0.038394 -0.0054787 0.19545 
-0.04465 -0.0061298 0.2053 
-0.045955 -0.0069022 0.21041 
-0.047302 -0.0075342 0.21464 
-0.048721 -0.0093405 0.2181 
-0.05041 -0.011822 0.22175 
-0.050411 -0.014523 0.22438 
-0.049403 -0.016672 0.22519 
-0.037325 0.042071 0.1771 
-0.037477 0.040464 0.17856 
-0.037485 0.037569 0.18029 
-0.0377 0.034314 0.18241 
-0.037876 0.031861 0.18483 
-0.038527 0.027919 0.18758 
-0.038896 0.024292 0.18945 
-0.039319 0.021604 0.19113 
-0.039597 0.01892 0.19261 
-0.039737 0.015853 0.19387 
-0.039968 0.011864 0.19493 
-0.040225 0.0045909 0.19371 
-0.037848 -0.00044542 0.19488 
-0.036988 -0.0044324 0.19837 
-0.04114 -0.0070421 0.20571 
-0.042646 -0.0074214 0.21105 
-0.044249 -0.0082359 0.21578 
-0.045622 -0.0092593 0.21919 
-0.046681 -0.010446 0.22224 
-0.0471 -0.014176 0.22527 
-0.047514 -0.019198 0.22824 
-0.046358 -0.022112 0.22945 
-0.034694 0.043089 0.17696 
-0.034423 0.041667 0.17844 
-0.033855 0.039231 0.17984 
-0.033806 0.036715 0.18147 
-0.034456 0.032913 0.18499 
-0.035169 0.028039 0.18899 
-0.035748 0.024572 0.19022 
-0.036255 0.021486 0.19185 
-0.036591 0.018528 0.19314 
-0.036764 0.015248 0.19428 
-0.036918 0.010962 0.19498 
-0.037092 0.0058131 0.19422 
-0.035869 0.0010604 0.19672 
-0.03586 -0.0021937 0.20045 
-0.038249 -0.0046413 0.20607 
-0.039368 -0.0079176 0.21282 
-0.041166 -0.008801 0.21724 
-0.042159 -0.009846 0.22008 
-0.043026 -0.011608 0.22368 
-0.043967 -0.015758 0.22519 
-0.043894 -0.019808 0.2271 
-0.042817 -0.022317 0.22898 
-0.031681 0.043492 0.17735 
-0.031338 0.042144 0.17881 
-0.030954 0.039737 0.18072 
-0.030756 0.037337 0.18268 
-0.030862 0.033474 0.18591 
-0.031931 0.028816 0.18961 
-0.032514 0.025434 0.19101 
-0.033153 0.021638 0.1927 
-0.033666 0.018148 0.19385 
-0.033847 0.014734 0.19505 
-0.034295 0.010433 0.19553 
-0.034753 0.0065389 0.19551 
-0.033791 0.0025425 0.19854 
-0.034017 -0.00018609 0.20233 
-0.035767 -0.0026768 0.20696 
-0.036909 -0.0062342 0.21246 
-0.038295 -0.007959 0.21832 
-0.039345 -0.0092962 0.22139 
-0.039945 -0.011668 0.22443 
-0.040543 -0.015745 0.2249 
-0.040467 -0.019627 0.22599 
-0.038955 -0.022254 0.22786 
-0.028731 0.043625 0.17828 
-0.028315 0.042292 0.17955 
-0.028172 0.039892 0.18119 
-0.027785 0.037482 0.18361 
-0.027412 0.0335 0.18647 
-0.028225 0.0298 0.18955 
-0.029244 0.026331 0.19192 
-0.030072 0.022515 0.19338 
-0.030695 0.018016 0.19494 
-0.030688 0.013785 0.19665 
-0.031539 0.010386 0.19681 
-0.03205 0.0079576 0.19704 
-0.031497 0.0048834 0.20036 
-0.031253 0.0021985 0.20407 
-0.032932 -0.0016585 0.20832 
-0.034085 -0.0048822 0.21259 
-0.035612 -0.0070777 0.2199 
-0.036272 -0.0092007 0.22286 
-0.037282 -0.012283 0.22516 
-0.037409 -0.016242 0.22597 
-0.036847 -0.019807 0.22677 
-0.035247 -0.022137 0.22829 
-0.025744 0.043967 0.17907 
-0.025442 0.042738 0.18032 
-0.024913 0.040266 0.18167 
-0.024552 0.03715 0.18372 
-0.024223 0.033977 0.18611 
-0.024848 0.030783 0.18887 
-0.025798 0.027276 0.19237 
-0.026954 0.022933 0.19481 
-0.027218 0.017726 0.19692 
-0.027444 0.013363 0.1986 
-0.027646 0.011054 0.19933 
-0.028825 0.0095192 0.19959 
-0.028907 0.0064397 0.20331 
-0.029078 0.0033708 0.20637 
-0.030358 -0.00078018 0.21113 
-0.03068 -0.0041426 0.2163 
-0.032001 -0.0076092 0.22111 
-0.032884 -0.010143 0.22346 
-0.033964 -0.01277 0.22553 
-0.033855 -0.016493 0.22671 
-0.032369 -0.019569 0.22765 
-0.03191 -0.02195 0.22872 
-0.031593 -0.024585 0.23202 
-0.022578 0.0449 0.17986 
-0.022027 0.043248 0.1811 
-0.021805 0.040089 0.18239 
-0.021356 0.036868 0.18368 
-0.021383 0.034092 0.18659 
-0.021762 0.031302 0.18905 
-0.022208 0.028528 0.19179 
-0.023125 0.024768 0.19496 
-0.024061 0.019141 0.19935 
-0.024595 0.014463 0.20158 
-0.024851 0.012007 0.2028 
-0.025636 0.0097123 0.20322 
-0.026363 0.0068622 0.20588 
-0.027126 0.0037432 0.20919 
-0.02707 0.00013919 0.21396 
-0.026682 -0.003804 0.2176 
-0.027269 -0.0082795 0.2201 
-0.028292 -0.011162 0.22217 
-0.028461 -0.013483 0.22439 
-0.028138 -0.016192 0.22724 
-0.027317 -0.018771 0.22774 
-0.028007 -0.022176 0.22892 
-0.02742 -0.025284 0.23292 
-0.018855 0.042836 0.1823 
-0.018706 0.040378 0.18393 
-0.018505 0.037321 0.1849 
-0.018655 0.03424 0.18695 
-0.018843 0.031599 0.18926 
-0.019079 0.028952 0.19153 
-0.019729 0.025556 0.19561 
-0.020411 0.021393 0.19965 
-0.0209 0.016781 0.20324 
-0.021524 0.013057 0.20526 
-0.022171 0.010456 0.20649 
-0.023315 0.0075195 0.20862 
-0.023769 0.0042873 0.21255 
-0.023047 0.00075667 0.21627 
-0.022744 -0.0032009 0.21842 
-0.022733 -0.0074829 0.22069 
-0.023387 -0.010556 0.22231 
-0.022812 -0.013275 0.22488 
-0.022099 -0.015691 0.22784 
-0.022341 -0.018479 0.2281 
-0.023046 -0.022241 0.22847 
-0.02319 -0.02588 0.23331 
-0.015701 0.04045 0.1851 
-0.015724 0.037679 0.18633 
-0.015802 0.034471 0.18803 
-0.016326 0.031351 0.1901 
-0.016595 0.028816 0.19222 
-0.016667 0.025789 0.19661 
-0.017441 0.02196 0.20051 
-0.017301 0.018476 0.20333 
-0.01767 0.01446 0.20582 
-0.018348 0.011316 0.20871 
-0.01971 0.0080738 0.21116 
-0.019642 0.0048645 0.21432 
-0.01909 0.0013897 0.21724 
-0.01845 -0.0023959 0.2197 
-0.018341 -0.0059344 0.22281 
-0.018751 -0.0092809 0.22415 
-0.018313 -0.012263 0.22593 
-0.018295 -0.015549 0.22744 
-0.019366 -0.019134 0.22866 
-0.01954 -0.022704 0.23024 
-0.019429 -0.026014 0.23473 
-0.013293 0.037408 0.1876 
-0.01351 0.03405 0.18941 
-0.013643 0.031199 0.19117 
-0.013767 0.028538 0.19299 
-0.013468 0.02615 0.19639 
-0.014211 0.022836 0.20078 
-0.014332 0.019167 0.20413 
-0.014079 0.015576 0.20732 
-0.014271 0.012152 0.2097 
-0.014744 0.0084999 0.21218 
-0.014913 0.0055242 0.21499 
-0.01483 0.0020018 0.21785 
-0.014592 -0.0015614 0.22118 
-0.014764 -0.0049096 0.22374 
-0.014697 -0.0084209 0.22523 
-0.014545 -0.012406 0.22686 
-0.014851 -0.016399 0.22869 
-0.015533 -0.019885 0.23081 
-0.015838 -0.023102 0.23319 
-0.01556 -0.025656 0.23677 
-0.011071 0.034207 0.18992 
-0.010473 0.031467 0.19166 
-0.010382 0.028854 0.19377 
-0.010121 0.026497 0.19697 
-0.010791 0.023615 0.20094 
-0.011204 0.019908 0.20463 
-0.010644 0.016607 0.2074 
-0.010558 0.012707 0.20946 
-0.010345 0.0090921 0.21188 
-0.010537 0.0057681 0.21522 
-0.010836 0.0024885 0.2183 
-0.010783 -0.001083 0.22174 
-0.011051 -0.0042568 0.22384 
-0.011303 -0.0080148 0.2251 
-0.011083 -0.012133 0.2263 
-0.011166 -0.016131 0.22975 
-0.011309 -0.019483 0.23213 
-0.011979 -0.023025 0.23578 
-0.012635 -0.025193 0.23809 
-0.0070029 0.031359 0.19254 
-0.006706 0.029078 0.19529 
-0.0068728 0.026625 0.19856 
-0.0074817 0.023833 0.20143 
-0.007782 0.020456 0.20475 
-0.0072893 0.017062 0.20747 
-0.0068214 0.013373 0.20948 
-0.0065292 0.0096848 0.21157 
-0.0066278 0.0058558 0.21517 
-0.0068666 0.0022477 0.21842 
-0.006961 -0.0012518 0.22151 
-0.007051 -0.0044901 0.22298 
-0.0075858 -0.0078231 0.22524 
-0.0076136 -0.012164 0.22636 
-0.0075336 -0.016091 0.23053 
-0.0081046 -0.019494 0.2329 
-0.0088677 -0.0222 0.23541 
-0.0042668 0.030948 0.19412 
-0.0028655 0.029319 0.19688 
-0.0031964 0.026752 0.19969 
-0.0039679 0.023951 0.20185 
-0.003933 0.020634 0.20443 
-0.00389 0.017157 0.20719 
-0.0031903 0.01347 0.20932 
-0.0028557 0.010048 0.21156 
-0.0028379 0.0061991 0.21455 
-0.0033142 0.0022025 0.21725 
-0.0031441 -0.0013743 0.22052 
-0.0032119 -0.0051416 0.22214 
-0.0037908 -0.0084854 0.22507 
-0.0044032 -0.012347 0.22688 
-0.0050552 -0.015651 0.23041 
0.00016832 0.028803 0.19827 
6.6225e-05 0.026677 0.20002 
-0.00042678 0.023904 0.20185 
-0.00056585 0.0206 0.20378 
-0.00029488 0.01687 0.20632 
0.00030914 0.013401 0.20891 
0.00072895 0.010128 0.21115 
0.00090827 0.00639 0.21342 
-4.8319e-05 0.0022838 0.21565 
0.00033436 -0.0017123 0.21844 
1.2714e-05 -0.0052683 0.22146 
-0.0014959 -0.0081093 0.22531 
0.0034088 0.026297 0.20032 
0.0035912 0.023315 0.20171 
0.0032724 0.020096 0.20319 
0.0032282 0.016638 0.20572 
0.0040512 0.012945 0.208 
0.0035683 0.010233 0.21017 
3 9 1 8
3 8 19 9
3 1 7 8
3 9 2 1
3 19 20 9
3 8 18 19
3 7 17 8
3 9 10 2
3 20 10 9
3 20 21 10
3 19 33 20
3 18 32 19
3 8 17 18
3 17 31 18
3 7 6 17
3 10 3 2
3 21 11 10
3 20 34 21
3 33 34 20
3 33 50 34
3 19 32 33
3 32 49 33
3 18 31 32
3 31 47 32
3 17 30 31
3 6 16 17
3 10 11 3
3 11 4 3
3 21 22 11
3 34 22 21
3 34 35 22
3 50 35 34
3 50 51 35
3 33 49 50
3 49 68 50
3 32 48 49
3 47 48 32
3 47 65 48
3 31 30 47
3 30 46 47
3 17 16 30
3 16 29 30
3 11 12 4
3 22 12 11
3 22 23 12
3 35 36 22
3 51 36 35
3 51 52 36
3 50 69 51
3 68 69 50
3 68 89 69
3 49 67 68
3 48 67 49
3 48 66 67
3 65 66 48
3 65 86 66
3 47 64 65
3 46 64 47
3 46 45 64
3 30 29 46
3 29 45 46
3 29 28 45
3 16 15 29
3 12 5 4
3 23 13 12
3 22 36 23
3 36 37 23
3 52 37 36
3 52 53 37
3 51 69 52
3 69 70 52
3 89 90 69
3 68 88 89
3 67 88 68
3 67 87 88
3 66 87 67
3 66 86 87
3 86 108 87
3 65 85 86
3 64 85 65
3 64 84 85
3 45 63 64
3 28 44 45
3 29 15 28
3 15 27 28
3 12 13 5
3 23 14 13
3 37 24 23
3 53 38 37
3 52 70 53
3 70 71 53
3 69 90 70
3 90 91 70
3 89 111 90
3 88 110 89
3 87 109 88
3 108 109 87
3 108 130 109
3 86 85 108
3 85 107 108
3 84 106 85
3 64 63 84
3 63 83 84
3 45 44 63
3 44 62 63
3 28 27 44
3 27 43 44
3 23 24 14
3 24 25 14
3 37 38 24
3 38 25 24
3 38 26 25
3 53 54 38
3 71 54 53
3 71 72 54
3 70 91 71
3 91 92 71
3 90 112 91
3 111 112 90
3 111 133 112
3 89 110 111
3 110 132 111
3 88 109 110
3 109 131 110
3 130 131 109
3 130 152 131
3 108 129 130
3 107 129 108
3 107 128 129
3 85 106 107
3 106 128 107
3 106 127 128
3 84 83 106
3 83 105 106
3 63 62 83
3 62 61 83
3 44 43 62
3 43 61 62
3 43 42 61
3 27 42 43
3 38 39 26
3 71 92 72
3 92 93 72
3 91 113 92
3 112 113 91
3 112 134 113
3 133 134 112
3 133 155 134
3 111 132 133
3 132 154 133
3 110 131 132
3 131 153 132
3 152 153 131
3 152 174 153
3 130 151 152
3 129 151 130
3 129 128 151
3 128 150 151
3 127 149 128
3 106 105 127
3 105 126 127
3 83 82 105
3 61 82 83
3 61 60 82
3 42 60 61
3 93 73 72
3 92 114 93
3 113 114 92
3 113 135 114
3 134 135 113
3 134 156 135
3 155 156 134
3 155 177 156
3 133 154 155
3 154 176 155
3 132 153 154
3 153 175 154
3 174 175 153
3 174 197 175
3 152 173 174
3 151 173 152
3 151 150 173
3 150 172 173
3 128 149 150
3 149 171 150
3 127 148 149
3 126 148 127
3 126 125 148
3 105 104 126
3 82 104 105
3 82 103 104
3 60 81 82
3 73 55 72
3 93 94 73
3 114 115 93
3 135 136 114
3 156 157 135
3 177 178 156
3 155 176 177
3 176 200 177
3 154 175 176
3 175 198 176
3 197 198 175
3 197 219 198
3 174 196 197
3 173 196 174
3 173 195 196
3 172 195 173
3 172 194 195
3 150 171 172
3 171 194 172
3 171 170 194
3 149 148 171
3 148 170 171
3 148 147 170
3 125 147 148
3 125 146 147
3 126 104 125
3 104 103 125
3 103 102 125
3 82 81 103
3 81 80 103
3 60 80 81
3 73 56 55
3 94 74 73
3 93 116 94
3 115 116 93
3 115 138 116
3 114 136 115
3 136 137 115
3 135 157 136
3 157 158 136
3 156 178 157
3 178 179 157
3 177 200 178
3 200 201 178
3 176 199 200
3 198 199 176
3 198 221 199
3 219 220 198
3 197 196 219
3 196 218 219
3 195 217 196
3 194 217 195
3 194 216 217
3 170 193 194
3 147 169 170
3 146 168 147
3 125 124 146
3 102 124 125
3 103 80 102
3 56 40 55
3 73 74 56
3 74 57 56
3 94 95 74
3 116 117 94
3 138 139 116
3 115 137 138
3 137 160 138
3 136 159 137
3 158 159 136
3 158 180 159
3 157 179 158
3 179 180 158
3 179 202 180
3 178 201 179
3 201 202 179
3 201 223 202
3 200 223 201
3 200 222 223
3 199 222 200
3 199 221 222
3 221 243 222
3 198 220 221
3 220 241 221
3 219 240 220
3 218 240 219
3 218 239 240
3 196 217 218
3 217 238 218
3 216 237 217
3 194 193 216
3 193 215 216
3 170 192 193
3 169 192 170
3 169 191 192
3 147 168 169
3 168 191 169
3 40 39 55
3 56 41 40
3 57 41 56
3 57 58 41
3 74 75 57
3 95 75 74
3 95 96 75
3 94 117 95
3 117 118 95
3 116 139 117
3 139 140 117
3 138 161 139
3 160 161 138
3 160 182 161
3 137 159 160
3 159 181 160
3 180 181 159
3 180 203 181
3 202 203 180
3 202 224 203
3 223 224 202
3 223 245 224
3 222 244 223
3 243 244 222
3 243 263 244
3 221 242 243
3 241 242 221
3 241 262 242
3 220 240 241
3 240 261 241
3 239 260 240
3 218 238 239
3 238 258 239
3 217 237 238
3 237 257 238
3 216 236 237
3 215 236 216
3 215 214 236
3 193 214 215
3 193 192 214
3 192 191 214
3 39 54 55
3 57 76 58
3 75 76 57
3 75 97 76
3 96 97 75
3 96 119 97
3 95 118 96
3 118 119 96
3 118 140 119
3 140 118 117
3 139 161 140
3 161 162 140
3 182 183 161
3 160 181 182
3 181 204 182
3 203 204 181
3 203 225 204
3 224 225 203
3 224 245 225
3 245 246 225
3 223 244 245
3 244 264 245
3 263 264 244
3 263 282 264
3 243 262 263
3 262 243 242
3 241 261 262
3 261 280 262
3 240 260 261
3 260 279 261
3 239 259 260
3 258 259 239
3 258 277 259
3 238 257 258
3 257 277 258
3 237 236 257
3 76 59 58
3 97 98 76
3 119 120 97
3 140 141 119
3 162 141 140
3 162 163 141
3 161 183 162
3 183 184 162
3 182 205 183
3 204 205 182
3 204 226 205
3 225 226 204
3 225 247 226
3 246 247 225
3 246 266 247
3 245 266 246
3 245 265 266
3 264 265 245
3 264 283 265
3 282 283 264
3 282 300 283
3 263 281 282
3 262 281 263
3 262 280 281
3 280 298 281
3 261 279 280
3 279 297 280
3 260 278 279
3 259 278 260
3 259 277 278
3 277 296 278
3 76 77 59
3 98 77 76
3 98 99 77
3 97 120 98
3 120 121 98
3 119 141 120
3 141 142 120
3 163 142 141
3 163 164 142
3 162 184 163
3 184 185 163
3 183 206 184
3 205 206 183
3 205 227 206
3 226 227 205
3 226 247 227
3 247 248 227
3 266 267 247
3 265 285 266
3 283 284 265
3 300 301 283
3 282 299 300
3 281 299 282
3 281 298 299
3 298 316 299
3 280 297 298
3 297 314 298
3 279 296 297
3 296 279 278
3 77 78 59
3 99 78 77
3 99 79 78
3 98 121 99
3 121 122 99
3 120 142 121
3 142 143 121
3 164 143 142
3 164 165 143
3 163 185 164
3 185 186 164
3 184 207 185
3 206 207 184
3 206 228 207
3 227 228 206
3 227 248 228
3 248 249 228
3 247 267 248
3 267 268 248
3 266 285 267
3 285 286 267
3 265 284 285
3 284 303 285
3 283 302 284
3 301 302 283
3 301 319 302
3 300 318 301
3 299 317 300
3 316 317 299
3 316 331 317
3 298 315 316
3 314 315 298
3 314 328 315
3 297 313 314
3 296 313 297
3 99 100 79
3 122 100 99
3 122 101 100
3 121 144 122
3 143 144 121
3 143 165 144
3 165 166 144
3 164 186 165
3 186 187 165
3 185 208 186
3 207 208 185
3 207 229 208
3 228 229 207
3 228 249 229
3 249 250 229
3 248 268 249
3 268 269 249
3 267 286 268
3 286 287 268
3 285 303 286
3 303 304 286
3 284 302 303
3 302 319 303
3 319 320 303
3 301 318 319
3 318 333 319
3 300 317 318
3 317 332 318
3 331 332 317
3 331 343 332
3 316 330 331
3 315 330 316
3 315 329 330
3 328 329 315
3 328 340 329
3 100 101 79
3 122 123 101
3 144 145 122
3 166 145 144
3 166 167 145
3 165 187 166
3 187 188 166
3 186 209 187
3 208 209 186
3 208 230 209
3 229 230 208
3 229 250 230
3 250 251 230
3 249 269 250
3 269 270 250
3 268 287 269
3 287 288 269
3 286 305 287
3 304 305 286
3 304 322 305
3 303 321 304
3 320 321 303
3 320 335 321
3 319 334 320
3 333 334 319
3 333 345 334
3 318 332 333
3 332 344 333
3 343 344 332
3 331 342 343
3 330 342 331
3 330 341 342
3 329 340 330
3 340 341 330
3 122 145 123
3 166 189 167
3 188 189 166
3 188 212 189
3 187 210 188
3 209 210 187
3 209 231 210
3 230 231 209
3 230 251 231
3 251 252 231
3 250 271 251
3 270 271 250
3 270 289 271
3 269 289 270
3 269 288 289
3 288 307 289
3 287 305 288
3 305 306 288
3 322 323 305
3 304 321 322
3 321 336 322
3 335 336 321
3 320 334 335
3 334 345 335
3 333 344 345
3 189 190 167
3 212 190 189
3 212 213 190
3 188 211 212
3 210 211 188
3 210 232 211
3 231 232 210
3 231 252 232
3 252 253 232
3 251 271 252
3 271 272 252
3 289 290 271
3 307 290 289
3 307 308 290
3 288 306 307
3 306 324 307
3 305 323 306
3 323 324 306
3 323 338 324
3 322 337 323
3 336 337 322
3 211 234 212
3 232 233 211
3 253 233 232
3 253 254 233
3 252 272 253
3 272 273 253
3 271 291 272
3 290 291 271
3 290 308 291
3 308 309 291
3 307 325 308
3 324 325 307
3 324 339 325
3 338 339 324
3 323 337 338
3 211 233 234
3 233 254 234
3 254 255 234
3 253 273 254
3 273 274 254
3 272 291 273
3 291 292 273
3 309 292 291
3 309 310 292
3 308 325 309
3 325 326 309
3 339 326 325
3 254 274 255
3 274 275 255
3 273 292 274
3 292 293 274
3 310 293 292
3 310 311 293
3 309 327 310
3 326 327 309
3 275 256 255
3 274 293 275
3 293 294 275
3 311 312 293
3 310 327 311
3 256 235 255
3 275 276 256
3 294 295 275
3 293 312 294
3 275 295 276
3 7 0 6
3 72 55 54
3 38 54 39
3 39 40 26
3 314 313 328
3 212 234 213
3 234 235 213
3 235 234 255
3 7 1 0
3 294 312 295
