ply
format ascii 1.0
comment PCL generated
element vertex 346
property float x
property float y
property float z
element face 630
property list uchar int vertex_indices
end_header
-0.058662 0.026751 0.18874 
-0.059179 0.024004 0.18991 
-0.059506 0.021369 0.1912 
-0.059776 0.018488 0.19273 
-0.060207 0.015772 0.19382 
-0.059002 0.012612 0.19667 
-0.054992 0.029322 0.18532 
-0.056256 0.027094 0.18715 
-0.055949 0.024044 0.18809 
-0.056107 0.021323 0.1898 
-0.056794 0.018541 0.19151 
-0.057451 0.015372 0.1934 
-0.05727 0.012668 0.19578 
-0.057128 0.009883 0.19795 
-0.057076 0.007164 0.19965 
-0.048403 0.030361 0.18018 
-0.049692 0.028655 0.1818 
-0.051722 0.026749 0.18405 
-0.052296 0.023906 0.18639 
-0.052176 0.021233 0.18875 
-0.052838 0.018515 0.19058 
-0.053428 0.015532 0.19257 
-0.054177 0.01274 0.19494 
-0.054897 0.0090582 0.19736 
-0.055783 0.0053318 0.19933 
-0.055714 0.0020329 0.20177 
-0.055742 -0.0007019 0.2039 
-0.044882 0.032859 0.17796 
-0.045379 0.030857 0.17935 
-0.046102 0.028751 0.18104 
-0.047107 0.026634 0.18286 
-0.048462 0.023942 0.18641 
-0.048672 0.021183 0.18908 
-0.049157 0.018411 0.19122 
-0.04982 0.01557 0.19306 
-0.051091 0.012635 0.19492 
-0.052183 0.0082533 0.19644 
-0.053167 0.0035951 0.19662 
-0.053688 0.00025477 0.20008 
-0.053223 -0.0025103 0.2037 
-0.053236 -0.0045709 0.20745 
-0.0538 -0.0059723 0.21114 
-0.042076 0.03619 0.17673 
-0.042565 0.034012 0.17794 
-0.04272 0.03184 0.1797 
-0.043162 0.029678 0.18164 
-0.043868 0.027178 0.18385 
-0.044814 0.023788 0.1874 
-0.045218 0.021149 0.19026 
-0.045439 0.018478 0.19197 
-0.046285 0.015324 0.19369 
-0.047888 0.012615 0.19481 
-0.04883 0.0076685 0.19448 
-0.049163 0.002423 0.19325 
-0.048853 -0.0020129 0.19702 
-0.049565 -0.0030829 0.20383 
-0.050229 -0.0049881 0.20826 
-0.051648 -0.0067737 0.21212 
-0.052696 -0.008945 0.21455 
-0.053743 -0.011259 0.2182 
-0.04029 0.0381 0.17652 
-0.040187 0.035212 0.17857 
-0.040379 0.03277 0.1805 
-0.040722 0.030493 0.18256 
-0.041083 0.02743 0.18524 
-0.041962 0.023778 0.1891 
-0.042252 0.021275 0.19122 
-0.042828 0.018795 0.19253 
-0.043104 0.015997 0.19393 
-0.043967 0.012519 0.19508 
-0.04518 0.0066001 0.19286 
-0.042988 0.00061443 0.19225 
-0.040334 -0.0042197 0.19501 
-0.045776 -0.004343 0.20415 
-0.047098 -0.005338 0.20915 
-0.048327 -0.0063974 0.21324 
-0.049815 -0.0085476 0.21636 
-0.051773 -0.011338 0.21981 
-0.051618 -0.014105 0.22205 
-0.050261 -0.016324 0.22181 
-0.037606 0.041266 0.17569 
-0.037785 0.039621 0.17703 
-0.037782 0.036708 0.17882 
-0.03804 0.03362 0.18122 
-0.038173 0.031333 0.18392 
-0.038553 0.027079 0.18744 
-0.039051 0.02383 0.19033 
-0.039636 0.021407 0.19219 
-0.040195 0.018965 0.1937 
-0.040604 0.016084 0.19481 
-0.041163 0.012269 0.19529 
-0.042055 0.0058911 0.1931 
-0.039751 0.0008125 0.19455 
-0.039313 -0.0032757 0.1981 
-0.042423 -0.0049559 0.20493 
-0.043959 -0.0054633 0.21001 
-0.045413 -0.0067516 0.21409 
-0.046818 -0.0085317 0.21696 
-0.047765 -0.010401 0.21985 
-0.047719 -0.013973 0.22147 
-0.048101 -0.018097 0.224 
-0.047065 -0.020695 0.22565 
-0.035118 0.042626 0.17585 
-0.034816 0.041232 0.17737 
-0.034237 0.039037 0.1791 
-0.034308 0.03691 0.18135 
-0.034904 0.033017 0.18506 
-0.035413 0.027489 0.18941 
-0.036153 0.02427 0.19128 
-0.03696 0.021576 0.19339 
-0.037613 0.018931 0.19475 
-0.038101 0.015752 0.19586 
-0.038572 0.011513 0.19595 
-0.038879 0.0069897 0.19431 
-0.038005 0.0021906 0.19673 
-0.038227 -0.0011872 0.20043 
-0.040183 -0.003357 0.20595 
-0.040818 -0.0054297 0.21198 
-0.042507 -0.0071539 0.21565 
-0.04331 -0.0090905 0.21785 
-0.04377 -0.011923 0.21957 
-0.044352 -0.015563 0.22056 
-0.044565 -0.019127 0.22297 
-0.043529 -0.021202 0.22515 
-0.032188 0.043226 0.17647 
-0.031792 0.041886 0.17801 
-0.031364 0.039626 0.18014 
-0.031267 0.037606 0.18247 
-0.031336 0.034083 0.18669 
-0.032224 0.028577 0.19019 
-0.032887 0.025201 0.19171 
-0.033946 0.021935 0.19436 
-0.03514 0.01866 0.19602 
-0.035555 0.01528 0.19718 
-0.036266 0.010975 0.19695 
-0.036712 0.0075242 0.19598 
-0.035956 0.0034805 0.19887 
-0.036135 0.00061551 0.20251 
-0.037822 -0.0017746 0.20701 
-0.038937 -0.0042988 0.21211 
-0.039755 -0.0063497 0.21677 
-0.04064 -0.008868 0.21883 
-0.040619 -0.012157 0.21937 
-0.04108 -0.01577 0.22003 
-0.04121 -0.019229 0.2219 
-0.039904 -0.021458 0.2243 
-0.02927 0.043272 0.17752 
-0.028798 0.042004 0.17884 
-0.02855 0.039757 0.18064 
-0.028291 0.037757 0.18357 
-0.027944 0.034557 0.18793 
-0.028554 0.030242 0.19078 
-0.029581 0.026216 0.19257 
-0.030889 0.022597 0.19481 
-0.032567 0.018564 0.19771 
-0.033047 0.014279 0.19934 
-0.033849 0.010914 0.19878 
-0.034161 0.0088265 0.19811 
-0.033565 0.0059149 0.20105 
-0.032987 0.0030135 0.20444 
-0.035 -0.0008331 0.20854 
-0.036468 -0.0034933 0.21284 
-0.036963 -0.0062521 0.21808 
-0.037667 -0.0094778 0.21946 
-0.03801 -0.012741 0.21986 
-0.038035 -0.016137 0.22114 
-0.037741 -0.019423 0.22273 
-0.036125 -0.021495 0.22518 
-0.026295 0.043659 0.17835 
-0.025927 0.042524 0.17964 
-0.025356 0.040152 0.18109 
-0.02508 0.037468 0.1841 
-0.024807 0.035006 0.18748 
-0.025331 0.031853 0.1905 
-0.026183 0.027551 0.19336 
-0.027789 0.022992 0.19616 
-0.029506 0.01815 0.20024 
-0.030481 0.014045 0.20177 
-0.030442 0.012228 0.20185 
-0.031418 0.010726 0.20145 
-0.030972 0.0074766 0.20461 
-0.030744 0.0039968 0.20709 
-0.032576 6.0364e-05 0.21161 
-0.032113 -0.0036938 0.21616 
-0.033397 -0.0077002 0.21896 
-0.034557 -0.010761 0.22012 
-0.035048 -0.01324 0.2209 
-0.034858 -0.016456 0.22223 
-0.033327 -0.019171 0.22453 
-0.031811 -0.021289 0.22642 
-0.030379 -0.023967 0.23002 
-0.023125 0.045027 0.1794 
-0.02244 0.043369 0.18086 
-0.022165 0.040137 0.18225 
-0.02192 0.037019 0.18415 
-0.021939 0.034902 0.18768 
-0.022223 0.032306 0.19042 
-0.022525 0.029234 0.19298 
-0.023417 0.025129 0.19598 
-0.025123 0.018749 0.20114 
-0.026595 0.014963 0.20378 
-0.027278 0.013147 0.20493 
-0.028128 0.011026 0.20515 
-0.02847 0.007713 0.20727 
-0.028741 0.0040903 0.21001 
-0.028049 0.00017686 0.21414 
-0.02739 -0.0039455 0.21759 
-0.028591 -0.0083936 0.21976 
-0.02977 -0.011583 0.22123 
-0.029868 -0.013954 0.22295 
-0.028823 -0.016534 0.22539 
-0.02676 -0.018701 0.22622 
-0.026972 -0.021741 0.22723 
-0.025824 -0.024957 0.23094 
-0.019106 0.042911 0.18234 
-0.018987 0.040554 0.184 
-0.018923 0.037555 0.18512 
-0.019233 0.034818 0.18775 
-0.019328 0.032411 0.19043 
-0.019398 0.029904 0.19275 
-0.019735 0.026303 0.19684 
-0.020291 0.021206 0.20035 
-0.021101 0.016492 0.20405 
-0.022712 0.013309 0.20659 
-0.023819 0.011204 0.20799 
-0.025097 0.0081663 0.20999 
-0.024691 0.0043481 0.2132 
-0.023411 0.00054396 0.21646 
-0.023424 -0.0032994 0.21887 
-0.023765 -0.0075197 0.22102 
-0.024393 -0.010838 0.22201 
-0.023476 -0.013793 0.22428 
-0.022072 -0.016253 0.22648 
-0.021957 -0.018672 0.22627 
-0.0221 -0.022031 0.22629 
-0.02168 -0.025599 0.23065 
-0.01587 0.040552 0.18507 
-0.016029 0.037828 0.1864 
-0.016254 0.034707 0.18852 
-0.016827 0.032008 0.19131 
-0.017023 0.029649 0.19365 
-0.016768 0.02634 0.19762 
-0.017358 0.021769 0.20102 
-0.017175 0.018341 0.20385 
-0.01764 0.014218 0.20642 
-0.018862 0.011464 0.20951 
-0.020593 0.0083414 0.21202 
-0.020039 0.0048495 0.21491 
-0.019489 0.001306 0.21769 
-0.019042 -0.0022431 0.22059 
-0.018879 -0.0057858 0.22355 
-0.019273 -0.0094033 0.22397 
-0.0186 -0.012553 0.22484 
-0.018278 -0.015911 0.22563 
-0.01896 -0.019383 0.22635 
-0.018554 -0.022631 0.22748 
-0.017934 -0.026029 0.23173 
-0.013511 0.037243 0.18731 
-0.013922 0.034155 0.18984 
-0.014193 0.031711 0.19219 
-0.014259 0.029357 0.19431 
-0.013677 0.026563 0.19728 
-0.014192 0.022666 0.20124 
-0.014272 0.019057 0.20458 
-0.013876 0.015433 0.20784 
-0.014145 0.01188 0.21027 
-0.014829 0.0084801 0.21302 
-0.015044 0.0054461 0.2157 
-0.014969 0.0019821 0.21851 
-0.01498 -0.0014816 0.22202 
-0.015261 -0.0049408 0.22415 
-0.015085 -0.0085471 0.22502 
-0.014834 -0.012709 0.22577 
-0.014798 -0.016884 0.22675 
-0.01517 -0.02062 0.22817 
-0.015089 -0.023653 0.23009 
-0.014601 -0.026278 0.23333 
-0.011365 0.03403 0.18999 
-0.010975 0.031655 0.19239 
-0.011005 0.029168 0.19478 
-0.010413 0.026651 0.19768 
-0.010898 0.023534 0.20148 
-0.011278 0.020063 0.20512 
-0.010601 0.016729 0.20795 
-0.010567 0.012516 0.21025 
-0.010301 0.0090243 0.21316 
-0.010511 0.0058401 0.21641 
-0.010808 0.0025051 0.2194 
-0.011058 -0.0010092 0.22276 
-0.011503 -0.0041996 0.22443 
-0.011657 -0.008066 0.22509 
-0.01146 -0.012277 0.22564 
-0.011281 -0.016591 0.22821 
-0.011247 -0.020277 0.22986 
-0.011608 -0.024145 0.23278 
-0.012017 -0.026395 0.23478 
-0.007596 0.031524 0.19344 
-0.0073614 0.02929 0.19628 
-0.0071526 0.02654 0.19919 
-0.0077787 0.02376 0.20184 
-0.0081069 0.020857 0.20552 
-0.0075376 0.017192 0.20815 
-0.0069308 0.013299 0.21033 
-0.0064599 0.0097215 0.21289 
-0.0065312 0.0062213 0.21692 
-0.0069459 0.0025776 0.22014 
-0.0071034 -0.00094717 0.22297 
-0.0071602 -0.0042907 0.22404 
-0.0077882 -0.0078926 0.22566 
-0.0080051 -0.012325 0.226 
-0.0077254 -0.01668 0.22922 
-0.008174 -0.020276 0.23079 
-0.0087277 -0.0234 0.23277 
-0.004931 0.031038 0.19502 
-0.0033742 0.029087 0.19728 
-0.0035372 0.026058 0.19949 
-0.0043577 0.023465 0.20175 
-0.004249 0.020553 0.20477 
-0.004275 0.017166 0.20771 
-0.0034172 0.013364 0.21006 
-0.0028555 0.010195 0.21273 
-0.0027533 0.0067484 0.21635 
-0.0033091 0.0030222 0.21947 
-0.0032239 -0.00064698 0.22244 
-0.003154 -0.0045784 0.22351 
-0.0039098 -0.0084453 0.22572 
-0.0047432 -0.012533 0.22652 
-0.005379 -0.016324 0.22931 
-0.00020785 0.027955 0.1979 
-0.00037808 0.025592 0.19913 
-0.00091897 0.023028 0.20114 
-0.0010404 0.02024 0.20386 
-0.00077909 0.016709 0.20675 
1.0091e-05 0.013326 0.20971 
0.00054627 0.010324 0.2123 
0.0007946 0.0069646 0.21517 
6.4392e-06 0.0034687 0.21802 
0.00046973 -0.00040605 0.22067 
0.00018479 -0.0043894 0.22315 
-0.0016262 -0.007988 0.22618 
0.002879 0.025168 0.19918 
0.0030065 0.022496 0.20109 
0.002633 0.019682 0.20325 
0.00272 0.016406 0.20631 
0.0036727 0.012712 0.20911 
0.0031903 0.01031 0.21145 
3 9 1 8
3 8 19 9
3 1 7 8
3 9 2 1
3 19 20 9
3 8 18 19
3 7 17 8
3 9 10 2
3 20 10 9
3 20 21 10
3 19 33 20
3 18 32 19
3 8 17 18
3 17 31 18
3 7 6 17
3 10 3 2
3 21 11 10
3 20 34 21
3 33 34 20
3 33 50 34
3 19 32 33
3 32 49 33
3 18 31 32
3 31 47 32
3 17 30 31
3 6 16 17
3 10 11 3
3 11 4 3
3 21 22 11
3 34 22 21
3 34 35 22
3 50 35 34
3 50 51 35
3 33 49 50
3 49 68 50
3 32 48 49
3 47 48 32
3 47 65 48
3 31 30 47
3 30 46 47
3 17 16 30
3 16 29 30
3 11 12 4
3 22 12 11
3 22 23 12
3 35 36 22
3 51 36 35
3 51 52 36
3 50 69 51
3 68 69 50
3 68 89 69
3 49 67 68
3 48 67 49
3 48 66 67
3 65 66 48
3 65 86 66
3 47 64 65
3 46 64 47
3 46 45 64
3 30 29 46
3 29 45 46
3 29 28 45
3 16 15 29
3 12 5 4
3 23 13 12
3 22 36 23
3 36 37 23
3 52 37 36
3 52 53 37
3 51 69 52
3 69 70 52
3 89 90 69
3 68 88 89
3 67 88 68
3 67 87 88
3 66 87 67
3 66 86 87
3 86 108 87
3 65 85 86
3 64 85 65
3 64 84 85
3 45 63 64
3 28 44 45
3 29 15 28
3 15 27 28
3 12 13 5
3 23 14 13
3 37 24 23
3 53 38 37
3 52 70 53
3 70 71 53
3 69 90 70
3 90 91 70
3 89 111 90
3 88 110 89
3 87 109 88
3 108 109 87
3 108 130 109
3 86 85 108
3 85 107 108
3 84 106 85
3 64 63 84
3 63 83 84
3 45 44 63
3 44 62 63
3 28 27 44
3 27 43 44
3 23 24 14
3 24 25 14
3 37 38 24
3 38 25 24
3 38 26 25
3 53 54 38
3 71 54 53
3 71 72 54
3 70 91 71
3 91 92 71
3 90 112 91
3 111 112 90
3 111 133 112
3 89 110 111
3 110 132 111
3 88 109 110
3 109 131 110
3 130 131 109
3 130 152 131
3 108 129 130
3 107 129 108
3 107 128 129
3 85 106 107
3 106 128 107
3 106 127 128
3 84 83 106
3 83 105 106
3 63 62 83
3 62 61 83
3 44 43 62
3 43 61 62
3 43 42 61
3 27 42 43
3 38 39 26
3 71 92 72
3 92 93 72
3 91 113 92
3 112 113 91
3 112 134 113
3 133 134 112
3 133 155 134
3 111 132 133
3 132 154 133
3 110 131 132
3 131 153 132
3 152 153 131
3 152 174 153
3 130 151 152
3 129 151 130
3 129 128 151
3 128 150 151
3 127 149 128
3 106 105 127
3 105 126 127
3 83 82 105
3 61 82 83
3 61 60 82
3 42 60 61
3 93 73 72
3 92 114 93
3 113 114 92
3 113 135 114
3 134 135 113
3 134 156 135
3 155 156 134
3 155 177 156
3 133 154 155
3 154 176 155
3 132 153 154
3 153 175 154
3 174 175 153
3 174 197 175
3 152 173 174
3 151 173 152
3 151 150 173
3 150 172 173
3 128 149 150
3 149 171 150
3 127 148 149
3 126 148 127
3 126 125 148
3 105 104 126
3 82 104 105
3 82 103 104
3 60 81 82
3 73 55 72
3 93 94 73
3 114 115 93
3 135 136 114
3 156 157 135
3 177 178 156
3 155 176 177
3 176 200 177
3 154 175 176
3 175 198 176
3 197 198 175
3 197 219 198
3 174 196 197
3 173 196 174
3 173 195 196
3 172 195 173
3 172 194 195
3 150 171 172
3 171 194 172
3 171 170 194
3 149 148 171
3 148 170 171
3 148 147 170
3 125 147 148
3 125 146 147
3 126 104 125
3 104 103 125
3 103 102 125
3 82 81 103
3 81 80 103
3 60 80 81
3 73 56 55
3 94 74 73
3 93 116 94
3 115 116 93
3 115 138 116
3 114 136 115
3 136 137 115
3 135 157 136
3 157 158 136
3 156 178 157
3 178 179 157
3 177 200 178
3 200 201 178
3 176 199 200
3 198 199 176
3 198 221 199
3 219 220 198
3 197 196 219
3 196 218 219
3 195 217 196
3 194 217 195
3 194 216 217
3 170 193 194
3 147 169 170
3 146 168 147
3 125 124 146
3 102 124 125
3 103 80 102
3 56 40 55
3 73 74 56
3 74 57 56
3 94 95 74
3 116 117 94
3 138 139 116
3 115 137 138
3 137 160 138
3 136 159 137
3 158 159 136
3 158 180 159
3 157 179 158
3 179 180 158
3 179 202 180
3 178 201 179
3 201 202 179
3 201 223 202
3 200 223 201
3 200 222 223
3 199 222 200
3 199 221 222
3 221 243 222
3 198 220 221
3 220 241 221
3 219 240 220
3 218 240 219
3 218 239 240
3 196 217 218
3 217 238 218
3 216 237 217
3 194 193 216
3 193 215 216
3 170 192 193
3 169 192 170
3 169 191 192
3 147 168 169
3 168 191 169
3 40 39 55
3 56 41 40
3 57 41 56
3 57 58 41
3 74 75 57
3 95 75 74
3 95 96 75
3 94 117 95
3 117 118 95
3 116 139 117
3 139 140 117
3 138 161 139
3 160 161 138
3 160 182 161
3 137 159 160
3 159 181 160
3 180 181 159
3 180 203 181
3 202 203 180
3 202 224 203
3 223 224 202
3 223 245 224
3 222 244 223
3 243 244 222
3 243 263 244
3 221 242 243
3 241 242 221
3 241 262 242
3 220 240 241
3 240 261 241
3 239 260 240
3 218 238 239
3 238 258 239
3 217 237 238
3 237 257 238
3 216 236 237
3 215 236 216
3 215 214 236
3 193 214 215
3 193 192 214
3 192 191 214
3 39 54 55
3 57 76 58
3 75 76 57
3 75 97 76
3 96 97 75
3 96 119 97
3 95 118 96
3 118 119 96
3 118 140 119
3 140 118 117
3 139 161 140
3 161 162 140
3 182 183 161
3 160 181 182
3 181 204 182
3 203 204 181
3 203 225 204
3 224 225 203
3 224 245 225
3 245 246 225
3 223 244 245
3 244 264 245
3 263 264 244
3 263 282 264
3 243 262 263
3 262 243 242
3 241 261 262
3 261 280 262
3 240 260 261
3 260 279 261
3 239 259 260
3 258 259 239
3 258 277 259
3 238 257 258
3 257 277 258
3 237 236 257
3 76 59 58
3 97 98 76
3 119 120 97
3 140 141 119
3 162 141 140
3 162 163 141
3 161 183 162
3 183 184 162
3 182 205 183
3 204 205 182
3 204 226 205
3 225 226 204
3 225 247 226
3 246 247 225
3 246 266 247
3 245 266 246
3 245 265 266
3 264 265 245
3 264 283 265
3 282 283 264
3 282 300 283
3 263 281 282
3 262 281 263
3 262 280 281
3 280 298 281
3 261 279 280
3 279 297 280
3 260 278 279
3 259 278 260
3 259 277 278
3 277 296 278
3 76 77 59
3 98 77 76
3 98 99 77
3 97 120 98
3 120 121 98
3 119 141 120
3 141 142 120
3 163 142 141
3 163 164 142
3 162 184 163
3 184 185 163
3 183 206 184
3 205 206 183
3 205 227 206
3 226 227 205
3 226 247 227
3 247 248 227
3 266 267 247
3 265 285 266
3 283 284 265
3 300 301 283
3 282 299 300
3 281 299 282
3 281 298 299
3 298 316 299
3 280 297 298
3 297 314 298
3 279 296 297
3 296 279 278
3 77 78 59
3 99 78 77
3 99 79 78
3 98 121 99
3 121 122 99
3 120 142 121
3 142 143 121
3 164 143 142
3 164 165 143
3 163 185 164
3 185 186 164
3 184 207 185
3 206 207 184
3 206 228 207
3 227 228 206
3 227 248 228
3 248 249 228
3 247 267 248
3 267 268 248
3 266 285 267
3 285 286 267
3 265 284 285
3 284 303 285
3 283 302 284
3 301 302 283
3 301 319 302
3 300 318 301
3 299 317 300
3 316 317 299
3 316 331 317
3 298 315 316
3 314 315 298
3 314 328 315
3 297 313 314
3 296 313 297
3 99 100 79
3 122 100 99
3 122 101 100
3 121 144 122
3 143 144 121
3 143 165 144
3 165 166 144
3 164 186 165
3 186 187 165
3 185 208 186
3 207 208 185
3 207 229 208
3 228 229 207
3 228 249 229
3 249 250 229
3 248 268 249
3 268 269 249
3 267 286 268
3 286 287 268
3 285 303 286
3 303 304 286
3 284 302 303
3 302 319 303
3 319 320 303
3 301 318 319
3 318 333 319
3 300 317 318
3 317 332 318
3 331 332 317
3 331 343 332
3 316 330 331
3 315 330 316
3 315 329 330
3 328 329 315
3 328 340 329
3 100 101 79
3 122 123 101
3 144 145 122
3 166 145 144
3 166 167 145
3 165 187 166
3 187 188 166
3 186 209 187
3 208 209 186
3 208 230 209
3 229 230 208
3 229 250 230
3 250 251 230
3 249 269 250
3 269 270 250
3 268 287 269
3 287 288 269
3 286 305 287
3 304 305 286
3 304 322 305
3 303 321 304
3 320 321 303
3 320 335 321
3 319 334 320
3 333 334 319
3 333 345 334
3 318 332 333
3 332 344 333
3 343 344 332
3 331 342 343
3 330 342 331
3 330 341 342
3 329 340 330
3 340 341 330
3 122 145 123
3 166 189 167
3 188 189 166
3 188 212 189
3 187 210 188
3 209 210 187
3 209 231 210
3 230 231 209
3 230 251 231
3 251 252 231
3 250 271 251
3 270 271 250
3 270 289 271
3 269 289 270
3 269 288 289
3 288 307 289
3 287 305 288
3 305 306 288
3 322 323 305
3 304 321 322
3 321 336 322
3 335 336 321
3 320 334 335
3 334 345 335
3 333 344 345
3 189 190 167
3 212 190 189
3 212 213 190
3 188 211 212
3 210 211 188
3 210 232 211
3 231 232 210
3 231 252 232
3 252 253 232
3 251 271 252
3 271 272 252
3 289 290 271
3 307 290 289
3 307 308 290
3 288 306 307
3 306 324 307
3 305 323 306
3 323 324 306
3 323 338 324
3 322 337 323
3 336 337 322
3 211 234 212
3 232 233 211
3 253 233 232
3 253 254 233
3 252 272 253
3 272 273 253
3 271 291 272
3 290 291 271
3 290 308 291
3 308 309 291
3 307 325 308
3 324 325 307
3 324 339 325
3 338 339 324
3 323 337 338
3 211 233 234
3 233 254 234
3 254 255 234
3 253 273 254
3 273 274 254
3 272 291 273
3 291 292 273
3 309 292 291
3 309 310 292
3 308 325 309
3 325 326 309
3 339 326 325
3 254 274 255
3 274 275 255
3 273 292 274
3 292 293 274
3 310 293 292
3 310 311 293
3 309 327 310
3 326 327 309
3 275 256 255
3 274 293 275
3 293 294 275
3 311 312 293
3 310 327 311
3 256 235 255
3 275 276 256
3 294 295 275
3 293 312 294
3 275 295 276
3 7 0 6
3 72 55 54
3 38 54 39
3 39 40 26
3 314 313 328
3 212 234 213
3 234 235 213
3 235 234 255
3 7 1 0
3 294 312 295
