ply
format ascii 1.0
comment PCL generated
element vertex 348
property float x
property float y
property float z
element face 631
property list uchar int vertex_indices
end_header
-0.05747 0.023539 0.19015 
-0.057985 0.021069 0.19186 
-0.058365 0.017926 0.19333 
-0.058629 0.015037 0.19482 
-0.058858 0.012293 0.19631 
-0.058886 0.0097439 0.19776 
-0.058524 0.0071579 0.1992 
-0.05456 0.025291 0.18646 
-0.055462 0.024359 0.18746 
-0.055253 0.021691 0.18882 
-0.055488 0.018451 0.19053 
-0.055711 0.015107 0.19217 
-0.056283 0.012062 0.19378 
-0.056905 0.0092066 0.19599 
-0.056883 0.0057868 0.19704 
-0.056003 0.001522 0.19713 
-0.055673 -0.0009973 0.1997 
-0.05176 0.027114 0.18348 
-0.052223 0.025691 0.18465 
-0.052294 0.02388 0.18573 
-0.052519 0.021908 0.18711 
-0.052548 0.018721 0.18871 
-0.052549 0.014921 0.19058 
-0.053145 0.011614 0.19199 
-0.053762 0.0083057 0.1933 
-0.054416 0.0039146 0.19407 
-0.053689 3.6194e-05 0.1968 
-0.05388 -0.0021228 0.19983 
-0.05452 -0.0032315 0.20292 
-0.054235 -0.003995 0.20535 
-0.054067 -0.0047743 0.20672 
-0.049189 0.027974 0.18218 
-0.04963 0.026095 0.18319 
-0.049906 0.024177 0.1845 
-0.050145 0.022062 0.18608 
-0.050064 0.019006 0.18797 
-0.049872 0.01405 0.189 
-0.050603 0.010238 0.19075 
-0.051474 0.006494 0.19113 
-0.052693 0.00044832 0.19314 
-0.051865 -0.0024171 0.19631 
-0.051204 -0.0039393 0.19863 
-0.051221 -0.0041922 0.20142 
-0.051573 -0.0035844 0.20503 
-0.052444 -0.004242 0.20813 
-0.052949 -0.0056746 0.2116 
-0.052356 -0.0080135 0.21582 
-0.045788 0.03081 0.18043 
-0.046326 0.028985 0.18138 
-0.046952 0.026735 0.18264 
-0.047385 0.024765 0.18394 
-0.047766 0.022419 0.18542 
-0.04784 0.019265 0.18692 
-0.047713 0.014344 0.18787 
-0.0491 0.0092014 0.18875 
-0.050549 0.0040609 0.18967 
-0.051301 -0.0025638 0.19332 
-0.050611 -0.0063121 0.19587 
-0.049826 -0.0065998 0.19781 
-0.048806 -0.0043467 0.19999 
-0.04837 -0.0030854 0.20501 
-0.048861 -0.0036385 0.2086 
-0.049712 -0.0063011 0.21198 
-0.050435 -0.0088141 0.21559 
-0.051323 -0.012431 0.21944 
-0.043159 0.032641 0.17973 
-0.043767 0.029686 0.18133 
-0.043756 0.027583 0.18236 
-0.044902 0.025404 0.18359 
-0.045132 0.023197 0.18454 
-0.045085 0.02022 0.18558 
-0.045349 0.015923 0.18663 
-0.048163 0.0085104 0.18761 
-0.050173 0.0017014 0.18856 
-0.049398 -0.0056914 0.19276 
-0.048112 -0.0079683 0.1952 
-0.046744 -0.0065526 0.19762 
-0.045931 -0.0039852 0.19954 
-0.045381 -0.0028164 0.20486 
-0.045445 -0.003561 0.209 
-0.045596 -0.0057869 0.21246 
-0.047263 -0.0092808 0.21617 
-0.049061 -0.013713 0.21978 
-0.049011 -0.017423 0.22284 
-0.048317 -0.020116 0.2244 
-0.039746 0.038495 0.17807 
-0.039976 0.035163 0.17974 
-0.038669 0.032466 0.18129 
-0.039852 0.029997 0.18217 
-0.040535 0.027528 0.18303 
-0.041706 0.024286 0.18391 
-0.041688 0.021073 0.18432 
-0.04316 0.016342 0.1859 
-0.047024 0.0087065 0.18603 
-0.048913 0.0032944 0.18517 
-0.046935 -0.006762 0.1914 
-0.044566 -0.0076231 0.19486 
-0.043319 -0.0053582 0.19754 
-0.043157 -0.0037677 0.19881 
-0.042633 -0.0028421 0.20351 
-0.042954 -0.0037967 0.20744 
-0.044152 -0.0063935 0.21053 
-0.045842 -0.0080166 0.21368 
-0.04576 -0.013566 0.21805 
-0.045509 -0.017698 0.22146 
-0.045871 -0.021056 0.22405 
-0.045121 -0.023445 0.22492 
-0.037367 0.040336 0.17757 
-0.03678 0.038533 0.17927 
-0.036373 0.033979 0.181 
-0.036883 0.031545 0.18223 
-0.036414 0.029398 0.1833 
-0.03624 0.025957 0.18467 
-0.036746 0.022953 0.18493 
-0.040629 0.017171 0.18564 
-0.045143 0.01011 0.18474 
-0.046177 0.0055502 0.18192 
-0.042822 -0.0078453 0.19046 
-0.041243 -0.008258 0.19404 
-0.040972 -0.0061003 0.19452 
-0.040433 -0.0038358 0.19754 
-0.040418 -0.003515 0.20222 
-0.041078 -0.0041619 0.20544 
-0.042352 -0.0064303 0.20957 
-0.043981 -0.008405 0.21311 
-0.042573 -0.013857 0.21684 
-0.041843 -0.018175 0.22025 
-0.041999 -0.021108 0.22294 
-0.042011 -0.023831 0.2242 
-0.03422 0.041321 0.17758 
-0.033843 0.039623 0.17921 
-0.033947 0.034529 0.18172 
-0.033995 0.031531 0.1833 
-0.033323 0.02977 0.18443 
-0.033132 0.027049 0.18538 
-0.034071 0.022902 0.18558 
-0.03496 0.01947 0.18542 
-0.041969 0.01258 0.18391 
-0.041746 0.0068355 0.18105 
-0.040568 0.0028925 0.18034 
-0.038535 -0.0061399 0.18751 
-0.037868 -0.0050722 0.19259 
-0.037609 -0.0030356 0.19671 
-0.037496 -0.0028645 0.20207 
-0.038236 -0.0040482 0.20597 
-0.039603 -0.0068568 0.2099 
-0.04082 -0.0098615 0.21355 
-0.039764 -0.014741 0.21689 
-0.038475 -0.01878 0.22017 
-0.038921 -0.021782 0.22235 
-0.038404 -0.023624 0.22369 
-0.03123 0.041693 0.17801 
-0.030736 0.039907 0.17973 
-0.030973 0.035319 0.18237 
-0.03109 0.032317 0.18413 
-0.0306 0.030438 0.18523 
-0.030916 0.027377 0.18626 
-0.031205 0.023822 0.18645 
-0.030957 0.021182 0.18652 
-0.035494 0.015406 0.18506 
-0.036977 0.0080474 0.18291 
-0.033228 0.0053329 0.18378 
-0.033063 0.0017913 0.18659 
-0.034135 -0.0016927 0.19061 
-0.034293 -0.0019656 0.19411 
-0.034585 -0.0033859 0.20426 
-0.035443 -0.0050833 0.20709 
-0.037013 -0.0082866 0.21064 
-0.037855 -0.011871 0.21421 
-0.035894 -0.015934 0.21735 
-0.034795 -0.018703 0.22114 
-0.034571 -0.020932 0.22271 
-0.035114 -0.023662 0.22467 
-0.03459 -0.024947 0.22722 
-0.027926 0.041971 0.17871 
-0.027465 0.040226 0.18017 
-0.026904 0.037183 0.18223 
-0.028049 0.033696 0.18425 
-0.027903 0.031011 0.18601 
-0.02819 0.027765 0.18751 
-0.028611 0.02467 0.18778 
-0.028841 0.021661 0.18767 
-0.030023 0.016931 0.1871 
-0.031855 0.010414 0.18516 
-0.028096 0.0064515 0.18965 
-0.027603 0.0034845 0.19287 
-0.02728 0.00087299 0.19819 
-0.028338 -0.0028861 0.20517 
-0.03051 -0.0049543 0.20856 
-0.032666 -0.0074493 0.21068 
-0.034466 -0.010816 0.21364 
-0.033516 -0.014432 0.21761 
-0.032216 -0.017101 0.22001 
-0.032122 -0.019504 0.22236 
-0.032012 -0.021625 0.22395 
-0.03205 -0.023715 0.22584 
-0.031651 -0.024537 0.22813 
-0.025652 0.042553 0.17887 
-0.023811 0.040632 0.18073 
-0.022736 0.038376 0.18224 
-0.023274 0.035085 0.1846 
-0.024189 0.031649 0.1872 
-0.024657 0.028795 0.18902 
-0.025961 0.025355 0.18925 
-0.026863 0.021647 0.1892 
-0.026623 0.01805 0.18978 
-0.025397 0.014646 0.1906 
-0.023862 0.0092838 0.19313 
-0.023874 0.0051262 0.19663 
-0.024459 0.0019404 0.20126 
-0.025762 -0.0026068 0.20758 
-0.027517 -0.0058834 0.21169 
-0.028877 -0.0090908 0.21482 
-0.02953 -0.012807 0.2183 
-0.029201 -0.016167 0.2214 
-0.02963 -0.018874 0.22289 
-0.030306 -0.020462 0.22372 
-0.029694 -0.021957 0.22438 
-0.029043 -0.023381 0.22609 
-0.028623 -0.024812 0.22852 
-0.0194 0.040993 0.18229 
-0.019376 0.038319 0.18406 
-0.0181 0.035339 0.18637 
-0.019042 0.032308 0.18845 
-0.020028 0.029669 0.19049 
-0.021093 0.02663 0.19203 
-0.024185 0.021823 0.19162 
-0.024205 0.01902 0.19189 
-0.023538 0.016386 0.19302 
-0.022418 0.012564 0.19441 
-0.021372 0.0077673 0.19749 
-0.021526 0.0028849 0.20433 
-0.022569 -0.0023562 0.21055 
-0.023963 -0.0073119 0.21637 
-0.02467 -0.010626 0.21897 
-0.025052 -0.013792 0.22198 
-0.025808 -0.016354 0.22335 
-0.026407 -0.018713 0.22456 
-0.027417 -0.020533 0.22524 
-0.026858 -0.02213 0.22468 
-0.026166 -0.023676 0.22575 
-0.025797 -0.025214 0.2287 
-0.015536 0.038596 0.18583 
-0.014755 0.035798 0.18766 
-0.015163 0.033072 0.18955 
-0.015579 0.030617 0.19146 
-0.014916 0.027951 0.19362 
-0.01472 0.024514 0.19621 
-0.021343 0.020538 0.1944 
-0.021197 0.017307 0.19589 
-0.019819 0.013446 0.19752 
-0.018272 0.0088822 0.20184 
-0.018368 0.0043356 0.20696 
-0.019366 -0.0014689 0.21327 
-0.020539 -0.0078334 0.21964 
-0.02073 -0.011579 0.22216 
-0.020331 -0.014731 0.22464 
-0.022073 -0.016449 0.22492 
-0.023272 -0.018102 0.22606 
-0.024023 -0.019608 0.22607 
-0.023985 -0.021111 0.22547 
-0.023323 -0.022933 0.22648 
-0.023364 -0.025597 0.23 
-0.011649 0.036231 0.18859 
-0.011457 0.033662 0.1902 
-0.011349 0.031253 0.19194 
-0.010735 0.028391 0.19405 
-0.0092044 0.024555 0.19844 
-0.012433 0.019841 0.20044 
-0.016213 0.016247 0.2004 
-0.01525 0.01255 0.20222 
-0.015348 0.0095433 0.20506 
-0.015736 0.0059975 0.20822 
-0.016498 -0.00050861 0.21522 
-0.016712 -0.0080231 0.22159 
-0.0158 -0.011215 0.22369 
-0.015238 -0.013955 0.2257 
-0.016011 -0.016099 0.22643 
-0.019131 -0.017214 0.2259 
-0.020601 -0.01877 0.22578 
-0.021006 -0.020754 0.22616 
-0.021071 -0.02305 0.2281 
-0.020728 -0.025581 0.23144 
-0.0087625 0.033772 0.19089 
-0.0074945 0.031348 0.19297 
-0.0061487 0.028261 0.19661 
-0.0058061 0.023952 0.20003 
-0.0078534 0.019301 0.20295 
-0.010823 0.015548 0.20449 
-0.011692 0.012589 0.20615 
-0.012209 0.01006 0.20776 
-0.012906 0.0068844 0.20981 
-0.013773 0.0013066 0.21519 
-0.012171 -0.0070665 0.22223 
-0.011185 -0.010202 0.22429 
-0.011054 -0.013201 0.22615 
-0.011504 -0.015449 0.22741 
-0.013504 -0.016935 0.22732 
-0.015835 -0.018511 0.22773 
-0.017366 -0.021127 0.22874 
-0.018435 -0.024902 0.23195 
-0.0028142 0.029761 0.19695 
-0.0026243 0.026283 0.19934 
-0.0037534 0.022156 0.20161 
-0.0051737 0.019884 0.20354 
-0.007071 0.015739 0.20623 
-0.0079889 0.012563 0.20824 
-0.008549 0.009912 0.21014 
-0.0090722 0.0068679 0.21292 
-0.011048 0.0031354 0.21535 
-0.007871 -0.006024 0.22243 
-0.0070791 -0.0097464 0.22491 
-0.0073823 -0.012957 0.22618 
-0.0081728 -0.015531 0.22798 
-0.0090406 -0.017611 0.22918 
-0.010945 -0.019727 0.23071 
-0.013939 -0.021947 0.23139 
-0.016305 -0.024294 0.23233 
0.00016447 0.024561 0.20057 
-0.00076571 0.021352 0.20255 
-0.00045674 0.018651 0.20467 
-0.0024123 0.01621 0.20663 
-0.0035083 0.01191 0.20935 
-0.0033983 0.0085591 0.21208 
-0.0034474 0.0056812 0.21443 
-0.0037018 -0.0043507 0.22198 
-0.0033602 -0.0095069 0.225 
-0.0038796 -0.013231 0.22642 
-0.0046887 -0.01592 0.22829 
-0.0058889 -0.01811 0.22984 
-0.0076007 -0.020056 0.23185 
0.0021382 0.022984 0.20141 
0.001808 0.020805 0.20281 
0.0017567 0.018498 0.20455 
0.0017162 0.015668 0.20723 
0.0012001 0.011384 0.20996 
0.00093861 0.0080346 0.2125 
0.00088674 0.0054317 0.21471 
0.00025779 0.0026953 0.21729 
0.00029015 -0.0019366 0.22058 
-0.00040747 -0.0078756 0.2238 
-0.001182 -0.012837 0.22647 
0.0038611 0.020156 0.20301 
0.0051001 0.018445 0.20486 
0.0048227 0.015149 0.20792 
0.0042238 0.011433 0.21008 
0.0039892 0.0083997 0.21231 
0.0037664 0.0063377 0.21442 
3 10 1 9
3 9 21 10
3 10 2 1
3 21 22 10
3 9 20 21
3 8 20 9
3 8 19 20
3 10 11 2
3 22 11 10
3 22 23 11
3 21 36 22
3 20 35 21
3 19 33 20
3 8 7 19
3 11 3 2
3 23 12 11
3 22 36 23
3 36 37 23
3 21 35 36
3 35 53 36
3 20 34 35
3 33 34 20
3 33 51 34
3 19 18 33
3 7 18 19
3 7 17 18
3 11 12 3
3 12 4 3
3 23 24 12
3 37 38 23
3 36 54 37
3 53 54 36
3 53 72 54
3 35 52 53
3 34 52 35
3 34 51 52
3 51 70 52
3 33 50 51
3 18 32 33
3 17 32 18
3 17 31 32
3 12 13 4
3 24 13 12
3 24 25 13
3 23 38 24
3 38 39 24
3 37 55 38
3 54 55 37
3 54 72 55
3 72 73 55
3 53 71 72
3 52 71 53
3 52 70 71
3 70 91 71
3 51 69 70
3 50 69 51
3 50 68 69
3 33 32 50
3 32 49 50
3 31 49 32
3 31 48 49
3 13 5 4
3 25 14 13
3 24 39 25
3 39 26 25
3 38 56 39
3 55 56 38
3 55 73 56
3 73 74 56
3 72 93 73
3 91 92 71
3 70 69 91
3 69 90 91
3 68 90 69
3 68 89 90
3 50 49 68
3 49 67 68
3 48 66 49
3 31 47 48
3 13 14 5
3 14 6 5
3 25 26 14
3 26 15 14
3 39 40 26
3 56 40 39
3 56 57 40
3 74 57 56
3 74 75 57
3 73 94 74
3 93 94 73
3 93 115 94
3 91 113 92
3 90 112 91
3 89 111 90
3 68 67 89
3 67 88 89
3 49 66 67
3 66 88 67
3 66 87 88
3 48 47 66
3 47 65 66
3 14 15 6
3 26 16 15
3 40 27 26
3 57 41 40
3 75 58 57
3 74 95 75
3 94 95 74
3 94 116 95
3 115 116 94
3 115 138 116
3 113 114 92
3 91 112 113
3 112 134 113
3 90 111 112
3 111 133 112
3 89 88 111
3 88 110 111
3 87 110 88
3 87 109 110
3 66 65 87
3 65 86 87
3 26 27 16
3 27 28 16
3 40 41 27
3 41 42 27
3 57 58 41
3 58 42 41
3 58 59 42
3 75 76 58
3 95 96 75
3 116 117 95
3 138 117 116
3 138 139 117
3 115 137 138
3 113 135 114
3 134 135 113
3 134 156 135
3 112 133 134
3 133 155 134
3 111 132 133
3 110 132 111
3 110 131 132
3 109 131 110
3 109 130 131
3 87 86 109
3 86 108 109
3 65 85 86
3 27 42 28
3 42 29 28
3 59 43 42
3 58 76 59
3 76 77 59
3 75 96 76
3 96 97 76
3 95 117 96
3 117 118 96
3 139 118 117
3 139 140 118
3 138 160 139
3 137 160 138
3 137 159 160
3 115 114 137
3 135 136 114
3 156 157 135
3 134 155 156
3 155 178 156
3 133 154 155
3 132 154 133
3 132 153 154
3 131 153 132
3 131 130 153
3 130 152 153
3 109 108 130
3 108 107 130
3 86 85 108
3 85 107 108
3 42 43 29
3 43 30 29
3 59 60 43
3 77 60 59
3 77 78 60
3 76 97 77
3 97 98 77
3 96 118 97
3 118 119 97
3 140 119 118
3 140 141 119
3 139 161 140
3 160 161 139
3 160 183 161
3 137 136 159
3 136 137 114
3 135 157 136
3 157 158 136
3 156 179 157
3 178 179 156
3 178 202 179
3 155 177 178
3 154 177 155
3 154 153 177
3 153 176 177
3 152 176 153
3 152 175 176
3 130 151 152
3 107 129 130
3 43 44 30
3 60 44 43
3 60 61 44
3 78 61 60
3 78 79 61
3 77 98 78
3 98 99 78
3 97 119 98
3 119 120 98
3 141 142 119
3 140 163 141
3 161 162 140
3 183 184 161
3 136 158 159
3 158 181 159
3 157 180 158
3 179 180 157
3 179 202 180
3 202 203 180
3 178 201 202
3 177 201 178
3 177 200 201
3 176 200 177
3 176 199 200
3 175 198 176
3 152 174 175
3 151 174 152
3 130 129 151
3 61 45 44
3 79 62 61
3 78 99 79
3 99 100 79
3 98 120 99
3 120 121 99
3 119 142 120
3 142 143 120
3 141 164 142
3 163 164 141
3 163 186 164
3 140 162 163
3 162 185 163
3 161 185 162
3 161 184 185
3 184 208 185
3 183 206 184
3 181 182 159
3 158 180 181
3 180 203 181
3 203 204 181
3 202 225 203
3 201 224 202
3 200 223 201
3 199 221 200
3 176 198 199
3 198 220 199
3 175 197 198
3 174 197 175
3 61 62 45
3 62 46 45
3 79 80 62
3 100 80 79
3 100 101 80
3 99 122 100
3 121 122 99
3 121 144 122
3 120 143 121
3 143 144 121
3 143 165 144
3 142 165 143
3 142 164 165
3 164 187 165
3 186 187 164
3 186 209 187
3 163 185 186
3 185 209 186
3 185 208 209
3 208 231 209
3 184 207 208
3 206 207 184
3 206 229 207
3 183 205 206
3 181 204 182
3 204 205 182
3 203 225 204
3 225 226 204
3 202 224 225
3 224 246 225
3 201 223 224
3 223 245 224
3 200 222 223
3 221 222 200
3 221 242 222
3 199 220 221
3 220 242 221
3 198 197 220
3 62 63 46
3 80 63 62
3 80 81 63
3 101 102 80
3 100 123 101
3 122 123 100
3 122 145 123
3 144 145 122
3 144 166 145
3 165 166 144
3 165 189 166
3 187 188 165
3 209 210 187
3 231 232 209
3 208 230 231
3 207 230 208
3 207 229 230
3 229 251 230
3 206 228 229
3 205 228 206
3 205 227 228
3 183 182 205
3 204 226 205
3 226 227 205
3 226 247 227
3 225 246 226
3 246 247 226
3 246 267 247
3 224 245 246
3 245 266 246
3 223 244 245
3 222 243 223
3 242 243 222
3 242 263 243
3 63 64 46
3 81 64 63
3 81 82 64
3 80 102 81
3 102 103 81
3 101 124 102
3 123 124 101
3 123 145 124
3 145 146 124
3 166 167 145
3 189 167 166
3 189 190 167
3 165 188 189
3 188 212 189
3 187 210 188
3 210 211 188
3 209 232 210
3 232 211 210
3 232 233 211
3 231 253 232
3 230 252 231
3 251 252 230
3 251 271 252
3 229 250 251
3 228 250 229
3 228 249 250
3 227 248 228
3 247 248 227
3 247 268 248
3 267 268 247
3 267 286 268
3 246 266 267
3 266 285 267
3 245 265 266
3 244 264 245
3 223 243 244
3 243 263 244
3 263 264 244
3 263 283 264
3 82 83 64
3 81 103 82
3 103 104 82
3 102 124 103
3 124 125 103
3 146 125 124
3 146 147 125
3 145 167 146
3 167 168 146
3 190 168 167
3 190 191 168
3 189 212 190
3 212 213 190
3 188 211 212
3 211 233 212
3 233 234 212
3 232 253 233
3 253 254 233
3 231 252 253
3 252 272 253
3 271 272 252
3 271 291 272
3 251 270 271
3 250 270 251
3 250 269 270
3 249 269 250
3 249 248 269
3 248 249 228
3 268 269 248
3 268 288 269
3 286 287 268
3 267 285 286
3 285 302 286
3 266 284 285
3 265 284 266
3 265 283 284
3 245 264 265
3 283 265 264
3 82 104 83
3 104 105 83
3 103 126 104
3 125 126 103
3 125 147 126
3 147 148 126
3 146 168 147
3 168 169 147
3 191 169 168
3 191 192 169
3 190 213 191
3 213 214 191
3 212 234 213
3 234 235 213
3 233 254 234
3 254 255 234
3 253 273 254
3 272 273 253
3 272 292 273
3 291 292 272
3 291 309 292
3 271 290 291
3 270 289 271
3 269 289 270
3 269 288 289
3 288 306 289
3 268 287 288
3 287 305 288
3 286 303 287
3 302 303 286
3 302 318 303
3 285 301 302
3 284 301 285
3 105 84 83
3 104 127 105
3 126 127 104
3 126 149 127
3 148 149 126
3 148 170 149
3 147 169 148
3 169 170 148
3 169 192 170
3 192 193 170
3 191 214 192
3 214 215 192
3 213 235 214
3 235 236 214
3 234 255 235
3 255 256 235
3 254 274 255
3 273 274 254
3 273 293 274
3 292 293 273
3 292 310 293
3 309 310 292
3 309 325 310
3 291 308 309
3 290 307 291
3 271 289 290
3 289 307 290
3 289 306 307
3 306 323 307
3 288 305 306
3 305 322 306
3 287 304 305
3 303 304 287
3 303 319 304
3 318 319 303
3 318 331 319
3 105 106 84
3 127 128 105
3 149 128 127
3 149 150 128
3 170 171 149
3 193 171 170
3 193 194 171
3 192 215 193
3 215 216 193
3 214 236 215
3 236 237 215
3 235 256 236
3 256 257 236
3 255 276 256
3 274 275 255
3 293 294 274
3 310 294 293
3 310 311 294
3 325 326 310
3 308 324 309
3 291 307 308
3 307 323 308
3 323 324 308
3 323 337 324
3 306 322 323
3 322 336 323
3 305 321 322
3 304 321 305
3 304 320 321
3 319 320 304
3 319 332 320
3 331 332 319
3 331 342 332
3 105 128 106
3 149 171 150
3 171 172 150
3 194 172 171
3 194 195 172
3 193 216 194
3 216 217 194
3 215 237 216
3 237 238 216
3 236 257 237
3 257 258 237
3 256 277 257
3 276 277 256
3 276 296 277
3 255 275 276
3 275 295 276
3 274 294 275
3 294 295 275
3 294 312 295
3 311 312 294
3 311 327 312
3 310 326 311
3 326 327 311
3 326 341 327
3 325 340 326
3 337 338 324
3 323 336 337
3 336 347 337
3 322 335 336
3 321 335 322
3 321 334 335
3 320 334 321
3 320 333 334
3 332 333 320
3 332 342 333
3 342 343 333
3 195 173 172
3 194 218 195
3 217 218 194
3 217 240 218
3 216 239 217
3 238 239 216
3 238 260 239
3 237 259 238
3 258 259 237
3 258 279 259
3 257 278 258
3 277 278 257
3 277 297 278
3 296 297 277
3 296 313 297
3 276 295 296
3 295 313 296
3 295 312 313
3 312 328 313
3 327 328 312
3 327 341 328
3 326 340 341
3 325 339 340
3 336 346 347
3 335 346 336
3 335 345 346
3 334 345 335
3 334 344 345
3 333 344 334
3 333 343 344
3 195 196 173
3 218 196 195
3 218 219 196
3 240 241 218
3 217 239 240
3 239 261 240
3 260 261 239
3 260 280 261
3 238 259 260
3 259 279 260
3 279 280 260
3 279 298 280
3 258 278 279
3 278 298 279
3 278 297 298
3 297 315 298
3 313 314 297
3 328 329 313
3 325 338 339
3 218 241 219
3 240 261 241
3 261 262 241
3 280 281 261
3 298 299 280
3 315 316 298
3 297 314 315
3 314 330 315
3 313 329 314
3 329 330 314
3 261 281 262
3 281 282 262
3 298 316 299
3 316 317 299
3 281 300 282
3 71 92 72
3 92 93 72
3 92 114 93
3 114 115 93
3 159 182 160
3 182 183 160
3 44 45 30
3 302 301 318
3 172 173 150
3 337 347 338
3 338 309 324
3 338 325 309
3 280 299 281
3 299 317 281
3 317 300 281
3 1 0 9
3 9 0 8
