ply
format ascii 1.0
comment PCL generated
element vertex 348
property float x
property float y
property float z
element face 631
property list uchar int vertex_indices
end_header
-0.055533 0.024039 0.1873 
-0.056372 0.021636 0.18877 
-0.057016 0.018152 0.19075 
-0.05733 0.01485 0.19279 
-0.057543 0.011662 0.1949 
-0.057402 0.0088132 0.19673 
-0.056936 0.0061422 0.19848 
-0.05221 0.026278 0.18305 
-0.05309 0.024861 0.18432 
-0.05333 0.022066 0.18607 
-0.053722 0.018629 0.18803 
-0.054144 0.014691 0.19047 
-0.054538 0.011224 0.19285 
-0.054937 0.0081506 0.19559 
-0.054114 0.005027 0.19816 
-0.051141 0.0012582 0.1996 
-0.051587 -0.0016002 0.20196 
-0.049107 0.029242 0.18045 
-0.04961 0.027453 0.18143 
-0.049776 0.025206 0.1825 
-0.050164 0.022725 0.18391 
-0.050681 0.019064 0.1866 
-0.050686 0.013841 0.18972 
-0.051054 0.010189 0.1922 
-0.051067 0.0072151 0.19513 
-0.049901 0.0034954 0.19725 
-0.048827 -0.00060196 0.19965 
-0.050054 -0.0031454 0.20194 
-0.051311 -0.0044556 0.2047 
-0.051457 -0.0056357 0.20678 
-0.051391 -0.0070621 0.20712 
-0.04671 0.030658 0.1799 
-0.046768 0.028186 0.18055 
-0.047023 0.025738 0.18173 
-0.047506 0.023375 0.18343 
-0.048165 0.020179 0.18571 
-0.047638 0.012278 0.18937 
-0.047962 0.0086914 0.19228 
-0.047778 0.0053413 0.19499 
-0.04651 -4.5794e-05 0.19729 
-0.047253 -0.003322 0.19908 
-0.047677 -0.0053368 0.20095 
-0.048288 -0.0059529 0.20321 
-0.048837 -0.0062474 0.20645 
-0.049609 -0.007939 0.20823 
-0.050133 -0.010408 0.21033 
-0.049952 -0.01374 0.21367 
-0.043715 0.034412 0.17921 
-0.043918 0.031969 0.17996 
-0.044062 0.029041 0.18078 
-0.044364 0.026404 0.18197 
-0.044959 0.023738 0.18367 
-0.045535 0.020494 0.18546 
-0.045436 0.013224 0.18775 
-0.045533 0.0070205 0.1923 
-0.044882 0.0024311 0.1951 
-0.045271 -0.0033743 0.19759 
-0.04652 -0.0071524 0.19828 
-0.046566 -0.0080989 0.19984 
-0.045669 -0.0066188 0.20198 
-0.045574 -0.0070418 0.20634 
-0.046107 -0.0086537 0.20923 
-0.047122 -0.011348 0.21108 
-0.048047 -0.014405 0.21317 
-0.049329 -0.016477 0.21645 
-0.041123 0.036254 0.17864 
-0.041613 0.032851 0.18034 
-0.041208 0.030086 0.18128 
-0.04173 0.027199 0.18245 
-0.042136 0.024457 0.18371 
-0.042468 0.02123 0.1852 
-0.042983 0.015621 0.18674 
-0.043709 0.0054882 0.19225 
-0.043003 1.732e-05 0.19492 
-0.043994 -0.0062796 0.19623 
-0.044669 -0.009536 0.19745 
-0.043601 -0.0090964 0.2001 
-0.042544 -0.0074044 0.20203 
-0.042471 -0.0078146 0.20608 
-0.042708 -0.0096802 0.20939 
-0.043228 -0.012368 0.2118 
-0.044673 -0.014923 0.21374 
-0.046972 -0.016588 0.21694 
-0.047683 -0.019062 0.22073 
-0.047375 -0.021323 0.22344 
-0.037421 0.039703 0.17651 
-0.037934 0.037683 0.17836 
-0.036954 0.034966 0.18031 
-0.037971 0.032287 0.1816 
-0.038441 0.029009 0.18263 
-0.038989 0.025191 0.18392 
-0.038866 0.02181 0.18498 
-0.040403 0.01542 0.1868 
-0.041601 0.004748 0.19147 
-0.040625 -0.00021185 0.19367 
-0.0419 -0.0079655 0.19477 
-0.04126 -0.0103 0.19748 
-0.039947 -0.0091633 0.20029 
-0.039581 -0.0081399 0.20126 
-0.039046 -0.009091 0.20486 
-0.039556 -0.011164 0.20757 
-0.040787 -0.01332 0.20968 
-0.042296 -0.015016 0.21233 
-0.043129 -0.016872 0.21606 
-0.043717 -0.019508 0.21985 
-0.044874 -0.02186 0.22349 
-0.044673 -0.023726 0.22557 
-0.034858 0.040499 0.17665 
-0.034663 0.038863 0.17854 
-0.034457 0.035978 0.18031 
-0.03497 0.033194 0.18169 
-0.034782 0.030501 0.18302 
-0.034699 0.026801 0.18483 
-0.034347 0.023267 0.18567 
-0.037629 0.015367 0.18696 
-0.039542 0.0060212 0.18999 
-0.037531 0.00067193 0.1921 
-0.038454 -0.0084924 0.1939 
-0.03767 -0.010967 0.19673 
-0.036816 -0.0093149 0.19824 
-0.036214 -0.0089129 0.20043 
-0.036324 -0.010262 0.20311 
-0.036511 -0.01203 0.20553 
-0.037785 -0.013545 0.20909 
-0.039462 -0.015693 0.21228 
-0.039584 -0.017305 0.21594 
-0.040115 -0.01952 0.21948 
-0.040787 -0.021802 0.22301 
-0.041363 -0.023953 0.22574 
-0.031831 0.041076 0.17719 
-0.031743 0.039517 0.17872 
-0.031771 0.036418 0.18096 
-0.031924 0.033262 0.18263 
-0.031533 0.030761 0.18397 
-0.031149 0.027414 0.18557 
-0.030809 0.023095 0.18699 
-0.031526 0.018918 0.1874 
-0.036869 0.0086384 0.18846 
-0.034606 0.0030551 0.19076 
-0.032911 9.5811e-05 0.19191 
-0.033412 -0.006376 0.19318 
-0.033136 -0.0075902 0.19713 
-0.033012 -0.0075842 0.20027 
-0.032827 -0.0094443 0.20325 
-0.033113 -0.011719 0.20586 
-0.03461 -0.013221 0.20981 
-0.036136 -0.015627 0.2134 
-0.036564 -0.017223 0.21635 
-0.03697 -0.019141 0.22 
-0.037888 -0.02196 0.22313 
-0.037787 -0.023442 0.22596 
-0.028864 0.041573 0.17761 
-0.028755 0.039905 0.17908 
-0.028684 0.036984 0.18126 
-0.028705 0.033916 0.1833 
-0.02829 0.031186 0.18476 
-0.028229 0.027697 0.18635 
-0.027986 0.023878 0.18784 
-0.027497 0.02082 0.18839 
-0.031781 0.013667 0.18853 
-0.031802 0.006235 0.19074 
-0.0288 0.0040272 0.1929 
-0.028574 0.0005701 0.19508 
-0.029252 -0.0036201 0.19718 
-0.029491 -0.0053727 0.19906 
-0.029863 -0.0088592 0.20418 
-0.029968 -0.010899 0.20643 
-0.03147 -0.012609 0.21071 
-0.032933 -0.015054 0.21444 
-0.033173 -0.016815 0.21743 
-0.033759 -0.018407 0.22189 
-0.033901 -0.020697 0.22428 
-0.034548 -0.02323 0.22721 
-0.034471 -0.024476 0.23001 
-0.025894 0.04202 0.17812 
-0.025764 0.04039 0.17935 
-0.025249 0.037893 0.18086 
-0.025418 0.034762 0.18346 
-0.025283 0.031713 0.18529 
-0.025283 0.0283 0.18717 
-0.025184 0.024596 0.18867 
-0.025047 0.021303 0.18932 
-0.025968 0.016626 0.1903 
-0.028055 0.0096003 0.19157 
-0.02505 0.0062308 0.19515 
-0.024944 0.0030177 0.1979 
-0.024563 -5.4969e-05 0.20051 
-0.024833 -0.003793 0.20355 
-0.025603 -0.0070434 0.20618 
-0.026944 -0.0094962 0.20866 
-0.028151 -0.011751 0.21236 
-0.028874 -0.013842 0.21646 
-0.029835 -0.016149 0.21954 
-0.030607 -0.018394 0.2231 
-0.030999 -0.020862 0.22554 
-0.031581 -0.023587 0.22791 
-0.03162 -0.02513 0.23057 
-0.023815 0.042728 0.17823 
-0.022693 0.041016 0.1798 
-0.02182 0.038919 0.18113 
-0.021709 0.035824 0.18335 
-0.022048 0.032266 0.18616 
-0.022308 0.029264 0.18813 
-0.022526 0.025428 0.18967 
-0.02239 0.02184 0.19094 
-0.022292 0.018207 0.19272 
-0.022582 0.013896 0.1947 
-0.022284 0.0088934 0.19747 
-0.021699 0.0047923 0.19975 
-0.021656 0.0013025 0.20225 
-0.022217 -0.0026538 0.20541 
-0.022984 -0.0058282 0.2084 
-0.023545 -0.0082438 0.21146 
-0.024363 -0.010637 0.21496 
-0.025136 -0.013324 0.21926 
-0.026732 -0.016264 0.22182 
-0.028281 -0.018846 0.22471 
-0.028125 -0.021209 0.22594 
-0.028062 -0.023938 0.22795 
-0.028083 -0.026017 0.23085 
-0.018887 0.041369 0.18079 
-0.01899 0.038598 0.18266 
-0.018403 0.035879 0.18465 
-0.018813 0.033008 0.18692 
-0.019022 0.030131 0.18924 
-0.019425 0.02697 0.1912 
-0.019411 0.022521 0.19296 
-0.01958 0.018769 0.19454 
-0.020188 0.015332 0.19643 
-0.02014 0.011519 0.19861 
-0.019483 0.0071923 0.20113 
-0.019145 0.0027457 0.20464 
-0.019346 -0.0015013 0.20789 
-0.019721 -0.0047976 0.21155 
-0.020248 -0.0075649 0.21443 
-0.020754 -0.010399 0.21824 
-0.021975 -0.01328 0.22187 
-0.023386 -0.016307 0.22425 
-0.025344 -0.019117 0.22658 
-0.024843 -0.021652 0.22602 
-0.024602 -0.02443 0.22728 
-0.024652 -0.026547 0.23071 
-0.01597 0.039133 0.18393 
-0.015333 0.036438 0.18587 
-0.015492 0.033684 0.18794 
-0.015648 0.030942 0.19 
-0.015136 0.02785 0.19216 
-0.015074 0.023953 0.1951 
-0.016951 0.019388 0.19651 
-0.01742 0.015944 0.19864 
-0.017159 0.012249 0.20059 
-0.016762 0.0082844 0.20371 
-0.016615 0.00445 0.20682 
-0.016647 5.9075e-05 0.21034 
-0.016656 -0.0039848 0.21433 
-0.016666 -0.0071266 0.21791 
-0.016702 -0.010106 0.22122 
-0.018201 -0.012944 0.22367 
-0.02002 -0.015887 0.22596 
-0.021047 -0.018493 0.22723 
-0.021235 -0.020972 0.22711 
-0.020888 -0.02393 0.22837 
-0.021249 -0.026942 0.23237 
-0.012586 0.03685 0.18695 
-0.012234 0.034378 0.1888 
-0.012058 0.031689 0.19086 
-0.011678 0.028553 0.19253 
-0.010864 0.024923 0.19656 
-0.011534 0.020083 0.20006 
-0.013544 0.015694 0.20168 
-0.013583 0.011928 0.20348 
-0.013724 0.0087908 0.20575 
-0.01394 0.005415 0.20824 
-0.013889 0.0011524 0.21225 
-0.013345 -0.0031867 0.21665 
-0.013079 -0.0060842 0.21975 
-0.012895 -0.0091555 0.22274 
-0.013192 -0.01222 0.22476 
-0.015618 -0.014938 0.22576 
-0.016477 -0.017732 0.2272 
-0.016802 -0.020773 0.22792 
-0.017487 -0.023978 0.23023 
-0.017373 -0.026639 0.23379 
-0.0096746 0.034611 0.1896 
-0.0087634 0.032163 0.19176 
-0.0079185 0.028944 0.19454 
-0.0075247 0.024926 0.19863 
-0.0078575 0.01985 0.20215 
-0.0095566 0.015798 0.20396 
-0.010359 0.011989 0.2053 
-0.010575 0.0089773 0.20686 
-0.0108 0.006219 0.20894 
-0.011054 0.0025481 0.21322 
-0.0099083 -0.0019836 0.21774 
-0.0095874 -0.0051244 0.22088 
-0.0093431 -0.0083304 0.22334 
-0.0095267 -0.011254 0.2252 
-0.010675 -0.013913 0.22579 
-0.011795 -0.01722 0.22831 
-0.012289 -0.020352 0.22954 
-0.013313 -0.02497 0.23367 
-0.0047993 0.030984 0.19595 
-0.0043957 0.027638 0.19859 
-0.0044424 0.023123 0.2012 
-0.0050071 0.020453 0.20287 
-0.0060402 0.015369 0.20504 
-0.0068888 0.012026 0.20605 
-0.0071444 0.0092314 0.20756 
-0.0069693 0.0065922 0.21039 
-0.0077955 0.0037121 0.21382 
-0.0064047 -0.00093182 0.2187 
-0.00614 -0.0044329 0.22216 
-0.0058426 -0.0078583 0.22323 
-0.0062645 -0.010916 0.22551 
-0.0068027 -0.013806 0.2267 
-0.0077732 -0.017067 0.22928 
-0.0091961 -0.020514 0.23088 
-0.010885 -0.02357 0.23278 
-0.0010459 0.025253 0.20022 
-0.0013657 0.021874 0.20142 
-0.00071864 0.018411 0.20232 
-0.0018767 0.015483 0.20435 
-0.0027094 0.011678 0.2063 
-0.0027835 0.0091104 0.20887 
-0.0028837 0.0067393 0.21209 
-0.0028684 7.5989e-05 0.21917 
-0.0023659 -0.003877 0.22224 
-0.0023621 -0.0077156 0.22339 
-0.0027183 -0.010861 0.22547 
-0.003699 -0.01387 0.22703 
-0.005144 -0.016412 0.2295 
0.0011516 0.023303 0.19997 
0.001076 0.020744 0.20047 
0.001359 0.017843 0.20137 
0.0016411 0.015228 0.20386 
0.001342 0.012089 0.20706 
0.0010281 0.0093732 0.21 
0.00082764 0.0070967 0.21277 
0.00016534 0.0045309 0.21556 
0.00072775 0.0010352 0.21801 
0.00061274 -0.0028662 0.22119 
0.00026464 -0.007119 0.22343 
0.0031154 0.019608 0.1997 
0.004626 0.017457 0.20075 
0.0048698 0.015181 0.20427 
0.0042978 0.0125 0.20738 
0.0039261 0.0099686 0.21009 
0.0035716 0.0082654 0.21247 
3 10 1 9
3 9 21 10
3 10 2 1
3 21 22 10
3 9 20 21
3 8 20 9
3 8 19 20
3 10 11 2
3 22 11 10
3 22 23 11
3 21 36 22
3 20 35 21
3 19 33 20
3 8 7 19
3 11 3 2
3 23 12 11
3 22 36 23
3 36 37 23
3 21 35 36
3 35 53 36
3 20 34 35
3 33 34 20
3 33 51 34
3 19 18 33
3 7 18 19
3 7 17 18
3 11 12 3
3 12 4 3
3 23 24 12
3 37 38 23
3 36 54 37
3 53 54 36
3 53 72 54
3 35 52 53
3 34 52 35
3 34 51 52
3 51 70 52
3 33 50 51
3 18 32 33
3 17 32 18
3 17 31 32
3 12 13 4
3 24 13 12
3 24 25 13
3 23 38 24
3 38 39 24
3 37 55 38
3 54 55 37
3 54 72 55
3 72 73 55
3 53 71 72
3 52 71 53
3 52 70 71
3 70 91 71
3 51 69 70
3 50 69 51
3 50 68 69
3 33 32 50
3 32 49 50
3 31 49 32
3 31 48 49
3 13 5 4
3 25 14 13
3 24 39 25
3 39 26 25
3 38 56 39
3 55 56 38
3 55 73 56
3 73 74 56
3 72 93 73
3 91 92 71
3 70 69 91
3 69 90 91
3 68 90 69
3 68 89 90
3 50 49 68
3 49 67 68
3 48 66 49
3 31 47 48
3 13 14 5
3 14 6 5
3 25 26 14
3 26 15 14
3 39 40 26
3 56 40 39
3 56 57 40
3 74 57 56
3 74 75 57
3 73 94 74
3 93 94 73
3 93 115 94
3 91 113 92
3 90 112 91
3 89 111 90
3 68 67 89
3 67 88 89
3 49 66 67
3 66 88 67
3 66 87 88
3 48 47 66
3 47 65 66
3 14 15 6
3 26 16 15
3 40 27 26
3 57 41 40
3 75 58 57
3 74 95 75
3 94 95 74
3 94 116 95
3 115 116 94
3 115 138 116
3 113 114 92
3 91 112 113
3 112 134 113
3 90 111 112
3 111 133 112
3 89 88 111
3 88 110 111
3 87 110 88
3 87 109 110
3 66 65 87
3 65 86 87
3 26 27 16
3 27 28 16
3 40 41 27
3 41 42 27
3 57 58 41
3 58 42 41
3 58 59 42
3 75 76 58
3 95 96 75
3 116 117 95
3 138 117 116
3 138 139 117
3 115 137 138
3 113 135 114
3 134 135 113
3 134 156 135
3 112 133 134
3 133 155 134
3 111 132 133
3 110 132 111
3 110 131 132
3 109 131 110
3 109 130 131
3 87 86 109
3 86 108 109
3 65 85 86
3 27 42 28
3 42 29 28
3 59 43 42
3 58 76 59
3 76 77 59
3 75 96 76
3 96 97 76
3 95 117 96
3 117 118 96
3 139 118 117
3 139 140 118
3 138 160 139
3 137 160 138
3 137 159 160
3 115 114 137
3 135 136 114
3 156 157 135
3 134 155 156
3 155 178 156
3 133 154 155
3 132 154 133
3 132 153 154
3 131 153 132
3 131 130 153
3 130 152 153
3 109 108 130
3 108 107 130
3 86 85 108
3 85 107 108
3 42 43 29
3 43 30 29
3 59 60 43
3 77 60 59
3 77 78 60
3 76 97 77
3 97 98 77
3 96 118 97
3 118 119 97
3 140 119 118
3 140 141 119
3 139 161 140
3 160 161 139
3 160 183 161
3 137 136 159
3 136 137 114
3 135 157 136
3 157 158 136
3 156 179 157
3 178 179 156
3 178 202 179
3 155 177 178
3 154 177 155
3 154 153 177
3 153 176 177
3 152 176 153
3 152 175 176
3 130 151 152
3 107 129 130
3 43 44 30
3 60 44 43
3 60 61 44
3 78 61 60
3 78 79 61
3 77 98 78
3 98 99 78
3 97 119 98
3 119 120 98
3 141 142 119
3 140 163 141
3 161 162 140
3 183 184 161
3 136 158 159
3 158 181 159
3 157 180 158
3 179 180 157
3 179 202 180
3 202 203 180
3 178 201 202
3 177 201 178
3 177 200 201
3 176 200 177
3 176 199 200
3 175 198 176
3 152 174 175
3 151 174 152
3 130 129 151
3 61 45 44
3 79 62 61
3 78 99 79
3 99 100 79
3 98 120 99
3 120 121 99
3 119 142 120
3 142 143 120
3 141 164 142
3 163 164 141
3 163 186 164
3 140 162 163
3 162 185 163
3 161 185 162
3 161 184 185
3 184 208 185
3 183 206 184
3 181 182 159
3 158 180 181
3 180 203 181
3 203 204 181
3 202 225 203
3 201 224 202
3 200 223 201
3 199 221 200
3 176 198 199
3 198 220 199
3 175 197 198
3 174 197 175
3 61 62 45
3 62 46 45
3 79 80 62
3 100 80 79
3 100 101 80
3 99 122 100
3 121 122 99
3 121 144 122
3 120 143 121
3 143 144 121
3 143 165 144
3 142 165 143
3 142 164 165
3 164 187 165
3 186 187 164
3 186 209 187
3 163 185 186
3 185 209 186
3 185 208 209
3 208 231 209
3 184 207 208
3 206 207 184
3 206 229 207
3 183 205 206
3 181 204 182
3 204 205 182
3 203 225 204
3 225 226 204
3 202 224 225
3 224 246 225
3 201 223 224
3 223 245 224
3 200 222 223
3 221 222 200
3 221 242 222
3 199 220 221
3 220 242 221
3 198 197 220
3 62 63 46
3 80 63 62
3 80 81 63
3 101 102 80
3 100 123 101
3 122 123 100
3 122 145 123
3 144 145 122
3 144 166 145
3 165 166 144
3 165 189 166
3 187 188 165
3 209 210 187
3 231 232 209
3 208 230 231
3 207 230 208
3 207 229 230
3 229 251 230
3 206 228 229
3 205 228 206
3 205 227 228
3 183 182 205
3 204 226 205
3 226 227 205
3 226 247 227
3 225 246 226
3 246 247 226
3 246 267 247
3 224 245 246
3 245 266 246
3 223 244 245
3 222 243 223
3 242 243 222
3 242 263 243
3 63 64 46
3 81 64 63
3 81 82 64
3 80 102 81
3 102 103 81
3 101 124 102
3 123 124 101
3 123 145 124
3 145 146 124
3 166 167 145
3 189 167 166
3 189 190 167
3 165 188 189
3 188 212 189
3 187 210 188
3 210 211 188
3 209 232 210
3 232 211 210
3 232 233 211
3 231 253 232
3 230 252 231
3 251 252 230
3 251 271 252
3 229 250 251
3 228 250 229
3 228 249 250
3 227 248 228
3 247 248 227
3 247 268 248
3 267 268 247
3 267 286 268
3 246 266 267
3 266 285 267
3 245 265 266
3 244 264 245
3 223 243 244
3 243 263 244
3 263 264 244
3 263 283 264
3 82 83 64
3 81 103 82
3 103 104 82
3 102 124 103
3 124 125 103
3 146 125 124
3 146 147 125
3 145 167 146
3 167 168 146
3 190 168 167
3 190 191 168
3 189 212 190
3 212 213 190
3 188 211 212
3 211 233 212
3 233 234 212
3 232 253 233
3 253 254 233
3 231 252 253
3 252 272 253
3 271 272 252
3 271 291 272
3 251 270 271
3 250 270 251
3 250 269 270
3 249 269 250
3 249 248 269
3 248 249 228
3 268 269 248
3 268 288 269
3 286 287 268
3 267 285 286
3 285 302 286
3 266 284 285
3 265 284 266
3 265 283 284
3 245 264 265
3 283 265 264
3 82 104 83
3 104 105 83
3 103 126 104
3 125 126 103
3 125 147 126
3 147 148 126
3 146 168 147
3 168 169 147
3 191 169 168
3 191 192 169
3 190 213 191
3 213 214 191
3 212 234 213
3 234 235 213
3 233 254 234
3 254 255 234
3 253 273 254
3 272 273 253
3 272 292 273
3 291 292 272
3 291 309 292
3 271 290 291
3 270 289 271
3 269 289 270
3 269 288 289
3 288 306 289
3 268 287 288
3 287 305 288
3 286 303 287
3 302 303 286
3 302 318 303
3 285 301 302
3 284 301 285
3 105 84 83
3 104 127 105
3 126 127 104
3 126 149 127
3 148 149 126
3 148 170 149
3 147 169 148
3 169 170 148
3 169 192 170
3 192 193 170
3 191 214 192
3 214 215 192
3 213 235 214
3 235 236 214
3 234 255 235
3 255 256 235
3 254 274 255
3 273 274 254
3 273 293 274
3 292 293 273
3 292 310 293
3 309 310 292
3 309 325 310
3 291 308 309
3 290 307 291
3 271 289 290
3 289 307 290
3 289 306 307
3 306 323 307
3 288 305 306
3 305 322 306
3 287 304 305
3 303 304 287
3 303 319 304
3 318 319 303
3 318 331 319
3 105 106 84
3 127 128 105
3 149 128 127
3 149 150 128
3 170 171 149
3 193 171 170
3 193 194 171
3 192 215 193
3 215 216 193
3 214 236 215
3 236 237 215
3 235 256 236
3 256 257 236
3 255 276 256
3 274 275 255
3 293 294 274
3 310 294 293
3 310 311 294
3 325 326 310
3 308 324 309
3 291 307 308
3 307 323 308
3 323 324 308
3 323 337 324
3 306 322 323
3 322 336 323
3 305 321 322
3 304 321 305
3 304 320 321
3 319 320 304
3 319 332 320
3 331 332 319
3 331 342 332
3 105 128 106
3 149 171 150
3 171 172 150
3 194 172 171
3 194 195 172
3 193 216 194
3 216 217 194
3 215 237 216
3 237 238 216
3 236 257 237
3 257 258 237
3 256 277 257
3 276 277 256
3 276 296 277
3 255 275 276
3 275 295 276
3 274 294 275
3 294 295 275
3 294 312 295
3 311 312 294
3 311 327 312
3 310 326 311
3 326 327 311
3 326 341 327
3 325 340 326
3 337 338 324
3 323 336 337
3 336 347 337
3 322 335 336
3 321 335 322
3 321 334 335
3 320 334 321
3 320 333 334
3 332 333 320
3 332 342 333
3 342 343 333
3 195 173 172
3 194 218 195
3 217 218 194
3 217 240 218
3 216 239 217
3 238 239 216
3 238 260 239
3 237 259 238
3 258 259 237
3 258 279 259
3 257 278 258
3 277 278 257
3 277 297 278
3 296 297 277
3 296 313 297
3 276 295 296
3 295 313 296
3 295 312 313
3 312 328 313
3 327 328 312
3 327 341 328
3 326 340 341
3 325 339 340
3 336 346 347
3 335 346 336
3 335 345 346
3 334 345 335
3 334 344 345
3 333 344 334
3 333 343 344
3 195 196 173
3 218 196 195
3 218 219 196
3 240 241 218
3 217 239 240
3 239 261 240
3 260 261 239
3 260 280 261
3 238 259 260
3 259 279 260
3 279 280 260
3 279 298 280
3 258 278 279
3 278 298 279
3 278 297 298
3 297 315 298
3 313 314 297
3 328 329 313
3 325 338 339
3 218 241 219
3 240 261 241
3 261 262 241
3 280 281 261
3 298 299 280
3 315 316 298
3 297 314 315
3 314 330 315
3 313 329 314
3 329 330 314
3 261 281 262
3 281 282 262
3 298 316 299
3 316 317 299
3 281 300 282
3 71 92 72
3 92 93 72
3 92 114 93
3 114 115 93
3 159 182 160
3 182 183 160
3 44 45 30
3 302 301 318
3 172 173 150
3 337 347 338
3 338 309 324
3 338 325 309
3 280 299 281
3 299 317 281
3 317 300 281
3 1 0 9
3 9 0 8
