ply
format ascii 1.0
comment PCL generated
element vertex 348
property float x
property float y
property float z
element face 631
property list uchar int vertex_indices
end_header
-0.055707 0.023601 0.18645 
-0.056311 0.021103 0.1881 
-0.056939 0.017701 0.19001 
-0.057219 0.014467 0.19197 
-0.057352 0.011401 0.19398 
-0.057243 0.0085782 0.19592 
-0.056804 0.0059544 0.19771 
-0.052152 0.025653 0.18245 
-0.05306 0.024305 0.18361 
-0.053299 0.021559 0.18529 
-0.053731 0.018146 0.18725 
-0.054107 0.01427 0.18952 
-0.054495 0.010902 0.19183 
-0.054881 0.0079141 0.19464 
-0.054346 0.0046529 0.19697 
-0.051496 0.00071557 0.19843 
-0.051828 -0.0020643 0.20075 
-0.049068 0.028537 0.18011 
-0.049547 0.026824 0.18096 
-0.04975 0.024616 0.1819 
-0.050165 0.022175 0.18318 
-0.0507 0.01849 0.18571 
-0.05069 0.013436 0.18847 
-0.05102 0.0098376 0.19086 
-0.0512 0.0068635 0.19371 
-0.050289 0.0030309 0.19577 
-0.049237 -0.0011511 0.1984 
-0.050329 -0.0035625 0.20079 
-0.051429 -0.004772 0.2036 
-0.05149 -0.0058094 0.20574 
-0.051382 -0.0071445 0.20621 
-0.04665 0.02994 0.17945 
-0.046763 0.027559 0.1801 
-0.047038 0.025176 0.18112 
-0.047527 0.022779 0.18266 
-0.048214 0.019535 0.18474 
-0.047731 0.011833 0.18782 
-0.047978 0.0082218 0.19067 
-0.048029 0.0047985 0.19326 
-0.047085 -0.00060567 0.19579 
-0.047697 -0.0038196 0.19782 
-0.04792 -0.0058282 0.19969 
-0.048372 -0.0063459 0.20202 
-0.048824 -0.0063672 0.20538 
-0.049543 -0.0079276 0.20729 
-0.050052 -0.0103 0.20954 
-0.04974 -0.013555 0.213 
-0.043715 0.033644 0.17863 
-0.043882 0.031248 0.17941 
-0.044047 0.028409 0.18024 
-0.044412 0.025793 0.18128 
-0.045001 0.023096 0.18277 
-0.045611 0.019814 0.18433 
-0.045645 0.012776 0.18619 
-0.046057 0.0065225 0.19058 
-0.045521 0.0019141 0.19324 
-0.045956 -0.0038988 0.19598 
-0.047168 -0.007924 0.19702 
-0.047027 -0.0087323 0.19862 
-0.045947 -0.0070471 0.20065 
-0.045557 -0.0070817 0.20507 
-0.045952 -0.0085015 0.20814 
-0.046922 -0.011276 0.21023 
-0.047871 -0.014264 0.21245 
-0.049112 -0.016229 0.21569 
-0.041227 0.035597 0.17803 
-0.041607 0.032158 0.17967 
-0.041185 0.029433 0.18062 
-0.041766 0.026559 0.18166 
-0.042181 0.023821 0.18268 
-0.042541 0.020533 0.18394 
-0.043207 0.015079 0.18519 
-0.044509 0.0051316 0.19037 
-0.043889 -0.0004375 0.19285 
-0.045003 -0.0071097 0.19459 
-0.045371 -0.010342 0.19618 
-0.04402 -0.0096468 0.19868 
-0.042833 -0.0077444 0.20042 
-0.04248 -0.0078124 0.20471 
-0.042537 -0.0094399 0.20818 
-0.042952 -0.0122 0.21081 
-0.044519 -0.01478 0.21283 
-0.046783 -0.016442 0.216 
-0.047328 -0.018932 0.21977 
-0.046939 -0.021091 0.22227 
-0.037552 0.039455 0.17614 
-0.038061 0.037261 0.17786 
-0.037039 0.034495 0.1797 
-0.038021 0.031768 0.18082 
-0.038438 0.028502 0.18168 
-0.03899 0.024579 0.18272 
-0.038925 0.02113 0.18356 
-0.040713 0.014958 0.18513 
-0.042684 0.0045483 0.1894 
-0.041643 -0.00058776 0.19114 
-0.04304 -0.0089902 0.19306 
-0.041929 -0.011105 0.196 
-0.040382 -0.0096673 0.19859 
-0.039946 -0.0085626 0.19948 
-0.039141 -0.0092031 0.20326 
-0.039555 -0.011043 0.20624 
-0.04079 -0.013242 0.2085 
-0.042306 -0.014798 0.21121 
-0.043061 -0.016843 0.21488 
-0.043463 -0.019473 0.21868 
-0.04446 -0.02181 0.22233 
-0.04405 -0.023675 0.22429 
-0.034982 0.040353 0.17629 
-0.034782 0.038657 0.17814 
-0.034583 0.035645 0.17982 
-0.035094 0.0328 0.18097 
-0.034825 0.030123 0.18205 
-0.034612 0.026337 0.18355 
-0.034304 0.022842 0.18405 
-0.038007 0.015221 0.18502 
-0.04089 0.0060903 0.1878 
-0.038764 0.0005561 0.18912 
-0.039572 -0.01052 0.19203 
-0.0385 -0.012297 0.19536 
-0.037502 -0.010409 0.19639 
-0.036667 -0.0095072 0.19843 
-0.036591 -0.0106 0.20143 
-0.036785 -0.012186 0.20405 
-0.037927 -0.01368 0.20767 
-0.039714 -0.015665 0.21096 
-0.039664 -0.017324 0.21453 
-0.039927 -0.01951 0.21812 
-0.040436 -0.021801 0.22165 
-0.040849 -0.023922 0.22428 
-0.031928 0.040959 0.17684 
-0.031855 0.03933 0.17837 
-0.031914 0.036001 0.18046 
-0.03208 0.03277 0.18179 
-0.031574 0.030347 0.18292 
-0.031092 0.026999 0.18419 
-0.030921 0.022665 0.18502 
-0.031867 0.018728 0.18509 
-0.038257 0.0087862 0.18617 
-0.035916 0.003082 0.18771 
-0.033958 -0.00019044 0.18841 
-0.034453 -0.0089017 0.19047 
-0.033852 -0.0093589 0.1946 
-0.03341 -0.0084029 0.19783 
-0.033065 -0.0099186 0.20128 
-0.033345 -0.011991 0.20415 
-0.034718 -0.013522 0.20822 
-0.036374 -0.015829 0.21191 
-0.036725 -0.017399 0.21465 
-0.036817 -0.01921 0.21829 
-0.037588 -0.021931 0.22145 
-0.037335 -0.023541 0.22414 
-0.029072 0.041399 0.17729 
-0.028898 0.039684 0.1787 
-0.028823 0.036492 0.18075 
-0.028816 0.033302 0.18232 
-0.028328 0.030628 0.18348 
-0.028246 0.027139 0.18481 
-0.028111 0.023432 0.18593 
-0.02782 0.020586 0.18619 
-0.032406 0.013735 0.18574 
-0.032355 0.0061457 0.18745 
-0.029237 0.0038957 0.18954 
-0.02884 0.00025562 0.19154 
-0.029648 -0.004879 0.19376 
-0.02989 -0.0066494 0.19597 
-0.030044 -0.0094389 0.20211 
-0.030177 -0.011271 0.2046 
-0.031536 -0.013127 0.209 
-0.033096 -0.015506 0.21277 
-0.033219 -0.017248 0.21528 
-0.03338 -0.018708 0.21959 
-0.033463 -0.02094 0.22199 
-0.034015 -0.02337 0.22489 
-0.033795 -0.024522 0.22775 
-0.026109 0.041806 0.17776 
-0.025958 0.040137 0.1789 
-0.025416 0.037546 0.18033 
-0.025531 0.034189 0.18239 
-0.025328 0.031124 0.18397 
-0.025338 0.027686 0.18565 
-0.025389 0.024166 0.18681 
-0.025521 0.021032 0.18714 
-0.026717 0.016423 0.18765 
-0.028373 0.0093846 0.18833 
-0.024766 0.0056328 0.19194 
-0.024336 0.0022378 0.19437 
-0.023793 -0.0011095 0.19713 
-0.024341 -0.0049898 0.20102 
-0.025547 -0.0077078 0.20414 
-0.026862 -0.010087 0.20685 
-0.028047 -0.012314 0.21072 
-0.02876 -0.014428 0.21469 
-0.029698 -0.016838 0.21722 
-0.030259 -0.018909 0.2205 
-0.030528 -0.021199 0.22299 
-0.031037 -0.023693 0.22559 
-0.031069 -0.024894 0.22835 
-0.024062 0.042518 0.17784 
-0.022917 0.040803 0.17932 
-0.021987 0.038693 0.18057 
-0.021815 0.035415 0.18247 
-0.022116 0.031701 0.18488 
-0.022359 0.028684 0.18678 
-0.022824 0.024975 0.18792 
-0.023081 0.021437 0.18877 
-0.022973 0.017751 0.1903 
-0.022585 0.013356 0.19183 
-0.021675 0.0081032 0.19429 
-0.020973 0.0038868 0.1966 
-0.020939 0.00023773 0.19937 
-0.021721 -0.0037575 0.20321 
-0.022677 -0.0066182 0.20664 
-0.023366 -0.0088815 0.20995 
-0.024227 -0.011229 0.21357 
-0.025009 -0.013859 0.2177 
-0.026616 -0.016945 0.21991 
-0.028066 -0.019413 0.2222 
-0.027774 -0.021542 0.22347 
-0.027629 -0.023757 0.22572 
-0.027647 -0.025539 0.22887 
-0.019163 0.041264 0.18039 
-0.01917 0.038411 0.18209 
-0.018475 0.035543 0.18378 
-0.01882 0.032587 0.18578 
-0.019034 0.029723 0.1881 
-0.01951 0.026545 0.18991 
-0.020143 0.021903 0.19103 
-0.020156 0.018265 0.19222 
-0.02019 0.014773 0.19377 
-0.019698 0.010797 0.19548 
-0.018772 0.0063249 0.19795 
-0.018506 0.0016962 0.20207 
-0.01879 -0.0026187 0.20591 
-0.019282 -0.0058514 0.21015 
-0.019969 -0.0084912 0.21317 
-0.020603 -0.011162 0.21703 
-0.021978 -0.013883 0.22052 
-0.023494 -0.016931 0.2226 
-0.025305 -0.019545 0.22436 
-0.024652 -0.021786 0.22389 
-0.024343 -0.024169 0.22535 
-0.024352 -0.025964 0.22902 
-0.016219 0.038984 0.18342 
-0.015432 0.036177 0.18507 
-0.015484 0.033336 0.18692 
-0.015627 0.030632 0.18892 
-0.01503 0.027598 0.19107 
-0.014848 0.023586 0.19367 
-0.017293 0.018966 0.19428 
-0.017371 0.015409 0.19607 
-0.016678 0.011498 0.19771 
-0.015907 0.0072877 0.20101 
-0.015954 0.0034141 0.20449 
-0.016037 -0.0010262 0.20861 
-0.016204 -0.0052746 0.21322 
-0.01633 -0.0084791 0.21679 
-0.016484 -0.011416 0.22017 
-0.018354 -0.013726 0.22245 
-0.020277 -0.016431 0.22448 
-0.021217 -0.018766 0.22543 
-0.021255 -0.020965 0.22523 
-0.020822 -0.023549 0.22666 
-0.021222 -0.026272 0.23078 
-0.012682 0.036609 0.18619 
-0.012227 0.034084 0.18781 
-0.011993 0.031449 0.18974 
-0.011516 0.028376 0.19143 
-0.010483 0.024673 0.1953 
-0.010924 0.019597 0.19841 
-0.013045 0.015038 0.19947 
-0.012902 0.011055 0.20114 
-0.013065 0.0079288 0.20348 
-0.01346 0.0045977 0.20605 
-0.013462 0.00015881 0.21069 
-0.012801 -0.0048704 0.21563 
-0.012622 -0.0078273 0.21884 
-0.012607 -0.010822 0.22189 
-0.013123 -0.013491 0.22388 
-0.015775 -0.015536 0.22441 
-0.016774 -0.018005 0.22553 
-0.017089 -0.020782 0.22628 
-0.017695 -0.023609 0.22863 
-0.017626 -0.026033 0.23227 
-0.0096951 0.034394 0.18866 
-0.0087337 0.032032 0.19074 
-0.0077873 0.028939 0.19359 
-0.0070754 0.024737 0.19769 
-0.0072274 0.019492 0.20109 
-0.0089419 0.01526 0.20242 
-0.0098209 0.011313 0.20355 
-0.010135 0.0083613 0.20511 
-0.010532 0.0055735 0.20715 
-0.010849 0.0017195 0.21167 
-0.0092643 -0.0039422 0.21695 
-0.0091142 -0.0070113 0.22029 
-0.0090631 -0.009974 0.22289 
-0.0093838 -0.01249 0.22476 
-0.010656 -0.0147 0.22515 
-0.012053 -0.017478 0.22725 
-0.012743 -0.020475 0.22844 
-0.013923 -0.024624 0.23245 
-0.0047264 0.031053 0.19524 
-0.0041202 0.027624 0.19802 
-0.0039876 0.023001 0.20074 
-0.0045913 0.020192 0.2022 
-0.0055423 0.015054 0.20398 
-0.006451 0.011564 0.20491 
-0.0068797 0.0088073 0.20644 
-0.0069565 0.0061942 0.20934 
-0.0079643 0.0031134 0.21258 
-0.0057695 -0.0029078 0.21819 
-0.005774 -0.0062265 0.22182 
-0.00568 -0.0094264 0.22318 
-0.0062531 -0.012111 0.22544 
-0.0068842 -0.014616 0.22667 
-0.0081263 -0.017486 0.22903 
-0.0097427 -0.020678 0.23029 
-0.011589 -0.023489 0.23202 
-0.00068945 0.025332 0.20008 
-0.00091877 0.021932 0.2013 
-0.00014797 0.018549 0.20226 
-0.0014211 0.015548 0.20408 
-0.0024256 0.0117 0.20605 
-0.00263 0.0089088 0.20853 
-0.0028609 0.0062285 0.21145 
-0.0023991 -0.001581 0.21881 
-0.0020616 -0.0055756 0.22225 
-0.0021995 -0.0091773 0.22368 
-0.0027547 -0.011979 0.2258 
-0.0038262 -0.014615 0.22732 
-0.00552 -0.016921 0.22971 
0.0016063 0.023522 0.20012 
0.0016505 0.020992 0.20063 
0.0020367 0.018142 0.20153 
0.002103 0.01551 0.2041 
0.0015574 0.012193 0.20725 
0.0011847 0.009136 0.2099 
0.00092683 0.0065944 0.21244 
0.00015737 0.0038298 0.21502 
0.00090322 -0.00019772 0.21758 
0.00089618 -0.0043594 0.22135 
0.00040546 -0.0085174 0.22393 
0.0038097 0.019996 0.20009 
0.0053509 0.017899 0.20127 
0.0052697 0.015566 0.20488 
0.0044968 0.012647 0.2078 
0.0040641 0.0098233 0.21025 
0.0036277 0.0078655 0.21243 
3 10 1 9
3 9 21 10
3 10 2 1
3 21 22 10
3 9 20 21
3 8 20 9
3 8 19 20
3 10 11 2
3 22 11 10
3 22 23 11
3 21 36 22
3 20 35 21
3 19 33 20
3 8 7 19
3 11 3 2
3 23 12 11
3 22 36 23
3 36 37 23
3 21 35 36
3 35 53 36
3 20 34 35
3 33 34 20
3 33 51 34
3 19 18 33
3 7 18 19
3 7 17 18
3 11 12 3
3 12 4 3
3 23 24 12
3 37 38 23
3 36 54 37
3 53 54 36
3 53 72 54
3 35 52 53
3 34 52 35
3 34 51 52
3 51 70 52
3 33 50 51
3 18 32 33
3 17 32 18
3 17 31 32
3 12 13 4
3 24 13 12
3 24 25 13
3 23 38 24
3 38 39 24
3 37 55 38
3 54 55 37
3 54 72 55
3 72 73 55
3 53 71 72
3 52 71 53
3 52 70 71
3 70 91 71
3 51 69 70
3 50 69 51
3 50 68 69
3 33 32 50
3 32 49 50
3 31 49 32
3 31 48 49
3 13 5 4
3 25 14 13
3 24 39 25
3 39 26 25
3 38 56 39
3 55 56 38
3 55 73 56
3 73 74 56
3 72 93 73
3 91 92 71
3 70 69 91
3 69 90 91
3 68 90 69
3 68 89 90
3 50 49 68
3 49 67 68
3 48 66 49
3 31 47 48
3 13 14 5
3 14 6 5
3 25 26 14
3 26 15 14
3 39 40 26
3 56 40 39
3 56 57 40
3 74 57 56
3 74 75 57
3 73 94 74
3 93 94 73
3 93 115 94
3 91 113 92
3 90 112 91
3 89 111 90
3 68 67 89
3 67 88 89
3 49 66 67
3 66 88 67
3 66 87 88
3 48 47 66
3 47 65 66
3 14 15 6
3 26 16 15
3 40 27 26
3 57 41 40
3 75 58 57
3 74 95 75
3 94 95 74
3 94 116 95
3 115 116 94
3 115 138 116
3 113 114 92
3 91 112 113
3 112 134 113
3 90 111 112
3 111 133 112
3 89 88 111
3 88 110 111
3 87 110 88
3 87 109 110
3 66 65 87
3 65 86 87
3 26 27 16
3 27 28 16
3 40 41 27
3 41 42 27
3 57 58 41
3 58 42 41
3 58 59 42
3 75 76 58
3 95 96 75
3 116 117 95
3 138 117 116
3 138 139 117
3 115 137 138
3 113 135 114
3 134 135 113
3 134 156 135
3 112 133 134
3 133 155 134
3 111 132 133
3 110 132 111
3 110 131 132
3 109 131 110
3 109 130 131
3 87 86 109
3 86 108 109
3 65 85 86
3 27 42 28
3 42 29 28
3 59 43 42
3 58 76 59
3 76 77 59
3 75 96 76
3 96 97 76
3 95 117 96
3 117 118 96
3 139 118 117
3 139 140 118
3 138 160 139
3 137 160 138
3 137 159 160
3 115 114 137
3 135 136 114
3 156 157 135
3 134 155 156
3 155 178 156
3 133 154 155
3 132 154 133
3 132 153 154
3 131 153 132
3 131 130 153
3 130 152 153
3 109 108 130
3 108 107 130
3 86 85 108
3 85 107 108
3 42 43 29
3 43 30 29
3 59 60 43
3 77 60 59
3 77 78 60
3 76 97 77
3 97 98 77
3 96 118 97
3 118 119 97
3 140 119 118
3 140 141 119
3 139 161 140
3 160 161 139
3 160 183 161
3 137 136 159
3 136 137 114
3 135 157 136
3 157 158 136
3 156 179 157
3 178 179 156
3 178 202 179
3 155 177 178
3 154 177 155
3 154 153 177
3 153 176 177
3 152 176 153
3 152 175 176
3 130 151 152
3 107 129 130
3 43 44 30
3 60 44 43
3 60 61 44
3 78 61 60
3 78 79 61
3 77 98 78
3 98 99 78
3 97 119 98
3 119 120 98
3 141 142 119
3 140 163 141
3 161 162 140
3 183 184 161
3 136 158 159
3 158 181 159
3 157 180 158
3 179 180 157
3 179 202 180
3 202 203 180
3 178 201 202
3 177 201 178
3 177 200 201
3 176 200 177
3 176 199 200
3 175 198 176
3 152 174 175
3 151 174 152
3 130 129 151
3 61 45 44
3 79 62 61
3 78 99 79
3 99 100 79
3 98 120 99
3 120 121 99
3 119 142 120
3 142 143 120
3 141 164 142
3 163 164 141
3 163 186 164
3 140 162 163
3 162 185 163
3 161 185 162
3 161 184 185
3 184 208 185
3 183 206 184
3 181 182 159
3 158 180 181
3 180 203 181
3 203 204 181
3 202 225 203
3 201 224 202
3 200 223 201
3 199 221 200
3 176 198 199
3 198 220 199
3 175 197 198
3 174 197 175
3 61 62 45
3 62 46 45
3 79 80 62
3 100 80 79
3 100 101 80
3 99 122 100
3 121 122 99
3 121 144 122
3 120 143 121
3 143 144 121
3 143 165 144
3 142 165 143
3 142 164 165
3 164 187 165
3 186 187 164
3 186 209 187
3 163 185 186
3 185 209 186
3 185 208 209
3 208 231 209
3 184 207 208
3 206 207 184
3 206 229 207
3 183 205 206
3 181 204 182
3 204 205 182
3 203 225 204
3 225 226 204
3 202 224 225
3 224 246 225
3 201 223 224
3 223 245 224
3 200 222 223
3 221 222 200
3 221 242 222
3 199 220 221
3 220 242 221
3 198 197 220
3 62 63 46
3 80 63 62
3 80 81 63
3 101 102 80
3 100 123 101
3 122 123 100
3 122 145 123
3 144 145 122
3 144 166 145
3 165 166 144
3 165 189 166
3 187 188 165
3 209 210 187
3 231 232 209
3 208 230 231
3 207 230 208
3 207 229 230
3 229 251 230
3 206 228 229
3 205 228 206
3 205 227 228
3 183 182 205
3 204 226 205
3 226 227 205
3 226 247 227
3 225 246 226
3 246 247 226
3 246 267 247
3 224 245 246
3 245 266 246
3 223 244 245
3 222 243 223
3 242 243 222
3 242 263 243
3 63 64 46
3 81 64 63
3 81 82 64
3 80 102 81
3 102 103 81
3 101 124 102
3 123 124 101
3 123 145 124
3 145 146 124
3 166 167 145
3 189 167 166
3 189 190 167
3 165 188 189
3 188 212 189
3 187 210 188
3 210 211 188
3 209 232 210
3 232 211 210
3 232 233 211
3 231 253 232
3 230 252 231
3 251 252 230
3 251 271 252
3 229 250 251
3 228 250 229
3 228 249 250
3 227 248 228
3 247 248 227
3 247 268 248
3 267 268 247
3 267 286 268
3 246 266 267
3 266 285 267
3 245 265 266
3 244 264 245
3 223 243 244
3 243 263 244
3 263 264 244
3 263 283 264
3 82 83 64
3 81 103 82
3 103 104 82
3 102 124 103
3 124 125 103
3 146 125 124
3 146 147 125
3 145 167 146
3 167 168 146
3 190 168 167
3 190 191 168
3 189 212 190
3 212 213 190
3 188 211 212
3 211 233 212
3 233 234 212
3 232 253 233
3 253 254 233
3 231 252 253
3 252 272 253
3 271 272 252
3 271 291 272
3 251 270 271
3 250 270 251
3 250 269 270
3 249 269 250
3 249 248 269
3 248 249 228
3 268 269 248
3 268 288 269
3 286 287 268
3 267 285 286
3 285 302 286
3 266 284 285
3 265 284 266
3 265 283 284
3 245 264 265
3 283 265 264
3 82 104 83
3 104 105 83
3 103 126 104
3 125 126 103
3 125 147 126
3 147 148 126
3 146 168 147
3 168 169 147
3 191 169 168
3 191 192 169
3 190 213 191
3 213 214 191
3 212 234 213
3 234 235 213
3 233 254 234
3 254 255 234
3 253 273 254
3 272 273 253
3 272 292 273
3 291 292 272
3 291 309 292
3 271 290 291
3 270 289 271
3 269 289 270
3 269 288 289
3 288 306 289
3 268 287 288
3 287 305 288
3 286 303 287
3 302 303 286
3 302 318 303
3 285 301 302
3 284 301 285
3 105 84 83
3 104 127 105
3 126 127 104
3 126 149 127
3 148 149 126
3 148 170 149
3 147 169 148
3 169 170 148
3 169 192 170
3 192 193 170
3 191 214 192
3 214 215 192
3 213 235 214
3 235 236 214
3 234 255 235
3 255 256 235
3 254 274 255
3 273 274 254
3 273 293 274
3 292 293 273
3 292 310 293
3 309 310 292
3 309 325 310
3 291 308 309
3 290 307 291
3 271 289 290
3 289 307 290
3 289 306 307
3 306 323 307
3 288 305 306
3 305 322 306
3 287 304 305
3 303 304 287
3 303 319 304
3 318 319 303
3 318 331 319
3 105 106 84
3 127 128 105
3 149 128 127
3 149 150 128
3 170 171 149
3 193 171 170
3 193 194 171
3 192 215 193
3 215 216 193
3 214 236 215
3 236 237 215
3 235 256 236
3 256 257 236
3 255 276 256
3 274 275 255
3 293 294 274
3 310 294 293
3 310 311 294
3 325 326 310
3 308 324 309
3 291 307 308
3 307 323 308
3 323 324 308
3 323 337 324
3 306 322 323
3 322 336 323
3 305 321 322
3 304 321 305
3 304 320 321
3 319 320 304
3 319 332 320
3 331 332 319
3 331 342 332
3 105 128 106
3 149 171 150
3 171 172 150
3 194 172 171
3 194 195 172
3 193 216 194
3 216 217 194
3 215 237 216
3 237 238 216
3 236 257 237
3 257 258 237
3 256 277 257
3 276 277 256
3 276 296 277
3 255 275 276
3 275 295 276
3 274 294 275
3 294 295 275
3 294 312 295
3 311 312 294
3 311 327 312
3 310 326 311
3 326 327 311
3 326 341 327
3 325 340 326
3 337 338 324
3 323 336 337
3 336 347 337
3 322 335 336
3 321 335 322
3 321 334 335
3 320 334 321
3 320 333 334
3 332 333 320
3 332 342 333
3 342 343 333
3 195 173 172
3 194 218 195
3 217 218 194
3 217 240 218
3 216 239 217
3 238 239 216
3 238 260 239
3 237 259 238
3 258 259 237
3 258 279 259
3 257 278 258
3 277 278 257
3 277 297 278
3 296 297 277
3 296 313 297
3 276 295 296
3 295 313 296
3 295 312 313
3 312 328 313
3 327 328 312
3 327 341 328
3 326 340 341
3 325 339 340
3 336 346 347
3 335 346 336
3 335 345 346
3 334 345 335
3 334 344 345
3 333 344 334
3 333 343 344
3 195 196 173
3 218 196 195
3 218 219 196
3 240 241 218
3 217 239 240
3 239 261 240
3 260 261 239
3 260 280 261
3 238 259 260
3 259 279 260
3 279 280 260
3 279 298 280
3 258 278 279
3 278 298 279
3 278 297 298
3 297 315 298
3 313 314 297
3 328 329 313
3 325 338 339
3 218 241 219
3 240 261 241
3 261 262 241
3 280 281 261
3 298 299 280
3 315 316 298
3 297 314 315
3 314 330 315
3 313 329 314
3 329 330 314
3 261 281 262
3 281 282 262
3 298 316 299
3 316 317 299
3 281 300 282
3 71 92 72
3 92 93 72
3 92 114 93
3 114 115 93
3 159 182 160
3 182 183 160
3 44 45 30
3 302 301 318
3 172 173 150
3 337 347 338
3 338 309 324
3 338 325 309
3 280 299 281
3 299 317 281
3 317 300 281
3 1 0 9
3 9 0 8
