ply
format ascii 1.0
comment PCL generated
element vertex 348
property float x
property float y
property float z
element face 631
property list uchar int vertex_indices
end_header
-0.055321 0.02317 0.18562 
-0.055998 0.020785 0.18752 
-0.056561 0.017502 0.18935 
-0.056809 0.014306 0.19127 
-0.056909 0.011307 0.19325 
-0.056816 0.0085336 0.19523 
-0.056404 0.0059363 0.19705 
-0.05197 0.025207 0.18195 
-0.052853 0.023952 0.183 
-0.053046 0.021261 0.18457 
-0.053491 0.017895 0.1865 
-0.053794 0.014082 0.18861 
-0.054193 0.010745 0.19088 
-0.054587 0.0077984 0.19374 
-0.054033 0.0045372 0.19575 
-0.051687 0.00050752 0.19719 
-0.051993 -0.0022533 0.1995 
-0.048988 0.028024 0.17977 
-0.049461 0.02632 0.18056 
-0.04966 0.024133 0.18138 
-0.050053 0.021737 0.18253 
-0.050504 0.018142 0.18481 
-0.050477 0.013258 0.18731 
-0.050789 0.0096542 0.1896 
-0.05093 0.0065465 0.19189 
-0.050258 0.0027729 0.19406 
-0.049436 -0.0013006 0.19703 
-0.05049 -0.0037441 0.19952 
-0.051516 -0.0049551 0.20239 
-0.051503 -0.0059722 0.20458 
-0.051382 -0.0071565 0.20516 
-0.046593 0.029353 0.17898 
-0.046762 0.027044 0.17963 
-0.047038 0.0247 0.18054 
-0.047498 0.022284 0.18192 
-0.048072 0.019027 0.18377 
-0.047616 0.011677 0.18641 
-0.047829 0.0079717 0.18919 
-0.047848 0.0044677 0.19118 
-0.047416 -0.00073276 0.19417 
-0.047921 -0.0040359 0.19638 
-0.048071 -0.0059849 0.1983 
-0.048468 -0.0065013 0.20078 
-0.048765 -0.0064423 0.2042 
-0.049525 -0.0078615 0.20626 
-0.050115 -0.010121 0.20861 
-0.04992 -0.013514 0.21223 
-0.043593 0.032942 0.17787 
-0.043841 0.030626 0.17874 
-0.044031 0.027876 0.17963 
-0.04444 0.025308 0.18057 
-0.044994 0.022605 0.18187 
-0.04554 0.019294 0.18318 
-0.045552 0.012566 0.1847 
-0.04604 0.0063876 0.18844 
-0.04555 0.0018091 0.19106 
-0.04636 -0.0039126 0.19414 
-0.047499 -0.0081263 0.19554 
-0.047197 -0.0088788 0.19725 
-0.046078 -0.0071863 0.19935 
-0.045514 -0.0070952 0.20384 
-0.045843 -0.0084194 0.20699 
-0.047039 -0.011303 0.20938 
-0.048083 -0.014279 0.21164 
-0.049358 -0.016202 0.2149 
-0.041172 0.034883 0.17719 
-0.041514 0.031479 0.17884 
-0.04111 0.028853 0.17981 
-0.041788 0.026063 0.18079 
-0.042203 0.023373 0.18162 
-0.042521 0.020053 0.18261 
-0.043172 0.014793 0.18357 
-0.044488 0.0050834 0.18814 
-0.044203 -0.00048955 0.1905 
-0.045615 -0.0073352 0.19287 
-0.04568 -0.01041 0.1947 
-0.044156 -0.0096846 0.19718 
-0.042927 -0.0077686 0.19893 
-0.042455 -0.0078306 0.20338 
-0.042426 -0.0094275 0.2069 
-0.043029 -0.012196 0.2098 
-0.044786 -0.014833 0.21188 
-0.047049 -0.016487 0.21509 
-0.047465 -0.019008 0.21886 
-0.046989 -0.021125 0.22117 
-0.037559 0.039077 0.17558 
-0.038038 0.036726 0.17713 
-0.036966 0.033946 0.17878 
-0.037973 0.031199 0.17975 
-0.03838 0.028026 0.18052 
-0.038964 0.024171 0.18142 
-0.038904 0.020756 0.182 
-0.04074 0.014777 0.18336 
-0.042878 0.004915 0.18684 
-0.042051 -0.00043563 0.18823 
-0.043715 -0.0090951 0.19129 
-0.042263 -0.011147 0.19434 
-0.040584 -0.0097155 0.19685 
-0.040095 -0.0086184 0.19777 
-0.039133 -0.0093212 0.20159 
-0.039601 -0.011134 0.20468 
-0.041135 -0.013213 0.20728 
-0.04273 -0.01471 0.21 
-0.043456 -0.016958 0.21374 
-0.043685 -0.0196 0.21757 
-0.044516 -0.021985 0.22119 
-0.043853 -0.0239 0.22298 
-0.034994 0.040091 0.17573 
-0.034754 0.038338 0.1775 
-0.034557 0.035221 0.17894 
-0.035081 0.032356 0.17983 
-0.034732 0.029724 0.18072 
-0.03443 0.025953 0.18198 
-0.034288 0.022618 0.18234 
-0.038127 0.01531 0.1831 
-0.041196 0.0066115 0.18506 
-0.039263 0.0010614 0.18564 
-0.040313 -0.010911 0.18984 
-0.039021 -0.012572 0.19314 
-0.037935 -0.010727 0.19391 
-0.036912 -0.0097864 0.19609 
-0.036752 -0.01084 0.19955 
-0.036976 -0.01239 0.2022 
-0.038429 -0.013743 0.20628 
-0.040406 -0.015664 0.20959 
-0.040215 -0.017524 0.21318 
-0.040236 -0.019661 0.2168 
-0.040564 -0.022019 0.2203 
-0.040791 -0.024175 0.22278 
-0.031919 0.040728 0.17624 
-0.031824 0.03905 0.17775 
-0.031928 0.035548 0.17967 
-0.032094 0.032278 0.18064 
-0.031485 0.029941 0.18155 
-0.031029 0.026687 0.18266 
-0.031142 0.022493 0.18319 
-0.032095 0.018668 0.18293 
-0.038588 0.0094426 0.18322 
-0.036326 0.0035469 0.18402 
-0.034381 -4.0265e-06 0.18427 
-0.03526 -0.0097699 0.18732 
-0.034413 -0.01016 0.19163 
-0.033598 -0.0091668 0.19505 
-0.033152 -0.010506 0.19908 
-0.033577 -0.01242 0.20213 
-0.035224 -0.013736 0.2068 
-0.037091 -0.016068 0.21046 
-0.037384 -0.017711 0.21308 
-0.037139 -0.019405 0.21676 
-0.037736 -0.022029 0.21997 
-0.037338 -0.023784 0.22236 
-0.029098 0.041156 0.17668 
-0.028886 0.039398 0.17806 
-0.028856 0.036023 0.18006 
-0.028807 0.032806 0.18128 
-0.02829 0.030246 0.18226 
-0.028291 0.0268 0.18342 
-0.02829 0.023233 0.18418 
-0.028025 0.020444 0.18418 
-0.032673 0.013882 0.18322 
-0.032711 0.0061445 0.1845 
-0.029292 0.0038136 0.18572 
-0.028682 -0.00018939 0.18741 
-0.02977 -0.0059171 0.19 
-0.030085 -0.0078924 0.19274 
-0.03003 -0.01017 0.19988 
-0.030211 -0.011821 0.20245 
-0.03198 -0.013468 0.20755 
-0.033748 -0.015956 0.21125 
-0.033798 -0.017625 0.21347 
-0.033586 -0.018853 0.2178 
-0.033585 -0.020959 0.22028 
-0.034032 -0.02347 0.22302 
-0.033705 -0.024626 0.22581 
-0.02617 0.041578 0.17717 
-0.025988 0.03989 0.17826 
-0.025424 0.037232 0.17967 
-0.025518 0.033779 0.18147 
-0.025324 0.030771 0.1829 
-0.025416 0.027326 0.1844 
-0.025588 0.02392 0.18517 
-0.025784 0.020854 0.18521 
-0.027017 0.016262 0.1852 
-0.028639 0.0092387 0.18546 
-0.024828 0.0051604 0.18923 
-0.023902 0.0013965 0.19089 
-0.023047 -0.0021738 0.19395 
-0.023834 -0.0059895 0.19893 
-0.025379 -0.0084574 0.20225 
-0.027037 -0.010553 0.20546 
-0.028299 -0.012822 0.20938 
-0.029107 -0.014961 0.21313 
-0.030074 -0.017231 0.21531 
-0.030481 -0.0191 0.2185 
-0.030648 -0.021246 0.221 
-0.031068 -0.023629 0.22361 
-0.030978 -0.024609 0.2263 
-0.024155 0.042347 0.17732 
-0.022976 0.040667 0.17882 
-0.022015 0.038546 0.18002 
-0.021798 0.035164 0.18174 
-0.02212 0.03138 0.18395 
-0.022395 0.028304 0.18574 
-0.023036 0.024685 0.18639 
-0.023478 0.021168 0.18684 
-0.023355 0.017381 0.18804 
-0.022704 0.013007 0.18923 
-0.021518 0.0075631 0.19157 
-0.02068 0.0032119 0.19403 
-0.020576 -0.00057498 0.19711 
-0.021384 -0.0046253 0.20162 
-0.022411 -0.0073184 0.20533 
-0.023244 -0.0096489 0.20868 
-0.024322 -0.011958 0.21236 
-0.025334 -0.014436 0.21591 
-0.026971 -0.017436 0.21796 
-0.028324 -0.019668 0.22006 
-0.027984 -0.021609 0.22126 
-0.027747 -0.023476 0.22352 
-0.027658 -0.025024 0.22674 
-0.019292 0.041287 0.18011 
-0.019261 0.038373 0.18164 
-0.018467 0.035445 0.18321 
-0.018752 0.03245 0.18501 
-0.018974 0.029534 0.18721 
-0.019417 0.026278 0.18878 
-0.020546 0.021473 0.18929 
-0.020583 0.017875 0.19001 
-0.02033 0.014347 0.1913 
-0.019589 0.010294 0.19269 
-0.018469 0.0056864 0.19525 
-0.017985 0.00075804 0.19995 
-0.018174 -0.0037349 0.20429 
-0.018714 -0.0071096 0.20897 
-0.019627 -0.0096847 0.21203 
-0.020664 -0.012091 0.21578 
-0.022361 -0.014484 0.2186 
-0.023815 -0.017316 0.22047 
-0.025562 -0.019748 0.222 
-0.024914 -0.021746 0.22162 
-0.024566 -0.023816 0.22318 
-0.024531 -0.025413 0.227 
-0.016355 0.038935 0.18316 
-0.015518 0.03612 0.18468 
-0.015541 0.033317 0.1864 
-0.015632 0.030626 0.18826 
-0.01493 0.027538 0.19015 
-0.014617 0.023326 0.1921 
-0.017614 0.018582 0.19209 
-0.017459 0.014942 0.19361 
-0.016434 0.010902 0.195 
-0.015259 0.0064966 0.19849 
-0.015286 0.0024854 0.20251 
-0.015316 -0.0022778 0.20716 
-0.015635 -0.0068212 0.21221 
-0.0161 -0.0099922 0.21563 
-0.016614 -0.012751 0.21891 
-0.018789 -0.014489 0.22046 
-0.020699 -0.01671 0.22228 
-0.021697 -0.01883 0.22305 
-0.021695 -0.020799 0.22286 
-0.021301 -0.023129 0.22444 
-0.021655 -0.025689 0.22871 
-0.012811 0.036544 0.18586 
-0.012331 0.034086 0.18735 
-0.012041 0.0315 0.18908 
-0.011453 0.028401 0.19052 
-0.010242 0.024394 0.19373 
-0.01048 0.018867 0.19613 
-0.012534 0.014226 0.19687 
-0.012155 0.010176 0.19846 
-0.012376 0.0072049 0.20112 
-0.012897 0.0038984 0.20404 
-0.012889 -0.00098996 0.20937 
-0.012384 -0.0065819 0.21473 
-0.012485 -0.0094966 0.21798 
-0.01266 -0.012335 0.221 
-0.013356 -0.014657 0.2225 
-0.016169 -0.016066 0.22225 
-0.017436 -0.018069 0.22292 
-0.01785 -0.020605 0.22381 
-0.018458 -0.023165 0.22631 
-0.018406 -0.025498 0.23012 
-0.0098478 0.034443 0.18825 
-0.0088256 0.032117 0.19013 
-0.0078125 0.028929 0.1926 
-0.0068283 0.02434 0.19603 
-0.0067926 0.018812 0.19892 
-0.0082844 0.014426 0.2 
-0.0090729 0.010554 0.20131 
-0.0095742 0.0077874 0.20317 
-0.010129 0.004948 0.20533 
-0.010485 0.00073317 0.21025 
-0.0088962 -0.0056512 0.21647 
-0.0089925 -0.008653 0.21989 
-0.0091296 -0.011466 0.22243 
-0.0095725 -0.013704 0.22404 
-0.010973 -0.015565 0.22395 
-0.012655 -0.017725 0.22524 
-0.013684 -0.020493 0.22633 
-0.015116 -0.024338 0.23039 
-0.0048928 0.030987 0.1943 
-0.0041269 0.027367 0.19669 
-0.0038181 0.02253 0.19905 
-0.0043962 0.019656 0.20037 
-0.0050349 0.014567 0.20191 
-0.0058609 0.011031 0.20323 
-0.0064905 0.0083338 0.20519 
-0.0068112 0.0056551 0.20813 
-0.0079536 0.0023188 0.21115 
-0.0054993 -0.0044719 0.21812 
-0.0057561 -0.0077515 0.22181 
-0.0058265 -0.010817 0.22318 
-0.006557 -0.013286 0.22512 
-0.0072391 -0.01552 0.22621 
-0.0087891 -0.018065 0.22801 
-0.010699 -0.020894 0.22879 
-0.012793 -0.023461 0.2303 
-0.00070852 0.025246 0.1989 
-0.00078353 0.021729 0.2001 
0.00014496 0.018433 0.2013 
-0.0011283 0.015393 0.2028 
-0.002206 0.011511 0.20508 
-0.0024896 0.0085839 0.20774 
-0.0027641 0.0057038 0.21046 
-0.0022378 -0.0028382 0.21888 
-0.0021658 -0.0069789 0.22269 
-0.002374 -0.01041 0.22408 
-0.0031513 -0.013104 0.22596 
-0.0042686 -0.015479 0.22721 
-0.0061483 -0.01765 0.22929 
0.0017211 0.02362 0.19932 
0.001929 0.021081 0.19993 
0.0024451 0.018236 0.20096 
0.0023205 0.01547 0.20351 
0.0016427 0.012037 0.20655 
0.001319 0.0088023 0.20906 
0.0010616 0.0060966 0.21146 
0.00029347 0.0031921 0.21397 
0.0010087 -0.0011274 0.21717 
0.00083267 -0.0055484 0.22194 
0.00013751 -0.0096933 0.22463 
0.0042282 0.020311 0.19981 
0.005776 0.018237 0.20124 
0.0053729 0.015649 0.20462 
0.0045568 0.012544 0.20722 
0.0041711 0.0095543 0.20949 
0.0037621 0.0074174 0.21152 
3 10 1 9
3 9 21 10
3 10 2 1
3 21 22 10
3 9 20 21
3 8 20 9
3 8 19 20
3 10 11 2
3 22 11 10
3 22 23 11
3 21 36 22
3 20 35 21
3 19 33 20
3 8 7 19
3 11 3 2
3 23 12 11
3 22 36 23
3 36 37 23
3 21 35 36
3 35 53 36
3 20 34 35
3 33 34 20
3 33 51 34
3 19 18 33
3 7 18 19
3 7 17 18
3 11 12 3
3 12 4 3
3 23 24 12
3 37 38 23
3 36 54 37
3 53 54 36
3 53 72 54
3 35 52 53
3 34 52 35
3 34 51 52
3 51 70 52
3 33 50 51
3 18 32 33
3 17 32 18
3 17 31 32
3 12 13 4
3 24 13 12
3 24 25 13
3 23 38 24
3 38 39 24
3 37 55 38
3 54 55 37
3 54 72 55
3 72 73 55
3 53 71 72
3 52 71 53
3 52 70 71
3 70 91 71
3 51 69 70
3 50 69 51
3 50 68 69
3 33 32 50
3 32 49 50
3 31 49 32
3 31 48 49
3 13 5 4
3 25 14 13
3 24 39 25
3 39 26 25
3 38 56 39
3 55 56 38
3 55 73 56
3 73 74 56
3 72 93 73
3 91 92 71
3 70 69 91
3 69 90 91
3 68 90 69
3 68 89 90
3 50 49 68
3 49 67 68
3 48 66 49
3 31 47 48
3 13 14 5
3 14 6 5
3 25 26 14
3 26 15 14
3 39 40 26
3 56 40 39
3 56 57 40
3 74 57 56
3 74 75 57
3 73 94 74
3 93 94 73
3 93 115 94
3 91 113 92
3 90 112 91
3 89 111 90
3 68 67 89
3 67 88 89
3 49 66 67
3 66 88 67
3 66 87 88
3 48 47 66
3 47 65 66
3 14 15 6
3 26 16 15
3 40 27 26
3 57 41 40
3 75 58 57
3 74 95 75
3 94 95 74
3 94 116 95
3 115 116 94
3 115 138 116
3 113 114 92
3 91 112 113
3 112 134 113
3 90 111 112
3 111 133 112
3 89 88 111
3 88 110 111
3 87 110 88
3 87 109 110
3 66 65 87
3 65 86 87
3 26 27 16
3 27 28 16
3 40 41 27
3 41 42 27
3 57 58 41
3 58 42 41
3 58 59 42
3 75 76 58
3 95 96 75
3 116 117 95
3 138 117 116
3 138 139 117
3 115 137 138
3 113 135 114
3 134 135 113
3 134 156 135
3 112 133 134
3 133 155 134
3 111 132 133
3 110 132 111
3 110 131 132
3 109 131 110
3 109 130 131
3 87 86 109
3 86 108 109
3 65 85 86
3 27 42 28
3 42 29 28
3 59 43 42
3 58 76 59
3 76 77 59
3 75 96 76
3 96 97 76
3 95 117 96
3 117 118 96
3 139 118 117
3 139 140 118
3 138 160 139
3 137 160 138
3 137 159 160
3 115 114 137
3 135 136 114
3 156 157 135
3 134 155 156
3 155 178 156
3 133 154 155
3 132 154 133
3 132 153 154
3 131 153 132
3 131 130 153
3 130 152 153
3 109 108 130
3 108 107 130
3 86 85 108
3 85 107 108
3 42 43 29
3 43 30 29
3 59 60 43
3 77 60 59
3 77 78 60
3 76 97 77
3 97 98 77
3 96 118 97
3 118 119 97
3 140 119 118
3 140 141 119
3 139 161 140
3 160 161 139
3 160 183 161
3 137 136 159
3 136 137 114
3 135 157 136
3 157 158 136
3 156 179 157
3 178 179 156
3 178 202 179
3 155 177 178
3 154 177 155
3 154 153 177
3 153 176 177
3 152 176 153
3 152 175 176
3 130 151 152
3 107 129 130
3 43 44 30
3 60 44 43
3 60 61 44
3 78 61 60
3 78 79 61
3 77 98 78
3 98 99 78
3 97 119 98
3 119 120 98
3 141 142 119
3 140 163 141
3 161 162 140
3 183 184 161
3 136 158 159
3 158 181 159
3 157 180 158
3 179 180 157
3 179 202 180
3 202 203 180
3 178 201 202
3 177 201 178
3 177 200 201
3 176 200 177
3 176 199 200
3 175 198 176
3 152 174 175
3 151 174 152
3 130 129 151
3 61 45 44
3 79 62 61
3 78 99 79
3 99 100 79
3 98 120 99
3 120 121 99
3 119 142 120
3 142 143 120
3 141 164 142
3 163 164 141
3 163 186 164
3 140 162 163
3 162 185 163
3 161 185 162
3 161 184 185
3 184 208 185
3 183 206 184
3 181 182 159
3 158 180 181
3 180 203 181
3 203 204 181
3 202 225 203
3 201 224 202
3 200 223 201
3 199 221 200
3 176 198 199
3 198 220 199
3 175 197 198
3 174 197 175
3 61 62 45
3 62 46 45
3 79 80 62
3 100 80 79
3 100 101 80
3 99 122 100
3 121 122 99
3 121 144 122
3 120 143 121
3 143 144 121
3 143 165 144
3 142 165 143
3 142 164 165
3 164 187 165
3 186 187 164
3 186 209 187
3 163 185 186
3 185 209 186
3 185 208 209
3 208 231 209
3 184 207 208
3 206 207 184
3 206 229 207
3 183 205 206
3 181 204 182
3 204 205 182
3 203 225 204
3 225 226 204
3 202 224 225
3 224 246 225
3 201 223 224
3 223 245 224
3 200 222 223
3 221 222 200
3 221 242 222
3 199 220 221
3 220 242 221
3 198 197 220
3 62 63 46
3 80 63 62
3 80 81 63
3 101 102 80
3 100 123 101
3 122 123 100
3 122 145 123
3 144 145 122
3 144 166 145
3 165 166 144
3 165 189 166
3 187 188 165
3 209 210 187
3 231 232 209
3 208 230 231
3 207 230 208
3 207 229 230
3 229 251 230
3 206 228 229
3 205 228 206
3 205 227 228
3 183 182 205
3 204 226 205
3 226 227 205
3 226 247 227
3 225 246 226
3 246 247 226
3 246 267 247
3 224 245 246
3 245 266 246
3 223 244 245
3 222 243 223
3 242 243 222
3 242 263 243
3 63 64 46
3 81 64 63
3 81 82 64
3 80 102 81
3 102 103 81
3 101 124 102
3 123 124 101
3 123 145 124
3 145 146 124
3 166 167 145
3 189 167 166
3 189 190 167
3 165 188 189
3 188 212 189
3 187 210 188
3 210 211 188
3 209 232 210
3 232 211 210
3 232 233 211
3 231 253 232
3 230 252 231
3 251 252 230
3 251 271 252
3 229 250 251
3 228 250 229
3 228 249 250
3 227 248 228
3 247 248 227
3 247 268 248
3 267 268 247
3 267 286 268
3 246 266 267
3 266 285 267
3 245 265 266
3 244 264 245
3 223 243 244
3 243 263 244
3 263 264 244
3 263 283 264
3 82 83 64
3 81 103 82
3 103 104 82
3 102 124 103
3 124 125 103
3 146 125 124
3 146 147 125
3 145 167 146
3 167 168 146
3 190 168 167
3 190 191 168
3 189 212 190
3 212 213 190
3 188 211 212
3 211 233 212
3 233 234 212
3 232 253 233
3 253 254 233
3 231 252 253
3 252 272 253
3 271 272 252
3 271 291 272
3 251 270 271
3 250 270 251
3 250 269 270
3 249 269 250
3 249 248 269
3 248 249 228
3 268 269 248
3 268 288 269
3 286 287 268
3 267 285 286
3 285 302 286
3 266 284 285
3 265 284 266
3 265 283 284
3 245 264 265
3 283 265 264
3 82 104 83
3 104 105 83
3 103 126 104
3 125 126 103
3 125 147 126
3 147 148 126
3 146 168 147
3 168 169 147
3 191 169 168
3 191 192 169
3 190 213 191
3 213 214 191
3 212 234 213
3 234 235 213
3 233 254 234
3 254 255 234
3 253 273 254
3 272 273 253
3 272 292 273
3 291 292 272
3 291 309 292
3 271 290 291
3 270 289 271
3 269 289 270
3 269 288 289
3 288 306 289
3 268 287 288
3 287 305 288
3 286 303 287
3 302 303 286
3 302 318 303
3 285 301 302
3 284 301 285
3 105 84 83
3 104 127 105
3 126 127 104
3 126 149 127
3 148 149 126
3 148 170 149
3 147 169 148
3 169 170 148
3 169 192 170
3 192 193 170
3 191 214 192
3 214 215 192
3 213 235 214
3 235 236 214
3 234 255 235
3 255 256 235
3 254 274 255
3 273 274 254
3 273 293 274
3 292 293 273
3 292 310 293
3 309 310 292
3 309 325 310
3 291 308 309
3 290 307 291
3 271 289 290
3 289 307 290
3 289 306 307
3 306 323 307
3 288 305 306
3 305 322 306
3 287 304 305
3 303 304 287
3 303 319 304
3 318 319 303
3 318 331 319
3 105 106 84
3 127 128 105
3 149 128 127
3 149 150 128
3 170 171 149
3 193 171 170
3 193 194 171
3 192 215 193
3 215 216 193
3 214 236 215
3 236 237 215
3 235 256 236
3 256 257 236
3 255 276 256
3 274 275 255
3 293 294 274
3 310 294 293
3 310 311 294
3 325 326 310
3 308 324 309
3 291 307 308
3 307 323 308
3 323 324 308
3 323 337 324
3 306 322 323
3 322 336 323
3 305 321 322
3 304 321 305
3 304 320 321
3 319 320 304
3 319 332 320
3 331 332 319
3 331 342 332
3 105 128 106
3 149 171 150
3 171 172 150
3 194 172 171
3 194 195 172
3 193 216 194
3 216 217 194
3 215 237 216
3 237 238 216
3 236 257 237
3 257 258 237
3 256 277 257
3 276 277 256
3 276 296 277
3 255 275 276
3 275 295 276
3 274 294 275
3 294 295 275
3 294 312 295
3 311 312 294
3 311 327 312
3 310 326 311
3 326 327 311
3 326 341 327
3 325 340 326
3 337 338 324
3 323 336 337
3 336 347 337
3 322 335 336
3 321 335 322
3 321 334 335
3 320 334 321
3 320 333 334
3 332 333 320
3 332 342 333
3 342 343 333
3 195 173 172
3 194 218 195
3 217 218 194
3 217 240 218
3 216 239 217
3 238 239 216
3 238 260 239
3 237 259 238
3 258 259 237
3 258 279 259
3 257 278 258
3 277 278 257
3 277 297 278
3 296 297 277
3 296 313 297
3 276 295 296
3 295 313 296
3 295 312 313
3 312 328 313
3 327 328 312
3 327 341 328
3 326 340 341
3 325 339 340
3 336 346 347
3 335 346 336
3 335 345 346
3 334 345 335
3 334 344 345
3 333 344 334
3 333 343 344
3 195 196 173
3 218 196 195
3 218 219 196
3 240 241 218
3 217 239 240
3 239 261 240
3 260 261 239
3 260 280 261
3 238 259 260
3 259 279 260
3 279 280 260
3 279 298 280
3 258 278 279
3 278 298 279
3 278 297 298
3 297 315 298
3 313 314 297
3 328 329 313
3 325 338 339
3 218 241 219
3 240 261 241
3 261 262 241
3 280 281 261
3 298 299 280
3 315 316 298
3 297 314 315
3 314 330 315
3 313 329 314
3 329 330 314
3 261 281 262
3 281 282 262
3 298 316 299
3 316 317 299
3 281 300 282
3 71 92 72
3 92 93 72
3 92 114 93
3 114 115 93
3 159 182 160
3 182 183 160
3 44 45 30
3 302 301 318
3 172 173 150
3 337 347 338
3 338 309 324
3 338 325 309
3 280 299 281
3 299 317 281
3 317 300 281
3 1 0 9
3 9 0 8
