ply
format ascii 1.0
comment PCL generated
element vertex 348
property float x
property float y
property float z
element face 631
property list uchar int vertex_indices
end_header
-0.055735 0.02359 0.18729 
-0.056513 0.021233 0.18918 
-0.057049 0.018046 0.191 
-0.05733 0.014916 0.1929 
-0.057463 0.01192 0.19481 
-0.057376 0.0091436 0.19663 
-0.056972 0.0064986 0.19835 
-0.052712 0.025554 0.18399 
-0.053481 0.024336 0.18487 
-0.05358 0.021712 0.18637 
-0.053959 0.018416 0.18823 
-0.054259 0.014727 0.19025 
-0.054739 0.011399 0.19236 
-0.055232 0.0083895 0.19505 
-0.054496 0.0050068 0.19693 
-0.052395 0.0011435 0.19805 
-0.052825 -0.0017944 0.20008 
-0.050021 0.028256 0.18204 
-0.050492 0.026547 0.18279 
-0.050636 0.024447 0.18359 
-0.050958 0.022152 0.18471 
-0.051117 0.018623 0.18666 
-0.050957 0.014011 0.18901 
-0.051287 0.010381 0.19105 
-0.051294 0.0071106 0.1932 
-0.050763 0.0032594 0.19511 
-0.050209 -0.00074578 0.19771 
-0.051361 -0.0033209 0.20001 
-0.052465 -0.0047609 0.20275 
-0.052512 -0.0059728 0.20485 
-0.052435 -0.0071916 0.20533 
-0.047627 0.029383 0.18104 
-0.047869 0.027184 0.18174 
-0.048183 0.0249 0.18271 
-0.048633 0.022602 0.18406 
-0.049079 0.019398 0.18581 
-0.048095 0.012592 0.18811 
-0.048373 0.0087122 0.19061 
-0.048217 0.0050127 0.19238 
-0.048116 -6.4643e-05 0.1947 
-0.048828 -0.0034742 0.19691 
-0.049014 -0.0054974 0.19863 
-0.049449 -0.0062363 0.20105 
-0.049862 -0.0063952 0.20438 
-0.050624 -0.0079067 0.2064 
-0.051178 -0.010291 0.20869 
-0.050916 -0.013267 0.21251 
-0.044446 0.032746 0.17959 
-0.044825 0.030613 0.18056 
-0.045153 0.027925 0.18153 
-0.04563 0.025481 0.18253 
-0.046199 0.022884 0.18383 
-0.046769 0.019617 0.18513 
-0.046356 0.013346 0.18664 
-0.046475 0.0069409 0.19003 
-0.046162 0.0021948 0.19203 
-0.047232 -0.0033746 0.19454 
-0.048436 -0.0076336 0.19584 
-0.048102 -0.0084273 0.19751 
-0.047049 -0.006818 0.19965 
-0.046634 -0.006966 0.20408 
-0.047037 -0.0084559 0.20712 
-0.048138 -0.010976 0.20958 
-0.049067 -0.013991 0.21191 
-0.050241 -0.016107 0.21532 
-0.041969 0.03454 0.17869 
-0.042393 0.031344 0.18048 
-0.042145 0.028867 0.18143 
-0.042983 0.026164 0.18254 
-0.043431 0.023606 0.1834 
-0.043789 0.020355 0.18439 
-0.044307 0.015236 0.18552 
-0.045118 0.0056138 0.18974 
-0.045001 -0.00021991 0.19139 
-0.046493 -0.006924 0.19325 
-0.046462 -0.0098479 0.19495 
-0.045036 -0.0091525 0.1975 
-0.043992 -0.0072731 0.19934 
-0.043599 -0.0075951 0.20367 
-0.04364 -0.0093598 0.20707 
-0.044309 -0.011665 0.20983 
-0.04588 -0.014399 0.2121 
-0.047915 -0.016363 0.21557 
-0.048234 -0.019215 0.21918 
-0.047692 -0.021514 0.22126 
-0.038291 0.039102 0.17659 
-0.038801 0.036525 0.17835 
-0.037756 0.03377 0.18009 
-0.038876 0.031141 0.18108 
-0.039443 0.028134 0.18193 
-0.040176 0.024387 0.18302 
-0.040176 0.021046 0.18368 
-0.041905 0.015256 0.18523 
-0.043712 0.0054575 0.18867 
-0.042932 -0.00031264 0.18952 
-0.044452 -0.008427 0.19171 
-0.042925 -0.010281 0.19467 
-0.041523 -0.0088737 0.19732 
-0.041211 -0.0078033 0.19827 
-0.040475 -0.0086433 0.20198 
-0.040991 -0.0107 0.20478 
-0.042636 -0.012372 0.20725 
-0.044273 -0.013953 0.2099 
-0.044465 -0.016564 0.21419 
-0.044435 -0.019514 0.21796 
-0.04519 -0.022329 0.22126 
-0.044413 -0.024427 0.22281 
-0.035703 0.04034 0.17663 
-0.035472 0.038571 0.17844 
-0.035367 0.035122 0.18006 
-0.035965 0.032322 0.18094 
-0.035648 0.029814 0.1818 
-0.035426 0.02612 0.18313 
-0.035543 0.022951 0.18365 
-0.039296 0.016002 0.18485 
-0.042192 0.0069664 0.1873 
-0.040245 0.0012982 0.18742 
-0.04075 -0.0095649 0.19036 
-0.039454 -0.011191 0.19361 
-0.038748 -0.0092659 0.19461 
-0.038132 -0.0083943 0.19686 
-0.038108 -0.0097443 0.20003 
-0.038524 -0.011513 0.20245 
-0.040247 -0.012663 0.2063 
-0.042254 -0.014657 0.20945 
-0.041358 -0.016855 0.21354 
-0.040955 -0.019424 0.21723 
-0.04127 -0.022221 0.2205 
-0.04139 -0.024624 0.2226 
-0.032601 0.041061 0.17717 
-0.032537 0.03936 0.17873 
-0.032746 0.035474 0.18072 
-0.0329 0.032176 0.1816 
-0.032304 0.029979 0.18244 
-0.031973 0.026849 0.18361 
-0.032523 0.022887 0.18438 
-0.033593 0.019184 0.18445 
-0.039943 0.0095801 0.18569 
-0.037811 0.0036301 0.18627 
-0.036034 0.00020832 0.18642 
-0.035853 -0.0077019 0.1886 
-0.035311 -0.0078941 0.19282 
-0.035045 -0.0071421 0.19634 
-0.034807 -0.0088526 0.20013 
-0.035306 -0.011132 0.2028 
-0.037249 -0.012545 0.2071 
-0.038965 -0.014944 0.2106 
-0.038486 -0.016953 0.21366 
-0.037749 -0.019195 0.21734 
-0.038345 -0.022184 0.22013 
-0.037939 -0.024144 0.22219 
-0.029811 0.041487 0.17767 
-0.029567 0.039716 0.17912 
-0.029668 0.035986 0.18106 
-0.029562 0.032772 0.18214 
-0.029014 0.030431 0.18308 
-0.029214 0.027111 0.18439 
-0.029572 0.023652 0.18534 
-0.029486 0.020934 0.18558 
-0.034252 0.014326 0.18502 
-0.034587 0.0063873 0.18609 
-0.031405 0.0037599 0.18759 
-0.030937 0.00017078 0.18965 
-0.031527 -0.0039605 0.19215 
-0.031689 -0.005197 0.19463 
-0.031939 -0.0081556 0.20155 
-0.032243 -0.010087 0.20385 
-0.03416 -0.012202 0.20829 
-0.035511 -0.014937 0.21184 
-0.034664 -0.016865 0.21444 
-0.034239 -0.01865 0.21872 
-0.034239 -0.020941 0.22087 
-0.034724 -0.023765 0.22318 
-0.034457 -0.025145 0.22582 
-0.026781 0.041917 0.1782 
-0.026554 0.040225 0.17932 
-0.026004 0.037509 0.18075 
-0.026234 0.033866 0.18233 
-0.026074 0.03096 0.18382 
-0.026338 0.0276 0.18541 
-0.026806 0.024318 0.18631 
-0.027248 0.021278 0.18657 
-0.028829 0.016749 0.18677 
-0.030538 0.009439 0.18692 
-0.026854 0.005743 0.19064 
-0.026157 0.0022192 0.19308 
-0.025474 -0.00086108 0.19664 
-0.02615 -0.0041742 0.20177 
-0.027706 -0.0066168 0.20478 
-0.029435 -0.0089965 0.20741 
-0.030746 -0.011841 0.21094 
-0.030868 -0.014507 0.21479 
-0.031001 -0.016865 0.21714 
-0.031372 -0.018875 0.21981 
-0.031438 -0.021164 0.22197 
-0.031798 -0.023681 0.22413 
-0.031683 -0.024793 0.22666 
-0.024693 0.042674 0.17834 
-0.02335 0.041004 0.17985 
-0.022388 0.038864 0.18105 
-0.022237 0.035426 0.18282 
-0.022683 0.031585 0.18499 
-0.023079 0.02857 0.18682 
-0.024112 0.024978 0.18746 
-0.025004 0.021456 0.18811 
-0.025159 0.017764 0.18942 
-0.024518 0.013709 0.19065 
-0.023268 0.0083466 0.19306 
-0.022611 0.0041766 0.19587 
-0.022604 0.00072985 0.19941 
-0.023534 -0.0031896 0.20422 
-0.024639 -0.0059829 0.20788 
-0.025589 -0.0086114 0.21119 
-0.026557 -0.011428 0.21493 
-0.027048 -0.014363 0.21831 
-0.028192 -0.017502 0.22017 
-0.029346 -0.01959 0.2216 
-0.028901 -0.021416 0.22251 
-0.028508 -0.023199 0.22437 
-0.0284 -0.024962 0.22729 
-0.019479 0.041626 0.18108 
-0.019502 0.038821 0.18264 
-0.018465 0.035814 0.18447 
-0.018891 0.032687 0.18636 
-0.019352 0.029809 0.18852 
-0.019963 0.02655 0.19006 
-0.022015 0.021641 0.19051 
-0.022419 0.018355 0.19133 
-0.022115 0.015145 0.1927 
-0.021307 0.011184 0.19409 
-0.020208 0.0066171 0.1968 
-0.019817 0.0019021 0.20212 
-0.02025 -0.0026572 0.20683 
-0.020783 -0.0065339 0.21168 
-0.021671 -0.0092473 0.21486 
-0.022602 -0.011878 0.21865 
-0.024013 -0.014477 0.22102 
-0.025095 -0.017298 0.22267 
-0.026666 -0.019675 0.22363 
-0.025891 -0.021425 0.22312 
-0.025411 -0.023427 0.22426 
-0.025325 -0.025324 0.22766 
-0.016304 0.039298 0.18418 
-0.015526 0.03652 0.18589 
-0.015722 0.033723 0.18778 
-0.015939 0.031053 0.1897 
-0.0153 0.028119 0.19169 
-0.015146 0.024151 0.19374 
-0.019379 0.019302 0.19338 
-0.019223 0.015855 0.19499 
-0.018091 0.011879 0.19644 
-0.01682 0.0075285 0.20015 
-0.016954 0.0034443 0.20453 
-0.01716 -0.0016476 0.20947 
-0.01751 -0.0066706 0.21481 
-0.017958 -0.0099983 0.21831 
-0.018307 -0.012931 0.2217 
-0.020441 -0.014585 0.22286 
-0.022107 -0.016737 0.22458 
-0.02301 -0.018693 0.22493 
-0.022911 -0.020521 0.22443 
-0.022334 -0.022903 0.22561 
-0.022573 -0.025726 0.22938 
-0.01279 0.036968 0.18704 
-0.012457 0.034521 0.18866 
-0.012273 0.032005 0.19044 
-0.011761 0.028973 0.19202 
-0.010611 0.025123 0.19528 
-0.011992 0.019337 0.19772 
-0.014335 0.014992 0.19847 
-0.013704 0.011154 0.20012 
-0.013933 0.0082192 0.20293 
-0.014454 0.0048716 0.20591 
-0.014539 -0.00052862 0.21149 
-0.014109 -0.0067017 0.21726 
-0.01396 -0.0097336 0.22046 
-0.013899 -0.012557 0.22329 
-0.014575 -0.014809 0.22452 
-0.017592 -0.016056 0.22419 
-0.018974 -0.017937 0.22456 
-0.01934 -0.020356 0.22514 
-0.0197 -0.023057 0.22729 
-0.019538 -0.025631 0.23085 
-0.0099668 0.034833 0.1895 
-0.008922 0.032511 0.19139 
-0.0079013 0.029356 0.19385 
-0.0072864 0.024854 0.19724 
-0.0082441 0.019141 0.20016 
-0.010006 0.014905 0.20167 
-0.010578 0.01148 0.20329 
-0.011059 0.0087952 0.20507 
-0.011651 0.005817 0.20719 
-0.012047 0.0011391 0.21213 
-0.010297 -0.0057965 0.21872 
-0.010052 -0.0089021 0.22183 
-0.010093 -0.011788 0.22415 
-0.010534 -0.013991 0.22566 
-0.012247 -0.015675 0.22565 
-0.014077 -0.017628 0.22664 
-0.01519 -0.020432 0.22757 
-0.016481 -0.024537 0.23121 
-0.0048782 0.031129 0.19496 
-0.0044871 0.027618 0.19734 
-0.0048317 0.022824 0.19987 
-0.0056433 0.019982 0.20134 
-0.0066273 0.015248 0.20336 
-0.0072777 0.011937 0.20528 
-0.0077679 0.0092029 0.20725 
-0.0081456 0.0063523 0.21008 
-0.0094937 0.002754 0.21281 
-0.0066221 -0.0046557 0.21996 
-0.006509 -0.0081559 0.22327 
-0.0066087 -0.011249 0.22455 
-0.0074069 -0.013709 0.22643 
-0.0081352 -0.015855 0.22757 
-0.0097984 -0.018258 0.22933 
-0.012037 -0.020958 0.23012 
-0.014184 -0.023635 0.23141 
-0.0015314 0.025466 0.19924 
-0.0017936 0.021964 0.20074 
-0.00099647 0.018805 0.20211 
-0.0024551 0.016009 0.20386 
-0.0032679 0.012042 0.20673 
-0.0032799 0.009102 0.20964 
-0.0033813 0.0062917 0.21237 
-0.0029752 -0.0029822 0.22034 
-0.0028506 -0.007514 0.22384 
-0.0031442 -0.010999 0.22517 
-0.0039953 -0.013709 0.22703 
-0.0051326 -0.015962 0.22834 
-0.0069002 -0.01805 0.23044 
0.00075162 0.02383 0.19975 
0.00085692 0.021367 0.20058 
0.0013084 0.018706 0.20172 
0.0013544 0.015884 0.20435 
0.00096782 0.01223 0.20763 
0.00079144 0.009137 0.21042 
0.00068608 0.0065464 0.21296 
8.5766e-05 0.0037608 0.21566 
0.00057266 -0.00080437 0.21891 
0.00021383 -0.0060266 0.22284 
-0.00058416 -0.0104 0.22556 
0.0031155 0.020664 0.20043 
0.004668 0.01875 0.20187 
0.0044583 0.015838 0.20519 
0.0039399 0.012611 0.20796 
0.0037213 0.0097754 0.21048 
0.0034674 0.0077246 0.21267 
3 10 1 9
3 9 21 10
3 10 2 1
3 21 22 10
3 9 20 21
3 8 20 9
3 8 19 20
3 10 11 2
3 22 11 10
3 22 23 11
3 21 36 22
3 20 35 21
3 19 33 20
3 8 7 19
3 11 3 2
3 23 12 11
3 22 36 23
3 36 37 23
3 21 35 36
3 35 53 36
3 20 34 35
3 33 34 20
3 33 51 34
3 19 18 33
3 7 18 19
3 7 17 18
3 11 12 3
3 12 4 3
3 23 24 12
3 37 38 23
3 36 54 37
3 53 54 36
3 53 72 54
3 35 52 53
3 34 52 35
3 34 51 52
3 51 70 52
3 33 50 51
3 18 32 33
3 17 32 18
3 17 31 32
3 12 13 4
3 24 13 12
3 24 25 13
3 23 38 24
3 38 39 24
3 37 55 38
3 54 55 37
3 54 72 55
3 72 73 55
3 53 71 72
3 52 71 53
3 52 70 71
3 70 91 71
3 51 69 70
3 50 69 51
3 50 68 69
3 33 32 50
3 32 49 50
3 31 49 32
3 31 48 49
3 13 5 4
3 25 14 13
3 24 39 25
3 39 26 25
3 38 56 39
3 55 56 38
3 55 73 56
3 73 74 56
3 72 93 73
3 91 92 71
3 70 69 91
3 69 90 91
3 68 90 69
3 68 89 90
3 50 49 68
3 49 67 68
3 48 66 49
3 31 47 48
3 13 14 5
3 14 6 5
3 25 26 14
3 26 15 14
3 39 40 26
3 56 40 39
3 56 57 40
3 74 57 56
3 74 75 57
3 73 94 74
3 93 94 73
3 93 115 94
3 91 113 92
3 90 112 91
3 89 111 90
3 68 67 89
3 67 88 89
3 49 66 67
3 66 88 67
3 66 87 88
3 48 47 66
3 47 65 66
3 14 15 6
3 26 16 15
3 40 27 26
3 57 41 40
3 75 58 57
3 74 95 75
3 94 95 74
3 94 116 95
3 115 116 94
3 115 138 116
3 113 114 92
3 91 112 113
3 112 134 113
3 90 111 112
3 111 133 112
3 89 88 111
3 88 110 111
3 87 110 88
3 87 109 110
3 66 65 87
3 65 86 87
3 26 27 16
3 27 28 16
3 40 41 27
3 41 42 27
3 57 58 41
3 58 42 41
3 58 59 42
3 75 76 58
3 95 96 75
3 116 117 95
3 138 117 116
3 138 139 117
3 115 137 138
3 113 135 114
3 134 135 113
3 134 156 135
3 112 133 134
3 133 155 134
3 111 132 133
3 110 132 111
3 110 131 132
3 109 131 110
3 109 130 131
3 87 86 109
3 86 108 109
3 65 85 86
3 27 42 28
3 42 29 28
3 59 43 42
3 58 76 59
3 76 77 59
3 75 96 76
3 96 97 76
3 95 117 96
3 117 118 96
3 139 118 117
3 139 140 118
3 138 160 139
3 137 160 138
3 137 159 160
3 115 114 137
3 135 136 114
3 156 157 135
3 134 155 156
3 155 178 156
3 133 154 155
3 132 154 133
3 132 153 154
3 131 153 132
3 131 130 153
3 130 152 153
3 109 108 130
3 108 107 130
3 86 85 108
3 85 107 108
3 42 43 29
3 43 30 29
3 59 60 43
3 77 60 59
3 77 78 60
3 76 97 77
3 97 98 77
3 96 118 97
3 118 119 97
3 140 119 118
3 140 141 119
3 139 161 140
3 160 161 139
3 160 183 161
3 137 136 159
3 136 137 114
3 135 157 136
3 157 158 136
3 156 179 157
3 178 179 156
3 178 202 179
3 155 177 178
3 154 177 155
3 154 153 177
3 153 176 177
3 152 176 153
3 152 175 176
3 130 151 152
3 107 129 130
3 43 44 30
3 60 44 43
3 60 61 44
3 78 61 60
3 78 79 61
3 77 98 78
3 98 99 78
3 97 119 98
3 119 120 98
3 141 142 119
3 140 163 141
3 161 162 140
3 183 184 161
3 136 158 159
3 158 181 159
3 157 180 158
3 179 180 157
3 179 202 180
3 202 203 180
3 178 201 202
3 177 201 178
3 177 200 201
3 176 200 177
3 176 199 200
3 175 198 176
3 152 174 175
3 151 174 152
3 130 129 151
3 61 45 44
3 79 62 61
3 78 99 79
3 99 100 79
3 98 120 99
3 120 121 99
3 119 142 120
3 142 143 120
3 141 164 142
3 163 164 141
3 163 186 164
3 140 162 163
3 162 185 163
3 161 185 162
3 161 184 185
3 184 208 185
3 183 206 184
3 181 182 159
3 158 180 181
3 180 203 181
3 203 204 181
3 202 225 203
3 201 224 202
3 200 223 201
3 199 221 200
3 176 198 199
3 198 220 199
3 175 197 198
3 174 197 175
3 61 62 45
3 62 46 45
3 79 80 62
3 100 80 79
3 100 101 80
3 99 122 100
3 121 122 99
3 121 144 122
3 120 143 121
3 143 144 121
3 143 165 144
3 142 165 143
3 142 164 165
3 164 187 165
3 186 187 164
3 186 209 187
3 163 185 186
3 185 209 186
3 185 208 209
3 208 231 209
3 184 207 208
3 206 207 184
3 206 229 207
3 183 205 206
3 181 204 182
3 204 205 182
3 203 225 204
3 225 226 204
3 202 224 225
3 224 246 225
3 201 223 224
3 223 245 224
3 200 222 223
3 221 222 200
3 221 242 222
3 199 220 221
3 220 242 221
3 198 197 220
3 62 63 46
3 80 63 62
3 80 81 63
3 101 102 80
3 100 123 101
3 122 123 100
3 122 145 123
3 144 145 122
3 144 166 145
3 165 166 144
3 165 189 166
3 187 188 165
3 209 210 187
3 231 232 209
3 208 230 231
3 207 230 208
3 207 229 230
3 229 251 230
3 206 228 229
3 205 228 206
3 205 227 228
3 183 182 205
3 204 226 205
3 226 227 205
3 226 247 227
3 225 246 226
3 246 247 226
3 246 267 247
3 224 245 246
3 245 266 246
3 223 244 245
3 222 243 223
3 242 243 222
3 242 263 243
3 63 64 46
3 81 64 63
3 81 82 64
3 80 102 81
3 102 103 81
3 101 124 102
3 123 124 101
3 123 145 124
3 145 146 124
3 166 167 145
3 189 167 166
3 189 190 167
3 165 188 189
3 188 212 189
3 187 210 188
3 210 211 188
3 209 232 210
3 232 211 210
3 232 233 211
3 231 253 232
3 230 252 231
3 251 252 230
3 251 271 252
3 229 250 251
3 228 250 229
3 228 249 250
3 227 248 228
3 247 248 227
3 247 268 248
3 267 268 247
3 267 286 268
3 246 266 267
3 266 285 267
3 245 265 266
3 244 264 245
3 223 243 244
3 243 263 244
3 263 264 244
3 263 283 264
3 82 83 64
3 81 103 82
3 103 104 82
3 102 124 103
3 124 125 103
3 146 125 124
3 146 147 125
3 145 167 146
3 167 168 146
3 190 168 167
3 190 191 168
3 189 212 190
3 212 213 190
3 188 211 212
3 211 233 212
3 233 234 212
3 232 253 233
3 253 254 233
3 231 252 253
3 252 272 253
3 271 272 252
3 271 291 272
3 251 270 271
3 250 270 251
3 250 269 270
3 249 269 250
3 249 248 269
3 248 249 228
3 268 269 248
3 268 288 269
3 286 287 268
3 267 285 286
3 285 302 286
3 266 284 285
3 265 284 266
3 265 283 284
3 245 264 265
3 283 265 264
3 82 104 83
3 104 105 83
3 103 126 104
3 125 126 103
3 125 147 126
3 147 148 126
3 146 168 147
3 168 169 147
3 191 169 168
3 191 192 169
3 190 213 191
3 213 214 191
3 212 234 213
3 234 235 213
3 233 254 234
3 254 255 234
3 253 273 254
3 272 273 253
3 272 292 273
3 291 292 272
3 291 309 292
3 271 290 291
3 270 289 271
3 269 289 270
3 269 288 289
3 288 306 289
3 268 287 288
3 287 305 288
3 286 303 287
3 302 303 286
3 302 318 303
3 285 301 302
3 284 301 285
3 105 84 83
3 104 127 105
3 126 127 104
3 126 149 127
3 148 149 126
3 148 170 149
3 147 169 148
3 169 170 148
3 169 192 170
3 192 193 170
3 191 214 192
3 214 215 192
3 213 235 214
3 235 236 214
3 234 255 235
3 255 256 235
3 254 274 255
3 273 274 254
3 273 293 274
3 292 293 273
3 292 310 293
3 309 310 292
3 309 325 310
3 291 308 309
3 290 307 291
3 271 289 290
3 289 307 290
3 289 306 307
3 306 323 307
3 288 305 306
3 305 322 306
3 287 304 305
3 303 304 287
3 303 319 304
3 318 319 303
3 318 331 319
3 105 106 84
3 127 128 105
3 149 128 127
3 149 150 128
3 170 171 149
3 193 171 170
3 193 194 171
3 192 215 193
3 215 216 193
3 214 236 215
3 236 237 215
3 235 256 236
3 256 257 236
3 255 276 256
3 274 275 255
3 293 294 274
3 310 294 293
3 310 311 294
3 325 326 310
3 308 324 309
3 291 307 308
3 307 323 308
3 323 324 308
3 323 337 324
3 306 322 323
3 322 336 323
3 305 321 322
3 304 321 305
3 304 320 321
3 319 320 304
3 319 332 320
3 331 332 319
3 331 342 332
3 105 128 106
3 149 171 150
3 171 172 150
3 194 172 171
3 194 195 172
3 193 216 194
3 216 217 194
3 215 237 216
3 237 238 216
3 236 257 237
3 257 258 237
3 256 277 257
3 276 277 256
3 276 296 277
3 255 275 276
3 275 295 276
3 274 294 275
3 294 295 275
3 294 312 295
3 311 312 294
3 311 327 312
3 310 326 311
3 326 327 311
3 326 341 327
3 325 340 326
3 337 338 324
3 323 336 337
3 336 347 337
3 322 335 336
3 321 335 322
3 321 334 335
3 320 334 321
3 320 333 334
3 332 333 320
3 332 342 333
3 342 343 333
3 195 173 172
3 194 218 195
3 217 218 194
3 217 240 218
3 216 239 217
3 238 239 216
3 238 260 239
3 237 259 238
3 258 259 237
3 258 279 259
3 257 278 258
3 277 278 257
3 277 297 278
3 296 297 277
3 296 313 297
3 276 295 296
3 295 313 296
3 295 312 313
3 312 328 313
3 327 328 312
3 327 341 328
3 326 340 341
3 325 339 340
3 336 346 347
3 335 346 336
3 335 345 346
3 334 345 335
3 334 344 345
3 333 344 334
3 333 343 344
3 195 196 173
3 218 196 195
3 218 219 196
3 240 241 218
3 217 239 240
3 239 261 240
3 260 261 239
3 260 280 261
3 238 259 260
3 259 279 260
3 279 280 260
3 279 298 280
3 258 278 279
3 278 298 279
3 278 297 298
3 297 315 298
3 313 314 297
3 328 329 313
3 325 338 339
3 218 241 219
3 240 261 241
3 261 262 241
3 280 281 261
3 298 299 280
3 315 316 298
3 297 314 315
3 314 330 315
3 313 329 314
3 329 330 314
3 261 281 262
3 281 282 262
3 298 316 299
3 316 317 299
3 281 300 282
3 71 92 72
3 92 93 72
3 92 114 93
3 114 115 93
3 159 182 160
3 182 183 160
3 44 45 30
3 302 301 318
3 172 173 150
3 337 347 338
3 338 309 324
3 338 325 309
3 280 299 281
3 299 317 281
3 317 300 281
3 1 0 9
3 9 0 8
