ply
format ascii 1.0
comment PCL generated
element vertex 348
property float x
property float y
property float z
element face 631
property list uchar int vertex_indices
end_header
-0.056962 0.023579 0.18853 
-0.057265 0.021188 0.19008 
-0.057657 0.018068 0.19177 
-0.057927 0.015097 0.19348 
-0.058124 0.012282 0.19524 
-0.05815 0.0096662 0.19689 
-0.057842 0.0070547 0.19847 
-0.053637 0.025444 0.18461 
-0.054512 0.024376 0.18559 
-0.054467 0.021737 0.18707 
-0.054715 0.018481 0.1889 
-0.054968 0.01501 0.19072 
-0.055504 0.011838 0.19263 
-0.05611 0.0089547 0.19512 
-0.056168 0.005678 0.19705 
-0.055101 0.0016787 0.19759 
-0.05494 -0.0010077 0.19997 
-0.050776 0.027762 0.18212 
-0.051291 0.026153 0.18306 
-0.051432 0.024208 0.18401 
-0.051744 0.022093 0.18528 
-0.05185 0.018708 0.18711 
-0.051751 0.014477 0.1892 
-0.052179 0.011038 0.19096 
-0.052642 0.007879 0.19349 
-0.053261 0.0037418 0.19464 
-0.053012 -0.00010476 0.19703 
-0.053339 -0.0023902 0.19987 
-0.053948 -0.0036199 0.20287 
-0.053659 -0.0045753 0.20514 
-0.053308 -0.0048819 0.20651 
-0.048309 0.028768 0.18101 
-0.048655 0.026709 0.18177 
-0.048978 0.024577 0.18289 
-0.049337 0.022375 0.18434 
-0.049537 0.019183 0.18623 
-0.04901 0.013275 0.18788 
-0.049429 0.0095312 0.19004 
-0.050041 0.0059912 0.19194 
-0.052011 0.00031754 0.19343 
-0.051577 -0.0027849 0.19622 
-0.05106 -0.004516 0.19833 
-0.051003 -0.0049807 0.20097 
-0.051057 -0.0046279 0.2045 
-0.051269 -0.0048441 0.20773 
-0.051312 -0.0061491 0.21106 
-0.050769 -0.0091646 0.21474 
-0.045098 0.031993 0.17963 
-0.045481 0.029945 0.18041 
-0.045962 0.027407 0.18138 
-0.046459 0.025168 0.18248 
-0.046934 0.022658 0.18385 
-0.047261 0.019431 0.18524 
-0.046989 0.013933 0.18652 
-0.047832 0.0083178 0.18962 
-0.049129 0.0035565 0.19059 
-0.050979 -0.0028564 0.19324 
-0.050744 -0.0068884 0.19525 
-0.050043 -0.0074506 0.19698 
-0.048769 -0.0055017 0.19926 
-0.047838 -0.0048109 0.20407 
-0.047734 -0.0052429 0.2077 
-0.048394 -0.0076828 0.21089 
-0.04907 -0.010185 0.21411 
-0.049979 -0.012933 0.21796 
-0.042632 0.033919 0.179 
-0.043061 0.030735 0.18047 
-0.042907 0.028331 0.18123 
-0.043863 0.025831 0.18227 
-0.044214 0.023413 0.18316 
-0.044395 0.020293 0.18414 
-0.044735 0.015709 0.18524 
-0.046808 0.0076311 0.1887 
-0.049022 0.0011035 0.18931 
-0.049468 -0.0061298 0.19221 
-0.048528 -0.0087644 0.19421 
-0.046982 -0.0077971 0.19662 
-0.045861 -0.0056132 0.19856 
-0.044862 -0.0052056 0.20348 
-0.044333 -0.0059231 0.20746 
-0.044384 -0.0079422 0.21083 
-0.045774 -0.010611 0.21384 
-0.047816 -0.014032 0.21783 
-0.048128 -0.017766 0.22065 
-0.047656 -0.020569 0.22213 
-0.039064 0.039264 0.17729 
-0.039521 0.03628 0.17901 
-0.038334 0.033315 0.18048 
-0.039468 0.030702 0.18126 
-0.040025 0.02791 0.18191 
-0.040891 0.024332 0.18265 
-0.040897 0.021053 0.18315 
-0.042443 0.015975 0.18462 
-0.045603 0.0076167 0.18724 
-0.047136 0.0021209 0.18652 
-0.047197 -0.007327 0.19058 
-0.044988 -0.008843 0.19369 
-0.043493 -0.0071542 0.19639 
-0.043142 -0.005938 0.1975 
-0.042179 -0.0060929 0.20163 
-0.042337 -0.0073618 0.20532 
-0.043336 -0.0088359 0.20829 
-0.044687 -0.009988 0.21151 
-0.044707 -0.01437 0.21588 
-0.044612 -0.018217 0.21904 
-0.045298 -0.021668 0.2217 
-0.044583 -0.024059 0.22278 
-0.03646 0.040744 0.17693 
-0.036062 0.038962 0.17873 
-0.035947 0.034686 0.1803 
-0.036563 0.032034 0.18127 
-0.036143 0.029697 0.18213 
-0.03587 0.026097 0.18335 
-0.036154 0.023048 0.18353 
-0.039881 0.01681 0.18422 
-0.043797 0.0090788 0.18585 
-0.044125 0.00401 0.1838 
-0.043077 -0.0084988 0.18919 
-0.041454 -0.0096796 0.19265 
-0.040884 -0.0076282 0.19344 
-0.040174 -0.0063389 0.19605 
-0.040123 -0.0071729 0.19989 
-0.040765 -0.0083509 0.20271 
-0.041729 -0.0094268 0.20691 
-0.043108 -0.01086 0.21073 
-0.041846 -0.014977 0.21438 
-0.041206 -0.018676 0.21753 
-0.04148 -0.021838 0.22047 
-0.041533 -0.024462 0.22221 
-0.033301 0.04157 0.17721 
-0.033107 0.039864 0.17885 
-0.033391 0.03514 0.18104 
-0.033521 0.031929 0.18225 
-0.032906 0.029989 0.18315 
-0.032599 0.027052 0.18406 
-0.033315 0.022974 0.18412 
-0.034228 0.019476 0.18379 
-0.040989 0.011622 0.18449 
-0.040285 0.0056019 0.18308 
-0.039104 0.0018544 0.18253 
-0.038277 -0.0067075 0.18682 
-0.037567 -0.0063474 0.1915 
-0.037139 -0.0052205 0.19536 
-0.036877 -0.0065811 0.19978 
-0.037652 -0.0084457 0.20302 
-0.038907 -0.010171 0.207 
-0.04012 -0.01246 0.21095 
-0.039064 -0.01597 0.21383 
-0.037836 -0.019323 0.21721 
-0.038419 -0.022381 0.21975 
-0.037987 -0.024253 0.2216 
-0.030437 0.041951 0.17775 
-0.030107 0.040164 0.17939 
-0.030336 0.035796 0.18162 
-0.030367 0.032671 0.18302 
-0.029791 0.030561 0.18397 
-0.03006 0.027375 0.18497 
-0.0304 0.023882 0.18514 
-0.030179 0.021213 0.18506 
-0.034725 0.015115 0.18361 
-0.035898 0.0073725 0.18271 
-0.032741 0.0049396 0.18504 
-0.032481 0.0013478 0.18735 
-0.033479 -0.0025216 0.19032 
-0.033867 -0.0035167 0.19319 
-0.03379 -0.0067008 0.20135 
-0.034322 -0.0085831 0.20385 
-0.035919 -0.011215 0.20749 
-0.036772 -0.014058 0.21116 
-0.034981 -0.016773 0.21427 
-0.034218 -0.019075 0.21843 
-0.034167 -0.021384 0.22032 
-0.034693 -0.02408 0.22261 
-0.034322 -0.025242 0.22526 
-0.027276 0.04228 0.17848 
-0.026964 0.040551 0.17984 
-0.026444 0.037622 0.18157 
-0.027089 0.033867 0.18311 
-0.026887 0.03105 0.1845 
-0.027154 0.027735 0.18591 
-0.027674 0.024583 0.1863 
-0.027994 0.021561 0.18611 
-0.029285 0.016964 0.1856 
-0.031049 0.010068 0.18425 
-0.027087 0.0060851 0.18825 
-0.026601 0.0030978 0.19197 
-0.025991 0.00027285 0.19642 
-0.026878 -0.0035744 0.20208 
-0.028856 -0.0064352 0.20493 
-0.03085 -0.009183 0.20699 
-0.032506 -0.012278 0.21025 
-0.031958 -0.015047 0.21459 
-0.031336 -0.017386 0.21721 
-0.031508 -0.019542 0.21967 
-0.031481 -0.021717 0.22154 
-0.031716 -0.023907 0.22363 
-0.031463 -0.024664 0.22611 
-0.025083 0.042916 0.17867 
-0.023541 0.041092 0.18039 
-0.022529 0.03883 0.18169 
-0.022705 0.0354 0.18346 
-0.023263 0.031727 0.18545 
-0.02362 0.028699 0.18718 
-0.024913 0.025154 0.18746 
-0.025818 0.021596 0.18755 
-0.025631 0.017986 0.18826 
-0.024396 0.014465 0.18909 
-0.022861 0.0089817 0.19138 
-0.022656 0.0047441 0.1946 
-0.023034 0.0013279 0.1987 
-0.02419 -0.0031082 0.20418 
-0.025626 -0.0062484 0.20798 
-0.026791 -0.0093552 0.21125 
-0.027701 -0.01261 0.21509 
-0.02791 -0.015536 0.21864 
-0.028685 -0.018491 0.22036 
-0.029565 -0.020267 0.22131 
-0.029001 -0.021891 0.22211 
-0.028486 -0.023309 0.22392 
-0.028328 -0.024774 0.22675 
-0.019358 0.041501 0.1817 
-0.019402 0.038783 0.18328 
-0.01822 0.035925 0.18515 
-0.018845 0.032821 0.18684 
-0.019467 0.029888 0.18875 
-0.020236 0.026614 0.19015 
-0.02291 0.021764 0.18994 
-0.022947 0.018852 0.19031 
-0.0223 0.016081 0.19143 
-0.021214 0.012183 0.19266 
-0.020238 0.0073883 0.19556 
-0.020216 0.0023414 0.20163 
-0.020952 -0.0026918 0.20698 
-0.021942 -0.0069562 0.21263 
-0.022854 -0.0099744 0.21573 
-0.0236 -0.012957 0.21923 
-0.024723 -0.01568 0.22105 
-0.025535 -0.018249 0.2225 
-0.026797 -0.020267 0.22322 
-0.026099 -0.021904 0.2227 
-0.025538 -0.023567 0.2239 
-0.025432 -0.025058 0.22715 
-0.015838 0.039204 0.18479 
-0.014971 0.036431 0.18639 
-0.015238 0.033628 0.18806 
-0.015486 0.030974 0.18981 
-0.014734 0.028091 0.19177 
-0.014534 0.024388 0.19403 
-0.019955 0.020164 0.1926 
-0.019626 0.01692 0.19406 
-0.018271 0.01302 0.19548 
-0.01716 0.0086163 0.19972 
-0.017277 0.0038747 0.20421 
-0.017788 -0.0018175 0.20965 
-0.018683 -0.0071368 0.21599 
-0.019107 -0.010622 0.21921 
-0.019202 -0.013722 0.22231 
-0.021107 -0.015707 0.22292 
-0.022534 -0.017657 0.22436 
-0.023363 -0.019288 0.22443 
-0.023266 -0.020927 0.22386 
-0.022658 -0.022933 0.225 
-0.022897 -0.025412 0.22877 
-0.012026 0.036839 0.18743 
-0.011685 0.0343 0.18882 
-0.011489 0.031785 0.19043 
-0.010878 0.028788 0.19216 
-0.0095222 0.024985 0.19602 
-0.011622 0.019805 0.19827 
-0.014885 0.016097 0.19836 
-0.014303 0.012421 0.20027 
-0.014567 0.0092983 0.203 
-0.014921 0.0055676 0.20575 
-0.015076 -0.00075311 0.21163 
-0.01515 -0.0072813 0.2182 
-0.014741 -0.010307 0.22104 
-0.014516 -0.013069 0.22373 
-0.01525 -0.01537 0.22488 
-0.018344 -0.016753 0.22436 
-0.019712 -0.018557 0.22438 
-0.020102 -0.020708 0.22479 
-0.0203 -0.023075 0.22683 
-0.02011 -0.025373 0.23035 
-0.009087 0.034512 0.18957 
-0.0078386 0.032088 0.19138 
-0.0066288 0.028868 0.19429 
-0.0060855 0.024612 0.19795 
-0.0076536 0.019515 0.20111 
-0.010346 0.015708 0.20263 
-0.011256 0.012667 0.20431 
-0.011782 0.0099169 0.20577 
-0.012305 0.0066213 0.20751 
-0.01265 0.0010863 0.21206 
-0.011064 -0.0063765 0.21926 
-0.010532 -0.0093809 0.2221 
-0.010566 -0.012263 0.22439 
-0.01104 -0.014528 0.22591 
-0.012915 -0.016202 0.22595 
-0.014994 -0.018123 0.22668 
-0.016364 -0.020931 0.22765 
-0.017546 -0.024613 0.23094 
-0.0033698 0.030517 0.19495 
-0.0030539 0.027152 0.19756 
-0.0038223 0.022942 0.20041 
-0.0050075 0.020362 0.20217 
-0.0068103 0.015929 0.20454 
-0.0078289 0.012843 0.2066 
-0.0083834 0.0099609 0.20828 
-0.0088176 0.0067456 0.21075 
-0.010236 0.0028449 0.2127 
-0.0071179 -0.005251 0.22005 
-0.0067448 -0.008706 0.22326 
-0.0069782 -0.01184 0.22468 
-0.0078209 -0.01435 0.2266 
-0.0086348 -0.016494 0.22787 
-0.010451 -0.018828 0.22954 
-0.013105 -0.021474 0.23029 
-0.015347 -0.023921 0.23135 
-0.00021307 0.025309 0.19926 
-0.0008356 0.022098 0.2014 
-0.00041284 0.019239 0.20332 
-0.0022934 0.016624 0.2052 
-0.0034151 0.012278 0.20769 
-0.0034038 0.0089809 0.21032 
-0.0035141 0.006036 0.21273 
-0.00319 -0.0036021 0.22017 
-0.0030689 -0.0082373 0.22369 
-0.0035281 -0.011852 0.22523 
-0.0043935 -0.014509 0.22713 
-0.0055917 -0.016706 0.22859 
-0.0073272 -0.018734 0.23066 
0.0018985 0.023682 0.20003 
0.0017195 0.021419 0.20137 
0.001792 0.019009 0.20294 
0.0016982 0.016106 0.20554 
0.0012042 0.011946 0.20836 
0.0008732 0.0086544 0.21097 
0.0007504 0.0060066 0.21329 
8.7019e-05 0.0031743 0.21585 
0.00044979 -0.0014655 0.21904 
-3.8005e-06 -0.0067782 0.2226 
-0.00087584 -0.011306 0.2255 
0.0038314 0.020611 0.20131 
0.005122 0.018751 0.20289 
0.0048398 0.015586 0.20607 
0.0042213 0.012103 0.20861 
0.0039129 0.0091465 0.21095 
0.0036297 0.0070338 0.2131 
3 10 1 9
3 9 21 10
3 10 2 1
3 21 22 10
3 9 20 21
3 8 20 9
3 8 19 20
3 10 11 2
3 22 11 10
3 22 23 11
3 21 36 22
3 20 35 21
3 19 33 20
3 8 7 19
3 11 3 2
3 23 12 11
3 22 36 23
3 36 37 23
3 21 35 36
3 35 53 36
3 20 34 35
3 33 34 20
3 33 51 34
3 19 18 33
3 7 18 19
3 7 17 18
3 11 12 3
3 12 4 3
3 23 24 12
3 37 38 23
3 36 54 37
3 53 54 36
3 53 72 54
3 35 52 53
3 34 52 35
3 34 51 52
3 51 70 52
3 33 50 51
3 18 32 33
3 17 32 18
3 17 31 32
3 12 13 4
3 24 13 12
3 24 25 13
3 23 38 24
3 38 39 24
3 37 55 38
3 54 55 37
3 54 72 55
3 72 73 55
3 53 71 72
3 52 71 53
3 52 70 71
3 70 91 71
3 51 69 70
3 50 69 51
3 50 68 69
3 33 32 50
3 32 49 50
3 31 49 32
3 31 48 49
3 13 5 4
3 25 14 13
3 24 39 25
3 39 26 25
3 38 56 39
3 55 56 38
3 55 73 56
3 73 74 56
3 72 93 73
3 91 92 71
3 70 69 91
3 69 90 91
3 68 90 69
3 68 89 90
3 50 49 68
3 49 67 68
3 48 66 49
3 31 47 48
3 13 14 5
3 14 6 5
3 25 26 14
3 26 15 14
3 39 40 26
3 56 40 39
3 56 57 40
3 74 57 56
3 74 75 57
3 73 94 74
3 93 94 73
3 93 115 94
3 91 113 92
3 90 112 91
3 89 111 90
3 68 67 89
3 67 88 89
3 49 66 67
3 66 88 67
3 66 87 88
3 48 47 66
3 47 65 66
3 14 15 6
3 26 16 15
3 40 27 26
3 57 41 40
3 75 58 57
3 74 95 75
3 94 95 74
3 94 116 95
3 115 116 94
3 115 138 116
3 113 114 92
3 91 112 113
3 112 134 113
3 90 111 112
3 111 133 112
3 89 88 111
3 88 110 111
3 87 110 88
3 87 109 110
3 66 65 87
3 65 86 87
3 26 27 16
3 27 28 16
3 40 41 27
3 41 42 27
3 57 58 41
3 58 42 41
3 58 59 42
3 75 76 58
3 95 96 75
3 116 117 95
3 138 117 116
3 138 139 117
3 115 137 138
3 113 135 114
3 134 135 113
3 134 156 135
3 112 133 134
3 133 155 134
3 111 132 133
3 110 132 111
3 110 131 132
3 109 131 110
3 109 130 131
3 87 86 109
3 86 108 109
3 65 85 86
3 27 42 28
3 42 29 28
3 59 43 42
3 58 76 59
3 76 77 59
3 75 96 76
3 96 97 76
3 95 117 96
3 117 118 96
3 139 118 117
3 139 140 118
3 138 160 139
3 137 160 138
3 137 159 160
3 115 114 137
3 135 136 114
3 156 157 135
3 134 155 156
3 155 178 156
3 133 154 155
3 132 154 133
3 132 153 154
3 131 153 132
3 131 130 153
3 130 152 153
3 109 108 130
3 108 107 130
3 86 85 108
3 85 107 108
3 42 43 29
3 43 30 29
3 59 60 43
3 77 60 59
3 77 78 60
3 76 97 77
3 97 98 77
3 96 118 97
3 118 119 97
3 140 119 118
3 140 141 119
3 139 161 140
3 160 161 139
3 160 183 161
3 137 136 159
3 136 137 114
3 135 157 136
3 157 158 136
3 156 179 157
3 178 179 156
3 178 202 179
3 155 177 178
3 154 177 155
3 154 153 177
3 153 176 177
3 152 176 153
3 152 175 176
3 130 151 152
3 107 129 130
3 43 44 30
3 60 44 43
3 60 61 44
3 78 61 60
3 78 79 61
3 77 98 78
3 98 99 78
3 97 119 98
3 119 120 98
3 141 142 119
3 140 163 141
3 161 162 140
3 183 184 161
3 136 158 159
3 158 181 159
3 157 180 158
3 179 180 157
3 179 202 180
3 202 203 180
3 178 201 202
3 177 201 178
3 177 200 201
3 176 200 177
3 176 199 200
3 175 198 176
3 152 174 175
3 151 174 152
3 130 129 151
3 61 45 44
3 79 62 61
3 78 99 79
3 99 100 79
3 98 120 99
3 120 121 99
3 119 142 120
3 142 143 120
3 141 164 142
3 163 164 141
3 163 186 164
3 140 162 163
3 162 185 163
3 161 185 162
3 161 184 185
3 184 208 185
3 183 206 184
3 181 182 159
3 158 180 181
3 180 203 181
3 203 204 181
3 202 225 203
3 201 224 202
3 200 223 201
3 199 221 200
3 176 198 199
3 198 220 199
3 175 197 198
3 174 197 175
3 61 62 45
3 62 46 45
3 79 80 62
3 100 80 79
3 100 101 80
3 99 122 100
3 121 122 99
3 121 144 122
3 120 143 121
3 143 144 121
3 143 165 144
3 142 165 143
3 142 164 165
3 164 187 165
3 186 187 164
3 186 209 187
3 163 185 186
3 185 209 186
3 185 208 209
3 208 231 209
3 184 207 208
3 206 207 184
3 206 229 207
3 183 205 206
3 181 204 182
3 204 205 182
3 203 225 204
3 225 226 204
3 202 224 225
3 224 246 225
3 201 223 224
3 223 245 224
3 200 222 223
3 221 222 200
3 221 242 222
3 199 220 221
3 220 242 221
3 198 197 220
3 62 63 46
3 80 63 62
3 80 81 63
3 101 102 80
3 100 123 101
3 122 123 100
3 122 145 123
3 144 145 122
3 144 166 145
3 165 166 144
3 165 189 166
3 187 188 165
3 209 210 187
3 231 232 209
3 208 230 231
3 207 230 208
3 207 229 230
3 229 251 230
3 206 228 229
3 205 228 206
3 205 227 228
3 183 182 205
3 204 226 205
3 226 227 205
3 226 247 227
3 225 246 226
3 246 247 226
3 246 267 247
3 224 245 246
3 245 266 246
3 223 244 245
3 222 243 223
3 242 243 222
3 242 263 243
3 63 64 46
3 81 64 63
3 81 82 64
3 80 102 81
3 102 103 81
3 101 124 102
3 123 124 101
3 123 145 124
3 145 146 124
3 166 167 145
3 189 167 166
3 189 190 167
3 165 188 189
3 188 212 189
3 187 210 188
3 210 211 188
3 209 232 210
3 232 211 210
3 232 233 211
3 231 253 232
3 230 252 231
3 251 252 230
3 251 271 252
3 229 250 251
3 228 250 229
3 228 249 250
3 227 248 228
3 247 248 227
3 247 268 248
3 267 268 247
3 267 286 268
3 246 266 267
3 266 285 267
3 245 265 266
3 244 264 245
3 223 243 244
3 243 263 244
3 263 264 244
3 263 283 264
3 82 83 64
3 81 103 82
3 103 104 82
3 102 124 103
3 124 125 103
3 146 125 124
3 146 147 125
3 145 167 146
3 167 168 146
3 190 168 167
3 190 191 168
3 189 212 190
3 212 213 190
3 188 211 212
3 211 233 212
3 233 234 212
3 232 253 233
3 253 254 233
3 231 252 253
3 252 272 253
3 271 272 252
3 271 291 272
3 251 270 271
3 250 270 251
3 250 269 270
3 249 269 250
3 249 248 269
3 248 249 228
3 268 269 248
3 268 288 269
3 286 287 268
3 267 285 286
3 285 302 286
3 266 284 285
3 265 284 266
3 265 283 284
3 245 264 265
3 283 265 264
3 82 104 83
3 104 105 83
3 103 126 104
3 125 126 103
3 125 147 126
3 147 148 126
3 146 168 147
3 168 169 147
3 191 169 168
3 191 192 169
3 190 213 191
3 213 214 191
3 212 234 213
3 234 235 213
3 233 254 234
3 254 255 234
3 253 273 254
3 272 273 253
3 272 292 273
3 291 292 272
3 291 309 292
3 271 290 291
3 270 289 271
3 269 289 270
3 269 288 289
3 288 306 289
3 268 287 288
3 287 305 288
3 286 303 287
3 302 303 286
3 302 318 303
3 285 301 302
3 284 301 285
3 105 84 83
3 104 127 105
3 126 127 104
3 126 149 127
3 148 149 126
3 148 170 149
3 147 169 148
3 169 170 148
3 169 192 170
3 192 193 170
3 191 214 192
3 214 215 192
3 213 235 214
3 235 236 214
3 234 255 235
3 255 256 235
3 254 274 255
3 273 274 254
3 273 293 274
3 292 293 273
3 292 310 293
3 309 310 292
3 309 325 310
3 291 308 309
3 290 307 291
3 271 289 290
3 289 307 290
3 289 306 307
3 306 323 307
3 288 305 306
3 305 322 306
3 287 304 305
3 303 304 287
3 303 319 304
3 318 319 303
3 318 331 319
3 105 106 84
3 127 128 105
3 149 128 127
3 149 150 128
3 170 171 149
3 193 171 170
3 193 194 171
3 192 215 193
3 215 216 193
3 214 236 215
3 236 237 215
3 235 256 236
3 256 257 236
3 255 276 256
3 274 275 255
3 293 294 274
3 310 294 293
3 310 311 294
3 325 326 310
3 308 324 309
3 291 307 308
3 307 323 308
3 323 324 308
3 323 337 324
3 306 322 323
3 322 336 323
3 305 321 322
3 304 321 305
3 304 320 321
3 319 320 304
3 319 332 320
3 331 332 319
3 331 342 332
3 105 128 106
3 149 171 150
3 171 172 150
3 194 172 171
3 194 195 172
3 193 216 194
3 216 217 194
3 215 237 216
3 237 238 216
3 236 257 237
3 257 258 237
3 256 277 257
3 276 277 256
3 276 296 277
3 255 275 276
3 275 295 276
3 274 294 275
3 294 295 275
3 294 312 295
3 311 312 294
3 311 327 312
3 310 326 311
3 326 327 311
3 326 341 327
3 325 340 326
3 337 338 324
3 323 336 337
3 336 347 337
3 322 335 336
3 321 335 322
3 321 334 335
3 320 334 321
3 320 333 334
3 332 333 320
3 332 342 333
3 342 343 333
3 195 173 172
3 194 218 195
3 217 218 194
3 217 240 218
3 216 239 217
3 238 239 216
3 238 260 239
3 237 259 238
3 258 259 237
3 258 279 259
3 257 278 258
3 277 278 257
3 277 297 278
3 296 297 277
3 296 313 297
3 276 295 296
3 295 313 296
3 295 312 313
3 312 328 313
3 327 328 312
3 327 341 328
3 326 340 341
3 325 339 340
3 336 346 347
3 335 346 336
3 335 345 346
3 334 345 335
3 334 344 345
3 333 344 334
3 333 343 344
3 195 196 173
3 218 196 195
3 218 219 196
3 240 241 218
3 217 239 240
3 239 261 240
3 260 261 239
3 260 280 261
3 238 259 260
3 259 279 260
3 279 280 260
3 279 298 280
3 258 278 279
3 278 298 279
3 278 297 298
3 297 315 298
3 313 314 297
3 328 329 313
3 325 338 339
3 218 241 219
3 240 261 241
3 261 262 241
3 280 281 261
3 298 299 280
3 315 316 298
3 297 314 315
3 314 330 315
3 313 329 314
3 329 330 314
3 261 281 262
3 281 282 262
3 298 316 299
3 316 317 299
3 281 300 282
3 71 92 72
3 92 93 72
3 92 114 93
3 114 115 93
3 159 182 160
3 182 183 160
3 44 45 30
3 302 301 318
3 172 173 150
3 337 347 338
3 338 309 324
3 338 325 309
3 280 299 281
3 299 317 281
3 317 300 281
3 1 0 9
3 9 0 8
