ply
format ascii 1.0
comment PCL generated
element vertex 348
property float x
property float y
property float z
element face 631
property list uchar int vertex_indices
end_header
-0.056809 0.023547 0.18818 
-0.05726 0.021133 0.19014 
-0.057631 0.018007 0.19176 
-0.057899 0.015044 0.19341 
-0.058108 0.012248 0.19511 
-0.058154 0.0096599 0.19673 
-0.05786 0.0070704 0.1983 
-0.053706 0.025404 0.1846 
-0.054613 0.024363 0.18561 
-0.054521 0.02171 0.18706 
-0.054748 0.018435 0.18886 
-0.054979 0.014983 0.19062 
-0.055524 0.011819 0.19247 
-0.056133 0.0089566 0.19493 
-0.056102 0.0056765 0.19662 
-0.055157 0.0017046 0.19717 
-0.054992 -0.0009547 0.19961 
-0.050805 0.027651 0.18197 
-0.051328 0.026059 0.18295 
-0.051475 0.024132 0.18392 
-0.051774 0.022041 0.18522 
-0.051878 0.018681 0.18701 
-0.051804 0.014481 0.189 
-0.052263 0.011053 0.19068 
-0.052629 0.0078061 0.19286 
-0.053293 0.0037138 0.19408 
-0.053042 -4.7646e-05 0.19665 
-0.053365 -0.0023095 0.19955 
-0.053982 -0.0035083 0.20258 
-0.053685 -0.0044243 0.2049 
-0.053369 -0.0047456 0.20629 
-0.048325 0.028635 0.18083 
-0.048691 0.026599 0.1816 
-0.049013 0.024493 0.18275 
-0.049351 0.022298 0.18421 
-0.049479 0.01912 0.1861 
-0.049122 0.013298 0.1875 
-0.049581 0.0095611 0.18959 
-0.05013 0.0059237 0.19114 
-0.052049 0.00034087 0.19301 
-0.051563 -0.0027104 0.19589 
-0.051032 -0.0044074 0.19805 
-0.050995 -0.0048203 0.20075 
-0.051068 -0.0043806 0.20434 
-0.051353 -0.0046339 0.20757 
-0.051464 -0.0060134 0.21087 
-0.050886 -0.0088785 0.21479 
-0.045086 0.031825 0.17944 
-0.045482 0.029794 0.18019 
-0.046 0.027283 0.18116 
-0.046491 0.025078 0.18228 
-0.046947 0.022593 0.18365 
-0.047205 0.019375 0.18505 
-0.047026 0.013951 0.18613 
-0.047913 0.0083015 0.18866 
-0.049285 0.0035091 0.18981 
-0.050996 -0.0028136 0.19289 
-0.050723 -0.0067949 0.19502 
-0.050013 -0.0073052 0.19679 
-0.048755 -0.0052978 0.19907 
-0.047848 -0.0044705 0.20396 
-0.047775 -0.0049245 0.20761 
-0.048488 -0.0073781 0.2109 
-0.049175 -0.0099078 0.21418 
-0.050028 -0.012877 0.21801 
-0.042619 0.033742 0.17884 
-0.04305 0.030558 0.18023 
-0.042926 0.028184 0.18097 
-0.043916 0.025735 0.18201 
-0.044247 0.02335 0.18289 
-0.044374 0.020259 0.18384 
-0.044708 0.015726 0.18485 
-0.046923 0.0076839 0.18764 
-0.04917 0.001117 0.18861 
-0.04947 -0.0060801 0.19195 
-0.048493 -0.0086516 0.19403 
-0.046955 -0.0075958 0.19643 
-0.045869 -0.0053354 0.19836 
-0.044866 -0.0047839 0.2034 
-0.04435 -0.0055372 0.2074 
-0.044369 -0.0075047 0.21087 
-0.045847 -0.010375 0.21399 
-0.047834 -0.014052 0.21787 
-0.048045 -0.017879 0.22059 
-0.047511 -0.020707 0.222 
-0.03912 0.0392 0.17728 
-0.039507 0.036115 0.17891 
-0.038271 0.033119 0.18025 
-0.039403 0.030522 0.18098 
-0.03997 0.027797 0.18162 
-0.040901 0.024289 0.18232 
-0.040919 0.021031 0.18274 
-0.04246 0.016019 0.18414 
-0.045746 0.0076917 0.18607 
-0.047431 0.0021838 0.18552 
-0.047202 -0.0072799 0.19034 
-0.044958 -0.0086794 0.1935 
-0.043481 -0.0068711 0.19618 
-0.043159 -0.0055865 0.19731 
-0.042202 -0.0055408 0.20155 
-0.042313 -0.0067789 0.20529 
-0.043308 -0.0083382 0.20834 
-0.044719 -0.0096337 0.21167 
-0.044717 -0.014295 0.21585 
-0.044566 -0.018293 0.21894 
-0.045147 -0.021785 0.22151 
-0.044415 -0.024182 0.22253 
-0.036572 0.040756 0.17691 
-0.036125 0.038939 0.17867 
-0.035911 0.034519 0.18012 
-0.036485 0.031865 0.18103 
-0.036044 0.02955 0.18188 
-0.035805 0.025978 0.18309 
-0.036133 0.022956 0.18318 
-0.039896 0.016847 0.18369 
-0.043927 0.0091721 0.1846 
-0.044511 0.0041304 0.18246 
-0.043099 -0.0084755 0.18891 
-0.04145 -0.0095013 0.1924 
-0.040917 -0.0074139 0.19308 
-0.040243 -0.0059489 0.19577 
-0.040181 -0.0065706 0.19981 
-0.040782 -0.0076365 0.20268 
-0.041743 -0.0088848 0.20696 
-0.043086 -0.010423 0.21077 
-0.04182 -0.014887 0.21426 
-0.041117 -0.018753 0.21733 
-0.04134 -0.021932 0.22021 
-0.041353 -0.024573 0.22189 
-0.033424 0.041633 0.17718 
-0.033184 0.039899 0.17879 
-0.033387 0.034985 0.1809 
-0.033459 0.031758 0.18205 
-0.032826 0.029834 0.18294 
-0.032553 0.026946 0.18382 
-0.033319 0.022873 0.18371 
-0.034198 0.019423 0.18321 
-0.041004 0.011761 0.18322 
-0.040499 0.0057307 0.18142 
-0.039335 0.0018927 0.18084 
-0.038385 -0.0067477 0.18621 
-0.03767 -0.006215 0.19103 
-0.037242 -0.0049653 0.1949 
-0.03697 -0.0060902 0.19952 
-0.037745 -0.007856 0.20287 
-0.038952 -0.0097333 0.20692 
-0.040134 -0.012172 0.21081 
-0.039033 -0.015992 0.21363 
-0.037708 -0.019477 0.21694 
-0.038251 -0.022514 0.21947 
-0.037791 -0.024321 0.2213 
-0.030548 0.042034 0.17773 
-0.030178 0.040217 0.17937 
-0.030367 0.035685 0.18154 
-0.030383 0.032515 0.18288 
-0.029814 0.030428 0.1838 
-0.030076 0.027241 0.18472 
-0.030397 0.023762 0.18471 
-0.030135 0.0211 0.18446 
-0.034721 0.015143 0.18278 
-0.036064 0.0074529 0.18143 
-0.03254 0.0048346 0.18312 
-0.032346 0.0013379 0.18575 
-0.033541 -0.0024208 0.18934 
-0.033966 -0.0034086 0.19254 
-0.033904 -0.0064548 0.20099 
-0.034483 -0.0084179 0.20344 
-0.036008 -0.011065 0.20722 
-0.036835 -0.014007 0.21087 
-0.034919 -0.016906 0.21397 
-0.034058 -0.019249 0.21807 
-0.033971 -0.021501 0.21996 
-0.034484 -0.0241 0.22232 
-0.034063 -0.025145 0.225 
-0.027375 0.042367 0.17851 
-0.027038 0.040609 0.17988 
-0.026507 0.037608 0.18162 
-0.027194 0.033783 0.18304 
-0.026957 0.030941 0.18439 
-0.027188 0.027581 0.18569 
-0.027673 0.024436 0.18589 
-0.027948 0.021429 0.18553 
-0.029199 0.016839 0.18476 
-0.030999 0.010036 0.18303 
-0.026973 0.0060606 0.18726 
-0.026364 0.0031321 0.19056 
-0.025855 0.00021849 0.19521 
-0.026799 -0.0040442 0.20124 
-0.028885 -0.0069004 0.20425 
-0.030918 -0.0093506 0.20668 
-0.032626 -0.012454 0.20991 
-0.031994 -0.015224 0.21423 
-0.031229 -0.017551 0.21681 
-0.031345 -0.019703 0.21927 
-0.031294 -0.021807 0.22114 
-0.031486 -0.023897 0.22329 
-0.031196 -0.024564 0.22575 
-0.025176 0.043 0.17873 
-0.023587 0.041118 0.18048 
-0.022569 0.038823 0.18176 
-0.022793 0.035357 0.18348 
-0.023328 0.031637 0.18535 
-0.023646 0.028558 0.18698 
-0.024921 0.024983 0.18709 
-0.025809 0.021396 0.18696 
-0.025571 0.01783 0.18747 
-0.024229 0.01444 0.18818 
-0.022577 0.0089855 0.19045 
-0.022474 0.0047057 0.19379 
-0.022921 0.001257 0.19803 
-0.024137 -0.0033571 0.20377 
-0.025652 -0.006571 0.20765 
-0.026838 -0.0097028 0.21088 
-0.0277 -0.012944 0.21468 
-0.027821 -0.015765 0.21816 
-0.028552 -0.018647 0.21985 
-0.029412 -0.020386 0.22082 
-0.028824 -0.021964 0.22165 
-0.028296 -0.023318 0.22348 
-0.028095 -0.024701 0.2263 
-0.019366 0.041472 0.18183 
-0.0194 0.038746 0.18336 
-0.018175 0.035892 0.18518 
-0.018813 0.032773 0.18675 
-0.019446 0.029781 0.18852 
-0.020198 0.026455 0.18979 
-0.022938 0.02154 0.18931 
-0.0229 0.018767 0.18953 
-0.022159 0.016091 0.19055 
-0.020958 0.012237 0.1917 
-0.019978 0.0073615 0.19467 
-0.020032 0.0021927 0.20096 
-0.020853 -0.0029529 0.20655 
-0.021945 -0.0072865 0.21231 
-0.022846 -0.01031 0.21534 
-0.023545 -0.013229 0.21878 
-0.024614 -0.015866 0.22049 
-0.025398 -0.018366 0.2219 
-0.026596 -0.020334 0.22266 
-0.025938 -0.02198 0.22217 
-0.025368 -0.023595 0.22343 
-0.025235 -0.024997 0.22671 
-0.015769 0.039103 0.18489 
-0.014871 0.036334 0.18643 
-0.015129 0.033557 0.18802 
-0.015367 0.030907 0.18967 
-0.014575 0.028018 0.19155 
-0.01431 0.024303 0.19372 
-0.019888 0.020173 0.19184 
-0.019494 0.016974 0.19319 
-0.018046 0.013078 0.19458 
-0.016915 0.0085518 0.19893 
-0.017044 0.0037037 0.20355 
-0.017637 -0.0020525 0.20919 
-0.018627 -0.0074575 0.21566 
-0.019063 -0.010901 0.21883 
-0.019136 -0.013919 0.22188 
-0.02099 -0.015852 0.22236 
-0.022395 -0.017732 0.22372 
-0.023192 -0.019321 0.22379 
-0.023117 -0.020955 0.22325 
-0.022522 -0.022881 0.22445 
-0.022764 -0.025286 0.22831 
-0.011878 0.036716 0.18745 
-0.011533 0.03421 0.18879 
-0.011314 0.031722 0.19033 
-0.010664 0.028736 0.19203 
-0.0092377 0.024823 0.19584 
-0.011389 0.019645 0.19767 
-0.014683 0.016047 0.19762 
-0.014049 0.012328 0.19954 
-0.014334 0.0091916 0.20229 
-0.014709 0.0054267 0.20509 
-0.014903 -0.00097751 0.21115 
-0.015038 -0.0075947 0.21788 
-0.014621 -0.010554 0.22072 
-0.014403 -0.013245 0.22338 
-0.015149 -0.015505 0.22445 
-0.018224 -0.016834 0.22382 
-0.019601 -0.018576 0.22378 
-0.020026 -0.020684 0.22423 
-0.020229 -0.022961 0.22635 
-0.020063 -0.025187 0.22993 
-0.0089193 0.034415 0.18954 
-0.0076318 0.032027 0.19135 
-0.0064054 0.028807 0.19435 
-0.0058268 0.024421 0.19774 
-0.0073761 0.019238 0.20055 
-0.010115 0.01548 0.20206 
-0.011038 0.012502 0.20373 
-0.011593 0.0097996 0.2052 
-0.012156 0.0064995 0.20694 
-0.012505 0.00087377 0.21155 
-0.010903 -0.0066729 0.21901 
-0.010386 -0.0095981 0.22191 
-0.010456 -0.012438 0.22423 
-0.010947 -0.014685 0.22569 
-0.012818 -0.016332 0.22563 
-0.014957 -0.018156 0.2262 
-0.016407 -0.020876 0.22721 
-0.017637 -0.024437 0.23057 
-0.0031446 0.030465 0.195 
-0.0028075 0.027012 0.19745 
-0.0035818 0.022709 0.19999 
-0.0047833 0.020083 0.20164 
-0.006589 0.015676 0.204 
-0.0076556 0.012649 0.20614 
-0.0082859 0.0098439 0.20789 
-0.0087829 0.006635 0.21036 
-0.010178 0.0026944 0.21222 
-0.0069374 -0.0055107 0.21991 
-0.0066129 -0.0088962 0.22321 
-0.0068771 -0.012019 0.22467 
-0.0077452 -0.014522 0.22655 
-0.0085953 -0.01664 0.22781 
-0.010463 -0.018906 0.22938 
-0.013192 -0.021432 0.23001 
-0.015473 -0.023767 0.23103 
4.6677e-05 0.025169 0.19905 
-0.00063411 0.021924 0.20111 
-0.00026574 0.019072 0.20307 
-0.0021387 0.016404 0.20482 
-0.0033147 0.012112 0.20738 
-0.0033586 0.0088196 0.21004 
-0.0034773 0.0058592 0.21242 
-0.0030368 -0.0038117 0.22013 
-0.0029436 -0.0084317 0.22376 
-0.0034322 -0.012052 0.22533 
-0.0043335 -0.014694 0.22722 
-0.0055729 -0.016864 0.22868 
-0.0073639 -0.018854 0.23071 
0.0021237 0.023546 0.19988 
0.0019021 0.021295 0.20123 
0.0019224 0.0189 0.20283 
0.001804 0.01599 0.20543 
0.0012812 0.011767 0.20817 
0.00093332 0.008459 0.21076 
0.00080826 0.005827 0.21307 
0.00011709 0.0030122 0.21562 
0.00053635 -0.0015951 0.21897 
0.00011592 -0.006946 0.22273 
-0.00078526 -0.011504 0.22568 
0.0039959 0.02053 0.20129 
0.0052366 0.018723 0.20294 
0.004926 0.015493 0.20606 
0.0043032 0.011925 0.20849 
0.0039826 0.0089602 0.2108 
0.0036897 0.006871 0.21297 
3 10 1 9
3 9 21 10
3 10 2 1
3 21 22 10
3 9 20 21
3 8 20 9
3 8 19 20
3 10 11 2
3 22 11 10
3 22 23 11
3 21 36 22
3 20 35 21
3 19 33 20
3 8 7 19
3 11 3 2
3 23 12 11
3 22 36 23
3 36 37 23
3 21 35 36
3 35 53 36
3 20 34 35
3 33 34 20
3 33 51 34
3 19 18 33
3 7 18 19
3 7 17 18
3 11 12 3
3 12 4 3
3 23 24 12
3 37 38 23
3 36 54 37
3 53 54 36
3 53 72 54
3 35 52 53
3 34 52 35
3 34 51 52
3 51 70 52
3 33 50 51
3 18 32 33
3 17 32 18
3 17 31 32
3 12 13 4
3 24 13 12
3 24 25 13
3 23 38 24
3 38 39 24
3 37 55 38
3 54 55 37
3 54 72 55
3 72 73 55
3 53 71 72
3 52 71 53
3 52 70 71
3 70 91 71
3 51 69 70
3 50 69 51
3 50 68 69
3 33 32 50
3 32 49 50
3 31 49 32
3 31 48 49
3 13 5 4
3 25 14 13
3 24 39 25
3 39 26 25
3 38 56 39
3 55 56 38
3 55 73 56
3 73 74 56
3 72 93 73
3 91 92 71
3 70 69 91
3 69 90 91
3 68 90 69
3 68 89 90
3 50 49 68
3 49 67 68
3 48 66 49
3 31 47 48
3 13 14 5
3 14 6 5
3 25 26 14
3 26 15 14
3 39 40 26
3 56 40 39
3 56 57 40
3 74 57 56
3 74 75 57
3 73 94 74
3 93 94 73
3 93 115 94
3 91 113 92
3 90 112 91
3 89 111 90
3 68 67 89
3 67 88 89
3 49 66 67
3 66 88 67
3 66 87 88
3 48 47 66
3 47 65 66
3 14 15 6
3 26 16 15
3 40 27 26
3 57 41 40
3 75 58 57
3 74 95 75
3 94 95 74
3 94 116 95
3 115 116 94
3 115 138 116
3 113 114 92
3 91 112 113
3 112 134 113
3 90 111 112
3 111 133 112
3 89 88 111
3 88 110 111
3 87 110 88
3 87 109 110
3 66 65 87
3 65 86 87
3 26 27 16
3 27 28 16
3 40 41 27
3 41 42 27
3 57 58 41
3 58 42 41
3 58 59 42
3 75 76 58
3 95 96 75
3 116 117 95
3 138 117 116
3 138 139 117
3 115 137 138
3 113 135 114
3 134 135 113
3 134 156 135
3 112 133 134
3 133 155 134
3 111 132 133
3 110 132 111
3 110 131 132
3 109 131 110
3 109 130 131
3 87 86 109
3 86 108 109
3 65 85 86
3 27 42 28
3 42 29 28
3 59 43 42
3 58 76 59
3 76 77 59
3 75 96 76
3 96 97 76
3 95 117 96
3 117 118 96
3 139 118 117
3 139 140 118
3 138 160 139
3 137 160 138
3 137 159 160
3 115 114 137
3 135 136 114
3 156 157 135
3 134 155 156
3 155 178 156
3 133 154 155
3 132 154 133
3 132 153 154
3 131 153 132
3 131 130 153
3 130 152 153
3 109 108 130
3 108 107 130
3 86 85 108
3 85 107 108
3 42 43 29
3 43 30 29
3 59 60 43
3 77 60 59
3 77 78 60
3 76 97 77
3 97 98 77
3 96 118 97
3 118 119 97
3 140 119 118
3 140 141 119
3 139 161 140
3 160 161 139
3 160 183 161
3 137 136 159
3 136 137 114
3 135 157 136
3 157 158 136
3 156 179 157
3 178 179 156
3 178 202 179
3 155 177 178
3 154 177 155
3 154 153 177
3 153 176 177
3 152 176 153
3 152 175 176
3 130 151 152
3 107 129 130
3 43 44 30
3 60 44 43
3 60 61 44
3 78 61 60
3 78 79 61
3 77 98 78
3 98 99 78
3 97 119 98
3 119 120 98
3 141 142 119
3 140 163 141
3 161 162 140
3 183 184 161
3 136 158 159
3 158 181 159
3 157 180 158
3 179 180 157
3 179 202 180
3 202 203 180
3 178 201 202
3 177 201 178
3 177 200 201
3 176 200 177
3 176 199 200
3 175 198 176
3 152 174 175
3 151 174 152
3 130 129 151
3 61 45 44
3 79 62 61
3 78 99 79
3 99 100 79
3 98 120 99
3 120 121 99
3 119 142 120
3 142 143 120
3 141 164 142
3 163 164 141
3 163 186 164
3 140 162 163
3 162 185 163
3 161 185 162
3 161 184 185
3 184 208 185
3 183 206 184
3 181 182 159
3 158 180 181
3 180 203 181
3 203 204 181
3 202 225 203
3 201 224 202
3 200 223 201
3 199 221 200
3 176 198 199
3 198 220 199
3 175 197 198
3 174 197 175
3 61 62 45
3 62 46 45
3 79 80 62
3 100 80 79
3 100 101 80
3 99 122 100
3 121 122 99
3 121 144 122
3 120 143 121
3 143 144 121
3 143 165 144
3 142 165 143
3 142 164 165
3 164 187 165
3 186 187 164
3 186 209 187
3 163 185 186
3 185 209 186
3 185 208 209
3 208 231 209
3 184 207 208
3 206 207 184
3 206 229 207
3 183 205 206
3 181 204 182
3 204 205 182
3 203 225 204
3 225 226 204
3 202 224 225
3 224 246 225
3 201 223 224
3 223 245 224
3 200 222 223
3 221 222 200
3 221 242 222
3 199 220 221
3 220 242 221
3 198 197 220
3 62 63 46
3 80 63 62
3 80 81 63
3 101 102 80
3 100 123 101
3 122 123 100
3 122 145 123
3 144 145 122
3 144 166 145
3 165 166 144
3 165 189 166
3 187 188 165
3 209 210 187
3 231 232 209
3 208 230 231
3 207 230 208
3 207 229 230
3 229 251 230
3 206 228 229
3 205 228 206
3 205 227 228
3 183 182 205
3 204 226 205
3 226 227 205
3 226 247 227
3 225 246 226
3 246 247 226
3 246 267 247
3 224 245 246
3 245 266 246
3 223 244 245
3 222 243 223
3 242 243 222
3 242 263 243
3 63 64 46
3 81 64 63
3 81 82 64
3 80 102 81
3 102 103 81
3 101 124 102
3 123 124 101
3 123 145 124
3 145 146 124
3 166 167 145
3 189 167 166
3 189 190 167
3 165 188 189
3 188 212 189
3 187 210 188
3 210 211 188
3 209 232 210
3 232 211 210
3 232 233 211
3 231 253 232
3 230 252 231
3 251 252 230
3 251 271 252
3 229 250 251
3 228 250 229
3 228 249 250
3 227 248 228
3 247 248 227
3 247 268 248
3 267 268 247
3 267 286 268
3 246 266 267
3 266 285 267
3 245 265 266
3 244 264 245
3 223 243 244
3 243 263 244
3 263 264 244
3 263 283 264
3 82 83 64
3 81 103 82
3 103 104 82
3 102 124 103
3 124 125 103
3 146 125 124
3 146 147 125
3 145 167 146
3 167 168 146
3 190 168 167
3 190 191 168
3 189 212 190
3 212 213 190
3 188 211 212
3 211 233 212
3 233 234 212
3 232 253 233
3 253 254 233
3 231 252 253
3 252 272 253
3 271 272 252
3 271 291 272
3 251 270 271
3 250 270 251
3 250 269 270
3 249 269 250
3 249 248 269
3 248 249 228
3 268 269 248
3 268 288 269
3 286 287 268
3 267 285 286
3 285 302 286
3 266 284 285
3 265 284 266
3 265 283 284
3 245 264 265
3 283 265 264
3 82 104 83
3 104 105 83
3 103 126 104
3 125 126 103
3 125 147 126
3 147 148 126
3 146 168 147
3 168 169 147
3 191 169 168
3 191 192 169
3 190 213 191
3 213 214 191
3 212 234 213
3 234 235 213
3 233 254 234
3 254 255 234
3 253 273 254
3 272 273 253
3 272 292 273
3 291 292 272
3 291 309 292
3 271 290 291
3 270 289 271
3 269 289 270
3 269 288 289
3 288 306 289
3 268 287 288
3 287 305 288
3 286 303 287
3 302 303 286
3 302 318 303
3 285 301 302
3 284 301 285
3 105 84 83
3 104 127 105
3 126 127 104
3 126 149 127
3 148 149 126
3 148 170 149
3 147 169 148
3 169 170 148
3 169 192 170
3 192 193 170
3 191 214 192
3 214 215 192
3 213 235 214
3 235 236 214
3 234 255 235
3 255 256 235
3 254 274 255
3 273 274 254
3 273 293 274
3 292 293 273
3 292 310 293
3 309 310 292
3 309 325 310
3 291 308 309
3 290 307 291
3 271 289 290
3 289 307 290
3 289 306 307
3 306 323 307
3 288 305 306
3 305 322 306
3 287 304 305
3 303 304 287
3 303 319 304
3 318 319 303
3 318 331 319
3 105 106 84
3 127 128 105
3 149 128 127
3 149 150 128
3 170 171 149
3 193 171 170
3 193 194 171
3 192 215 193
3 215 216 193
3 214 236 215
3 236 237 215
3 235 256 236
3 256 257 236
3 255 276 256
3 274 275 255
3 293 294 274
3 310 294 293
3 310 311 294
3 325 326 310
3 308 324 309
3 291 307 308
3 307 323 308
3 323 324 308
3 323 337 324
3 306 322 323
3 322 336 323
3 305 321 322
3 304 321 305
3 304 320 321
3 319 320 304
3 319 332 320
3 331 332 319
3 331 342 332
3 105 128 106
3 149 171 150
3 171 172 150
3 194 172 171
3 194 195 172
3 193 216 194
3 216 217 194
3 215 237 216
3 237 238 216
3 236 257 237
3 257 258 237
3 256 277 257
3 276 277 256
3 276 296 277
3 255 275 276
3 275 295 276
3 274 294 275
3 294 295 275
3 294 312 295
3 311 312 294
3 311 327 312
3 310 326 311
3 326 327 311
3 326 341 327
3 325 340 326
3 337 338 324
3 323 336 337
3 336 347 337
3 322 335 336
3 321 335 322
3 321 334 335
3 320 334 321
3 320 333 334
3 332 333 320
3 332 342 333
3 342 343 333
3 195 173 172
3 194 218 195
3 217 218 194
3 217 240 218
3 216 239 217
3 238 239 216
3 238 260 239
3 237 259 238
3 258 259 237
3 258 279 259
3 257 278 258
3 277 278 257
3 277 297 278
3 296 297 277
3 296 313 297
3 276 295 296
3 295 313 296
3 295 312 313
3 312 328 313
3 327 328 312
3 327 341 328
3 326 340 341
3 325 339 340
3 336 346 347
3 335 346 336
3 335 345 346
3 334 345 335
3 334 344 345
3 333 344 334
3 333 343 344
3 195 196 173
3 218 196 195
3 218 219 196
3 240 241 218
3 217 239 240
3 239 261 240
3 260 261 239
3 260 280 261
3 238 259 260
3 259 279 260
3 279 280 260
3 279 298 280
3 258 278 279
3 278 298 279
3 278 297 298
3 297 315 298
3 313 314 297
3 328 329 313
3 325 338 339
3 218 241 219
3 240 261 241
3 261 262 241
3 280 281 261
3 298 299 280
3 315 316 298
3 297 314 315
3 314 330 315
3 313 329 314
3 329 330 314
3 261 281 262
3 281 282 262
3 298 316 299
3 316 317 299
3 281 300 282
3 71 92 72
3 92 93 72
3 92 114 93
3 114 115 93
3 159 182 160
3 182 183 160
3 44 45 30
3 302 301 318
3 172 173 150
3 337 347 338
3 338 309 324
3 338 325 309
3 280 299 281
3 299 317 281
3 317 300 281
3 1 0 9
3 9 0 8
