ply
format ascii 1.0
comment PCL generated
element vertex 240
property float x
property float y
property float z
element camera 1
property float view_px
property float view_py
property float view_pz
property float x_axisx
property float x_axisy
property float x_axisz
property float y_axisx
property float y_axisy
property float y_axisz
property float z_axisx
property float z_axisy
property float z_axisz
property float focal
property float scalex
property float scaley
property float centerx
property float centery
property int viewportx
property int viewporty
property float k1
property float k2
end_header
-0.028803378 0.032765683 0.14637843
-0.028300505 0.030372046 0.14693226
-0.027712995 0.028181827 0.14894015
-0.027349811 0.026133705 0.15085576
-0.026861636 0.024155103 0.15422402
-0.027378811 0.021430811 0.15815307
-0.031460922 0.015868641 0.16437918
-0.031912137 0.013181927 0.16587047
-0.032057673 0.010165374 0.16706626
-0.032262232 0.0069385055 0.16806132
-0.032843485 0.0033900475 0.16919765
-0.03289694 0.00016690326 0.17074834
-0.032783959 -0.0026788656 0.17146514
-0.026564054 0.033012435 0.14573821
-0.025739321 0.030528605 0.14697257
-0.025033232 0.028176062 0.14815441
-0.024644358 0.026252242 0.15026291
-0.02419506 0.024325315 0.15278049
-0.024809698 0.021235516 0.15550114
-0.025533818 0.017575305 0.16062912
-0.02755717 0.013827288 0.16372439
-0.02848763 0.010592726 0.16512795
-0.029531019 0.0073040039 0.16603392
-0.029762516 0.0038730379 0.1674419
-0.030194122 0.00040786387 0.16950408
-0.02988717 -0.0028337317 0.17126395
-0.027038991 -0.0060235872 0.16994464
-0.023562821 0.03360166 0.14571325
-0.022355989 0.031123355 0.14724511
-0.022112755 0.028864026 0.1482123
-0.021877605 0.026776589 0.1504336
-0.021763803 0.024321925 0.15225881
-0.022165598 0.021338465 0.1560919
-0.022939464 0.017542299 0.15957467
-0.023824798 0.014107728 0.16197006
-0.02482195 0.011096301 0.16363728
-0.02687907 0.0071084118 0.16528052
-0.025809631 0.0025395085 0.16764468
-0.024504649 -0.00063859229 0.16811299
-0.024424652 -0.0035120416 0.16928968
-0.023629302 -0.0055855419 0.16944963
-0.022894075 -0.0079335589 0.16980784
-0.01869294 0.034097999 0.14699884
-0.019167593 0.031861383 0.14803682
-0.019323438 0.029518807 0.14862074
-0.019565595 0.02764428 0.15117487
-0.019337365 0.024612697 0.15207149
-0.019388566 0.022068782 0.15542728
-0.020473342 0.0177899 0.15935186
-0.020734925 0.014583122 0.16073702
-0.021204893 0.011326356 0.1635215
-0.022693541 0.004419833 0.16680695
-0.022667948 0.0018965797 0.16805853
-0.022256715 -0.00020624853 0.16949499
-0.022149479 -0.002347321 0.17038287
-0.02163586 -0.0043990002 0.17043662
-0.021030758 -0.0069007538 0.17154503
-0.015513812 0.034522582 0.14802493
-0.01621685 0.032200713 0.1486377
-0.016389914 0.030066824 0.1487992
-0.016918914 0.027518723 0.15176997
-0.016916897 0.024855763 0.15311782
-0.016994489 0.022573771 0.15573046
-0.017686561 0.017917247 0.15932612
-0.018095894 0.014494464 0.1610233
-0.018451061 0.011447091 0.16401556
-0.018602349 0.0057975408 0.16854861
-0.019520616 0.0030468777 0.16970883
-0.020047182 0.00034875376 0.17124985
-0.020022692 -0.0014342063 0.17086153
-0.019267807 -0.0038306578 0.17159219
-0.018300666 -0.0058342195 0.17213657
-0.012963115 0.034511767 0.14867361
-0.013289499 0.032238048 0.14927576
-0.013781727 0.029623162 0.15044241
-0.014170583 0.027219348 0.15223628
-0.014397508 0.025042877 0.15384363
-0.014435308 0.022672441 0.15564431
-0.01489018 0.019143263 0.15923081
-0.015611605 0.014580278 0.1611191
-0.015705276 0.011277211 0.16489364
-0.016516455 0.0061024786 0.16935757
-0.018090034 0.0031670521 0.17090367
-0.018552003 0.00094592269 0.17182694
-0.018203214 -0.00090859999 0.17243208
-0.017713998 -0.0033722841 0.17200556
-0.015762236 -0.0051216171 0.1717256
-0.010442067 0.034596458 0.14870963
-0.010608134 0.032350387 0.14978628
-0.011087677 0.029288733 0.15195149
-0.011609691 0.026839197 0.15306537
-0.011548537 0.024883384 0.15429004
-0.011252303 0.022727089 0.15673359
-0.010627999 0.020025583 0.15868606
-0.012368841 0.015395054 0.16071638
-0.012055169 0.012287207 0.16540383
-0.013049087 0.0081470935 0.1700267
-0.016052924 0.0037943262 0.1713329
-0.016018858 0.0016114672 0.17257981
-0.015860986 -0.00048400601 0.17331643
-0.015444735 -0.0020991701 0.17309809
-0.013750546 -0.0043818559 0.17253573
-0.0080624586 0.034740567 0.1488378
-0.008440705 0.032247987 0.15052219
-0.0086817909 0.029245704 0.15267058
-0.0084190341 0.027057497 0.15358558
-0.0082538929 0.02498514 0.15454431
-0.0075413808 0.02243864 0.15833592
-0.0072402745 0.019441565 0.15959381
-0.0074291243 0.016831677 0.1611892
-0.0079226913 0.014025854 0.1652908
-0.0076577486 0.011845211 0.17006625
-0.012339505 0.0045826612 0.17328297
-0.013620457 0.0020969922 0.1738189
-0.013140314 0.00033400021 0.17417665
-0.012414639 -0.0013269128 0.17387544
-0.012203122 -0.0031999503 0.17426482
-0.0053477967 0.034567039 0.14869842
-0.0059361439 0.031914286 0.15147755
-0.0060668793 0.029258844 0.15304279
-0.0056417058 0.027282704 0.15451731
-0.0055392631 0.025078084 0.15624508
-0.0047469051 0.022192046 0.16012593
-0.0047860593 0.019798547 0.16099919
-0.0052438565 0.017106498 0.16244383
-0.0051263873 0.014295856 0.16617845
-0.0047652214 0.011427126 0.17120528
-0.005539339 0.0078692092 0.17322201
-0.009544475 0.0039350139 0.17527857
-0.010193005 0.00090960012 0.17463814
-0.01007607 -0.00081262196 0.17459691
-0.0067222845 -0.0051674796 0.17640147
-0.0029831384 0.034347437 0.1488705
-0.0034841364 0.031878855 0.1507125
-0.0027698118 0.029391892 0.15284446
-0.0027057379 0.027115686 0.15430503
-0.0026119323 0.02524169 0.15710783
-0.0021470396 0.022125185 0.16109286
-0.0021184634 0.019840984 0.16196091
-0.0024760533 0.017020386 0.16398694
-0.0023120092 0.014323766 0.16686998
-0.0013274687 0.010663874 0.17239942
-0.0023065028 0.0081980322 0.17368758
-0.0022888437 0.0053800438 0.17577963
-0.0039121285 0.0030153131 0.17572242
-0.0035330253 -0.00020710273 0.17660944
-0.0011225214 -0.0058524678 0.17823105
0.00015648655 0.033272326 0.14951321
0.00098680332 0.031246949 0.15073405
0.00054113747 0.028925255 0.15308996
0.0012516188 0.026807256 0.15632822
0.0016871907 0.024173059 0.15837997
0.0009509293 0.022269424 0.16057967
0.00066710525 0.020044079 0.16254129
0.00019150814 0.017107416 0.16450918
0.0001010265 0.014471505 0.16699409
0.0017518364 0.010497647 0.17208165
0.0011575278 0.0078582773 0.17358059
0.00083616382 0.0052608326 0.17524439
4.2923693e-05 0.0026062089 0.17613012
0.00065140962 -0.0010391396 0.17791922
0.00092926947 -0.0045864847 0.1784451
0.0028360402 0.03421903 0.14968087
0.0032372996 0.031867132 0.15117867
0.0036422114 0.029472131 0.15292785
0.0047597759 0.026207766 0.15629855
0.0047092345 0.024484476 0.157932
0.0040323995 0.022482026 0.15931776
0.003563219 0.020517245 0.16084024
0.0030446588 0.017082226 0.16444157
0.0025818523 0.014543843 0.16717103
0.0049660294 0.01003061 0.17163065
0.0047654584 0.0072339899 0.17308514
0.003936389 0.005395195 0.17412946
0.003932076 0.0025330752 0.17578785
0.0033092054 -0.00047635846 0.1778792
0.0038263996 -0.003653985 0.17857611
0.0056254449 0.034912962 0.14920239
0.0058669373 0.032676492 0.1510451
0.005997411 0.030352542 0.15281722
0.007064438 0.026222914 0.15613413
0.0067741931 0.024578545 0.15834853
0.0063520106 0.022844659 0.15967773
0.0065148412 0.020605506 0.16139655
0.0059070103 0.018173913 0.162883
0.0069821985 0.013115791 0.16942157
0.0072610211 0.010352007 0.17154288
0.0074044797 0.0078052906 0.17276835
0.0069873552 0.00561267 0.17476915
0.0063609332 0.0033397963 0.17676814
0.006351307 -0.00073455169 0.1786902
0.0065205321 -0.0035387953 0.17996567
0.0079493374 0.035490073 0.14952469
0.0081546959 0.033265945 0.15154986
0.0086462451 0.031103684 0.15252388
0.0094478289 0.026969925 0.15806712
0.0087177288 0.025138889 0.1598392
0.0083492557 0.023350112 0.16042389
0.0083556911 0.02122052 0.16163982
0.010400291 0.014784715 0.16790564
0.0099952752 0.012585194 0.16976663
0.0096010631 0.010183389 0.1710894
0.010187347 0.0082361056 0.17261072
0.0100811 0.0061721988 0.17494002
0.0089485832 0.0029573475 0.17821436
0.010397039 -0.0021601007 0.17975436
0.010073099 -0.0043813176 0.18059902
0.01034322 0.035979241 0.14933006
0.010643572 0.033958293 0.15055272
0.010868778 0.031605527 0.15281326
0.011471875 0.027578235 0.15884933
0.011092616 0.025277756 0.16023675
0.010834236 0.023449849 0.16079107
0.010197832 0.020824395 0.16269222
0.012286343 0.014979217 0.16783351
0.012098966 0.01277666 0.16956533
0.01214874 0.010538363 0.17068259
0.012750311 0.0085115405 0.17274386
0.012624044 0.0062950985 0.17589608
0.011842159 0.0027704344 0.17882472
0.014153627 -0.0021012947 0.17902379
0.01278368 0.036469407 0.14859797
0.01321393 0.03425971 0.14988522
0.013802024 0.030857494 0.15618859
0.014455407 0.027503297 0.16026366
0.014156555 0.025350595 0.16095027
0.014069091 0.023208912 0.16245475
0.013326265 0.020091075 0.16534445
0.014287851 0.015618016 0.16789319
0.014134697 0.013318418 0.16955471
0.014038144 0.011282222 0.17077267
0.015165255 0.0091396039 0.17310818
0.014504542 0.0065544099 0.17616774
0.014558609 0.0032930733 0.1781732
0.016019091 -0.00090546679 0.17741288
0.016609779 -0.0040964196 0.17770785
0.014994596 0.036506876 0.14818044
0.016438279 0.03356228 0.14945313
0.016596714 0.0294802 0.1576463
0.016453031 0.025586074 0.16143027
0 0 0 1 0 0 0 1 0 0 0 1 0 0 0 0 0 240 1 0 0
