ply
format ascii 1.0
comment PCL generated
element vertex 346
property float x
property float y
property float z
element camera 1
property float view_px
property float view_py
property float view_pz
property float x_axisx
property float x_axisy
property float x_axisz
property float y_axisx
property float y_axisy
property float y_axisz
property float z_axisx
property float z_axisy
property float z_axisz
property float focal
property float scalex
property float scaley
property float centerx
property float centery
property int viewportx
property int viewporty
property float k1
property float k2
end_header
-0.057678215 0.02288352 0.18941718
-0.057867754 0.019987656 0.19123347
-0.054662276 0.028650662 0.18449584
-0.055373251 0.026337469 0.18594459
-0.055661123 0.023308815 0.18758099
-0.055880968 0.019834947 0.18988118
-0.056231961 0.01592239 0.19201532
-0.056224868 0.01198972 0.19401592
-0.055876549 0.0089927642 0.19572222
-0.051141899 0.031578783 0.18126549
-0.051749036 0.029693127 0.18253821
-0.052408345 0.026762864 0.18384367
-0.052571259 0.023674833 0.18530302
-0.052829422 0.020188984 0.18779932
-0.053435691 0.01573834 0.19011223
-0.053703103 0.011403259 0.19250818
-0.053932592 0.0076425425 0.19554961
-0.053480852 0.0038026017 0.19718744
-0.047644056 0.034150213 0.17840485
-0.048254024 0.032443959 0.17949435
-0.048564758 0.030036462 0.18094282
-0.04888241 0.027011562 0.18247126
-0.049654119 0.024064615 0.18474567
-0.050489701 0.019615486 0.18710403
-0.051144455 0.015613089 0.18921836
-0.051084679 0.010588919 0.19199218
-0.051089067 0.006796686 0.19483154
-0.05033854 0.0011216364 0.19621515
-0.050382573 -0.0032482909 0.19787391
-0.050479304 -0.0067902775 0.19909908
-0.045519274 0.034823623 0.17738689
-0.045298271 0.032548815 0.17852001
-0.045379326 0.029938437 0.18039007
-0.046039782 0.026961025 0.18295212
-0.046955377 0.023819493 0.18499626
-0.047793735 0.019511275 0.18676065
-0.04854545 0.015078266 0.18875304
-0.048711631 0.010249561 0.19106415
-0.048004221 0.003970942 0.19363214
-0.047351342 -0.00091085274 0.19445901
-0.04734426 -0.004665182 0.19606882
-0.047690604 -0.0090462146 0.19760233
-0.048017368 -0.011706016 0.20001768
-0.050751816 -0.0113974 0.20436278
-0.050738178 -0.012059656 0.20875892
-0.043046512 0.03803568 0.17594323
-0.04284608 0.035840396 0.17704158
-0.04249081 0.033414345 0.17851983
-0.042471562 0.030803667 0.1805093
-0.043062773 0.027196515 0.18333369
-0.04381071 0.023719978 0.18541768
-0.044630401 0.019403014 0.18644373
-0.045251321 0.014688157 0.18785793
-0.045914654 0.0088952249 0.1906759
-0.044797327 0.0025530146 0.19231713
-0.044350971 -0.0022839787 0.19237567
-0.043868698 -0.006074992 0.1931714
-0.042650022 -0.0092671551 0.19630809
-0.046318468 -0.010588544 0.20088679
-0.048051402 -0.011073412 0.2050046
-0.048518032 -0.012303454 0.20873106
-0.048628528 -0.013739482 0.21238413
-0.049149606 -0.015015592 0.21774209
-0.040519666 0.039330676 0.1761045
-0.040027086 0.036797315 0.17770252
-0.039591596 0.034386959 0.17904462
-0.039385073 0.03158493 0.18102165
-0.039573602 0.028343007 0.18349028
-0.040251352 0.0243895 0.18565193
-0.041286103 0.019380188 0.18694822
-0.042183716 0.013671321 0.18778579
-0.042595796 0.0074292272 0.19029163
-0.041060887 0.0016688645 0.19119596
-0.040353585 -0.0032259936 0.19129123
-0.039314732 -0.0061468347 0.19396986
-0.039953746 -0.0078770444 0.19811299
-0.042528395 -0.010122089 0.20169847
-0.044628832 -0.01060903 0.20598462
-0.044991534 -0.011764135 0.20984153
-0.045178711 -0.013626578 0.21285689
-0.04625608 -0.015574152 0.2177624
-0.046453193 -0.018892087 0.22257711
-0.045701645 -0.022319622 0.22529179
-0.03813608 0.042938203 0.17554554
-0.037859213 0.04118634 0.17655677
-0.037141941 0.038806237 0.1781058
-0.036384236 0.035425518 0.17952812
-0.036411177 0.032077976 0.18162724
-0.036436893 0.028893011 0.1838616
-0.037003007 0.024659708 0.18576516
-0.037801959 0.018884951 0.18774357
-0.03898285 0.01200728 0.18912894
-0.039266665 0.0056633237 0.19043252
-0.037797656 0.0006235991 0.19088235
-0.036723614 -0.0025353795 0.19292095
-0.036426019 -0.0044166679 0.19680046
-0.037362747 -0.0065518543 0.2001113
-0.039227627 -0.0089830291 0.20332789
-0.041155785 -0.010379579 0.20679283
-0.041645017 -0.01171302 0.21064292
-0.042065695 -0.013906705 0.21353874
-0.042984374 -0.015809519 0.21706425
-0.042608585 -0.018410729 0.22069956
-0.043030754 -0.022439821 0.22495526
-0.03472019 0.044715077 0.17509294
-0.034206323 0.04318684 0.17661834
-0.033848822 0.040629454 0.17864524
-0.033425245 0.037333351 0.17976721
-0.033349954 0.033106055 0.18183284
-0.03340685 0.029321311 0.18452799
-0.034050025 0.024131689 0.18640517
-0.034771845 0.018759409 0.18849535
-0.035622314 0.012399785 0.19051935
-0.03660398 0.0054014591 0.1911846
-0.03492799 0.0015110578 0.19251722
-0.033933867 -0.0010741827 0.19502959
-0.033715945 -0.0031359594 0.19798601
-0.034497656 -0.0052887951 0.2017505
-0.036115002 -0.0078119393 0.20559432
-0.037569378 -0.0098503986 0.2085256
-0.038544431 -0.011478676 0.21212451
-0.039156817 -0.013556885 0.21489973
-0.039358798 -0.015946962 0.21738273
-0.038813327 -0.018651988 0.21992354
-0.038985398 -0.021699458 0.22383471
-0.03892364 -0.024648689 0.2263276
-0.030914808 0.045367375 0.17726697
-0.030782085 0.043508139 0.17756668
-0.030737625 0.04103614 0.17906649
-0.030483626 0.037950955 0.18066566
-0.030363973 0.034484062 0.18231365
-0.030656394 0.029964345 0.18476668
-0.03144069 0.023631509 0.18741657
-0.031827848 0.01917995 0.18909149
-0.032818578 0.012901382 0.19136117
-0.034130242 0.0066249892 0.19222899
-0.032388095 0.0037355954 0.19434659
-0.03124027 0.00070927507 0.19684218
-0.031120539 -0.0012835283 0.19959281
-0.031893872 -0.0038857379 0.20298362
-0.033162694 -0.0065779462 0.20732287
-0.034732133 -0.0087067168 0.21072312
-0.035854816 -0.010716375 0.2138299
-0.036200091 -0.012893106 0.21644236
-0.036323249 -0.015360186 0.2187131
-0.036039893 -0.017719008 0.22107221
-0.035227843 -0.020686103 0.22322784
-0.035504758 -0.024023445 0.22651069
-0.028129889 0.046034224 0.17738307
-0.027857505 0.044143111 0.17797574
-0.027555481 0.041300777 0.17943706
-0.027486823 0.038335808 0.18129458
-0.027426718 0.035225034 0.18283896
-0.027958218 0.03032054 0.18544149
-0.028745271 0.023755521 0.18857259
-0.029165722 0.019772062 0.19000578
-0.029906932 0.014355185 0.19253314
-0.031092966 0.0086231194 0.19344649
-0.029610194 0.0067139412 0.19534795
-0.028261449 0.0039557694 0.19727287
-0.027584486 0.00083720789 0.19975404
-0.028181329 -0.00090519147 0.20196946
-0.030447261 -0.0056395861 0.20906225
-0.031623542 -0.0073460755 0.21231441
-0.033627074 -0.0094564585 0.21542197
-0.033235461 -0.011563241 0.21797915
-0.03306165 -0.014030874 0.22046867
-0.032871723 -0.016506445 0.22274953
-0.032499805 -0.019732723 0.22423624
-0.032974489 -0.022767967 0.22583646
-0.034667712 -0.024802374 0.22799243
-0.024762755 0.045964852 0.17808244
-0.024702501 0.044122625 0.17896242
-0.024523932 0.041430518 0.18017039
-0.02448391 0.038362268 0.18158646
-0.024649054 0.035324752 0.18352392
-0.02520016 0.03103588 0.18623681
-0.025913941 0.024157234 0.19028276
-0.026377903 0.020237561 0.19219077
-0.026719643 0.016963955 0.19477086
-0.027356276 0.013232247 0.19542488
-0.026522717 0.010258781 0.19667076
-0.025532831 0.0066471337 0.19822089
-0.024190983 0.0031512193 0.20048402
-0.023985205 0.00012131998 0.2043045
-0.026002547 -0.002915707 0.20925033
-0.027966652 -0.0057912003 0.21331693
-0.029199036 -0.0084760208 0.21696021
-0.029532146 -0.01078596 0.22037213
-0.029740246 -0.013933667 0.22215351
-0.030199515 -0.017427061 0.22457802
-0.030255338 -0.020380214 0.2257341
-0.030935919 -0.023106366 0.22717117
-0.031814892 -0.026449148 0.23002784
-0.021347821 0.044837084 0.17941202
-0.021287588 0.043156985 0.18065855
-0.021318996 0.040386874 0.18182656
-0.021558117 0.037596826 0.18274596
-0.022075154 0.034928527 0.18479669
-0.022569625 0.030671662 0.1882752
-0.022835718 0.025104333 0.19238909
-0.02292484 0.021127803 0.19517107
-0.023758573 0.01897609 0.19756569
-0.023555847 0.017029364 0.19870462
-0.023251109 0.013349223 0.19963056
-0.022493074 0.0098647671 0.20059228
-0.021465197 0.0056594894 0.20281719
-0.021496141 0.0015194742 0.20761095
-0.02264134 -0.0016472575 0.21083944
-0.023512291 -0.0046664458 0.21440679
-0.024209209 -0.0072308425 0.21771364
-0.025282569 -0.010322982 0.22162852
-0.025850875 -0.013815835 0.22339554
-0.026605392 -0.01732951 0.2261674
-0.027047882 -0.019927923 0.22742233
-0.02747874 -0.023117417 0.22853637
-0.028107699 -0.026856983 0.23156244
-0.018474564 0.042462539 0.1819832
-0.018548459 0.040086906 0.18369196
-0.018637182 0.037287369 0.18453389
-0.018681539 0.034444544 0.18626113
-0.01873841 0.031090144 0.18923171
-0.018639324 0.026647633 0.19356988
-0.019042721 0.022719158 0.19659086
-0.020412147 0.019978404 0.19847471
-0.019911392 0.01761377 0.20069425
-0.019891119 0.014537564 0.20193037
-0.019672368 0.011060545 0.20310551
-0.019126473 0.0068448107 0.20600784
-0.019119697 0.0028664789 0.20975704
-0.019804208 -0.00043847077 0.21301416
-0.020484924 -0.0035010332 0.21660902
-0.021274833 -0.0065518464 0.22028591
-0.022189375 -0.010005028 0.2229038
-0.022738582 -0.013459172 0.22430713
-0.023507839 -0.017137127 0.22713993
-0.023537742 -0.019860838 0.22775689
-0.023909215 -0.023284553 0.22838323
-0.024501447 -0.027505744 0.23295087
-0.015314757 0.039923877 0.18517496
-0.01513897 0.03741068 0.18613379
-0.015204439 0.034139119 0.18762751
-0.015681988 0.030472698 0.19035403
-0.014591872 0.026764015 0.19388434
-0.015542028 0.02358702 0.19761051
-0.016702784 0.020380475 0.19946612
-0.016697885 0.017538378 0.2019351
-0.016547404 0.014831356 0.20329718
-0.016291885 0.011525908 0.20536269
-0.016510218 0.0078454679 0.20851544
-0.016319955 0.0041420218 0.21210484
-0.016917644 0.00066907523 0.21497884
-0.017373117 -0.002791224 0.21922117
-0.018143732 -0.0061396873 0.22284727
-0.018832987 -0.0098527847 0.22479786
-0.019404633 -0.013541065 0.22602275
-0.019921174 -0.017181931 0.22798049
-0.020032046 -0.020761419 0.22855122
-0.020724365 -0.024395367 0.23044501
-0.021057453 -0.027847808 0.2352833
-0.012187422 0.037239097 0.18746068
-0.01200236 0.033926327 0.18892545
-0.012091549 0.030436022 0.19124889
-0.010868432 0.026904438 0.19407013
-0.011782289 0.023803245 0.19807041
-0.013122434 0.021134144 0.20020576
-0.013373801 0.017696107 0.2027251
-0.013123331 0.014737959 0.20509364
-0.013280957 0.011689186 0.20791683
-0.013559069 0.0089292414 0.21078172
-0.013646461 0.0055469992 0.21399967
-0.013900744 0.0018065802 0.21736164
-0.014303545 -0.0022243829 0.22126392
-0.014876308 -0.0057785651 0.2245405
-0.01530056 -0.0096294051 0.22622347
-0.016057773 -0.013329101 0.22756787
-0.016321948 -0.016977828 0.22932918
-0.016529894 -0.020669086 0.23058586
-0.016806366 -0.024900973 0.23392248
-0.016704516 -0.027983684 0.23870476
-0.009275144 0.033377293 0.18987183
-0.0080986824 0.030391311 0.19224001
-0.0076014493 0.027165947 0.19551057
-0.0077700666 0.024121933 0.19871651
-0.0090055168 0.021509163 0.2012932
-0.0099666854 0.018321607 0.20374897
-0.010135371 0.015249272 0.20650107
-0.010349046 0.012532338 0.20948063
-0.010345378 0.0099379634 0.21210337
-0.010811631 0.0068347617 0.21526723
-0.01044608 0.0027935973 0.21863835
-0.010764076 -0.0011186792 0.22214971
-0.01160728 -0.0045380495 0.22490695
-0.011701807 -0.0083940281 0.22696036
-0.012168047 -0.012550388 0.22778989
-0.012511384 -0.016574275 0.23085465
-0.01276582 -0.02064437 0.23263776
-0.012339157 -0.024956135 0.23682582
-0.0048935302 0.029684084 0.19488046
-0.0040417193 0.026852436 0.19741991
-0.0038381417 0.024046244 0.19958812
-0.004885593 0.021356467 0.20220201
-0.0060296003 0.018734423 0.20444067
-0.0068017393 0.015830904 0.20746252
-0.0073123449 0.013552434 0.21080634
-0.0073492546 0.010937851 0.21338448
-0.0074121463 0.0075131087 0.21666335
-0.0068307873 0.0034983887 0.21969205
-0.0071457489 -0.00082033966 0.22337335
-0.0075429436 -0.0044750893 0.22440107
-0.0078455135 -0.0081885569 0.22686251
-0.0081084995 -0.011995653 0.22829981
-0.0085925655 -0.01606917 0.23179747
-0.0095310993 -0.020453814 0.23346238
-0.0096687861 -0.023719629 0.23594426
-0.0016879037 0.028600404 0.19705257
-0.00026587117 0.026556423 0.19821519
-0.00017388546 0.023605978 0.20014247
-0.0011176233 0.021199368 0.20262131
-0.0021277193 0.018776372 0.20522033
-0.0023640536 0.016403161 0.20786834
-0.0032478641 0.01409973 0.21105076
-0.0033129745 0.0113299 0.21474612
-0.0029659376 0.0076933466 0.21750978
-0.0027938504 0.0040318463 0.2197513
-0.0033408361 -0.00036236286 0.22361074
-0.0037710308 -0.0041726292 0.22446713
-0.003862696 -0.0079967193 0.22606131
-0.0047830925 -0.01159847 0.22767726
0.002526256 0.025470791 0.19908887
0.0028091811 0.02344037 0.20062548
0.0020861253 0.021133877 0.20263518
0.0016698489 0.019064818 0.20529562
0.0017386919 0.016575767 0.20809726
0.0015290419 0.014121927 0.21132025
0.0014991269 0.011388743 0.21436548
0.00089863449 0.0079593593 0.21735996
0.00061881274 0.0041745673 0.21948265
-5.4206423e-05 0.00011877549 0.22239625
-0.0011390521 -0.0039008565 0.22469079
0.0053797271 0.023280408 0.20146731
0.0052118958 0.021256452 0.20281532
0.005055876 0.018980859 0.20518413
0.0047327732 0.016575191 0.2082518
0.0042881938 0.01415458 0.21147397
0.0040396824 0.012344323 0.21357653
0 0 0 1 0 0 0 1 0 0 0 1 0 0 0 0 0 346 1 0 0
