ply
format ascii 1.0
comment PCL generated
element vertex 346
property float x
property float y
property float z
element camera 1
property float view_px
property float view_py
property float view_pz
property float x_axisx
property float x_axisy
property float x_axisz
property float y_axisx
property float y_axisy
property float y_axisz
property float z_axisx
property float z_axisy
property float z_axisz
property float focal
property float scalex
property float scaley
property float centerx
property float centery
property int viewportx
property int viewporty
property float k1
property float k2
end_header
-0.057379305 0.021998603 0.18902129
-0.057712805 0.019129219 0.19081225
-0.054326691 0.027525406 0.18394308
-0.055035066 0.025373632 0.18551111
-0.055371486 0.022377584 0.18721737
-0.05568267 0.018955469 0.18949394
-0.056200456 0.015113617 0.19171335
-0.056242932 0.011400513 0.1941496
-0.055900902 0.0086470088 0.19639869
-0.051005684 0.030556226 0.18095747
-0.051573042 0.028495802 0.18191577
-0.052201852 0.025554063 0.1830596
-0.052354086 0.022556899 0.1846451
-0.052596286 0.019223362 0.18736766
-0.053226724 0.014981214 0.19010404
-0.053553574 0.010850304 0.19308332
-0.053895772 0.0074633271 0.19666424
-0.053315248 0.0035059911 0.19874069
-0.047451194 0.033727378 0.17889516
-0.048124079 0.031797286 0.17956059
-0.048444834 0.029107764 0.18047439
-0.048758134 0.02571464 0.18146865
-0.049527839 0.022734199 0.18387137
-0.050304022 0.018527629 0.18660261
-0.050871037 0.014864946 0.18942806
-0.050807018 0.01032315 0.193103
-0.050919209 0.0067625809 0.19647561
-0.049855083 0.00045500867 0.19803017
-0.049684096 -0.0042768251 0.19954713
-0.049586136 -0.0078540221 0.20060138
-0.045307953 0.03451227 0.17810445
-0.045136038 0.032250021 0.17908667
-0.045295198 0.029315472 0.18026638
-0.045894995 0.025717428 0.18208924
-0.046841852 0.022573277 0.18437883
-0.047687724 0.018326825 0.18622059
-0.048258446 0.014314709 0.18890929
-0.048323233 0.010017053 0.1925506
-0.047543656 0.0035906183 0.19575183
-0.046736892 -0.0017853566 0.19623582
-0.046613436 -0.0056907828 0.1977147
-0.046827856 -0.010142589 0.19901346
-0.047075123 -0.012803533 0.20092078
-0.049960788 -0.011935146 0.20493385
-0.050212014 -0.011838173 0.20947723
-0.042655263 0.037500106 0.17647962
-0.04259339 0.035429217 0.17778149
-0.042345751 0.033228293 0.17932104
-0.042403467 0.030473074 0.18101443
-0.042961173 0.026135329 0.18289588
-0.043755289 0.022637527 0.18512249
-0.044548936 0.018213905 0.18604434
-0.045075618 0.013710653 0.18796094
-0.045496926 0.0086093275 0.19257094
-0.044335883 0.0017591388 0.19445829
-0.043743208 -0.0032030747 0.19424365
-0.04317395 -0.0070072403 0.19484554
-0.041822955 -0.010318167 0.19737862
-0.045397762 -0.011731393 0.2016246
-0.047348741 -0.011663784 0.20550966
-0.048146803 -0.012164779 0.20939997
-0.048499074 -0.012872066 0.2132905
-0.049198054 -0.012541308 0.21910265
-0.040107645 0.038669247 0.17647566
-0.03975511 0.036391709 0.17837706
-0.039398141 0.034151286 0.17982723
-0.039309263 0.031321518 0.18160062
-0.039575286 0.027856868 0.18369678
-0.040278934 0.023620045 0.18552467
-0.0411851 0.018283447 0.18634869
-0.042080522 0.012637471 0.1880964
-0.042353105 0.0069751758 0.1923615
-0.040810958 0.00086333696 0.19330357
-0.039990578 -0.0038963291 0.19310805
-0.038780242 -0.0067964089 0.19533886
-0.039249495 -0.0088002766 0.19911452
-0.041696444 -0.011321692 0.20246714
-0.043984994 -0.011289831 0.20662726
-0.044616092 -0.011788512 0.21060643
-0.0451001 -0.012957508 0.21391943
-0.046402253 -0.013176187 0.21937506
-0.047270808 -0.016625263 0.22417019
-0.046935931 -0.020208118 0.22708769
-0.037594378 0.041919079 0.17524429
-0.037354223 0.04030316 0.17639627
-0.0367046 0.038219631 0.17824893
-0.036291078 0.035297237 0.18034892
-0.036398336 0.031902678 0.18234672
-0.036520544 0.028593341 0.18447296
-0.03715406 0.024228232 0.18621811
-0.037729006 0.018014053 0.18728395
-0.038859591 0.01113752 0.18968399
-0.03924951 0.0050132074 0.19240586
-0.037810646 -1.5163204e-05 0.19274786
-0.036667731 -0.0029077036 0.19450848
-0.036128268 -0.0048709777 0.1980731
-0.036834437 -0.0072868913 0.20112045
-0.038551528 -0.010104476 0.20415767
-0.040575754 -0.011263468 0.20752987
-0.041327376 -0.012011766 0.21150245
-0.042142935 -0.013479751 0.21474433
-0.043294128 -0.014086434 0.2186899
-0.043418385 -0.016578183 0.22259836
-0.044334803 -0.020466665 0.22669008
-0.034193866 0.043739486 0.17450161
-0.033762876 0.042465389 0.17624475
-0.033520728 0.040174928 0.17865103
-0.033227645 0.037113719 0.18024962
-0.033426717 0.033034068 0.18284544
-0.033635624 0.029183639 0.18558083
-0.034323212 0.023858376 0.18749918
-0.034819558 0.018185377 0.18859224
-0.0354288 0.011757546 0.1907033
-0.036800772 0.0047634151 0.19277644
-0.035230294 0.0010466017 0.19406602
-0.03404342 -0.0012480034 0.1966145
-0.033649758 -0.0032998784 0.19931513
-0.034158818 -0.0058724605 0.2027543
-0.035504095 -0.0090194587 0.20631255
-0.037050243 -0.011099243 0.20917344
-0.038223404 -0.012221877 0.2128956
-0.039182775 -0.01363142 0.21594664
-0.039957687 -0.015182344 0.21898697
-0.039888673 -0.017477414 0.22198196
-0.040412478 -0.020141611 0.22592525
-0.040591184 -0.02282992 0.22818185
-0.030666193 0.044912517 0.17726056
-0.030533621 0.043105006 0.17765227
-0.030501358 0.040704601 0.17930302
-0.030357083 0.037827011 0.18118195
-0.030434847 0.034454592 0.18327175
-0.030895554 0.029912714 0.18599226
-0.031728409 0.023419026 0.18867223
-0.031910162 0.018747041 0.18954259
-0.032626599 0.012351571 0.19142351
-0.034385592 0.005962065 0.19323058
-0.032770518 0.003429831 0.19545068
-0.031556383 0.00076073763 0.1983733
-0.031430263 -0.0012577493 0.20083855
-0.031770132 -0.0043819798 0.20381188
-0.032560993 -0.0079424419 0.20787051
-0.034172673 -0.010137025 0.21118389
-0.035360392 -0.011869208 0.2143874
-0.036228973 -0.013412799 0.21724825
-0.036906876 -0.015018755 0.22033754
-0.037183259 -0.016847389 0.22315022
-0.03676758 -0.019476188 0.22564839
-0.037162453 -0.022675289 0.22869577
-0.027910482 0.045628812 0.17738453
-0.027668821 0.043813948 0.17813405
-0.027422236 0.041128792 0.17981414
-0.027428363 0.038236097 0.18185703
-0.027426058 0.035160825 0.18350092
-0.028093064 0.030220591 0.18648306
-0.028890213 0.023449747 0.18970616
-0.029159976 0.019299164 0.19048801
-0.029485585 0.01388922 0.19226407
-0.031153398 0.0081135472 0.19363193
-0.029993908 0.0064894352 0.19572343
-0.029025786 0.0042015114 0.19832467
-0.028556993 0.0013831633 0.20119332
-0.028713891 -0.00073721405 0.20299351
-0.029785931 -0.0070307711 0.20932826
-0.030935042 -0.0088713551 0.21271276
-0.033040695 -0.010740547 0.21588454
-0.033046965 -0.012270637 0.21880978
-0.033712007 -0.014059711 0.22187053
-0.03406046 -0.015966726 0.22434825
-0.034053281 -0.019113241 0.22628982
-0.034475975 -0.021895437 0.2275244
-0.035797514 -0.023849998 0.22956476
-0.024617435 0.045691367 0.17817312
-0.024608878 0.043946091 0.17922322
-0.024532117 0.041399077 0.18063739
-0.024487931 0.038318269 0.18202674
-0.024607919 0.035186429 0.18390359
-0.02516152 0.030786231 0.18681037
-0.02575808 0.023642614 0.19095509
-0.025960432 0.019519748 0.19227496
-0.025795044 0.015897948 0.19388211
-0.026809748 0.012219728 0.19418852
-0.026650678 0.0098324725 0.19633497
-0.026218709 0.0068151462 0.19887391
-0.025417788 0.0038404914 0.20199865
-0.024793098 0.00075452059 0.20533146
-0.025816485 -0.0033879334 0.20909292
-0.027533114 -0.0067064427 0.21313147
-0.028892433 -0.0097308569 0.21703711
-0.029866634 -0.01201578 0.22069034
-0.030687589 -0.01461547 0.2229151
-0.03160473 -0.017473299 0.22561093
-0.031739451 -0.020042615 0.22671744
-0.032158479 -0.022347286 0.22822659
-0.032596499 -0.025393441 0.23120825
-0.021365821 0.044724815 0.17964928
-0.021272538 0.042996716 0.18077822
-0.02127347 0.040191032 0.18175204
-0.02149233 0.037385799 0.18258414
-0.021934407 0.034624375 0.1845782
-0.022347907 0.030044854 0.18792388
-0.022192676 0.024140442 0.19205539
-0.021749206 0.019795155 0.19407444
-0.022515057 0.017701026 0.19548035
-0.022768904 0.016085414 0.19647017
-0.023179805 0.0128706 0.19837978
-0.023053551 0.0098531609 0.20039837
-0.022557342 0.0062668547 0.20356727
-0.022209713 0.0022286074 0.2080113
-0.02302335 -0.0014251942 0.21071838
-0.023534868 -0.0047367448 0.21393877
-0.024125952 -0.0073891357 0.21651827
-0.025373591 -0.011277667 0.22039704
-0.02650702 -0.014715668 0.223124
-0.027615758 -0.017680613 0.22637217
-0.02801987 -0.019783497 0.22761896
-0.028282696 -0.02271915 0.22884771
-0.028487641 -0.026143186 0.23195474
-0.018368265 0.042098124 0.18164372
-0.018389015 0.039639365 0.18325378
-0.018504145 0.036835536 0.18405183
-0.018618707 0.033985905 0.18582104
-0.018765043 0.030475724 0.18866554
-0.018479249 0.025666133 0.19259858
-0.01857451 0.021500686 0.195068
-0.019753827 0.018592296 0.19630805
-0.019808885 0.016874073 0.19892742
-0.020022027 0.014225625 0.20067556
-0.020172266 0.0111733 0.20261087
-0.019982139 0.0074841678 0.20622537
-0.019882454 0.0036342065 0.20999075
-0.020378534 3.356826e-05 0.21315129
-0.020645751 -0.0033370047 0.21612976
-0.021355672 -0.0066440692 0.21900478
-0.022118539 -0.010542449 0.22142521
-0.022894282 -0.013883214 0.22369386
-0.023968415 -0.017262302 0.22696041
-0.024187129 -0.019926459 0.22734563
-0.024560787 -0.023227658 0.22797267
-0.024488121 -0.027137617 0.23260759
-0.015145415 0.039339267 0.18464832
-0.015035432 0.036850497 0.18572062
-0.015231289 0.033634327 0.18737647
-0.015743313 0.029797828 0.18983983
-0.014599178 0.026233722 0.19349113
-0.015656156 0.022770854 0.19654658
-0.016913217 0.019431485 0.19813266
-0.017104292 0.016993603 0.20075822
-0.017022075 0.014663978 0.2023851
-0.017004129 0.011784002 0.20481697
-0.017262146 0.0084432354 0.20846744
-0.017008329 0.0049281023 0.21218906
-0.017594749 0.0014668223 0.21512295
-0.017754057 -0.002490585 0.21865906
-0.018335802 -0.0062904698 0.22168155
-0.018726639 -0.010140207 0.22329158
-0.019361353 -0.013671889 0.22500978
-0.019862276 -0.017094744 0.22710019
-0.020189192 -0.020792402 0.22726169
-0.020847481 -0.024407029 0.22929861
-0.020435803 -0.027760107 0.234245
-0.012079102 0.036618464 0.18705128
-0.012066973 0.033465307 0.18883532
-0.012218738 0.029991375 0.19112295
-0.010927563 0.026777867 0.19432898
-0.011999093 0.023366561 0.19767825
-0.013599824 0.020540578 0.19942164
-0.014128766 0.01743125 0.20222932
-0.013977502 0.014837977 0.20468779
-0.01393159 0.011838517 0.20735626
-0.014033386 0.0091493782 0.21013947
-0.014100478 0.0062168692 0.21364956
-0.014508003 0.0027377624 0.21742408
-0.014691549 -0.0018662617 0.22062084
-0.015072223 -0.0057905647 0.22335234
-0.015271311 -0.0097716823 0.22474453
-0.015918022 -0.013386433 0.2258307
-0.016007341 -0.016903013 0.2272722
-0.016214607 -0.020648303 0.22846502
-0.01619192 -0.024921704 0.23201664
-0.015491284 -0.028063549 0.23699704
-0.0094341738 0.033170555 0.19030955
-0.0083289798 0.030483961 0.19308436
-0.0078141186 0.027194681 0.19615068
-0.0081946515 0.023928396 0.19888997
-0.0097087128 0.021195455 0.20112386
-0.010849027 0.018264165 0.20362632
-0.010763006 0.015082574 0.20580195
-0.0106077 0.012164238 0.20824489
-0.010493826 0.0097164856 0.21078531
-0.010893563 0.0070374245 0.21441844
-0.010699006 0.0032179186 0.2182271
-0.010887207 -0.00094032357 0.22151282
-0.011522787 -0.0045373663 0.22369513
-0.011442859 -0.0085590808 0.22528704
-0.011969287 -0.012606977 0.2252633
-0.012022991 -0.016499732 0.22788225
-0.012161201 -0.020580893 0.23006922
-0.011349726 -0.024951339 0.2346053
-0.0052493946 0.029825483 0.1960032
-0.004429617 0.02674146 0.19808497
-0.0043963459 0.023633525 0.19962519
-0.0056593791 0.020886717 0.20195878
-0.00693043 0.018440718 0.20414221
-0.0072430423 0.01522246 0.20607843
-0.0073008598 0.012699849 0.20884685
-0.0071716374 0.010264694 0.21144815
-0.0072806207 0.007348211 0.21518929
-0.00696084 0.0035014574 0.21886815
-0.0072098733 -0.00083179405 0.22249635
-0.0075380644 -0.0044500534 0.22325976
-0.0077869482 -0.0082391175 0.22543786
-0.0079255002 -0.0119922 0.22606951
-0.0079907011 -0.016003499 0.22828229
-0.0088314572 -0.020316828 0.23061396
-0.0087582693 -0.023652362 0.23356508
-0.0020836894 0.028488431 0.19791105
-0.00075492362 0.026043572 0.19832613
-0.00079941738 0.022796599 0.19947569
-0.0018398807 0.02029012 0.20171797
-0.0028483274 0.017940598 0.20418343
-0.002826151 0.015539519 0.20638491
-0.0032334672 0.012848301 0.20867333
-0.0031654655 0.010190518 0.21235418
-0.0031202007 0.007040421 0.21579844
-0.0029849755 0.0036472294 0.21854158
-0.0034266438 -0.00051967317 0.22255997
-0.0038372457 -0.00424563 0.22341505
-0.0039029296 -0.0080449563 0.22504176
-0.0047483989 -0.011627639 0.22635697
0.0018973817 0.024623044 0.19844836
0.00208355 0.022383824 0.19955063
0.0013802628 0.020121772 0.20140529
0.0010393761 0.018170936 0.20393856
0.0012126223 0.015840583 0.20667744
0.0012072945 0.013424977 0.2096785
0.0012228531 0.010325898 0.21235663
0.00064330886 0.0071150688 0.21558844
0.00033096509 0.0035440857 0.21810248
-0.00018943484 -0.00025727332 0.22126618
-0.0012041735 -0.0039137527 0.22361
0.004698839 0.022168957 0.20015852
0.0044959686 0.020191465 0.20140891
0.0044445442 0.018048776 0.20371696
0.0042679608 0.015826525 0.20673758
0.0039327177 0.013514012 0.20982274
0.0037661567 0.011389883 0.21158163
0 0 0 1 0 0 0 1 0 0 0 1 0 0 0 0 0 346 1 0 0
