ply
format ascii 1.0
comment PCL generated
element vertex 346
property float x
property float y
property float z
element camera 1
property float view_px
property float view_py
property float view_pz
property float x_axisx
property float x_axisy
property float x_axisz
property float y_axisx
property float y_axisy
property float y_axisz
property float z_axisx
property float z_axisy
property float z_axisz
property float focal
property float scalex
property float scaley
property float centerx
property float centery
property int viewportx
property int viewporty
property float k1
property float k2
end_header
-0.057279039 0.018839108 0.18869735
-0.057388667 0.015830126 0.19040304
-0.054558076 0.024768565 0.1838365
-0.055164248 0.02253611 0.18542126
-0.055365063 0.019359507 0.18713424
-0.055406291 0.015939962 0.18919288
-0.055613901 0.012255732 0.19124329
-0.05520837 0.0085008563 0.1933924
-0.054372985 0.005079112 0.19548538
-0.051876396 0.028282469 0.18193786
-0.05214465 0.026057642 0.18231997
-0.052238222 0.023207679 0.1832661
-0.052192274 0.02022431 0.1848468
-0.052240059 0.01683696 0.18718928
-0.05287315 0.012337202 0.18961848
-0.052884229 0.0080530345 0.19210088
-0.052482098 0.0039864662 0.19547024
-0.05082161 -5.8016398e-05 0.19760822
-0.048530683 0.031835955 0.18049684
-0.049126089 0.029947493 0.18079056
-0.049284853 0.027202088 0.18119158
-0.049121592 0.023948671 0.18221259
-0.04961738 0.020834723 0.18440747
-0.050051834 0.016393941 0.18684487
-0.050677981 0.01235135 0.18894722
-0.050286271 0.0073846066 0.19154565
-0.049575526 0.0033210549 0.19444384
-0.046873923 -0.0031721045 0.19524723
-0.046457622 -0.008481022 0.19490565
-0.046711437 -0.011726587 0.19510826
-0.046708759 0.032934271 0.17982861
-0.046405356 0.030708205 0.18023981
-0.046304341 0.02764146 0.18084176
-0.046720788 0.024129171 0.18259783
-0.047163956 0.020647814 0.1844916
-0.047564346 0.016217152 0.18609601
-0.048183393 0.011787109 0.18835124
-0.048025485 0.0069764121 0.19064823
-0.045548011 2.6096577e-06 0.19282207
-0.044216812 -0.005702998 0.19141491
-0.044179678 -0.0097254934 0.19153054
-0.044653457 -0.013903985 0.19303007
-0.045351762 -0.015951782 0.19511761
-0.047748439 -0.01418658 0.19986218
-0.047877792 -0.012661858 0.20508716
-0.044613689 0.036479007 0.17832212
-0.044302907 0.034362141 0.17920107
-0.043782737 0.032137476 0.18012489
-0.043501437 0.029059201 0.18117577
-0.043931272 0.024492133 0.18256538
-0.044036601 0.020505898 0.18398125
-0.044586927 0.015935535 0.18510258
-0.045151036 0.011058725 0.18721493
-0.044988941 0.0050413581 0.18996935
-0.042341877 -0.0021948204 0.19006589
-0.041781034 -0.0071112229 0.18793242
-0.041375212 -0.01088421 0.18771608
-0.039975062 -0.014656505 0.1909717
-0.043630265 -0.015032265 0.19585449
-0.045401841 -0.013756844 0.20057295
-0.046019536 -0.013181861 0.20515211
-0.046103328 -0.013261361 0.20947929
-0.045771807 -0.012849202 0.21518983
-0.042168941 0.037855189 0.17776193
-0.041333444 0.035472289 0.17918964
-0.040742427 0.033171073 0.18016623
-0.040431529 0.030390572 0.18117805
-0.040589124 0.026596207 0.18242167
-0.040491093 0.020815333 0.18313061
-0.0415456 0.01557499 0.18447199
-0.042896211 0.0097423699 0.18685661
-0.041786887 0.0027931815 0.18854667
-0.039197769 -0.0036516613 0.18709889
-0.038364854 -0.0083984761 0.18605381
-0.036753308 -0.01186722 0.18815732
-0.037006915 -0.013456708 0.19256459
-0.039921105 -0.014850072 0.19728737
-0.042007636 -0.013616218 0.20188554
-0.042415299 -0.013400557 0.2061881
-0.042829882 -0.014044108 0.21001951
-0.043770701 -0.014322719 0.21622676
-0.04469128 -0.017320327 0.22113495
-0.044642683 -0.020230481 0.2244726
-0.039444745 0.041092202 0.1758014
-0.039130665 0.039591283 0.17677337
-0.037918366 0.037682064 0.17822161
-0.037440784 0.03452884 0.18000743
-0.037475731 0.030990416 0.18131389
-0.03728221 0.026984856 0.18270735
-0.037246339 0.020827176 0.18319425
-0.038530465 0.014354555 0.18431908
-0.039964709 0.0076357219 0.18644103
-0.038671874 0.00057755236 0.18655811
-0.036563072 -0.0050900611 0.18547307
-0.034802262 -0.0083845742 0.18651028
-0.033776436 -0.010150256 0.19026792
-0.034554083 -0.011817518 0.19434962
-0.036442593 -0.01370007 0.19835831
-0.038601022 -0.014045503 0.20249437
-0.039305251 -0.014169919 0.20713048
-0.040153667 -0.015207938 0.21104835
-0.040942483 -0.015766406 0.21536736
-0.041015062 -0.01815347 0.21915418
-0.042125598 -0.021074833 0.22398748
-0.035810065 0.04335463 0.17380761
-0.034970954 0.042285725 0.1752976
-0.034172658 0.040290199 0.17774217
-0.033741895 0.037225977 0.17962423
-0.034212131 0.032073967 0.18136531
-0.03403192 0.027316308 0.18312666
-0.034404188 0.019952632 0.18361706
-0.035412028 0.014123562 0.1843161
-0.036280133 0.0079396842 0.18565589
-0.036545295 -0.00014420792 0.18568209
-0.034104526 -0.0043750904 0.18575673
-0.032148439 -0.0065556229 0.1878994
-0.031449374 -0.0081915427 0.19100903
-0.031965669 -0.010317876 0.19552475
-0.033287778 -0.012666368 0.2003331
-0.035173956 -0.014265475 0.20401493
-0.036328301 -0.014937137 0.20856497
-0.037254952 -0.016078483 0.21210103
-0.03802719 -0.017522419 0.21530963
-0.037778463 -0.01961131 0.2184788
-0.038189624 -0.021528719 0.22296804
-0.038702246 -0.023630537 0.22577402
-0.031529017 0.044933323 0.17620884
-0.031340733 0.043339074 0.17658
-0.030956144 0.041096404 0.17818467
-0.030559141 0.038442012 0.18006493
-0.030708984 0.034115855 0.18175368
-0.031269182 0.028284851 0.1832048
-0.032102998 0.01965728 0.18413493
-0.032537431 0.014729722 0.18449557
-0.033228673 0.0083648618 0.18531369
-0.034675196 0.0010243006 0.18524116
-0.032200981 -0.0014504417 0.18652381
-0.030129883 -0.0039436067 0.18926488
-0.029750872 -0.0058961986 0.19220175
-0.030048478 -0.0087105911 0.19603261
-0.030406011 -0.011873819 0.20154119
-0.032152489 -0.013746803 0.20577618
-0.033417489 -0.015153181 0.2095719
-0.034218419 -0.016694488 0.21298437
-0.034805026 -0.018438803 0.21593831
-0.034731403 -0.019668262 0.21907604
-0.034417965 -0.021379093 0.22218302
-0.035267044 -0.024013851 0.22572869
-0.028790182 0.045886647 0.17596909
-0.028359927 0.044292312 0.17676213
-0.027755614 0.041878335 0.17832188
-0.027302172 0.039277479 0.18031691
-0.02745422 0.035804812 0.18200615
-0.028394546 0.029265566 0.18349792
-0.029552041 0.019904451 0.18481366
-0.029835282 0.015625052 0.18519349
-0.030176517 0.010561711 0.18578239
-0.03195025 0.0044153905 0.18543194
-0.030472549 0.0031308995 0.18656468
-0.028823284 0.0011279755 0.18860132
-0.027504094 -0.0021950228 0.19155532
-0.027441217 -0.0050641182 0.19430366
-0.027686628 -0.011129655 0.2029739
-0.028544957 -0.012909242 0.20680961
-0.030734694 -0.014578647 0.21053998
-0.030683167 -0.016839795 0.21401057
-0.031343617 -0.018667554 0.21687202
-0.031696934 -0.019787777 0.21944243
-0.032080207 -0.022040969 0.22211695
-0.032676551 -0.023955161 0.22363724
-0.033752538 -0.024903014 0.22550158
-0.025319533 0.046161994 0.1768056
-0.025104718 0.044602025 0.17764373
-0.02452651 0.042283762 0.17902058
-0.024161004 0.039456699 0.18029936
-0.02468892 0.035977725 0.18221428
-0.025604861 0.029943701 0.18404765
-0.026581472 0.02036716 0.18588585
-0.026657231 0.016543724 0.18681474
-0.026325924 0.013996415 0.18784684
-0.028021222 0.010746601 0.18692121
-0.027610244 0.0083294027 0.18781331
-0.026623525 0.0049347202 0.18946944
-0.025075108 0.0015543241 0.19218855
-0.023892241 -0.0023034606 0.19633015
-0.025193188 -0.0072657964 0.20225309
-0.026352016 -0.010813993 0.20727104
-0.026916927 -0.014287925 0.21198279
-0.027680425 -0.017672606 0.2156194
-0.02871999 -0.019734811 0.21799272
-0.030033862 -0.021584241 0.22109833
-0.030389372 -0.023052061 0.22240104
-0.030723399 -0.024145037 0.22408384
-0.031159667 -0.02576804 0.22712965
-0.021811413 0.044649724 0.17868099
-0.021557527 0.04310533 0.17962874
-0.021540165 0.04044662 0.18047762
-0.021815339 0.037869625 0.18108748
-0.022473885 0.035042476 0.18267132
-0.022695934 0.029471058 0.18554957
-0.022771515 0.021975381 0.18775538
-0.022485808 0.018348495 0.18938383
-0.022863982 0.016727241 0.19021165
-0.022141973 0.01584224 0.19085392
-0.022356451 0.012539205 0.19128394
-0.022290729 0.0091646472 0.19205844
-0.021598602 0.004574053 0.19442832
-0.020882698 -0.0010086854 0.20035324
-0.022551836 -0.0056296783 0.20463867
-0.023532106 -0.0086648166 0.20879439
-0.023911735 -0.011554296 0.21280548
-0.024913864 -0.015153587 0.21769136
-0.025346827 -0.018837322 0.21921499
-0.026348848 -0.021161741 0.22174749
-0.026932823 -0.022190951 0.22293766
-0.027337387 -0.023748502 0.22442162
-0.027655849 -0.026081242 0.22787578
-0.018698897 0.041932143 0.18080339
-0.018927662 0.039505646 0.1820472
-0.019151622 0.03668328 0.18267283
-0.019287769 0.033926722 0.18420832
-0.01875034 0.030659117 0.18721282
-0.017481778 0.025317799 0.19067813
-0.017340593 0.020731166 0.19146827
-0.018960228 0.017923929 0.1917744
-0.018231558 0.015482893 0.19332312
-0.018395759 0.012803879 0.19394247
-0.018500362 0.0095213391 0.1946453
-0.018419759 0.0049462332 0.19804789
-0.018681083 0.00016881831 0.2028375
-0.019821236 -0.0037096841 0.20674528
-0.020716116 -0.0072917435 0.21130306
-0.021194596 -0.010414525 0.21557297
-0.022409897 -0.013623807 0.21932648
-0.023271302 -0.016965482 0.22082299
-0.023741852 -0.020175289 0.22255196
-0.023874134 -0.021548945 0.22278592
-0.024124891 -0.02369329 0.22398829
-0.024431519 -0.026393607 0.2289995
-0.01573859 0.038833033 0.18335745
-0.01556656 0.03645429 0.18427888
-0.015518673 0.033431202 0.18595348
-0.015376773 0.029854137 0.18833596
-0.012511853 0.025746746 0.19186544
-0.013644277 0.021488225 0.19376671
-0.015443412 0.017654281 0.19370222
-0.015344623 0.014906293 0.19529638
-0.015227786 0.012615161 0.19585323
-0.015161142 0.009459259 0.19751833
-0.015778823 0.0055090981 0.20174161
-0.016223721 0.0014028513 0.20561886
-0.017353877 -0.0021257771 0.20866589
-0.017828798 -0.0063024997 0.21398365
-0.018245624 -0.0097114798 0.21846001
-0.019160863 -0.012839668 0.22110805
-0.0203561 -0.016335601 0.2225747
-0.020514064 -0.019273452 0.22352099
-0.020716382 -0.021189893 0.22364812
-0.021271273 -0.023831911 0.22640559
-0.021085786 -0.026425835 0.23156178
-0.012453613 0.036007725 0.18565549
-0.012110606 0.033068337 0.18723729
-0.011402671 0.029765112 0.18927415
-0.0086708507 0.026102642 0.19308615
-0.0099366596 0.022009412 0.19567087
-0.012077072 0.018888617 0.19579926
-0.012462521 0.015224042 0.19738586
-0.011960848 0.01212425 0.19911972
-0.012057725 0.0089539969 0.20155945
-0.012720198 0.0062454208 0.20449381
-0.013544217 0.0029604037 0.20755784
-0.014626491 -0.00063463865 0.21144415
-0.014579507 -0.0055829473 0.21625181
-0.015116036 -0.0089613972 0.22011624
-0.015736591 -0.012176296 0.22233187
-0.017091328 -0.015280242 0.22323731
-0.017234359 -0.018215843 0.2239266
-0.017291622 -0.020938169 0.22521468
-0.017231179 -0.024099506 0.22975129
-0.016714059 -0.027366506 0.23465517
-0.0088258227 0.032430116 0.18857253
-0.0067826784 0.029935395 0.1916189
-0.0055694925 0.026525671 0.19575788
-0.0058511416 0.022830978 0.19835
-0.0079522217 0.019760646 0.19860992
-0.0095339231 0.01601908 0.19944581
-0.0094215376 0.012436438 0.20112273
-0.0094089527 0.0093369409 0.20345546
-0.0097080898 0.0069652544 0.2055926
-0.010713032 0.0044132089 0.20883095
-0.010718325 0.00022877775 0.21339265
-0.010725813 -0.0040910183 0.21732213
-0.011456034 -0.0071854955 0.22012372
-0.011388891 -0.010600831 0.22255763
-0.013080409 -0.013695981 0.22297038
-0.013512583 -0.017304199 0.22492449
-0.013439979 -0.02094665 0.22722799
-0.012493818 -0.024834638 0.23270015
-0.0034682609 0.029445615 0.19570684
-0.0020757942 0.026384015 0.19866449
-0.0016223814 0.023245519 0.20016427
-0.0029854549 0.020094985 0.20118479
-0.0052117254 0.016997105 0.20125329
-0.0065801009 0.013136806 0.20242372
-0.0067170761 0.010039875 0.20461932
-0.006963226 0.0078410832 0.20683043
-0.0076498692 0.0051669818 0.21083049
-0.0068536662 0.00047862632 0.21480274
-0.0071972087 -0.0034855139 0.21903668
-0.0074769426 -0.006501155 0.22049151
-0.0078245113 -0.009631684 0.22330594
-0.0083521307 -0.01290413 0.22451432
-0.0091751646 -0.016307358 0.22596489
-0.010133827 -0.020549685 0.22799909
-0.0099459626 -0.023666551 0.2317034
9.4431147e-05 0.028230885 0.1986165
0.0018761723 0.025832329 0.19925381
0.0022496118 0.022537597 0.20023109
0.0011730016 0.019731922 0.20148164
-4.4960321e-05 0.017146159 0.20314233
-0.00092636637 0.014698941 0.2046006
-0.0027683573 0.01118325 0.20595604
-0.0032918891 0.0082112914 0.20917732
-0.0032215908 0.00476208 0.21255848
-0.0027613502 0.00085948012 0.21546264
-0.0034729065 -0.0029410345 0.21961287
-0.0037750839 -0.0060922885 0.22108057
-0.004099967 -0.009380661 0.22334912
-0.00510719 -0.012503543 0.22511183
0.0046924306 0.024349146 0.19917344
0.0050814156 0.021948187 0.19976345
0.0043482147 0.01946938 0.20085244
0.0039241351 0.017195273 0.20279156
0.0037008 0.014948196 0.20539428
0.0027277842 0.011938684 0.20785359
0.0019552002 0.0082295453 0.20960958
0.00095064886 0.004742695 0.21297672
0.00054863235 0.0011109492 0.21578391
-8.2658407e-05 -0.0025618237 0.21890473
-0.0013185015 -0.0057752063 0.22159016
0.007639545 0.021499671 0.20013359
0.0073952707 0.019416908 0.20101531
0.0072404328 0.017093994 0.2028573
0.0067106765 0.014794698 0.2056848
0.005509065 0.012304686 0.20830628
0.0048456639 0.0098622125 0.20915529
0 0 0 1 0 0 0 1 0 0 0 1 0 0 0 0 0 346 1 0 0
