ply
format ascii 1.0
comment PCL generated
element vertex 346
property float x
property float y
property float z
element camera 1
property float view_px
property float view_py
property float view_pz
property float x_axisx
property float x_axisy
property float x_axisz
property float y_axisx
property float y_axisy
property float y_axisz
property float z_axisx
property float z_axisy
property float z_axisz
property float focal
property float scalex
property float scaley
property float centerx
property float centery
property int viewportx
property int viewporty
property float k1
property float k2
end_header
-0.056455862 0.018739725 0.18810387
-0.056740917 0.015763834 0.18965527
-0.053537074 0.024521982 0.18360914
-0.054259069 0.022280529 0.1849267
-0.054747641 0.019125709 0.18634182
-0.054942682 0.01573791 0.18814872
-0.055235676 0.012316552 0.19020499
-0.054838534 0.0086837895 0.19236086
-0.054073583 0.0052569103 0.1942195
-0.050808191 0.027825078 0.18202046
-0.051214926 0.025666563 0.18205526
-0.051601548 0.022869926 0.18243541
-0.051861629 0.01970222 0.18343416
-0.052014634 0.016346544 0.18540612
-0.052768964 0.012107172 0.18814364
-0.052658901 0.0080458689 0.19086611
-0.052283954 0.004042441 0.19403094
-0.050920479 -0.00015783809 0.19582191
-0.047481954 0.031110015 0.18039776
-0.048135556 0.029365659 0.1808119
-0.048471812 0.026671808 0.18081479
-0.048641775 0.023294197 0.18092035
-0.049312353 0.019999273 0.18233864
-0.050037894 0.015668372 0.18446261
-0.050656691 0.011943527 0.18691453
-0.050176758 0.0073390668 0.18991107
-0.049543101 0.0032252243 0.19269831
-0.047445342 -0.003298685 0.19310643
-0.047163967 -0.0086687244 0.19257775
-0.047331609 -0.011992668 0.19283715
-0.045851793 0.032022059 0.17930037
-0.045611519 0.029884571 0.17974059
-0.045641582 0.02683037 0.1801095
-0.04622826 0.023199353 0.18086936
-0.046920013 0.019633057 0.18202916
-0.047618657 0.015320878 0.18331678
-0.048208468 0.011160728 0.18589064
-0.048041154 0.0067049777 0.18880451
-0.045904953 -0.0002433817 0.1906938
-0.044800788 -0.0058164485 0.18905108
-0.044786286 -0.0098607289 0.18912049
-0.045196641 -0.014142492 0.19077513
-0.045694068 -0.016307926 0.1931783
-0.048178837 -0.014734965 0.19806024
-0.048524864 -0.01336991 0.20363924
-0.043863375 0.035199896 0.17708324
-0.04353467 0.033220556 0.17809391
-0.043051641 0.031071244 0.17910363
-0.042806227 0.027936576 0.18000208
-0.04347248 0.023466123 0.18072769
-0.043797571 0.01943836 0.18148716
-0.044630665 0.014968103 0.18209961
-0.045303937 0.010295313 0.18419883
-0.045187466 0.0047354796 0.18757534
-0.042857416 -0.0023128372 0.18764652
-0.04232746 -0.0071798186 0.18535417
-0.041855119 -0.010995659 0.18515994
-0.040260978 -0.014827169 0.18911824
-0.043956589 -0.015347973 0.19415456
-0.045768157 -0.014240497 0.19916666
-0.046619985 -0.013760608 0.20389348
-0.046972591 -0.014027051 0.20820224
-0.047392819 -0.014571439 0.2136953
-0.04140697 0.03649532 0.17619884
-0.040603586 0.034227051 0.17767228
-0.04004889 0.031994849 0.17857657
-0.039756589 0.029254168 0.1793305
-0.039855782 0.025500482 0.18032487
-0.040033255 0.020075044 0.1811329
-0.041288942 0.014840606 0.18160339
-0.043049023 0.0091269948 0.18367362
-0.042173471 0.0025695765 0.18595777
-0.039687559 -0.0037252391 0.18452166
-0.038662355 -0.0084990924 0.18346289
-0.036971617 -0.011959412 0.18614917
-0.037382111 -0.013376723 0.19111541
-0.040184762 -0.014885171 0.19614963
-0.04241145 -0.013852646 0.20091777
-0.043095987 -0.013721881 0.20523815
-0.0437163 -0.014567937 0.20902908
-0.045430578 -0.016010268 0.21486124
-0.0464602 -0.020060357 0.2189476
-0.046233624 -0.023405131 0.22188628
-0.038896717 0.039928742 0.1739876
-0.038539812 0.038382899 0.17495574
-0.037466232 0.036738742 0.17651026
-0.037001569 0.033691943 0.17813639
-0.036855437 0.030092685 0.17913724
-0.036428012 0.026189698 0.18030509
-0.036574915 0.020531369 0.18158336
-0.038162403 0.013976638 0.181926
-0.040090509 0.0072186505 0.18365349
-0.03902895 0.00047586526 0.18424234
-0.036843732 -0.0050841188 0.18296805
-0.034906019 -0.0084499829 0.18427259
-0.034252051 -0.0099927429 0.18852201
-0.035204355 -0.01145867 0.19301954
-0.036959529 -0.013376022 0.19736424
-0.039095845 -0.013950356 0.2017826
-0.040033624 -0.014202293 0.20646977
-0.041055527 -0.015603196 0.21032025
-0.042260405 -0.016824061 0.21438304
-0.042505782 -0.019621011 0.2177733
-0.043572523 -0.023509741 0.2218468
-0.035677895 0.042956203 0.17254317
-0.034807637 0.041868933 0.17397518
-0.033978321 0.039822601 0.17638095
-0.033532828 0.036707744 0.17826608
-0.033787243 0.031453103 0.17927329
-0.033330847 0.02677073 0.18085983
-0.033728965 0.019765954 0.18225048
-0.034826383 0.01386841 0.18230253
-0.036274523 0.0076035396 0.18335107
-0.036905713 -0.00010986956 0.18356179
-0.034366451 -0.0042346711 0.18348789
-0.03244859 -0.0064553916 0.18584852
-0.032068238 -0.0079667568 0.18927832
-0.0328326 -0.0097645773 0.19424351
-0.034076914 -0.011977057 0.19960423
-0.03585355 -0.013780847 0.20358859
-0.037141345 -0.014668071 0.20819736
-0.03816843 -0.016199594 0.21167283
-0.039087918 -0.017985223 0.21468574
-0.038944237 -0.020184102 0.21771555
-0.039641138 -0.022818761 0.22173466
-0.040100209 -0.025420105 0.22401513
-0.031352464 0.044531804 0.17489447
-0.031126022 0.042956159 0.17524728
-0.030740356 0.040709622 0.17678827
-0.030305965 0.038006414 0.1786902
-0.030560067 0.033479594 0.18022054
-0.030851806 0.027714822 0.18126225
-0.031488594 0.019445118 0.18286604
-0.031842284 0.014551231 0.18279876
-0.033154111 0.0082273511 0.18346164
-0.035045918 0.0013254976 0.18353154
-0.032608218 -0.0011080658 0.18460765
-0.030620798 -0.0037584479 0.18731603
-0.030405696 -0.0057056942 0.19046329
-0.030985638 -0.0081735831 0.19469598
-0.031394351 -0.010883015 0.20099568
-0.033050083 -0.012881865 0.20554291
-0.034307193 -0.014556151 0.20942684
-0.035209931 -0.016403519 0.21308395
-0.035877317 -0.01827533 0.21591933
-0.036116544 -0.019643053 0.21893717
-0.035924386 -0.021537781 0.22185954
-0.036706999 -0.024622368 0.22501388
-0.028595496 0.04554037 0.17463356
-0.028122088 0.043973058 0.17538205
-0.027442927 0.041516319 0.1768308
-0.026952891 0.038885895 0.17867708
-0.027241893 0.035331342 0.18052788
-0.028125376 0.028777834 0.18189092
-0.029062863 0.019720698 0.1837488
-0.029165616 0.015441204 0.18372275
-0.029807743 0.010500748 0.18412891
-0.032273129 0.0045185476 0.18391919
-0.030754192 0.0034032501 0.18492474
-0.029043116 0.0013373261 0.1867566
-0.027791111 -0.0021091383 0.18964371
-0.028064432 -0.0049521285 0.19270004
-0.02880431 -0.0098560648 0.20258528
-0.029666312 -0.011659509 0.20671396
-0.031832714 -0.013695298 0.21059866
-0.031839184 -0.016016757 0.21482927
-0.03267277 -0.017974405 0.21751206
-0.033235826 -0.019126609 0.22003567
-0.033553325 -0.021265639 0.2226603
-0.034041021 -0.0232036 0.224154
-0.035174221 -0.024319248 0.22571173
-0.0250479 0.045810129 0.17544675
-0.024790559 0.04424201 0.17622487
-0.024148339 0.04191085 0.17753516
-0.023772301 0.039104402 0.17883468
-0.02453441 0.035668824 0.18087189
-0.025449473 0.029535085 0.1826866
-0.026284959 0.020164134 0.18511438
-0.026230281 0.016316354 0.18553258
-0.025829781 0.013836878 0.18611924
-0.027883468 0.010772036 0.1852279
-0.027644439 0.0085219322 0.1861288
-0.026671575 0.0050774906 0.18764709
-0.025076609 0.0015913041 0.19016027
-0.023928447 -0.0024648849 0.19446516
-0.026131658 -0.0069689499 0.2012898
-0.027507618 -0.0098806052 0.20687221
-0.02816573 -0.013401687 0.21277398
-0.029091036 -0.016873719 0.21674389
-0.030160062 -0.018860027 0.21898726
-0.031519055 -0.020575227 0.22203465
-0.031833295 -0.021951506 0.22332504
-0.032121625 -0.023052562 0.22495779
-0.032408711 -0.02460536 0.22797917
-0.021530915 0.044340618 0.17776363
-0.02132174 0.042807445 0.17880844
-0.02136581 0.040242348 0.17973016
-0.021710765 0.037682548 0.1803212
-0.022516619 0.034815684 0.18171877
-0.022823535 0.029258629 0.18496761
-0.022692187 0.021856427 0.18742356
-0.022397738 0.018219193 0.1882579
-0.022694999 0.016653351 0.18870689
-0.022078924 0.015920812 0.18937384
-0.022176266 0.012790314 0.18960235
-0.021997953 0.0094126053 0.19020209
-0.02109017 0.0044689546 0.19249886
-0.020061351 -0.0019205062 0.19859509
-0.022465048 -0.0063540922 0.20337936
-0.02401853 -0.0091583682 0.20790075
-0.024689728 -0.012234055 0.21218233
-0.026054835 -0.015045189 0.21786694
-0.026778603 -0.018075921 0.22010343
-0.027885547 -0.0200317 0.22262603
-0.028487682 -0.021110896 0.2237553
-0.028698986 -0.022693774 0.22518465
-0.028917164 -0.024979329 0.2284978
-0.018683679 0.041750904 0.18084387
-0.019043185 0.039308362 0.18206404
-0.019347334 0.036479775 0.18254356
-0.019617362 0.03372464 0.18409027
-0.019304857 0.030696318 0.187556
-0.018223999 0.025449641 0.19114491
-0.018118901 0.020700479 0.19077177
-0.019561667 0.018030137 0.19106153
-0.018919758 0.015583658 0.19283748
-0.018810064 0.012934549 0.19322352
-0.018570738 0.0096715335 0.19351962
-0.017713252 0.0044112466 0.1963262
-0.01774754 -0.0010058915 0.20109281
-0.019145597 -0.0049246065 0.20519269
-0.020720387 -0.0085070999 0.20995595
-0.021557352 -0.011586125 0.21436729
-0.022982882 -0.013990752 0.21849269
-0.024346815 -0.016482843 0.22056459
-0.025126629 -0.018945551 0.22302923
-0.025220623 -0.020452036 0.22335468
-0.025533028 -0.022706337 0.22456223
-0.025663493 -0.025410837 0.22928666
-0.015981229 0.038486686 0.18380001
-0.015902156 0.036176845 0.18477397
-0.016007209 0.033376653 0.18668103
-0.016078673 0.030105012 0.18935086
-0.013266286 0.026173616 0.19266598
-0.014714254 0.021386107 0.1932638
-0.016528679 0.017698258 0.19346094
-0.016182564 0.014875298 0.19492567
-0.015808888 0.012622149 0.19542766
-0.015226815 0.0092790565 0.19653085
-0.014918385 0.0044594258 0.20010678
-0.01524657 -4.2737043e-05 0.20392191
-0.016494226 -0.00371434 0.20708407
-0.017552484 -0.0081829075 0.21212192
-0.018218439 -0.01131161 0.21699688
-0.019575529 -0.013601958 0.2196978
-0.021142155 -0.016174931 0.22138231
-0.021715131 -0.018400066 0.2233209
-0.022148028 -0.020228306 0.22384019
-0.022575377 -0.023163458 0.22642662
-0.022359688 -0.025623964 0.23166558
-0.012852986 0.035695765 0.18641828
-0.01278456 0.033168815 0.18841238
-0.012280989 0.030251754 0.19077261
-0.0091936542 0.026303435 0.19326089
-0.01055085 0.021818735 0.19477545
-0.013183763 0.01874199 0.19512695
-0.013276716 0.014963442 0.19645131
-0.012035158 0.011639579 0.19789743
-0.011328046 0.0079350192 0.19997369
-0.011628105 0.0048670392 0.20273136
-0.012566147 0.0013959383 0.20584281
-0.013768967 -0.002276706 0.209894
-0.014165039 -0.0078530069 0.21426949
-0.01488559 -0.010970449 0.21824348
-0.016058978 -0.013368311 0.22062899
-0.017978098 -0.015451586 0.22180104
-0.018604396 -0.017683621 0.22336322
-0.018911954 -0.020151239 0.22524634
-0.018670378 -0.02344856 0.22985002
-0.01825247 -0.026566749 0.23504189
-0.0096824681 0.032691948 0.190034
-0.0074956389 0.030259762 0.1925243
-0.0055678962 0.026232179 0.1951028
-0.0056398441 0.022171622 0.19677906
-0.0085735247 0.019424479 0.19739535
-0.010269516 0.015705539 0.19828989
-0.0090631042 0.011682796 0.19978476
-0.0085829413 0.0083071841 0.20191315
-0.008757866 0.0056234822 0.20395257
-0.009964156 0.0028306865 0.20718659
-0.010462482 -0.0012423374 0.21222094
-0.010674984 -0.0055710739 0.21642992
-0.011486994 -0.0087257437 0.21887535
-0.011834096 -0.011855084 0.22154628
-0.014274471 -0.014272057 0.22194308
-0.015167084 -0.016625868 0.2245668
-0.01536964 -0.019851277 0.22760274
-0.014265656 -0.02384999 0.23333639
-0.0035436682 0.029172512 0.19534947
-0.0014213599 0.025556421 0.19694504
-0.00066201447 0.022306884 0.19794914
-0.0021275615 0.019290032 0.1991037
-0.0052973665 0.016660271 0.19991492
-0.0062794029 0.012529981 0.20123658
-0.0059823305 0.0089843059 0.20324035
-0.0061837537 0.0065150657 0.20531721
-0.0071131242 0.0035513011 0.20941789
-0.0070947059 -0.00042968572 0.21443373
-0.0076150657 -0.0043581836 0.21900424
-0.0078600636 -0.0073340926 0.22043046
-0.0085105496 -0.010363514 0.22338879
-0.0092566824 -0.013169374 0.22465403
-0.01099913 -0.015518568 0.22614539
-0.012230675 -0.019223683 0.22894453
-0.011720818 -0.022593953 0.23261744
0.00075496815 0.02736263 0.19688468
0.0028460193 0.024852864 0.19714317
0.0033863264 0.021568244 0.19817515
0.0022721938 0.01883715 0.19959716
0.00093599031 0.01634966 0.2014374
-0.00028314718 0.013997717 0.20316321
-0.0022631001 0.010245243 0.20492214
-0.0028423523 0.006707984 0.20828137
-0.0032602893 0.0035528014 0.21201953
-0.003326549 0.0004871834 0.21602638
-0.0042455243 -0.0031650777 0.22041957
-0.004473493 -0.0063821673 0.22208595
-0.0049821381 -0.0094484976 0.22457778
-0.006130565 -0.012363313 0.2263032
0.0057823118 0.023333205 0.19718081
0.0062059821 0.020955522 0.19793247
0.0054235002 0.018540002 0.19920319
0.0048592617 0.016346937 0.20130304
0.0044512069 0.014181909 0.20398685
0.0032870725 0.010660907 0.20659007
0.0022305816 0.0064329971 0.20894755
0.0007806542 0.0036419882 0.21288
-5.5630549e-05 0.00078102958 0.21662517
-0.00086307758 -0.0023553404 0.22047992
-0.0021550767 -0.0056982441 0.22319408
0.0086905183 0.020499954 0.198493
0.0084240232 0.018473485 0.19951002
0.0081529841 0.016221141 0.20156273
0.0074273315 0.013932351 0.20446743
0.006038283 0.01113698 0.20707417
0.0051989555 0.0081485575 0.20820126
0 0 0 1 0 0 0 1 0 0 0 1 0 0 0 0 0 346 1 0 0
