ply
format ascii 1.0
comment Automatically gnerated by model-converter
element vertex 764
property float x
property float y
property float z
element face 0
property list uchar int vertex_indices
end_header
-0.029353986 0.018260775 0.088469543
-0.029851785 0.016896283 0.090025507
-0.029953605 0.015325175 0.090506099
-0.030078547 0.013694746 0.090870388
-0.030367784 0.012086472 0.091660254
-0.030870212 0.010754733 0.092775553
-0.031260241 0.0094845425 0.09379831
-0.03165235 0.0082762977 0.094693184
-0.032523792 0.0072618234 0.09642797
-0.033581849 0.0064655715 0.099156313
-0.03486323 0.004874534 0.10205481
-0.035343628 0.0030634005 0.10305499
-0.035491146 0.0012521333 0.10319052
-0.035563856 -0.00059979182 0.10346772
-0.035753027 -0.0026569574 0.10406237
-0.036216669 -0.0049212496 0.10537473
-0.037028786 -0.0073571154 0.10803811
-0.028388621 0.018451899 0.089697205
-0.028663322 0.017101621 0.090902634
-0.028741686 0.015490009 0.091212966
-0.028862739 0.013842829 0.091531307
-0.029221529 0.01227606 0.092395939
-0.029661885 0.010900479 0.09342251
-0.030153856 0.0097221276 0.094767235
-0.030747451 0.0085629793 0.095939666
-0.031437751 0.0075217318 0.097669147
-0.032417424 0.0065492727 0.10013963
-0.033473242 0.004742207 0.10263722
-0.03393247 0.0029372533 0.10380395
-0.034099504 0.0011573685 0.10402831
-0.034261215 -0.00077592791 0.10455204
-0.034531474 -0.0029102275 0.10535658
-0.034955926 -0.0052051698 0.10658538
-0.035501111 -0.0074904938 0.10819886
-0.02663457 0.018444529 0.08863841
-0.027112918 0.017226204 0.090517893
-0.027472354 0.01552866 0.091748782
-0.027593635 0.013908357 0.092232801
-0.02793517 0.012505275 0.093125969
-0.028255748 0.011067556 0.094010331
-0.028680902 0.0097300643 0.095203646
-0.029284412 0.0086338408 0.096440718
-0.030117877 0.0076714517 0.098747522
-0.030971868 0.0065131001 0.10104372
-0.031832382 0.0046791672 0.10303263
-0.032420382 0.0027389128 0.1045137
-0.03262243 0.00092248549 0.1053002
-0.032827169 -0.0010261309 0.10578739
-0.033202812 -0.0029728226 0.10671582
-0.033564348 -0.0053668935 0.10792377
-0.033845972 -0.0075145122 0.10895656
-0.02498869 0.018472655 0.088087969
-0.02555187 0.017323369 0.090162896
-0.026189437 0.015750946 0.092321999
-0.026332183 0.014076701 0.093050271
-0.026860405 0.012817631 0.094491236
-0.027094677 0.011301509 0.095146783
-0.027383815 0.0098414915 0.095969006
-0.027845547 0.0086569162 0.097185805
-0.028602943 0.0076368027 0.099272922
-0.029417401 0.0064693862 0.1019478
-0.030165965 0.0046963193 0.10348257
-0.030686265 0.0027496261 0.10479017
-0.031077811 0.00068756822 0.1061819
-0.031345773 -0.0012363766 0.10706443
-0.031626649 -0.0030344976 0.10775423
-0.032052573 -0.0049661435 0.10879458
-0.032284424 -0.0072142151 0.10990244
-0.023470234 0.018485058 0.088013358
-0.024088314 0.017403416 0.090306766
-0.024791036 0.015993483 0.092466451
-0.024851887 0.014488213 0.093496449
-0.025291581 0.01285658 0.094671048
-0.025509086 0.011332698 0.095433272
-0.026007365 0.009873081 0.096785165
-0.026476365 0.0088099185 0.098270714
-0.02702623 0.007501008 0.099588126
-0.027645426 0.0062406915 0.10202751
-0.028294902 0.0046599605 0.10325746
-0.02869085 0.0026703821 0.10458495
-0.029466469 0.00065094652 0.1064855
-0.029707344 -0.0013258066 0.10773573
-0.030023156 -0.0031781239 0.10864794
-0.030335357 -0.0049701273 0.10956643
-0.030502135 -0.0068956865 0.11044315
-0.021872994 0.01842631 0.087631263
-0.02268981 0.017335327 0.090445235
-0.023144817 0.016070182 0.092478886
-0.023280341 0.014702125 0.093362913
-0.023573307 0.012996138 0.094565995
-0.0238689 0.01131394 0.095618002
-0.02451231 0.0099381208 0.09731932
-0.024978822 0.0085853171 0.098444261
-0.02535264 0.007298423 0.099769667
-0.02581678 0.0059539936 0.10142171
-0.026175564 0.0043241242 0.10269388
-0.026839063 0.0025557552 0.10434996
-0.02750851 0.0004113121 0.10625768
-0.027910838 -0.0013937172 0.10787287
-0.02814314 -0.0033443109 0.1087505
-0.028266681 -0.005209717 0.109546
-0.028446844 -0.007080806 0.11037015
-0.020212801 0.018217141 0.087137572
-0.021085406 0.017330276 0.090208843
-0.021461029 0.016139857 0.09224458
-0.021708768 0.014766866 0.093528859
-0.021974698 0.013290649 0.094684452
-0.022330062 0.011482134 0.095942333
-0.022994347 0.0099837221 0.097639643
-0.023287848 0.0085824812 0.098650739
-0.023564219 0.007177148 0.099719062
-0.023885909 0.0057675219 0.10101192
-0.024192847 0.0041694841 0.10211518
-0.024715737 0.0023925281 0.10399657
-0.025539186 0.00039316717 0.10604121
-0.026070854 -0.0014739777 0.1077732
-0.026295573 -0.0033157028 0.10881101
-0.026296146 -0.0052203136 0.10962126
-0.026704319 -0.006921798 0.11009579
-0.018858932 0.017980939 0.087257855
-0.01945661 0.01729787 0.08989092
-0.019846877 0.016147798 0.092135131
-0.020067157 0.014774158 0.093393236
-0.02039423 0.013352225 0.094922006
-0.020653935 0.011684362 0.09597487
-0.021218833 0.01004525 0.097563073
-0.021534985 0.0085274065 0.098690823
-0.021817788 0.0069480725 0.0995875
-0.022126988 0.0055937218 0.10080234
-0.022355868 0.0039593903 0.10165094
-0.022766408 0.0023310664 0.10339317
-0.023360802 0.00044766252 0.10540566
-0.024074227 -0.0014307902 0.10726401
-0.024370452 -0.0032161765 0.10837634
-0.024454767 -0.0051488108 0.10924405
-0.024368558 -0.0070025409 0.10992847
-0.017300053 0.018016938 0.086985312
-0.017708167 0.01711227 0.089303792
-0.018090153 0.016141517 0.091639377
-0.018387461 0.01479948 0.09337721
-0.01873132 0.013344989 0.094952106
-0.018918652 0.01163706 0.095865898
-0.019354649 0.0099927122 0.097222835
-0.019822158 0.008562495 0.098873317
-0.020081785 0.0070191273 0.099776879
-0.020300934 0.0054468429 0.10051537
-0.020529153 0.0038908094 0.10139635
-0.020785064 0.0023091682 0.10287297
-0.021091254 0.00056962745 0.1042979
-0.021612689 -0.0013985598 0.10582098
-0.02213216 -0.0032716051 0.10732713
-0.022505933 -0.0050285319 0.10815825
-0.022426616 -0.0069067245 0.1089128
-0.022254786 -0.0089056715 0.10962759
-0.015748112 0.017909784 0.086168177
-0.016094135 0.017017007 0.088616483
-0.016289882 0.01607267 0.09073019
-0.016644727 0.01474801 0.092829987
-0.016971454 0.013243017 0.094663046
-0.017112717 0.011618657 0.095842056
-0.017574705 0.009940411 0.097083375
-0.018087149 0.0086014681 0.098843612
-0.018323913 0.0070270817 0.09970627
-0.018445173 0.0054011187 0.10028699
-0.018698145 0.0038645521 0.10116423
-0.018842749 0.002298122 0.10218088
-0.019108083 0.00054198777 0.10354769
-0.019423187 -0.0013200189 0.1045744
-0.019668849 -0.003230206 0.10560378
-0.019994654 -0.0051279622 0.1065367
-0.020136869 -0.0070691057 0.10737412
-0.020336246 -0.0089448728 0.10860234
-0.020611005 -0.010897371 0.11037666
-0.014173565 0.017930897 0.08549735
-0.014513506 0.016925361 0.087838612
-0.014664962 0.015784148 0.089871161
-0.014876883 0.014622581 0.092383504
-0.015082457 0.013070167 0.09418533
-0.015162103 0.011457417 0.095579773
-0.015727488 0.0099191163 0.097077638
-0.016292177 0.0085079391 0.098748639
-0.016495259 0.0070096655 0.099660948
-0.016642014 0.0054477998 0.10020254
-0.016783871 0.0038943975 0.10075206
-0.016941363 0.0022328892 0.10151374
-0.017200509 0.00052142557 0.10262793
-0.017281927 -0.0012872634 0.10310198
-0.017387491 -0.0031411529 0.10371941
-0.017450465 -0.0048890151 0.10460216
-0.017809162 -0.0069697034 0.10590166
-0.017970407 -0.0089055998 0.10717226
-0.018294424 -0.010912667 0.10917556
-0.018407853 -0.012477621 0.1108897
-0.012657399 0.017983984 0.085069388
-0.012996985 0.016850615 0.087517239
-0.01305985 0.015667647 0.089203492
-0.013099295 0.01451478 0.091796637
-0.013235771 0.013046253 0.093565643
-0.013144892 0.011538718 0.095080473
-0.01284427 0.010085394 0.096582621
-0.013348228 0.0085876333 0.098259404
-0.014592755 0.007065617 0.099341802
-0.01453275 0.0056352378 0.099948898
-0.014816928 0.003947943 0.10052209
-0.014941806 0.0021879277 0.10080487
-0.01511877 0.00046840997 0.10142265
-0.015199721 -0.0012342315 0.1020804
-0.015221651 -0.003053044 0.10240366
-0.015338711 -0.0048317513 0.10323828
-0.01561124 -0.0067812912 0.10451607
-0.015804786 -0.0086951666 0.10585707
-0.01611824 -0.010665781 0.10783266
-0.01649671 -0.012722523 0.11054712
-0.011219013 0.017923335 0.08469227
-0.01139729 0.016767241 0.086631671
-0.011497755 0.015503691 0.088606082
-0.011391386 0.014293996 0.090623997
-0.011332125 0.013123062 0.092860855
-0.011108074 0.011651235 0.093788482
-0.010697903 0.010270102 0.094966665
-0.010172425 0.0089644948 0.096360393
-0.0096465852 0.0076485206 0.097806804
-0.01245347 0.0056091258 0.099067867
-0.012942098 0.0038330003 0.099907339
-0.01312173 0.0021299561 0.10043824
-0.013206693 0.0003775784 0.10071217
-0.01328112 -0.001384265 0.10104076
-0.013455747 -0.0031435695 0.10161766
-0.013493645 -0.0048681982 0.10254872
-0.013599346 -0.0067050271 0.10344274
-0.01377112 -0.0085087409 0.10477977
-0.01408187 -0.010517279 0.10679821
-0.014422431 -0.012531831 0.10944328
-0.0098100929 0.017805567 0.084108956
-0.0099210972 0.016724184 0.086256094
-0.010076085 0.01536896 0.087951981
-0.010000537 0.01407303 0.08967974
-0.0096128946 0.013017775 0.091437899
-0.009320328 0.011726577 0.092640474
-0.0088567259 0.010364989 0.093510456
-0.0083501907 0.0089728748 0.09438248
-0.0076443371 0.0076893303 0.095421568
-0.0075240615 0.0061525372 0.09675175
-0.0091296127 0.0042276308 0.098948486
-0.011007494 0.0021609275 0.099619918
-0.011360893 0.0003467619 0.10009851
-0.011544192 -0.0014260092 0.10027844
-0.011629314 -0.0032082021 0.10093001
-0.011707644 -0.0049522701 0.10217799
-0.011772876 -0.006627609 0.10314271
-0.011788292 -0.0084168026 0.10403421
-0.01200649 -0.010316293 0.10601481
-0.012334687 -0.012431107 0.10848431
-0.008364209 0.017768053 0.083908468
-0.0084846877 0.016650589 0.085712768
-0.0087209037 0.01530798 0.087125808
-0.0085912347 0.013989103 0.088767245
-0.0081665982 0.012882873 0.090273894
-0.0078361956 0.011551708 0.090770923
-0.0074299583 0.010225728 0.091398023
-0.007195109 0.0087929815 0.092030674
-0.0068328357 0.0072890692 0.093059115
-0.0067380713 0.0057910178 0.094116017
-0.0070873904 0.0040760199 0.095797583
-0.0078071128 0.0022525541 0.097585537
-0.0087017696 0.00044982834 0.099029146
-0.0093536796 -0.0013801923 0.099529445
-0.0098321801 -0.0032572919 0.10040965
-0.0098412298 -0.0048385514 0.10173138
-0.0098650856 -0.006512682 0.10258796
-0.0099392319 -0.0082759596 0.10385278
-0.010179034 -0.010244774 0.10566051
-0.010337139 -0.012314304 0.10771762
-0.010578976 -0.014273629 0.11070842
-0.0069862329 0.017729914 0.083469696
-0.0070100464 0.016620997 0.084927745
-0.0071931165 0.01527761 0.086384431
-0.007251102 0.013849122 0.087575145
-0.0070934743 0.012563312 0.088695794
-0.006520967 0.011507476 0.089677282
-0.0064558829 0.0097884117 0.08918377
-0.0062524104 0.0082229963 0.089839675
-0.0060605425 0.0068214284 0.091066644
-0.0059548449 0.0052913693 0.092172258
-0.0059840842 0.0036216332 0.093516536
-0.0063515329 0.0019196472 0.095152244
-0.0070858053 0.00011439803 0.097130306
-0.007500357 -0.0016901415 0.098737411
-0.0078665148 -0.003329868 0.10023107
-0.0079592019 -0.0048588957 0.1014393
-0.0080570923 -0.0065305391 0.10229746
-0.0081283133 -0.0082016625 0.1036199
-0.0083016995 -0.010329332 0.10534082
-0.0084761893 -0.01235659 0.10731758
-0.0086811688 -0.014514791 0.11063048
-0.0055467715 0.017751807 0.082766868
-0.0055676824 0.016578404 0.084174059
-0.0056997072 0.015230513 0.085479446
-0.0058313878 0.013841356 0.086458042
-0.0059571601 0.012378118 0.087258115
-0.0060633491 0.010941307 0.087233506
-0.0058664219 0.0095561799 0.087413929
-0.0058068838 0.0079185646 0.087702021
-0.0057201912 0.0062922193 0.088510826
-0.0054285191 0.0047947885 0.089968532
-0.0050193747 0.0029318391 0.091448829
-0.0052182907 0.0013670673 0.092993267
-0.0054203346 -0.00029478167 0.09507288
-0.005734663 -0.0018898677 0.098085284
-0.0061171041 -0.0035286967 0.099863522
-0.0062414934 -0.0049941204 0.10115214
-0.0062990994 -0.0066580223 0.10199945
-0.006305784 -0.0083002141 0.10345241
-0.006438625 -0.010342448 0.10512602
-0.0065686912 -0.0123283 0.1073133
-0.0067559378 -0.014562943 0.11057004
-0.00408288 0.016565479 0.083381034
-0.0042951731 0.015239393 0.0849903
-0.0043869289 0.014033212 0.08619269
-0.0045140292 0.012519283 0.086977229
-0.0045206831 0.011009593 0.086936727
-0.0046003344 0.0094167311 0.086621709
-0.0050369143 0.0077381325 0.086194009
-0.0049767396 0.0060670963 0.086464047
-0.004761545 0.0044104857 0.087418787
-0.0037140562 0.002468202 0.090149768
-0.0037543532 0.00070791965 0.091356091
-0.0039183418 -0.00087756512 0.093354903
-0.0040730014 -0.0021222462 0.09758772
-0.0043751351 -0.0036965513 0.099367104
-0.0044722753 -0.005130603 0.1004789
-0.0045370245 -0.0066711977 0.10175726
-0.0045639733 -0.0083844699 0.10324423
-0.0045993798 -0.010324631 0.10512627
-0.0047080065 -0.012360172 0.10755274
-0.0047946624 -0.014600114 0.11060511
-0.0021483675 0.016690636 0.083038315
-0.0025424741 0.015604618 0.085209541
-0.0028998263 0.01417284 0.086494207
-0.002983039 0.012644712 0.0870023
-0.002999753 0.011087707 0.087195933
-0.0030562484 0.0094211148 0.086641476
-0.0033004377 0.0075148465 0.085935749
-0.0033395535 0.0058670361 0.085782111
-0.0030944964 0.004290964 0.086773761
-0.001321397 0.0014804736 0.089514397
-0.0015200482 2.8989833e-05 0.090833895
-0.0017691908 -0.0014790158 0.092455365
-0.0023833597 -0.002260277 0.09699136
-0.0026231483 -0.003689985 0.09932144
-0.0026749414 -0.0051738527 0.10056404
-0.0027363985 -0.0067223758 0.10168042
-0.0028081948 -0.0083576934 0.10332093
-0.0028133439 -0.010248782 0.10501527
-0.0028034709 -0.012392548 0.10748564
-0.0029468024 -0.014727847 0.11024041
-0.00075037911 0.016671529 0.083287589
-0.0010773066 0.015508197 0.085238732
-0.0013304058 0.014159979 0.086873002
-0.001477206 0.012683495 0.087337762
-0.0015098349 0.011126827 0.087607078
-0.0014833753 0.0095364535 0.087543093
-0.0013624552 0.0073928232 0.086599588
-0.0014848226 0.005856514 0.086220659
0.00033706048 0.0032641424 0.087682731
0.00077355991 0.0013505004 0.089517988
0.00045444359 1.8195395e-05 0.091266736
0.00022532545 -0.0013408128 0.093114465
-0.00064671243 -0.0023525974 0.096766315
-0.00088363717 -0.0036650193 0.099265784
-0.00093357381 -0.0051563154 0.10071602
-0.00094856229 -0.0067396564 0.10205384
-0.0010380283 -0.0084339203 0.10334963
-0.0010491255 -0.010302302 0.10559423
-0.0010343913 -0.012607833 0.10785631
-0.00092828914 -0.015020053 0.11049945
0.00067057292 0.016649524 0.083424874
0.00037134218 0.0154581 0.085469157
0.00022102648 0.014166505 0.086949654
2.7479675e-05 0.01264503 0.087887742
2.5963832e-06 0.011003898 0.088171512
0.00040934101 0.0090365363 0.08836367
0.0008686615 0.0072204345 0.088551953
0.0016060125 0.0051583117 0.088652886
0.0021165856 0.0033017539 0.089894883
0.0020283205 0.001748309 0.091060825
0.0020724102 0.00030620801 0.092230864
0.0016425621 -0.0011146704 0.094108194
0.0010844421 -0.0022385328 0.097139351
0.00085310405 -0.0037173599 0.099143825
0.00079013646 -0.0051790969 0.10076142
0.00076090521 -0.0067847366 0.10207183
0.0007460948 -0.008571147 0.10318861
0.00077168143 -0.010410919 0.10555382
0.00085252314 -0.012628168 0.10778959
0.00095523166 -0.015057304 0.11031116
0.0020549665 0.016627979 0.083647132
0.0018208834 0.015440517 0.085670762
0.0016798099 0.014135589 0.087302797
0.001554694 0.012627257 0.08845485
0.0015696653 0.010827684 0.088830918
0.0020508338 0.0088394722 0.089282043
0.002329977 0.007070275 0.09023945
0.0028691478 0.0053238408 0.090645097
0.0030883774 0.0038437741 0.091633253
0.0032456112 0.0023017873 0.092601188
0.0032328081 0.00085487805 0.093713686
0.0029601238 -0.00075136294 0.09531039
0.0027176253 -0.0020761499 0.097992487
0.002642354 -0.0036390966 0.099422544
0.0026066373 -0.0052538444 0.10057912
0.0024898867 -0.0068319654 0.10210523
0.0025401704 -0.0086497655 0.10313068
0.0026503014 -0.010497781 0.10534298
0.0027626695 -0.012694604 0.10764118
0.0028532303 -0.015089118 0.11002523
0.0034700967 0.016584387 0.083729379
0.0032601338 0.015363231 0.085654497
0.003112908 0.014053349 0.08766681
0.0030132141 0.01254525 0.088560447
0.0031168279 0.010898643 0.089083597
0.0035069024 0.009068843 0.089709997
0.0036648053 0.0073650177 0.090972558
0.0039814701 0.0058605294 0.09195812
0.0041487762 0.0044406229 0.092815332
0.0042417375 0.0028967503 0.093809791
0.0043362137 0.0013940039 0.094967261
0.0041665887 -0.0002548405 0.096807025
0.0042824438 -0.0019028452 0.098808356
0.0043162387 -0.0035046462 0.10005639
0.0042886627 -0.0051836125 0.10106177
0.0042998353 -0.0068465336 0.10223451
0.0043280162 -0.0086870315 0.10333484
0.004394291 -0.010660321 0.10546648
0.0046295547 -0.012874722 0.10770883
0.004845886 -0.015106825 0.11028592
0.004845263 0.016537473 0.084115051
0.0046393564 0.01543382 0.085910879
0.004517348 0.014106452 0.087632708
0.0045111873 0.012656878 0.088427484
0.0045611616 0.011118752 0.089408323
0.0049134004 0.0094304765 0.090297163
0.0050869742 0.0078747002 0.091340557
0.0051279124 0.0064352322 0.092845507
0.0053952881 0.0049134325 0.093865126
0.0054519475 0.0034572999 0.094982035
0.0053190538 0.0019108037 0.096649311
0.00550419 0.0001470241 0.098368712
0.0059634009 -0.0017380487 0.099692568
0.0060078236 -0.0033439242 0.10073507
0.0061008846 -0.0051242197 0.10154373
0.006070294 -0.0068516373 0.10262088
0.0060935346 -0.0086601321 0.10386388
0.0061931126 -0.010933735 0.10540608
0.0065315408 -0.01324657 0.10774721
0.0061171534 0.016424606 0.08471109
0.0060953381 0.015462608 0.086083263
0.0060185809 0.014114354 0.087441221
0.0060094483 0.012669061 0.088159226
0.0060142581 0.011235237 0.089427851
0.0063934647 0.0098062614 0.0903401
0.0066010631 0.0083417464 0.091705814
0.0065705567 0.0069169779 0.093267977
0.0066903685 0.0054405755 0.09466815
0.0069048787 0.0035796778 0.09628994
0.0069125891 0.0021464641 0.098149762
0.0074200798 0.0002075868 0.099577732
0.0076949527 -0.0016083884 0.10036588
0.0077671465 -0.0033346363 0.10135083
0.0078468639 -0.0050616828 0.10235173
0.0078494716 -0.0068674954 0.10338535
0.0079373717 -0.0089439452 0.10426013
0.0081580766 -0.011336148 0.10586313
0.0084350044 -0.013788557 0.10769128
0.008696029 -0.015880693 0.10927878
0.0074925059 0.017247332 0.083467051
0.007555048 0.016458817 0.084985346
0.0075225574 0.015469073 0.086358808
0.0074927458 0.014156151 0.087643325
0.0074456614 0.012685536 0.088169754
0.0074903569 0.011136329 0.089459665
0.0076860478 0.0097820293 0.090422727
0.0080254888 0.0086207213 0.091641672
0.0078907907 0.007364918 0.094183289
0.0083527146 0.005486378 0.095161125
0.0085367877 0.0036885901 0.096790351
0.0086929938 0.0021208345 0.099032946
0.0090202512 0.00033083383 0.10021953
0.0093157552 -0.001517595 0.10107443
0.0094689298 -0.0032234136 0.10216888
0.009538589 -0.0050510238 0.10290056
0.0096879071 -0.007010716 0.10398432
0.009865257 -0.0091606779 0.10493871
0.010092888 -0.011677959 0.10614577
0.010280114 -0.014320293 0.10730401
0.0088838683 0.017273653 0.083572507
0.0089490106 0.016399035 0.085088409
0.0089561921 0.015375995 0.086395226
0.0089190276 0.014096182 0.087693855
0.0089793494 0.01259652 0.088500917
0.0090434626 0.011103326 0.089579083
0.0091070207 0.0096703647 0.090386242
0.0092625236 0.008188339 0.091424331
0.0096448408 0.0073602716 0.094413429
0.010087159 0.0053685689 0.095249295
0.010284114 0.0038097368 0.097734205
0.010404848 0.0022213848 0.099473782
0.010599614 0.00047717587 0.10040984
0.010831299 -0.0012314791 0.10164062
0.011147865 -0.003075941 0.10277897
0.011298595 -0.0050002462 0.10339233
0.011518335 -0.0069901091 0.10466661
0.011720635 -0.0091846799 0.10568337
0.011971736 -0.011998196 0.1067036
0.012116317 -0.014625183 0.10770842
0.010252521 0.017335732 0.083680637
0.010319221 0.016459327 0.084869914
0.010256721 0.015384707 0.086161949
0.010379838 0.014081307 0.08737237
0.010475747 0.012680704 0.088224813
0.010565527 0.011217098 0.089435786
0.01061486 0.0098060342 0.090434849
0.010699288 0.0083972067 0.091444135
0.01133308 0.0069910809 0.093931839
0.011655231 0.0052951621 0.095718905
0.011874582 0.0039064526 0.098010242
0.012151904 0.0022730748 0.09969943
0.01241377 0.00056996878 0.10067879
0.012594333 -0.0011773317 0.10177716
0.012867236 -0.0029699865 0.10291591
0.013115982 -0.0048464397 0.10392191
0.01333602 -0.006888309 0.10533158
0.013547779 -0.0095953224 0.10661197
0.013853974 -0.012391735 0.10756285
0.014019017 -0.014613077 0.10833485
0.011682252 0.01766598 0.084369823
0.011740141 0.016591674 0.085123718
0.01164811 0.015458528 0.086253315
0.01185796 0.014095856 0.087487251
0.011990461 0.012689293 0.088201575
0.012021353 0.011288728 0.089281358
0.012089219 0.0098898513 0.090260141
0.012170092 0.008442957 0.09125331
0.012379631 0.0071690064 0.093745619
0.013177073 0.0052100089 0.095868506
0.013564676 0.003745385 0.097916663
0.01389327 0.0022677178 0.099842235
0.014156724 0.00069478509 0.10097637
0.014406146 -0.0010260078 0.10169159
0.014667249 -0.0028496576 0.10317176
0.014873316 -0.0047785263 0.10418856
0.015167085 -0.0069842981 0.10629205
0.015502621 -0.010197016 0.10778519
0.015859546 -0.012625583 0.10901538
0.013071389 0.017728189 0.084450148
0.013111085 0.016739229 0.085471697
0.013122594 0.015503572 0.086280055
0.013352319 0.014100756 0.087829322
0.013476104 0.012711957 0.088491447
0.013489761 0.011352678 0.089432627
0.013574743 0.0099636596 0.090333141
0.013693101 0.0085284468 0.091392465
0.013860687 0.0071215248 0.093235686
0.01471334 0.005077302 0.095793501
0.015389604 0.0037214358 0.098367721
0.015740464 0.0022289965 0.099889725
0.016062487 0.00057569455 0.10127126
0.016136639 -0.0010727122 0.10192347
0.016437681 -0.0028212748 0.10348271
0.016837811 -0.0048809126 0.10525628
0.017229648 -0.0073426059 0.10755119
0.01760312 -0.010142297 0.10934801
0.014582372 0.017903479 0.084908716
0.014666294 0.016883742 0.085887641
0.014718849 0.015670566 0.086811252
0.014870048 0.014243112 0.087698713
0.014973435 0.012874268 0.088697389
0.015074762 0.011443114 0.089755759
0.015139264 0.0099902693 0.09067563
0.015259533 0.0085791145 0.092194796
0.015682079 0.0071967384 0.093911394
0.016183067 0.0053180796 0.095699377
0.017038545 0.0037003199 0.098456256
0.017452225 0.002173631 0.099911153
0.017799022 0.00056127022 0.1012455
0.018034205 -0.0010713731 0.10234111
0.018337633 -0.0029253119 0.10392744
0.018904464 -0.0050926711 0.1063415
0.019639548 -0.0076984349 0.10967055
0.016162043 0.018223315 0.085751638
0.016239351 0.017089676 0.086591847
0.016280014 0.015765833 0.087369069
0.016452912 0.01443122 0.088229284
0.016553018 0.013011853 0.088999204
0.01669148 0.011566116 0.09033341
0.016678311 0.010035948 0.091134951
0.016970893 0.0085980557 0.092460155
0.01751144 0.0071220221 0.094596446
0.017792508 0.0054628933 0.095776521
0.018650781 0.0037950752 0.09831433
0.01915602 0.0021962423 0.099699572
0.019602323 0.00064556755 0.10127902
0.020069053 -0.0011686404 0.1029369
0.020494375 -0.0031424293 0.10489365
0.021133784 -0.0054060202 0.10770228
0.021936288 -0.007565659 0.11072212
0.017748754 0.018425096 0.08652743
0.017836772 0.017215064 0.087263212
0.017854819 0.015856525 0.087797061
0.018026929 0.014554379 0.08882203
0.018182641 0.013111938 0.089635931
0.018499928 0.011591597 0.090531923
0.018334759 0.0100379 0.091206416
0.018487213 0.0085276486 0.092316441
0.019246051 0.0070538828 0.09505216
0.019610008 0.0054962155 0.096329615
0.020641861 0.0038454733 0.098848358
0.021079067 0.0022302088 0.10024364
0.021574143 0.00050807087 0.10170423
0.022114037 -0.00154447 0.1035502
0.022997826 -0.0035752126 0.10623661
0.023434376 -0.0055038324 0.10903387
0.019210257 0.018474961 0.086613275
0.019452682 0.017244078 0.087611496
0.019563805 0.015910815 0.088293716
0.01975273 0.01454918 0.089087874
0.019913463 0.012976889 0.08958213
0.020130346 0.011407764 0.090392686
0.020009914 0.0099090124 0.091227286
0.020141987 0.0084686987 0.092398033
0.020921839 0.0069896807 0.095154509
0.021345355 0.005531054 0.096493371
0.022465399 0.0038140037 0.098993398
0.02293201 0.0021566881 0.10052404
0.023562975 0.00024548516 0.10217265
0.024325421 -0.0017352459 0.10435521
0.025095422 -0.003549417 0.10716291
0.025860861 -0.005585989 0.11043973
0.020671666 0.018415367 0.086551182
0.021028223 0.017189985 0.087676823
0.021365507 0.015789201 0.088427775
0.021470966 0.014417056 0.089256056
0.021500254 0.012929223 0.089558199
0.0216673 0.011378828 0.090195782
0.021599496 0.0098088821 0.091011249
0.02191291 0.0083794659 0.092788786
0.022439139 0.0068830089 0.094718844
0.02304478 0.0053771073 0.096059442
0.024190979 0.0037684983 0.098815702
0.025189811 0.0019764735 0.1016328
0.025627075 8.1659651e-05 0.10286864
0.02637187 -0.0016654808 0.10503723
0.02733626 -0.0035685084 0.10869624
0.022320164 0.018348394 0.086835839
0.022582823 0.017057702 0.087576464
0.022911236 0.015720107 0.088411197
0.023050122 0.014323737 0.089046039
0.023069611 0.012861221 0.089415878
0.023286827 0.011382046 0.090260297
0.023982683 0.0098404698 0.091868468
0.024082402 0.0083608925 0.093298994
0.024388585 0.0066454508 0.094521068
0.025632849 0.0053389356 0.097270764
0.026511816 0.0038012404 0.0997108
0.027650869 0.0017904399 0.1027836
0.028066179 0.00022912513 0.10449633
0.028581396 -0.0015582617 0.10648719
0.029567998 -0.0035822121 0.11012279
0.023893004 0.01823435 0.086841978
0.024216896 0.017001554 0.087751284
0.024464974 0.015639661 0.088487446
0.024575287 0.014231179 0.088902608
0.024664402 0.012800476 0.089418754
0.025028575 0.011407874 0.090310089
0.025577981 0.0099991597 0.091460578
0.025803352 0.0085448241 0.092395432
0.026197156 0.0069487342 0.094121516
0.027552912 0.005493301 0.097444333
0.028734889 0.0037369449 0.10095859
0.030066807 0.0019524195 0.10403454
0.030453542 0.00026675346 0.10605919
0.030862013 -0.0014142469 0.10805708
0.031704586 -0.0033577001 0.11075997
0.025362581 0.018170621 0.086580992
0.025754841 0.016923539 0.087705024
0.026014559 0.015549959 0.088502854
0.026123257 0.014178829 0.088881828
0.026215399 0.012707524 0.089312226
0.026582768 0.011309989 0.089680135
0.026875634 0.0099974247 0.090504691
0.027214222 0.0085923057 0.091653392
0.027590506 0.0070267054 0.093030341
0.029116448 0.0056043244 0.096945256
0.031104511 0.003752673 0.10227806
0.032142833 0.002034897 0.10522663
0.032476503 0.00032156936 0.10675732
0.033065025 -0.0012668909 0.10900089
0.026916344 0.018106431 0.086751424
0.027259341 0.016886014 0.087685801
0.027578799 0.015534121 0.088302396
0.02783555 0.014198113 0.089021072
0.028030423 0.01271503 0.089129612
0.028148385 0.011297639 0.089487888
0.028329065 0.0099599157 0.090190321
0.02871356 0.0086067794 0.091554135
0.030030647 0.0073940628 0.094890893
0.030816162 0.0056847017 0.097145192
0.033525709 0.0036333224 0.10360315
0.034265298 0.0021703313 0.10646118
0.034783885 0.00049258326 0.10829895
0.035416409 -0.0012176994 0.11050357
0.028059782 0.01799956 0.085845843
0.028742133 0.016886285 0.087597996
0.029118793 0.01557667 0.088321924
0.029360831 0.01417329 0.088654071
0.029485432 0.012676606 0.088832334
0.029609023 0.011258832 0.089305326
0.029726343 0.0099023404 0.08989989
0.030291447 0.0086366357 0.091757946
0.031566862 0.0074318713 0.094770506
0.03220468 0.0057607712 0.096431732
0.036309071 0.0037180646 0.10630798
0.036891945 0.0019609628 0.10807314
0.0371731 0.0001762577 0.10941107
0.038039498 -0.00198067 0.11074077
0.028965233 0.01781554 0.084336139
0.02989378 0.016822584 0.086625673
0.030389493 0.015466247 0.087662011
0.030756211 0.014127932 0.088372946
0.030917309 0.012647999 0.088623941
0.031089367 0.011239627 0.089201756
0.031463314 0.0099196341 0.090371445
0.031798944 0.0086452737 0.091401607
0.032738168 0.0072917873 0.093701594
0.03487118 0.0053518023 0.09852469
0.038915515 0.0034856102 0.10716676
0.039338406 0.001719002 0.10881151
0.039878227 -0.00037802383 0.10995559
0.040200554 -0.0020978621 0.11087688
0.030777257 0.016597776 0.085056394
0.031490389 0.015303595 0.086471513
0.032019425 0.013968864 0.0873904
0.032270536 0.012525645 0.08815112
0.032497708 0.011085101 0.088885948
0.0329349 0.009737201 0.090187557
0.033398319 0.0084466711 0.091550753
0.0343059 0.0070886211 0.093837462
0.039063387 0.0047508148 0.1028828
0.040848136 0.0032609061 0.10722964
0.041518249 0.0014157327 0.10905331
0.041914701 -0.00063748437 0.10995057
0.042585298 -0.0023687324 0.11082806
0.032427594 0.015216888 0.084608249
0.03303872 0.013843737 0.085812233
0.033687189 0.012467087 0.087748945
0.034069475 0.010956689 0.088752769
0.034407374 0.0095969141 0.089896329
0.034895197 0.0083320411 0.091265075
0.036912754 0.0067374744 0.095901936
0.041122198 0.0046088914 0.10354104
0.042547356 0.0031955943 0.10692624
0.043230172 0.0013725981 0.10837281
0.043742396 -0.00070985139 0.10942622
0.043966107 -0.0026328573 0.10988434
