ply
format ascii 1.0
comment PCL generated
element vertex 346
property float x
property float y
property float z
element camera 1
property float view_px
property float view_py
property float view_pz
property float x_axisx
property float x_axisy
property float x_axisz
property float y_axisx
property float y_axisy
property float y_axisz
property float z_axisx
property float z_axisy
property float z_axisz
property float focal
property float scalex
property float scaley
property float centerx
property float centery
property int viewportx
property int viewporty
property float k1
property float k2
end_header
-0.057605401 0.019814795 0.19112206
-0.058033995 0.017159313 0.19264857
-0.054925635 0.024904463 0.18674535
-0.055356719 0.022974767 0.18815608
-0.05573779 0.020082194 0.18962422
-0.056117721 0.017113697 0.19140919
-0.056918852 0.013823031 0.19304259
-0.05695121 0.010574319 0.19473794
-0.05654471 0.007384859 0.19609873
-0.05305665 0.027738921 0.18415098
-0.053077649 0.025764111 0.18483385
-0.052872423 0.023310794 0.18597624
-0.052758776 0.020575179 0.18726574
-0.053012725 0.01747833 0.18921603
-0.054339804 0.013595159 0.19125204
-0.054788269 0.0099192681 0.19340652
-0.055020411 0.0060151191 0.19553711
-0.05443833 0.0020732447 0.19590925
-0.050045706 0.030464236 0.18180636
-0.050692178 0.029041437 0.18245985
-0.050682567 0.026552856 0.18320164
-0.050220158 0.023572005 0.1845635
-0.050504599 0.020776182 0.18651707
-0.051239666 0.01694729 0.18856625
-0.052333884 0.013252843 0.19020291
-0.052604914 0.0091185188 0.19225712
-0.052542947 0.0050757774 0.19321933
-0.052198436 -0.00015737132 0.19250619
-0.052093316 -0.0047886525 0.19271575
-0.052111536 -0.0076977038 0.19378202
-0.048540853 0.03110227 0.18101214
-0.04825379 0.029339161 0.18139292
-0.047991414 0.026688164 0.1823955
-0.048075851 0.02364797 0.18438466
-0.048383191 0.020381797 0.18617493
-0.048940551 0.016622528 0.18773326
-0.050058711 0.012285058 0.18931079
-0.050886646 0.0084039671 0.19071342
-0.050741095 0.0023978252 0.18960781
-0.050439179 -0.0027769713 0.1877856
-0.050288152 -0.0066088554 0.18875243
-0.050386779 -0.010041003 0.1919338
-0.050568432 -0.010434464 0.1956055
-0.051848013 -0.0064876853 0.20154454
-0.050332606 -0.0037589406 0.20912869
-0.046952821 0.034150831 0.17953777
-0.046400506 0.032250937 0.18010083
-0.045839727 0.03031115 0.18075445
-0.045428276 0.027608216 0.18183678
-0.045578551 0.023931809 0.18371293
-0.045529127 0.01999139 0.18524489
-0.046065047 0.015959229 0.18657078
-0.04714673 0.011129468 0.1874267
-0.048711818 0.0060835467 0.18706575
-0.048720263 0.00016953109 0.18505824
-0.048320804 -0.0049048765 0.18354408
-0.047850724 -0.0085741458 0.18432617
-0.045856256 -0.010257985 0.1912965
-0.048766334 -0.0085698003 0.1967553
-0.049162008 -0.0050273887 0.20322403
-0.048472982 -0.0045654629 0.20907316
-0.047728248 -0.0062521389 0.21335736
-0.048118047 -0.011018887 0.2182807
-0.044637818 0.035449464 0.17863461
-0.043695722 0.033206549 0.17970985
-0.043058533 0.031233 0.18058406
-0.042721484 0.028894356 0.18150498
-0.042695265 0.025543261 0.18277203
-0.04257454 0.019811381 0.18403609
-0.043425359 0.015043627 0.18526798
-0.045480236 0.0097943014 0.18567367
-0.046482038 0.0038665542 0.18350835
-0.045570318 -0.0022742152 0.18177013
-0.044435997 -0.0068811676 0.18266129
-0.042772684 -0.0089919288 0.18723288
-0.042693194 -0.0077565438 0.19345033
-0.044986036 -0.0063626529 0.19944479
-0.045323633 -0.004700833 0.20518966
-0.04505863 -0.0055599823 0.20950446
-0.044814009 -0.0082969004 0.21348397
-0.046797652 -0.013915935 0.21879022
-0.04763506 -0.020071456 0.22172962
-0.046773374 -0.024024598 0.22329213
-0.042338327 0.040460087 0.1768496
-0.041886166 0.038540043 0.17754063
-0.040551234 0.036940344 0.1786392
-0.040053885 0.033160895 0.18050925
-0.040022425 0.029851135 0.18165521
-0.039621595 0.026201168 0.18296295
-0.039738107 0.020137649 0.18353416
-0.040962022 0.013938655 0.18414402
-0.043259535 0.0079596536 0.18146522
-0.044313524 0.0016182679 0.17964336
-0.042269919 -0.0044714361 0.18140329
-0.040352549 -0.0067584803 0.18463419
-0.039588753 -0.006032744 0.18992734
-0.040459447 -0.0055352706 0.19471209
-0.041347835 -0.0049192491 0.20004964
-0.042142622 -0.0055280137 0.20563821
-0.041899621 -0.0076688766 0.21026197
-0.042837426 -0.011259047 0.21425176
-0.043865994 -0.014557461 0.21742246
-0.044221379 -0.019018987 0.22082867
-0.044205151 -0.023916399 0.22306503
-0.038975719 0.04429793 0.17426747
-0.03781075 0.043269817 0.17555371
-0.036675856 0.041161738 0.17769007
-0.035804674 0.037284136 0.17974992
-0.036572862 0.0311924 0.18191175
-0.036340535 0.026787734 0.18347564
-0.036864437 0.019800859 0.18340082
-0.037687972 0.013754847 0.18334226
-0.039755672 0.008268619 0.17973912
-0.042276766 3.8508901e-05 0.17893048
-0.039441444 -0.0039960789 0.18218133
-0.037655689 -0.004352977 0.18574575
-0.037369527 -0.0041852971 0.18965791
-0.037812863 -0.0040479233 0.1950988
-0.038059674 -0.0043621715 0.20245028
-0.039104223 -0.0071632266 0.20710139
-0.039364051 -0.0099927532 0.21087371
-0.040091552 -0.013149044 0.21427999
-0.040754434 -0.016228534 0.21683794
-0.040422179 -0.019431133 0.21965633
-0.040491737 -0.023126703 0.22277413
-0.040403351 -0.026210828 0.22413483
-0.034042515 0.045880258 0.17595443
-0.033803381 0.044339113 0.17629126
-0.033190597 0.042143207 0.17779033
-0.032429859 0.039262697 0.17975639
-0.032575469 0.033382419 0.1824358
-0.033665538 0.027865408 0.18383397
-0.034602474 0.019725708 0.1836199
-0.03472317 0.014579733 0.18326299
-0.036606129 0.0085025905 0.18135062
-0.040090047 0.00061701483 0.17830384
-0.037498634 -0.0013491652 0.18156125
-0.035880618 -0.0015346797 0.18561634
-0.035443861 -0.0019851821 0.19019632
-0.035770424 -0.0031531639 0.19534381
-0.035131235 -0.0050499034 0.20358332
-0.036192667 -0.0084674889 0.20817962
-0.036931362 -0.011599907 0.21202892
-0.037141185 -0.014643374 0.21522202
-0.037409339 -0.017490197 0.21748254
-0.037240166 -0.019632641 0.21985109
-0.03663855 -0.022172509 0.22218746
-0.036785506 -0.025232883 0.22444631
-0.031297322 0.047037892 0.17544244
-0.030693144 0.045562919 0.17619076
-0.029760931 0.043192301 0.17765313
-0.028974241 0.040709753 0.17972516
-0.029181868 0.036317982 0.18215896
-0.030545022 0.029244522 0.18430094
-0.032210965 0.020230023 0.18436518
-0.032042567 0.015959764 0.18398605
-0.03302164 0.010882808 0.18284965
-0.036461737 0.0043959366 0.17876585
-0.034860358 0.0036544632 0.18059124
-0.033318266 0.0026240509 0.18355928
-0.032510702 0.00072763895 0.18809918
-0.032636952 -0.0015685171 0.19287944
-0.032581549 -0.006270044 0.20587733
-0.033230804 -0.0093731964 0.20964742
-0.034412012 -0.011891257 0.21265425
-0.033602051 -0.015332934 0.21689849
-0.034112882 -0.017893815 0.21884951
-0.034244727 -0.019691203 0.2206897
-0.034030598 -0.022226511 0.22242393
-0.034292154 -0.024012344 0.22352733
-0.035078827 -0.024969822 0.22463918
-0.027328886 0.047208708 0.17609568
-0.026929278 0.045694742 0.1769308
-0.025982654 0.043404423 0.17846379
-0.025531547 0.040683202 0.1800849
-0.026410971 0.03706824 0.18241864
-0.027886529 0.030463945 0.18514527
-0.02957611 0.020851042 0.18562226
-0.029427361 0.017166132 0.18540496
-0.029005831 0.015166252 0.1855125
-0.031554166 0.011524307 0.18331081
-0.031257208 0.0093535585 0.1830741
-0.030531524 0.0063957176 0.18514034
-0.02942575 0.0038797397 0.18868408
-0.027709218 0.0011703689 0.19525784
-0.030169366 -0.0046080113 0.20451382
-0.031180127 -0.0086999452 0.21041462
-0.030572977 -0.012949025 0.21590281
-0.030994166 -0.016731733 0.21882649
-0.031537242 -0.018876532 0.21999401
-0.032298692 -0.021158466 0.22211526
-0.032157756 -0.022464601 0.22299132
-0.032381508 -0.023452306 0.22421786
-0.03214195 -0.024697157 0.22682647
-0.022874882 0.045066487 0.17853545
-0.022554601 0.043463234 0.17969565
-0.022691326 0.040992327 0.18084493
-0.023196382 0.038573749 0.18172911
-0.024268141 0.035963777 0.18343325
-0.025120089 0.030058194 0.18683274
-0.0262865 0.022908015 0.18796505
-0.026365459 0.019937178 0.18795782
-0.026680196 0.018505031 0.18786134
-0.026017968 0.018364195 0.18825693
-0.025755061 0.015870368 0.1880722
-0.025150944 0.012903143 0.18869422
-0.023441281 0.0082797557 0.19221668
-0.022435004 0.0019686664 0.20202078
-0.02619539 -0.0045909765 0.20773925
-0.028317418 -0.0085232202 0.21248364
-0.02795472 -0.012542279 0.21630158
-0.028076427 -0.01552943 0.22082259
-0.02824505 -0.018128471 0.22137073
-0.028716991 -0.02027232 0.22254466
-0.029189909 -0.021355737 0.22328052
-0.029118707 -0.022661528 0.22440743
-0.028916817 -0.024825795 0.22714041
-0.019479727 0.041651774 0.1818998
-0.019938998 0.039454959 0.18317956
-0.020419456 0.036833052 0.18388936
-0.02088986 0.03426953 0.185458
-0.02045691 0.031044463 0.18861941
-0.019908883 0.025953311 0.19216684
-0.02147731 0.02378347 0.19089334
-0.023548607 0.021664761 0.19037507
-0.022222988 0.020190012 0.19258219
-0.021728341 0.017966134 0.1931901
-0.021020701 0.015179933 0.19350547
-0.01921672 0.0089917807 0.19789125
-0.020086337 0.002914706 0.20433432
-0.022369863 -0.0025363064 0.20897546
-0.024529019 -0.0081569077 0.21436933
-0.02487809 -0.012035969 0.21835999
-0.025557725 -0.015185738 0.22192945
-0.026135108 -0.017700234 0.22250256
-0.026371326 -0.019610692 0.22310981
-0.026269199 -0.020540597 0.22289339
-0.026260294 -0.022299677 0.22373271
-0.026056835 -0.0249309 0.22766495
-0.016955219 0.038496561 0.18499866
-0.016939938 0.036311012 0.1859324
-0.017197674 0.033460055 0.18770023
-0.017464194 0.02991665 0.19038573
-0.014372709 0.026358956 0.19410616
-0.01608189 0.024354454 0.19444336
-0.01906817 0.022217756 0.19433025
-0.018546687 0.01970797 0.19590726
-0.018054031 0.017814728 0.19650932
-0.016905311 0.01474032 0.19776781
-0.016312335 0.0086079901 0.20241037
-0.017341783 0.0033761854 0.20689978
-0.019272417 -0.0010985333 0.21033935
-0.021259557 -0.0079070041 0.21617994
-0.021619655 -0.011736486 0.22092891
-0.022600519 -0.014536235 0.22315496
-0.023498135 -0.017502939 0.22363688
-0.023581689 -0.019404659 0.22395211
-0.023674281 -0.020465104 0.22343329
-0.02363365 -0.022391418 0.22485858
-0.02308928 -0.025215017 0.22976704
-0.01385911 0.035835229 0.1874059
-0.013995661 0.032846861 0.18918538
-0.013531232 0.029686339 0.1914859
-0.010066176 0.026366342 0.19529918
-0.011529692 0.023971835 0.19709732
-0.014703237 0.022382034 0.19646294
-0.015243965 0.019221216 0.19791412
-0.013693718 0.01600961 0.2002866
-0.012674174 0.012315361 0.2031002
-0.013324935 0.0088567911 0.20549008
-0.014302758 0.0044993786 0.20843615
-0.015607907 0.0002157 0.21261269
-0.018001031 -0.0078088073 0.21847002
-0.018416602 -0.011217447 0.22202724
-0.019613177 -0.013959042 0.22381197
-0.02114656 -0.016168468 0.22408392
-0.021408295 -0.018499739 0.22444084
-0.021053165 -0.020440998 0.22489701
-0.020096671 -0.023340413 0.22868867
-0.019370612 -0.027417382 0.23423585
-0.010463444 0.03228515 0.19047555
-0.0079950122 0.029996432 0.19332759
-0.0062658917 0.026432699 0.19756278
-0.0068996209 0.023472074 0.199954
-0.0099516651 0.022079322 0.1994752
-0.011988313 0.019529346 0.19978327
-0.010685426 0.015746579 0.20299992
-0.010416124 0.012225897 0.20560029
-0.010730698 0.0092518898 0.20722556
-0.01177746 0.0058524818 0.20970374
-0.012135092 0.000290397 0.2153194
-0.013312309 -0.0058179973 0.22004601
-0.014897046 -0.0092950081 0.22201495
-0.01556399 -0.012526714 0.22437082
-0.017903678 -0.014568504 0.22434998
-0.01868994 -0.017368669 0.22559725
-0.018205291 -0.020450234 0.22709116
-0.015863735 -0.024386806 0.23251709
-0.0039848336 0.029014492 0.1966988
-0.0020675722 0.026195658 0.19927149
-0.0015056817 0.023674775 0.20082617
-0.0033376575 0.021328593 0.2021503
-0.0070576672 0.019607836 0.20234853
-0.0082315048 0.016429981 0.2048821
-0.0081534171 0.012521401 0.20719671
-0.0084955851 0.0098197144 0.20884967
-0.0092029823 0.0060127764 0.21237424
-0.0084972214 -0.00018739862 0.21778017
-0.0095020439 -0.0054124487 0.22168303
-0.010416216 -0.0084569305 0.2229055
-0.011185205 -0.011622413 0.22528347
-0.012520968 -0.014294342 0.22646172
-0.014722269 -0.016488763 0.2270916
-0.015431761 -0.019908369 0.22889516
-0.013696598 -0.023180027 0.23216556
6.9096102e-05 0.027548611 0.19884659
0.0019798109 0.02569907 0.19962743
0.002537207 0.023253007 0.2010396
0.0015164131 0.021070663 0.2024838
0.00031750742 0.019056091 0.2042688
-0.0010991002 0.016771363 0.20611879
-0.0042134109 0.013145578 0.20865448
-0.004594035 0.0086402902 0.21200757
-0.0044469144 0.0042985799 0.21552896
-0.0042516319 -0.00033539388 0.21913527
-0.0056234086 -0.0048605623 0.22232404
-0.0062752413 -0.0082112094 0.22371234
-0.0069018533 -0.011260653 0.22571078
-0.0083858632 -0.013976829 0.22729297
0.0048373463 0.024521196 0.20002283
0.0053449278 0.022755155 0.20089644
0.00457823 0.020828908 0.20214348
0.0042366455 0.018984813 0.2040147
0.0039224038 0.016985191 0.20632607
0.0030864438 0.012664747 0.20946188
0.0016783789 0.0073596179 0.2130013
0.00018000304 0.0035709853 0.21646057
-0.00078814721 -0.00023973864 0.21942814
-0.0021228746 -0.0045172935 0.22200303
-0.0034874778 -0.0079401787 0.22410937
0.0076941433 0.0223593 0.20123175
0.0075298739 0.020729737 0.20229097
0.0073113246 0.018883744 0.20409003
0.0069299829 0.016658587 0.20675941
0.0057005077 0.013101823 0.20975631
0.004816825 0.0092949094 0.21140559
0 0 0 1 0 0 0 1 0 0 0 1 0 0 0 0 0 346 1 0 0
