ply
format ascii 1.0
comment PCL generated
element vertex 326
property float x
property float y
property float z
element camera 1
property float view_px
property float view_py
property float view_pz
property float x_axisx
property float x_axisy
property float x_axisz
property float y_axisx
property float y_axisy
property float y_axisz
property float z_axisx
property float z_axisy
property float z_axisz
property float focal
property float scalex
property float scaley
property float centerx
property float centery
property int viewportx
property int viewporty
property float k1
property float k2
end_header
-0.056742445 0.029008554 0.18628444
-0.05796349 0.026151815 0.18858457
-0.059786212 0.022748636 0.1914048
-0.060992796 0.019633338 0.19331318
-0.060701393 0.01684526 0.1946566
-0.052296922 0.029850975 0.18342975
-0.053382497 0.028215149 0.18467632
-0.05421206 0.025790334 0.18610828
-0.055298328 0.023151141 0.18873678
-0.057171594 0.019520853 0.19243555
-0.057459492 0.016449902 0.19413114
-0.057653222 0.013923019 0.19526631
-0.058942616 0.010538482 0.19718902
-0.049520336 0.032772593 0.18158105
-0.049701024 0.029575786 0.18262079
-0.050157048 0.027436091 0.18365236
-0.050829705 0.025516905 0.18499631
-0.051951386 0.022905929 0.18793917
-0.052805554 0.019711992 0.19079256
-0.053789109 0.016267214 0.19326982
-0.054340526 0.01366238 0.19516717
-0.055132359 0.0097666048 0.19817966
-0.053935856 0.0017579683 0.19579549
-0.055192605 0.00038508791 0.20040177
-0.044093836 0.036383297 0.1798868
-0.046134546 0.034331791 0.18068546
-0.047279585 0.030276675 0.18227264
-0.047785692 0.0275156 0.18393372
-0.048359163 0.02542362 0.18569349
-0.04938858 0.022146383 0.18891697
-0.050438605 0.018606696 0.19225022
-0.051612496 0.015471661 0.19399634
-0.052090231 0.01225182 0.19629596
-0.05156602 0.0069845673 0.19648427
-0.050802086 0.0024081669 0.19254565
-0.051588822 -0.0013106328 0.19933639
-0.053267803 -0.00071404682 0.20412907
-0.054063458 -0.0017748363 0.20800281
-0.041834168 0.03690717 0.17988674
-0.042326808 0.032974705 0.18176925
-0.044310473 0.030219615 0.18330279
-0.045001507 0.027254233 0.18517326
-0.045390412 0.024942191 0.18724637
-0.046367243 0.021529412 0.19035865
-0.047543976 0.017540978 0.19294284
-0.048893131 0.01435717 0.19486387
-0.048976313 0.010796428 0.19585901
-0.047951888 0.0057964022 0.19337137
-0.046556648 0.002153503 0.19152178
-0.049231101 -0.0018319474 0.19925335
-0.050203353 -0.0019888203 0.20454083
-0.051066767 -0.0029295755 0.2087525
-0.051987246 -0.0042574955 0.21239556
-0.053593762 -0.0067375982 0.21402153
-0.055285096 -0.0093465801 0.21722741
-0.039034043 0.04151617 0.17753488
-0.039574344 0.037961856 0.17980623
-0.039926853 0.033079591 0.18260306
-0.041693449 0.02952574 0.18450372
-0.042330336 0.026975136 0.18660584
-0.042625975 0.024696656 0.18912356
-0.041843679 0.021823449 0.1917682
-0.044177402 0.017586688 0.19425808
-0.046292465 0.014487125 0.19533595
-0.047325738 0.011178941 0.19550952
-0.045562565 0.0061580222 0.19369906
-0.043330602 0.0020148533 0.19265784
-0.046002787 -0.0033180076 0.19885284
-0.046885818 -0.00384346 0.20465203
-0.047618639 -0.0041400758 0.20942432
-0.048567653 -0.0059987893 0.21237218
-0.05068114 -0.0076111876 0.21570571
-0.053077698 -0.010808311 0.21825081
-0.054551762 -0.012325265 0.22075775
-0.036464252 0.041532788 0.17840831
-0.036732782 0.03819019 0.17972305
-0.037456192 0.03372876 0.18250686
-0.038453877 0.030063672 0.18582457
-0.039261721 0.027525024 0.18808839
-0.038605303 0.025237471 0.19021742
-0.038351499 0.0225325 0.19242175
-0.041655101 0.018246293 0.19462499
-0.04314575 0.015455627 0.19620426
-0.044578418 0.011153701 0.19627652
-0.042998798 0.0069032642 0.19518577
-0.040584207 0.0016969587 0.19559357
-0.040894222 -0.0050774296 0.20173427
-0.043590896 -0.0059157722 0.20619985
-0.045119464 -0.0064623533 0.21024835
-0.045476329 -0.0072537004 0.21323554
-0.047537707 -0.0091531407 0.21596383
-0.050017465 -0.010364465 0.21842933
-0.052048147 -0.011949084 0.22101933
-0.050092693 -0.016100967 0.22362638
-0.033744719 0.041782733 0.17877801
-0.034083474 0.03825061 0.18033628
-0.034892399 0.033758786 0.18355007
-0.034455005 0.031425271 0.18637596
-0.035105959 0.028062331 0.18884182
-0.035347793 0.0255937 0.19087154
-0.035645101 0.022867758 0.19319402
-0.038229153 0.018957527 0.19568183
-0.039365731 0.016252369 0.19825526
-0.041010633 0.011515195 0.19801682
-0.040287241 0.0077280491 0.19693686
-0.038195748 0.001243803 0.20076479
-0.038493752 -0.0041616377 0.20474073
-0.040139638 -0.0054554823 0.2080051
-0.041849915 -0.0067548999 0.21164471
-0.043981437 -0.008106851 0.21469145
-0.045254186 -0.0099929031 0.21660432
-0.047563128 -0.011245173 0.22006005
-0.047245793 -0.014309433 0.22175658
-0.044072807 -0.018475356 0.22309572
-0.0404706 -0.02296067 0.2249999
-0.030469632 0.042232167 0.17878008
-0.030926971 0.039205931 0.18049504
-0.031822033 0.034702767 0.18437921
-0.031352237 0.032776147 0.18630365
-0.032040872 0.028994406 0.18945509
-0.032295778 0.026320064 0.19110122
-0.032590672 0.023264803 0.19329518
-0.034358643 0.019576009 0.19630682
-0.035320349 0.01708173 0.19874205
-0.037710879 0.012731688 0.20047015
-0.037509758 0.0080640074 0.20015323
-0.035964441 0.00094900141 0.20163612
-0.036173668 -0.0026047502 0.20603442
-0.037712641 -0.0041536633 0.20936656
-0.039783884 -0.0060191052 0.2129679
-0.041808039 -0.0083229402 0.21481277
-0.043439478 -0.010726528 0.21686971
-0.043180589 -0.013416161 0.21919358
-0.041032344 -0.016813224 0.22026294
-0.037996404 -0.020556916 0.22339471
-0.037235491 -0.023257008 0.22595453
-0.027276985 0.042077269 0.17955951
-0.027505903 0.039124794 0.18101847
-0.027987624 0.036297299 0.18384854
-0.028412249 0.033317022 0.18664187
-0.028996389 0.030208813 0.18954007
-0.029401554 0.026823713 0.19210468
-0.029901311 0.022790287 0.19451365
-0.030799605 0.019474281 0.19708402
-0.031387579 0.016483076 0.19974986
-0.031918194 0.011670405 0.20165466
-0.033461727 0.0071073649 0.20266435
-0.03295802 0.0010726393 0.20483229
-0.034357086 -0.0012549954 0.20752792
-0.035998069 -0.002945788 0.21057139
-0.037884243 -0.0044698436 0.21506068
-0.039607052 -0.0094336402 0.21657534
-0.040858109 -0.011714816 0.21752918
-0.038074803 -0.014599577 0.21888582
-0.035461787 -0.017740237 0.22254071
-0.034257192 -0.020730415 0.22538988
-0.033344246 -0.023345271 0.22866498
-0.02421294 0.041973211 0.18064833
-0.024468295 0.039214771 0.18155226
-0.024905821 0.036581468 0.18389796
-0.02569571 0.034092613 0.1865069
-0.026213583 0.030583031 0.18986624
-0.026820099 0.027158624 0.19294639
-0.027379237 0.02293241 0.19555724
-0.027798712 0.019580361 0.1984988
-0.028042022 0.015335144 0.20184001
-0.028347066 0.011902604 0.2045473
-0.028524684 0.008945208 0.20707577
-0.031083841 0.0026422117 0.20756017
-0.031795006 -0.00026481415 0.21033248
-0.033286013 -0.0026723943 0.2133597
-0.03516997 -0.0075562852 0.21623659
-0.037216794 -0.010011422 0.21649122
-0.036568385 -0.011976102 0.21759109
-0.033261571 -0.014815381 0.22115673
-0.03109224 -0.017670268 0.22510314
-0.03025382 -0.020538591 0.22712916
-0.028968852 -0.024306396 0.23091552
-0.021052485 0.042484604 0.18158406
-0.02155765 0.039279856 0.18274245
-0.022091547 0.03665005 0.18428086
-0.022944329 0.034501307 0.18683264
-0.023567444 0.031478938 0.19014834
-0.023709834 0.027684677 0.19418478
-0.024141181 0.022316644 0.19798905
-0.024291033 0.018774418 0.20074591
-0.025040675 0.014568659 0.20422702
-0.025399966 0.011748896 0.20638922
-0.025824178 0.0087383594 0.2089909
-0.027425518 0.0038313458 0.20941329
-0.027621068 -0.000224185 0.21295525
-0.028661819 -0.0042627221 0.21544108
-0.029898211 -0.008850351 0.21845481
-0.032300182 -0.011081439 0.2181889
-0.030704083 -0.012502851 0.21976504
-0.028530156 -0.014545243 0.22360037
-0.027258744 -0.017428832 0.22654143
-0.026411828 -0.020732839 0.22855559
-0.02578813 -0.023695113 0.23109093
-0.024515415 -0.026598541 0.23373754
-0.01810869 0.042806242 0.18299353
-0.018613007 0.039921489 0.1848581
-0.01900252 0.037011787 0.18554236
-0.019497065 0.034363616 0.18777579
-0.019986177 0.031495444 0.19009723
-0.020858407 0.028340664 0.19410588
-0.020968039 0.023028821 0.19924553
-0.02157896 0.019008715 0.20175023
-0.022068806 0.014571588 0.2048627
-0.022416944 0.011411325 0.20727389
-0.023080558 0.008631506 0.21017444
-0.022013403 0.0043426249 0.21182336
-0.022667935 0.0005315232 0.21464598
-0.024119213 -0.0034846263 0.21683685
-0.025528276 -0.0074721412 0.21961577
-0.026547622 -0.011826699 0.22289954
-0.026451191 -0.012764615 0.22246419
-0.025120715 -0.014628845 0.22567536
-0.023587521 -0.018155022 0.22803241
-0.023149543 -0.021306163 0.22864091
-0.022496548 -0.024258576 0.23113465
-0.020452678 -0.026892453 0.23533706
-0.015730213 0.04004471 0.18580316
-0.015911723 0.037388738 0.18705766
-0.016090821 0.034448471 0.18872364
-0.015926229 0.031734012 0.19082597
-0.015798857 0.028516775 0.19378756
-0.01771649 0.023815708 0.19969687
-0.019103972 0.01888085 0.20259678
-0.019088287 0.014215117 0.20506819
-0.019212436 0.011262286 0.20747615
-0.018697713 0.0087736445 0.20982282
-0.017540272 0.0058734058 0.21276893
-0.017657677 0.0028948197 0.215379
-0.017631445 -0.00053011387 0.21891628
-0.01909841 -0.0043753604 0.22171237
-0.020822493 -0.008225237 0.22385475
-0.01973265 -0.012134891 0.2250144
-0.018651223 -0.015059675 0.2270004
-0.018527878 -0.018311473 0.22804704
-0.018043118 -0.021342253 0.22955616
-0.017078428 -0.024124723 0.23269983
-0.015763704 -0.026550028 0.23659115
-0.012850688 0.037590962 0.18799172
-0.012642145 0.034391496 0.18969317
-0.012431598 0.031615794 0.19161034
-0.01247669 0.028836131 0.19356382
-0.013681754 0.025640704 0.19794942
-0.015361155 0.021004757 0.20226766
-0.016263712 0.014056234 0.20581889
-0.01640428 0.011621607 0.20835151
-0.015213793 0.0096282298 0.21070065
-0.014023334 0.0069508022 0.21330483
-0.013651659 0.0039146845 0.21606693
-0.013396911 0.0014762329 0.21876244
-0.014118385 -0.0012811008 0.22181034
-0.014072549 -0.0048058559 0.22493915
-0.012982601 -0.009325644 0.22606888
-0.012984611 -0.013965105 0.22757685
-0.012961197 -0.017126061 0.22929622
-0.012959399 -0.02040231 0.23117353
-0.012051363 -0.023548601 0.23488395
-0.0099401549 0.034147143 0.19017021
-0.009635427 0.031750109 0.19202596
-0.0093348725 0.029122513 0.1942021
-0.0095869554 0.026308 0.1977282
-0.010513889 0.022893388 0.20181212
-0.014260522 0.014261161 0.20670772
-0.012814263 0.013819375 0.20906974
-0.011552373 0.010377759 0.21163793
-0.010734262 0.0078271255 0.21352091
-0.0099268081 0.0056822342 0.21642643
-0.010189035 0.0020143292 0.21893199
-0.010520967 -0.0011447312 0.22242489
-0.010196809 -0.004544137 0.22486469
-0.010085785 -0.0083761858 0.22576225
-0.008900133 -0.012657313 0.22710782
-0.0084647965 -0.016440045 0.23008679
-0.0085223345 -0.019757448 0.23186398
-0.0074908612 -0.02306683 0.235112
-0.0066856267 0.031939328 0.19260493
-0.0057408414 0.029538861 0.19516183
-0.0048506674 0.026165312 0.199002
-0.0079904087 0.021944083 0.20231992
-0.011135545 0.016485235 0.20728527
-0.0094112875 0.014146961 0.20971805
-0.0080378205 0.01141039 0.2113338
-0.0073393476 0.009203719 0.21324791
-0.0064921044 0.0060818237 0.21621633
-0.0064487951 0.0021916137 0.21935254
-0.0066633271 -0.0013046265 0.22235021
-0.0067894575 -0.0044678324 0.22379401
-0.006791506 -0.0077987988 0.22606064
-0.0058912211 -0.011538011 0.22672002
-0.004898225 -0.0155682 0.2298492
-0.0047638966 -0.019113868 0.23122075
-0.0017830315 0.028231051 0.19663502
-0.0024789607 0.025681868 0.19869834
-0.0033574218 0.023431046 0.20082873
-0.0059826989 0.020064056 0.20468757
-0.0070840823 0.016100576 0.20896693
-0.00470897 0.012930849 0.21122718
-0.0034393405 0.0095360298 0.21327816
-0.0030320291 0.006157537 0.21582399
-0.0026307052 0.0024356113 0.21830058
-0.0031290643 -0.0012883989 0.22154419
-0.0037130662 -0.0043129344 0.22280167
-0.0034514556 -0.0071526123 0.22522317
-0.0025516939 -0.010795459 0.22647536
0.00015242826 0.028629458 0.19727853
0.00036232269 0.027014809 0.19822222
0.00030317713 0.024442192 0.20040402
0.00010812518 0.021841535 0.20286514
-0.0015176886 0.01817783 0.2064184
-0.0015044804 0.013959272 0.2097967
0.00041353898 0.0091638062 0.21280037
0.00037284271 0.0060469569 0.21477322
0.00079207978 0.0028184573 0.21652056
0.00052191358 -0.0012186164 0.22007564
-0.00095916126 -0.0041075842 0.22242589
0.0036676636 0.027854018 0.19887491
0.0040193177 0.025066273 0.2004133
0.0038403249 0.022345573 0.20247123
0.0030597432 0.018826215 0.20576842
0.0021669427 0.015255751 0.20830376
0.0033586202 0.0095759556 0.21142663
0 0 0 1 0 0 0 1 0 0 0 1 0 0 0 0 0 326 1 0 0
