ply
format ascii 1.0
comment PCL generated
element vertex 326
property float x
property float y
property float z
element camera 1
property float view_px
property float view_py
property float view_pz
property float x_axisx
property float x_axisy
property float x_axisz
property float y_axisx
property float y_axisy
property float y_axisz
property float z_axisx
property float z_axisy
property float z_axisz
property float focal
property float scalex
property float scaley
property float centerx
property float centery
property int viewportx
property int viewporty
property float k1
property float k2
end_header
-0.055605151 0.031762321 0.18605344
-0.05656096 0.028695429 0.1867677
-0.057618033 0.025758829 0.1883584
-0.058359217 0.02274356 0.18968466
-0.058431555 0.01992386 0.19127591
-0.051035479 0.033923063 0.182074
-0.051933419 0.031337421 0.18374839
-0.052452944 0.028390223 0.18420348
-0.053403996 0.02541762 0.18625998
-0.054277454 0.022529302 0.18838888
-0.054557297 0.019725163 0.19042136
-0.054653343 0.016994806 0.19172403
-0.055760723 0.013940295 0.19454663
-0.047342479 0.036708269 0.17920403
-0.047735367 0.03377942 0.18037051
-0.048192557 0.030878261 0.18155222
-0.04885805 0.028164441 0.18288083
-0.04993818 0.025260072 0.18575278
-0.050457854 0.022628039 0.18769905
-0.050772198 0.020048723 0.18982045
-0.05138687 0.017273912 0.19217081
-0.052457616 0.014344807 0.19487685
-0.05402999 0.010987023 0.19935121
-0.055513464 0.0069293198 0.20543967
-0.043812461 0.039191477 0.17743437
-0.044259537 0.036687598 0.17820515
-0.044670153 0.033778895 0.1794738
-0.04511331 0.03101645 0.18123628
-0.045765661 0.028272595 0.18344598
-0.046789814 0.02529325 0.18622012
-0.047283124 0.022901317 0.18864559
-0.047806285 0.01995619 0.19068632
-0.048735268 0.017182041 0.19340372
-0.049681153 0.014319748 0.19655848
-0.051002 0.011194404 0.20073465
-0.052303005 0.007331227 0.20614129
-0.05330383 0.0034290028 0.21073492
-0.053549502 0.00019565799 0.2131194
-0.04106386 0.039466005 0.17787264
-0.041249104 0.036681559 0.17899922
-0.041709561 0.033866409 0.18017073
-0.042221036 0.031232724 0.18242274
-0.042690158 0.028658424 0.18442921
-0.043450739 0.025629157 0.18681969
-0.044129033 0.022629913 0.18882945
-0.044616967 0.019530477 0.19119719
-0.045630101 0.016980069 0.19443864
-0.047072276 0.014216492 0.19896695
-0.048067413 0.01107395 0.20315346
-0.049214549 0.0078036292 0.20766532
-0.050077092 0.0038299228 0.21156184
-0.05030597 0.00041788784 0.21439855
-0.050456837 -0.0029729542 0.21651134
-0.050633676 -0.0068085422 0.21829601
-0.050379023 -0.010738133 0.22149809
-0.037925892 0.042242095 0.17631952
-0.038356904 0.039768029 0.17855524
-0.038550202 0.036916781 0.1797781
-0.038895432 0.034078721 0.1814785
-0.039346356 0.031447519 0.18344809
-0.039881304 0.028736435 0.1851998
-0.040243138 0.025916226 0.18735589
-0.040741142 0.022449126 0.18989217
-0.041316174 0.019219765 0.19169046
-0.042412106 0.016626034 0.19549711
-0.044236984 0.014053428 0.20095909
-0.045093793 0.010960529 0.20492007
-0.045903727 0.0076318025 0.2095122
-0.04671669 0.0043794862 0.21232934
-0.046880517 0.00068651029 0.21565604
-0.046993162 -0.0029464888 0.21774554
-0.047266126 -0.0070068357 0.21917692
-0.047407314 -0.011104356 0.22156297
-0.047254786 -0.01529594 0.22486268
-0.035220806 0.042510021 0.1771688
-0.035502221 0.039911643 0.17898239
-0.035897046 0.037263021 0.18062085
-0.036246438 0.034429122 0.18269022
-0.03650108 0.031760242 0.18479222
-0.036857173 0.028865729 0.1861233
-0.037169829 0.025912119 0.18827081
-0.038040835 0.022808731 0.19105788
-0.038227111 0.019565862 0.1930325
-0.03921004 0.016803138 0.19689459
-0.040882595 0.014075465 0.20198134
-0.041751001 0.010907057 0.20671324
-0.042324543 0.0074523422 0.21103474
-0.042897895 0.0044295597 0.21373382
-0.043264974 0.00068047305 0.21666791
-0.04358162 -0.00312313 0.21885061
-0.043831017 -0.0070725074 0.21927103
-0.043828599 -0.011018099 0.22111428
-0.043684963 -0.014767227 0.22241077
-0.043247905 -0.019419597 0.22583443
-0.0324081 0.042686157 0.17786294
-0.032703463 0.040174313 0.17974983
-0.033042576 0.037385911 0.18137178
-0.033213425 0.034702141 0.18320666
-0.033546697 0.032153536 0.1858381
-0.033896148 0.029095534 0.18753929
-0.03425169 0.026073039 0.1894698
-0.034967005 0.02328454 0.19201253
-0.03538914 0.020307459 0.19481751
-0.036193036 0.0171113 0.19834717
-0.037361946 0.013946216 0.20248471
-0.038248863 0.010377519 0.20731166
-0.038864635 0.0075141536 0.2115577
-0.039264616 0.004444452 0.21450691
-0.039609004 0.0010526234 0.216885
-0.040005501 -0.0032036945 0.21900834
-0.040248174 -0.0072792443 0.21892841
-0.040203713 -0.011325503 0.22128598
-0.040174883 -0.015267436 0.22198206
-0.040149827 -0.019012313 0.22482204
-0.040363215 -0.022393648 0.22635353
-0.029496843 0.042707901 0.17797805
-0.029798297 0.040257484 0.18006772
-0.030064654 0.037577994 0.18230867
-0.030213585 0.034957267 0.18431199
-0.030531207 0.032217827 0.1867018
-0.030933971 0.029387208 0.18861581
-0.031225888 0.02663256 0.19064745
-0.031919032 0.023900695 0.19331776
-0.032373402 0.021157013 0.19609308
-0.032869283 0.017727206 0.19906546
-0.033919621 0.014256452 0.20393699
-0.034876246 0.0099299271 0.20788616
-0.035197344 0.007456311 0.21103853
-0.03562022 0.0046323952 0.21431725
-0.03591514 0.001089917 0.21693522
-0.036259416 -0.0031484489 0.21837506
-0.036848418 -0.0073755616 0.21959473
-0.036758676 -0.012035757 0.22158913
-0.036697526 -0.015514879 0.22292052
-0.036808833 -0.019010877 0.22379324
-0.036863357 -0.022665136 0.22573841
-0.026543951 0.042610239 0.17832479
-0.026694274 0.039937772 0.17997627
-0.026986439 0.037306178 0.18248627
-0.027208881 0.034793433 0.18461859
-0.027461546 0.032216821 0.18728949
-0.027907049 0.029509082 0.18955591
-0.028292609 0.027099609 0.19192535
-0.028881259 0.024558235 0.19510731
-0.029631251 0.022037152 0.19844879
-0.030172581 0.018545831 0.20178612
-0.03097051 0.015039122 0.20510066
-0.031207468 0.0098483711 0.20822236
-0.03175649 0.0071877586 0.21118458
-0.032140546 0.0045222198 0.21435195
-0.032204214 0.0010851728 0.21666044
-0.03269659 -0.0035029512 0.21896684
-0.033003882 -0.0077456874 0.21938282
-0.032906633 -0.012416889 0.22146896
-0.03309729 -0.015617163 0.22450508
-0.033316839 -0.019299632 0.22486882
-0.033304006 -0.02289186 0.22793455
-0.023638215 0.042790435 0.17907326
-0.023685079 0.04006381 0.18021408
-0.023895906 0.037344415 0.18239017
-0.02420455 0.03484714 0.18506068
-0.024453534 0.032315228 0.18780594
-0.024973543 0.029755989 0.19070217
-0.025575358 0.027374709 0.19348925
-0.026058652 0.024970416 0.19677469
-0.026361531 0.02184497 0.20048143
-0.026781563 0.018445436 0.20337918
-0.027274393 0.014986454 0.20633127
-0.028032485 0.010516491 0.20978431
-0.028075958 0.0074814679 0.21243268
-0.028414154 0.0043936493 0.21539597
-0.028373864 0.00068005046 0.21734686
-0.028935563 -0.0039171115 0.21946308
-0.029231448 -0.0086576976 0.21971555
-0.029348107 -0.012245259 0.22110601
-0.029301219 -0.015646294 0.22440737
-0.029347692 -0.019275283 0.2256238
-0.029426537 -0.023495793 0.22869124
-0.020747511 0.043237429 0.18015325
-0.020902384 0.040448967 0.1817103
-0.02092582 0.037577827 0.18308516
-0.021259815 0.035111498 0.18571819
-0.021464679 0.032390151 0.18829247
-0.021758061 0.029789984 0.19156632
-0.022021487 0.026951626 0.19564612
-0.022492902 0.024499757 0.19881293
-0.023002846 0.021720566 0.20243488
-0.023502588 0.018298136 0.2052626
-0.023924178 0.014868136 0.20801586
-0.024424236 0.01090827 0.21050787
-0.024521828 0.0076188687 0.21378209
-0.024450336 0.0040321462 0.21588047
-0.024596464 7.3583869e-05 0.21758127
-0.024917675 -0.0040139793 0.21978359
-0.025424026 -0.0089015681 0.22013676
-0.025477281 -0.01215473 0.22107223
-0.025508801 -0.015523942 0.22449258
-0.025441768 -0.019260036 0.22606464
-0.025823163 -0.023097286 0.22797573
-0.025682248 -0.026967293 0.23088974
-0.017970011 0.04363019 0.1815962
-0.018066194 0.041149039 0.1837633
-0.018085694 0.038035624 0.18495432
-0.018244946 0.035214666 0.18660928
-0.018343067 0.032424115 0.18900992
-0.018369034 0.029891692 0.1918802
-0.018559018 0.027297586 0.1968621
-0.019274687 0.024670232 0.19987735
-0.01960464 0.021680472 0.20233908
-0.019903535 0.01820918 0.20535752
-0.020286478 0.01492634 0.20821095
-0.020539256 0.011168969 0.21057774
-0.020692449 0.0074998816 0.21367769
-0.020794297 0.0038708362 0.21596703
-0.020901013 -9.2619128e-05 0.21778527
-0.020935226 -0.004174347 0.22053428
-0.02189349 -0.0083076637 0.22131062
-0.021723213 -0.011429834 0.22225463
-0.022021839 -0.015671954 0.22535534
-0.021642592 -0.019282103 0.22611324
-0.021740431 -0.022743737 0.22734827
-0.022051381 -0.026982248 0.23272915
-0.01513582 0.041334882 0.1849287
-0.015212002 0.038397532 0.186499
-0.015123928 0.035390142 0.18788442
-0.01513472 0.032705385 0.19014895
-0.015046841 0.029996796 0.19253367
-0.015417621 0.027532207 0.19697793
-0.015962945 0.024897976 0.20085964
-0.016198047 0.021800933 0.20291962
-0.016426882 0.018455872 0.20513673
-0.01699803 0.01534736 0.20796667
-0.01702272 0.011481619 0.21107689
-0.017103601 0.0076926006 0.21324195
-0.01719893 0.0037618736 0.21579374
-0.017191328 1.2247971e-05 0.21876767
-0.017250035 -0.0037380019 0.22112863
-0.018689372 -0.0073926561 0.22410415
-0.018555503 -0.011063008 0.22474378
-0.018310342 -0.014951477 0.22599506
-0.018058898 -0.018658176 0.22800405
-0.018076591 -0.022605257 0.2296674
-0.018372696 -0.026946673 0.23490307
-0.012086157 0.038669128 0.18760009
-0.011928631 0.03563356 0.18895535
-0.011734978 0.032832108 0.19124283
-0.011926156 0.029873725 0.19272399
-0.012190255 0.027491873 0.19622859
-0.012436064 0.024948375 0.20033559
-0.01285757 0.0219616 0.20368546
-0.013642599 0.018816426 0.20667352
-0.013747523 0.015229315 0.20967562
-0.01347075 0.011308639 0.21166398
-0.013420558 0.0075371824 0.21363524
-0.013502279 0.003982143 0.21629615
-0.013749612 0.00047095519 0.21979591
-0.013902568 -0.0031878429 0.22245081
-0.014296103 -0.006960392 0.224319
-0.014774387 -0.01097825 0.22648375
-0.014919699 -0.014796467 0.22806521
-0.014764722 -0.018632537 0.22959284
-0.014702615 -0.022775797 0.23296267
-0.0088564139 0.035534091 0.18961489
-0.0085381912 0.032809969 0.19166122
-0.0086498801 0.029829813 0.19351928
-0.0088959029 0.027406817 0.19690125
-0.0091689415 0.025204506 0.20117199
-0.010598905 0.021888835 0.2049906
-0.010448302 0.018790632 0.20838998
-0.009963234 0.015033738 0.21082239
-0.0099170413 0.011215809 0.21150513
-0.0097044734 0.0074773915 0.21423851
-0.0098533956 0.0042919405 0.21732986
-0.010084691 0.00077273668 0.22020696
-0.010121085 -0.0029919175 0.22277695
-0.010627349 -0.0069184848 0.22507121
-0.010735145 -0.010884021 0.22548157
-0.011118279 -0.014724403 0.22925842
-0.011041299 -0.018605055 0.23077053
-0.011034249 -0.022993546 0.23516108
-0.0053072092 0.032690536 0.1921062
-0.005237943 0.029938074 0.19468777
-0.00525545 0.027647775 0.19875355
-0.0059229103 0.024842637 0.20174438
-0.0075477622 0.021726085 0.20643416
-0.0070654922 0.018374411 0.20904392
-0.0064665563 0.015127078 0.21069908
-0.0060657915 0.01110185 0.21147524
-0.0060053747 0.0078141103 0.21436158
-0.0060996222 0.0043990947 0.21758115
-0.0062356219 0.00086016918 0.22064257
-0.0063097491 -0.0030121258 0.22236739
-0.0068398667 -0.0069612926 0.22540808
-0.0067537907 -0.010896034 0.22566706
-0.0072087105 -0.014641512 0.22934896
-0.0073651052 -0.018572573 0.23210478
-0.0015022331 0.030208189 0.1968043
-0.001742918 0.028295886 0.19993712
-0.0022313744 0.026123317 0.20276712
-0.0030143398 0.022729 0.20591511
-0.0036474036 0.018616168 0.2083647
-0.0029026549 0.014951147 0.2103295
-0.0024373599 0.011536242 0.21183944
-0.0024076011 0.007924716 0.21440066
-0.0022838959 0.0043706363 0.21643338
-0.0024075143 0.00082653016 0.22003801
-0.0026586163 -0.0029975001 0.22179006
-0.0027667375 -0.0068895938 0.22441502
-0.0029438783 -0.010838979 0.22597541
0.0014963533 0.031242099 0.19954315
0.0016407921 0.029177161 0.20105904
0.0014812785 0.026272204 0.2032066
0.0012485685 0.023268251 0.20511463
0.0005937547 0.01948886 0.20728295
0.00050830428 0.015517873 0.20927978
0.0011630049 0.01169745 0.21115415
0.0012033575 0.0080169095 0.21291539
0.0014009478 0.0045071873 0.21482672
0.001474413 0.00068631041 0.21792229
0.00078652101 -0.0028967073 0.22091934
0.0052319192 0.029334309 0.20205121
0.0051160264 0.026164442 0.20301241
0.0048306654 0.023083072 0.20429091
0.0043952535 0.01942968 0.20666339
0.0040367153 0.015801791 0.20751913
0.0041393586 0.012391977 0.20969127
0 0 0 1 0 0 0 1 0 0 0 1 0 0 0 0 0 326 1 0 0
