ply
format ascii 1.0
comment PCL generated
element vertex 326
property float x
property float y
property float z
element camera 1
property float view_px
property float view_py
property float view_pz
property float x_axisx
property float x_axisy
property float x_axisz
property float y_axisx
property float y_axisy
property float y_axisz
property float z_axisx
property float z_axisy
property float z_axisz
property float focal
property float scalex
property float scaley
property float centerx
property float centery
property int viewportx
property int viewporty
property float k1
property float k2
end_header
-0.056215763 0.030429393 0.18686838
-0.057041977 0.027570361 0.18852176
-0.058181953 0.024675185 0.19098267
-0.058817029 0.021626571 0.19284528
-0.058360137 0.018744895 0.19410746
-0.051644515 0.032011926 0.1825342
-0.052692577 0.029899327 0.18447518
-0.053132221 0.027234795 0.18554144
-0.054060046 0.024563719 0.18825343
-0.055058394 0.021507623 0.19086926
-0.055076044 0.018510599 0.1927965
-0.055053759 0.01552757 0.19363512
-0.055962145 0.011859302 0.19577511
-0.048337061 0.034664668 0.17962031
-0.048437778 0.031815007 0.18095124
-0.049085695 0.029344333 0.18233933
-0.049784746 0.026890289 0.18387
-0.050744761 0.024401398 0.18734287
-0.051296063 0.021899419 0.18957874
-0.051441152 0.018943086 0.19168627
-0.051605403 0.015542815 0.19294959
-0.052128814 0.011293491 0.19428645
-0.05227039 0.0050123977 0.19438954
-0.055290565 0.00026367707 0.20013374
-0.043887224 0.037978809 0.17767899
-0.04495772 0.035388663 0.1785267
-0.045546677 0.032280523 0.18016371
-0.04605224 0.029610056 0.18213472
-0.046775799 0.027177213 0.18424979
-0.047894072 0.024348544 0.18773562
-0.048422534 0.021789184 0.19035985
-0.048805553 0.018440703 0.19229917
-0.048952866 0.014568068 0.19346324
-0.04906714 0.010049893 0.19441071
-0.048931625 0.0049187043 0.19266939
-0.050706103 -0.00029795486 0.19840658
-0.05388891 -0.00055639929 0.20642753
-0.054096695 -0.002591999 0.20981914
-0.041240301 0.038553711 0.17813148
-0.041523207 0.035513218 0.17940132
-0.042372745 0.032603074 0.18083505
-0.042829197 0.03005825 0.18308187
-0.043280404 0.027733847 0.18503766
-0.04446438 0.024595125 0.187626
-0.045291387 0.021230813 0.19038247
-0.045795154 0.017709101 0.19233449
-0.045753609 0.013720228 0.19356728
-0.04579274 0.0085940752 0.19368075
-0.045463711 0.0040348223 0.19291133
-0.047947872 3.1933625e-05 0.1991394
-0.050555285 -0.00092358299 0.20657735
-0.050890855 -0.0028849905 0.21050549
-0.05127364 -0.0051847142 0.21371122
-0.05179121 -0.0088712517 0.21522412
-0.052402455 -0.012045227 0.21923484
-0.038345858 0.041954067 0.17668445
-0.03871876 0.039235644 0.17869121
-0.038952325 0.036047146 0.1802703
-0.03956924 0.032816902 0.18187732
-0.039949663 0.030352285 0.18366137
-0.040365208 0.02782687 0.18539409
-0.040520433 0.024798321 0.18745004
-0.041540217 0.02084573 0.19044848
-0.042601801 0.017673254 0.19180118
-0.043115381 0.013999875 0.19297266
-0.043014411 0.0084637497 0.19357142
-0.042546928 0.0038685587 0.19428433
-0.044907328 -0.0011558748 0.2005246
-0.047089875 -0.0018183541 0.20622869
-0.047290679 -0.0032242972 0.21103776
-0.047749791 -0.0055427281 0.2141711
-0.048763782 -0.0086937211 0.21691386
-0.049478408 -0.012296467 0.22057329
-0.04918588 -0.014846269 0.22401874
-0.035703536 0.042116124 0.17764318
-0.035961952 0.039500333 0.17926386
-0.036426064 0.03665847 0.18084867
-0.036773659 0.03353145 0.18290737
-0.036835477 0.030843213 0.18452351
-0.036861062 0.028052064 0.18585531
-0.03709285 0.025038468 0.18761878
-0.038769562 0.021243341 0.19006993
-0.039170604 0.017843198 0.19137169
-0.039832037 0.01385409 0.19283406
-0.039963122 0.0089563681 0.19415262
-0.039669514 0.0039055452 0.19638355
-0.042037494 -0.0030150262 0.20212874
-0.043395691 -0.0038400833 0.20681839
-0.044081781 -0.0045434604 0.21128853
-0.044287749 -0.0060792821 0.21464935
-0.045288973 -0.0089783659 0.21709697
-0.045613617 -0.011543947 0.22079091
-0.045757249 -0.014416044 0.22320981
-0.043212634 -0.018627882 0.22623754
-0.033046398 0.042333703 0.17835234
-0.03319525 0.039656863 0.18007001
-0.033692684 0.036622424 0.18160459
-0.033445641 0.034007732 0.18361403
-0.033694699 0.031254631 0.18568736
-0.033942901 0.028271567 0.18702678
-0.034348018 0.025155777 0.18867542
-0.035349581 0.021494724 0.19063698
-0.035588395 0.01785773 0.1920549
-0.036254793 0.0136956 0.19329219
-0.036659848 0.0094394935 0.1945671
-0.037060436 0.0040913476 0.19919276
-0.039557703 -0.00097767869 0.20406194
-0.040056247 -0.0026915271 0.20777562
-0.040574551 -0.0043294104 0.21172099
-0.041768637 -0.0067704874 0.21534446
-0.041876752 -0.0090395762 0.21745683
-0.042004213 -0.011905636 0.22135618
-0.041432738 -0.015335408 0.22331212
-0.041536976 -0.018871771 0.22596955
-0.041950207 -0.022359222 0.22767884
-0.030079363 0.042401485 0.17885566
-0.030288285 0.039808217 0.18056798
-0.030579446 0.036798801 0.18254362
-0.030482132 0.034125511 0.18439169
-0.030928111 0.031433366 0.18704121
-0.031338654 0.028782446 0.18844941
-0.03147056 0.025616365 0.19007844
-0.031788919 0.021781027 0.19165343
-0.031910546 0.018282991 0.19306725
-0.032491677 0.013915966 0.19374384
-0.033236675 0.0096298363 0.19634564
-0.035593256 0.0037959791 0.20092121
-0.03648359 0.00054542301 0.20473289
-0.036806691 -0.0013229712 0.20846283
-0.037529632 -0.0037002019 0.21229266
-0.03838525 -0.0065554557 0.21620111
-0.039611209 -0.0091110878 0.21907486
-0.038977943 -0.01266217 0.2222798
-0.038601566 -0.016145572 0.2240978
-0.038810834 -0.019547246 0.22585304
-0.039069831 -0.022910707 0.22812264
-0.027060144 0.042498533 0.1792358
-0.027150614 0.039742898 0.18073526
-0.027295511 0.036966894 0.18321051
-0.027560538 0.034412704 0.18525949
-0.028096452 0.031875212 0.18793017
-0.028667152 0.028984487 0.19033729
-0.028417187 0.025722928 0.19171998
-0.028583286 0.022025617 0.1935792
-0.028652119 0.018404825 0.1953402
-0.029270671 0.014420986 0.19710623
-0.030426115 0.01050294 0.19903661
-0.032933 0.0037863425 0.20283958
-0.033405039 0.0015903108 0.20577602
-0.033925835 -0.00039447928 0.2092483
-0.034119245 -0.0028213752 0.21340443
-0.035444807 -0.0064865132 0.21868676
-0.036280118 -0.0092981635 0.22116353
-0.034880411 -0.01361852 0.2232406
-0.035259478 -0.016847357 0.22591585
-0.035562612 -0.020157292 0.22721286
-0.035732586 -0.023589225 0.23005641
-0.023974184 0.042754449 0.18010736
-0.024013238 0.040014565 0.18105243
-0.024247412 0.037280913 0.18334839
-0.02491845 0.034896564 0.18609063
-0.0251927 0.031991694 0.18891814
-0.025721574 0.028842939 0.19146009
-0.025785632 0.025767006 0.19312543
-0.025757836 0.022138767 0.19547684
-0.025570089 0.018124197 0.19740316
-0.026171297 0.014568198 0.19983315
-0.02669115 0.010975176 0.20221266
-0.029055063 0.0051635164 0.20461391
-0.029312117 0.0024068789 0.20761055
-0.029821478 0.00010925542 0.21152511
-0.029844712 -0.0029799393 0.21643925
-0.031866532 -0.0067486889 0.22035237
-0.031888388 -0.010587371 0.22193265
-0.031669285 -0.014016652 0.22381139
-0.031643283 -0.017336505 0.22684324
-0.03184529 -0.02067806 0.22814021
-0.031825937 -0.024622554 0.23131226
-0.020894138 0.043071806 0.18084908
-0.021045944 0.040091474 0.18227062
-0.021159424 0.037272174 0.1837825
-0.021844411 0.035078064 0.18676664
-0.022354044 0.032289412 0.18942237
-0.022553939 0.028887982 0.19247808
-0.022775173 0.024987491 0.19593458
-0.023176651 0.021589641 0.19846241
-0.023047062 0.017951539 0.2005716
-0.023409786 0.014437879 0.20239609
-0.023882167 0.010792688 0.20454198
-0.025121285 0.0063291318 0.20620665
-0.025398262 0.0034668893 0.21022259
-0.025707832 0.00061068067 0.21389301
-0.026016451 -0.0029054596 0.21741527
-0.02741877 -0.007075056 0.22056535
-0.027985772 -0.011531255 0.2224303
-0.028078258 -0.014310783 0.22419919
-0.028007669 -0.017387453 0.22715047
-0.027856886 -0.020654213 0.22862855
-0.027892444 -0.024103507 0.23046078
-0.027262768 -0.027889511 0.23326373
-0.017962782 0.04331509 0.18185131
-0.017913602 0.040663198 0.18402238
-0.017885061 0.037485056 0.18516168
-0.018363848 0.034890953 0.18735923
-0.01899294 0.032501336 0.18997416
-0.019609351 0.029530929 0.19335371
-0.019999029 0.025548697 0.19788867
-0.020579074 0.02224973 0.20025595
-0.020276306 0.018722711 0.20233376
-0.020096 0.01472115 0.20380117
-0.020609342 0.011137057 0.20591703
-0.020708892 0.0077534867 0.20818567
-0.021396907 0.0044554085 0.21183686
-0.021954594 0.0012498525 0.21478854
-0.022211798 -0.0021486077 0.21779458
-0.022725036 -0.0065453211 0.22193548
-0.024590807 -0.011640906 0.22310548
-0.024522685 -0.014009114 0.22439991
-0.023894161 -0.017064538 0.22675069
-0.023718802 -0.020616129 0.2274546
-0.023690127 -0.024240322 0.22915049
-0.023053665 -0.028471092 0.23402445
-0.014779494 0.040616259 0.18458427
-0.014933045 0.037978314 0.18640187
-0.015235482 0.035221934 0.18842146
-0.015531602 0.032879673 0.19112934
-0.015407619 0.029989993 0.19385517
-0.016838938 0.026317732 0.19867571
-0.017892865 0.02274457 0.20201297
-0.017471898 0.019462999 0.20371115
-0.016976764 0.015705956 0.20491189
-0.017125055 0.012458843 0.20688334
-0.016971989 0.0089658927 0.20988131
-0.01733245 0.0058747283 0.21252878
-0.017651543 0.0022406655 0.21563858
-0.018032884 -0.00091832172 0.21886024
-0.018107884 -0.0041813185 0.22184502
-0.01938222 -0.0099279294 0.22342934
-0.019400246 -0.013421928 0.2245024
-0.019366436 -0.016931126 0.2262608
-0.019273805 -0.020677717 0.22812875
-0.019148167 -0.024619374 0.23083469
-0.018749548 -0.028650388 0.2356389
-0.011882214 0.038380217 0.18762472
-0.011934705 0.035445131 0.18963233
-0.011802553 0.032798432 0.19212589
-0.011844054 0.0297304 0.19377847
-0.012658409 0.026811732 0.19727285
-0.014246257 0.023760553 0.20183726
-0.014626416 0.020037821 0.20534895
-0.014548391 0.0164364 0.20669398
-0.013966099 0.012918433 0.20860894
-0.013564237 0.0096061388 0.21096061
-0.013606215 0.0066086212 0.21397436
-0.013622207 0.0035756386 0.21678104
-0.014246429 0.00031353094 0.22008248
-0.014292576 -0.0033542945 0.22351044
-0.014639861 -0.0082198093 0.22465658
-0.014953802 -0.012942605 0.22654778
-0.015060779 -0.016654704 0.22830424
-0.015309274 -0.020481439 0.2298602
-0.015042261 -0.024790283 0.23347156
-0.0089052226 0.035332385 0.19051582
-0.0086017279 0.032666642 0.19268109
-0.0084991241 0.029589759 0.19454636
-0.008984982 0.026628995 0.19760747
-0.0098937396 0.023904549 0.20162138
-0.012190615 0.019704008 0.20637935
-0.011223839 0.017036267 0.20808958
-0.010459169 0.013136435 0.21024455
-0.010132173 0.0098637166 0.21160175
-0.0098560592 0.0072266469 0.21492302
-0.010058859 0.0036366379 0.21782729
-0.010495652 0.00026488642 0.22110923
-0.01057867 -0.0031652595 0.2236964
-0.011151486 -0.0075172931 0.22521587
-0.010889102 -0.012013848 0.22631054
-0.01111775 -0.016251251 0.22948936
-0.011130763 -0.020242022 0.23126101
-0.010852898 -0.024539378 0.23534925
-0.0054070861 0.032515414 0.19330736
-0.0051738047 0.029617634 0.19569577
-0.0049614548 0.026429817 0.19926812
-0.0069522648 0.023502778 0.20206617
-0.0092651341 0.020042267 0.20683984
-0.0081133535 0.01685521 0.20904709
-0.0069905538 0.013626125 0.21039739
-0.0064979638 0.010349933 0.21179958
-0.0062461975 0.0072181607 0.21475028
-0.0062680091 0.0035644663 0.21801819
-0.0065833721 0.00024319353 0.22140245
-0.0069021601 -0.0033089833 0.22299056
-0.0074396161 -0.0072240597 0.22581837
-0.0070995674 -0.011241596 0.22635913
-0.0073735458 -0.015614685 0.22973549
-0.0073999148 -0.019763855 0.23179699
-0.0012970873 0.029041858 0.19728799
-0.0019963279 0.026470121 0.19866817
-0.0029772012 0.024329407 0.20057276
-0.0045208922 0.021709336 0.20432308
-0.0050454838 0.017772594 0.20799311
-0.0036167984 0.014064199 0.20977479
-0.0028483521 0.01076372 0.21207371
-0.0027019305 0.0072587947 0.2146723
-0.0026344177 0.0035082924 0.2166785
-0.0027308669 5.1980613e-05 0.2204704
-0.0033197871 -0.0032672298 0.22210284
-0.0034650632 -0.0067562046 0.22473311
-0.0033973295 -0.010755615 0.22640692
0.0012490505 0.029334348 0.19761917
0.0011647079 0.027464142 0.19857107
0.00079139112 0.024817813 0.20032707
0.00047918531 0.022140279 0.20239739
-0.00055042299 0.018821407 0.20544598
-0.00030611965 0.014864744 0.20823792
0.00077300752 0.010797224 0.21144733
0.00085190235 0.0073236302 0.21330059
0.0010982512 0.003741838 0.21496442
0.0010172374 -0.00027817074 0.21806498
-0.00015833233 -0.003325263 0.22135681
0.0046981182 0.027801732 0.19920021
0.0045930338 0.024906985 0.20016357
0.0041962191 0.022007175 0.20171714
0.00357203 0.018753188 0.20461449
0.0032277752 0.015478228 0.20668723
0.0036464529 0.011398584 0.21002162
0 0 0 1 0 0 0 1 0 0 0 1 0 0 0 0 0 326 1 0 0
