ply
format ascii 1.0
comment PCL generated
element vertex 326
property float x
property float y
property float z
element camera 1
property float view_px
property float view_py
property float view_pz
property float x_axisx
property float x_axisy
property float x_axisz
property float y_axisx
property float y_axisy
property float y_axisz
property float z_axisx
property float z_axisy
property float z_axisz
property float focal
property float scalex
property float scaley
property float centerx
property float centery
property int viewportx
property int viewporty
property float k1
property float k2
end_header
-0.056005251 0.028603289 0.18573794
-0.056893289 0.025853034 0.18782361
-0.058050152 0.02307545 0.19085599
-0.058794275 0.020048346 0.19300306
-0.058636002 0.016958358 0.19401108
-0.051203135 0.030021429 0.18218021
-0.052288987 0.02804311 0.18395986
-0.052879818 0.025512755 0.18521315
-0.053934284 0.022861976 0.18793806
-0.054985221 0.019749461 0.19121335
-0.055342216 0.016510231 0.19277634
-0.055716898 0.013364442 0.19381446
-0.057047389 0.010107771 0.19630164
-0.047969997 0.032833692 0.1797442
-0.048002854 0.029811941 0.18090619
-0.048609272 0.027474763 0.18222398
-0.049399592 0.025206793 0.18391784
-0.050596025 0.022744861 0.18731369
-0.051339407 0.020040195 0.18971556
-0.051732134 0.016208552 0.1915088
-0.052189857 0.012802427 0.19311002
-0.053249579 0.0086862929 0.19572313
-0.053712863 0.002121117 0.19851758
-0.055736806 -0.0016435917 0.20060644
-0.043624405 0.036752783 0.1779725
-0.044707157 0.03383486 0.1787492
-0.045209512 0.030448545 0.18029884
-0.045679141 0.027681993 0.18217181
-0.046419542 0.025384052 0.18425471
-0.047858033 0.022417605 0.1879009
-0.048821487 0.01892839 0.19044074
-0.049376626 0.015246739 0.19191848
-0.049735017 0.011242613 0.19394925
-0.050206091 0.0067220377 0.19668022
-0.050087258 0.0011118334 0.19681205
-0.051208638 -0.0027324653 0.20027889
-0.053633288 -0.002409304 0.2055624
-0.053596441 -0.0040346584 0.2092189
-0.041077364 0.037717063 0.17844163
-0.041307803 0.03397854 0.17964607
-0.042172827 0.030756418 0.1810765
-0.042673092 0.028002784 0.18322729
-0.043075524 0.025506681 0.18518806
-0.044474289 0.0219917 0.18790095
-0.045770537 0.018075697 0.19052006
-0.046465211 0.014344738 0.19215307
-0.046634544 0.009714691 0.19460809
-0.046723556 0.004589668 0.19678955
-0.045755491 5.9071426e-06 0.19658108
-0.048258699 -0.0028640034 0.20052534
-0.050357062 -0.0032833326 0.20523857
-0.050401889 -0.0047839344 0.20938955
-0.05055606 -0.0066763205 0.21295436
-0.051342972 -0.009933318 0.21473329
-0.052014131 -0.013202205 0.21861152
-0.038298864 0.041418839 0.1771097
-0.038714938 0.038638808 0.17902565
-0.038901627 0.034894511 0.18053161
-0.039583009 0.030862851 0.18223692
-0.040143132 0.028340098 0.18422939
-0.040471204 0.025802815 0.18611321
-0.040426664 0.022935202 0.18841203
-0.041937273 0.017909564 0.19061944
-0.043347638 0.014428033 0.19200449
-0.043800019 0.010602084 0.19390483
-0.043333035 0.0046711038 0.19612959
-0.04225279 0.00019921034 0.19691765
-0.044358578 -0.0036683651 0.2000525
-0.046995029 -0.0046502561 0.2045822
-0.046833616 -0.0055690855 0.20948045
-0.047075458 -0.0078258533 0.21269806
-0.048084442 -0.01052286 0.21585362
-0.048937656 -0.014244806 0.21938688
-0.048284695 -0.016862484 0.22273569
-0.035726286 0.041637581 0.17812592
-0.036039844 0.038998347 0.17979136
-0.036483992 0.035781797 0.18107268
-0.037173867 0.0319295 0.18342566
-0.037639569 0.029419739 0.18569463
-0.037326124 0.026831722 0.1872458
-0.037276153 0.023929412 0.18894176
-0.039048746 0.019503979 0.19056635
-0.0396685 0.015363584 0.19196653
-0.04037188 0.011216556 0.19398484
-0.04009553 0.0056835352 0.19617638
-0.039018322 0.00041117409 0.19809286
-0.041774441 -0.0050424254 0.2007741
-0.043419212 -0.006241235 0.20533051
-0.043840416 -0.0070967078 0.20959851
-0.043639787 -0.0087501854 0.21271461
-0.044551894 -0.011373426 0.21553995
-0.04467506 -0.013893415 0.21928456
-0.044704746 -0.016588962 0.22192855
-0.040823173 -0.021149633 0.22210093
-0.033192363 0.041859712 0.17887594
-0.033385985 0.039247993 0.18072422
-0.033919431 0.035871651 0.18206121
-0.033851918 0.033159737 0.1842332
-0.034434002 0.030515583 0.18698823
-0.034439243 0.027501352 0.18823026
-0.034640212 0.024370274 0.18989164
-0.035770133 0.020454178 0.19179688
-0.036077604 0.016584881 0.1933365
-0.036776789 0.011660764 0.19479492
-0.03679553 0.0067482064 0.19644842
-0.036487289 0.0010126072 0.20041251
-0.039277643 -0.0032809724 0.20286055
-0.039907131 -0.0052582868 0.20631829
-0.040356349 -0.0072808797 0.2096822
-0.041213933 -0.009717009 0.21309011
-0.041055147 -0.01181199 0.2153355
-0.040408187 -0.014568512 0.21908827
-0.039282128 -0.017977484 0.22002344
-0.039024059 -0.021243423 0.22092789
-0.039073005 -0.024571041 0.22206602
-0.030199395 0.042014219 0.17909649
-0.030445093 0.039569225 0.18111053
-0.03096108 0.036399253 0.18343943
-0.030780178 0.033869114 0.18508215
-0.031351652 0.030849693 0.18772912
-0.031688679 0.028128218 0.18924373
-0.03175443 0.024927242 0.1908806
-0.032366339 0.021165881 0.19305347
-0.032606091 0.017953256 0.19500281
-0.033227265 0.012920965 0.19581977
-0.033424772 0.0075035826 0.19809835
-0.035141353 0.0014568289 0.20134933
-0.036317158 -0.0015549059 0.2039098
-0.036725551 -0.0037537185 0.20724678
-0.037488241 -0.0066563156 0.21040897
-0.038131796 -0.0094105806 0.21371543
-0.038652543 -0.012225936 0.21611349
-0.037033476 -0.015470854 0.21801893
-0.035901498 -0.018385129 0.21855357
-0.036168054 -0.021364409 0.22059867
-0.036267877 -0.024640614 0.22268592
-0.027111368 0.041995693 0.17925562
-0.027195757 0.03936217 0.18098739
-0.027340394 0.036744732 0.18359841
-0.027789168 0.033898178 0.18557192
-0.028277492 0.031084459 0.18795866
-0.028839247 0.028040495 0.19033167
-0.028767396 0.024834784 0.19210438
-0.02897382 0.021341119 0.19426699
-0.029150801 0.018122852 0.19674012
-0.029548427 0.014028799 0.19800551
-0.030281838 0.0092249699 0.19927585
-0.032898292 0.0025189363 0.20320988
-0.033495024 -0.00011627415 0.20555022
-0.034137994 -0.0024699094 0.20862642
-0.034321878 -0.0053870752 0.21205759
-0.035079502 -0.0091963271 0.2160202
-0.035191569 -0.01215132 0.21742588
-0.033109583 -0.014969547 0.21920572
-0.033295024 -0.018166708 0.22127156
-0.033267241 -0.021371005 0.22255161
-0.033306919 -0.024763344 0.22525878
-0.023781879 0.041857414 0.17972103
-0.023991404 0.039209049 0.18082429
-0.024266243 0.036699805 0.18323328
-0.024940966 0.034121387 0.18579885
-0.025452858 0.031198097 0.18863036
-0.025988743 0.028156167 0.19137403
-0.026092643 0.024964871 0.19319233
-0.026073227 0.021583343 0.19585937
-0.026161848 0.017808301 0.1984043
-0.026410801 0.013909197 0.20051751
-0.026641896 0.010305959 0.20279792
-0.029222181 0.0043284227 0.20551494
-0.029582985 0.0012992793 0.2083233
-0.030132728 -0.0015756667 0.21171315
-0.029857688 -0.0056011849 0.2160417
-0.031638741 -0.0086949505 0.218071
-0.031063981 -0.01135539 0.21913196
-0.030179432 -0.014539664 0.22056653
-0.03002795 -0.01788366 0.2230835
-0.02984371 -0.021273112 0.22421414
-0.029871833 -0.025151195 0.22724956
-0.020789251 0.042029649 0.1801113
-0.020947132 0.039057545 0.18164615
-0.021260539 0.036554992 0.18342458
-0.021944135 0.034473658 0.18634142
-0.022569885 0.031633403 0.18903995
-0.022918018 0.028457155 0.19256559
-0.022944413 0.024043815 0.19537911
-0.023330301 0.02101868 0.19853459
-0.023544695 0.017374661 0.20162752
-0.023801304 0.013989015 0.20334424
-0.024041265 0.010395601 0.20553373
-0.025273748 0.0057161329 0.20734492
-0.025606645 0.0023908066 0.21129569
-0.025850037 -0.0011078428 0.21462253
-0.026312793 -0.0050892793 0.21791443
-0.027860945 -0.0084744729 0.2203241
-0.027291968 -0.011017574 0.22075614
-0.026970742 -0.014059451 0.22191776
-0.026803343 -0.017458774 0.22431612
-0.026588365 -0.020810874 0.22550361
-0.026579037 -0.024570517 0.22734338
-0.025898837 -0.028600872 0.22994579
-0.017929094 0.042350855 0.18113282
-0.017944001 0.039755933 0.18333456
-0.018063454 0.037046496 0.18481113
-0.018622084 0.034651101 0.18741423
-0.019540537 0.032029256 0.1901599
-0.020202285 0.028850099 0.19301729
-0.019828951 0.024367092 0.19664167
-0.020344682 0.021277282 0.19947752
-0.020719465 0.018179657 0.20321769
-0.020648824 0.014471874 0.20512056
-0.02109362 0.011065865 0.20743479
-0.021070138 0.0072487369 0.21014996
-0.021647118 0.0036175698 0.21359719
-0.022236645 4.7178779e-05 0.21629055
-0.022634503 -0.003622496 0.21916243
-0.023851497 -0.0082461694 0.22328779
-0.024445543 -0.010978812 0.22266786
-0.024096796 -0.01351725 0.22341605
-0.023698378 -0.017152648 0.22584628
-0.023125095 -0.020752914 0.22565806
-0.022805931 -0.02466806 0.22709028
-0.022118937 -0.02917677 0.23171295
-0.015052701 0.040173389 0.1845957
-0.015261482 0.037710182 0.18658084
-0.015599095 0.034724824 0.18856704
-0.016042121 0.032021187 0.19120467
-0.016078217 0.028801741 0.19368494
-0.016643627 0.025077345 0.19699185
-0.017531782 0.021653248 0.20095971
-0.017824322 0.018921304 0.20439745
-0.017656593 0.015567815 0.20654035
-0.017849384 0.01262181 0.20921302
-0.017423948 0.0087731956 0.21205978
-0.017587241 0.005550412 0.21451513
-0.017809941 0.0018781003 0.2177657
-0.018390045 -0.0015339864 0.22096325
-0.018735465 -0.0050075632 0.22384886
-0.019883258 -0.009681033 0.22467417
-0.019682225 -0.013165607 0.22513233
-0.019407488 -0.016861156 0.22606093
-0.018901583 -0.020793302 0.22702886
-0.01846399 -0.024932796 0.22931483
-0.017995866 -0.029029034 0.23341905
-0.012406712 0.0381639 0.18814422
-0.012418998 0.034904353 0.19000433
-0.012464279 0.031920575 0.19240098
-0.012603858 0.02880433 0.19392256
-0.01329944 0.025713185 0.19668758
-0.013903795 0.022810049 0.20018667
-0.015062091 0.019626144 0.2060478
-0.015308302 0.016481724 0.20869689
-0.014663546 0.013053696 0.21120821
-0.014003667 0.009701279 0.21336944
-0.013815967 0.0063987211 0.21595785
-0.013714572 0.0034511453 0.21855025
-0.014377849 0.00021195544 0.22164388
-0.014364938 -0.0037469657 0.22469689
-0.014516133 -0.0086064283 0.22491257
-0.014903973 -0.013284412 0.22600408
-0.014913287 -0.01700313 0.22732399
-0.014972274 -0.020768249 0.22863238
-0.014448132 -0.025157668 0.23186919
-0.0096421931 0.034886736 0.19104981
-0.0094577605 0.031977687 0.19314329
-0.0093383696 0.028902866 0.19489294
-0.0097337747 0.025899725 0.19773693
-0.010446519 0.023208586 0.20134777
-0.012834236 0.019585 0.20785189
-0.011880131 0.017186593 0.21027869
-0.011159648 0.013496485 0.2128852
-0.010667791 0.010330396 0.21417083
-0.010063537 0.0072531872 0.21684334
-0.010273789 0.0034594652 0.21908915
-0.010624778 -1.528095e-05 0.22222607
-0.010638604 -0.0037009199 0.22449645
-0.011006383 -0.0080789821 0.22496954
-0.010701626 -0.01264002 0.22508252
-0.01073781 -0.016960446 0.22793913
-0.010710497 -0.020751415 0.22953428
-0.010196047 -0.025144305 0.233328
-0.0063744313 0.032092635 0.19398619
-0.0060581597 0.029172553 0.1963741
-0.0055028084 0.025967276 0.19998054
-0.0073452475 0.023096669 0.20277768
-0.0097447718 0.020163957 0.20811473
-0.0086308708 0.017289182 0.21103546
-0.0076820971 0.014201198 0.21306024
-0.0070846267 0.011186051 0.21438964
-0.0065432722 0.0075983112 0.21653944
-0.0064359684 0.0035945566 0.21921277
-0.006705917 -0.00016313922 0.22223277
-0.0069427625 -0.0037783226 0.2233109
-0.0072328863 -0.0079190638 0.22507912
-0.0069712782 -0.012002616 0.22468866
-0.0069348072 -0.016619058 0.22744651
-0.0069482261 -0.020482898 0.22946899
-0.0016879184 0.028893713 0.19843914
-0.0021129881 0.026373973 0.19978556
-0.0029740536 0.024264649 0.20169051
-0.0046673864 0.021951463 0.20540291
-0.0055155698 0.018551182 0.20974173
-0.0040122489 0.015146396 0.21210399
-0.0033855808 0.011237205 0.21391138
-0.0030623884 0.0076010958 0.21605347
-0.0027465418 0.0038811518 0.21781635
-0.002886211 -0.00017060029 0.22121389
-0.0034636913 -0.0036942677 0.22209521
-0.0034461757 -0.007460705 0.22369948
-0.0033183508 -0.01162403 0.22435032
0.0010299357 0.029476479 0.19929369
0.0010992828 0.027640337 0.20001188
0.00081507699 0.025038602 0.20181093
0.00058475847 0.022456836 0.20400907
-0.00069206976 0.019454526 0.2073072
-0.0006301761 0.015890654 0.21064776
9.6365933e-05 0.010928845 0.21282154
0.00021266412 0.0075145108 0.21442163
0.00059478276 0.0040654447 0.21586482
0.00093915139 5.9904505e-05 0.21888475
-0.00037154843 -0.0036446427 0.22117162
0.0045865788 0.028337939 0.20099734
0.0046376819 0.02550355 0.20223258
0.0042726807 0.022627849 0.20391981
0.0035093988 0.019371551 0.20685981
0.0029981919 0.016295837 0.20907359
0.0028256499 0.011351259 0.21102722
0 0 0 1 0 0 0 1 0 0 0 1 0 0 0 0 0 326 1 0 0
