ply
format ascii 1.0
comment VCGLIB generated
element vertex 326
property float x
property float y
property float z
element face 594
property list uchar int vertex_indices
end_header
-0.05534292 0.03233971 0.1857488 
-0.05589715 0.02946492 0.1869872 
-0.05670121 0.02677211 0.1893132 
-0.05739279 0.02387586 0.1914706 
-0.05758466 0.0209275 0.1928341 
-0.05093779 0.03417285 0.1810369 
-0.05167598 0.03178755 0.1833938 
-0.05191207 0.02886698 0.1842941 
-0.05267628 0.0262749 0.1870009 
-0.05335995 0.02356069 0.1893029 
-0.05373374 0.02058903 0.1910569 
-0.05382664 0.01761624 0.1917968 
-0.05490572 0.01450226 0.194771 
-0.04712608 0.03670208 0.1781246 
-0.04752942 0.03396095 0.1794653 
-0.04803755 0.03127122 0.1814405 
-0.04841476 0.028557 0.1829053 
-0.04932212 0.02614397 0.1863917 
-0.04975805 0.02348928 0.1886188 
-0.05007247 0.02069652 0.1899529 
-0.05073814 0.01782009 0.1923196 
-0.05157151 0.01457662 0.194725 
-0.05273039 0.01136922 0.1990002 
-0.05414898 0.008233812 0.2043906 
-0.04389556 0.03939444 0.1767503 
-0.04417799 0.03674344 0.1778502 
-0.04436915 0.03390199 0.179014 
-0.04481569 0.03129903 0.1810169 
-0.04534718 0.02862757 0.1832854 
-0.04605852 0.02609446 0.1860833 
-0.04664949 0.02345352 0.1884472 
-0.04716274 0.02051738 0.1905853 
-0.04778891 0.01755757 0.1928469 
-0.04860344 0.01443102 0.1959731 
-0.04965909 0.01125883 0.2003164 
-0.05078694 0.008204185 0.2049018 
-0.0519203 0.004738227 0.2086877 
-0.05260697 0.000974875 0.2114171 
-0.04109713 0.0397757 0.1772792 
-0.04126002 0.03707438 0.1785991 
-0.04156587 0.03428362 0.1801193 
-0.04195738 0.03160288 0.182434 
-0.04225781 0.02875036 0.1840755 
-0.04284665 0.02598327 0.186585 
-0.04352393 0.0232215 0.1886082 
-0.0439497 0.02021847 0.1908149 
-0.04470903 0.01727437 0.1937979 
-0.0457099 0.01414803 0.1981486 
-0.04655656 0.01117132 0.202331 
-0.04764065 0.008242012 0.2065079 
-0.04868793 0.004799149 0.2099205 
-0.04935567 0.00115834 0.2127725 
-0.04969181 -0.002652053 0.2143379 
-0.05001242 -0.006865019 0.2162222 
-0.05009537 -0.01074434 0.2197298 
-0.03784186 0.04269281 0.1762605 
-0.03827916 0.04018524 0.1783118 
-0.03849143 0.03745618 0.1796274 
-0.03885483 0.03478638 0.1818272 
-0.03914366 0.03188985 0.1839575 
-0.03926987 0.02872113 0.1848144 
-0.03962936 0.02566206 0.187012 
-0.04039676 0.02301636 0.190328 
-0.04078977 0.02002857 0.192035 
-0.04141342 0.01708092 0.1953763 
-0.04255465 0.01408146 0.2002854 
-0.04338514 0.01110626 0.2041584 
-0.04459295 0.008250334 0.2086235 
-0.04544993 0.004922054 0.2113434 
-0.04617386 0.001213588 0.2146508 
-0.04657499 -0.002456149 0.216586 
-0.04676798 -0.006744843 0.2179019 
-0.04705711 -0.01075361 0.2202275 
-0.04743923 -0.01505587 0.2243091 
-0.03504218 0.04294477 0.1771275 
-0.03538447 0.04033286 0.1788486 
-0.03573655 0.03783343 0.1807307 
-0.03610543 0.0352894 0.1833306 
-0.03626648 0.03217229 0.1851881 
-0.03637936 0.02901931 0.1860435 
-0.03685006 0.02600558 0.1884905 
-0.03765469 0.02318224 0.1920142 
-0.03791335 0.02029033 0.1940653 
-0.03839351 0.01722184 0.1971862 
-0.0392229 0.01409599 0.2013664 
-0.04022175 0.01112519 0.206177 
-0.04149878 0.008187349 0.2100362 
-0.04207471 0.005031096 0.2124485 
-0.04270731 0.001321137 0.2156797 
-0.04314753 -0.002705176 0.2179323 
-0.04321027 -0.006641374 0.2184114 
-0.04343073 -0.01075242 0.2207131 
-0.0434687 -0.0147391 0.2219342 
-0.04385493 -0.01946106 0.2254919 
-0.03220017 0.04318729 0.177994 
-0.03255193 0.04070628 0.1799119 
-0.03284717 0.03804082 0.1816386 
-0.03312885 0.03548736 0.1835911 
-0.03336884 0.03261566 0.1860753 
-0.03364105 0.02944105 0.1879805 
-0.03394192 0.02645256 0.1898351 
-0.03450576 0.02355101 0.1926695 
-0.03492609 0.02058834 0.1953048 
-0.03537713 0.01739691 0.1986175 
-0.03593288 0.01398225 0.2021575 
-0.03687167 0.01087044 0.2064022 
-0.03822444 0.008110407 0.2102279 
-0.03852268 0.004843366 0.2126457 
-0.03907537 0.001428839 0.2158941 
-0.03943795 -0.0027985 0.2178661 
-0.03964604 -0.006807368 0.2191516 
-0.0397206 -0.01101162 0.2212074 
-0.03988405 -0.0150621 0.2219507 
-0.04020745 -0.01937651 0.2234493 
-0.04064766 -0.02357913 0.2255151 
-0.02928111 0.0433758 0.1786819 
-0.02960378 0.04086335 0.1805939 
-0.02988756 0.03825914 0.1826732 
-0.03020414 0.03578604 0.1849241 
-0.03048251 0.03279198 0.1871407 
-0.0307595 0.02986875 0.1890877 
-0.03091069 0.02692126 0.1909312 
-0.03128336 0.02387824 0.1933358 
-0.03169379 0.02087871 0.1958735 
-0.03211868 0.01771899 0.1989748 
-0.03263079 0.01401572 0.2032465 
-0.03384626 0.01079635 0.2071849 
-0.03468655 0.007974188 0.2103029 
-0.03497474 0.004783981 0.2127894 
-0.03535634 0.001259555 0.2155013 
-0.03573581 -0.00284871 0.217751 
-0.03620889 -0.006956176 0.2196753 
-0.03635073 -0.01117774 0.2216686 
-0.03656547 -0.01530192 0.2232064 
-0.03635287 -0.01910123 0.2228771 
-0.03659208 -0.02322408 0.2247002 
-0.0263705 0.04348121 0.1793755 
-0.02659473 0.04078622 0.1808835 
-0.02689068 0.03830726 0.183519 
-0.02721394 0.03567767 0.1853646 
-0.027409 0.03276091 0.1876689 
-0.02773147 0.0300511 0.1901833 
-0.027737 0.02692501 0.1913924 
-0.02809395 0.02401157 0.1940814 
-0.0286162 0.02123747 0.1976187 
-0.02862025 0.01777227 0.2009806 
-0.02913472 0.01464246 0.2046914 
-0.03087828 0.01114037 0.2085069 
-0.03120116 0.007959259 0.2107435 
-0.03155539 0.004616411 0.2132427 
-0.03173691 0.001244859 0.2155768 
-0.03219887 -0.002974827 0.2188251 
-0.03235076 -0.006808425 0.219565 
-0.03274671 -0.01111865 0.2224622 
-0.03307824 -0.0152447 0.2249652 
-0.03309091 -0.01924476 0.2252445 
-0.03329574 -0.02343089 0.2269518 
-0.02343048 0.04368513 0.180161 
-0.02354114 0.04079303 0.1809072 
-0.0237823 0.03810851 0.1829481 
-0.02413515 0.03550383 0.1859214 
-0.02429602 0.03254876 0.1879208 
-0.02452291 0.02983759 0.1905273 
-0.02478353 0.02712029 0.1930197 
-0.02498986 0.02422338 0.195833 
-0.02521057 0.02127504 0.1992859 
-0.02564087 0.01838283 0.2028706 
-0.02599065 0.0152692 0.2062715 
-0.02753379 0.0116537 0.2103608 
-0.02787156 0.008269558 0.2127174 
-0.02820636 0.004874738 0.2153451 
-0.0282843 0.001213218 0.2173103 
-0.02862248 -0.002965469 0.2199484 
-0.02879419 -0.006904795 0.2211903 
-0.02895229 -0.01084611 0.2226146 
-0.02935547 -0.0150508 0.2258736 
-0.02949199 -0.01921299 0.227179 
-0.02969032 -0.02351234 0.2284548 
-0.02031989 0.04378141 0.1808129 
-0.02060999 0.04110849 0.182507 
-0.02074016 0.03827777 0.1838821 
-0.02106317 0.03548437 0.1864384 
-0.02124081 0.03244512 0.1882432 
-0.02125102 0.02964455 0.1908994 
-0.02154594 0.02734725 0.1949143 
-0.02184025 0.02454095 0.1979039 
-0.02212878 0.02187092 0.2012176 
-0.02251148 0.01887567 0.2050292 
-0.02284791 0.01571693 0.2081788 
-0.02401296 0.01183809 0.2110875 
-0.02441632 0.008471833 0.2145739 
-0.02453722 0.00487313 0.216723 
-0.02468858 0.001043433 0.2183582 
-0.02496188 -0.002790811 0.2210103 
-0.02524332 -0.006815882 0.2227393 
-0.02515689 -0.01059056 0.2229033 
-0.02576152 -0.01509412 0.2269085 
-0.02595347 -0.01924475 0.2292624 
-0.02589048 -0.02332571 0.2293053 
-0.02617453 -0.02752805 0.2328565 
-0.0173745 0.04397625 0.1824432 
-0.01755504 0.04155944 0.1846033 
-0.0178272 0.03857229 0.1859995 
-0.01799074 0.03565552 0.187307 
-0.01819036 0.03290865 0.1894565 
-0.01825713 0.03022357 0.1919781 
-0.01838311 0.02778041 0.1960673 
-0.01871151 0.025043 0.1993425 
-0.01890984 0.02216849 0.201972 
-0.01909846 0.01910919 0.205219 
-0.01933135 0.01601152 0.2081619 
-0.02032014 0.01197151 0.2110551 
-0.02064383 0.008483718 0.2146592 
-0.02088086 0.004867919 0.217345 
-0.02106492 0.001034904 0.2194541 
-0.02126761 -0.002779162 0.2219765 
-0.02163901 -0.006814597 0.2234404 
-0.02155729 -0.01081469 0.2242768 
-0.02214252 -0.01501071 0.2280486 
-0.02210418 -0.01901412 0.2298063 
-0.02206603 -0.02306738 0.2302412 
-0.02266585 -0.02751994 0.2350847 
-0.01446618 0.04163057 0.1855596 
-0.0147522 0.03881203 0.187251 
-0.01492339 0.03593658 0.188762 
-0.01509131 0.03327144 0.1908095 
-0.01523139 0.03051253 0.1925369 
-0.01519908 0.02803748 0.1962574 
-0.01541612 0.02538759 0.2001947 
-0.01555284 0.02243676 0.2027061 
-0.01571366 0.01926408 0.2050271 
-0.01640818 0.01564564 0.207675 
-0.01675424 0.01201094 0.2116713 
-0.01695775 0.008475127 0.214593 
-0.01714852 0.004724974 0.2172181 
-0.01739096 0.0009920896 0.2203471 
-0.01757482 -0.002886688 0.2224902 
-0.01798194 -0.006805642 0.2245742 
-0.01801654 -0.01066472 0.2255421 
-0.01821079 -0.01453933 0.2275896 
-0.01849775 -0.0186449 0.2310338 
-0.01853876 -0.02287936 0.2324784 
-0.01913574 -0.02731356 0.2374808 
-0.01168565 0.03889551 0.1880824 
-0.01177042 0.03607451 0.1895392 
-0.0119223 0.03344671 0.1917471 
-0.01209967 0.03049448 0.1925648 
-0.01211091 0.02786578 0.1954736 
-0.01211132 0.02536222 0.1995658 
-0.01215641 0.02263124 0.2031154 
-0.01278668 0.01900979 0.2059285 
-0.01314221 0.01536684 0.2091374 
-0.01316127 0.01196517 0.2121204 
-0.01331044 0.008377727 0.2148604 
-0.01350086 0.004705495 0.2180006 
-0.01371229 0.0009605525 0.2206895 
-0.0139059 -0.002979836 0.2231803 
-0.01399858 -0.006639917 0.2240772 
-0.01430947 -0.01047076 0.2266964 
-0.01452683 -0.0142749 0.2291714 
-0.01480046 -0.01833769 0.2317173 
-0.0148809 -0.02256462 0.2344968 
-0.008761995 0.03607499 0.1901844 
-0.008675653 0.03346644 0.192035 
-0.008782965 0.03044147 0.1931786 
-0.008846493 0.0277244 0.1959272 
-0.008790362 0.02518427 0.2002426 
-0.009494946 0.02213137 0.2043516 
-0.009589119 0.01859867 0.2075397 
-0.009502905 0.01530259 0.2109555 
-0.009560479 0.01177823 0.21217 
-0.009687212 0.008420255 0.2156144 
-0.009838451 0.00476182 0.2185055 
-0.01000111 0.0009792183 0.221247 
-0.0101248 -0.002834426 0.2234483 
-0.01036806 -0.006636238 0.2252038 
-0.01040413 -0.01045089 0.2257017 
-0.01081336 -0.01419996 0.2304417 
-0.01100509 -0.01816865 0.2331476 
-0.01133192 -0.02247196 0.2369864 
-0.005416563 0.03343069 0.1927253 
-0.005457288 0.03054836 0.1942403 
-0.005351854 0.02775981 0.1975637 
-0.00555426 0.02457689 0.2002568 
-0.006268899 0.02146065 0.2048322 
-0.006095075 0.01860437 0.2082422 
-0.005924929 0.01523495 0.210684 
-0.00596602 0.01181883 0.2129663 
-0.005998015 0.008437576 0.2155695 
-0.005929313 0.004740005 0.2187669 
-0.006236004 0.0009918398 0.2217428 
-0.006305703 -0.002814101 0.222869 
-0.006563779 -0.006641679 0.2256715 
-0.006592061 -0.01046739 0.2263906 
-0.006901169 -0.01418822 0.2305162 
-0.007150573 -0.01800467 0.2335713 
-0.001992684 0.03050114 0.1960825 
-0.002376437 0.02707946 0.197559 
-0.002687897 0.02384297 0.1995478 
-0.002847555 0.02105032 0.2035118 
-0.002752546 0.01832401 0.2073673 
-0.002560571 0.01519301 0.2101183 
-0.002359916 0.01185668 0.2130649 
-0.002330278 0.008360382 0.2156967 
-0.002210804 0.004725565 0.2175277 
-0.00231934 0.001015047 0.2207284 
-0.002504438 -0.002803 0.2224088 
-0.002717633 -0.006636653 0.2247603 
-0.002827014 -0.01047319 0.2271134 
0.0005371817 0.02969139 0.196587 
0.0007270369 0.02689647 0.1979227 
0.000672631 0.02382842 0.2001632 
0.000687162 0.02081737 0.2021768 
0.0007517984 0.0180051 0.2058386 
0.0009379627 0.01502378 0.2089668 
0.001246615 0.01195242 0.2120862 
0.001319874 0.00847116 0.2142626 
0.001458873 0.004994696 0.2159724 
0.001537803 0.001054306 0.2187304 
0.001013141 -0.002722668 0.2211279 
0.004027884 0.02685323 0.1982444 
0.004087186 0.02381605 0.2001624 
0.004140312 0.02078543 0.2020126 
0.004263235 0.01797939 0.2057067 
0.004408931 0.01485566 0.2076728 
0.004340133 0.012237 0.2103978 
3 2 1 8 
3 8 9 2 
3 1 7 8 
3 9 3 2 
3 8 18 9 
3 7 17 8 
3 1 6 7 
3 9 10 3 
3 18 19 9 
3 8 17 18 
3 17 30 18 
3 7 16 17 
3 6 16 7 
3 6 15 16 
3 10 4 3 
3 9 19 10 
3 19 11 10 
3 18 30 19 
3 30 31 19 
3 17 29 30 
3 16 29 17 
3 16 28 29 
3 15 27 16 
3 6 5 15 
3 10 11 4 
3 19 20 11 
3 31 32 19 
3 30 45 31 
3 29 44 30 
3 28 43 29 
3 16 27 28 
3 27 42 28 
3 15 14 27 
3 5 14 15 
3 5 13 14 
3 20 21 11 
3 19 32 20 
3 32 21 20 
3 32 33 21 
3 31 45 32 
3 45 46 32 
3 30 44 45 
3 44 62 45 
3 29 43 44 
3 43 61 44 
3 28 42 43 
3 42 61 43 
3 42 60 61 
3 27 41 42 
3 14 26 27 
3 13 26 14 
3 13 25 26 
3 21 12 11 
3 33 22 21 
3 32 46 33 
3 46 47 33 
3 45 63 46 
3 62 63 45 
3 62 81 63 
3 44 61 62 
3 61 80 62 
3 60 79 61 
3 42 41 60 
3 41 59 60 
3 27 40 41 
3 26 40 27 
3 26 39 40 
3 25 39 26 
3 25 24 39 
3 13 24 25 
3 21 22 12 
3 33 34 22 
3 47 34 33 
3 47 48 34 
3 46 64 47 
3 63 64 46 
3 63 82 64 
3 81 82 63 
3 81 101 82 
3 62 80 81 
3 80 101 81 
3 80 100 101 
3 61 79 80 
3 79 99 80 
3 60 59 79 
3 59 78 79 
3 41 58 59 
3 40 58 41 
3 40 57 58 
3 39 57 40 
3 39 38 57 
3 24 38 39 
3 48 35 34 
3 47 65 48 
3 64 65 47 
3 64 83 65 
3 82 83 64 
3 82 102 83 
3 101 102 82 
3 101 123 102 
3 100 122 101 
3 80 99 100 
3 99 121 100 
3 79 98 99 
3 78 98 79 
3 78 97 98 
3 59 77 78 
3 58 77 59 
3 58 76 77 
3 57 76 58 
3 57 75 76 
3 38 56 57 
3 48 49 35 
3 65 66 48 
3 83 84 65 
3 102 103 83 
3 123 124 102 
3 101 122 123 
3 122 143 123 
3 100 121 122 
3 121 142 122 
3 99 120 121 
3 98 119 99 
3 97 118 98 
3 78 77 97 
3 77 76 97 
3 76 96 97 
3 75 96 76 
3 75 95 96 
3 57 56 75 
3 56 55 75 
3 38 55 56 
3 49 36 35 
3 48 66 49 
3 66 67 49 
3 65 84 66 
3 84 85 66 
3 83 103 84 
3 103 104 84 
3 102 124 103 
3 124 104 103 
3 124 125 104 
3 123 144 124 
3 143 144 123 
3 143 164 144 
3 122 142 143 
3 142 163 143 
3 121 120 142 
3 120 141 142 
3 99 119 120 
3 119 140 120 
3 98 118 119 
3 118 139 119 
3 97 117 118 
3 96 117 97 
3 96 116 117 
3 95 116 96 
3 95 94 116 
3 75 94 95 
3 75 74 94 
3 55 74 75 
3 36 23 35 
3 49 50 36 
3 67 50 49 
3 67 68 50 
3 66 85 67 
3 85 86 67 
3 84 105 85 
3 104 105 84 
3 104 125 105 
3 125 126 105 
3 124 145 125 
3 144 145 124 
3 144 165 145 
3 164 165 144 
3 164 185 165 
3 143 163 164 
3 163 184 164 
3 142 162 163 
3 141 162 142 
3 141 161 162 
3 120 140 141 
3 140 161 141 
3 140 160 161 
3 119 139 140 
3 139 160 140 
3 139 159 160 
3 118 117 139 
3 117 138 139 
3 116 137 117 
3 94 115 116 
3 50 37 36 
3 68 51 50 
3 67 86 68 
3 86 87 68 
3 85 106 86 
3 105 106 85 
3 105 127 106 
3 126 127 105 
3 126 148 127 
3 125 147 126 
3 145 146 125 
3 165 166 145 
3 185 186 165 
3 164 184 185 
3 184 206 185 
3 163 183 184 
3 162 183 163 
3 162 182 183 
3 161 182 162 
3 161 160 182 
3 160 181 182 
3 159 181 160 
3 159 180 181 
3 139 138 159 
3 138 137 159 
3 137 138 117 
3 116 115 137 
3 115 136 137 
3 50 51 37 
3 51 52 37 
3 68 69 51 
3 87 69 68 
3 87 88 69 
3 86 107 87 
3 106 107 86 
3 106 128 107 
3 127 128 106 
3 127 148 128 
3 148 149 128 
3 126 147 148 
3 147 168 148 
3 125 146 147 
3 146 168 147 
3 146 167 168 
3 145 166 146 
3 166 167 146 
3 166 187 167 
3 165 186 166 
3 186 187 166 
3 186 209 187 
3 185 207 186 
3 206 207 185 
3 206 227 207 
3 184 205 206 
3 183 205 184 
3 183 204 205 
3 182 204 183 
3 182 203 204 
3 181 203 182 
3 181 180 203 
3 180 202 203 
3 159 158 180 
3 137 158 159 
3 137 136 158 
3 136 157 158 
3 51 69 52 
3 69 70 52 
3 88 70 69 
3 88 89 70 
3 87 108 88 
3 107 108 87 
3 107 129 108 
3 128 129 107 
3 128 150 129 
3 149 150 128 
3 149 170 150 
3 148 169 149 
3 168 169 148 
3 168 189 169 
3 167 189 168 
3 167 188 189 
3 187 188 167 
3 187 210 188 
3 209 210 187 
3 209 231 210 
3 186 208 209 
3 207 208 186 
3 207 228 208 
3 227 228 207 
3 227 248 228 
3 206 226 227 
3 205 226 206 
3 205 204 226 
3 204 225 226 
3 203 224 204 
3 202 223 203 
3 180 201 202 
3 158 179 180 
3 157 178 158 
3 70 53 52 
3 89 90 70 
3 88 109 89 
3 108 109 88 
3 108 130 109 
3 129 130 108 
3 129 150 130 
3 150 151 130 
3 170 171 150 
3 149 169 170 
3 169 190 170 
3 189 190 169 
3 189 212 190 
3 188 211 189 
3 210 211 188 
3 210 231 211 
3 231 232 211 
3 209 230 231 
3 208 230 209 
3 208 229 230 
3 228 229 208 
3 228 248 229 
3 248 249 229 
3 227 247 248 
3 226 247 227 
3 226 246 247 
3 225 246 226 
3 225 245 246 
3 204 224 225 
3 224 244 225 
3 203 223 224 
3 223 243 224 
3 202 222 223 
3 201 222 202 
3 201 200 222 
3 180 179 201 
3 179 200 201 
3 179 178 200 
3 178 179 158 
3 70 71 53 
3 90 71 70 
3 90 91 71 
3 89 109 90 
3 109 110 90 
3 130 110 109 
3 130 131 110 
3 151 152 130 
3 150 171 151 
3 171 172 151 
3 170 191 171 
3 190 191 170 
3 190 212 191 
3 212 213 191 
3 189 211 212 
3 211 233 212 
3 232 233 211 
3 232 252 233 
3 231 251 232 
3 230 250 231 
3 229 249 230 
3 249 250 230 
3 249 267 250 
3 248 266 249 
3 247 265 248 
3 246 264 247 
3 245 263 246 
3 225 244 245 
3 244 262 245 
3 224 243 244 
3 243 262 244 
3 223 222 243 
3 71 54 53 
3 91 72 71 
3 90 110 91 
3 110 111 91 
3 131 111 110 
3 131 132 111 
3 130 152 131 
3 152 132 131 
3 152 153 132 
3 151 172 152 
3 172 173 152 
3 171 192 172 
3 191 192 171 
3 191 213 192 
3 213 214 192 
3 212 234 213 
3 233 234 212 
3 233 253 234 
3 252 253 233 
3 252 270 253 
3 232 251 252 
3 251 270 252 
3 251 269 270 
3 231 250 251 
3 250 268 251 
3 267 268 250 
3 267 284 268 
3 249 266 267 
3 266 283 267 
3 248 265 266 
3 265 282 266 
3 247 264 265 
3 264 281 265 
3 246 263 264 
3 263 280 264 
3 245 262 263 
3 262 280 263 
3 71 72 54 
3 91 92 72 
3 111 92 91 
3 111 112 92 
3 132 112 111 
3 132 133 112 
3 153 133 132 
3 153 154 133 
3 152 174 153 
3 173 174 152 
3 173 195 174 
3 172 193 173 
3 192 193 172 
3 192 214 193 
3 214 215 193 
3 213 234 214 
3 234 235 214 
3 253 254 234 
3 270 271 253 
3 269 286 270 
3 251 268 269 
3 268 286 269 
3 268 285 286 
3 284 285 268 
3 284 300 285 
3 267 283 284 
3 283 299 284 
3 266 282 283 
3 282 298 283 
3 265 281 282 
3 281 297 282 
3 264 280 281 
3 280 296 281 
3 92 73 72 
3 112 113 92 
3 133 134 112 
3 154 134 133 
3 154 155 134 
3 153 175 154 
3 174 175 153 
3 173 194 195 
3 193 194 173 
3 193 216 194 
3 215 216 193 
3 215 236 216 
3 214 235 215 
3 235 236 215 
3 235 255 236 
3 234 254 235 
3 254 255 235 
3 254 272 255 
3 253 271 254 
3 271 272 254 
3 271 288 272 
3 270 288 271 
3 270 287 288 
3 286 287 270 
3 286 301 287 
3 285 300 286 
3 300 301 286 
3 300 314 301 
3 284 299 300 
3 299 313 300 
3 283 298 299 
3 298 312 299 
3 282 297 298 
3 297 310 298 
3 281 296 297 
3 296 309 297 
3 92 93 73 
3 113 93 92 
3 113 114 93 
3 112 134 113 
3 134 135 113 
3 155 135 134 
3 155 156 135 
3 154 175 155 
3 175 176 155 
3 194 216 195 
3 216 217 195 
3 236 237 216 
3 255 256 236 
3 272 273 255 
3 288 289 272 
3 287 302 288 
3 301 302 287 
3 301 315 302 
3 314 315 301 
3 314 325 315 
3 300 313 314 
3 313 324 314 
3 299 312 313 
3 312 323 313 
3 298 311 312 
3 310 311 298 
3 310 321 311 
3 297 309 310 
3 309 320 310 
3 113 135 114 
3 155 176 156 
3 176 177 156 
3 175 196 176 
3 217 196 195 
3 216 237 217 
3 237 238 217 
3 236 257 237 
3 256 257 236 
3 256 274 257 
3 255 274 256 
3 255 273 274 
3 273 291 274 
3 272 289 273 
3 289 290 273 
3 288 304 289 
3 302 303 288 
3 315 316 302 
3 325 316 315 
3 314 324 325 
3 313 323 324 
3 312 322 323 
3 311 322 312 
3 311 321 322 
3 310 320 321 
3 176 198 177 
3 196 197 176 
3 217 218 196 
3 238 239 217 
3 237 257 238 
3 257 258 238 
3 274 275 257 
3 291 275 274 
3 291 292 275 
3 273 290 291 
3 290 306 291 
3 289 305 290 
3 304 305 289 
3 304 318 305 
3 288 303 304 
3 303 317 304 
3 302 316 303 
3 316 317 303 
3 176 197 198 
3 197 219 198 
3 196 218 197 
3 218 219 197 
3 218 239 219 
3 239 218 217 
3 238 258 239 
3 258 259 239 
3 257 276 258 
3 275 276 257 
3 275 292 276 
3 292 293 276 
3 291 307 292 
3 306 307 291 
3 306 319 307 
3 290 305 306 
3 305 319 306 
3 305 318 319 
3 304 317 318 
3 219 220 198 
3 239 240 219 
3 259 240 239 
3 259 260 240 
3 258 276 259 
3 276 277 259 
3 292 307 293 
3 307 308 293 
3 220 199 198 
3 219 240 220 
3 240 241 220 
3 260 241 240 
3 260 261 241 
3 259 277 260 
3 277 278 260 
3 308 294 293 
3 260 278 261 
3 278 279 261 
3 277 294 278 
3 294 295 278 
3 6 0 5 
3 11 12 4 
3 34 35 22 
3 35 23 22 
3 72 73 54 
3 195 175 174 
3 195 196 175 
3 198 199 177 
3 220 221 199 
3 241 221 220 
3 241 242 221 
3 261 242 241 
3 294 276 293 
3 294 277 276 
3 278 295 279 
3 6 1 0 
