ply
format ascii 1.0
comment created by PLYWriter
element vertex 760
property float x
property float y
property float z
element face 1516
property list uchar int vertex_indices
end_header
-0.057126667 0.031173123 0.18755704 
-0.057784934 0.028319063 0.18829532 
-0.05806484 0.025553811 0.18972722 
-0.058328032 0.022691496 0.19133754 
-0.05832647 0.019926919 0.19282326 
-0.05791577 0.016893616 0.19402874 
-0.053069815 0.033363905 0.18379691 
-0.054494817 0.030832246 0.18550183 
-0.054293647 0.027915545 0.1859189 
-0.05468805 0.025007794 0.18746941 
-0.055128172 0.02227014 0.18933903 
-0.05535883 0.019425115 0.19146346 
-0.05561387 0.01620991 0.19269703 
-0.0556466 0.013501263 0.19416545 
-0.05529918 0.010063681 0.195533 
-0.048162695 0.03589384 0.17983893 
-0.049186084 0.033486973 0.18112555 
-0.050124384 0.030495187 0.1826751 
-0.050543815 0.02762944 0.18429264 
-0.051147856 0.024752408 0.18626213 
-0.05193762 0.0217367 0.18780144 
-0.05228948 0.019181434 0.18997689 
-0.052392494 0.01622278 0.19219692 
-0.0529782 0.012546769 0.19303668 
-0.053133883 0.008523395 0.19536713 
-0.05360691 0.0054033822 0.19939849 
-0.05332871 0.001999037 0.20238921 
-0.04461493 0.038351573 0.1777337 
-0.045391135 0.03573669 0.17869407 
-0.046110526 0.033315666 0.18036844 
-0.046722613 0.030600565 0.18207209 
-0.047416564 0.027728785 0.18438701 
-0.04795351 0.024701538 0.18666503 
-0.048411183 0.021514822 0.18836908 
-0.048988678 0.01885868 0.19029582 
-0.049162928 0.015834715 0.19215521 
-0.049903344 0.01201266 0.19308262 
-0.049828026 0.007926107 0.19454059 
-0.0498403 0.003159087 0.19774558 
-0.05001547 -0.00024590304 0.20275378 
-0.051616218 -0.0019786176 0.20790425 
-0.05205502 -0.0039930027 0.21180463 
-0.041210078 0.04080332 0.17701098 
-0.042225674 0.038835704 0.17787203 
-0.04254588 0.03621982 0.17912947 
-0.04312836 0.033895563 0.18080053 
-0.043826587 0.03100039 0.18278857 
-0.044057827 0.027715407 0.1850084 
-0.044386845 0.024529908 0.1869688 
-0.04491786 0.021332538 0.1887282 
-0.04571085 0.01808858 0.18989442 
-0.046048775 0.015344007 0.19183284 
-0.045929123 0.009702118 0.19216518 
-0.04616817 0.005060202 0.19254194 
-0.04546366 0.00013147038 0.1961991 
-0.046784125 -0.0014911011 0.20312639 
-0.04783429 -0.0034625556 0.20809068 
-0.048935812 -0.004861283 0.21212646 
-0.05022888 -0.006441755 0.21565507 
-0.05086267 -0.008781551 0.21888301 
-0.038784154 0.041528326 0.17676452 
-0.039346185 0.039069317 0.17866339 
-0.039719187 0.036408238 0.17999746 
-0.040348437 0.033955246 0.18166797 
-0.040621266 0.030757114 0.18361434 
-0.040972244 0.026905747 0.18534587 
-0.041396208 0.024138503 0.18747652 
-0.04179969 0.021144623 0.18898132 
-0.042122506 0.017984712 0.19031161 
-0.043049153 0.014196512 0.19189274 
-0.042401347 0.009240902 0.19268307 
-0.041003387 -0.00047505778 0.1899912 
-0.0393829 -0.00511935 0.19298682 
-0.043138947 -0.0035497672 0.20421872 
-0.044548042 -0.005064683 0.20860028 
-0.04577485 -0.0055055507 0.21349876 
-0.046758745 -0.0071704667 0.21662678 
-0.04838479 -0.0096864775 0.21996418 
-0.048723698 -0.012674839 0.22311535 
-0.048061617 -0.016288508 0.22432436 
-0.035624973 0.043427013 0.1756271 
-0.03622852 0.042127978 0.17734705 
-0.036465835 0.039430752 0.17914116 
-0.036924757 0.036583487 0.1805735 
-0.037421092 0.034132984 0.18256111 
-0.03758303 0.030688992 0.1844094 
-0.037839692 0.027154304 0.1859802 
-0.038438052 0.024348594 0.18847102 
-0.038748443 0.020936279 0.18968926 
-0.03892955 0.017547114 0.19070835 
-0.03888762 0.0127709955 0.1923435 
-0.039086863 0.00802521 0.1934386 
-0.038098738 0.00043503303 0.19287454 
-0.03693758 -0.004244611 0.19539171 
-0.039801423 -0.0039074006 0.20573477 
-0.04123634 -0.004671149 0.21085587 
-0.0426062 -0.0063809897 0.21471623 
-0.04305444 -0.008696614 0.21758246 
-0.043887902 -0.011287349 0.21970156 
-0.044093397 -0.014493324 0.22168952 
-0.04477909 -0.018493613 0.22486028 
-0.043521985 -0.021090208 0.22633663 
-0.032922667 0.043856103 0.17609157 
-0.033301823 0.042659197 0.17769702 
-0.033225425 0.03981146 0.17962839 
-0.033433147 0.037018586 0.18096483 
-0.03390484 0.034492772 0.18308572 
-0.034391824 0.030841906 0.18610369 
-0.03486771 0.027702894 0.1873221 
-0.035306435 0.02459097 0.1890941 
-0.035549194 0.020587984 0.19040671 
-0.035652254 0.016969275 0.19215034 
-0.035408575 0.011958721 0.19378482 
-0.035412617 0.008195923 0.19488421 
-0.034535453 0.0031400465 0.19769683 
-0.034879975 -0.0013013455 0.20155443 
-0.036780257 -0.0033529624 0.2075436 
-0.038196053 -0.0042807693 0.21277453 
-0.039120883 -0.00664248 0.215668 
-0.039432917 -0.009343695 0.21786079 
-0.039765198 -0.012396151 0.22113958 
-0.040175196 -0.015831415 0.2217091 
-0.040292956 -0.01905663 0.22404099 
-0.040175345 -0.021551244 0.22607294 
-0.029918227 0.04395038 0.17673175 
-0.030100055 0.042565193 0.17812178 
-0.030310648 0.040127277 0.1800684 
-0.030463714 0.0375956 0.18225507 
-0.030835355 0.034550723 0.18429546 
-0.031356663 0.03107584 0.18712951 
-0.031796258 0.028007682 0.1883493 
-0.03218337 0.024596477 0.19000985 
-0.031861816 0.020972807 0.19218634 
-0.03152225 0.015793743 0.19290118 
-0.03201987 0.012675847 0.19561519 
-0.031996842 0.008059866 0.19689882 
-0.031614423 0.0037549527 0.20027924 
-0.031958356 0.00025845336 0.20393652 
-0.03372576 -0.0020348183 0.20935723 
-0.035035335 -0.0038600648 0.2138887 
-0.035682634 -0.006848708 0.21644863 
-0.035699815 -0.0090262685 0.21953456 
-0.03640345 -0.0124993 0.22089961 
-0.036704525 -0.015959943 0.22268058 
-0.036642797 -0.019390337 0.22365841 
-0.036239073 -0.021592261 0.22555114 
-0.026858365 0.044218283 0.1771068 
-0.027104244 0.04266122 0.17850995 
-0.027452193 0.040052142 0.18024029 
-0.027448123 0.03759294 0.18288344 
-0.027631927 0.03446662 0.18537861 
-0.028136829 0.031453144 0.18766686 
-0.02855421 0.028218003 0.18929614 
-0.028531129 0.024653098 0.19106135 
-0.02828575 0.020463487 0.19353174 
-0.028622098 0.01599693 0.1957252 
-0.02893051 0.0128335105 0.19720195 
-0.028677598 0.009303976 0.1992243 
-0.02887232 0.0054727937 0.20335458 
-0.029092299 0.001867707 0.20650534 
-0.030919943 -0.0013247794 0.21112977 
-0.03177604 -0.003730365 0.21459484 
-0.032126684 -0.0064947684 0.21850511 
-0.032469656 -0.009085088 0.21939424 
-0.03313047 -0.012749955 0.22169258 
-0.03361812 -0.016324587 0.22457881 
-0.032932222 -0.018963924 0.22526509 
-0.03303079 -0.021776116 0.22701661 
-0.023991825 0.044454407 0.17797142 
-0.024148138 0.042836614 0.1794158 
-0.024220256 0.039989956 0.18074167 
-0.024409203 0.037491374 0.18312658 
-0.02463694 0.034671847 0.18583624 
-0.024794592 0.0317687 0.18822922 
-0.02544718 0.02844893 0.19071774 
-0.025557663 0.024707984 0.1928961 
-0.025056822 0.020148838 0.19535725 
-0.025352102 0.015741685 0.1974959 
-0.025186624 0.013142648 0.20006339 
-0.02531563 0.009552651 0.20223288 
-0.026299186 0.006483985 0.20637661 
-0.026963182 0.0031280387 0.21001369 
-0.02802765 -5.4591634e-05 0.21378304 
-0.028380968 -0.003435554 0.21637534 
-0.029112428 -0.0069659 0.21952766 
-0.029300962 -0.009881585 0.22097127 
-0.029807322 -0.013154497 0.22283597 
-0.029878123 -0.015991306 0.22476955 
-0.029357048 -0.018916024 0.2263547 
-0.029912269 -0.022588525 0.22798651 
-0.03039879 -0.024896363 0.2317035 
-0.020980312 0.04482001 0.17900927 
-0.0210157 0.04312122 0.1804554 
-0.021210011 0.040229853 0.18208896 
-0.02130903 0.037409194 0.1835728 
-0.02139229 0.03467984 0.18669362 
-0.021817323 0.03183982 0.18886831 
-0.022200525 0.02891969 0.19171661 
-0.022485703 0.025335263 0.19465207 
-0.022160806 0.020179331 0.19821149 
-0.022386199 0.016000737 0.2005221 
-0.021904556 0.013400675 0.20324256 
-0.022183258 0.010227614 0.20528455 
-0.023443937 0.006621838 0.20888147 
-0.0246998 0.003926941 0.21247448 
-0.024705343 0.00031154335 0.21483834 
-0.024838623 -0.0038911616 0.2171864 
-0.025770575 -0.006782875 0.22053303 
-0.025914714 -0.009832317 0.2224522 
-0.025908403 -0.012963122 0.22364244 
-0.026338426 -0.015769871 0.22641419 
-0.026159348 -0.018883545 0.22729617 
-0.026776973 -0.022935746 0.22827975 
-0.0265606 -0.025987243 0.23209214 
-0.01811191 0.043244686 0.18177432 
-0.018293528 0.040834144 0.18382868 
-0.018184153 0.037621822 0.1851404 
-0.018466884 0.034865253 0.18718606 
-0.01869056 0.031958405 0.1895453 
-0.0190172 0.02909405 0.19192705 
-0.019340573 0.025679393 0.19625945 
-0.01947918 0.021360187 0.19919041 
-0.01923149 0.01712913 0.20205832 
-0.019064564 0.013617036 0.20426403 
-0.019463317 0.0101187145 0.20698084 
-0.020062704 0.00670114 0.20968854 
-0.021202564 0.0030400783 0.21288475 
-0.021217788 0.00018739588 0.21557233 
-0.021614583 -0.0028584248 0.21823609 
-0.022247678 -0.006247437 0.22214174 
-0.022589685 -0.009782645 0.2238877 
-0.022316135 -0.012619563 0.22462 
-0.022145543 -0.016032089 0.22729227 
-0.022346165 -0.01923263 0.22757803 
-0.022418408 -0.022692094 0.22761719 
-0.022739822 -0.026451657 0.23268732 
-0.015211363 0.041083153 0.18494293 
-0.015459031 0.038167913 0.1866632 
-0.015445956 0.03516124 0.18826996 
-0.015619607 0.032169443 0.19058186 
-0.016063144 0.029416095 0.19278014 
-0.016109852 0.026065249 0.1970534 
-0.016364941 0.021900503 0.20039655 
-0.01600692 0.01805017 0.20247632 
-0.016418599 0.014619672 0.20518236 
-0.01619439 0.010593457 0.20813915 
-0.016883463 0.007893768 0.21095534 
-0.01768441 0.004519886 0.21384767 
-0.01794176 0.0014866561 0.21673316 
-0.018296469 -0.0018528091 0.22030902 
-0.018592142 -0.005317724 0.22353357 
-0.01884518 -0.008683321 0.22528712 
-0.01840239 -0.012184673 0.22616084 
-0.018347194 -0.015923964 0.22733304 
-0.019132815 -0.019245725 0.22803846 
-0.018987298 -0.023174038 0.229685 
-0.019133996 -0.026672265 0.23450069 
-0.012600238 0.038133916 0.18785706 
-0.0124777965 0.03513901 0.18946606 
-0.012746456 0.032144785 0.19152339 
-0.012956948 0.029272672 0.19329304 
-0.013023355 0.0261626 0.19642036 
-0.013333246 0.022466566 0.2007994 
-0.013711262 0.0190357 0.20402862 
-0.013542967 0.015424089 0.20701186 
-0.0134684555 0.011864645 0.20969176 
-0.013594174 0.008713699 0.21196458 
-0.013733695 0.0055953823 0.2146381 
-0.014146401 0.0023942487 0.217966 
-0.014527281 -0.0011421765 0.22123195 
-0.014841463 -0.0046500154 0.22384784 
-0.014779828 -0.008352545 0.2254686 
-0.014684918 -0.012561113 0.2269843 
-0.014883387 -0.016226394 0.22811198 
-0.0151492385 -0.01968478 0.22981754 
-0.01545501 -0.023565 0.23266229 
-0.015324681 -0.026633179 0.23651963 
-0.009674744 0.035113737 0.18990979 
-0.009376213 0.0324319 0.1919411 
-0.009634143 0.029491555 0.19408743 
-0.009790339 0.026536243 0.19702923 
-0.010448054 0.023152793 0.20110303 
-0.010643312 0.019814514 0.20525356 
-0.010365502 0.016485265 0.20838395 
-0.010425506 0.012933142 0.21066272 
-0.010287194 0.00949339 0.21271856 
-0.010342802 0.0063248766 0.21596628 
-0.010726678 0.0030242428 0.21930784 
-0.010669169 -0.0009990131 0.2216672 
-0.011033385 -0.0042432887 0.2240398 
-0.011298709 -0.008214107 0.22585084 
-0.011147997 -0.012303649 0.22617605 
-0.011095529 -0.01611464 0.22933029 
-0.011396497 -0.019845868 0.23114741 
-0.011574117 -0.023782868 0.23474765 
-0.012258647 -0.02628922 0.23718044 
-0.0061081145 0.032306366 0.19252178 
-0.006200805 0.029683445 0.19518328 
-0.0065811304 0.026714846 0.19865894 
-0.00700671 0.023729226 0.20154868 
-0.0074691875 0.020458281 0.20553696 
-0.0070938095 0.017226875 0.20869772 
-0.006992553 0.0136283245 0.21085656 
-0.0066868844 0.010257221 0.21271056 
-0.0063922703 0.006669359 0.21594131 
-0.006624512 0.0030611504 0.2192939 
-0.006856668 -0.00075386255 0.22246084 
-0.007022245 -0.0041729514 0.22364238 
-0.007392749 -0.008015888 0.22613628 
-0.0072876103 -0.012286506 0.2266327 
-0.0073741623 -0.016374558 0.22996543 
-0.007851264 -0.019807464 0.23200636 
-0.008563477 -0.022830026 0.23382862 
-0.0034667598 0.031775475 0.19411439 
-0.002930274 0.02960968 0.19703674 
-0.0031480887 0.026822183 0.1993692 
-0.003354069 0.023753958 0.20176013 
-0.003379993 0.02066166 0.20470686 
-0.003391068 0.017482752 0.20781633 
-0.0031818752 0.013923035 0.21063219 
-0.0030519732 0.010460458 0.21282442 
-0.002761683 0.0071936226 0.21596995 
-0.0029423295 0.0031627365 0.21868853 
-0.0030070522 -0.00050086 0.22165985 
-0.0031535127 -0.0043618567 0.22325872 
-0.0036115581 -0.008274062 0.22584645 
-0.0037871404 -0.012123355 0.2269335 
-0.0046380977 -0.015540433 0.22935441 
0.00038343653 0.02946355 0.19821157 
0.0004220491 0.02706529 0.19973372 
0.00037078786 0.024267348 0.20181006 
0.00012625293 0.020970527 0.20427772 
0.00030912802 0.017818697 0.20690861 
0.0006179375 0.014188352 0.20965862 
0.0006901131 0.0108348625 0.21219127 
0.0010499154 0.0076555773 0.21448666 
0.00067099807 0.0038104681 0.2168652 
0.0008695362 -6.750021e-05 0.21962348 
0.00029068047 -0.0037709454 0.22248034 
-0.0009557989 -0.0073114885 0.22613046 
0.0038209127 0.027579142 0.20030294 
0.0041890494 0.024749778 0.20195988 
0.004202968 0.02149385 0.20358115 
0.0040304447 0.018219326 0.20634924 
0.00428252 0.014771087 0.20843425 
0.0038392446 0.011593391 0.21085879 
-0.057898 0.035575 0.19312 
-0.058681 0.033478 0.19464 
-0.059087 0.031093 0.19648 
-0.059437 0.028587 0.19844 
-0.059657 0.026104 0.20041 
-0.059821 0.023744 0.20229 
-0.054525 0.039179 0.19102 
-0.05535063 0.036764488 0.1927064 
-0.055360284 0.03466478 0.19429168 
-0.05571149 0.03213168 0.19617982 
-0.05614038 0.02943358 0.19813912 
-0.05654032 0.026852902 0.20029898 
-0.057001434 0.024134425 0.20203239 
-0.058153 0.021717 0.20436 
-0.058083 0.018744 0.20681 
-0.050046 0.042977 0.18904 
-0.051218 0.040869 0.19047 
-0.05206461 0.03837061 0.19211954 
-0.05231613 0.03539737 0.19409105 
-0.05229067 0.032433476 0.1963304 
-0.052598156 0.029677156 0.19829762 
-0.052897 0.026612984 0.20008768 
-0.053387877 0.023915293 0.20184058 
-0.05430968 0.020788692 0.20390491 
-0.05491036 0.01753498 0.2069872 
-0.056375 0.014174 0.21096 
-0.056079 0.010721 0.21385 
-0.04665 0.045804 0.18759 
-0.04743442 0.04377671 0.18906316 
-0.04807632 0.04136686 0.19079877 
-0.04875725 0.03873768 0.19253139 
-0.049371105 0.03580805 0.19448838 
-0.049051084 0.03231881 0.19666196 
-0.049153097 0.029124087 0.19855393 
-0.049509954 0.026211822 0.2003968 
-0.049805578 0.023208637 0.20228405 
-0.05073772 0.019875554 0.20397066 
-0.051153183 0.016564062 0.20654307 
-0.05225393 0.01262006 0.21001944 
-0.053009357 0.009155949 0.21440697 
-0.054293 0.00592 0.21821 
-0.054385 0.0027001 0.22082 
-0.043317 0.048081 0.18656 
-0.04410841 0.046313956 0.18778425 
-0.044583812 0.043920662 0.18953156 
-0.045013554 0.04135579 0.19145705 
-0.04565313 0.03846934 0.19330567 
-0.045813132 0.035323665 0.19528154 
-0.045734674 0.031783726 0.19732496 
-0.045860577 0.028611064 0.19912013 
-0.0460406 0.025201771 0.20054813 
-0.04638734 0.02212556 0.2022467 
-0.047045853 0.01859791 0.20429239 
-0.047293473 0.014596919 0.206193 
-0.04809199 0.01159502 0.21016914 
-0.04941532 0.007899216 0.21450642 
-0.050519425 0.0051047555 0.21812034 
-0.05158036 0.0022717533 0.22118706 
-0.052313 -0.00041281 0.22388 
-0.052534 -0.0033181 0.22619 
-0.040856 0.048977 0.18645 
-0.04128549 0.04647369 0.18836012 
-0.041694332 0.043968555 0.19023457 
-0.0421002 0.041131098 0.19218732 
-0.042486295 0.03817631 0.1941583 
-0.042645596 0.034691993 0.19622812 
-0.04275587 0.03119764 0.1980151 
-0.042969663 0.028079899 0.19956148 
-0.042915326 0.024937456 0.20069383 
-0.043194618 0.021338258 0.20231794 
-0.043373097 0.016986089 0.20419358 
-0.043379348 0.013707028 0.20663328 
-0.043935705 0.010518214 0.21047206 
-0.045801066 0.0070882775 0.21483006 
-0.047079843 0.0045248135 0.21832103 
-0.04787154 0.0022013022 0.22146203 
-0.048848595 -0.0005167909 0.22425424 
-0.04990663 -0.003760548 0.22707944 
-0.050262 -0.007415 0.2301 
-0.050065 -0.0099304 0.2322 
-0.037833 0.051152 0.18543 
-0.038088374 0.04944343 0.18676646 
-0.03842554 0.046786547 0.18875505 
-0.038851716 0.043991715 0.19079815 
-0.03924744 0.041146033 0.19287314 
-0.039507963 0.037688274 0.19503517 
-0.039710674 0.034176204 0.19702673 
-0.039926 0.03081682 0.19856037 
-0.040089864 0.027335903 0.20006774 
-0.04013425 0.024179291 0.20128949 
-0.040627986 0.02041454 0.20289911 
-0.040188704 0.016196499 0.20380324 
-0.040391825 0.012300319 0.20695966 
-0.041411184 0.009364674 0.21087286 
-0.04248638 0.0066075334 0.21516415 
-0.04364757 0.0043086326 0.21881104 
-0.044449355 0.0019618603 0.22199641 
-0.045093514 -0.00032134115 0.22477543 
-0.045906484 -0.0032858115 0.22752425 
-0.046828255 -0.0063717593 0.23018342 
-0.04767291 -0.010293411 0.2331881 
-0.046679 -0.012748 0.23535 
-0.035124 0.051519 0.18581 
-0.03520749 0.04989712 0.18712711 
-0.035330627 0.047164205 0.18925904 
-0.03558949 0.044584632 0.19114777 
-0.036055956 0.041433718 0.19334905 
-0.036393765 0.037255354 0.19598103 
-0.0367657 0.034022577 0.19768831 
-0.037008993 0.030361993 0.19934696 
-0.037075736 0.026619915 0.200664 
-0.037139338 0.02262628 0.20182821 
-0.037459377 0.01907028 0.20331165 
-0.03726676 0.015919702 0.20412835 
-0.037516475 0.011955808 0.20737818 
-0.038555935 0.0092313625 0.21118361 
-0.039424937 0.006412005 0.21537663 
-0.040406216 0.003921543 0.2193804 
-0.041132145 0.0018019186 0.2226444 
-0.04165778 -9.655529e-05 0.22527604 
-0.042462576 -0.0027992683 0.22800387 
-0.043226544 -0.0057963203 0.2308027 
-0.043677606 -0.009464946 0.23371248 
-0.043446 -0.012583 0.23602 
-0.032113 0.051643 0.18646 
-0.032173757 0.050075196 0.18772954 
-0.03246904 0.04736606 0.18977402 
-0.03268535 0.044440024 0.19192837 
-0.033028085 0.04118259 0.19425428 
-0.033379156 0.03710532 0.1966985 
-0.033837453 0.033855837 0.19843012 
-0.03405117 0.030127896 0.2002226 
-0.034115326 0.02592799 0.20159627 
-0.03429623 0.02199835 0.20253822 
-0.034675106 0.018355716 0.20385544 
-0.034609295 0.015562149 0.20508207 
-0.03471724 0.01215528 0.20821315 
-0.035549026 0.009161901 0.2115577 
-0.036254313 0.006738818 0.21572047 
-0.037193753 0.004308566 0.21980055 
-0.037928637 0.0020611787 0.2233522 
-0.03844365 -3.471329e-05 0.22604251 
-0.039356787 -0.0028106747 0.22906722 
-0.039941657 -0.005658802 0.23203588 
-0.040124804 -0.008901056 0.2342762 
-0.039704 -0.012041 0.23651 
-0.029233 0.051989 0.1869 
-0.029199248 0.050348647 0.1882629 
-0.029672883 0.047634903 0.19032808 
-0.02969703 0.04469723 0.19252566 
-0.02988584 0.041328415 0.194907 
-0.030362919 0.037592266 0.19712621 
-0.03079386 0.033917423 0.19910014 
-0.030967794 0.030306872 0.20091973 
-0.03117394 0.025612254 0.20241891 
-0.031525914 0.021252515 0.2036341 
-0.031827413 0.01810376 0.20497893 
-0.031523414 0.015639784 0.20628493 
-0.031918205 0.012321647 0.20950383 
-0.032515276 0.009765814 0.21282098 
-0.033348586 0.007082557 0.21678767 
-0.03418902 0.004763742 0.22044353 
-0.03481636 0.0021226087 0.2245079 
-0.035389993 -5.2893818e-05 0.22714396 
-0.03614994 -0.0028733956 0.23030563 
-0.03643892 -0.006182833 0.23332547 
-0.036332205 -0.009364075 0.23540673 
-0.036454 -0.012426 0.23764 
-0.026317 0.052085 0.18755 
-0.026205936 0.05048905 0.18883313 
-0.026545757 0.047920793 0.19082825 
-0.026765808 0.045059565 0.19300164 
-0.02691689 0.04181529 0.19530572 
-0.027219819 0.038348466 0.19758923 
-0.027664686 0.034329664 0.19993207 
-0.02814304 0.0304955 0.20208503 
-0.028356185 0.025492417 0.20397684 
-0.02873185 0.02125781 0.20528945 
-0.028449556 0.018609833 0.20687684 
-0.028389623 0.016126677 0.20849212 
-0.02903348 0.012528728 0.2118736 
-0.02972727 0.01003816 0.2148338 
-0.0302552 0.0074713314 0.2189268 
-0.030847553 0.004932162 0.22210157 
-0.0314968 0.0020986889 0.22595954 
-0.03177133 -0.00032403838 0.22868153 
-0.03253914 -0.0030409188 0.23141707 
-0.032824893 -0.00635842 0.23431905 
-0.03264655 -0.009363566 0.23663008 
-0.033243444 -0.012608902 0.238788 
-0.033741 -0.016125 0.24134 
-0.023349 0.052231 0.18817 
-0.02320773 0.050620027 0.1894813 
-0.023423959 0.047987077 0.19159321 
-0.02368736 0.045242812 0.19351897 
-0.02382974 0.041925836 0.19603425 
-0.024160288 0.03868081 0.19823346 
-0.024564743 0.035104904 0.20084201 
-0.02491638 0.030944817 0.20320548 
-0.024947753 0.02616022 0.2053318 
-0.025344165 0.022079594 0.2072498 
-0.024828525 0.018802116 0.2094266 
-0.025474811 0.016352909 0.21126124 
-0.026030028 0.013075908 0.21397948 
-0.026696369 0.010241524 0.21714717 
-0.026893102 0.007873512 0.22033675 
-0.027262487 0.0051667974 0.22354184 
-0.027776148 0.0019841036 0.22726351 
-0.028085575 -0.00071093236 0.23012698 
-0.028384928 -0.003268507 0.23258334 
-0.028815255 -0.0065366197 0.23540306 
-0.029191557 -0.009402981 0.23751332 
-0.030038062 -0.012297539 0.23958609 
-0.03019 -0.016568 0.24259 
-0.020429 0.050381 0.19041 
-0.020273147 0.04805219 0.19230185 
-0.020404851 0.04543094 0.19427189 
-0.020810869 0.04245184 0.19645804 
-0.02096169 0.03919257 0.19890535 
-0.021273663 0.035959404 0.2012129 
-0.021477904 0.03146162 0.2041835 
-0.021805974 0.027794294 0.20648903 
-0.022141522 0.02357471 0.20876868 
-0.022165338 0.019974433 0.21093807 
-0.022419143 0.01704934 0.21334335 
-0.022937626 0.013716448 0.21580806 
-0.023465957 0.01076267 0.21890414 
-0.0236138 0.00820418 0.22191831 
-0.023751216 0.0052917064 0.22504719 
-0.023994122 0.0018676168 0.22866772 
-0.024530109 -0.0012179534 0.23162039 
-0.024592888 -0.0035651491 0.2337576 
-0.02443698 -0.0068309465 0.2365538 
-0.024955425 -0.0093416795 0.23837125 
-0.02585273 -0.011910069 0.24028152 
-0.026489 -0.016805 0.2437 
-0.017256 0.048036 0.19312 
-0.017396463 0.045497682 0.19508813 
-0.017573522 0.042643137 0.19718693 
-0.017813383 0.039574813 0.19956546 
-0.018193655 0.036410324 0.20179951 
-0.018156677 0.032349605 0.2048468 
-0.018494459 0.028300744 0.20746902 
-0.01902556 0.024904942 0.20959568 
-0.019335749 0.0217693 0.2117408 
-0.0191799 0.017924681 0.2147418 
-0.019603532 0.014597527 0.21734956 
-0.01996716 0.011672672 0.22012442 
-0.019952336 0.008615563 0.22320534 
-0.019953713 0.0050265766 0.22661053 
-0.020197786 0.0017289085 0.22984013 
-0.020566521 -0.0013100826 0.23260751 
-0.020450318 -0.0038012294 0.23493624 
-0.020375205 -0.0065755565 0.237179 
-0.02111951 -0.009678737 0.23951629 
-0.021794999 -0.0129339 0.24195275 
-0.022633 -0.017556 0.24528 
-0.014544 0.0452 0.19611 
-0.014425896 0.04262811 0.19807167 
-0.014572893 0.03968993 0.20036645 
-0.014976973 0.03689541 0.20249778 
-0.0149218915 0.03351964 0.2050941 
-0.015309692 0.029220685 0.20818439 
-0.015605866 0.025573954 0.21082906 
-0.015765665 0.022025203 0.21337524 
-0.015982293 0.018459668 0.21604748 
-0.016110092 0.015436237 0.2184715 
-0.015989754 0.012445965 0.22120424 
-0.016006785 0.008857464 0.22442193 
-0.016309641 0.004958356 0.2278072 
-0.016404962 0.0018460171 0.23067617 
-0.016602766 -0.00086271873 0.23313329 
-0.016586717 -0.0040553026 0.2359649 
-0.01677196 -0.0070592863 0.23840617 
-0.017165525 -0.01007899 0.24086732 
-0.017866435 -0.014181371 0.2438683 
-0.018345 -0.018081 0.24678 
-0.011732 0.04267 0.19887 
-0.011280361 0.04029274 0.20087437 
-0.011457805 0.037378415 0.20300546 
-0.011553645 0.033935975 0.20563723 
-0.012012252 0.02977333 0.20873883 
-0.012122324 0.025887122 0.21177441 
-0.012100306 0.02245865 0.21442656 
-0.0126371775 0.01909802 0.21692346 
-0.0125669725 0.016182013 0.21917427 
-0.012124264 0.012719178 0.22231393 
-0.012242459 0.00907153 0.22548364 
-0.0124339685 0.005520501 0.22861888 
-0.012592251 0.002353087 0.23129702 
-0.013119472 -0.00080059073 0.23389778 
-0.012964512 -0.0033745358 0.23620982 
-0.013148206 -0.007201713 0.23937005 
-0.013520879 -0.010327774 0.24180621 
-0.014040532 -0.014858298 0.24526554 
-0.014929 -0.017639 0.24727 
-0.0081946 0.040334 0.20166 
-0.008104833 0.0375496 0.20388526 
-0.008377988 0.033765517 0.20657465 
-0.00847682 0.030562619 0.20913531 
-0.008774275 0.026572064 0.21224463 
-0.008625631 0.023113169 0.21494488 
-0.008769437 0.019915072 0.21748823 
-0.008914589 0.016947547 0.21978348 
-0.008431531 0.01321408 0.22297777 
-0.008431629 0.009456456 0.22625707 
-0.008579865 0.005726811 0.2295133 
-0.008938879 0.002845733 0.23174968 
-0.009288266 -0.0005723543 0.23463714 
-0.009413621 -0.0032360854 0.23691712 
-0.009615703 -0.007232507 0.24012215 
-0.01028 -0.010639 0.24273 
-0.011121 -0.013447 0.24481 
-0.0055146 0.039605 0.20293 
-0.004645446 0.0370751 0.20500916 
-0.004710025 0.034281682 0.2073245 
-0.0048348997 0.031156138 0.20964311 
-0.004926426 0.027637064 0.21234621 
-0.005005833 0.024146084 0.21514602 
-0.0049452097 0.02073858 0.21792847 
-0.0050830906 0.017510025 0.22048636 
-0.004717871 0.014198298 0.22341564 
-0.004869106 0.010530848 0.22654611 
-0.0048799245 0.0066123824 0.2297325 
-0.0053463057 0.0035388137 0.23217148 
-0.005616479 -0.00022460237 0.23528394 
-0.0061969 -0.0031128 0.23761 
-0.0071032 -0.0063473 0.24002 
-0.0015804 0.036841 0.20617 
-0.0012587826 0.034741208 0.20780501 
-0.0013065763 0.031886928 0.21007732 
-0.0012904635 0.028832683 0.21247123 
-0.0012825964 0.025624128 0.2151781 
-0.0012535114 0.022093566 0.2179652 
-0.0012926941 0.018787041 0.22073214 
-0.0010313 0.015794 0.22347 
-0.0014019 0.012076 0.22642 
-0.0015742 0.0082159 0.22952 
-0.0022256 0.0044729 0.23241 
-0.0032191 0.0004202 0.23547 
0.0018553 0.035081 0.20846 
0.0022782 0.032625 0.21057 
0.002266 0.02993 0.21277 
0.0021046 0.026606 0.21544 
0.0020287 0.023613 0.21786 
0.0016399 0.020347 0.22043 
-0.007835996 -0.001973678 0.23622948 
-0.047383025 0.030461129 0.19802143 
-0.05832131 0.029470116 0.19224279 
-0.021926433 0.046633907 0.19297296 
-0.016452756 0.03817915 0.20099135 
-0.016167443 -0.01618466 0.245755 
-0.015276416 0.006764497 0.21272671 
-0.05864805 0.024170674 0.19575292 
-0.046301126 -0.017490288 0.22876891 
-0.013109009 0.03854297 0.20169963 
-0.023446731 0.020624742 0.2092445 
-0.05865591 0.02238773 0.19818863 
-0.011704284 -0.020274706 0.2405784 
-0.033025898 0.05054739 0.18717237 
-0.048785407 -0.014251882 0.22560754 
-0.05846863 0.025782695 0.19330724 
-0.057795346 0.030920044 0.19004951 
-0.023961239 0.018494343 0.19750725 
-0.01772953 0.013921768 0.21918397 
-0.05870515 0.023023527 0.19701387 
-0.05703748 0.03502083 0.1936714 
-0.043902505 0.03999639 0.19268584 
-0.04038375 0.04273323 0.19149922 
-0.043317795 0.042526472 0.190879 
-0.036724795 0.04843974 0.18791708 
-0.033878002 0.048510335 0.18853015 
-0.022195164 0.021764517 0.20961341 
-0.019617844 0.03059722 0.20554665 
-0.01934478 0.03758789 0.20058906 
-0.05333331 0.0014281219 0.2215862 
-0.046422724 0.0009289812 0.22317895 
-0.016857183 0.027460665 0.2088864 
-0.014109695 0.030725995 0.20747505 
-0.01451081 0.020079933 0.21549019 
-0.010536003 0.031482495 0.20790043 
-0.014509869 0.017502287 0.21747941 
0.0003917653 0.018505773 0.22152409 
-0.009807464 -0.017800324 0.23974141 
-0.01332397 -0.0227206 0.24146408 
-0.016548682 -0.02314003 0.24091202 
-0.02849257 -0.021445083 0.23756868 
-0.03835122 -0.01742741 0.23179466 
-0.042078007 -0.018063204 0.23111463 
-0.04519174 -0.018198239 0.23027231 
-0.056404382 0.017150521 0.19923459 
-0.058747154 0.021080969 0.1995508 
-0.058797598 0.025239501 0.19451945 
-0.058103785 0.030259341 0.19075605 
-0.010448433 -0.015638396 0.24229944 
-0.034040056 0.047657475 0.18103914 
-0.031029146 0.047682762 0.18172461 
-0.025148723 0.04805219 0.18274821 
-0.028062997 0.047978047 0.18217269 
-0.046023272 -0.015511346 0.23292764 
-0.042847402 -0.015162772 0.23369648 
-0.025737178 0.05004081 0.18518788 
-0.028658614 0.049926393 0.18460992 
-0.0315856 0.04961559 0.18423012 
-0.034580067 0.049572676 0.1835355 
-0.027480057 0.046055574 0.17968203 
-0.024575379 0.04605082 0.18031311 
-0.03048559 0.045835722 0.17921199 
-0.033535104 0.045786135 0.17862073 
-0.017435983 -0.020687088 0.2439264 
-0.057210065 0.019392638 0.20184995 
-0.016770065 0.03078308 0.20653833 
-0.055620663 0.015326085 0.19689292 
-0.031848803 0.050608046 0.18535681 
3 9 1 8 
3 8 19 9 
3 1 7 8 
3 9 2 1 
3 19 20 9 
3 8 18 19 
3 7 17 8 
3 9 10 2 
3 20 10 9 
3 20 21 10 
3 19 33 20 
3 18 32 19 
3 8 17 18 
3 17 31 18 
3 7 6 17 
3 10 3 2 
3 21 11 10 
3 20 34 21 
3 33 34 20 
3 33 50 34 
3 19 32 33 
3 32 49 33 
3 18 31 32 
3 31 47 32 
3 17 30 31 
3 6 16 17 
3 10 11 3 
3 11 4 3 
3 21 22 11 
3 34 22 21 
3 34 35 22 
3 50 35 34 
3 50 51 35 
3 33 49 50 
3 49 68 50 
3 32 48 49 
3 47 48 32 
3 47 65 48 
3 31 30 47 
3 30 46 47 
3 17 16 30 
3 16 29 30 
3 11 12 4 
3 22 12 11 
3 22 23 12 
3 35 36 22 
3 51 36 35 
3 51 52 36 
3 50 69 51 
3 68 69 50 
3 68 89 69 
3 49 67 68 
3 48 67 49 
3 48 66 67 
3 65 66 48 
3 65 86 66 
3 47 64 65 
3 46 64 47 
3 46 45 64 
3 30 29 46 
3 29 45 46 
3 29 28 45 
3 16 15 29 
3 12 5 4 
3 23 13 12 
3 22 36 23 
3 36 37 23 
3 52 37 36 
3 52 53 37 
3 51 69 52 
3 69 70 52 
3 89 90 69 
3 68 88 89 
3 67 88 68 
3 67 87 88 
3 66 87 67 
3 66 86 87 
3 86 108 87 
3 65 85 86 
3 64 85 65 
3 64 84 85 
3 45 63 64 
3 28 44 45 
3 29 15 28 
3 15 27 28 
3 12 13 5 
3 23 14 13 
3 37 24 23 
3 53 38 37 
3 52 70 53 
3 70 71 53 
3 69 90 70 
3 90 91 70 
3 89 111 90 
3 88 110 89 
3 87 109 88 
3 108 109 87 
3 108 130 109 
3 86 85 108 
3 85 107 108 
3 84 106 85 
3 64 63 84 
3 63 83 84 
3 45 44 63 
3 44 62 63 
3 28 27 44 
3 27 43 44 
3 23 24 14 
3 24 25 14 
3 37 38 24 
3 38 25 24 
3 38 26 25 
3 53 54 38 
3 71 54 53 
3 71 72 54 
3 70 91 71 
3 91 92 71 
3 90 112 91 
3 111 112 90 
3 111 133 112 
3 89 110 111 
3 110 132 111 
3 88 109 110 
3 109 131 110 
3 130 131 109 
3 130 152 131 
3 108 129 130 
3 107 129 108 
3 107 128 129 
3 85 106 107 
3 106 128 107 
3 106 127 128 
3 84 83 106 
3 83 105 106 
3 63 62 83 
3 62 61 83 
3 44 43 62 
3 43 61 62 
3 43 42 61 
3 27 42 43 
3 38 39 26 
3 71 92 72 
3 92 93 72 
3 91 113 92 
3 112 113 91 
3 112 134 113 
3 133 134 112 
3 133 155 134 
3 111 132 133 
3 132 154 133 
3 110 131 132 
3 131 153 132 
3 152 153 131 
3 152 174 153 
3 130 151 152 
3 129 151 130 
3 129 128 151 
3 128 150 151 
3 127 149 128 
3 106 105 127 
3 105 126 127 
3 83 82 105 
3 61 82 83 
3 61 60 82 
3 42 60 61 
3 93 73 72 
3 92 114 93 
3 113 114 92 
3 113 135 114 
3 134 135 113 
3 134 156 135 
3 155 156 134 
3 155 177 156 
3 133 154 155 
3 154 176 155 
3 132 153 154 
3 153 175 154 
3 174 175 153 
3 174 197 175 
3 152 173 174 
3 151 173 152 
3 151 150 173 
3 150 172 173 
3 128 149 150 
3 149 171 150 
3 127 148 149 
3 126 148 127 
3 126 125 148 
3 105 104 126 
3 82 104 105 
3 82 103 104 
3 60 81 82 
3 73 55 72 
3 93 94 73 
3 114 115 93 
3 135 136 114 
3 156 157 135 
3 177 178 156 
3 155 176 177 
3 715 713 409 
3 154 175 176 
3 175 198 176 
3 197 198 175 
3 197 219 198 
3 174 196 197 
3 173 196 174 
3 173 195 196 
3 172 195 173 
3 172 194 195 
3 150 171 172 
3 171 194 172 
3 171 170 194 
3 149 148 171 
3 148 170 171 
3 148 147 170 
3 125 147 148 
3 125 146 147 
3 126 104 125 
3 104 103 125 
3 103 102 125 
3 82 81 103 
3 81 80 103 
3 60 80 81 
3 73 56 55 
3 94 74 73 
3 93 116 94 
3 115 116 93 
3 115 138 116 
3 114 136 115 
3 136 137 115 
3 135 157 136 
3 157 158 136 
3 156 178 157 
3 178 179 157 
3 177 200 178 
3 200 201 178 
3 593 613 710 
3 198 199 176 
3 198 221 199 
3 219 220 198 
3 197 196 219 
3 196 218 219 
3 195 217 196 
3 194 217 195 
3 194 216 217 
3 170 193 194 
3 147 169 170 
3 146 168 147 
3 125 124 146 
3 102 124 125 
3 103 80 102 
3 56 40 55 
3 73 74 56 
3 74 57 56 
3 94 95 74 
3 116 117 94 
3 138 139 116 
3 115 137 138 
3 137 160 138 
3 136 159 137 
3 158 159 136 
3 158 180 159 
3 157 179 158 
3 179 180 158 
3 179 202 180 
3 178 201 179 
3 201 202 179 
3 201 223 202 
3 200 223 201 
3 200 222 223 
3 199 222 200 
3 199 221 222 
3 221 243 222 
3 198 220 221 
3 220 241 221 
3 219 240 220 
3 218 240 219 
3 218 239 240 
3 196 217 218 
3 217 238 218 
3 216 237 217 
3 194 193 216 
3 193 215 216 
3 170 192 193 
3 169 192 170 
3 169 191 192 
3 147 168 169 
3 168 191 169 
3 40 39 55 
3 56 41 40 
3 57 41 56 
3 57 58 41 
3 74 75 57 
3 95 75 74 
3 95 96 75 
3 94 117 95 
3 117 118 95 
3 116 139 117 
3 139 140 117 
3 138 161 139 
3 160 161 138 
3 160 182 161 
3 137 159 160 
3 159 181 160 
3 180 181 159 
3 180 203 181 
3 202 203 180 
3 202 224 203 
3 223 224 202 
3 223 245 224 
3 222 244 223 
3 243 244 222 
3 243 263 244 
3 221 242 243 
3 241 242 221 
3 241 262 242 
3 220 240 241 
3 240 261 241 
3 239 260 240 
3 218 238 239 
3 238 258 239 
3 217 237 238 
3 237 257 238 
3 216 236 237 
3 215 236 216 
3 215 214 236 
3 193 214 215 
3 193 192 214 
3 192 191 214 
3 39 54 55 
3 57 76 58 
3 75 76 57 
3 75 97 76 
3 96 97 75 
3 96 119 97 
3 95 118 96 
3 118 119 96 
3 118 140 119 
3 140 118 117 
3 139 161 140 
3 161 162 140 
3 182 183 161 
3 160 181 182 
3 181 204 182 
3 203 204 181 
3 203 225 204 
3 224 225 203 
3 224 245 225 
3 245 246 225 
3 223 244 245 
3 244 264 245 
3 263 264 244 
3 263 282 264 
3 243 262 263 
3 262 243 242 
3 241 261 262 
3 261 280 262 
3 240 260 261 
3 260 279 261 
3 239 259 260 
3 258 259 239 
3 258 277 259 
3 238 257 258 
3 257 277 258 
3 237 236 257 
3 76 59 58 
3 97 98 76 
3 119 120 97 
3 140 141 119 
3 162 141 140 
3 162 163 141 
3 161 183 162 
3 183 184 162 
3 182 205 183 
3 204 205 182 
3 204 226 205 
3 225 226 204 
3 225 247 226 
3 246 247 225 
3 605 606 701 
3 245 266 246 
3 245 265 266 
3 264 265 245 
3 264 283 265 
3 282 283 264 
3 282 300 283 
3 263 281 282 
3 262 281 263 
3 262 280 281 
3 280 298 281 
3 261 279 280 
3 279 297 280 
3 260 278 279 
3 259 278 260 
3 259 277 278 
3 277 296 278 
3 76 77 59 
3 98 77 76 
3 98 99 77 
3 97 120 98 
3 120 121 98 
3 119 141 120 
3 141 142 120 
3 163 142 141 
3 163 164 142 
3 162 184 163 
3 184 185 163 
3 183 206 184 
3 205 206 183 
3 205 227 206 
3 226 227 205 
3 226 247 227 
3 247 248 227 
3 3 4 699 
3 265 285 266 
3 283 284 265 
3 300 301 283 
3 282 299 300 
3 281 299 282 
3 281 298 299 
3 298 316 299 
3 280 297 298 
3 297 314 298 
3 279 296 297 
3 296 279 278 
3 77 78 59 
3 99 78 77 
3 99 79 78 
3 98 121 99 
3 121 122 99 
3 120 142 121 
3 142 143 121 
3 164 143 142 
3 164 165 143 
3 163 185 164 
3 185 186 164 
3 184 207 185 
3 206 207 184 
3 206 228 207 
3 227 228 206 
3 227 248 228 
3 248 249 228 
3 247 267 248 
3 267 268 248 
3 266 285 267 
3 285 286 267 
3 265 284 285 
3 284 303 285 
3 283 302 284 
3 301 302 283 
3 301 319 302 
3 300 318 301 
3 299 317 300 
3 316 317 299 
3 316 331 317 
3 298 315 316 
3 314 315 298 
3 314 328 315 
3 297 313 314 
3 296 313 297 
3 99 100 79 
3 122 100 99 
3 122 101 100 
3 121 144 122 
3 143 144 121 
3 143 165 144 
3 165 166 144 
3 164 186 165 
3 186 187 165 
3 185 208 186 
3 207 208 185 
3 207 229 208 
3 228 229 207 
3 228 249 229 
3 249 250 229 
3 248 268 249 
3 268 269 249 
3 267 286 268 
3 286 287 268 
3 285 303 286 
3 303 304 286 
3 284 302 303 
3 302 319 303 
3 319 320 303 
3 301 318 319 
3 318 333 319 
3 300 317 318 
3 317 332 318 
3 331 332 317 
3 331 343 332 
3 316 330 331 
3 315 330 316 
3 315 329 330 
3 328 329 315 
3 328 340 329 
3 100 101 79 
3 122 123 101 
3 144 145 122 
3 166 145 144 
3 166 167 145 
3 165 187 166 
3 187 188 166 
3 186 209 187 
3 208 209 186 
3 208 230 209 
3 229 230 208 
3 229 250 230 
3 250 251 230 
3 249 269 250 
3 269 270 250 
3 268 287 269 
3 287 288 269 
3 286 305 287 
3 304 305 286 
3 304 322 305 
3 303 321 304 
3 320 321 303 
3 320 335 321 
3 319 334 320 
3 333 334 319 
3 333 345 334 
3 318 332 333 
3 332 344 333 
3 343 344 332 
3 331 342 343 
3 330 342 331 
3 330 341 342 
3 329 340 330 
3 340 341 330 
3 122 145 123 
3 166 189 167 
3 188 189 166 
3 188 212 189 
3 187 210 188 
3 209 210 187 
3 209 231 210 
3 230 231 209 
3 230 251 231 
3 251 252 231 
3 250 271 251 
3 270 271 250 
3 270 289 271 
3 269 289 270 
3 269 288 289 
3 288 307 289 
3 287 305 288 
3 305 306 288 
3 322 323 305 
3 304 321 322 
3 321 336 322 
3 335 336 321 
3 320 334 335 
3 334 345 335 
3 333 344 345 
3 189 190 167 
3 212 190 189 
3 212 213 190 
3 188 211 212 
3 210 211 188 
3 210 232 211 
3 231 232 210 
3 231 252 232 
3 252 253 232 
3 251 271 252 
3 271 272 252 
3 289 290 271 
3 307 290 289 
3 307 308 290 
3 288 306 307 
3 306 324 307 
3 305 323 306 
3 323 324 306 
3 323 338 324 
3 322 337 323 
3 336 337 322 
3 211 234 212 
3 232 233 211 
3 253 233 232 
3 253 254 233 
3 252 272 253 
3 272 273 253 
3 271 291 272 
3 290 291 271 
3 290 308 291 
3 308 309 291 
3 307 325 308 
3 324 325 307 
3 324 339 325 
3 338 339 324 
3 323 337 338 
3 211 233 234 
3 233 254 234 
3 254 255 234 
3 253 273 254 
3 273 274 254 
3 272 291 273 
3 291 292 273 
3 309 292 291 
3 309 310 292 
3 308 325 309 
3 325 326 309 
3 339 326 325 
3 254 274 255 
3 274 275 255 
3 273 292 274 
3 292 293 274 
3 310 293 292 
3 310 311 293 
3 309 327 310 
3 326 327 309 
3 275 256 255 
3 274 293 275 
3 293 294 275 
3 311 312 293 
3 310 327 311 
3 256 235 255 
3 275 276 256 
3 294 295 275 
3 293 312 294 
3 275 295 276 
3 7 0 6 
3 72 55 54 
3 38 54 39 
3 39 40 26 
3 314 313 328 
3 212 234 213 
3 234 235 213 
3 235 234 255 
3 7 1 0 
3 294 312 295 
3 712 347 355 
3 365 354 355 
3 442 421 722 
3 348 355 347 
3 366 365 355 
3 364 354 365 
3 364 363 353 
3 356 355 348 
3 356 366 355 
3 367 366 356 
3 379 365 366 
3 378 364 365 
3 364 353 354 
3 377 363 364 
3 352 353 363 
3 349 356 348 
3 357 367 356 
3 380 366 367 
3 380 379 366 
3 396 379 380 
3 378 365 379 
3 605 585 696 
3 377 364 378 
3 393 377 378 
3 376 363 377 
3 362 352 363 
3 357 356 349 
3 350 357 349 
3 368 367 357 
3 367 381 380 
3 368 381 367 
3 380 397 396 
3 381 397 380 
3 395 379 396 
3 414 395 396 
3 1 2 694 
3 394 393 378 
3 411 393 394 
3 376 377 393 
3 392 376 393 
3 362 363 376 
3 375 362 376 
3 358 357 350 
3 358 368 357 
3 369 368 358 
3 382 381 368 
3 381 398 397 
3 382 398 381 
3 415 396 397 
3 415 414 396 
3 435 414 415 
3 413 395 414 
3 395 412 394 
3 413 412 395 
3 412 411 394 
3 432 411 412 
3 410 393 411 
3 410 392 393 
3 713 715 391 
3 375 376 392 
3 391 375 392 
3 374 375 391 
3 361 362 375 
3 351 358 350 
3 359 369 358 
3 382 368 369 
3 383 382 369 
3 383 398 382 
3 399 398 383 
3 415 397 398 
3 416 415 398 
3 436 435 415 
3 434 414 435 
3 434 413 414 
3 433 413 434 
3 433 412 413 
3 432 412 433 
3 454 432 433 
3 431 411 432 
3 431 410 411 
3 430 410 431 
3 429 408 714 
3 390 374 391 
3 361 375 374 
3 373 361 374 
3 359 358 351 
3 360 369 359 
3 370 383 369 
3 384 399 383 
3 416 398 399 
3 417 416 399 
3 436 415 416 
3 437 436 416 
3 457 435 436 
3 456 434 435 
3 455 433 434 
3 455 454 433 
3 476 454 455 
3 453 431 432 
3 454 453 432 
3 452 430 431 
3 409 410 430 
3 566 567 719 
3 449 427 716 
3 427 428 716 
3 373 374 390 
3 389 373 390 
3 370 369 360 
3 371 370 360 
3 384 383 370 
3 371 384 370 
3 372 384 371 
3 400 399 384 
3 400 417 399 
3 418 417 400 
3 437 416 417 
3 438 437 417 
3 458 436 437 
3 458 457 436 
3 479 457 458 
3 456 435 457 
3 478 456 457 
3 455 434 456 
3 477 455 456 
3 477 476 455 
3 498 476 477 
3 475 454 476 
3 475 453 454 
3 474 453 475 
3 452 431 453 
3 474 452 453 
3 473 452 474 
3 429 430 452 
3 451 429 452 
3 408 390 715 
3 407 408 429 
3 389 390 408 
3 407 389 408 
3 388 389 407 
3 388 373 389 
3 385 384 372 
3 438 417 418 
3 439 438 418 
3 459 437 438 
3 459 458 437 
3 480 458 459 
3 480 479 458 
3 501 479 480 
3 478 457 479 
3 500 478 479 
3 477 456 478 
3 499 477 478 
3 499 498 477 
3 520 498 499 
3 498 475 476 
3 498 497 475 
3 474 475 497 
3 496 474 497 
3 495 473 474 
3 451 452 473 
3 472 451 473 
3 428 429 451 
3 428 407 429 
3 406 407 428 
3 406 388 407 
3 419 439 418 
3 460 438 439 
3 460 459 438 
3 481 459 460 
3 481 480 459 
3 502 480 481 
3 502 501 480 
3 523 501 502 
3 500 479 501 
3 522 500 501 
3 499 478 500 
3 521 499 500 
3 521 520 499 
3 543 520 521 
3 520 497 498 
3 520 519 497 
3 496 497 519 
3 518 496 519 
3 495 474 496 
3 518 517 495 
3 494 473 495 
3 494 472 473 
3 471 472 494 
3 450 451 472 
3 450 428 451 
3 569 590 718 
3 427 406 428 
3 401 419 418 
3 440 439 419 
3 461 460 439 
3 482 481 460 
3 503 502 481 
3 524 523 502 
3 522 501 523 
3 523 545 522 
3 521 500 522 
3 544 521 522 
3 544 543 521 
3 565 543 544 
3 542 520 543 
3 542 519 520 
3 541 519 542 
3 541 518 519 
3 540 518 541 
3 518 495 496 
3 540 517 518 
3 516 517 540 
3 516 494 495 
3 517 516 495 
3 493 494 516 
3 493 471 494 
3 492 471 493 
3 702 569 718 
3 568 702 718 
3 346 0 708 
3 471 449 717 
3 426 427 449 
3 426 406 427 
3 402 419 401 
3 420 440 419 
3 462 439 440 
3 462 461 439 
3 484 461 462 
3 482 460 461 
3 483 482 461 
3 503 481 482 
3 504 503 482 
3 524 502 503 
3 525 524 503 
3 546 523 524 
3 547 546 524 
3 546 545 523 
3 545 544 522 
3 545 566 544 
3 566 565 544 
3 542 543 565 
3 564 542 565 
3 563 541 542 
3 563 540 541 
3 562 540 563 
3 539 516 540 
3 515 493 516 
3 514 492 493 
3 470 471 492 
3 78 79 706 
3 426 449 448 
3 386 402 401 
3 420 419 402 
3 403 420 402 
3 441 440 420 
3 463 462 440 
3 485 484 462 
3 483 461 484 
3 506 483 484 
3 483 504 482 
3 483 505 504 
3 526 504 505 
3 525 503 504 
3 526 525 504 
3 548 525 526 
3 547 524 525 
3 548 547 525 
3 569 547 548 
3 470 448 705 
3 711 4 5 
3 568 545 546 
3 567 545 568 
3 589 567 568 
3 567 566 545 
3 403 387 721 
3 586 565 566 
3 387 58 721 
3 58 404 721 
3 563 542 564 
3 584 563 564 
3 583 562 563 
3 266 267 698 
3 606 605 696 
3 538 516 539 
3 538 515 516 
3 537 515 538 
3 514 493 515 
3 537 514 515 
3 385 386 401 
3 387 402 386 
3 387 403 402 
3 680 681 728 
3 421 420 403 
3 421 441 420 
3 442 441 421 
3 463 440 441 
3 464 463 441 
3 485 462 463 
3 486 485 463 
3 507 484 485 
3 507 506 484 
3 528 506 507 
3 505 483 506 
3 527 505 506 
3 527 526 505 
3 549 526 527 
3 549 548 526 
3 570 548 549 
3 570 569 548 
3 591 569 570 
3 567 588 719 
3 565 586 720 
3 609 589 590 
3 588 567 589 
3 585 564 720 
3 586 566 587 
3 587 606 586 
3 347 708 739 
3 584 564 585 
3 604 584 585 
3 583 563 584 
3 603 583 584 
3 582 562 583 
3 582 561 562 
3 560 561 582 
3 560 539 561 
3 538 539 560 
3 537 538 560 
3 400 385 401 
3 422 403 404 
3 422 421 403 
3 645 644 726 
3 608 588 723 
3 465 442 443 
3 464 441 442 
3 465 464 442 
3 487 486 464 
3 464 486 463 
3 508 507 485 
3 486 508 485 
3 529 528 507 
3 527 506 528 
3 550 527 528 
3 550 549 527 
3 571 549 550 
3 571 570 549 
3 592 591 570 
3 571 592 570 
3 590 569 591 
3 610 590 591 
3 610 609 590 
3 628 609 610 
3 610 611 725 
3 608 627 724 
3 607 587 757 
3 611 630 725 
3 607 606 587 
3 625 606 607 
3 621 622 697 
3 605 604 585 
3 623 604 605 
3 603 584 604 
3 623 603 604 
3 582 583 603 
3 405 422 404 
3 444 443 422 
3 466 465 443 
3 465 487 464 
3 486 509 508 
3 487 509 486 
3 529 507 508 
3 530 529 508 
3 551 528 529 
3 551 550 528 
3 572 550 551 
3 572 571 550 
3 593 571 572 
3 593 592 571 
3 346 347 712 
3 592 611 591 
3 612 611 592 
3 611 610 591 
3 612 631 727 
3 629 628 610 
3 646 628 629 
3 627 609 628 
3 627 608 609 
3 630 629 725 
3 631 630 727 
3 625 607 626 
3 643 625 626 
3 587 719 757 
3 736 5 758 
3 623 605 624 
3 642 623 624 
3 423 422 405 
3 423 444 422 
3 445 444 423 
3 466 443 444 
3 467 466 444 
3 488 487 465 
3 466 488 465 
3 487 510 509 
3 488 510 487 
3 530 508 509 
3 531 530 509 
3 552 529 530 
3 552 551 529 
3 573 551 552 
3 573 572 551 
3 593 572 573 
3 594 593 573 
3 703 350 711 
3 312 311 729 
3 627 645 726 
3 647 646 629 
3 646 627 628 
3 646 645 627 
3 630 611 727 
3 645 661 644 
3 643 626 644 
3 660 643 644 
3 642 625 643 
3 625 642 624 
3 424 423 405 
3 424 445 423 
3 425 445 424 
3 467 444 445 
3 468 467 445 
3 488 466 467 
3 489 488 467 
3 489 510 488 
3 511 510 489 
3 531 509 510 
3 532 531 510 
3 553 530 531 
3 553 552 530 
3 574 552 553 
3 574 573 552 
3 594 573 574 
3 595 594 574 
3 613 593 594 
3 614 613 594 
3 631 612 613 
3 632 631 613 
3 681 335 728 
3 649 630 631 
3 648 629 630 
3 648 647 629 
3 665 647 648 
3 664 646 647 
3 663 645 646 
3 663 662 645 
3 677 662 663 
3 662 661 645 
3 661 660 644 
3 674 660 661 
3 659 643 660 
3 659 642 643 
3 446 445 425 
3 446 468 445 
3 447 468 446 
3 490 467 468 
3 490 489 467 
3 511 489 490 
3 512 511 490 
3 532 510 511 
3 533 532 511 
3 554 531 532 
3 554 553 531 
3 575 553 554 
3 575 574 553 
3 595 574 575 
3 596 595 575 
3 614 594 595 
3 615 614 595 
3 632 613 614 
3 633 632 614 
3 649 631 632 
3 650 649 632 
3 648 630 649 
3 666 665 648 
3 649 666 648 
3 664 647 665 
3 679 664 665 
3 663 646 664 
3 678 663 664 
3 678 677 663 
3 689 677 678 
3 676 662 677 
3 676 661 662 
3 675 661 676 
3 675 674 661 
3 686 674 675 
3 447 446 425 
3 469 468 447 
3 491 490 468 
3 491 512 490 
3 513 512 491 
3 533 511 512 
3 534 533 512 
3 555 532 533 
3 555 554 532 
3 576 554 555 
3 576 575 554 
3 596 575 576 
3 597 596 576 
3 615 595 596 
3 616 615 596 
3 633 614 615 
3 634 633 615 
3 633 650 632 
3 633 651 650 
3 668 650 651 
3 650 666 649 
3 650 667 666 
3 681 666 667 
3 680 665 666 
3 680 679 665 
3 691 679 680 
3 678 664 679 
3 690 678 679 
3 690 689 678 
3 688 677 689 
3 688 676 677 
3 687 676 688 
3 686 675 676 
3 687 686 676 
3 491 468 469 
3 513 534 512 
3 513 535 534 
3 558 534 535 
3 556 533 534 
3 556 555 533 
3 577 555 556 
3 577 576 555 
3 597 576 577 
3 598 597 577 
3 617 596 597 
3 617 616 596 
3 636 635 616 
3 635 615 616 
3 634 615 635 
3 653 634 635 
3 651 633 634 
3 652 651 634 
3 669 668 651 
3 667 650 668 
3 682 667 668 
3 682 681 667 
3 680 666 681 
3 191 168 752 
3 690 679 691 
3 536 535 513 
3 536 558 535 
3 559 558 536 
3 557 534 558 
3 557 556 534 
3 578 556 557 
3 578 577 556 
3 598 577 578 
3 599 598 578 
3 617 597 598 
3 618 617 598 
3 617 636 616 
3 635 654 653 
3 636 654 635 
3 652 634 653 
3 670 652 653 
3 669 651 652 
3 670 669 652 
3 684 669 670 
3 683 668 669 
3 683 682 668 
3 580 557 558 
3 579 578 557 
3 578 600 599 
3 579 600 578 
3 618 598 599 
3 619 618 599 
3 618 636 617 
3 618 637 636 
3 654 636 637 
3 655 654 637 
3 671 653 654 
3 671 670 653 
3 685 670 671 
3 685 684 670 
3 683 669 684 
3 579 557 580 
3 600 579 580 
3 601 600 580 
3 619 599 600 
3 620 619 600 
3 637 618 619 
3 638 637 619 
3 638 655 637 
3 656 655 638 
3 561 539 695 
3 395 394 693 
3 672 685 671 
3 620 600 601 
3 621 620 601 
3 638 619 620 
3 639 638 620 
3 639 656 638 
3 657 656 639 
3 673 655 656 
3 673 672 655 
3 602 621 601 
3 639 620 621 
3 640 639 621 
3 658 657 639 
3 673 656 657 
3 581 602 601 
3 622 621 602 
3 425 79 700 
3 658 639 640 
3 267 247 698 
3 346 353 352 
3 401 418 400 
3 400 384 385 
3 386 385 372 
3 659 660 674 
3 580 558 559 
3 581 580 559 
3 580 581 601 
3 410 409 713 
3 658 640 641 
3 15 361 373 
3 27 15 373 
3 27 373 388 
3 42 27 388 
3 42 388 406 
3 60 42 406 
3 60 406 426 
3 80 60 426 
3 700 735 745 
3 741 753 754 
3 745 735 746 
3 447 425 745 
3 168 751 752 
3 741 426 750 
3 80 741 754 
3 748 744 749 
3 514 537 747 
3 425 700 745 
3 191 537 560 
3 214 191 560 
3 214 560 582 
3 236 214 582 
3 236 582 603 
3 257 236 603 
3 257 603 623 
3 277 257 623 
3 277 623 642 
3 296 277 642 
3 642 659 313 
3 296 642 313 
3 313 659 674 
3 328 313 674 
3 328 674 686 
3 340 328 686 
3 340 686 687 
3 341 340 687 
3 341 687 688 
3 342 341 688 
3 342 688 689 
3 343 342 689 
3 343 689 690 
3 344 343 690 
3 344 690 691 
3 345 344 691 
3 704 312 729 
3 101 734 735 
3 335 681 682 
3 336 335 682 
3 336 682 683 
3 337 336 683 
3 337 683 684 
3 338 337 684 
3 338 684 685 
3 339 338 685 
3 339 685 672 
3 326 339 672 
3 326 672 673 
3 327 326 673 
3 327 673 657 
3 311 327 657 
3 737 736 756 
3 704 641 730 
3 348 2 707 
3 471 470 705 
3 213 235 732 
3 559 536 732 
3 190 213 732 
3 491 469 746 
3 256 602 581 
3 235 256 581 
3 145 167 733 
3 123 145 733 
3 537 743 747 
3 190 536 513 
3 167 190 513 
3 426 448 750 
3 700 101 735 
3 123 733 734 
3 101 123 734 
3 14 360 736 
3 448 470 759 
3 354 353 712 
3 624 605 701 
3 176 199 709 
3 2 3 707 
3 78 424 405 
3 59 78 405 
3 59 405 404 
3 58 59 404 
3 443 442 722 
3 41 58 387 
3 41 387 386 
3 40 41 386 
3 40 386 372 
3 26 40 372 
3 26 372 371 
3 25 26 371 
3 25 371 360 
3 14 25 360 
3 351 703 737 
3 5 736 737 
3 392 410 713 
3 699 349 738 
3 424 78 706 
3 295 312 704 
3 568 546 702 
3 79 101 700 
3 613 612 710 
3 0 1 708 
3 622 641 697 
3 562 561 695 
3 711 5 703 
3 199 200 709 
3 0 346 352 
3 6 0 352 
3 6 352 362 
3 16 6 362 
3 362 361 15 
3 16 362 15 
3 80 426 741 
3 655 672 692 
3 672 671 692 
3 394 378 693 
3 654 655 692 
3 671 654 692 
3 379 395 693 
3 378 379 693 
3 2 348 694 
3 348 347 694 
3 540 562 695 
3 539 540 695 
3 586 606 696 
3 588 589 723 
3 640 621 697 
3 641 640 697 
3 247 246 698 
3 246 266 698 
3 712 355 354 
3 350 349 699 
3 608 724 757 
3 469 745 746 
3 625 624 701 
3 606 625 701 
3 547 569 702 
3 546 547 702 
3 707 3 738 
3 351 350 703 
3 295 704 730 
3 742 750 749 
3 449 471 705 
3 448 449 705 
3 79 425 706 
3 425 424 706 
3 708 1 739 
3 641 622 755 
3 657 658 740 
3 347 346 708 
3 200 177 709 
3 177 176 709 
3 592 593 710 
3 612 592 710 
3 350 699 711 
3 699 4 711 
3 353 346 712 
3 472 471 717 
3 3 699 738 
3 391 392 713 
3 430 429 714 
3 409 430 714 
3 390 391 715 
3 714 408 715 
3 409 714 715 
3 428 450 716 
3 450 472 717 
3 716 450 717 
3 449 716 717 
3 590 589 718 
3 589 568 718 
3 587 566 719 
3 564 565 720 
3 696 585 720 
3 586 696 720 
3 404 403 721 
3 422 443 722 
3 421 422 722 
3 609 608 723 
3 589 609 723 
3 626 607 724 
3 5 13 758 
3 748 749 759 
3 629 610 725 
3 644 626 726 
3 724 627 726 
3 626 724 726 
3 611 612 727 
3 691 680 728 
3 345 691 728 
3 335 345 728 
3 311 657 729 
3 168 146 751 
3 581 559 732 
3 235 581 732 
3 295 730 731 
3 276 295 731 
3 256 276 731 
3 602 256 731 
3 536 190 732 
3 167 513 733 
3 513 491 733 
3 719 588 757 
3 703 5 737 
3 492 514 747 
3 694 347 739 
3 729 657 740 
3 588 608 757 
3 349 348 738 
3 348 707 738 
3 1 694 739 
3 704 729 740 
3 658 641 740 
3 641 704 740 
3 622 602 755 
3 492 747 748 
3 102 80 754 
3 735 734 746 
3 469 447 745 
3 743 748 747 
3 537 191 743 
3 744 752 751 
3 751 124 753 
3 734 733 746 
3 733 491 746 
3 744 748 743 
3 743 191 752 
3 744 742 749 
3 741 750 742 
3 146 124 751 
3 360 359 756 
3 742 744 751 
3 742 751 753 
3 743 752 744 
3 741 742 753 
3 602 731 755 
3 736 360 756 
3 754 753 102 
3 753 124 102 
3 731 730 755 
3 730 641 755 
3 359 351 756 
3 351 737 756 
3 724 607 757 
3 14 736 758 
3 13 14 758 
3 749 750 759 
3 750 448 759 
3 470 492 759 
3 492 748 759 
