ply
format ascii 1.0
comment created by PLYWriter
element vertex 582
property float x
property float y
property float z
element face 1160
property list uchar int vertex_indices
end_header
-0.024138888 0.035747446 0.14570332 
-0.024238668 0.03343659 0.14556307 
-0.024557866 0.030946083 0.14717282 
-0.02488993 0.02839639 0.1481398 
-0.025242131 0.025851369 0.14899504 
-0.026574453 0.022484545 0.15203476 
-0.028995266 0.018523654 0.15619786 
-0.029889992 0.015426763 0.15745921 
-0.031096885 0.011893881 0.15708373 
-0.031165345 0.009148349 0.1563751 
-0.031531114 0.0062679937 0.15645912 
-0.032892928 0.0023966643 0.15726535 
-0.03309514 -0.0004555974 0.15688834 
-0.021655476 0.035624556 0.1451682 
-0.021839585 0.033265777 0.14590855 
-0.022109604 0.030835623 0.1474312 
-0.022343136 0.028373288 0.1482469 
-0.022706551 0.02576927 0.14942347 
-0.023776166 0.02250857 0.1515989 
-0.024795251 0.019177297 0.15443814 
-0.02622658 0.015697088 0.1553161 
-0.027564513 0.012103162 0.15558656 
-0.028023131 0.009127138 0.1557957 
-0.028371261 0.0062231305 0.15614267 
-0.030108282 0.0022240335 0.1577782 
-0.031904694 -0.0018238572 0.15826344 
-0.036382407 -0.007159299 0.15964028 
-0.019203208 0.03558254 0.14530326 
-0.019534953 0.033290792 0.14766471 
-0.019649649 0.030828545 0.14791839 
-0.019878784 0.02834815 0.14878076 
-0.020058133 0.025790116 0.1491163 
-0.021084227 0.022565603 0.15212487 
-0.022637473 0.018752512 0.15540317 
-0.023777066 0.015241825 0.15589927 
-0.02490755 0.011827799 0.15621382 
-0.02553164 0.008840596 0.15704954 
-0.027151357 0.004892257 0.1588491 
-0.029115926 0.0008693704 0.15957507 
-0.029463395 -0.0024128556 0.16088152 
-0.033703405 -0.007151499 0.16093028 
-0.033869404 -0.01004543 0.16203028 
-0.016711442 0.035539668 0.1464609 
-0.017000243 0.033225626 0.1476784 
-0.01705518 0.030853098 0.14764148 
-0.01742779 0.028367395 0.14958736 
-0.017711086 0.025827235 0.14978169 
-0.018456947 0.022598337 0.15242703 
-0.020064425 0.018734992 0.15616317 
-0.020098127 0.016056387 0.15563491 
-0.021350252 0.012596043 0.15696718 
-0.022426652 0.008919639 0.15871559 
-0.024605028 0.004608816 0.1603171 
-0.026516184 0.0007542114 0.16107334 
-0.027258188 -0.0024069739 0.16295889 
-0.028651247 -0.00570363 0.16398542 
-0.031432398 -0.009699059 0.16379029 
-0.01420682 0.035493094 0.1460871 
-0.014431339 0.03314853 0.1473573 
-0.01444235 0.030780848 0.14698738 
-0.014952906 0.028395772 0.14972878 
-0.015406343 0.025782438 0.15102524 
-0.015816202 0.023040995 0.15308844 
-0.017472224 0.018640537 0.157011 
-0.017669879 0.016240856 0.15624908 
-0.018692575 0.012590637 0.15772106 
-0.01984956 0.008940332 0.15952657 
-0.021566378 0.0047455817 0.16055334 
-0.02243409 0.0015261545 0.16293475 
-0.026109945 -0.0024735818 0.16505216 
-0.024509117 -0.0045328625 0.16587009 
-0.023902506 -0.007566886 0.16540088 
-0.011772129 0.035515394 0.14618364 
-0.0119424 0.03316867 0.14727156 
-0.012002647 0.030762387 0.14831059 
-0.0124181155 0.028349401 0.15038218 
-0.012801435 0.025841253 0.15167098 
-0.013124668 0.023203885 0.15353331 
-0.014170039 0.019820873 0.1564867 
-0.014686763 0.017115735 0.1563104 
-0.015070819 0.014043011 0.15817638 
-0.017264318 0.008746476 0.16081753 
-0.019384317 0.0043133786 0.16318502 
-0.020238012 0.0017536476 0.16577443 
-0.021901451 -0.001349041 0.16672434 
-0.021766728 -0.0043010004 0.16716261 
-0.02034461 -0.0073943967 0.16454987 
-0.00929018 0.035491873 0.14633083 
-0.009439213 0.03316884 0.14710109 
-0.009637926 0.030991815 0.14952528 
-0.009893495 0.028360097 0.15116203 
-0.010168888 0.025705766 0.15233824 
-0.010493043 0.023101317 0.15428656 
-0.010846302 0.020267086 0.15653253 
-0.011286829 0.017379483 0.15589349 
-0.011764075 0.01431772 0.15852481 
-0.013685265 0.010593754 0.16210888 
-0.015690368 0.0053561646 0.16426729 
-0.01687687 0.0027128058 0.16717418 
-0.017170046 -0.0004516061 0.16698843 
-0.018682437 -0.004042008 0.1674034 
-0.017731685 -0.007004088 0.16561215 
-0.0067583425 0.03552723 0.14652868 
-0.0069791507 0.033312764 0.14779389 
-0.0071679535 0.030982297 0.15014985 
-0.007162577 0.028550034 0.15112907 
-0.007457307 0.025870878 0.15206268 
-0.007867086 0.023226531 0.1547072 
-0.008294784 0.020161018 0.1575494 
-0.0083619505 0.017389609 0.15722978 
-0.009207949 0.014307583 0.15992942 
-0.010073634 0.0112524275 0.16339183 
-0.010975772 0.0065350663 0.16501722 
-0.013925977 0.0029163333 0.16727304 
-0.014626244 -9.242593e-05 0.16856249 
-0.014247969 -0.00316171 0.16852142 
-0.014409002 -0.0051877154 0.17010374 
-0.0042971503 0.03557495 0.1471662 
-0.004516848 0.033448614 0.14868751 
-0.0045876824 0.03130158 0.15038213 
-0.0046854033 0.028797096 0.15253751 
-0.0048917583 0.026125122 0.15390094 
-0.005767078 0.023203861 0.15805277 
-0.0057905167 0.020293055 0.15890238 
-0.0061515756 0.017537018 0.15939498 
-0.006934175 0.014724072 0.16170698 
-0.0077833803 0.011524877 0.1642662 
-0.008614814 0.0072000474 0.16660684 
-0.010409623 0.0044308235 0.16813032 
-0.010169568 0.0015134012 0.1691833 
-0.008865037 -0.0011328802 0.16956785 
-0.008395415 -0.0045158593 0.17185575 
-0.0017665873 0.035661392 0.14739496 
-0.0019313691 0.033482164 0.14905986 
-0.0018857212 0.03136078 0.15038404 
-0.0019683042 0.028949924 0.15215011 
-0.002112278 0.026367998 0.15424347 
-0.0026230516 0.02376394 0.15810895 
-0.0026257422 0.020965375 0.15919583 
-0.0032492524 0.01837554 0.16094725 
-0.003626319 0.01520507 0.16248319 
-0.0046499884 0.011787357 0.16590285 
-0.0045038434 0.008510414 0.16847561 
-0.005884272 0.0051105977 0.16984077 
-0.0063910536 0.0023915553 0.17077301 
-0.005651514 -0.000532154 0.16991809 
-0.0054112123 -0.004073312 0.17331614 
0.0006987381 0.035753444 0.14806265 
0.0006489562 0.033466317 0.14929692 
0.0005149904 0.031241076 0.15136094 
0.00053431804 0.028867317 0.15303113 
0.00044756106 0.026490001 0.15606108 
5.9531172e-05 0.023941802 0.15833034 
2.6682752e-05 0.021286258 0.16002305 
-5.6452067e-05 0.018797224 0.16203853 
-0.00025080357 0.015940066 0.1636744 
-0.0014331322 0.0126239015 0.16647188 
-0.0018459402 0.009207577 0.16925958 
-0.0014780122 0.0061992146 0.17021573 
-0.0021135297 0.0032660284 0.17108488 
-0.0016578953 6.3354106e-05 0.17212489 
-0.0025685523 -0.0032120373 0.1729772 
0.0032109953 0.035817746 0.14859003 
0.0031993284 0.033677947 0.15079644 
0.0030615078 0.031236924 0.15173233 
0.0031228364 0.02876674 0.15364005 
0.0030944068 0.026495712 0.1561279 
0.002744869 0.024056952 0.15845253 
0.0028285224 0.021623513 0.159341 
0.0027812948 0.019092165 0.1620904 
0.0023933498 0.016338969 0.16416635 
0.0021971292 0.013324571 0.167165 
0.0011704494 0.009774258 0.16931811 
0.0015372331 0.006805466 0.16978419 
0.0018395268 0.00423597 0.17000099 
0.0012370466 0.00066656276 0.17197867 
0.0023665207 -0.0016659686 0.17340776 
0.0057344227 0.035660278 0.14738427 
0.005819968 0.033695582 0.14981554 
0.0057777925 0.031351645 0.15125877 
0.0057175416 0.02897278 0.15375112 
0.005810351 0.026800536 0.15700793 
0.0058290754 0.024288148 0.15885776 
0.0057318923 0.02189822 0.16070734 
0.0058128787 0.01951723 0.16255616 
0.0058974503 0.016716652 0.16442508 
0.005378525 0.013811012 0.16829398 
0.00608346 0.01080761 0.1693391 
0.0051953434 0.0075319363 0.1699997 
0.005140521 0.004783393 0.17137639 
0.005819718 0.0016043732 0.17347868 
0.0061076223 -0.0014887842 0.17560774 
0.008290307 0.035817243 0.14811602 
0.008377595 0.033748824 0.15012613 
0.008365019 0.031313457 0.150635 
0.008499979 0.029372968 0.15547544 
0.008491292 0.027261129 0.15846518 
0.008627248 0.024856033 0.15988243 
0.008756468 0.022420451 0.1620464 
0.008800865 0.019772835 0.16425112 
0.00889436 0.017199192 0.16609617 
0.00911535 0.014152403 0.16845964 
0.009166773 0.011153887 0.16813752 
0.009254694 0.008292984 0.16967665 
0.008823768 0.005142431 0.17271337 
0.008829121 0.0014598129 0.17525753 
0.009097985 -0.0014703803 0.17667438 
0.010766601 0.03564215 0.14746644 
0.010845871 0.033428006 0.148766 
0.010980731 0.03135423 0.15108067 
0.011115865 0.029528715 0.1559299 
0.011097511 0.027454937 0.15861924 
0.011273302 0.024796816 0.15845369 
0.011454203 0.022547308 0.1622325 
0.011528542 0.020057846 0.16467507 
0.011685509 0.017526615 0.16638707 
0.012083103 0.014502403 0.16689064 
0.012387469 0.011603386 0.16775729 
0.012074664 0.008472082 0.1694295 
0.012739021 0.005150737 0.17351075 
0.012544592 0.0018099591 0.1754148 
0.013145789 0.03527412 0.14599553 
0.013294051 0.03318036 0.14773646 
0.013629137 0.03145612 0.1519691 
0.013796669 0.029708438 0.15634434 
0.013776653 0.027543554 0.15830849 
0.013966853 0.025026044 0.15935193 
0.014264567 0.02278465 0.163373 
0.014870627 0.02023246 0.16464882 
0.01459033 0.017609574 0.16606537 
0.014893297 0.014874392 0.16707835 
0.015228594 0.011985845 0.16793945 
0.015418133 0.008674368 0.17035079 
0.01584585 0.0052301744 0.173172 
0.016031023 0.0020634586 0.17367171 
0.01631414 -0.00088495034 0.17517304 
0.015261941 0.03472192 0.14400266 
0.0155537855 0.033096146 0.14747699 
0.016021421 0.03178388 0.15309647 
0.016234145 0.027655708 0.1582471 
-0.024088 0.038206 0.14874 
-0.024127455 0.035776366 0.14876772 
-0.024475668 0.033134963 0.15043716 
-0.024939891 0.030398903 0.1514658 
-0.02543931 0.02767407 0.15249099 
-0.027023146 0.02417034 0.15538722 
-0.029114872 0.020198891 0.15966302 
-0.030090997 0.016981876 0.16093175 
-0.03093477 0.013957873 0.16038825 
-0.031269405 0.010949307 0.15979539 
-0.032015283 0.0077719046 0.15990777 
-0.03337387 0.004133411 0.1603936 
-0.034222472 0.00078471546 0.15978529 
-0.021613 0.038072 0.14817 
-0.021717539 0.035720445 0.14906874 
-0.02205286 0.033174645 0.15069494 
-0.02244886 0.030500416 0.15151939 
-0.02292334 0.027667677 0.15278605 
-0.024068065 0.02445778 0.15501985 
-0.025481053 0.020727947 0.15766442 
-0.026449725 0.017426746 0.15866007 
-0.027445395 0.014177543 0.15891437 
-0.028184801 0.011062289 0.15920247 
-0.028895732 0.007849244 0.15947224 
-0.030806947 0.003993608 0.16092777 
-0.032417223 -0.000115026676 0.1611908 
-0.033946913 -0.0036278686 0.16235563 
-0.019087 0.038161 0.14829 
-0.019357184 0.03582017 0.15062937 
-0.019644242 0.03317722 0.15112308 
-0.020048503 0.03048693 0.15199557 
-0.020331362 0.027770912 0.15247256 
-0.021469966 0.024376627 0.15548575 
-0.023097144 0.02045524 0.15887067 
-0.023899844 0.017261013 0.15911327 
-0.024721628 0.014011992 0.1593847 
-0.025520623 0.0107032275 0.1600461 
-0.027110852 0.0072766645 0.16171688 
-0.028617837 0.0033180718 0.16278912 
-0.029955886 -0.00030414673 0.16387296 
-0.03152646 -0.0035808354 0.16425712 
-0.03174692 -0.006559239 0.16480252 
-0.016557 0.038309 0.14935 
-0.01688851 0.03587907 0.15067057 
-0.01713097 0.03321666 0.15074764 
-0.017646207 0.030496927 0.15272962 
-0.017961413 0.027877567 0.1531365 
-0.018815523 0.024549216 0.1556811 
-0.020474847 0.020625692 0.1594304 
-0.020985447 0.017605066 0.15889522 
-0.022083126 0.014207328 0.16029125 
-0.02331085 0.010501553 0.16187398 
-0.024898987 0.0063449983 0.16358621 
-0.025810612 0.003130718 0.16393873 
-0.027625876 -5.263106e-05 0.16582024 
-0.028736584 -0.0031560608 0.16701505 
-0.028736813 -0.006192058 0.16702761 
-0.014068 0.038238 0.14901 
-0.014379574 0.035840478 0.1502768 
-0.014530564 0.033289287 0.15012638 
-0.0151758045 0.030602513 0.15282752 
-0.015623621 0.027945936 0.1542974 
-0.016500335 0.024674831 0.15634571 
-0.01782179 0.020834643 0.15998134 
-0.018178742 0.01778013 0.15959199 
-0.01914153 0.014416427 0.16084856 
-0.020505259 0.010954228 0.16263755 
-0.021606162 0.006908977 0.16395043 
-0.023035191 0.0032716147 0.16576366 
-0.02516026 0.0003608604 0.16822378 
-0.025578298 -0.0024644786 0.16874324 
-0.024989143 -0.0053855833 0.16808397 
-0.011591 0.038273 0.14904 
-0.011929571 0.035805665 0.15025641 
-0.012155946 0.033253584 0.1514045 
-0.012680917 0.030638892 0.15351726 
-0.013033294 0.028184712 0.15476936 
-0.0137223145 0.02525129 0.1566331 
-0.014673527 0.021678241 0.15945774 
-0.015071876 0.018628215 0.15967011 
-0.016158981 0.014742146 0.16106963 
-0.01770458 0.010797349 0.16375008 
-0.019277537 0.0069481176 0.16631885 
-0.020944575 0.0037462756 0.16890582 
-0.021480551 0.0008778723 0.16952944 
-0.022190666 -0.0019042906 0.16999015 
-0.021113139 -0.0050147567 0.16784221 
-0.0091053 0.03827 0.14908 
-0.009467654 0.035829276 0.15007886 
-0.009742446 0.033411205 0.152531 
-0.010209129 0.030683056 0.15425944 
-0.01046912 0.028062547 0.15540746 
-0.0110945925 0.025286792 0.15734993 
-0.011525957 0.022303574 0.15961988 
-0.011665387 0.019453984 0.15907843 
-0.0125969285 0.016026082 0.16169903 
-0.014610757 0.011729999 0.1651162 
-0.015916169 0.007412175 0.1674288 
-0.01781066 0.0042702877 0.17020498 
-0.017757757 0.00149805 0.16999866 
-0.018115815 -0.0013678421 0.17015661 
-0.017420165 -0.0042631687 0.16867778 
-0.0066123 0.038334 0.1494 
-0.0069611287 0.03597073 0.15070742 
-0.007233137 0.03356132 0.15307452 
-0.0074183964 0.030973107 0.15419632 
-0.007680279 0.02832513 0.1550496 
-0.008239656 0.02552542 0.15782155 
-0.008830722 0.022476686 0.16063361 
-0.008775164 0.019647017 0.16036032 
-0.010067804 0.016705133 0.16309735 
-0.0114481365 0.01273107 0.16622074 
-0.012615804 0.008092101 0.16772509 
-0.014240879 0.004925779 0.17041658 
-0.014295097 0.002240767 0.17149554 
-0.014049656 -0.0005510083 0.17113332 
-0.014112838 -0.0028007464 0.17260262 
-0.0041302 0.038445 0.14994 
-0.0044284146 0.036100335 0.15153855 
-0.0047013634 0.033814345 0.15331629 
-0.0049137417 0.031220758 0.15546659 
-0.005235993 0.02849107 0.15696046 
-0.0058733453 0.025654174 0.16092646 
-0.006130208 0.022671424 0.16182579 
-0.006338539 0.019866807 0.16233557 
-0.007185669 0.016798215 0.1646549 
-0.008302956 0.013271506 0.16726504 
-0.009050704 0.009171005 0.16960162 
-0.010418159 0.0059790635 0.17133088 
-0.01065118 0.0032345562 0.17234395 
-0.010425688 0.0006427198 0.17203403 
-0.009935055 -0.0026657083 0.17438434 
-0.0016102 0.038486 0.15017 
-0.0017706864 0.036231115 0.15186305 
-0.0019673307 0.03396045 0.15330411 
-0.0022252935 0.03142745 0.15514986 
-0.0025242642 0.028716257 0.15720713 
-0.0030322485 0.025983496 0.161079 
-0.0033203964 0.023137517 0.16218986 
-0.0037657951 0.020196497 0.16410372 
-0.0041132364 0.017265022 0.16539723 
-0.0053735757 0.0139882155 0.16885485 
-0.006053371 0.009938077 0.17129554 
-0.006880951 0.0068606324 0.17274775 
-0.0073703355 0.0040736473 0.17387146 
-0.0062602353 0.0014912344 0.17287356 
-0.006377158 -0.002006835 0.17607063 
0.0008719 0.038633 0.15076 
0.0007012385 0.036294658 0.15215272 
0.00040867727 0.03389926 0.15419577 
0.00033704334 0.031451404 0.1560043 
2.8890734e-05 0.028813722 0.15900621 
-0.00020418102 0.02616888 0.16132124 
-0.0004413624 0.023414034 0.16296925 
-0.0009048325 0.020710578 0.1649998 
-0.0013530159 0.017880699 0.1667553 
-0.0019922815 0.014828625 0.1694693 
-0.0027693396 0.010888876 0.17197238 
-0.0031345212 0.0076826797 0.17298144 
-0.003572591 0.004708743 0.1738764 
-0.0029537464 0.00174556 0.17488414 
-0.0028929964 -0.0013969721 0.1763875 
0.0033972 0.038745 0.15121 
0.003273698 0.036511827 0.15343314 
0.003016044 0.03396045 0.1544668 
0.0029929697 0.03139907 0.15652277 
0.0028855002 0.029088318 0.15900487 
0.0027854964 0.026647711 0.16122133 
0.002731735 0.024122018 0.16220996 
0.0024585 0.02153643 0.16513169 
0.0017935574 0.018502435 0.16710718 
0.0014060357 0.015463538 0.16980778 
0.00085858325 0.011990606 0.17218447 
0.0005664336 0.008910175 0.17288648 
0.0007339891 0.006122768 0.1731098 
0.00046096288 0.0028403304 0.17509049 
0.0010377639 -0.00014244426 0.17583792 
0.0058707 0.038486 0.15011 
0.0058168466 0.03640049 0.15258446 
0.005630585 0.034 0.15416235 
0.0056038178 0.031641673 0.15664311 
0.005615415 0.029394489 0.15988132 
0.0056255786 0.02694852 0.16173948 
0.005654625 0.024508685 0.1633642 
0.005741086 0.022099363 0.16540292 
0.005311823 0.019138133 0.16712393 
0.0048142294 0.015676597 0.17094785 
0.0042790463 0.012483543 0.1715551 
0.0038222172 0.009417057 0.17246304 
0.003947474 0.006573719 0.17395714 
0.0039121956 0.0031805928 0.17593934 
0.004357408 0.00055633707 0.177944 
0.0084124 0.03865 0.15084 
0.008385229 0.036529023 0.15287389 
0.008233111 0.03401324 0.15345354 
0.008388421 0.032080155 0.15834151 
0.008392685 0.02983378 0.16129354 
0.008509915 0.027404644 0.16258278 
0.008572716 0.025067763 0.1648452 
0.008990549 0.022452904 0.16699189 
0.008518435 0.019535886 0.16874278 
0.008236209 0.016346429 0.17095621 
0.008424643 0.013571735 0.17083077 
0.0077882903 0.010471918 0.17220013 
0.007385967 0.0069226436 0.17531721 
0.0075665847 0.0036027126 0.17802292 
0.00800216 0.001014283 0.17902105 
0.010881 0.038483 0.15016 
0.010870668 0.036214415 0.15152413 
0.0109441215 0.03408128 0.1539205 
0.011161285 0.032239325 0.15877672 
0.011324026 0.030074684 0.16143148 
0.0114054745 0.027527595 0.16131584 
0.011611976 0.02540194 0.16509469 
0.012028717 0.022745855 0.16740134 
0.011910491 0.020089036 0.16904582 
0.011986283 0.01715787 0.16983871 
0.012059181 0.014214254 0.17044361 
0.011653651 0.011033472 0.17212375 
0.0115314 0.0072714533 0.17569931 
0.011518539 0.0039011063 0.17764834 
0.013243 0.038122 0.14866 
0.013368873 0.03601313 0.15043975 
0.013631256 0.03416023 0.15482657 
0.014001997 0.032384906 0.15901387 
0.014179083 0.030272571 0.16098677 
0.014535 0.027882 0.16206 
0.014839 0.025694 0.16611 
0.014968 0.022943 0.16733 
0.01514 0.020263 0.16877 
0.015196 0.01752 0.1698 
0.015244 0.01462 0.17068 
0.015083 0.011358 0.173 
0.015525 0.0077339 0.17585 
0.015051 0.0045709 0.17593 
0.01495 0.0015253 0.17715 
0.015334 0.037596 0.14672 
0.015635 0.035878 0.15015 
0.016214 0.034589 0.1558 
0.016696 0.030571 0.16096 
-0.023876037 -0.00080829335 0.16905981 
-0.020835804 0.011405732 0.1578962 
-0.0068036485 0.010117001 0.16580442 
-0.018055925 0.0041118134 0.16463263 
0.014508688 0.0036883638 0.17434669 
0.014241757 0.035378926 0.15128313 
-0.008176731 0.0032920493 0.1693703 
-0.0013607617 0.019532932 0.1608946 
-0.0050236355 0.026430339 0.15991779 
-0.012398498 0.014969333 0.16313471 
-0.013973498 0.010727791 0.16590904 
-0.0047147735 0.02419012 0.15700577 
-0.013385746 0.01463709 0.1631017 
-0.026972782 -0.001581203 0.1676163 
-0.009766933 0.018784786 0.15684685 
-0.0054666437 0.024159918 0.15678097 
-0.008989178 0.008597456 0.16555658 
-0.016941162 0.009058767 0.16551939 
-0.0034030264 0.029979162 0.15154584 
0.0111229345 0.02113234 0.16401301 
-0.02974747 -0.0017310949 0.16508375 
0.013466841 0.026371991 0.16438128 
-0.004725924 0.024220774 0.16154252 
-0.010563512 0.017589761 0.1615433 
-0.019510198 0.0064596892 0.16159162 
-0.0020646988 0.02174865 0.16392842 
-0.022422472 0.0017385271 0.16777982 
-0.03152631 -0.007864224 0.16256036 
-0.016989907 -0.004400129 0.16809501 
-0.016650476 0.007974221 0.16168827 
-0.008644941 0.02716281 0.15172395 
-0.009401466 0.018171823 0.16177578 
-0.007917506 0.0090060355 0.16565783 
-0.0101345675 0.021012526 0.1599584 
-0.023389822 -0.0029210204 0.16611776 
6.953084e-05 0.013750172 0.16574316 
0.014911235 0.035316966 0.15175174 
-0.0009328877 0.013795531 0.165229 
-0.019287938 0.0032732447 0.16441213 
0.013215277 0.02351786 0.16158445 
-0.007507459 0.012198925 0.16876602 
-0.005715494 0.03454036 0.14760004 
-0.0086719785 0.011426891 0.16836932 
-0.003073989 0.03450494 0.1481731 
-0.017804202 0.007217807 0.16165306 
0.009992724 0.03002803 0.15446933 
-0.028040338 -0.0008883987 0.16157214 
-0.008058524 0.008024249 0.17087688 
-0.010218231 0.010554329 0.16802558 
-0.006893778 0.023872098 0.160292 
-0.011946782 0.009550157 0.16715841 
-0.009803855 0.015506348 0.15849227 
-0.0025536271 0.0138009 0.16464816 
-0.012424467 0.0013519154 0.17161956 
-0.0042745704 0.013443012 0.16398016 
-0.013195074 0.008865772 0.16690129 
-0.022765871 0.020062484 0.15435301 
-0.004276719 0.021831544 0.15851964 
0.00989483 0.03270494 0.1573268 
-0.025191385 -0.00053232437 0.1632391 
-0.021945098 0.020101322 0.15437402 
0.008285698 0.03271718 0.15666583 
-0.011812508 -0.00086948846 0.16883853 
-0.029854704 -0.0045586214 0.16196115 
0.012328206 0.03517854 0.15196942 
0.013791607 0.013354149 0.1673977 
-0.020311033 0.020341149 0.15454678 
0.009345548 0.030072525 0.15399949 
-0.019151583 0.020549292 0.15455289 
0.008415553 0.029990114 0.15380464 
0.012931508 0.03482825 0.15236889 
0.009237644 0.032771815 0.1568429 
-0.021671996 0.026470613 0.1534435 
-0.02079616 0.026332173 0.153797 
-0.019739207 0.026486948 0.1537319 
-0.005036092 0.03555386 0.14704008 
0.0141519075 0.023868235 0.16140032 
-0.0059767133 0.024588352 0.16131929 
-0.015270719 0.009993574 0.16592163 
0.014430011 0.026659084 0.16416177 
-0.033329047 -0.0051409197 0.16350527 
0.015664795 0.03547901 0.15189369 
0.014222957 0.034754895 0.1533016 
-0.007816018 0.009542118 0.16550311 
0.014948062 0.0034490717 0.17480421 
-0.024206463 0.034334633 0.14684744 
-0.015186252 0.01034011 0.16600476 
0.015718117 0.03508316 0.15358433 
-0.020690085 -0.0061743297 0.16640744 
0.015987186 0.0036247158 0.1735259 
0.015216667 0.03615659 0.14536156 
0.014015071 0.026467238 0.16071624 
-0.025280617 -0.006645334 0.16616559 
-0.024115587 0.036906864 0.14729331 
-0.032911964 -0.008084128 0.16321266 
0.0145242 0.021514993 0.1659941 
0.015391427 0.0027532468 0.17422833 
-0.0042192494 0.036970776 0.14860623 
-0.0067469208 0.03686272 0.14809313 
-0.004291626 0.036252663 0.1479077 
-0.0017080435 0.037019 0.14884196 
-0.0029542425 0.036533263 0.14830601 
3 13 1 0 
3 13 14 1 
3 14 15 1 
3 13 27 14 
3 15 2 1 
3 14 28 15 
3 27 28 14 
3 27 42 28 
3 15 16 2 
3 28 29 15 
3 42 43 28 
3 16 3 2 
3 15 30 16 
3 29 30 15 
3 29 44 30 
3 28 44 29 
3 28 43 44 
3 43 59 44 
3 42 58 43 
3 16 17 3 
3 30 17 16 
3 30 31 17 
3 44 45 30 
3 43 58 59 
3 58 73 59 
3 42 57 58 
3 30 46 31 
3 45 46 30 
3 45 60 46 
3 44 60 45 
3 73 74 59 
3 58 57 73 
3 57 72 73 
3 60 61 46 
3 74 60 59 
3 73 88 74 
3 72 88 73 
3 72 87 88 
3 60 75 61 
3 74 75 60 
3 74 89 75 
3 88 89 74 
3 87 103 88 
3 75 76 61 
3 89 90 75 
3 87 102 103 
3 75 90 76 
3 90 91 76 
3 89 105 90 
3 81 509 524 
3 91 77 76 
3 348 333 513 
3 349 503 511 
3 89 104 105 
3 520 366 522 
3 105 120 106 
3 104 119 105 
3 54 39 526 
3 120 121 106 
3 105 119 120 
3 453 467 501 
3 509 82 524 
3 120 135 121 
3 214 199 499 
3 134 149 135 
3 132 147 133 
3 135 136 121 
3 149 150 135 
3 147 148 133 
3 135 150 136 
3 149 164 150 
3 147 162 148 
3 149 148 164 
3 162 163 148 
3 148 163 164 
3 163 179 164 
3 162 178 163 
3 163 178 179 
3 178 194 179 
3 162 177 178 
3 178 193 194 
3 177 192 178 
3 193 208 194 
3 178 192 193 
3 192 208 193 
3 192 207 208 
3 208 209 194 
3 207 222 208 
3 207 221 222 
3 221 236 222 
3 236 237 222 
3 20 19 34 
3 34 35 20 
3 19 33 34 
3 35 21 20 
3 34 50 35 
3 33 49 34 
3 35 36 21 
3 34 49 50 
3 33 48 49 
3 36 22 21 
3 48 64 49 
3 48 63 64 
3 63 79 64 
3 79 80 64 
3 63 78 79 
3 80 65 64 
3 78 94 79 
3 52 51 67 
3 66 67 51 
3 56 41 507 
3 394 393 505 
3 68 67 82 
3 127 496 512 
3 519 226 556 
3 128 143 486 
3 234 220 484 
3 84 83 98 
3 84 68 83 
3 69 68 84 
3 99 84 98 
3 515 156 517 
3 129 130 542 
3 113 99 98 
3 100 84 99 
3 100 85 84 
3 86 85 100 
3 155 170 515 
3 536 32 540 
3 114 99 113 
3 114 100 99 
3 115 100 114 
3 101 86 100 
3 71 85 86 
3 71 70 85 
3 56 70 71 
3 54 69 70 
3 55 54 70 
3 230 231 545 
3 503 350 511 
3 96 97 509 
3 55 70 56 
3 40 39 543 
3 130 116 115 
3 123 124 109 
3 138 124 123 
3 33 536 540 
3 139 124 138 
3 463 449 538 
3 153 138 137 
3 152 153 137 
3 168 153 152 
3 167 168 152 
3 151 167 152 
3 182 168 167 
3 166 167 151 
3 181 182 167 
3 183 168 182 
3 165 166 151 
3 181 167 166 
3 180 181 166 
3 196 182 181 
3 197 183 182 
3 180 166 165 
3 195 181 180 
3 195 196 181 
3 210 196 195 
3 197 182 196 
3 211 197 196 
3 198 183 197 
3 211 196 210 
3 224 211 210 
3 212 197 211 
3 213 198 197 
3 184 183 198 
3 225 211 224 
3 226 212 211 
3 213 197 212 
3 239 225 224 
3 226 211 225 
3 239 226 225 
3 172 187 188 
3 203 188 187 
3 173 172 188 
3 202 203 187 
3 186 202 187 
3 218 203 202 
3 201 202 186 
3 217 218 202 
3 217 202 201 
3 216 217 201 
3 200 216 201 
3 544 449 550 
3 215 216 200 
3 229 216 215 
3 230 216 229 
3 540 32 546 
3 214 215 200 
3 214 229 215 
3 228 229 214 
3 199 214 200 
3 227 228 214 
3 185 199 200 
3 59 60 44 
3 17 4 3 
3 31 18 17 
3 46 47 31 
3 61 47 46 
3 61 62 47 
3 88 103 89 
3 103 104 89 
3 103 118 104 
3 118 119 104 
3 118 134 119 
3 118 133 134 
3 133 148 134 
3 148 149 134 
3 76 77 61 
3 77 62 61 
3 77 78 62 
3 91 92 77 
3 106 92 91 
3 106 107 92 
3 121 107 106 
3 208 222 209 
3 20 6 19 
3 21 7 20 
3 50 36 35 
3 49 65 50 
3 55 40 543 
3 36 23 22 
3 22 8 21 
3 79 95 80 
3 65 49 64 
3 78 93 94 
3 94 95 79 
3 37 51 52 
3 68 52 67 
3 53 52 68 
3 38 52 53 
3 106 91 510 
3 113 98 97 
3 112 113 97 
3 109 110 531 
3 383 382 527 
3 128 114 113 
3 48 546 548 
3 271 552 553 
3 128 129 114 
3 336 351 489 
3 105 106 510 
3 101 100 508 
3 110 109 124 
3 125 124 139 
3 351 336 490 
3 362 377 488 
3 169 154 153 
3 169 153 168 
3 183 169 168 
3 184 169 183 
3 185 169 184 
3 137 151 152 
3 223 224 210 
3 199 198 213 
3 367 520 522 
3 186 187 172 
3 171 186 172 
3 204 188 203 
3 157 172 173 
3 189 173 188 
3 200 201 186 
3 232 218 217 
3 232 217 231 
3 184 199 185 
3 198 199 184 
3 186 185 200 
3 171 185 186 
3 170 185 171 
3 17 18 4 
3 18 5 4 
3 31 32 18 
3 77 92 78 
3 92 93 78 
3 92 107 93 
3 107 108 93 
3 20 7 6 
3 21 8 7 
3 69 54 539 
3 23 9 22 
3 22 9 8 
3 38 37 52 
3 24 37 38 
3 128 113 112 
3 127 128 112 
3 25 38 39 
3 26 39 40 
3 153 154 487 
3 26 40 41 
3 125 110 124 
3 111 110 125 
3 140 125 139 
3 140 139 154 
3 155 140 154 
3 170 154 169 
3 238 224 223 
3 382 381 520 
3 466 501 559 
3 279 280 500 
3 156 171 172 
3 219 204 203 
3 189 188 204 
3 190 189 204 
3 158 157 173 
3 156 172 157 
3 141 156 157 
3 174 173 189 
3 233 218 232 
3 82 483 518 
3 257 258 552 
3 169 185 170 
3 18 19 5 
3 31 47 32 
3 23 10 9 
3 25 24 38 
3 11 24 25 
3 143 128 127 
3 142 143 127 
3 26 25 39 
3 159 144 143 
3 126 111 125 
3 126 125 140 
3 123 122 537 
3 170 155 154 
3 175 189 190 
3 174 158 173 
3 159 158 174 
3 142 157 158 
3 381 366 520 
3 355 370 533 
3 175 174 189 
3 219 218 233 
3 12 11 25 
3 155 515 517 
3 158 143 142 
3 158 159 143 
3 145 144 159 
3 227 214 499 
3 213 212 519 
3 157 142 141 
3 176 175 190 
3 175 159 174 
3 160 159 175 
3 138 153 487 
3 160 145 159 
3 191 176 190 
3 160 175 176 
3 161 160 176 
3 541 435 551 
3 205 219 220 
3 205 191 190 
3 146 160 161 
3 235 220 234 
3 206 205 220 
3 206 191 205 
3 122 137 537 
3 435 538 551 
3 145 130 129 
3 131 116 130 
3 238 239 224 
3 194 547 549 
3 525 195 547 
3 78 63 62 
3 6 5 19 
3 112 97 96 
3 111 112 96 
3 218 219 203 
3 205 190 204 
3 219 205 204 
3 12 25 26 
3 129 144 145 
3 280 266 560 
3 146 145 160 
3 131 145 146 
3 145 131 130 
3 93 108 494 
3 150 151 136 
3 164 165 150 
3 194 180 179 
3 180 194 549 
3 237 209 222 
3 237 223 209 
3 80 81 65 
3 239 466 571 
3 66 65 81 
3 109 108 123 
3 336 489 492 
3 555 102 578 
3 165 179 180 
3 165 164 179 
3 538 449 551 
3 134 135 498 
3 50 51 36 
3 51 37 36 
3 37 23 36 
3 37 24 23 
3 24 10 23 
3 24 11 10 
3 141 142 482 
3 95 96 80 
3 336 321 497 
3 354 355 533 
3 81 80 96 
3 155 517 532 
3 528 351 530 
3 39 38 526 
3 107 123 108 
3 121 491 495 
3 111 95 110 
3 111 96 95 
3 223 237 238 
3 235 206 220 
3 151 137 136 
3 150 165 151 
3 241 253 240 
3 254 253 241 
3 255 254 241 
3 267 253 254 
3 242 255 241 
3 268 254 255 
3 268 267 254 
3 282 267 268 
3 256 255 242 
3 269 268 255 
3 283 282 268 
3 243 256 242 
3 270 255 256 
3 270 269 255 
3 284 269 270 
3 284 268 269 
3 283 268 284 
3 299 283 284 
3 298 282 283 
3 257 256 243 
3 257 270 256 
3 271 270 257 
3 285 284 270 
3 298 283 299 
3 313 298 299 
3 297 282 298 
3 286 270 271 
3 286 285 270 
3 300 285 286 
3 300 284 285 
3 314 313 299 
3 297 298 313 
3 312 297 313 
3 301 300 286 
3 300 314 299 
3 328 313 314 
3 328 312 313 
3 327 312 328 
3 315 300 301 
3 315 314 300 
3 329 314 315 
3 329 328 314 
3 343 327 328 
3 316 315 301 
3 330 329 315 
3 342 327 343 
3 330 315 316 
3 331 330 316 
3 345 329 330 
3 358 342 343 
3 317 331 316 
3 345 330 331 
3 346 345 331 
3 344 329 345 
3 357 342 358 
3 360 345 346 
3 359 344 345 
3 373 357 358 
3 361 360 346 
3 359 345 360 
3 374 359 360 
3 372 357 373 
3 375 360 361 
3 375 374 360 
3 389 374 375 
3 387 372 373 
3 376 375 361 
3 390 389 375 
3 388 387 373 
3 390 375 376 
3 404 389 390 
3 402 387 388 
3 388 389 404 
3 403 402 388 
3 403 388 404 
3 419 403 404 
3 418 402 403 
3 418 403 419 
3 434 418 419 
3 417 402 418 
3 433 418 434 
3 432 417 418 
3 448 433 434 
3 432 418 433 
3 448 432 433 
3 447 432 448 
3 449 448 434 
3 462 447 448 
3 461 447 462 
3 476 461 462 
3 477 476 462 
3 259 260 274 
3 275 274 260 
3 273 259 274 
3 261 275 260 
3 290 274 275 
3 289 273 274 
3 276 275 261 
3 289 274 290 
3 288 273 289 
3 262 276 261 
3 304 288 289 
3 303 288 304 
3 319 303 304 
3 320 319 304 
3 318 303 319 
3 305 320 304 
3 334 318 319 
3 291 292 307 
3 307 306 291 
3 307 322 306 
3 322 321 306 
3 307 308 322 
3 280 295 500 
3 308 323 322 
3 322 338 337 
3 323 338 322 
3 323 324 338 
3 81 96 509 
3 41 40 507 
3 324 339 338 
3 98 83 483 
3 308 293 309 
3 339 353 338 
3 324 340 339 
3 325 340 324 
3 325 326 340 
3 65 66 481 
3 293 294 309 
3 339 354 353 
3 340 354 339 
3 340 355 354 
3 326 341 340 
3 325 311 326 
3 310 311 325 
3 310 296 311 
3 127 112 496 
3 108 109 494 
3 33 19 536 
3 340 356 355 
3 341 356 340 
3 310 295 296 
3 532 141 534 
3 356 370 355 
3 364 363 349 
3 364 378 363 
3 393 378 505 
3 364 379 378 
3 474 475 564 
3 378 393 377 
3 393 392 377 
3 393 408 392 
3 408 407 392 
3 407 391 392 
3 408 422 407 
3 407 406 391 
3 422 421 407 
3 408 423 422 
3 406 405 391 
3 407 421 406 
3 421 420 406 
3 422 436 421 
3 423 437 422 
3 406 420 405 
3 421 435 420 
3 436 435 421 
3 436 450 435 
3 422 437 436 
3 437 451 436 
3 423 438 437 
3 436 451 450 
3 451 464 450 
3 437 452 451 
3 438 453 437 
3 423 424 438 
3 451 465 464 
3 452 466 451 
3 437 453 452 
3 465 479 464 
3 451 466 465 
3 466 479 465 
3 427 412 428 
3 428 443 427 
3 412 413 428 
3 443 442 427 
3 442 426 427 
3 443 458 442 
3 442 441 426 
3 458 457 442 
3 442 457 441 
3 457 456 441 
3 456 440 441 
3 457 470 456 
3 456 455 440 
3 456 469 455 
3 456 470 469 
3 457 471 470 
3 455 454 440 
3 469 454 455 
3 469 468 454 
3 454 439 440 
3 468 467 454 
3 439 425 440 
3 300 299 284 
3 244 257 243 
3 286 271 554 
3 578 577 579 
3 287 301 286 
3 302 301 287 
3 343 328 329 
3 344 343 329 
3 358 343 344 
3 359 358 344 
3 374 358 359 
3 373 358 374 
3 388 373 374 
3 389 388 374 
3 317 316 301 
3 302 317 301 
3 318 317 302 
3 332 331 317 
3 332 346 331 
3 347 346 332 
3 347 361 346 
3 547 195 549 
3 246 260 259 
3 247 261 260 
3 276 290 275 
3 305 289 290 
3 272 273 288 
3 263 276 262 
3 248 262 261 
3 335 319 320 
3 289 305 304 
3 333 318 334 
3 335 334 319 
3 291 277 292 
3 292 308 307 
3 292 293 308 
3 292 278 293 
3 135 120 498 
3 338 353 337 
3 353 352 337 
3 293 278 294 
3 278 279 294 
3 354 368 353 
3 349 334 503 
3 452 453 501 
3 369 368 354 
3 369 384 368 
3 295 280 296 
3 280 281 296 
3 85 70 514 
3 364 365 379 
3 116 101 508 
3 308 309 506 
3 394 409 393 
3 393 409 408 
3 409 423 408 
3 409 424 423 
3 409 425 424 
3 391 377 392 
3 464 463 450 
3 438 439 453 
3 66 81 504 
3 427 426 412 
3 426 411 412 
3 428 444 443 
3 412 397 413 
3 413 429 428 
3 441 440 426 
3 458 472 457 
3 457 472 471 
3 439 424 425 
3 439 438 424 
3 425 426 440 
3 425 411 426 
3 425 410 411 
3 258 257 244 
3 245 258 244 
3 552 272 553 
3 332 317 318 
3 333 332 318 
3 347 332 333 
3 348 347 333 
3 247 260 246 
3 248 261 247 
3 258 273 272 
3 249 263 262 
3 249 262 248 
3 277 278 292 
3 277 264 278 
3 353 368 352 
3 368 367 352 
3 278 265 279 
3 279 266 280 
3 384 383 368 
3 477 516 561 
3 350 365 364 
3 350 351 365 
3 365 380 379 
3 379 380 394 
3 380 395 394 
3 394 410 409 
3 464 478 463 
3 377 362 502 
3 453 439 467 
3 439 454 467 
3 411 396 412 
3 444 459 443 
3 428 429 444 
3 429 430 444 
3 397 398 413 
3 412 396 397 
3 396 381 397 
3 413 414 429 
3 458 473 472 
3 410 396 411 
3 410 395 396 
3 425 409 410 
3 259 258 245 
3 117 521 555 
3 250 263 249 
3 264 265 278 
3 264 251 265 
3 362 347 529 
3 367 522 528 
3 265 266 279 
3 384 399 383 
3 351 366 365 
3 365 366 380 
3 366 381 380 
3 395 410 394 
3 429 415 430 
3 398 414 413 
3 398 399 414 
3 397 382 398 
3 396 395 381 
3 395 380 381 
3 414 415 429 
3 458 459 473 
3 251 252 265 
3 117 132 523 
3 383 398 382 
3 399 398 383 
3 384 385 399 
3 546 47 548 
3 117 118 521 
3 382 397 381 
3 415 416 430 
3 399 415 414 
3 399 400 415 
3 459 460 473 
3 385 400 399 
3 416 431 430 
3 415 400 416 
3 400 401 416 
3 460 474 473 
3 459 445 460 
3 431 445 430 
3 400 386 401 
3 460 475 474 
3 445 446 460 
3 431 446 445 
3 258 259 273 
3 302 288 303 
3 370 385 369 
3 356 371 370 
3 479 478 464 
3 288 302 287 
3 272 288 287 
3 303 318 302 
3 245 246 259 
3 295 310 493 
3 137 122 491 
3 459 458 443 
3 430 445 444 
3 445 459 444 
3 265 252 266 
3 384 369 385 
3 347 348 529 
3 385 386 400 
3 385 371 386 
3 371 385 370 
3 136 137 491 
3 391 390 376 
3 405 404 390 
3 420 434 419 
3 485 462 544 
3 377 376 488 
3 143 144 486 
3 321 320 305 
3 290 291 306 
3 305 306 321 
3 348 349 363 
3 294 295 493 
3 140 532 534 
3 419 405 420 
3 404 405 419 
3 130 115 542 
3 362 361 347 
3 291 290 276 
3 277 291 276 
3 263 277 276 
3 264 277 263 
3 250 264 263 
3 251 264 250 
3 306 305 290 
3 491 122 495 
3 477 485 516 
3 309 324 506 
3 320 321 336 
3 382 367 527 
3 420 435 541 
3 54 53 539 
3 352 528 530 
3 70 69 514 
3 489 335 492 
3 140 155 532 
3 227 213 519 
3 446 475 460 
3 377 391 376 
3 405 390 391 
3 42 282 297 
3 57 42 297 
3 297 312 72 
3 57 297 72 
3 312 327 87 
3 72 312 87 
3 357 372 580 
3 502 362 557 
3 227 519 556 
3 342 577 578 
3 327 342 578 
3 580 132 581 
3 132 117 581 
3 387 402 162 
3 147 387 162 
3 162 402 417 
3 177 162 417 
3 417 432 192 
3 177 417 192 
3 192 432 447 
3 207 192 447 
3 207 447 461 
3 221 207 461 
3 221 461 476 
3 568 326 572 
3 476 477 237 
3 556 226 571 
3 561 516 562 
3 237 477 238 
3 478 479 239 
3 238 478 239 
3 239 479 466 
3 326 311 572 
3 501 467 559 
3 362 529 557 
3 227 467 468 
3 569 564 576 
3 234 569 576 
3 342 357 577 
3 229 469 470 
3 230 229 470 
3 230 470 471 
3 231 230 471 
3 231 471 472 
3 232 231 472 
3 232 472 473 
3 233 232 473 
3 233 473 474 
3 497 558 566 
3 242 241 565 
3 87 327 578 
3 475 446 206 
3 235 475 206 
3 446 431 191 
3 206 446 191 
3 191 431 416 
3 176 191 416 
3 416 401 161 
3 176 416 161 
3 401 386 146 
3 161 401 146 
3 146 386 371 
3 131 146 371 
3 371 356 116 
3 131 371 116 
3 116 356 341 
3 101 116 341 
3 56 71 572 
3 240 253 573 
3 233 564 569 
3 560 26 574 
3 41 56 574 
3 56 296 281 
3 468 469 575 
3 550 463 562 
3 516 550 562 
3 26 266 252 
3 12 26 252 
3 252 251 11 
3 12 252 11 
3 251 250 10 
3 11 251 10 
3 250 249 9 
3 10 250 9 
3 249 248 8 
3 9 249 8 
3 248 247 7 
3 8 248 7 
3 247 246 6 
3 7 247 6 
3 6 246 245 
3 5 6 245 
3 5 245 244 
3 4 5 244 
3 244 243 3 
3 4 244 3 
3 243 242 2 
3 3 243 2 
3 490 336 566 
3 478 238 567 
3 56 281 574 
3 558 490 566 
3 227 468 575 
3 228 227 575 
3 253 267 27 
3 13 253 27 
3 267 282 42 
3 27 267 42 
3 126 141 482 
3 309 310 480 
3 310 325 480 
3 50 65 481 
3 324 309 480 
3 325 324 480 
3 66 51 481 
3 51 50 481 
3 142 127 482 
3 483 83 518 
3 82 97 483 
3 97 98 483 
3 220 219 484 
3 219 233 484 
3 231 217 545 
3 477 462 485 
3 144 129 486 
3 129 128 486 
3 154 139 487 
3 139 138 487 
3 361 362 488 
3 376 361 488 
3 350 335 489 
3 351 350 489 
3 258 272 552 
3 0 565 573 
3 112 111 496 
3 121 136 491 
3 320 336 492 
3 335 320 492 
3 309 294 493 
3 310 309 493 
3 109 94 494 
3 94 93 494 
3 107 121 495 
3 122 107 495 
3 281 560 574 
3 349 348 513 
3 322 337 497 
3 321 322 497 
3 120 119 498 
3 119 134 498 
3 199 213 499 
3 213 227 499 
3 294 279 500 
3 295 294 500 
3 466 452 501 
3 266 26 560 
3 378 377 502 
3 363 378 502 
3 335 350 503 
3 334 335 503 
3 82 67 504 
3 67 66 504 
3 379 394 505 
3 378 379 505 
3 323 308 506 
3 324 323 506 
3 40 55 507 
3 55 56 507 
3 100 115 508 
3 115 116 508 
3 97 82 509 
3 209 223 525 
3 91 90 510 
3 90 105 510 
3 364 349 511 
3 350 364 511 
3 357 580 581 
3 482 127 512 
3 334 349 513 
3 333 334 513 
3 69 84 514 
3 84 85 514 
3 170 171 515 
3 171 156 515 
3 512 496 563 
3 237 236 570 
3 370 369 533 
3 530 490 535 
3 83 68 518 
3 68 82 518 
3 212 226 519 
3 529 363 557 
3 367 382 520 
3 132 133 523 
3 118 103 521 
3 103 102 521 
3 94 109 531 
3 348 363 529 
3 133 118 523 
3 118 117 523 
3 82 504 524 
3 504 81 524 
3 223 210 525 
3 210 195 525 
3 38 53 526 
3 53 54 526 
3 368 383 527 
3 367 368 527 
3 352 367 528 
3 522 366 528 
3 366 351 528 
3 497 337 558 
3 19 18 536 
3 351 490 530 
3 110 95 531 
3 95 94 531 
3 352 530 535 
3 517 156 532 
3 156 141 532 
3 369 354 533 
3 141 126 534 
3 126 140 534 
3 337 352 535 
3 281 280 560 
3 18 32 536 
3 434 420 541 
3 137 138 537 
3 138 123 537 
3 450 463 538 
3 435 450 538 
3 53 68 539 
3 68 69 539 
3 209 525 547 
3 485 544 550 
3 521 102 555 
3 271 553 554 
3 115 114 542 
3 114 129 542 
3 39 54 543 
3 54 55 543 
3 448 449 544 
3 462 448 544 
3 217 216 545 
3 216 230 545 
3 32 47 546 
3 48 33 546 
3 33 540 546 
3 194 209 547 
3 47 62 548 
3 62 63 548 
3 63 48 548 
3 195 180 549 
3 449 463 550 
3 516 485 550 
3 126 482 563 
3 449 434 551 
3 434 541 551 
3 271 257 552 
3 117 555 579 
3 86 101 568 
3 287 286 554 
3 272 287 554 
3 553 272 554 
3 565 241 573 
3 123 107 122 
3 241 240 573 
3 238 477 561 
3 363 502 557 
3 561 562 567 
3 535 490 558 
3 337 535 558 
3 467 227 559 
3 227 556 559 
3 147 132 580 
3 564 475 576 
3 482 512 563 
3 233 474 564 
3 234 484 569 
3 71 86 568 
3 111 126 563 
3 496 111 563 
3 476 237 570 
3 0 1 565 
3 2 242 565 
3 1 2 565 
3 336 497 566 
3 238 561 567 
3 562 463 567 
3 463 478 567 
3 101 341 568 
3 341 326 568 
3 484 233 569 
3 221 476 570 
3 236 221 570 
3 226 239 571 
3 466 559 571 
3 559 556 571 
3 71 568 572 
3 311 296 572 
3 296 56 572 
3 13 0 573 
3 253 13 573 
3 26 41 574 
3 229 228 575 
3 469 229 575 
3 235 234 576 
3 475 235 576 
3 117 579 581 
3 577 357 581 
3 579 577 581 
3 102 87 578 
3 555 578 579 
3 372 387 580 
3 387 147 580 
