ply
format ascii 1.0
comment created by PLYWriter
element vertex 760
property float x
property float y
property float z
element face 1516
property list uchar int vertex_indices
end_header
-0.057126667 0.031173123 0.18755704 
-0.057784934 0.028319063 0.18829532 
-0.05806484 0.025553811 0.18972722 
-0.058328032 0.022691496 0.19133754 
-0.05832647 0.019926919 0.19282326 
-0.05791577 0.016893616 0.19402874 
-0.053069815 0.033363905 0.18379691 
-0.05420168 0.030904464 0.18523936 
-0.05419811 0.028029988 0.18547168 
-0.054571077 0.02528244 0.18701248 
-0.055046156 0.022491764 0.18881641 
-0.055325486 0.019782186 0.19101214 
-0.05557833 0.016730871 0.1922831 
-0.0556466 0.013501263 0.19416545 
-0.05529918 0.010063681 0.195533 
-0.048162695 0.03589384 0.17983893 
-0.049186084 0.033486973 0.18112555 
-0.050054308 0.03059889 0.18217894 
-0.0505176 0.027741011 0.18360917 
-0.05103224 0.0251385 0.18586893 
-0.05171234 0.022148676 0.18733019 
-0.05219974 0.019371089 0.18924704 
-0.05275439 0.016343156 0.19078043 
-0.053123478 0.012622399 0.19224295 
-0.054354694 0.008204661 0.19448498 
-0.05360691 0.0054033822 0.19939849 
-0.05332871 0.001999037 0.20238921 
-0.04461493 0.038351573 0.1777337 
-0.045364056 0.036019348 0.17849647 
-0.045865953 0.033429064 0.17988892 
-0.04646777 0.03069105 0.18150637 
-0.04725479 0.027863506 0.18370445 
-0.04767495 0.02499127 0.18605953 
-0.04833885 0.021958148 0.18763348 
-0.04910896 0.019177014 0.18942384 
-0.049878534 0.015974978 0.19112563 
-0.05043353 0.011813815 0.19201745 
-0.051585548 0.007181047 0.19313736 
-0.05252789 0.002633436 0.1970525 
-0.051178087 0.00018152907 0.20334294 
-0.051616218 -0.0019786176 0.20790425 
-0.05205502 -0.0039930027 0.21180463 
-0.041210078 0.04080332 0.17701098 
-0.042070717 0.03882438 0.17764711 
-0.04233897 0.036176927 0.1788309 
-0.04280637 0.033663113 0.18034272 
-0.04354517 0.031025257 0.1823988 
-0.043879755 0.027635327 0.18432951 
-0.04424954 0.024520922 0.18640423 
-0.04495934 0.02141142 0.18789461 
-0.0458932 0.018364511 0.18940388 
-0.046884626 0.015321338 0.19109015 
-0.047407117 0.010637417 0.19220631 
-0.048934378 0.0049936264 0.19214885 
-0.04901989 0.00017447965 0.19532923 
-0.048589356 -0.0016195892 0.20214336 
-0.04876851 -0.0026525725 0.20809957 
-0.049769964 -0.0046171146 0.21245505 
-0.05022888 -0.006441755 0.21565507 
-0.05086267 -0.008781551 0.21888301 
-0.038784154 0.041528326 0.17676452 
-0.039170846 0.039070494 0.17840259 
-0.039520442 0.03640361 0.17962898 
-0.040015984 0.03373698 0.1811854 
-0.040317323 0.030684995 0.18297882 
-0.040674664 0.027061664 0.18496263 
-0.04124565 0.024123954 0.18680242 
-0.041890662 0.021210771 0.18814975 
-0.042573895 0.018114818 0.18956134 
-0.043747857 0.014270979 0.19133812 
-0.044873312 0.008211104 0.19183874 
-0.046565793 -0.00034645954 0.18914808 
-0.046149485 -0.0051827864 0.19224778 
-0.045811825 -0.0020182026 0.202306 
-0.046045944 -0.0033597075 0.20831387 
-0.04647651 -0.004584066 0.21298231 
-0.047080837 -0.006679348 0.2165556 
-0.048376884 -0.009504211 0.2198347 
-0.048723698 -0.012674839 0.22311535 
-0.048061617 -0.016288508 0.22432436 
-0.035624973 0.043427013 0.1756271 
-0.036043208 0.04204524 0.17715901 
-0.036262006 0.03946559 0.17880376 
-0.036720604 0.03662102 0.1800511 
-0.037105627 0.03398018 0.18185094 
-0.037319206 0.03036426 0.18394704 
-0.037598994 0.026809098 0.18563879 
-0.038358927 0.024152359 0.18754269 
-0.039156582 0.02109704 0.18927929 
-0.039888855 0.017622367 0.19063973 
-0.041371554 0.013198823 0.19265105 
-0.042259775 0.007594972 0.19332056 
-0.04391069 5.995851e-05 0.1923676 
-0.04389243 -0.004733832 0.19493693 
-0.043031294 -0.0026501957 0.204051 
-0.04304067 -0.003105093 0.20980585 
-0.043373115 -0.0047805067 0.21379793 
-0.043299753 -0.007751802 0.21588811 
-0.04380896 -0.010724993 0.218508 
-0.04440856 -0.014623112 0.22098443 
-0.044707466 -0.018497953 0.22424762 
-0.043521985 -0.021090208 0.22633663 
-0.032922667 0.043856103 0.17609157 
-0.03305461 0.04245014 0.17747551 
-0.032979496 0.039860968 0.17937854 
-0.03310077 0.037032094 0.18056516 
-0.033592403 0.034187857 0.18255857 
-0.03408607 0.030543 0.18557824 
-0.034605227 0.027219633 0.186779 
-0.035386384 0.024144942 0.18866335 
-0.03616835 0.020976428 0.19057888 
-0.037224703 0.017407866 0.19278832 
-0.03850203 0.013049738 0.19454274 
-0.039276533 0.009046559 0.19542943 
-0.04039304 0.003881429 0.1965888 
-0.040045816 0.00010759219 0.20039256 
-0.040206358 -0.0016675883 0.20534354 
-0.039964344 -0.0029653448 0.21039413 
-0.039919063 -0.0049143923 0.21411449 
-0.039674334 -0.008047967 0.2159819 
-0.039836884 -0.011766414 0.2181878 
-0.04020616 -0.015655212 0.22015701 
-0.04036541 -0.019195005 0.22312708 
-0.040175345 -0.021551244 0.22607294 
-0.029918227 0.04395038 0.17673175 
-0.029852685 0.042460475 0.17791162 
-0.029991446 0.039989755 0.17975473 
-0.030228866 0.037303276 0.18164062 
-0.030500393 0.034351848 0.18380481 
-0.031058958 0.030813118 0.18652056 
-0.031555776 0.02758488 0.1878327 
-0.032256853 0.024201794 0.18971533 
-0.03297574 0.02068184 0.19220364 
-0.034107022 0.017160602 0.1940601 
-0.035460897 0.013433967 0.19632095 
-0.036058318 0.010266863 0.19743861 
-0.036121584 0.0057402924 0.19952762 
-0.036143128 0.00226831 0.2030278 
-0.036441185 -0.00011444987 0.20699354 
-0.036554758 -0.0023357659 0.21106535 
-0.03630107 -0.004840696 0.21433134 
-0.03618232 -0.008226934 0.21637903 
-0.036494933 -0.011929204 0.21881853 
-0.0366349 -0.015625723 0.22090502 
-0.036614124 -0.019090822 0.22274241 
-0.036239073 -0.021592261 0.22555114 
-0.026858365 0.044218283 0.1771068 
-0.026867954 0.042669524 0.17832164 
-0.027118562 0.040006135 0.1799289 
-0.027184771 0.037470926 0.18224406 
-0.027410073 0.034465887 0.18463622 
-0.027924072 0.031272937 0.18716659 
-0.028428737 0.02791764 0.18892975 
-0.029007241 0.024503713 0.19079249 
-0.029799938 0.020629324 0.1935855 
-0.031119127 0.017141785 0.19657922 
-0.03201363 0.013966144 0.19810653 
-0.031964693 0.011385482 0.19967183 
-0.032030698 0.0073494613 0.20224707 
-0.03220756 0.003992005 0.20491634 
-0.03243587 0.00061964657 0.20849396 
-0.032766156 -0.0019578405 0.21182849 
-0.032636292 -0.0053254142 0.21542524 
-0.0328447 -0.0085585965 0.2170661 
-0.033115506 -0.011984448 0.2197351 
-0.03329772 -0.015446746 0.22264491 
-0.03296294 -0.018803988 0.22450374 
-0.03303079 -0.021776116 0.22701661 
-0.023991825 0.044454407 0.17797142 
-0.023901291 0.04300608 0.17921165 
-0.023930522 0.04018753 0.18041593 
-0.024106197 0.03745559 0.18253626 
-0.02438719 0.03476823 0.18517964 
-0.024788078 0.031750664 0.18752883 
-0.025338966 0.028284619 0.19000337 
-0.025885364 0.024598256 0.19242927 
-0.02665972 0.020614248 0.19588964 
-0.027675342 0.017092668 0.19865082 
-0.027570855 0.014592696 0.20066169 
-0.027917327 0.012001079 0.20222352 
-0.028359998 0.008207611 0.20560339 
-0.028537685 0.004975828 0.2080434 
-0.028636105 0.0014425225 0.21134126 
-0.02880359 -0.0019660634 0.21388468 
-0.029209403 -0.0057340665 0.21681602 
-0.029216658 -0.00887677 0.21855429 
-0.029631156 -0.012035476 0.22086376 
-0.029717317 -0.015215942 0.22388326 
-0.02940664 -0.018586842 0.225824 
-0.029870473 -0.022021484 0.22785294 
-0.03039879 -0.024896363 0.2317035 
-0.020980312 0.04482001 0.17900927 
-0.02079481 0.043333806 0.18032785 
-0.02095369 0.04039328 0.18183507 
-0.021007212 0.03752495 0.18317215 
-0.021316659 0.034806527 0.18610764 
-0.021766854 0.03190927 0.18815267 
-0.02218023 0.028810829 0.19070247 
-0.02270819 0.025209522 0.19349784 
-0.023191275 0.020731878 0.19754796 
-0.02384979 0.017291607 0.20056672 
-0.023545552 0.014473638 0.2029777 
-0.023859568 0.011987225 0.20472993 
-0.0244524 0.008654765 0.20757008 
-0.025184881 0.005633507 0.21065298 
-0.024943223 0.0018432119 0.21272722 
-0.024900638 -0.0022756695 0.21442154 
-0.025501534 -0.0055066394 0.21802147 
-0.02565726 -0.008832153 0.2202628 
-0.0256411 -0.011912243 0.22210243 
-0.025944103 -0.015006407 0.22527923 
-0.025929045 -0.01851397 0.22676195 
-0.026488114 -0.022445446 0.22809274 
-0.0265606 -0.025987243 0.23209214 
-0.01811191 0.043244686 0.18177432 
-0.018082764 0.040998917 0.18366145 
-0.018102553 0.03796017 0.1848122 
-0.01834688 0.035032485 0.18657106 
-0.018558512 0.03208337 0.18873721 
-0.018831853 0.029122323 0.19100267 
-0.019192599 0.025510525 0.19500312 
-0.019584062 0.021716282 0.19797225 
-0.01992412 0.017751856 0.20088786 
-0.02007057 0.014302153 0.20338584 
-0.020063478 0.011417547 0.20568424 
-0.02064687 0.008353037 0.20820047 
-0.021450233 0.0049619977 0.2111186 
-0.02121648 0.001762328 0.21325463 
-0.021258837 -0.0016383239 0.2159485 
-0.02182495 -0.0049759364 0.2198588 
-0.02216658 -0.008479058 0.22224766 
-0.021885654 -0.01189078 0.22345881 
-0.021706112 -0.015198842 0.22622421 
-0.021825558 -0.018573051 0.2269784 
-0.02221135 -0.022498261 0.22756988 
-0.022739822 -0.026451657 0.23268732 
-0.015211363 0.041083153 0.18494293 
-0.015245244 0.038373776 0.1864052 
-0.015297823 0.035323836 0.18768515 
-0.0154976575 0.032178182 0.18972765 
-0.015841251 0.029358733 0.19186023 
-0.015833894 0.0259412 0.19585799 
-0.016277857 0.022111606 0.19913074 
-0.016435763 0.018640235 0.20134173 
-0.016622934 0.015107916 0.20335177 
-0.016456008 0.011873149 0.20662428 
-0.016909346 0.008850883 0.2092278 
-0.017447252 0.0056846268 0.2118096 
-0.01760634 0.0026138653 0.21479416 
-0.017778495 -0.0009110454 0.2183613 
-0.018158702 -0.004305459 0.22178482 
-0.018341027 -0.007896967 0.22404079 
-0.017809412 -0.011567985 0.22522758 
-0.017790398 -0.015270071 0.22641836 
-0.018404955 -0.018964473 0.22775048 
-0.018606368 -0.022863511 0.22960283 
-0.019133996 -0.026672265 0.23450069 
-0.012600238 0.038133916 0.18785706 
-0.012337875 0.03525832 0.18893887 
-0.01252924 0.032238815 0.19084024 
-0.012692238 0.029317213 0.19246556 
-0.012560541 0.026385432 0.19560032 
-0.01294485 0.022697035 0.19956443 
-0.013331761 0.019250406 0.20269719 
-0.013359591 0.01581955 0.20549884 
-0.013280694 0.012676038 0.20818374 
-0.0134041365 0.009691481 0.21042264 
-0.013521768 0.006740803 0.21322754 
-0.01382875 0.003320152 0.2166517 
-0.014185648 -0.0003543784 0.22028987 
-0.014331794 -0.003853074 0.22293526 
-0.014331264 -0.007463127 0.22466506 
-0.014107586 -0.011878435 0.22630444 
-0.014257311 -0.015795564 0.2277224 
-0.014753701 -0.019461155 0.22953475 
-0.015147706 -0.023475353 0.23258555 
-0.015324681 -0.026633179 0.23651963 
-0.009674744 0.035113737 0.18990979 
-0.009187188 0.032561608 0.1916169 
-0.009371933 0.029627189 0.19338852 
-0.009311204 0.02675308 0.1963929 
-0.009812732 0.023455875 0.20028912 
-0.010171565 0.020076368 0.20413959 
-0.010015793 0.01683353 0.20704634 
-0.010012964 0.013479987 0.20956622 
-0.009894368 0.010324445 0.2115181 
-0.009880845 0.007207269 0.21486339 
-0.0102447225 0.0037608368 0.2180508 
-0.010354523 -4.133071e-07 0.2211618 
-0.010561866 -0.0035551162 0.22345904 
-0.010862253 -0.007492139 0.22528894 
-0.01051148 -0.011717664 0.22588396 
-0.010735557 -0.015823321 0.22908688 
-0.011002145 -0.019545447 0.23090665 
-0.011498793 -0.023795908 0.23476407 
-0.012258647 -0.02628922 0.23718044 
-0.0061081145 0.032306366 0.19252178 
-0.0060358797 0.029803943 0.1948576 
-0.00627726 0.026877709 0.19815828 
-0.006541423 0.0238938 0.20090622 
-0.006896437 0.020880641 0.20476483 
-0.006639217 0.017636064 0.20798652 
-0.006410577 0.014289933 0.21038285 
-0.006374009 0.010949495 0.2122434 
-0.006265637 0.0073664417 0.21545526 
-0.0064986325 0.003723631 0.21867725 
-0.0066307005 -0.00013711532 0.22178173 
-0.006735627 -0.0036680065 0.2232565 
-0.0071006166 -0.007443309 0.22586355 
-0.0070207813 -0.011903711 0.22644615 
-0.0071974955 -0.016014358 0.2298138 
-0.007851264 -0.019807464 0.23200636 
-0.008563477 -0.022830026 0.23382862 
-0.0034667598 0.031775475 0.19411439 
-0.0025798783 0.029845025 0.19665562 
-0.002777963 0.026981724 0.19887435 
-0.0029561655 0.02405866 0.20132263 
-0.0030196016 0.021107726 0.2043517 
-0.0031523053 0.017882552 0.20752044 
-0.0027743615 0.014419262 0.21036439 
-0.0028545307 0.011031376 0.2126928 
-0.002638743 0.007630738 0.21564369 
-0.0027768384 0.0036807067 0.21819757 
-0.0027808868 -2.7092161e-05 0.22132179 
-0.002986375 -0.003878741 0.22291705 
-0.0032875435 -0.007920783 0.22576015 
-0.0037871404 -0.012123355 0.2269335 
-0.0046380977 -0.015540433 0.22935441 
0.00038343653 0.02946355 0.19821157 
0.0005760894 0.0273625 0.19966303 
0.0004998183 0.024508454 0.2016652 
0.00053116144 0.021382906 0.20395425 
0.0006293505 0.01815824 0.20662716 
0.0008557642 0.014624128 0.20952536 
0.00088475907 0.011159802 0.21217467 
0.0010499154 0.0076555773 0.21448666 
0.00067099807 0.0038104681 0.2168652 
0.0008695362 -6.750021e-05 0.21962348 
0.00029068047 -0.0037709454 0.22248034 
-0.0009557989 -0.0073114885 0.22613046 
0.0038209127 0.027579142 0.20030294 
0.0041890494 0.024749778 0.20195988 
0.004202968 0.02149385 0.20358115 
0.0040304447 0.018219326 0.20634924 
0.00428252 0.014771087 0.20843425 
0.0038392446 0.011593391 0.21085879 
-0.057898 0.035575 0.19312 
-0.058681 0.033478 0.19464 
-0.059087 0.031093 0.19648 
-0.059437 0.028587 0.19844 
-0.059657 0.026104 0.20041 
-0.059821 0.023744 0.20229 
-0.054525 0.039179 0.19102 
-0.055371843 0.036792926 0.19263998 
-0.055393588 0.034743056 0.19411519 
-0.055752866 0.03225568 0.19605991 
-0.056211285 0.0295745 0.19803439 
-0.056612015 0.026953893 0.20015548 
-0.057171453 0.024240607 0.20189694 
-0.058153 0.021717 0.20436 
-0.058083 0.018744 0.20681 
-0.050046 0.042977 0.18904 
-0.051218 0.040869 0.19047 
-0.052020974 0.03842687 0.19202237 
-0.052327193 0.035610154 0.1938486 
-0.052422475 0.03277715 0.19600976 
-0.052822478 0.030054023 0.19803625 
-0.053153902 0.026979113 0.19982871 
-0.053741924 0.024227694 0.20154993 
-0.054679994 0.021213606 0.20374426 
-0.055382416 0.017916493 0.20693931 
-0.056375 0.014174 0.21096 
-0.056079 0.010721 0.21385 
-0.04665 0.045804 0.18759 
-0.04738604 0.04375695 0.18898867 
-0.047993634 0.041371174 0.19064327 
-0.048661355 0.03883382 0.19231439 
-0.049296148 0.03598813 0.1941693 
-0.04923099 0.03276377 0.19636895 
-0.049508248 0.02967579 0.19822079 
-0.049987838 0.026744157 0.20004609 
-0.050496846 0.023703242 0.20192853 
-0.05145499 0.020396298 0.2038479 
-0.05209089 0.017195867 0.2065988 
-0.052868735 0.013142255 0.2100744 
-0.053316604 0.009516499 0.21460567 
-0.054293 0.00592 0.21821 
-0.054385 0.0027001 0.22082 
-0.043317 0.048081 0.18656 
-0.04407723 0.046319835 0.18774565 
-0.04451261 0.043934878 0.18940803 
-0.044896122 0.041402563 0.19123527 
-0.045532305 0.038607936 0.19303828 
-0.045801472 0.035635456 0.19493966 
-0.045957353 0.032277506 0.19691634 
-0.04634625 0.029255824 0.19872344 
-0.04687778 0.025957411 0.20026277 
-0.04737442 0.022854362 0.20205566 
-0.04817263 0.019395212 0.20421068 
-0.048730563 0.015710924 0.20629238 
-0.049208086 0.012511248 0.21019743 
-0.050091702 0.008658336 0.21458744 
-0.050801784 0.005547397 0.21814013 
-0.05168435 0.0024879845 0.22129339 
-0.052313 -0.00041281 0.22388 
-0.052534 -0.0033181 0.22619 
-0.040856 0.048977 0.18645 
-0.041213296 0.04643974 0.18823418 
-0.041586615 0.04395067 0.19002803 
-0.041956376 0.041179452 0.19189136 
-0.042353548 0.038299657 0.19378708 
-0.042676404 0.03501277 0.19580287 
-0.04310458 0.031792846 0.19759825 
-0.043556124 0.028818889 0.19908093 
-0.043852307 0.025818001 0.20053406 
-0.044419255 0.022436615 0.20238954 
-0.04494114 0.018171983 0.20416029 
-0.045225654 0.014881312 0.20664676 
-0.045456186 0.011724182 0.21056275 
-0.046697244 0.008019161 0.21488102 
-0.0475208 0.0050315754 0.21831271 
-0.04798791 0.0024911915 0.22145844 
-0.04884336 -0.00044605555 0.22416998 
-0.049824428 -0.0037884128 0.22697459 
-0.050262 -0.007415 0.2301 
-0.050065 -0.0099304 0.2322 
-0.037833 0.051152 0.18543 
-0.03806772 0.049441256 0.1867292 
-0.038361683 0.046788428 0.18864475 
-0.03876267 0.04401215 0.19058101 
-0.03908012 0.041160822 0.19249254 
-0.0394484 0.037862647 0.19458118 
-0.039784934 0.03457022 0.1965386 
-0.04029969 0.031501524 0.19815946 
-0.040862076 0.028206278 0.19971812 
-0.04130506 0.025249885 0.20112416 
-0.042123806 0.021726415 0.20304869 
-0.04214461 0.017571196 0.20421645 
-0.04235894 0.013544902 0.20695163 
-0.04298506 0.010610397 0.21096696 
-0.043406513 0.0075413054 0.21505089 
-0.04410917 0.0049141687 0.21854268 
-0.044535525 0.0022915679 0.22171059 
-0.044950325 -0.00021891741 0.22436967 
-0.045666184 -0.0032865785 0.22710422 
-0.046620045 -0.006452564 0.22991787 
-0.04746798 -0.010240789 0.23305964 
-0.046679 -0.012748 0.23535 
-0.035124 0.051519 0.18581 
-0.035177484 0.049878366 0.18707816 
-0.035251163 0.047121756 0.18912844 
-0.035502303 0.044538178 0.19092003 
-0.035941042 0.041453402 0.19296509 
-0.036376383 0.03746784 0.19545643 
-0.036873247 0.034436256 0.19720745 
-0.037430074 0.031073153 0.19893414 
-0.037985306 0.027693866 0.20047851 
-0.03858763 0.02404243 0.20197496 
-0.039299063 0.020637814 0.20370026 
-0.039384723 0.017565388 0.20472239 
-0.03959338 0.01345036 0.20751953 
-0.04013792 0.010487993 0.2111402 
-0.040364638 0.0072722076 0.21490493 
-0.040777963 0.004592249 0.21873735 
-0.041126363 0.0021017487 0.22180921 
-0.04142704 -3.6026988e-05 0.22433646 
-0.042135246 -0.002822678 0.22713505 
-0.042792536 -0.0059454893 0.2299326 
-0.04339605 -0.009601515 0.23334993 
-0.043446 -0.012583 0.23602 
-0.032113 0.051643 0.18646 
-0.03216056 0.050057042 0.18766068 
-0.03239882 0.04733972 0.18961751 
-0.0325969 0.044454623 0.191634 
-0.032973357 0.041240726 0.19376008 
-0.033412445 0.037352845 0.19613433 
-0.033945292 0.034296278 0.19788285 
-0.034504466 0.03086878 0.19977657 
-0.035043713 0.0270948 0.2015056 
-0.035808522 0.023445673 0.20288727 
-0.036626816 0.020081736 0.20451652 
-0.036679592 0.017317362 0.20573291 
-0.036692057 0.01357509 0.2082193 
-0.037068464 0.010480994 0.21144012 
-0.037194613 0.007662871 0.21511172 
-0.037446074 0.00487721 0.21872778 
-0.037800897 0.002426972 0.22209722 
-0.03816624 0.00016285798 0.22471707 
-0.0389479 -0.0028541677 0.22776094 
-0.039422993 -0.0059523284 0.23068368 
-0.039796617 -0.008893528 0.23362888 
-0.039704 -0.012041 0.23651 
-0.029233 0.051989 0.1869 
-0.029201016 0.05033667 0.18819715 
-0.029611155 0.047616504 0.19014859 
-0.029636424 0.044704903 0.19222952 
-0.029857019 0.041372675 0.19446036 
-0.030382361 0.037761334 0.19661914 
-0.030911626 0.03436172 0.19861336 
-0.031411424 0.030987335 0.20052046 
-0.03211059 0.026784625 0.2023776 
-0.032990202 0.022873342 0.20416553 
-0.03370841 0.019871308 0.2056488 
-0.033526726 0.01739495 0.2070012 
-0.033587478 0.013738009 0.20936362 
-0.033825427 0.011020935 0.21246725 
-0.034029298 0.0077951 0.21586056 
-0.03437635 0.00519795 0.21905242 
-0.034627568 0.0023888848 0.22293356 
-0.035090525 6.519888e-05 0.2255029 
-0.03577223 -0.0029509566 0.22858693 
-0.03607944 -0.0063937157 0.23198166 
-0.03623654 -0.009473131 0.2349605 
-0.036454 -0.012426 0.23764 
-0.026317 0.052085 0.18755 
-0.026206633 0.050482634 0.18878718 
-0.02651423 0.04791619 0.19067942 
-0.026743952 0.045062736 0.19276938 
-0.026904091 0.04180074 0.19497417 
-0.027222017 0.038350545 0.19709511 
-0.027693983 0.034529667 0.1993413 
-0.028387941 0.03092979 0.20144632 
-0.029002776 0.026502702 0.20374796 
-0.02984019 0.022576096 0.20553035 
-0.029758768 0.020108853 0.2071646 
-0.029809786 0.017720358 0.2088736 
-0.030273778 0.013820256 0.21163562 
-0.030542618 0.011112477 0.21413884 
-0.030551814 0.008122445 0.21758823 
-0.030878527 0.0053050052 0.22034194 
-0.031323593 0.002279779 0.22398439 
-0.0316057 -0.00013471668 0.22673361 
-0.032296643 -0.0030046816 0.22959493 
-0.03261058 -0.0064527523 0.23294903 
-0.032566987 -0.009449016 0.23575598 
-0.03323549 -0.012511924 0.23838861 
-0.033741 -0.016125 0.24134 
-0.023349 0.052231 0.18817 
-0.02320254 0.050625768 0.18944998 
-0.023425564 0.04796832 0.19148666 
-0.023695512 0.045261677 0.19337702 
-0.023829892 0.041937064 0.19576699 
-0.024193289 0.038714055 0.1977694 
-0.024519304 0.03513835 0.20011006 
-0.025027417 0.031220935 0.20241202 
-0.025314962 0.026873097 0.20479946 
-0.025986975 0.02310238 0.20702331 
-0.025588965 0.020009601 0.20919473 
-0.02609956 0.017501578 0.21087827 
-0.026573932 0.014260955 0.21344993 
-0.027031345 0.01123089 0.21615039 
-0.027053492 0.008559502 0.21883442 
-0.027242921 0.0056216097 0.22174974 
-0.02765774 0.0022651183 0.22534122 
-0.027961256 -0.0005702312 0.22822437 
-0.028281797 -0.0031396018 0.2309156 
-0.028681548 -0.0064832247 0.23404744 
-0.0290817 -0.009415881 0.23657751 
-0.030039182 -0.012428357 0.23908585 
-0.03019 -0.016568 0.24259 
-0.020429 0.050381 0.19041 
-0.020281926 0.048069887 0.19228536 
-0.020416059 0.045449834 0.19419326 
-0.020813264 0.04245243 0.1962627 
-0.021011475 0.039207727 0.19854043 
-0.021268778 0.035932895 0.20057371 
-0.021554837 0.031551547 0.20337145 
-0.021906873 0.028030008 0.20559007 
-0.022250718 0.024182552 0.20799403 
-0.022447973 0.020855587 0.21021472 
-0.022587288 0.017882362 0.2125698 
-0.02303436 0.014663495 0.21492529 
-0.023579113 0.011495716 0.2176601 
-0.02362196 0.008739558 0.22031966 
-0.023701668 0.0056812637 0.22325014 
-0.023930611 0.0021116573 0.22678423 
-0.024488082 -0.0010563119 0.22983442 
-0.024574969 -0.0034022692 0.23218541 
-0.024385689 -0.0066776434 0.23538062 
-0.024944913 -0.009215788 0.23756172 
-0.025918238 -0.012029417 0.23972632 
-0.026489 -0.016805 0.2437 
-0.017256 0.048036 0.19312 
-0.017405516 0.045511067 0.19504607 
-0.017587155 0.042618014 0.19701624 
-0.017875327 0.039557174 0.19926214 
-0.018238632 0.036418363 0.20129327 
-0.018226795 0.032304466 0.2041378 
-0.018539958 0.028432583 0.20656188 
-0.018986968 0.025208302 0.20864812 
-0.019368155 0.022196438 0.21073678 
-0.019167796 0.01854293 0.21370882 
-0.019505465 0.015284606 0.21625224 
-0.019925509 0.012262109 0.21879694 
-0.019948645 0.009106858 0.22172247 
-0.019942977 0.0054219724 0.22505827 
-0.020164758 0.001990364 0.2283504 
-0.020603212 -0.00107748 0.2312341 
-0.020469047 -0.0035783765 0.23374781 
-0.020395022 -0.0064059887 0.2362484 
-0.02118711 -0.009524333 0.23885535 
-0.021909604 -0.01287865 0.24156286 
-0.022633 -0.017556 0.24528 
-0.014544 0.0452 0.19611 
-0.014444416 0.042625383 0.198006 
-0.014632954 0.03970414 0.20017397 
-0.015048231 0.036849216 0.20209378 
-0.014986769 0.03345013 0.20453228 
-0.015305467 0.02926278 0.20732799 
-0.015577017 0.025710698 0.20987111 
-0.015722012 0.022370936 0.21232411 
-0.015881494 0.018974977 0.21492851 
-0.016031593 0.015989024 0.21735117 
-0.015982157 0.012962727 0.22003378 
-0.016070638 0.009404098 0.22326604 
-0.016344767 0.0054026884 0.22666773 
-0.0164556 0.0022502257 0.2296147 
-0.01671802 -0.0005065399 0.23214695 
-0.01668751 -0.0037901483 0.23509054 
-0.016862195 -0.006861485 0.23776506 
-0.017231476 -0.010069141 0.24030438 
-0.017949313 -0.014172522 0.24363752 
-0.018345 -0.018081 0.24678 
-0.011732 0.04267 0.19887 
-0.011328284 0.04027404 0.20081648 
-0.011526582 0.037389677 0.20279634 
-0.011592309 0.03391951 0.20523214 
-0.012023022 0.029828316 0.20804779 
-0.0121011045 0.026025213 0.21097331 
-0.0120935375 0.02270034 0.21352458 
-0.012528267 0.01950031 0.21595924 
-0.012570458 0.016736034 0.21825902 
-0.012167534 0.013226404 0.22143067 
-0.012294762 0.009481417 0.22457907 
-0.012421955 0.005826375 0.22783606 
-0.012655929 0.0026891152 0.23059921 
-0.013255118 -0.0004572072 0.23325752 
-0.013021961 -0.0031863484 0.23568371 
-0.013234247 -0.0071218726 0.2389722 
-0.013521748 -0.010352577 0.24157587 
-0.014090817 -0.0148461 0.24519517 
-0.014929 -0.017639 0.24727 
-0.0081946 0.040334 0.20166 
-0.008135626 0.037541676 0.20377238 
-0.008402533 0.03379792 0.20628095 
-0.008535614 0.030627124 0.20872849 
-0.008782469 0.02673887 0.21171314 
-0.008632691 0.023336355 0.21437158 
-0.008740552 0.020262837 0.21682245 
-0.008929137 0.017404504 0.21915081 
-0.008452749 0.013670953 0.22248054 
-0.008466819 0.009785265 0.22570255 
-0.0085396785 0.0059893173 0.22901417 
-0.008962669 0.0031373273 0.23136562 
-0.00936494 -0.00040964904 0.23428713 
-0.009406557 -0.003183187 0.23670384 
-0.009670779 -0.007193795 0.23999737 
-0.01028 -0.010639 0.24273 
-0.011121 -0.013447 0.24481 
-0.0055146 0.039605 0.20293 
-0.004617494 0.037061602 0.20487793 
-0.004743733 0.034343705 0.20716047 
-0.0048865974 0.031253945 0.20942558 
-0.004917467 0.027798058 0.21209538 
-0.0050014965 0.02432802 0.2147812 
-0.0049407803 0.021048961 0.21764296 
-0.0050273295 0.01778923 0.22022434 
-0.0047159204 0.0143929925 0.22320102 
-0.004861915 0.010719215 0.22633931 
-0.0048783855 0.0067601614 0.22950326 
-0.0053449264 0.003701733 0.23204887 
-0.005669239 -0.000107920496 0.23520277 
-0.0061969 -0.0031128 0.23761 
-0.0071032 -0.0063473 0.24002 
-0.0015804 0.036841 0.20617 
-0.0012699093 0.03481542 0.20782346 
-0.0013381095 0.03195486 0.21005592 
-0.001287567 0.028918404 0.21238536 
-0.0012573027 0.025718568 0.21501878 
-0.0012592818 0.022304436 0.21787474 
-0.0012724267 0.018871801 0.22065842 
-0.0010313 0.015794 0.22347 
-0.0014019 0.012076 0.22642 
-0.0015742 0.0082159 0.22952 
-0.0022256 0.0044729 0.23241 
-0.0032191 0.0004202 0.23547 
0.0018553 0.035081 0.20846 
0.0022782 0.032625 0.21057 
0.002266 0.02993 0.21277 
0.0021046 0.026606 0.21544 
0.0020287 0.023613 0.21786 
0.0016399 0.020347 0.22043 
-0.007846179 -0.0019097152 0.23604976 
-0.047681116 0.0310023 0.1976379 
-0.058383517 0.029528644 0.1921644 
-0.021935036 0.04664685 0.19289082 
-0.016531676 0.038192984 0.20065771 
-0.01622632 -0.016147029 0.24572602 
-0.015166868 0.007845698 0.21107209 
-0.05886334 0.024240032 0.19565745 
-0.04580874 -0.017101288 0.2283932 
-0.013181878 0.038546924 0.20149739 
-0.023930628 0.021662852 0.2088695 
-0.05902054 0.022559028 0.19797331 
-0.011769143 -0.02021 0.24052286 
-0.03301357 0.0505251 0.18712842 
-0.048570156 -0.014273975 0.22562961 
-0.05848852 0.0257108 0.19329119 
-0.057868715 0.030935878 0.1900184 
-0.025423488 0.019259324 0.19774827 
-0.017659377 0.014501454 0.2180184 
-0.058994528 0.023142949 0.19682749 
-0.05705625 0.03506361 0.19363634 
-0.04377826 0.040074844 0.19240451 
-0.040257845 0.042744033 0.19122855 
-0.043211456 0.0425715 0.19066922 
-0.03666787 0.048423123 0.18783462 
-0.03382262 0.048462152 0.18842232 
-0.022363912 0.022557236 0.20896138 
-0.019656865 0.030649323 0.20467024 
-0.019410204 0.037595928 0.20017815 
-0.053360566 0.0015679298 0.22182383 
-0.046438046 0.0011550719 0.22303605 
-0.016842896 0.027588153 0.20792484 
-0.014128159 0.030687934 0.20674628 
-0.01442522 0.020431489 0.21442437 
-0.010562045 0.031508278 0.20742318 
-0.014439047 0.018043337 0.2164115 
0.00041972817 0.0185308 0.22156543 
-0.009978616 -0.017765585 0.23969433 
-0.013396304 -0.022634678 0.24137992 
-0.016600398 -0.023034332 0.24076986 
-0.028375711 -0.02124495 0.2373049 
-0.037963316 -0.016758986 0.23093246 
-0.04159891 -0.017478464 0.23044223 
-0.044736173 -0.017730938 0.229898 
-0.056922555 0.017349668 0.1990555 
-0.059241127 0.021236643 0.19936988 
-0.05896929 0.025272608 0.19446495 
-0.058158085 0.030295268 0.19070534 
-0.010563156 -0.015604252 0.24225406 
-0.034029406 0.047655288 0.18098262 
-0.031021902 0.04770901 0.18162666 
-0.025146872 0.048136745 0.18270566 
-0.028069053 0.048037395 0.1820855 
-0.045675743 -0.015208246 0.2326074 
-0.042522587 -0.014903488 0.23337969 
-0.025735779 0.05008524 0.18514426 
-0.028654736 0.04997343 0.18453957 
-0.031583376 0.049659148 0.18413928 
-0.034580495 0.049601194 0.18348342 
-0.02746032 0.04612975 0.1796019 
-0.024545856 0.04619927 0.18025538 
-0.030464893 0.045815814 0.17917062 
-0.033474848 0.045764286 0.17853199 
-0.017480465 -0.020529842 0.24375711 
-0.05771281 0.019509772 0.20170508 
-0.016808515 0.030767567 0.20573689 
-0.055900134 0.01552797 0.19661282 
-0.03184326 0.05064052 0.18530947 
3 9 1 8 
3 8 19 9 
3 1 7 8 
3 9 2 1 
3 19 20 9 
3 8 18 19 
3 7 17 8 
3 9 10 2 
3 20 10 9 
3 20 21 10 
3 19 33 20 
3 18 32 19 
3 8 17 18 
3 17 31 18 
3 7 6 17 
3 10 3 2 
3 21 11 10 
3 20 34 21 
3 33 34 20 
3 33 50 34 
3 19 32 33 
3 32 49 33 
3 18 31 32 
3 31 47 32 
3 17 30 31 
3 6 16 17 
3 10 11 3 
3 11 4 3 
3 21 22 11 
3 34 22 21 
3 34 35 22 
3 50 35 34 
3 50 51 35 
3 33 49 50 
3 49 68 50 
3 32 48 49 
3 47 48 32 
3 47 65 48 
3 31 30 47 
3 30 46 47 
3 17 16 30 
3 16 29 30 
3 11 12 4 
3 22 12 11 
3 22 23 12 
3 35 36 22 
3 51 36 35 
3 51 52 36 
3 50 69 51 
3 68 69 50 
3 68 89 69 
3 49 67 68 
3 48 67 49 
3 48 66 67 
3 65 66 48 
3 65 86 66 
3 47 64 65 
3 46 64 47 
3 46 45 64 
3 30 29 46 
3 29 45 46 
3 29 28 45 
3 16 15 29 
3 12 5 4 
3 23 13 12 
3 22 36 23 
3 36 37 23 
3 52 37 36 
3 52 53 37 
3 51 69 52 
3 69 70 52 
3 89 90 69 
3 68 88 89 
3 67 88 68 
3 67 87 88 
3 66 87 67 
3 66 86 87 
3 86 108 87 
3 65 85 86 
3 64 85 65 
3 64 84 85 
3 45 63 64 
3 28 44 45 
3 29 15 28 
3 15 27 28 
3 12 13 5 
3 23 14 13 
3 37 24 23 
3 53 38 37 
3 52 70 53 
3 70 71 53 
3 69 90 70 
3 90 91 70 
3 89 111 90 
3 88 110 89 
3 87 109 88 
3 108 109 87 
3 108 130 109 
3 86 85 108 
3 85 107 108 
3 84 106 85 
3 64 63 84 
3 63 83 84 
3 45 44 63 
3 44 62 63 
3 28 27 44 
3 27 43 44 
3 23 24 14 
3 24 25 14 
3 37 38 24 
3 38 25 24 
3 38 26 25 
3 53 54 38 
3 71 54 53 
3 71 72 54 
3 70 91 71 
3 91 92 71 
3 90 112 91 
3 111 112 90 
3 111 133 112 
3 89 110 111 
3 110 132 111 
3 88 109 110 
3 109 131 110 
3 130 131 109 
3 130 152 131 
3 108 129 130 
3 107 129 108 
3 107 128 129 
3 85 106 107 
3 106 128 107 
3 106 127 128 
3 84 83 106 
3 83 105 106 
3 63 62 83 
3 62 61 83 
3 44 43 62 
3 43 61 62 
3 43 42 61 
3 27 42 43 
3 38 39 26 
3 71 92 72 
3 92 93 72 
3 91 113 92 
3 112 113 91 
3 112 134 113 
3 133 134 112 
3 133 155 134 
3 111 132 133 
3 132 154 133 
3 110 131 132 
3 131 153 132 
3 152 153 131 
3 152 174 153 
3 130 151 152 
3 129 151 130 
3 129 128 151 
3 128 150 151 
3 127 149 128 
3 106 105 127 
3 105 126 127 
3 83 82 105 
3 61 82 83 
3 61 60 82 
3 42 60 61 
3 93 73 72 
3 92 114 93 
3 113 114 92 
3 113 135 114 
3 134 135 113 
3 134 156 135 
3 155 156 134 
3 155 177 156 
3 133 154 155 
3 154 176 155 
3 132 153 154 
3 153 175 154 
3 174 175 153 
3 174 197 175 
3 152 173 174 
3 151 173 152 
3 151 150 173 
3 150 172 173 
3 128 149 150 
3 149 171 150 
3 127 148 149 
3 126 148 127 
3 126 125 148 
3 105 104 126 
3 82 104 105 
3 82 103 104 
3 60 81 82 
3 73 55 72 
3 93 94 73 
3 114 115 93 
3 135 136 114 
3 156 157 135 
3 177 178 156 
3 155 176 177 
3 715 713 409 
3 154 175 176 
3 175 198 176 
3 197 198 175 
3 197 219 198 
3 174 196 197 
3 173 196 174 
3 173 195 196 
3 172 195 173 
3 172 194 195 
3 150 171 172 
3 171 194 172 
3 171 170 194 
3 149 148 171 
3 148 170 171 
3 148 147 170 
3 125 147 148 
3 125 146 147 
3 126 104 125 
3 104 103 125 
3 103 102 125 
3 82 81 103 
3 81 80 103 
3 60 80 81 
3 73 56 55 
3 94 74 73 
3 93 116 94 
3 115 116 93 
3 115 138 116 
3 114 136 115 
3 136 137 115 
3 135 157 136 
3 157 158 136 
3 156 178 157 
3 178 179 157 
3 177 200 178 
3 200 201 178 
3 593 613 710 
3 198 199 176 
3 198 221 199 
3 219 220 198 
3 197 196 219 
3 196 218 219 
3 195 217 196 
3 194 217 195 
3 194 216 217 
3 170 193 194 
3 147 169 170 
3 146 168 147 
3 125 124 146 
3 102 124 125 
3 103 80 102 
3 56 40 55 
3 73 74 56 
3 74 57 56 
3 94 95 74 
3 116 117 94 
3 138 139 116 
3 115 137 138 
3 137 160 138 
3 136 159 137 
3 158 159 136 
3 158 180 159 
3 157 179 158 
3 179 180 158 
3 179 202 180 
3 178 201 179 
3 201 202 179 
3 201 223 202 
3 200 223 201 
3 200 222 223 
3 199 222 200 
3 199 221 222 
3 221 243 222 
3 198 220 221 
3 220 241 221 
3 219 240 220 
3 218 240 219 
3 218 239 240 
3 196 217 218 
3 217 238 218 
3 216 237 217 
3 194 193 216 
3 193 215 216 
3 170 192 193 
3 169 192 170 
3 169 191 192 
3 147 168 169 
3 168 191 169 
3 40 39 55 
3 56 41 40 
3 57 41 56 
3 57 58 41 
3 74 75 57 
3 95 75 74 
3 95 96 75 
3 94 117 95 
3 117 118 95 
3 116 139 117 
3 139 140 117 
3 138 161 139 
3 160 161 138 
3 160 182 161 
3 137 159 160 
3 159 181 160 
3 180 181 159 
3 180 203 181 
3 202 203 180 
3 202 224 203 
3 223 224 202 
3 223 245 224 
3 222 244 223 
3 243 244 222 
3 243 263 244 
3 221 242 243 
3 241 242 221 
3 241 262 242 
3 220 240 241 
3 240 261 241 
3 239 260 240 
3 218 238 239 
3 238 258 239 
3 217 237 238 
3 237 257 238 
3 216 236 237 
3 215 236 216 
3 215 214 236 
3 193 214 215 
3 193 192 214 
3 192 191 214 
3 39 54 55 
3 57 76 58 
3 75 76 57 
3 75 97 76 
3 96 97 75 
3 96 119 97 
3 95 118 96 
3 118 119 96 
3 118 140 119 
3 140 118 117 
3 139 161 140 
3 161 162 140 
3 182 183 161 
3 160 181 182 
3 181 204 182 
3 203 204 181 
3 203 225 204 
3 224 225 203 
3 224 245 225 
3 245 246 225 
3 223 244 245 
3 244 264 245 
3 263 264 244 
3 263 282 264 
3 243 262 263 
3 262 243 242 
3 241 261 262 
3 261 280 262 
3 240 260 261 
3 260 279 261 
3 239 259 260 
3 258 259 239 
3 258 277 259 
3 238 257 258 
3 257 277 258 
3 237 236 257 
3 76 59 58 
3 97 98 76 
3 119 120 97 
3 140 141 119 
3 162 141 140 
3 162 163 141 
3 161 183 162 
3 183 184 162 
3 182 205 183 
3 204 205 182 
3 204 226 205 
3 225 226 204 
3 225 247 226 
3 246 247 225 
3 605 606 701 
3 245 266 246 
3 245 265 266 
3 264 265 245 
3 264 283 265 
3 282 283 264 
3 282 300 283 
3 263 281 282 
3 262 281 263 
3 262 280 281 
3 280 298 281 
3 261 279 280 
3 279 297 280 
3 260 278 279 
3 259 278 260 
3 259 277 278 
3 277 296 278 
3 76 77 59 
3 98 77 76 
3 98 99 77 
3 97 120 98 
3 120 121 98 
3 119 141 120 
3 141 142 120 
3 163 142 141 
3 163 164 142 
3 162 184 163 
3 184 185 163 
3 183 206 184 
3 205 206 183 
3 205 227 206 
3 226 227 205 
3 226 247 227 
3 247 248 227 
3 3 4 699 
3 265 285 266 
3 283 284 265 
3 300 301 283 
3 282 299 300 
3 281 299 282 
3 281 298 299 
3 298 316 299 
3 280 297 298 
3 297 314 298 
3 279 296 297 
3 296 279 278 
3 77 78 59 
3 99 78 77 
3 99 79 78 
3 98 121 99 
3 121 122 99 
3 120 142 121 
3 142 143 121 
3 164 143 142 
3 164 165 143 
3 163 185 164 
3 185 186 164 
3 184 207 185 
3 206 207 184 
3 206 228 207 
3 227 228 206 
3 227 248 228 
3 248 249 228 
3 247 267 248 
3 267 268 248 
3 266 285 267 
3 285 286 267 
3 265 284 285 
3 284 303 285 
3 283 302 284 
3 301 302 283 
3 301 319 302 
3 300 318 301 
3 299 317 300 
3 316 317 299 
3 316 331 317 
3 298 315 316 
3 314 315 298 
3 314 328 315 
3 297 313 314 
3 296 313 297 
3 99 100 79 
3 122 100 99 
3 122 101 100 
3 121 144 122 
3 143 144 121 
3 143 165 144 
3 165 166 144 
3 164 186 165 
3 186 187 165 
3 185 208 186 
3 207 208 185 
3 207 229 208 
3 228 229 207 
3 228 249 229 
3 249 250 229 
3 248 268 249 
3 268 269 249 
3 267 286 268 
3 286 287 268 
3 285 303 286 
3 303 304 286 
3 284 302 303 
3 302 319 303 
3 319 320 303 
3 301 318 319 
3 318 333 319 
3 300 317 318 
3 317 332 318 
3 331 332 317 
3 331 343 332 
3 316 330 331 
3 315 330 316 
3 315 329 330 
3 328 329 315 
3 328 340 329 
3 100 101 79 
3 122 123 101 
3 144 145 122 
3 166 145 144 
3 166 167 145 
3 165 187 166 
3 187 188 166 
3 186 209 187 
3 208 209 186 
3 208 230 209 
3 229 230 208 
3 229 250 230 
3 250 251 230 
3 249 269 250 
3 269 270 250 
3 268 287 269 
3 287 288 269 
3 286 305 287 
3 304 305 286 
3 304 322 305 
3 303 321 304 
3 320 321 303 
3 320 335 321 
3 319 334 320 
3 333 334 319 
3 333 345 334 
3 318 332 333 
3 332 344 333 
3 343 344 332 
3 331 342 343 
3 330 342 331 
3 330 341 342 
3 329 340 330 
3 340 341 330 
3 122 145 123 
3 166 189 167 
3 188 189 166 
3 188 212 189 
3 187 210 188 
3 209 210 187 
3 209 231 210 
3 230 231 209 
3 230 251 231 
3 251 252 231 
3 250 271 251 
3 270 271 250 
3 270 289 271 
3 269 289 270 
3 269 288 289 
3 288 307 289 
3 287 305 288 
3 305 306 288 
3 322 323 305 
3 304 321 322 
3 321 336 322 
3 335 336 321 
3 320 334 335 
3 334 345 335 
3 333 344 345 
3 189 190 167 
3 212 190 189 
3 212 213 190 
3 188 211 212 
3 210 211 188 
3 210 232 211 
3 231 232 210 
3 231 252 232 
3 252 253 232 
3 251 271 252 
3 271 272 252 
3 289 290 271 
3 307 290 289 
3 307 308 290 
3 288 306 307 
3 306 324 307 
3 305 323 306 
3 323 324 306 
3 323 338 324 
3 322 337 323 
3 336 337 322 
3 211 234 212 
3 232 233 211 
3 253 233 232 
3 253 254 233 
3 252 272 253 
3 272 273 253 
3 271 291 272 
3 290 291 271 
3 290 308 291 
3 308 309 291 
3 307 325 308 
3 324 325 307 
3 324 339 325 
3 338 339 324 
3 323 337 338 
3 211 233 234 
3 233 254 234 
3 254 255 234 
3 253 273 254 
3 273 274 254 
3 272 291 273 
3 291 292 273 
3 309 292 291 
3 309 310 292 
3 308 325 309 
3 325 326 309 
3 339 326 325 
3 254 274 255 
3 274 275 255 
3 273 292 274 
3 292 293 274 
3 310 293 292 
3 310 311 293 
3 309 327 310 
3 326 327 309 
3 275 256 255 
3 274 293 275 
3 293 294 275 
3 311 312 293 
3 310 327 311 
3 256 235 255 
3 275 276 256 
3 294 295 275 
3 293 312 294 
3 275 295 276 
3 7 0 6 
3 72 55 54 
3 38 54 39 
3 39 40 26 
3 314 313 328 
3 212 234 213 
3 234 235 213 
3 235 234 255 
3 7 1 0 
3 294 312 295 
3 712 347 355 
3 365 354 355 
3 442 421 722 
3 348 355 347 
3 366 365 355 
3 364 354 365 
3 364 363 353 
3 356 355 348 
3 356 366 355 
3 367 366 356 
3 379 365 366 
3 378 364 365 
3 364 353 354 
3 377 363 364 
3 352 353 363 
3 349 356 348 
3 357 367 356 
3 380 366 367 
3 380 379 366 
3 396 379 380 
3 378 365 379 
3 605 585 696 
3 377 364 378 
3 393 377 378 
3 376 363 377 
3 362 352 363 
3 357 356 349 
3 350 357 349 
3 368 367 357 
3 367 381 380 
3 368 381 367 
3 380 397 396 
3 381 397 380 
3 395 379 396 
3 414 395 396 
3 1 2 694 
3 394 393 378 
3 411 393 394 
3 376 377 393 
3 392 376 393 
3 362 363 376 
3 375 362 376 
3 358 357 350 
3 358 368 357 
3 369 368 358 
3 382 381 368 
3 381 398 397 
3 382 398 381 
3 415 396 397 
3 415 414 396 
3 435 414 415 
3 413 395 414 
3 395 412 394 
3 413 412 395 
3 412 411 394 
3 432 411 412 
3 410 393 411 
3 410 392 393 
3 713 715 391 
3 375 376 392 
3 391 375 392 
3 374 375 391 
3 361 362 375 
3 351 358 350 
3 359 369 358 
3 382 368 369 
3 383 382 369 
3 383 398 382 
3 399 398 383 
3 415 397 398 
3 416 415 398 
3 436 435 415 
3 434 414 435 
3 434 413 414 
3 433 413 434 
3 433 412 413 
3 432 412 433 
3 454 432 433 
3 431 411 432 
3 431 410 411 
3 430 410 431 
3 429 408 714 
3 390 374 391 
3 361 375 374 
3 373 361 374 
3 359 358 351 
3 360 369 359 
3 370 383 369 
3 384 399 383 
3 416 398 399 
3 417 416 399 
3 436 415 416 
3 437 436 416 
3 457 435 436 
3 456 434 435 
3 455 433 434 
3 455 454 433 
3 476 454 455 
3 453 431 432 
3 454 453 432 
3 452 430 431 
3 409 410 430 
3 566 567 719 
3 449 427 716 
3 427 428 716 
3 373 374 390 
3 389 373 390 
3 370 369 360 
3 371 370 360 
3 384 383 370 
3 371 384 370 
3 372 384 371 
3 400 399 384 
3 400 417 399 
3 418 417 400 
3 437 416 417 
3 438 437 417 
3 458 436 437 
3 458 457 436 
3 479 457 458 
3 456 435 457 
3 478 456 457 
3 455 434 456 
3 477 455 456 
3 477 476 455 
3 498 476 477 
3 475 454 476 
3 475 453 454 
3 474 453 475 
3 452 431 453 
3 474 452 453 
3 473 452 474 
3 429 430 452 
3 451 429 452 
3 408 390 715 
3 407 408 429 
3 389 390 408 
3 407 389 408 
3 388 389 407 
3 388 373 389 
3 385 384 372 
3 438 417 418 
3 439 438 418 
3 459 437 438 
3 459 458 437 
3 480 458 459 
3 480 479 458 
3 501 479 480 
3 478 457 479 
3 500 478 479 
3 477 456 478 
3 499 477 478 
3 499 498 477 
3 520 498 499 
3 498 475 476 
3 498 497 475 
3 474 475 497 
3 496 474 497 
3 495 473 474 
3 451 452 473 
3 472 451 473 
3 428 429 451 
3 428 407 429 
3 406 407 428 
3 406 388 407 
3 419 439 418 
3 460 438 439 
3 460 459 438 
3 481 459 460 
3 481 480 459 
3 502 480 481 
3 502 501 480 
3 523 501 502 
3 500 479 501 
3 522 500 501 
3 499 478 500 
3 521 499 500 
3 521 520 499 
3 543 520 521 
3 520 497 498 
3 520 519 497 
3 496 497 519 
3 518 496 519 
3 495 474 496 
3 518 517 495 
3 494 473 495 
3 494 472 473 
3 471 472 494 
3 450 451 472 
3 450 428 451 
3 569 590 718 
3 427 406 428 
3 401 419 418 
3 440 439 419 
3 461 460 439 
3 482 481 460 
3 503 502 481 
3 524 523 502 
3 522 501 523 
3 523 545 522 
3 521 500 522 
3 544 521 522 
3 544 543 521 
3 565 543 544 
3 542 520 543 
3 542 519 520 
3 541 519 542 
3 541 518 519 
3 540 518 541 
3 518 495 496 
3 540 517 518 
3 516 517 540 
3 516 494 495 
3 517 516 495 
3 493 494 516 
3 493 471 494 
3 492 471 493 
3 702 569 718 
3 568 702 718 
3 346 0 708 
3 471 449 717 
3 426 427 449 
3 426 406 427 
3 402 419 401 
3 420 440 419 
3 462 439 440 
3 462 461 439 
3 484 461 462 
3 482 460 461 
3 483 482 461 
3 503 481 482 
3 504 503 482 
3 524 502 503 
3 525 524 503 
3 546 523 524 
3 547 546 524 
3 546 545 523 
3 545 544 522 
3 545 566 544 
3 566 565 544 
3 542 543 565 
3 564 542 565 
3 563 541 542 
3 563 540 541 
3 562 540 563 
3 539 516 540 
3 515 493 516 
3 514 492 493 
3 470 471 492 
3 78 79 706 
3 426 449 448 
3 386 402 401 
3 420 419 402 
3 403 420 402 
3 441 440 420 
3 463 462 440 
3 485 484 462 
3 483 461 484 
3 506 483 484 
3 483 504 482 
3 483 505 504 
3 526 504 505 
3 525 503 504 
3 526 525 504 
3 548 525 526 
3 547 524 525 
3 548 547 525 
3 569 547 548 
3 470 448 705 
3 711 4 5 
3 568 545 546 
3 567 545 568 
3 589 567 568 
3 567 566 545 
3 403 387 721 
3 586 565 566 
3 387 58 721 
3 58 404 721 
3 563 542 564 
3 584 563 564 
3 583 562 563 
3 266 267 698 
3 606 605 696 
3 538 516 539 
3 538 515 516 
3 537 515 538 
3 514 493 515 
3 537 514 515 
3 385 386 401 
3 387 402 386 
3 387 403 402 
3 680 681 728 
3 421 420 403 
3 421 441 420 
3 442 441 421 
3 463 440 441 
3 464 463 441 
3 485 462 463 
3 486 485 463 
3 507 484 485 
3 507 506 484 
3 528 506 507 
3 505 483 506 
3 527 505 506 
3 527 526 505 
3 549 526 527 
3 549 548 526 
3 570 548 549 
3 570 569 548 
3 591 569 570 
3 567 588 719 
3 565 586 720 
3 609 589 590 
3 588 567 589 
3 585 564 720 
3 586 566 587 
3 587 606 586 
3 347 708 739 
3 584 564 585 
3 604 584 585 
3 583 563 584 
3 603 583 584 
3 582 562 583 
3 582 561 562 
3 560 561 582 
3 560 539 561 
3 538 539 560 
3 537 538 560 
3 400 385 401 
3 422 403 404 
3 422 421 403 
3 645 644 726 
3 608 588 723 
3 465 442 443 
3 464 441 442 
3 465 464 442 
3 487 486 464 
3 464 486 463 
3 508 507 485 
3 486 508 485 
3 529 528 507 
3 527 506 528 
3 550 527 528 
3 550 549 527 
3 571 549 550 
3 571 570 549 
3 592 591 570 
3 571 592 570 
3 590 569 591 
3 610 590 591 
3 610 609 590 
3 628 609 610 
3 610 611 725 
3 608 627 724 
3 607 587 757 
3 611 630 725 
3 607 606 587 
3 625 606 607 
3 621 622 697 
3 605 604 585 
3 623 604 605 
3 603 584 604 
3 623 603 604 
3 582 583 603 
3 405 422 404 
3 444 443 422 
3 466 465 443 
3 465 487 464 
3 486 509 508 
3 487 509 486 
3 529 507 508 
3 530 529 508 
3 551 528 529 
3 551 550 528 
3 572 550 551 
3 572 571 550 
3 593 571 572 
3 593 592 571 
3 346 347 712 
3 592 611 591 
3 612 611 592 
3 611 610 591 
3 612 631 727 
3 629 628 610 
3 646 628 629 
3 627 609 628 
3 627 608 609 
3 630 629 725 
3 631 630 727 
3 625 607 626 
3 643 625 626 
3 587 719 757 
3 736 5 758 
3 623 605 624 
3 642 623 624 
3 423 422 405 
3 423 444 422 
3 445 444 423 
3 466 443 444 
3 467 466 444 
3 488 487 465 
3 466 488 465 
3 487 510 509 
3 488 510 487 
3 530 508 509 
3 531 530 509 
3 552 529 530 
3 552 551 529 
3 573 551 552 
3 573 572 551 
3 593 572 573 
3 594 593 573 
3 703 350 711 
3 312 311 729 
3 627 645 726 
3 647 646 629 
3 646 627 628 
3 646 645 627 
3 630 611 727 
3 645 661 644 
3 643 626 644 
3 660 643 644 
3 642 625 643 
3 625 642 624 
3 424 423 405 
3 424 445 423 
3 425 445 424 
3 467 444 445 
3 468 467 445 
3 488 466 467 
3 489 488 467 
3 489 510 488 
3 511 510 489 
3 531 509 510 
3 532 531 510 
3 553 530 531 
3 553 552 530 
3 574 552 553 
3 574 573 552 
3 594 573 574 
3 595 594 574 
3 613 593 594 
3 614 613 594 
3 631 612 613 
3 632 631 613 
3 681 335 728 
3 649 630 631 
3 648 629 630 
3 648 647 629 
3 665 647 648 
3 664 646 647 
3 663 645 646 
3 663 662 645 
3 677 662 663 
3 662 661 645 
3 661 660 644 
3 674 660 661 
3 659 643 660 
3 659 642 643 
3 446 445 425 
3 446 468 445 
3 447 468 446 
3 490 467 468 
3 490 489 467 
3 511 489 490 
3 512 511 490 
3 532 510 511 
3 533 532 511 
3 554 531 532 
3 554 553 531 
3 575 553 554 
3 575 574 553 
3 595 574 575 
3 596 595 575 
3 614 594 595 
3 615 614 595 
3 632 613 614 
3 633 632 614 
3 649 631 632 
3 650 649 632 
3 648 630 649 
3 666 665 648 
3 649 666 648 
3 664 647 665 
3 679 664 665 
3 663 646 664 
3 678 663 664 
3 678 677 663 
3 689 677 678 
3 676 662 677 
3 676 661 662 
3 675 661 676 
3 675 674 661 
3 686 674 675 
3 447 446 425 
3 469 468 447 
3 491 490 468 
3 491 512 490 
3 513 512 491 
3 533 511 512 
3 534 533 512 
3 555 532 533 
3 555 554 532 
3 576 554 555 
3 576 575 554 
3 596 575 576 
3 597 596 576 
3 615 595 596 
3 616 615 596 
3 633 614 615 
3 634 633 615 
3 633 650 632 
3 633 651 650 
3 668 650 651 
3 650 666 649 
3 650 667 666 
3 681 666 667 
3 680 665 666 
3 680 679 665 
3 691 679 680 
3 678 664 679 
3 690 678 679 
3 690 689 678 
3 688 677 689 
3 688 676 677 
3 687 676 688 
3 686 675 676 
3 687 686 676 
3 491 468 469 
3 513 534 512 
3 513 535 534 
3 558 534 535 
3 556 533 534 
3 556 555 533 
3 577 555 556 
3 577 576 555 
3 597 576 577 
3 598 597 577 
3 617 596 597 
3 617 616 596 
3 636 635 616 
3 635 615 616 
3 634 615 635 
3 653 634 635 
3 651 633 634 
3 652 651 634 
3 669 668 651 
3 667 650 668 
3 682 667 668 
3 682 681 667 
3 680 666 681 
3 191 168 752 
3 690 679 691 
3 536 535 513 
3 536 558 535 
3 559 558 536 
3 557 534 558 
3 557 556 534 
3 578 556 557 
3 578 577 556 
3 598 577 578 
3 599 598 578 
3 617 597 598 
3 618 617 598 
3 617 636 616 
3 635 654 653 
3 636 654 635 
3 652 634 653 
3 670 652 653 
3 669 651 652 
3 670 669 652 
3 684 669 670 
3 683 668 669 
3 683 682 668 
3 580 557 558 
3 579 578 557 
3 578 600 599 
3 579 600 578 
3 618 598 599 
3 619 618 599 
3 618 636 617 
3 618 637 636 
3 654 636 637 
3 655 654 637 
3 671 653 654 
3 671 670 653 
3 685 670 671 
3 685 684 670 
3 683 669 684 
3 579 557 580 
3 600 579 580 
3 601 600 580 
3 619 599 600 
3 620 619 600 
3 637 618 619 
3 638 637 619 
3 638 655 637 
3 656 655 638 
3 561 539 695 
3 395 394 693 
3 672 685 671 
3 620 600 601 
3 621 620 601 
3 638 619 620 
3 639 638 620 
3 639 656 638 
3 657 656 639 
3 673 655 656 
3 673 672 655 
3 602 621 601 
3 639 620 621 
3 640 639 621 
3 658 657 639 
3 673 656 657 
3 581 602 601 
3 622 621 602 
3 425 79 700 
3 658 639 640 
3 267 247 698 
3 346 353 352 
3 401 418 400 
3 400 384 385 
3 386 385 372 
3 659 660 674 
3 580 558 559 
3 581 580 559 
3 580 581 601 
3 410 409 713 
3 658 640 641 
3 15 361 373 
3 27 15 373 
3 27 373 388 
3 42 27 388 
3 42 388 406 
3 60 42 406 
3 60 406 426 
3 80 60 426 
3 700 735 745 
3 741 753 754 
3 745 735 746 
3 447 425 745 
3 168 751 752 
3 741 426 750 
3 80 741 754 
3 748 744 749 
3 514 537 747 
3 425 700 745 
3 191 537 560 
3 214 191 560 
3 214 560 582 
3 236 214 582 
3 236 582 603 
3 257 236 603 
3 257 603 623 
3 277 257 623 
3 277 623 642 
3 296 277 642 
3 642 659 313 
3 296 642 313 
3 313 659 674 
3 328 313 674 
3 328 674 686 
3 340 328 686 
3 340 686 687 
3 341 340 687 
3 341 687 688 
3 342 341 688 
3 342 688 689 
3 343 342 689 
3 343 689 690 
3 344 343 690 
3 344 690 691 
3 345 344 691 
3 704 312 729 
3 101 734 735 
3 335 681 682 
3 336 335 682 
3 336 682 683 
3 337 336 683 
3 337 683 684 
3 338 337 684 
3 338 684 685 
3 339 338 685 
3 339 685 672 
3 326 339 672 
3 326 672 673 
3 327 326 673 
3 327 673 657 
3 311 327 657 
3 737 736 756 
3 704 641 730 
3 348 2 707 
3 471 470 705 
3 213 235 732 
3 559 536 732 
3 190 213 732 
3 491 469 746 
3 256 602 581 
3 235 256 581 
3 145 167 733 
3 123 145 733 
3 537 743 747 
3 190 536 513 
3 167 190 513 
3 426 448 750 
3 700 101 735 
3 123 733 734 
3 101 123 734 
3 14 360 736 
3 448 470 759 
3 354 353 712 
3 624 605 701 
3 176 199 709 
3 2 3 707 
3 78 424 405 
3 59 78 405 
3 59 405 404 
3 58 59 404 
3 443 442 722 
3 41 58 387 
3 41 387 386 
3 40 41 386 
3 40 386 372 
3 26 40 372 
3 26 372 371 
3 25 26 371 
3 25 371 360 
3 14 25 360 
3 351 703 737 
3 5 736 737 
3 392 410 713 
3 699 349 738 
3 424 78 706 
3 295 312 704 
3 568 546 702 
3 79 101 700 
3 613 612 710 
3 0 1 708 
3 622 641 697 
3 562 561 695 
3 711 5 703 
3 199 200 709 
3 0 346 352 
3 6 0 352 
3 6 352 362 
3 16 6 362 
3 362 361 15 
3 16 362 15 
3 80 426 741 
3 655 672 692 
3 672 671 692 
3 394 378 693 
3 654 655 692 
3 671 654 692 
3 379 395 693 
3 378 379 693 
3 2 348 694 
3 348 347 694 
3 540 562 695 
3 539 540 695 
3 586 606 696 
3 588 589 723 
3 640 621 697 
3 641 640 697 
3 247 246 698 
3 246 266 698 
3 712 355 354 
3 350 349 699 
3 608 724 757 
3 469 745 746 
3 625 624 701 
3 606 625 701 
3 547 569 702 
3 546 547 702 
3 707 3 738 
3 351 350 703 
3 295 704 730 
3 742 750 749 
3 449 471 705 
3 448 449 705 
3 79 425 706 
3 425 424 706 
3 708 1 739 
3 641 622 755 
3 657 658 740 
3 347 346 708 
3 200 177 709 
3 177 176 709 
3 592 593 710 
3 612 592 710 
3 350 699 711 
3 699 4 711 
3 353 346 712 
3 472 471 717 
3 3 699 738 
3 391 392 713 
3 430 429 714 
3 409 430 714 
3 390 391 715 
3 714 408 715 
3 409 714 715 
3 428 450 716 
3 450 472 717 
3 716 450 717 
3 449 716 717 
3 590 589 718 
3 589 568 718 
3 587 566 719 
3 564 565 720 
3 696 585 720 
3 586 696 720 
3 404 403 721 
3 422 443 722 
3 421 422 722 
3 609 608 723 
3 589 609 723 
3 626 607 724 
3 5 13 758 
3 748 749 759 
3 629 610 725 
3 644 626 726 
3 724 627 726 
3 626 724 726 
3 611 612 727 
3 691 680 728 
3 345 691 728 
3 335 345 728 
3 311 657 729 
3 168 146 751 
3 581 559 732 
3 235 581 732 
3 295 730 731 
3 276 295 731 
3 256 276 731 
3 602 256 731 
3 536 190 732 
3 167 513 733 
3 513 491 733 
3 719 588 757 
3 703 5 737 
3 492 514 747 
3 694 347 739 
3 729 657 740 
3 588 608 757 
3 349 348 738 
3 348 707 738 
3 1 694 739 
3 704 729 740 
3 658 641 740 
3 641 704 740 
3 622 602 755 
3 492 747 748 
3 102 80 754 
3 735 734 746 
3 469 447 745 
3 743 748 747 
3 537 191 743 
3 744 752 751 
3 751 124 753 
3 734 733 746 
3 733 491 746 
3 744 748 743 
3 743 191 752 
3 744 742 749 
3 741 750 742 
3 146 124 751 
3 360 359 756 
3 742 744 751 
3 742 751 753 
3 743 752 744 
3 741 742 753 
3 602 731 755 
3 736 360 756 
3 754 753 102 
3 753 124 102 
3 731 730 755 
3 730 641 755 
3 359 351 756 
3 351 737 756 
3 724 607 757 
3 14 736 758 
3 13 14 758 
3 749 750 759 
3 750 448 759 
3 470 492 759 
3 492 748 759 
