ply
format ascii 1.0
comment created by PLYWriter
element vertex 760
property float x
property float y
property float z
element face 1516
property list uchar int vertex_indices
end_header
-0.057126667 0.031173123 0.18755704 
-0.057784934 0.028319063 0.18829532 
-0.05806484 0.025553811 0.18972722 
-0.058328032 0.022691496 0.19133754 
-0.05832647 0.019926919 0.19282326 
-0.05791577 0.016893616 0.19402874 
-0.053069815 0.033363905 0.18379691 
-0.05417575 0.030924048 0.1852738 
-0.05412222 0.028041476 0.18557593 
-0.054443493 0.025297409 0.18719056 
-0.054872114 0.02253896 0.18904997 
-0.055203732 0.01985825 0.19119097 
-0.055431582 0.01678865 0.19255367 
-0.0556466 0.013501263 0.19416545 
-0.05529918 0.010063681 0.195533 
-0.048162695 0.03589384 0.17983893 
-0.049186084 0.033486973 0.18112555 
-0.05002198 0.030597134 0.18221581 
-0.050443895 0.027760006 0.18368898 
-0.05089525 0.025217028 0.18602471 
-0.05143391 0.022328775 0.18771967 
-0.051829744 0.019712253 0.18985777 
-0.05228623 0.016855516 0.19158097 
-0.052641172 0.013145139 0.1929816 
-0.053260237 0.008914115 0.1950987 
-0.05360691 0.0054033822 0.19939849 
-0.05332871 0.001999037 0.20238921 
-0.04461493 0.038351573 0.1777337 
-0.04537053 0.036030833 0.17847517 
-0.04586009 0.0334521 0.17986992 
-0.046435952 0.030735448 0.18150638 
-0.0471549 0.027945042 0.18375602 
-0.047505323 0.025179578 0.18618552 
-0.04800936 0.022353454 0.18804233 
-0.04865777 0.019725082 0.19003068 
-0.04922096 0.016811453 0.19207129 
-0.0496462 0.012864038 0.19307919 
-0.050025325 0.008346086 0.19420055 
-0.050710727 0.003989804 0.19794604 
-0.050559662 0.0010211607 0.20364994 
-0.051616218 -0.0019786176 0.20790425 
-0.05205502 -0.0039930027 0.21180463 
-0.041210078 0.04080332 0.17701098 
-0.04207301 0.03883065 0.17760544 
-0.04232389 0.036204316 0.17879531 
-0.042786963 0.03371902 0.18030235 
-0.043492507 0.031115547 0.18236615 
-0.043744076 0.027809368 0.18435232 
-0.04403618 0.02491278 0.1865644 
-0.044560667 0.022062715 0.18833224 
-0.045341287 0.019315816 0.19009267 
-0.04613083 0.016611015 0.19221298 
-0.046435833 0.0125931725 0.19354965 
-0.04641238 0.007906006 0.19386494 
-0.046201713 0.003389664 0.19703221 
-0.047281347 0.00079060014 0.20346966 
-0.048459742 -0.0019054725 0.20836878 
-0.049566753 -0.0043026684 0.21244545 
-0.05022888 -0.006441755 0.21565507 
-0.05086267 -0.008781551 0.21888301 
-0.038784154 0.041528326 0.17676452 
-0.03915927 0.03908196 0.17836806 
-0.03948775 0.03645107 0.17958425 
-0.03997332 0.033818603 0.18114032 
-0.040234987 0.030836206 0.18295804 
-0.040478356 0.027336674 0.18497582 
-0.040965997 0.0246535 0.18700905 
-0.041475043 0.022015072 0.18856727 
-0.041906305 0.019239003 0.19007236 
-0.042773347 0.016342126 0.19245996 
-0.04296949 0.012163941 0.19380067 
-0.0417567 0.0072173406 0.1926857 
-0.041340392 0.0023810135 0.19578539 
-0.044119045 0.00078096485 0.20380737 
-0.045343403 -0.001971773 0.2087739 
-0.046106726 -0.0038784384 0.21303852 
-0.04701371 -0.006382596 0.21651182 
-0.048337914 -0.0094159655 0.21980907 
-0.048723698 -0.012674839 0.22311535 
-0.048061617 -0.016288508 0.22432436 
-0.035624973 0.043427013 0.1756271 
-0.036039244 0.04205916 0.17714426 
-0.036246937 0.039488416 0.17876038 
-0.036674377 0.036673915 0.17998512 
-0.03703898 0.034098476 0.18179028 
-0.03716968 0.030609068 0.18389292 
-0.03735518 0.027277164 0.18569922 
-0.037998766 0.02481514 0.18769902 
-0.03862207 0.022119105 0.18967561 
-0.03904791 0.019321945 0.19119768 
-0.039865565 0.016243111 0.1939739 
-0.039916027 0.012488766 0.19561309 
-0.039101597 0.0076237586 0.19590521 
-0.039083336 0.0028299675 0.19847454 
-0.041195195 0.0002086933 0.20535813 
-0.04226621 -0.0017771928 0.21026291 
-0.042976476 -0.004058717 0.21393386 
-0.043116126 -0.007266209 0.21591964 
-0.04375026 -0.010452147 0.21852721 
-0.044362023 -0.014483084 0.22100511 
-0.044697613 -0.018475655 0.22423075 
-0.043521985 -0.021090208 0.22633663 
-0.032922667 0.043856103 0.17609157 
-0.03304798 0.04246611 0.17744765 
-0.032959018 0.03989692 0.17929047 
-0.0330362 0.037102845 0.18044966 
-0.033467326 0.03431726 0.18243076 
-0.033863608 0.03082421 0.18548107 
-0.034258164 0.027650774 0.18671408 
-0.034910716 0.024831323 0.18870531 
-0.035458904 0.022022033 0.19088237 
-0.036037173 0.019197814 0.19334769 
-0.03676805 0.015996758 0.19597252 
-0.036751952 0.01308447 0.19737303 
-0.03694346 0.0083214305 0.19911572 
-0.03722288 0.004006317 0.20247026 
-0.03843966 0.0010350604 0.20687774 
-0.03912861 -0.0015882945 0.21118589 
-0.03950025 -0.0041944915 0.21441159 
-0.03952112 -0.0075592077 0.21606237 
-0.039752886 -0.011438961 0.21816257 
-0.040151093 -0.0154410815 0.22015478 
-0.040345863 -0.019129766 0.2231331 
-0.040175345 -0.021551244 0.22607294 
-0.029918227 0.04395038 0.17673175 
-0.0298442 0.04246729 0.1778738 
-0.029939003 0.04003595 0.17964664 
-0.030132681 0.03740317 0.18149558 
-0.030350458 0.03451325 0.18361962 
-0.030769972 0.03116594 0.18642084 
-0.03117738 0.028101692 0.18780565 
-0.031733755 0.024938917 0.18975878 
-0.032126557 0.021711152 0.19243743 
-0.032938223 0.0189307 0.19489759 
-0.03372626 0.01585881 0.19757833 
-0.033740927 0.013103315 0.19907619 
-0.033689585 0.008604706 0.20137349 
-0.034059793 0.004727654 0.20450228 
-0.03506547 0.0017062209 0.2083131 
-0.0357818 -0.0013025028 0.21192412 
-0.035904597 -0.0043332335 0.21469729 
-0.036031514 -0.007839626 0.21652183 
-0.03642698 -0.011690443 0.21884 
-0.03661474 -0.015476485 0.22089773 
-0.036610395 -0.019013247 0.2227386 
-0.036239073 -0.021592261 0.22555114 
-0.026858365 0.044218283 0.1771068 
-0.026856912 0.04268429 0.17827407 
-0.027046233 0.040061098 0.17981178 
-0.02706808 0.037589673 0.18209079 
-0.027251448 0.03460865 0.18444373 
-0.027588842 0.031551585 0.1869493 
-0.028000517 0.028341666 0.18882482 
-0.028436799 0.025176171 0.19086507 
-0.028951135 0.021624839 0.19399676 
-0.029863145 0.018615324 0.19734097 
-0.030519124 0.015799515 0.19928306 
-0.030224005 0.013269609 0.2009633 
-0.03044061 0.009317782 0.20379548 
-0.030673603 0.005615805 0.20620312 
-0.03145718 0.0018491986 0.20956354 
-0.032162756 -0.0012201689 0.21254429 
-0.032338124 -0.0048927385 0.21573868 
-0.03270915 -0.008263281 0.21718706 
-0.033066332 -0.011814447 0.21975237 
-0.033293072 -0.015355495 0.22263093 
-0.032978132 -0.018774478 0.22450718 
-0.03303079 -0.021776116 0.22701661 
-0.023991825 0.044454407 0.17797142 
-0.023900794 0.043019123 0.17918481 
-0.023865813 0.04022311 0.18029879 
-0.023989275 0.037530128 0.18237641 
-0.024230838 0.03487043 0.18498142 
-0.024459329 0.031943094 0.18729596 
-0.024889702 0.028667623 0.18991221 
-0.025258401 0.025155738 0.19250077 
-0.025703209 0.021368254 0.19613065 
-0.026468443 0.018150648 0.19923571 
-0.026228797 0.015834011 0.20142253 
-0.026541216 0.013413877 0.20318975 
-0.02721464 0.009502766 0.2067386 
-0.027549084 0.005945597 0.20893961 
-0.028009728 0.0020894588 0.21199074 
-0.028377818 -0.0015236059 0.21427684 
-0.028969267 -0.0054675518 0.21702811 
-0.029115457 -0.008691338 0.21865907 
-0.029592715 -0.011938777 0.22089736 
-0.02972345 -0.015184786 0.22388418 
-0.02941242 -0.018581143 0.22582056 
-0.029874567 -0.022021245 0.22784671 
-0.03039879 -0.024896363 0.2317035 
-0.020980312 0.04482001 0.17900927 
-0.020769382 0.043348193 0.18027635 
-0.020905634 0.04042437 0.18172923 
-0.020884987 0.03760367 0.1830088 
-0.021129776 0.03490668 0.18588962 
-0.021450792 0.032084066 0.18796742 
-0.021750279 0.02913169 0.19061185 
-0.022102784 0.025588475 0.19350174 
-0.02233275 0.021224957 0.19773817 
-0.022753712 0.017990373 0.200886 
-0.022320827 0.015230575 0.20350291 
-0.022737527 0.012659405 0.20528752 
-0.02353766 0.009336324 0.20823063 
-0.02442855 0.0060863304 0.21125892 
-0.02443102 0.00217917 0.2131578 
-0.024558518 -0.0020259987 0.2147479 
-0.025287583 -0.0053970055 0.21821901 
-0.025570529 -0.008779737 0.22036168 
-0.025608487 -0.011909093 0.2221464 
-0.025939913 -0.015023066 0.22529542 
-0.025931526 -0.018531615 0.2267648 
-0.026491867 -0.02245961 0.22808035 
-0.0265606 -0.025987243 0.23209214 
-0.01811191 0.043244686 0.18177432 
-0.018055206 0.041013647 0.18361117 
-0.018019758 0.038007546 0.18469873 
-0.018169582 0.035107873 0.18638492 
-0.01832249 0.032185465 0.18859105 
-0.018454714 0.029341634 0.1909052 
-0.018710613 0.025722876 0.19501057 
-0.018909814 0.021965152 0.19804253 
-0.019058274 0.01811628 0.20112029 
-0.01910474 0.014711376 0.20366974 
-0.019176945 0.011693493 0.20591672 
-0.019951876 0.008599257 0.208499 
-0.020859677 0.00515457 0.21142605 
-0.020793933 0.0019010965 0.21358894 
-0.02095155 -0.0015771114 0.21622443 
-0.021636408 -0.004993965 0.22002414 
-0.022080386 -0.0085277865 0.22233184 
-0.021850223 -0.011946938 0.2234968 
-0.021694185 -0.015246269 0.22624671 
-0.021825982 -0.018614573 0.22697511 
-0.022212423 -0.022526925 0.22755517 
-0.022739822 -0.026451657 0.23268732 
-0.015211363 0.041083153 0.18494293 
-0.015165052 0.038395602 0.18632558 
-0.015185517 0.035348017 0.18752952 
-0.01533278 0.03224355 0.1896221 
-0.015563398 0.029486798 0.19175985 
-0.0154443355 0.026126098 0.19581795 
-0.015717492 0.0222906 0.19915117 
-0.015745996 0.018826192 0.20143403 
-0.01586142 0.015241261 0.203485 
-0.01572859 0.011909308 0.20680545 
-0.016321648 0.008905251 0.20946757 
-0.016941017 0.00568407 0.21206018 
-0.01719854 0.002579784 0.21503599 
-0.017487809 -0.0009771019 0.21855225 
-0.018007522 -0.0043710833 0.22190785 
-0.018264577 -0.00797432 0.22411764 
-0.017775228 -0.011638017 0.22526555 
-0.017775279 -0.015330508 0.22643633 
-0.018401988 -0.019012036 0.22774594 
-0.018599918 -0.022890514 0.22959651 
-0.019133996 -0.026672265 0.23450069 
-0.012600238 0.038133916 0.18785706 
-0.012255167 0.03527131 0.18884432 
-0.01241998 0.032226697 0.19075993 
-0.012527927 0.029340643 0.19239458 
-0.012282656 0.026441138 0.19554879 
-0.012503853 0.0228128 0.199568 
-0.0127366325 0.019315813 0.2027372 
-0.012731329 0.015821956 0.20556603 
-0.012713428 0.012663441 0.20833893 
-0.012879712 0.009647586 0.21063872 
-0.013071477 0.0066429903 0.21337982 
-0.013498259 0.0032144675 0.21679947 
-0.013985121 -0.0004419578 0.22043273 
-0.014210541 -0.0039328816 0.22304718 
-0.014258235 -0.007553579 0.22471038 
-0.014079998 -0.011951271 0.22632 
-0.01424289 -0.015853679 0.2277356 
-0.014747045 -0.019501435 0.22953053 
-0.015141324 -0.023491101 0.2325811 
-0.015324681 -0.026633179 0.23651963 
-0.009674744 0.035113737 0.18990979 
-0.009120423 0.032568015 0.19158575 
-0.009259294 0.029620778 0.19331029 
-0.009092433 0.026795708 0.19630447 
-0.009473813 0.023551106 0.20027067 
-0.009690474 0.020087296 0.2041033 
-0.009548508 0.016823137 0.20705026 
-0.009559393 0.013462514 0.20962095 
-0.009436819 0.010223499 0.21160012 
-0.009528081 0.0071099573 0.21493381 
-0.010001549 0.0036284355 0.21810801 
-0.010218386 -8.0525075e-05 0.22124109 
-0.0104600275 -0.003644175 0.2235251 
-0.010801845 -0.007576955 0.22532457 
-0.010483294 -0.011802521 0.22588566 
-0.010717318 -0.01587811 0.22909184 
-0.010999801 -0.019568294 0.23090392 
-0.0114958165 -0.023805544 0.23476732 
-0.012258647 -0.02628922 0.23718044 
-0.0061081145 0.032306366 0.19252178 
-0.0059381523 0.029794063 0.19481751 
-0.006096945 0.026895529 0.19806853 
-0.0062883706 0.023970805 0.20083396 
-0.006581568 0.020924062 0.2047243 
-0.006317071 0.01763805 0.2079357 
-0.006076864 0.014224874 0.21036747 
-0.006081921 0.010850781 0.21221444 
-0.006052449 0.007330955 0.21550888 
-0.0063564354 0.0036318596 0.21873248 
-0.0065459325 -0.00020468984 0.22184905 
-0.006670412 -0.0037394396 0.22329542 
-0.007057873 -0.0075125475 0.22588824 
-0.007016241 -0.01194089 0.22644885 
-0.0071880273 -0.016033534 0.22981441 
-0.007851264 -0.019807464 0.23200636 
-0.008563477 -0.022830026 0.23382862 
-0.0034667598 0.031775475 0.19411439 
-0.0025302623 0.029872602 0.19665167 
-0.002709073 0.02698469 0.19884212 
-0.002823095 0.024077656 0.20128062 
-0.002856625 0.021113148 0.20431718 
-0.0029590197 0.017893558 0.20751113 
-0.0025914987 0.014404918 0.210333 
-0.0027135876 0.011030273 0.21265866 
-0.0025634854 0.007593579 0.21566373 
-0.002735961 0.003629562 0.21821213 
-0.0027458225 -7.3892574e-05 0.2213455 
-0.0029639872 -0.0039247726 0.22292411 
-0.0032665909 -0.007951287 0.22576356 
-0.0037871404 -0.012123355 0.2269335 
-0.0046380977 -0.015540433 0.22935441 
0.00038343653 0.02946355 0.19821157 
0.00060807524 0.027371561 0.19964968 
0.00053366664 0.024525993 0.20164865 
0.0005869947 0.021395413 0.20392714 
0.00068751816 0.018154664 0.2066073 
0.00090894895 0.014612391 0.20950668 
0.00096457667 0.011138121 0.21218814 
0.0010499154 0.0076555773 0.21448666 
0.00067099807 0.0038104681 0.2168652 
0.0008695362 -6.750021e-05 0.21962348 
0.00029068047 -0.0037709454 0.22248034 
-0.0009557989 -0.0073114885 0.22613046 
0.0038209127 0.027579142 0.20030294 
0.0041890494 0.024749778 0.20195988 
0.004202968 0.02149385 0.20358115 
0.0040304447 0.018219326 0.20634924 
0.00428252 0.014771087 0.20843425 
0.0038392446 0.011593391 0.21085879 
-0.057898 0.035575 0.19312 
-0.058681 0.033478 0.19464 
-0.059087 0.031093 0.19648 
-0.059437 0.028587 0.19844 
-0.059657 0.026104 0.20041 
-0.059821 0.023744 0.20229 
-0.054525 0.039179 0.19102 
-0.055394616 0.03683938 0.1926294 
-0.05542559 0.034843404 0.1941005 
-0.055778626 0.032374755 0.19606228 
-0.056235258 0.02971847 0.19806449 
-0.056656204 0.027086535 0.20017378 
-0.057241656 0.024446918 0.2020267 
-0.058153 0.021717 0.20436 
-0.058083 0.018744 0.20681 
-0.050046 0.042977 0.18904 
-0.051218 0.040869 0.19047 
-0.052020177 0.038505 0.19203109 
-0.052341644 0.03580951 0.19385123 
-0.05245461 0.033069726 0.19598575 
-0.052857157 0.030401979 0.19803904 
-0.053222332 0.02751365 0.19999465 
-0.053818524 0.02484542 0.2018766 
-0.054758724 0.021816112 0.20417884 
-0.055525042 0.018312033 0.20722942 
-0.056375 0.014174 0.21096 
-0.056079 0.010721 0.21385 
-0.04665 0.045804 0.18759 
-0.047383137 0.04379531 0.18897392 
-0.047974605 0.04144855 0.19062088 
-0.04861325 0.03899151 0.19229317 
-0.049242016 0.036239907 0.1941466 
-0.04920308 0.03321371 0.19637461 
-0.04952551 0.030332806 0.19832838 
-0.04999109 0.027569784 0.2002797 
-0.05052229 0.024632873 0.20234182 
-0.051447395 0.021519022 0.2045982 
-0.052044064 0.018118002 0.20731401 
-0.052863657 0.01387978 0.21076342 
-0.053353377 0.009662682 0.21486841 
-0.054293 0.00592 0.21821 
-0.054385 0.0027001 0.22082 
-0.043317 0.048081 0.18656 
-0.04407683 0.04635996 0.18774022 
-0.044491153 0.04402304 0.18939054 
-0.04485079 0.04154529 0.19119513 
-0.045450393 0.03885183 0.19301863 
-0.045706358 0.036040023 0.19492154 
-0.045812275 0.032909386 0.19695479 
-0.046211995 0.030193113 0.19884455 
-0.046711843 0.027308367 0.20069583 
-0.04728348 0.024359975 0.20272258 
-0.04802205 0.020974223 0.20516652 
-0.048500396 0.017459113 0.207732 
-0.049049627 0.013623741 0.211302 
-0.05001736 0.009271524 0.21521768 
-0.05083224 0.0057315663 0.21841542 
-0.05170535 0.002494254 0.22134392 
-0.052313 -0.00041281 0.22388 
-0.052534 -0.0033181 0.22619 
-0.040856 0.048977 0.18645 
-0.041192796 0.04651044 0.18823533 
-0.041548006 0.044068087 0.19000223 
-0.041893438 0.041424725 0.1918464 
-0.042230498 0.038624022 0.19374527 
-0.042494357 0.035539005 0.1958049 
-0.042854756 0.032563493 0.19764735 
-0.043270186 0.029922422 0.19928731 
-0.043510005 0.027275862 0.20103201 
-0.044119854 0.02407525 0.20316313 
-0.04459152 0.020344725 0.20564306 
-0.0447998 0.016957697 0.20839 
-0.045154326 0.0130322445 0.21187995 
-0.04653298 0.008781506 0.21570358 
-0.04746392 0.005382958 0.21876606 
-0.0479766 0.0025879708 0.22161749 
-0.04884558 -0.0004172154 0.22421895 
-0.04982516 -0.003787806 0.22697023 
-0.050262 -0.007415 0.2301 
-0.050065 -0.0099304 0.2322 
-0.037833 0.051152 0.18543 
-0.038066823 0.049470022 0.18671727 
-0.038332656 0.046886556 0.1886346 
-0.038712576 0.044191994 0.1905565 
-0.03897112 0.041442882 0.19243579 
-0.03928199 0.038295727 0.19454113 
-0.03949066 0.035219487 0.19653426 
-0.039928656 0.03239808 0.19824739 
-0.04041875 0.029483378 0.2000408 
-0.0408207 0.02684271 0.2016972 
-0.041521102 0.023563975 0.2038694 
-0.041394897 0.020041682 0.2060442 
-0.04165726 0.016005557 0.20906302 
-0.0423867 0.012146598 0.21242149 
-0.043116465 0.0083520375 0.21611299 
-0.04395596 0.0052844808 0.21921256 
-0.044493027 0.0024327298 0.22205336 
-0.0449438 -0.00017027796 0.22450691 
-0.04567294 -0.0032476976 0.22714432 
-0.046627507 -0.0064486233 0.22991897 
-0.047462083 -0.010236161 0.23305717 
-0.046679 -0.012748 0.23535 
-0.035124 0.051519 0.18581 
-0.035171717 0.04990675 0.18707474 
-0.03520855 0.047240436 0.18908863 
-0.035443705 0.04474149 0.1908776 
-0.03580984 0.04177251 0.19289564 
-0.036130533 0.03800185 0.19535966 
-0.036513295 0.035160735 0.19716723 
-0.03691573 0.032078695 0.19903356 
-0.037392918 0.029039836 0.20080467 
-0.037865195 0.02586878 0.2026725 
-0.038427643 0.022622818 0.20475079 
-0.038313415 0.019890629 0.20651937 
-0.03857491 0.015782153 0.20957367 
-0.039229505 0.01209578 0.21272282 
-0.039852813 0.008372526 0.21617095 
-0.04048228 0.0051383255 0.21954024 
-0.040963184 0.002360529 0.22231199 
-0.04135269 7.234654e-05 0.22461542 
-0.042106014 -0.002772835 0.22726509 
-0.04279666 -0.0059238714 0.22997841 
-0.043395728 -0.00959796 0.23335458 
-0.043446 -0.012583 0.23602 
-0.032113 0.051643 0.18646 
-0.03215671 0.050098475 0.18763891 
-0.0323431 0.047484174 0.1895799 
-0.03251541 0.04471322 0.191561 
-0.032801773 0.041640554 0.19364884 
-0.033121575 0.037966225 0.19605093 
-0.033482842 0.035118423 0.1978311 
-0.03386576 0.031872656 0.19978331 
-0.034264207 0.028498312 0.20181388 
-0.03490042 0.025272166 0.2036488 
-0.03546425 0.022022165 0.2056667 
-0.035409823 0.019424625 0.20736426 
-0.035473436 0.0156828 0.21026127 
-0.03602161 0.012084757 0.21315138 
-0.03644358 0.008717825 0.21641694 
-0.036994126 0.005465148 0.21966633 
-0.037522152 0.0026791692 0.22264248 
-0.0380273 0.00027514252 0.22505617 
-0.03889982 -0.0028307613 0.22793956 
-0.03940253 -0.0059426893 0.23076944 
-0.039794654 -0.00889475 0.23364772 
-0.039704 -0.012041 0.23651 
-0.029233 0.051989 0.1869 
-0.02920273 0.050371293 0.1881719 
-0.029544191 0.047753844 0.19008705 
-0.029529564 0.04495764 0.1921481 
-0.029693438 0.041732788 0.1943619 
-0.030094808 0.03832086 0.19656603 
-0.03040195 0.03512754 0.19853595 
-0.030719675 0.03190243 0.20052798 
-0.031184811 0.028070314 0.20278294 
-0.031891834 0.024374718 0.20491593 
-0.032383826 0.021547228 0.206733 
-0.03206941 0.019144557 0.20840098 
-0.032277394 0.01539543 0.21113233 
-0.032613948 0.012271471 0.21390389 
-0.033165134 0.008726246 0.21713357 
-0.033762492 0.005761474 0.22007151 
-0.034276206 0.0025620842 0.22350201 
-0.03488292 0.00014213166 0.22587323 
-0.035672903 -0.002937957 0.22877878 
-0.036044806 -0.006406852 0.23206365 
-0.036229867 -0.009472869 0.23498467 
-0.036454 -0.012426 0.23764 
-0.026317 0.052085 0.18755 
-0.026207171 0.050517973 0.18878001 
-0.026458606 0.048036374 0.1906357 
-0.026650064 0.04524966 0.19269986 
-0.026755176 0.04207761 0.19491881 
-0.026978098 0.03879374 0.19706903 
-0.02721218 0.035199013 0.19936204 
-0.027633509 0.031681646 0.20156908 
-0.028040493 0.027481988 0.20412552 
-0.028616507 0.023787547 0.20628184 
-0.02835476 0.021305948 0.20807712 
-0.028397879 0.018882856 0.20987017 
-0.028921567 0.014844173 0.21282908 
-0.029321168 0.011910347 0.21531415 
-0.029724393 0.008618249 0.21855372 
-0.030266834 0.005675044 0.22117758 
-0.03095983 0.0023910087 0.22453131 
-0.03139222 -0.00011314331 0.22706719 
-0.032177657 -0.0030248992 0.2297842 
-0.032559652 -0.006476531 0.23303416 
-0.03255392 -0.009466147 0.23578323 
-0.033233285 -0.012520502 0.23839603 
-0.033741 -0.016125 0.24134 
-0.023349 0.052231 0.18817 
-0.023189813 0.05066334 0.18943617 
-0.023407301 0.04802586 0.19145267 
-0.023633942 0.04543916 0.1933541 
-0.023675531 0.042210303 0.19571805 
-0.02393224 0.03911975 0.19775125 
-0.024054406 0.03565254 0.20006521 
-0.024313655 0.0318292 0.20250413 
-0.024353623 0.027655236 0.20516717 
-0.024761444 0.023962913 0.20752406 
-0.02425841 0.020872219 0.20985518 
-0.02482188 0.01831419 0.2116798 
-0.025382297 0.0149206 0.21427034 
-0.02599444 0.011640055 0.21695343 
-0.026293656 0.008848049 0.2195905 
-0.026688235 0.0058081266 0.22240564 
-0.027324434 0.0023164242 0.2257687 
-0.027771287 -0.00057034317 0.22850576 
-0.028161561 -0.003181286 0.23107103 
-0.028635265 -0.0065298914 0.23412503 
-0.029068712 -0.009448439 0.23661014 
-0.030032467 -0.012437572 0.23909788 
-0.03019 -0.016568 0.24259 
-0.020429 0.050381 0.19041 
-0.02026925 0.04810895 0.19228028 
-0.020400979 0.045539442 0.19419384 
-0.02069251 0.042652134 0.19624479 
-0.020816563 0.03945272 0.19853845 
-0.020909635 0.036330473 0.20059122 
-0.020940285 0.031995043 0.2034953 
-0.02111572 0.028500905 0.20583814 
-0.021158315 0.024802193 0.2083086 
-0.021273296 0.021441938 0.21068674 
-0.021490486 0.018392729 0.21308267 
-0.022043493 0.015086991 0.2155311 
-0.022700157 0.01174736 0.21826026 
-0.02293894 0.008887603 0.22087209 
-0.023231653 0.00577247 0.22372428 
-0.02365118 0.0021053047 0.22715302 
-0.024314178 -0.0010937917 0.23006938 
-0.024476003 -0.0034552568 0.23233908 
-0.02434711 -0.0067300433 0.23545726 
-0.02492187 -0.00925683 0.23760326 
-0.025908833 -0.012039485 0.23974662 
-0.026489 -0.016805 0.2437 
-0.017256 0.048036 0.19312 
-0.017380703 0.0455673 0.19503881 
-0.017515905 0.042755622 0.19702332 
-0.017715974 0.039733306 0.19929439 
-0.017969415 0.036708355 0.2013532 
-0.017747171 0.032564152 0.20422362 
-0.01791864 0.028753482 0.2067851 
-0.018093918 0.025604945 0.20896386 
-0.018439855 0.022523439 0.21113992 
-0.018259557 0.01876808 0.2141205 
-0.018718788 0.015462278 0.21670593 
-0.019216359 0.012364807 0.21925996 
-0.019395776 0.0091712605 0.22212698 
-0.019593112 0.0054412885 0.22541803 
-0.019962775 0.0019824603 0.22860587 
-0.020469459 -0.001122779 0.23142265 
-0.020390822 -0.003652513 0.23386143 
-0.020359669 -0.006461634 0.23633002 
-0.021163777 -0.009569906 0.23889332 
-0.021900766 -0.012891038 0.24157721 
-0.022633 -0.017556 0.24528 
-0.014544 0.0452 0.19611 
-0.014394295 0.04270283 0.19802955 
-0.014543795 0.039789338 0.20021427 
-0.014844051 0.037020463 0.20215346 
-0.0146451155 0.033644382 0.20459546 
-0.014784399 0.029507693 0.20745419 
-0.014899972 0.025960315 0.21007639 
-0.015018182 0.0225591 0.21255809 
-0.015185388 0.019085757 0.21519338 
-0.015369058 0.016083969 0.21766898 
-0.015375573 0.012981499 0.2203241 
-0.015657762 0.009380134 0.22352584 
-0.01608471 0.005390739 0.22690949 
-0.01629888 0.0022085528 0.22980833 
-0.016605396 -0.00057268236 0.23229831 
-0.01662942 -0.0038581896 0.23518914 
-0.016828647 -0.006915171 0.23782066 
-0.017218508 -0.010094089 0.2403454 
-0.017943157 -0.014182724 0.24364679 
-0.018345 -0.018081 0.24678 
-0.011732 0.04267 0.19887 
-0.011279505 0.040311284 0.2008228 
-0.011417085 0.037497066 0.20284198 
-0.011328333 0.03408566 0.20530637 
-0.011652777 0.030070186 0.20817032 
-0.01161074 0.026240459 0.21110356 
-0.011616249 0.022852182 0.21369027 
-0.011988283 0.01960302 0.21613157 
-0.012038919 0.016819747 0.21850048 
-0.011738202 0.013222882 0.22164802 
-0.012022673 0.009485107 0.22479288 
-0.012248694 0.0058229016 0.22799388 
-0.012526681 0.0026496963 0.23074783 
-0.0131632835 -0.0005208043 0.23337549 
-0.0129820295 -0.0032328498 0.23575775 
-0.013211949 -0.0071518603 0.2390103 
-0.013518947 -0.010360755 0.24159285 
-0.014087295 -0.014849991 0.24519919 
-0.014929 -0.017639 0.24727 
-0.0081946 0.040334 0.20166 
-0.008055814 0.037588812 0.20379926 
-0.008224223 0.03393584 0.20637354 
-0.008304046 0.030775288 0.20884377 
-0.00846137 0.026898226 0.21181041 
-0.008302969 0.023473104 0.21449207 
-0.00838013 0.020381786 0.21698695 
-0.008559947 0.017480047 0.21935849 
-0.008215429 0.013674516 0.22260983 
-0.0083070565 0.009801397 0.22585772 
-0.008447735 0.005979728 0.22911073 
-0.008882374 0.003110703 0.23146547 
-0.009310352 -0.0004349252 0.23436753 
-0.009396101 -0.0031990681 0.23673467 
-0.0096605085 -0.007203785 0.24001017 
-0.01028 -0.010639 0.24273 
-0.011121 -0.013447 0.24481 
-0.0055146 0.039605 0.20293 
-0.004560524 0.037156742 0.20491914 
-0.0046574976 0.034416955 0.2072047 
-0.004765084 0.03135922 0.209496 
-0.004738221 0.027913958 0.21218127 
-0.004809317 0.024442136 0.21489112 
-0.004726763 0.021128936 0.21774516 
-0.0048507685 0.017883465 0.2203261 
-0.004641228 0.014439375 0.2232682 
-0.0048050624 0.010707969 0.22639087 
-0.004835527 0.006760067 0.22956845 
-0.0053095864 0.0036842972 0.23208822 
-0.00564481 -0.000116423325 0.23522826 
-0.0061969 -0.0031128 0.23761 
-0.0071032 -0.0063473 0.24002 
-0.0015804 0.036841 0.20617 
-0.001236882 0.03484224 0.20783666 
-0.0013050796 0.03199993 0.21007824 
-0.0012207284 0.029004604 0.21243432 
-0.0011828023 0.02577482 0.21505846 
-0.0011904164 0.022325141 0.21791306 
-0.0011729327 0.018878264 0.22072107 
-0.0010313 0.015794 0.22347 
-0.0014019 0.012076 0.22642 
-0.0015742 0.0082159 0.22952 
-0.0022256 0.0044729 0.23241 
-0.0032191 0.0004202 0.23547 
0.0018553 0.035081 0.20846 
0.0022782 0.032625 0.21057 
0.002266 0.02993 0.21277 
0.0021046 0.026606 0.21544 
0.0020287 0.023613 0.21786 
0.0016399 0.020347 0.22043 
-0.0078287115 -0.00192023 0.23608793 
-0.04762623 0.031644754 0.19764975 
-0.05838715 0.029530436 0.19216374 
-0.021895247 0.046740185 0.19287136 
-0.016329614 0.038386136 0.2007179 
-0.016222607 -0.016151415 0.24572712 
-0.014658589 0.007820824 0.21127793 
-0.05881655 0.024256228 0.19565026 
-0.045787957 -0.017079467 0.22837122 
-0.01306556 0.038655877 0.20152685 
-0.022742972 0.022374405 0.2093398 
-0.05894119 0.02259487 0.19797893 
-0.011761839 -0.02022284 0.24053423 
-0.033007864 0.05053806 0.18711562 
-0.048556488 -0.014277122 0.22563119 
-0.05852088 0.025738815 0.19325061 
-0.05786211 0.030940507 0.19002326 
-0.024450367 0.019979164 0.19801961 
-0.016939713 0.014551412 0.21835089 
-0.058941152 0.023165513 0.1968212 
-0.057069696 0.035095073 0.1936304 
-0.043700144 0.04027265 0.19235404 
-0.04020066 0.04292552 0.1911736 
-0.043178678 0.042727742 0.19063525 
-0.036650155 0.048486304 0.18781617 
-0.033798784 0.048553746 0.18840478 
-0.021267017 0.023169043 0.20936045 
-0.019055884 0.03098737 0.20481634 
-0.019166354 0.037865113 0.20020473 
-0.053428188 0.0015379195 0.22185722 
-0.046438284 0.001206718 0.22317733 
-0.016192658 0.027896559 0.20811877 
-0.013737064 0.03089109 0.20683044 
-0.013820113 0.020543566 0.21462865 
-0.01025643 0.031688165 0.20751458 
-0.013826148 0.018104699 0.21663849 
0.00050896173 0.018519685 0.22161086 
-0.009967293 -0.017775007 0.23970255 
-0.013393446 -0.022645494 0.24138947 
-0.016599247 -0.023044646 0.24077787 
-0.028380305 -0.021254322 0.23730884 
-0.03795751 -0.01673898 0.23091604 
-0.04158525 -0.017452002 0.23041107 
-0.04472066 -0.017706329 0.22987385 
-0.056824364 0.017522598 0.19916052 
-0.059125926 0.021284072 0.19936822 
-0.0588701 0.02528651 0.19446905 
-0.05815421 0.03029826 0.19071054 
-0.0105528645 -0.01561083 0.24225986 
-0.03402663 0.04769529 0.18094993 
-0.031011628 0.04778471 0.18156673 
-0.025138006 0.0481908 0.18266037 
-0.02805542 0.048116084 0.18202299 
-0.04566688 -0.015193666 0.23259027 
-0.042521812 -0.0148937525 0.23336154 
-0.025724957 0.050133463 0.18511157 
-0.0286427 0.05004048 0.18448982 
-0.031572983 0.049722727 0.18408522 
-0.034583703 0.04964254 0.18345161 
-0.027454618 0.046196062 0.17954288 
-0.024535367 0.046264093 0.18019204 
-0.030463485 0.04587759 0.17911483 
-0.033482056 0.045802403 0.17849766 
-0.017479628 -0.02054421 0.24376908 
-0.057562698 0.019598024 0.20175551 
-0.016309833 0.03100332 0.20583262 
-0.056129944 0.015556035 0.19666757 
-0.0318423 0.05068042 0.18528177 
3 9 1 8 
3 8 19 9 
3 1 7 8 
3 9 2 1 
3 19 20 9 
3 8 18 19 
3 7 17 8 
3 9 10 2 
3 20 10 9 
3 20 21 10 
3 19 33 20 
3 18 32 19 
3 8 17 18 
3 17 31 18 
3 7 6 17 
3 10 3 2 
3 21 11 10 
3 20 34 21 
3 33 34 20 
3 33 50 34 
3 19 32 33 
3 32 49 33 
3 18 31 32 
3 31 47 32 
3 17 30 31 
3 6 16 17 
3 10 11 3 
3 11 4 3 
3 21 22 11 
3 34 22 21 
3 34 35 22 
3 50 35 34 
3 50 51 35 
3 33 49 50 
3 49 68 50 
3 32 48 49 
3 47 48 32 
3 47 65 48 
3 31 30 47 
3 30 46 47 
3 17 16 30 
3 16 29 30 
3 11 12 4 
3 22 12 11 
3 22 23 12 
3 35 36 22 
3 51 36 35 
3 51 52 36 
3 50 69 51 
3 68 69 50 
3 68 89 69 
3 49 67 68 
3 48 67 49 
3 48 66 67 
3 65 66 48 
3 65 86 66 
3 47 64 65 
3 46 64 47 
3 46 45 64 
3 30 29 46 
3 29 45 46 
3 29 28 45 
3 16 15 29 
3 12 5 4 
3 23 13 12 
3 22 36 23 
3 36 37 23 
3 52 37 36 
3 52 53 37 
3 51 69 52 
3 69 70 52 
3 89 90 69 
3 68 88 89 
3 67 88 68 
3 67 87 88 
3 66 87 67 
3 66 86 87 
3 86 108 87 
3 65 85 86 
3 64 85 65 
3 64 84 85 
3 45 63 64 
3 28 44 45 
3 29 15 28 
3 15 27 28 
3 12 13 5 
3 23 14 13 
3 37 24 23 
3 53 38 37 
3 52 70 53 
3 70 71 53 
3 69 90 70 
3 90 91 70 
3 89 111 90 
3 88 110 89 
3 87 109 88 
3 108 109 87 
3 108 130 109 
3 86 85 108 
3 85 107 108 
3 84 106 85 
3 64 63 84 
3 63 83 84 
3 45 44 63 
3 44 62 63 
3 28 27 44 
3 27 43 44 
3 23 24 14 
3 24 25 14 
3 37 38 24 
3 38 25 24 
3 38 26 25 
3 53 54 38 
3 71 54 53 
3 71 72 54 
3 70 91 71 
3 91 92 71 
3 90 112 91 
3 111 112 90 
3 111 133 112 
3 89 110 111 
3 110 132 111 
3 88 109 110 
3 109 131 110 
3 130 131 109 
3 130 152 131 
3 108 129 130 
3 107 129 108 
3 107 128 129 
3 85 106 107 
3 106 128 107 
3 106 127 128 
3 84 83 106 
3 83 105 106 
3 63 62 83 
3 62 61 83 
3 44 43 62 
3 43 61 62 
3 43 42 61 
3 27 42 43 
3 38 39 26 
3 71 92 72 
3 92 93 72 
3 91 113 92 
3 112 113 91 
3 112 134 113 
3 133 134 112 
3 133 155 134 
3 111 132 133 
3 132 154 133 
3 110 131 132 
3 131 153 132 
3 152 153 131 
3 152 174 153 
3 130 151 152 
3 129 151 130 
3 129 128 151 
3 128 150 151 
3 127 149 128 
3 106 105 127 
3 105 126 127 
3 83 82 105 
3 61 82 83 
3 61 60 82 
3 42 60 61 
3 93 73 72 
3 92 114 93 
3 113 114 92 
3 113 135 114 
3 134 135 113 
3 134 156 135 
3 155 156 134 
3 155 177 156 
3 133 154 155 
3 154 176 155 
3 132 153 154 
3 153 175 154 
3 174 175 153 
3 174 197 175 
3 152 173 174 
3 151 173 152 
3 151 150 173 
3 150 172 173 
3 128 149 150 
3 149 171 150 
3 127 148 149 
3 126 148 127 
3 126 125 148 
3 105 104 126 
3 82 104 105 
3 82 103 104 
3 60 81 82 
3 73 55 72 
3 93 94 73 
3 114 115 93 
3 135 136 114 
3 156 157 135 
3 177 178 156 
3 155 176 177 
3 715 713 409 
3 154 175 176 
3 175 198 176 
3 197 198 175 
3 197 219 198 
3 174 196 197 
3 173 196 174 
3 173 195 196 
3 172 195 173 
3 172 194 195 
3 150 171 172 
3 171 194 172 
3 171 170 194 
3 149 148 171 
3 148 170 171 
3 148 147 170 
3 125 147 148 
3 125 146 147 
3 126 104 125 
3 104 103 125 
3 103 102 125 
3 82 81 103 
3 81 80 103 
3 60 80 81 
3 73 56 55 
3 94 74 73 
3 93 116 94 
3 115 116 93 
3 115 138 116 
3 114 136 115 
3 136 137 115 
3 135 157 136 
3 157 158 136 
3 156 178 157 
3 178 179 157 
3 177 200 178 
3 200 201 178 
3 593 613 710 
3 198 199 176 
3 198 221 199 
3 219 220 198 
3 197 196 219 
3 196 218 219 
3 195 217 196 
3 194 217 195 
3 194 216 217 
3 170 193 194 
3 147 169 170 
3 146 168 147 
3 125 124 146 
3 102 124 125 
3 103 80 102 
3 56 40 55 
3 73 74 56 
3 74 57 56 
3 94 95 74 
3 116 117 94 
3 138 139 116 
3 115 137 138 
3 137 160 138 
3 136 159 137 
3 158 159 136 
3 158 180 159 
3 157 179 158 
3 179 180 158 
3 179 202 180 
3 178 201 179 
3 201 202 179 
3 201 223 202 
3 200 223 201 
3 200 222 223 
3 199 222 200 
3 199 221 222 
3 221 243 222 
3 198 220 221 
3 220 241 221 
3 219 240 220 
3 218 240 219 
3 218 239 240 
3 196 217 218 
3 217 238 218 
3 216 237 217 
3 194 193 216 
3 193 215 216 
3 170 192 193 
3 169 192 170 
3 169 191 192 
3 147 168 169 
3 168 191 169 
3 40 39 55 
3 56 41 40 
3 57 41 56 
3 57 58 41 
3 74 75 57 
3 95 75 74 
3 95 96 75 
3 94 117 95 
3 117 118 95 
3 116 139 117 
3 139 140 117 
3 138 161 139 
3 160 161 138 
3 160 182 161 
3 137 159 160 
3 159 181 160 
3 180 181 159 
3 180 203 181 
3 202 203 180 
3 202 224 203 
3 223 224 202 
3 223 245 224 
3 222 244 223 
3 243 244 222 
3 243 263 244 
3 221 242 243 
3 241 242 221 
3 241 262 242 
3 220 240 241 
3 240 261 241 
3 239 260 240 
3 218 238 239 
3 238 258 239 
3 217 237 238 
3 237 257 238 
3 216 236 237 
3 215 236 216 
3 215 214 236 
3 193 214 215 
3 193 192 214 
3 192 191 214 
3 39 54 55 
3 57 76 58 
3 75 76 57 
3 75 97 76 
3 96 97 75 
3 96 119 97 
3 95 118 96 
3 118 119 96 
3 118 140 119 
3 140 118 117 
3 139 161 140 
3 161 162 140 
3 182 183 161 
3 160 181 182 
3 181 204 182 
3 203 204 181 
3 203 225 204 
3 224 225 203 
3 224 245 225 
3 245 246 225 
3 223 244 245 
3 244 264 245 
3 263 264 244 
3 263 282 264 
3 243 262 263 
3 262 243 242 
3 241 261 262 
3 261 280 262 
3 240 260 261 
3 260 279 261 
3 239 259 260 
3 258 259 239 
3 258 277 259 
3 238 257 258 
3 257 277 258 
3 237 236 257 
3 76 59 58 
3 97 98 76 
3 119 120 97 
3 140 141 119 
3 162 141 140 
3 162 163 141 
3 161 183 162 
3 183 184 162 
3 182 205 183 
3 204 205 182 
3 204 226 205 
3 225 226 204 
3 225 247 226 
3 246 247 225 
3 605 606 701 
3 245 266 246 
3 245 265 266 
3 264 265 245 
3 264 283 265 
3 282 283 264 
3 282 300 283 
3 263 281 282 
3 262 281 263 
3 262 280 281 
3 280 298 281 
3 261 279 280 
3 279 297 280 
3 260 278 279 
3 259 278 260 
3 259 277 278 
3 277 296 278 
3 76 77 59 
3 98 77 76 
3 98 99 77 
3 97 120 98 
3 120 121 98 
3 119 141 120 
3 141 142 120 
3 163 142 141 
3 163 164 142 
3 162 184 163 
3 184 185 163 
3 183 206 184 
3 205 206 183 
3 205 227 206 
3 226 227 205 
3 226 247 227 
3 247 248 227 
3 3 4 699 
3 265 285 266 
3 283 284 265 
3 300 301 283 
3 282 299 300 
3 281 299 282 
3 281 298 299 
3 298 316 299 
3 280 297 298 
3 297 314 298 
3 279 296 297 
3 296 279 278 
3 77 78 59 
3 99 78 77 
3 99 79 78 
3 98 121 99 
3 121 122 99 
3 120 142 121 
3 142 143 121 
3 164 143 142 
3 164 165 143 
3 163 185 164 
3 185 186 164 
3 184 207 185 
3 206 207 184 
3 206 228 207 
3 227 228 206 
3 227 248 228 
3 248 249 228 
3 247 267 248 
3 267 268 248 
3 266 285 267 
3 285 286 267 
3 265 284 285 
3 284 303 285 
3 283 302 284 
3 301 302 283 
3 301 319 302 
3 300 318 301 
3 299 317 300 
3 316 317 299 
3 316 331 317 
3 298 315 316 
3 314 315 298 
3 314 328 315 
3 297 313 314 
3 296 313 297 
3 99 100 79 
3 122 100 99 
3 122 101 100 
3 121 144 122 
3 143 144 121 
3 143 165 144 
3 165 166 144 
3 164 186 165 
3 186 187 165 
3 185 208 186 
3 207 208 185 
3 207 229 208 
3 228 229 207 
3 228 249 229 
3 249 250 229 
3 248 268 249 
3 268 269 249 
3 267 286 268 
3 286 287 268 
3 285 303 286 
3 303 304 286 
3 284 302 303 
3 302 319 303 
3 319 320 303 
3 301 318 319 
3 318 333 319 
3 300 317 318 
3 317 332 318 
3 331 332 317 
3 331 343 332 
3 316 330 331 
3 315 330 316 
3 315 329 330 
3 328 329 315 
3 328 340 329 
3 100 101 79 
3 122 123 101 
3 144 145 122 
3 166 145 144 
3 166 167 145 
3 165 187 166 
3 187 188 166 
3 186 209 187 
3 208 209 186 
3 208 230 209 
3 229 230 208 
3 229 250 230 
3 250 251 230 
3 249 269 250 
3 269 270 250 
3 268 287 269 
3 287 288 269 
3 286 305 287 
3 304 305 286 
3 304 322 305 
3 303 321 304 
3 320 321 303 
3 320 335 321 
3 319 334 320 
3 333 334 319 
3 333 345 334 
3 318 332 333 
3 332 344 333 
3 343 344 332 
3 331 342 343 
3 330 342 331 
3 330 341 342 
3 329 340 330 
3 340 341 330 
3 122 145 123 
3 166 189 167 
3 188 189 166 
3 188 212 189 
3 187 210 188 
3 209 210 187 
3 209 231 210 
3 230 231 209 
3 230 251 231 
3 251 252 231 
3 250 271 251 
3 270 271 250 
3 270 289 271 
3 269 289 270 
3 269 288 289 
3 288 307 289 
3 287 305 288 
3 305 306 288 
3 322 323 305 
3 304 321 322 
3 321 336 322 
3 335 336 321 
3 320 334 335 
3 334 345 335 
3 333 344 345 
3 189 190 167 
3 212 190 189 
3 212 213 190 
3 188 211 212 
3 210 211 188 
3 210 232 211 
3 231 232 210 
3 231 252 232 
3 252 253 232 
3 251 271 252 
3 271 272 252 
3 289 290 271 
3 307 290 289 
3 307 308 290 
3 288 306 307 
3 306 324 307 
3 305 323 306 
3 323 324 306 
3 323 338 324 
3 322 337 323 
3 336 337 322 
3 211 234 212 
3 232 233 211 
3 253 233 232 
3 253 254 233 
3 252 272 253 
3 272 273 253 
3 271 291 272 
3 290 291 271 
3 290 308 291 
3 308 309 291 
3 307 325 308 
3 324 325 307 
3 324 339 325 
3 338 339 324 
3 323 337 338 
3 211 233 234 
3 233 254 234 
3 254 255 234 
3 253 273 254 
3 273 274 254 
3 272 291 273 
3 291 292 273 
3 309 292 291 
3 309 310 292 
3 308 325 309 
3 325 326 309 
3 339 326 325 
3 254 274 255 
3 274 275 255 
3 273 292 274 
3 292 293 274 
3 310 293 292 
3 310 311 293 
3 309 327 310 
3 326 327 309 
3 275 256 255 
3 274 293 275 
3 293 294 275 
3 311 312 293 
3 310 327 311 
3 256 235 255 
3 275 276 256 
3 294 295 275 
3 293 312 294 
3 275 295 276 
3 7 0 6 
3 72 55 54 
3 38 54 39 
3 39 40 26 
3 314 313 328 
3 212 234 213 
3 234 235 213 
3 235 234 255 
3 7 1 0 
3 294 312 295 
3 712 347 355 
3 365 354 355 
3 442 421 722 
3 348 355 347 
3 366 365 355 
3 364 354 365 
3 364 363 353 
3 356 355 348 
3 356 366 355 
3 367 366 356 
3 379 365 366 
3 378 364 365 
3 364 353 354 
3 377 363 364 
3 352 353 363 
3 349 356 348 
3 357 367 356 
3 380 366 367 
3 380 379 366 
3 396 379 380 
3 378 365 379 
3 605 585 696 
3 377 364 378 
3 393 377 378 
3 376 363 377 
3 362 352 363 
3 357 356 349 
3 350 357 349 
3 368 367 357 
3 367 381 380 
3 368 381 367 
3 380 397 396 
3 381 397 380 
3 395 379 396 
3 414 395 396 
3 1 2 694 
3 394 393 378 
3 411 393 394 
3 376 377 393 
3 392 376 393 
3 362 363 376 
3 375 362 376 
3 358 357 350 
3 358 368 357 
3 369 368 358 
3 382 381 368 
3 381 398 397 
3 382 398 381 
3 415 396 397 
3 415 414 396 
3 435 414 415 
3 413 395 414 
3 395 412 394 
3 413 412 395 
3 412 411 394 
3 432 411 412 
3 410 393 411 
3 410 392 393 
3 713 715 391 
3 375 376 392 
3 391 375 392 
3 374 375 391 
3 361 362 375 
3 351 358 350 
3 359 369 358 
3 382 368 369 
3 383 382 369 
3 383 398 382 
3 399 398 383 
3 415 397 398 
3 416 415 398 
3 436 435 415 
3 434 414 435 
3 434 413 414 
3 433 413 434 
3 433 412 413 
3 432 412 433 
3 454 432 433 
3 431 411 432 
3 431 410 411 
3 430 410 431 
3 429 408 714 
3 390 374 391 
3 361 375 374 
3 373 361 374 
3 359 358 351 
3 360 369 359 
3 370 383 369 
3 384 399 383 
3 416 398 399 
3 417 416 399 
3 436 415 416 
3 437 436 416 
3 457 435 436 
3 456 434 435 
3 455 433 434 
3 455 454 433 
3 476 454 455 
3 453 431 432 
3 454 453 432 
3 452 430 431 
3 409 410 430 
3 566 567 719 
3 449 427 716 
3 427 428 716 
3 373 374 390 
3 389 373 390 
3 370 369 360 
3 371 370 360 
3 384 383 370 
3 371 384 370 
3 372 384 371 
3 400 399 384 
3 400 417 399 
3 418 417 400 
3 437 416 417 
3 438 437 417 
3 458 436 437 
3 458 457 436 
3 479 457 458 
3 456 435 457 
3 478 456 457 
3 455 434 456 
3 477 455 456 
3 477 476 455 
3 498 476 477 
3 475 454 476 
3 475 453 454 
3 474 453 475 
3 452 431 453 
3 474 452 453 
3 473 452 474 
3 429 430 452 
3 451 429 452 
3 408 390 715 
3 407 408 429 
3 389 390 408 
3 407 389 408 
3 388 389 407 
3 388 373 389 
3 385 384 372 
3 438 417 418 
3 439 438 418 
3 459 437 438 
3 459 458 437 
3 480 458 459 
3 480 479 458 
3 501 479 480 
3 478 457 479 
3 500 478 479 
3 477 456 478 
3 499 477 478 
3 499 498 477 
3 520 498 499 
3 498 475 476 
3 498 497 475 
3 474 475 497 
3 496 474 497 
3 495 473 474 
3 451 452 473 
3 472 451 473 
3 428 429 451 
3 428 407 429 
3 406 407 428 
3 406 388 407 
3 419 439 418 
3 460 438 439 
3 460 459 438 
3 481 459 460 
3 481 480 459 
3 502 480 481 
3 502 501 480 
3 523 501 502 
3 500 479 501 
3 522 500 501 
3 499 478 500 
3 521 499 500 
3 521 520 499 
3 543 520 521 
3 520 497 498 
3 520 519 497 
3 496 497 519 
3 518 496 519 
3 495 474 496 
3 518 517 495 
3 494 473 495 
3 494 472 473 
3 471 472 494 
3 450 451 472 
3 450 428 451 
3 569 590 718 
3 427 406 428 
3 401 419 418 
3 440 439 419 
3 461 460 439 
3 482 481 460 
3 503 502 481 
3 524 523 502 
3 522 501 523 
3 523 545 522 
3 521 500 522 
3 544 521 522 
3 544 543 521 
3 565 543 544 
3 542 520 543 
3 542 519 520 
3 541 519 542 
3 541 518 519 
3 540 518 541 
3 518 495 496 
3 540 517 518 
3 516 517 540 
3 516 494 495 
3 517 516 495 
3 493 494 516 
3 493 471 494 
3 492 471 493 
3 702 569 718 
3 568 702 718 
3 346 0 708 
3 471 449 717 
3 426 427 449 
3 426 406 427 
3 402 419 401 
3 420 440 419 
3 462 439 440 
3 462 461 439 
3 484 461 462 
3 482 460 461 
3 483 482 461 
3 503 481 482 
3 504 503 482 
3 524 502 503 
3 525 524 503 
3 546 523 524 
3 547 546 524 
3 546 545 523 
3 545 544 522 
3 545 566 544 
3 566 565 544 
3 542 543 565 
3 564 542 565 
3 563 541 542 
3 563 540 541 
3 562 540 563 
3 539 516 540 
3 515 493 516 
3 514 492 493 
3 470 471 492 
3 78 79 706 
3 426 449 448 
3 386 402 401 
3 420 419 402 
3 403 420 402 
3 441 440 420 
3 463 462 440 
3 485 484 462 
3 483 461 484 
3 506 483 484 
3 483 504 482 
3 483 505 504 
3 526 504 505 
3 525 503 504 
3 526 525 504 
3 548 525 526 
3 547 524 525 
3 548 547 525 
3 569 547 548 
3 470 448 705 
3 711 4 5 
3 568 545 546 
3 567 545 568 
3 589 567 568 
3 567 566 545 
3 403 387 721 
3 586 565 566 
3 387 58 721 
3 58 404 721 
3 563 542 564 
3 584 563 564 
3 583 562 563 
3 266 267 698 
3 606 605 696 
3 538 516 539 
3 538 515 516 
3 537 515 538 
3 514 493 515 
3 537 514 515 
3 385 386 401 
3 387 402 386 
3 387 403 402 
3 680 681 728 
3 421 420 403 
3 421 441 420 
3 442 441 421 
3 463 440 441 
3 464 463 441 
3 485 462 463 
3 486 485 463 
3 507 484 485 
3 507 506 484 
3 528 506 507 
3 505 483 506 
3 527 505 506 
3 527 526 505 
3 549 526 527 
3 549 548 526 
3 570 548 549 
3 570 569 548 
3 591 569 570 
3 567 588 719 
3 565 586 720 
3 609 589 590 
3 588 567 589 
3 585 564 720 
3 586 566 587 
3 587 606 586 
3 347 708 739 
3 584 564 585 
3 604 584 585 
3 583 563 584 
3 603 583 584 
3 582 562 583 
3 582 561 562 
3 560 561 582 
3 560 539 561 
3 538 539 560 
3 537 538 560 
3 400 385 401 
3 422 403 404 
3 422 421 403 
3 645 644 726 
3 608 588 723 
3 465 442 443 
3 464 441 442 
3 465 464 442 
3 487 486 464 
3 464 486 463 
3 508 507 485 
3 486 508 485 
3 529 528 507 
3 527 506 528 
3 550 527 528 
3 550 549 527 
3 571 549 550 
3 571 570 549 
3 592 591 570 
3 571 592 570 
3 590 569 591 
3 610 590 591 
3 610 609 590 
3 628 609 610 
3 610 611 725 
3 608 627 724 
3 607 587 757 
3 611 630 725 
3 607 606 587 
3 625 606 607 
3 621 622 697 
3 605 604 585 
3 623 604 605 
3 603 584 604 
3 623 603 604 
3 582 583 603 
3 405 422 404 
3 444 443 422 
3 466 465 443 
3 465 487 464 
3 486 509 508 
3 487 509 486 
3 529 507 508 
3 530 529 508 
3 551 528 529 
3 551 550 528 
3 572 550 551 
3 572 571 550 
3 593 571 572 
3 593 592 571 
3 346 347 712 
3 592 611 591 
3 612 611 592 
3 611 610 591 
3 612 631 727 
3 629 628 610 
3 646 628 629 
3 627 609 628 
3 627 608 609 
3 630 629 725 
3 631 630 727 
3 625 607 626 
3 643 625 626 
3 587 719 757 
3 736 5 758 
3 623 605 624 
3 642 623 624 
3 423 422 405 
3 423 444 422 
3 445 444 423 
3 466 443 444 
3 467 466 444 
3 488 487 465 
3 466 488 465 
3 487 510 509 
3 488 510 487 
3 530 508 509 
3 531 530 509 
3 552 529 530 
3 552 551 529 
3 573 551 552 
3 573 572 551 
3 593 572 573 
3 594 593 573 
3 703 350 711 
3 312 311 729 
3 627 645 726 
3 647 646 629 
3 646 627 628 
3 646 645 627 
3 630 611 727 
3 645 661 644 
3 643 626 644 
3 660 643 644 
3 642 625 643 
3 625 642 624 
3 424 423 405 
3 424 445 423 
3 425 445 424 
3 467 444 445 
3 468 467 445 
3 488 466 467 
3 489 488 467 
3 489 510 488 
3 511 510 489 
3 531 509 510 
3 532 531 510 
3 553 530 531 
3 553 552 530 
3 574 552 553 
3 574 573 552 
3 594 573 574 
3 595 594 574 
3 613 593 594 
3 614 613 594 
3 631 612 613 
3 632 631 613 
3 681 335 728 
3 649 630 631 
3 648 629 630 
3 648 647 629 
3 665 647 648 
3 664 646 647 
3 663 645 646 
3 663 662 645 
3 677 662 663 
3 662 661 645 
3 661 660 644 
3 674 660 661 
3 659 643 660 
3 659 642 643 
3 446 445 425 
3 446 468 445 
3 447 468 446 
3 490 467 468 
3 490 489 467 
3 511 489 490 
3 512 511 490 
3 532 510 511 
3 533 532 511 
3 554 531 532 
3 554 553 531 
3 575 553 554 
3 575 574 553 
3 595 574 575 
3 596 595 575 
3 614 594 595 
3 615 614 595 
3 632 613 614 
3 633 632 614 
3 649 631 632 
3 650 649 632 
3 648 630 649 
3 666 665 648 
3 649 666 648 
3 664 647 665 
3 679 664 665 
3 663 646 664 
3 678 663 664 
3 678 677 663 
3 689 677 678 
3 676 662 677 
3 676 661 662 
3 675 661 676 
3 675 674 661 
3 686 674 675 
3 447 446 425 
3 469 468 447 
3 491 490 468 
3 491 512 490 
3 513 512 491 
3 533 511 512 
3 534 533 512 
3 555 532 533 
3 555 554 532 
3 576 554 555 
3 576 575 554 
3 596 575 576 
3 597 596 576 
3 615 595 596 
3 616 615 596 
3 633 614 615 
3 634 633 615 
3 633 650 632 
3 633 651 650 
3 668 650 651 
3 650 666 649 
3 650 667 666 
3 681 666 667 
3 680 665 666 
3 680 679 665 
3 691 679 680 
3 678 664 679 
3 690 678 679 
3 690 689 678 
3 688 677 689 
3 688 676 677 
3 687 676 688 
3 686 675 676 
3 687 686 676 
3 491 468 469 
3 513 534 512 
3 513 535 534 
3 558 534 535 
3 556 533 534 
3 556 555 533 
3 577 555 556 
3 577 576 555 
3 597 576 577 
3 598 597 577 
3 617 596 597 
3 617 616 596 
3 636 635 616 
3 635 615 616 
3 634 615 635 
3 653 634 635 
3 651 633 634 
3 652 651 634 
3 669 668 651 
3 667 650 668 
3 682 667 668 
3 682 681 667 
3 680 666 681 
3 191 168 752 
3 690 679 691 
3 536 535 513 
3 536 558 535 
3 559 558 536 
3 557 534 558 
3 557 556 534 
3 578 556 557 
3 578 577 556 
3 598 577 578 
3 599 598 578 
3 617 597 598 
3 618 617 598 
3 617 636 616 
3 635 654 653 
3 636 654 635 
3 652 634 653 
3 670 652 653 
3 669 651 652 
3 670 669 652 
3 684 669 670 
3 683 668 669 
3 683 682 668 
3 580 557 558 
3 579 578 557 
3 578 600 599 
3 579 600 578 
3 618 598 599 
3 619 618 599 
3 618 636 617 
3 618 637 636 
3 654 636 637 
3 655 654 637 
3 671 653 654 
3 671 670 653 
3 685 670 671 
3 685 684 670 
3 683 669 684 
3 579 557 580 
3 600 579 580 
3 601 600 580 
3 619 599 600 
3 620 619 600 
3 637 618 619 
3 638 637 619 
3 638 655 637 
3 656 655 638 
3 561 539 695 
3 395 394 693 
3 672 685 671 
3 620 600 601 
3 621 620 601 
3 638 619 620 
3 639 638 620 
3 639 656 638 
3 657 656 639 
3 673 655 656 
3 673 672 655 
3 602 621 601 
3 639 620 621 
3 640 639 621 
3 658 657 639 
3 673 656 657 
3 581 602 601 
3 622 621 602 
3 425 79 700 
3 658 639 640 
3 267 247 698 
3 346 353 352 
3 401 418 400 
3 400 384 385 
3 386 385 372 
3 659 660 674 
3 580 558 559 
3 581 580 559 
3 580 581 601 
3 410 409 713 
3 658 640 641 
3 15 361 373 
3 27 15 373 
3 27 373 388 
3 42 27 388 
3 42 388 406 
3 60 42 406 
3 60 406 426 
3 80 60 426 
3 700 735 745 
3 741 753 754 
3 745 735 746 
3 447 425 745 
3 168 751 752 
3 741 426 750 
3 80 741 754 
3 748 744 749 
3 514 537 747 
3 425 700 745 
3 191 537 560 
3 214 191 560 
3 214 560 582 
3 236 214 582 
3 236 582 603 
3 257 236 603 
3 257 603 623 
3 277 257 623 
3 277 623 642 
3 296 277 642 
3 642 659 313 
3 296 642 313 
3 313 659 674 
3 328 313 674 
3 328 674 686 
3 340 328 686 
3 340 686 687 
3 341 340 687 
3 341 687 688 
3 342 341 688 
3 342 688 689 
3 343 342 689 
3 343 689 690 
3 344 343 690 
3 344 690 691 
3 345 344 691 
3 704 312 729 
3 101 734 735 
3 335 681 682 
3 336 335 682 
3 336 682 683 
3 337 336 683 
3 337 683 684 
3 338 337 684 
3 338 684 685 
3 339 338 685 
3 339 685 672 
3 326 339 672 
3 326 672 673 
3 327 326 673 
3 327 673 657 
3 311 327 657 
3 737 736 756 
3 704 641 730 
3 348 2 707 
3 471 470 705 
3 213 235 732 
3 559 536 732 
3 190 213 732 
3 491 469 746 
3 256 602 581 
3 235 256 581 
3 145 167 733 
3 123 145 733 
3 537 743 747 
3 190 536 513 
3 167 190 513 
3 426 448 750 
3 700 101 735 
3 123 733 734 
3 101 123 734 
3 14 360 736 
3 448 470 759 
3 354 353 712 
3 624 605 701 
3 176 199 709 
3 2 3 707 
3 78 424 405 
3 59 78 405 
3 59 405 404 
3 58 59 404 
3 443 442 722 
3 41 58 387 
3 41 387 386 
3 40 41 386 
3 40 386 372 
3 26 40 372 
3 26 372 371 
3 25 26 371 
3 25 371 360 
3 14 25 360 
3 351 703 737 
3 5 736 737 
3 392 410 713 
3 699 349 738 
3 424 78 706 
3 295 312 704 
3 568 546 702 
3 79 101 700 
3 613 612 710 
3 0 1 708 
3 622 641 697 
3 562 561 695 
3 711 5 703 
3 199 200 709 
3 0 346 352 
3 6 0 352 
3 6 352 362 
3 16 6 362 
3 362 361 15 
3 16 362 15 
3 80 426 741 
3 655 672 692 
3 672 671 692 
3 394 378 693 
3 654 655 692 
3 671 654 692 
3 379 395 693 
3 378 379 693 
3 2 348 694 
3 348 347 694 
3 540 562 695 
3 539 540 695 
3 586 606 696 
3 588 589 723 
3 640 621 697 
3 641 640 697 
3 247 246 698 
3 246 266 698 
3 712 355 354 
3 350 349 699 
3 608 724 757 
3 469 745 746 
3 625 624 701 
3 606 625 701 
3 547 569 702 
3 546 547 702 
3 707 3 738 
3 351 350 703 
3 295 704 730 
3 742 750 749 
3 449 471 705 
3 448 449 705 
3 79 425 706 
3 425 424 706 
3 708 1 739 
3 641 622 755 
3 657 658 740 
3 347 346 708 
3 200 177 709 
3 177 176 709 
3 592 593 710 
3 612 592 710 
3 350 699 711 
3 699 4 711 
3 353 346 712 
3 472 471 717 
3 3 699 738 
3 391 392 713 
3 430 429 714 
3 409 430 714 
3 390 391 715 
3 714 408 715 
3 409 714 715 
3 428 450 716 
3 450 472 717 
3 716 450 717 
3 449 716 717 
3 590 589 718 
3 589 568 718 
3 587 566 719 
3 564 565 720 
3 696 585 720 
3 586 696 720 
3 404 403 721 
3 422 443 722 
3 421 422 722 
3 609 608 723 
3 589 609 723 
3 626 607 724 
3 5 13 758 
3 748 749 759 
3 629 610 725 
3 644 626 726 
3 724 627 726 
3 626 724 726 
3 611 612 727 
3 691 680 728 
3 345 691 728 
3 335 345 728 
3 311 657 729 
3 168 146 751 
3 581 559 732 
3 235 581 732 
3 295 730 731 
3 276 295 731 
3 256 276 731 
3 602 256 731 
3 536 190 732 
3 167 513 733 
3 513 491 733 
3 719 588 757 
3 703 5 737 
3 492 514 747 
3 694 347 739 
3 729 657 740 
3 588 608 757 
3 349 348 738 
3 348 707 738 
3 1 694 739 
3 704 729 740 
3 658 641 740 
3 641 704 740 
3 622 602 755 
3 492 747 748 
3 102 80 754 
3 735 734 746 
3 469 447 745 
3 743 748 747 
3 537 191 743 
3 744 752 751 
3 751 124 753 
3 734 733 746 
3 733 491 746 
3 744 748 743 
3 743 191 752 
3 744 742 749 
3 741 750 742 
3 146 124 751 
3 360 359 756 
3 742 744 751 
3 742 751 753 
3 743 752 744 
3 741 742 753 
3 602 731 755 
3 736 360 756 
3 754 753 102 
3 753 124 102 
3 731 730 755 
3 730 641 755 
3 359 351 756 
3 351 737 756 
3 724 607 757 
3 14 736 758 
3 13 14 758 
3 749 750 759 
3 750 448 759 
3 470 492 759 
3 492 748 759 
