ply
format ascii 1.0
comment PCL generated
element vertex 336
property float x
property float y
property float z
element camera 1
property float view_px
property float view_py
property float view_pz
property float x_axisx
property float x_axisy
property float x_axisz
property float y_axisx
property float y_axisy
property float y_axisz
property float z_axisx
property float z_axisy
property float z_axisz
property float focal
property float scalex
property float scaley
property float centerx
property float centery
property int viewportx
property int viewporty
property float k1
property float k2
end_header
-0.055500302 0.030943265 0.1850554
-0.05617094 0.02799122 0.18611227
-0.056919288 0.025253922 0.18851815
-0.057760727 0.022341171 0.19083002
-0.05800074 0.019274876 0.19271457
-0.05138547 0.033926189 0.18259929
-0.051917046 0.031237653 0.18406124
-0.052261505 0.028347488 0.18508533
-0.053071253 0.02558025 0.18723531
-0.054020476 0.022663271 0.19025415
-0.054887544 0.019667994 0.19288294
-0.055143438 0.016500713 0.19476259
-0.056032624 0.013435213 0.19649744
-0.047845531 0.036603037 0.18073338
-0.048138313 0.03381896 0.18181404
-0.048588928 0.031053416 0.18332246
-0.049149085 0.028333124 0.18511181
-0.050064325 0.025721019 0.18795711
-0.050715182 0.022928216 0.19053791
-0.051511731 0.020437917 0.19332133
-0.052498285 0.017350672 0.19638063
-0.054051436 0.013267851 0.19955753
-0.054642715 0.0092439605 0.20233931
-0.054633208 0.0053504528 0.2036677
-0.044612985 0.039051089 0.17885068
-0.044689212 0.036531482 0.18030596
-0.044964004 0.033847399 0.18208717
-0.045605145 0.031036621 0.18407917
-0.046232499 0.028362475 0.18589349
-0.047126077 0.025965028 0.18905477
-0.047725592 0.023129972 0.19136086
-0.048708193 0.021028528 0.19424915
-0.050142828 0.018098686 0.19803382
-0.0507585 0.012739545 0.20130515
-0.050873756 0.0077458858 0.20287257
-0.051481064 0.0042397566 0.20558842
-0.052843172 0.0021854737 0.21032475
-0.053476159 -0.00019005332 0.2132864
-0.041200489 0.041505266 0.17770222
-0.041628677 0.039329499 0.17929193
-0.041890435 0.036890157 0.18105014
-0.042437896 0.034143858 0.18330766
-0.042947154 0.031131262 0.18550535
-0.043488014 0.028543381 0.18689953
-0.044118952 0.026196165 0.18989688
-0.044635184 0.023400303 0.19190192
-0.045322508 0.020799661 0.19503652
-0.046138175 0.017794095 0.19849019
-0.046557188 0.012020891 0.20099108
-0.046843015 0.0071884287 0.20200334
-0.04711521 0.0026298326 0.20361638
-0.049526583 0.0025436475 0.21110377
-0.050164133 -0.00030980221 0.21372296
-0.050363421 -0.0034883297 0.21667218
-0.050536525 -0.0063618212 0.21888097
-0.050434876 -0.0094409641 0.2213842
-0.038487006 0.041893277 0.17820035
-0.038755815 0.0396773 0.17997505
-0.039139155 0.037341718 0.18188408
-0.03965624 0.034714378 0.18444976
-0.040059041 0.03141731 0.1863203
-0.040534239 0.028828146 0.18800211
-0.041032322 0.026185416 0.19024116
-0.041449446 0.023307927 0.19172412
-0.042008977 0.020619946 0.19471551
-0.042545643 0.01734874 0.19846617
-0.043002032 0.012464124 0.20079061
-0.042842843 0.0076449579 0.20127836
-0.043006144 0.0031644932 0.20222107
-0.045736194 0.0022390042 0.21012139
-0.04652565 -0.00034448839 0.21410957
-0.046906449 -0.0033008198 0.21701154
-0.047150381 -0.0065820352 0.21915211
-0.047271162 -0.0099277031 0.22136316
-0.047412906 -0.014095245 0.22253026
-0.047154825 -0.018065918 0.2240773
-0.035551567 0.04221458 0.17892283
-0.035845511 0.039910775 0.18073604
-0.036215391 0.037641082 0.18248096
-0.036731586 0.035178225 0.18530458
-0.036927067 0.03199276 0.18735561
-0.037417382 0.028957404 0.18815517
-0.037880514 0.026199959 0.19047754
-0.038284302 0.023252551 0.1924517
-0.038833991 0.020357724 0.1953795
-0.039226796 0.017093614 0.19852766
-0.039593004 0.012700946 0.20102765
-0.039473698 0.0082714157 0.20173396
-0.039430879 0.0041231029 0.20330517
-0.040974442 0.0013354383 0.20907094
-0.042856459 -0.00036277881 0.21387888
-0.043425255 -0.0032452752 0.21736377
-0.043532204 -0.0066156802 0.21997185
-0.04369767 -0.010320443 0.22086914
-0.043802418 -0.014355963 0.22163445
-0.043458182 -0.018082077 0.22311033
-0.043966305 -0.021674948 0.22614394
-0.032578953 0.042479128 0.17960717
-0.032911345 0.040201765 0.18141502
-0.033314575 0.037596092 0.18321785
-0.033717804 0.035238914 0.18539478
-0.034084041 0.032706171 0.18760478
-0.034285236 0.029355561 0.18936582
-0.034881093 0.026241075 0.19136864
-0.035206228 0.023219086 0.19378771
-0.035675246 0.020264713 0.19687857
-0.036088116 0.016940432 0.1998848
-0.036186405 0.01270613 0.20132011
-0.036107432 0.0085071148 0.20288558
-0.036563493 0.0048593995 0.20580491
-0.037616014 0.0016878886 0.21016602
-0.039236937 -0.00045468344 0.21453281
-0.039624035 -0.0032493388 0.21792497
-0.039879944 -0.0069272793 0.21996257
-0.039912425 -0.010862702 0.22002402
-0.040056486 -0.014730273 0.22183119
-0.04047846 -0.018485386 0.22388399
-0.041304283 -0.022131326 0.22652027
-0.029613443 0.042469732 0.18010479
-0.029802719 0.040305734 0.18201345
-0.03032084 0.037998971 0.18450591
-0.030725161 0.035434797 0.18644328
-0.031194346 0.032732297 0.18881498
-0.031456787 0.029686363 0.19052178
-0.031780526 0.02617896 0.19258976
-0.032085691 0.023165893 0.1946049
-0.032358356 0.020217726 0.19762881
-0.032748297 0.016657775 0.20039888
-0.032772951 0.012546709 0.20212269
-0.033062961 0.0089324256 0.2043969
-0.033617526 0.0055582277 0.20777684
-0.034388471 0.002391231 0.21170816
-0.035178605 -0.00040367927 0.21547088
-0.035978574 -0.003441104 0.21796936
-0.036387108 -0.0069626509 0.22037658
-0.036369443 -0.011139075 0.22124574
-0.036771312 -0.014951156 0.22338915
-0.03723165 -0.018365599 0.22398911
-0.037523799 -0.022152476 0.22611876
-0.026637463 0.042821199 0.18047705
-0.026916239 0.040292647 0.18248442
-0.027432011 0.038067784 0.18557572
-0.027813781 0.035623066 0.18788241
-0.028217759 0.032926328 0.18998282
-0.028410133 0.029714525 0.19127516
-0.028662905 0.026627585 0.19357632
-0.029143859 0.023412829 0.19631395
-0.029380638 0.020535152 0.19908316
-0.029588886 0.01675939 0.20147538
-0.029729491 0.012938495 0.20369783
-0.029954785 0.0090958215 0.20658933
-0.030624542 0.0059973188 0.21008682
-0.031057645 0.0027227129 0.21326426
-0.031490222 -0.00046662395 0.21623684
-0.032338098 -0.0034866403 0.21846358
-0.032906383 -0.0072947824 0.22142467
-0.033125617 -0.011102236 0.22286932
-0.033358589 -0.014887132 0.22455458
-0.033625919 -0.018452862 0.2252593
-0.034009375 -0.022488382 0.22772868
-0.023699222 0.04300449 0.18118599
-0.023997042 0.040411025 0.18277666
-0.024402222 0.038029648 0.18575646
-0.024734356 0.035700623 0.18834639
-0.024922056 0.033192161 0.19081832
-0.025282623 0.030198799 0.19245404
-0.025665613 0.027158793 0.19490908
-0.025999986 0.023940256 0.19775796
-0.026375374 0.020939875 0.2007326
-0.026417553 0.01757797 0.20309383
-0.026562279 0.013690064 0.20501101
-0.026800646 0.0098155178 0.20834151
-0.027104564 0.0065018241 0.2114379
-0.027558388 0.0030054508 0.21474786
-0.028227393 -0.00010130665 0.21795009
-0.028751085 -0.0036512283 0.22005114
-0.029079819 -0.0073119467 0.2223683
-0.029524837 -0.011246426 0.22356325
-0.030132156 -0.014981802 0.22542645
-0.030149689 -0.018980956 0.22713214
-0.030327164 -0.022882165 0.22906004
-0.030355029 -0.02697834 0.23102733
-0.020757141 0.043043859 0.18157642
-0.020871891 0.040572461 0.18325569
-0.021188747 0.037846278 0.18527341
-0.021419413 0.035646964 0.18847312
-0.02176892 0.033294603 0.19138154
-0.022107543 0.030520044 0.19407329
-0.022536149 0.027529128 0.19650002
-0.022772215 0.02413428 0.19908309
-0.023001485 0.021144614 0.20192476
-0.023128511 0.017850336 0.20434171
-0.023284853 0.014186843 0.20664775
-0.023439655 0.01054919 0.20982541
-0.023780702 0.0073374133 0.21312746
-0.024233889 0.0038603393 0.21655343
-0.024592647 0.00038948539 0.21909979
-0.02514144 -0.0036300707 0.22075438
-0.025608698 -0.0074897129 0.22347586
-0.025967348 -0.010925469 0.22344884
-0.026328104 -0.014751073 0.2255453
-0.02635951 -0.019071637 0.22790068
-0.026728738 -0.022633955 0.22927287
-0.02644679 -0.026883153 0.23094976
-0.017619396 0.043055438 0.18256372
-0.017624436 0.04059799 0.18429886
-0.01770102 0.037795745 0.18554382
-0.018012507 0.035455991 0.18862747
-0.018380273 0.033113159 0.19159746
-0.018718168 0.030502675 0.1940356
-0.019184548 0.027815744 0.19751623
-0.019520966 0.02419888 0.2002693
-0.019658979 0.021289289 0.20293318
-0.019733159 0.017856535 0.20563765
-0.019662198 0.014316862 0.20810059
-0.020089885 0.011090005 0.2115832
-0.020475406 0.0076371669 0.21437271
-0.020669118 0.0039505013 0.21741046
-0.02072935 0.00032793704 0.21917276
-0.021125849 -0.0036656067 0.22186419
-0.022229839 -0.0072002858 0.2245349
-0.022442246 -0.010524981 0.22463718
-0.022594791 -0.014634735 0.22614172
-0.022934711 -0.018785762 0.22776693
-0.022875771 -0.022391357 0.22821239
-0.022549104 -0.026518574 0.23138256
-0.014399623 0.040651418 0.18475319
-0.014506125 0.037963822 0.18659864
-0.014803451 0.035355043 0.18881033
-0.015137095 0.03314101 0.19199345
-0.015321669 0.030726271 0.19482006
-0.016277872 0.028422875 0.19854435
-0.016474111 0.024835553 0.20234872
-0.016588673 0.021628067 0.20474263
-0.016203351 0.017783536 0.20668203
-0.01625487 0.014480224 0.20897946
-0.0165505 0.011145521 0.21272902
-0.016885055 0.0077154697 0.21546943
-0.016926425 0.0038722935 0.217732
-0.01693804 0.00015937157 0.21977581
-0.017228426 -0.0034245043 0.22310495
-0.01863322 -0.0072385659 0.22591692
-0.018687004 -0.010645513 0.22618596
-0.018997816 -0.014572841 0.22753032
-0.019176567 -0.018893525 0.22816116
-0.01916736 -0.02242058 0.22861557
-0.018761339 -0.026522215 0.23353949
-0.011563992 0.038213305 0.18759336
-0.011547577 0.035661019 0.19006099
-0.011765342 0.033368804 0.19298775
-0.012400831 0.030926747 0.19626696
-0.013379459 0.02839398 0.19955149
-0.013546226 0.025508201 0.20347311
-0.013366234 0.021769097 0.20590474
-0.013223753 0.018012855 0.2083163
-0.013121744 0.014723063 0.21060407
-0.013158149 0.011211919 0.21365756
-0.01341912 0.0077036261 0.21611385
-0.013332562 0.0041494952 0.21793808
-0.013722122 0.00037933578 0.22071369
-0.014197821 -0.0033558221 0.22426486
-0.014543509 -0.0072230017 0.22683385
-0.014854239 -0.011423184 0.2292238
-0.015263284 -0.015216546 0.22949994
-0.015067332 -0.019123847 0.22961441
-0.015543616 -0.022945261 0.2310008
-0.014996963 -0.026333544 0.23709913
-0.0088460697 0.035918139 0.19102266
-0.0085975397 0.033750694 0.19429272
-0.0092133814 0.030932114 0.19769001
-0.010305455 0.028180797 0.20054744
-0.010618635 0.025737979 0.20406647
-0.010118828 0.022089934 0.20631012
-0.0099896062 0.018329559 0.20907974
-0.0097397501 0.014979859 0.21179859
-0.0095798308 0.011342006 0.21388988
-0.0098737059 0.0077470634 0.2172029
-0.010055656 0.0043333159 0.21955475
-0.0102933 0.00060070382 0.22224677
-0.010540636 -0.0034239527 0.22544234
-0.010683044 -0.0072809085 0.22829564
-0.010932085 -0.011454593 0.23044917
-0.011085148 -0.015135628 0.23149055
-0.011553882 -0.019275993 0.23301828
-0.011914486 -0.023291456 0.23586459
-0.011770572 -0.026122576 0.23965307
-0.0054916074 0.034533542 0.19670637
-0.0060365321 0.031156834 0.19955823
-0.0072189262 0.028592935 0.20259689
-0.0075719212 0.02573866 0.20499605
-0.0068909544 0.02218773 0.20683488
-0.0065853153 0.018440664 0.20974447
-0.0062598307 0.015054673 0.21227047
-0.0059816623 0.011590947 0.21445069
-0.0062266896 0.0080055501 0.21723998
-0.0063732746 0.0044459035 0.22026271
-0.0066128252 0.00064900558 0.22297621
-0.0067809154 -0.0033636624 0.22571287
-0.0069073318 -0.0072211553 0.22826035
-0.0069540259 -0.011164912 0.23015052
-0.0071169534 -0.015104998 0.2315246
-0.0076483325 -0.019238906 0.23440675
-0.008322469 -0.023341941 0.2367526
-0.0026614796 0.031510968 0.20014399
-0.003678787 0.028295141 0.20289616
-0.0046854676 0.025594762 0.20475991
-0.0033354976 0.022312332 0.20669611
-0.0030480402 0.01866015 0.21007484
-0.002775477 0.015191737 0.21276842
-0.0024677122 0.011626222 0.21517044
-0.0025679439 0.0080654277 0.21766031
-0.0026527033 0.0044768015 0.21995412
-0.0030322433 0.00060892268 0.22388643
-0.0029658214 -0.0032297692 0.22564995
-0.0030208651 -0.0071082874 0.2281456
-0.0030830067 -0.011003443 0.22931448
-0.0035629773 -0.014854223 0.23138556
1.3010741e-05 0.031232014 0.20157525
-0.00026782657 0.02778722 0.20320182
-0.00078470889 0.024089204 0.20438068
0.00024836382 0.022572726 0.20618115
0.00028899379 0.018974299 0.20910019
0.0010279962 0.015048187 0.21144485
0.0011862657 0.01164515 0.21459261
0.0010279018 0.008018231 0.21761376
0.0011118307 0.0042947792 0.21914212
0.00095126551 0.00061809958 0.22299306
0.00079937547 -0.0030697179 0.2250986
0.00079148181 -0.0067914557 0.2277035
0.003158448 0.02789144 0.20384167
0.0028645433 0.022991212 0.20380385
0.0036831254 0.023049073 0.20591913
0.0041843248 0.018794565 0.20812792
0.0048397901 0.015163923 0.21103652
0.0049675619 0.011634246 0.21349274
0.0041876631 0.0080249095 0.21750179
0 0 0 1 0 0 0 1 0 0 0 1 0 0 0 0 0 336 1 0 0
