ply
format ascii 1.0
comment PCL generated
element vertex 336
property float x
property float y
property float z
element camera 1
property float view_px
property float view_py
property float view_pz
property float x_axisx
property float x_axisy
property float x_axisz
property float y_axisx
property float y_axisy
property float y_axisz
property float z_axisx
property float z_axisy
property float z_axisz
property float focal
property float scalex
property float scaley
property float centerx
property float centery
property int viewportx
property int viewporty
property float k1
property float k2
end_header
-0.055350028 0.031195747 0.1860972
-0.056152489 0.028315984 0.18740895
-0.056702379 0.025382401 0.18966031
-0.057487059 0.022249253 0.19187982
-0.057864904 0.018953767 0.19346875
-0.051405575 0.033541705 0.18263015
-0.051902592 0.031079186 0.18433781
-0.05243304 0.028285485 0.18563837
-0.053269662 0.025461691 0.18781249
-0.053936839 0.022367505 0.19061477
-0.054787498 0.018742183 0.19290479
-0.055197019 0.015412544 0.19429243
-0.056215771 0.011937975 0.19622958
-0.047993407 0.03558787 0.18010926
-0.048217241 0.032936517 0.18127923
-0.048734147 0.030433169 0.18320106
-0.049353804 0.028026326 0.18530786
-0.050221033 0.025340542 0.18820149
-0.050705727 0.022373544 0.19050439
-0.051411424 0.018706052 0.19227964
-0.052160777 0.015199061 0.19483465
-0.053821936 0.011104287 0.19902873
-0.054464884 0.0068894541 0.20158413
-0.05444454 0.0026071763 0.20216946
-0.045039263 0.038353529 0.17870551
-0.044878833 0.035530426 0.1796733
-0.045085192 0.032705851 0.18121666
-0.045737151 0.030236596 0.18363135
-0.046433989 0.027940612 0.18583646
-0.04720125 0.025336491 0.18871234
-0.047733266 0.022213329 0.19060861
-0.048438318 0.018613094 0.19234408
-0.049334262 0.015060347 0.19556077
-0.050285351 0.0093670962 0.19946314
-0.050215755 0.0039871666 0.20017488
-0.050577484 0.00063019543 0.20311677
-0.052619543 -0.00032884721 0.20795797
-0.053002361 -0.0023671209 0.21085544
-0.041812923 0.041263733 0.17808445
-0.042132739 0.038861096 0.17937282
-0.042140819 0.036105432 0.18060468
-0.042489409 0.032984696 0.18238191
-0.042977657 0.030473458 0.18505597
-0.043684199 0.02821297 0.18682307
-0.044218563 0.025407899 0.18926165
-0.044626687 0.022127407 0.19050226
-0.045213345 0.018452611 0.1926198
-0.04576809 0.014136466 0.19562727
-0.045524705 0.0077361902 0.19792309
-0.045376927 0.0029355451 0.19807824
-0.045302078 -0.0016924932 0.19943053
-0.049390834 0.00023741581 0.20871812
-0.049931299 -0.0025087416 0.21150097
-0.049944621 -0.0056142872 0.21454629
-0.049991574 -0.0084985262 0.21685934
-0.049698554 -0.011425515 0.21949342
-0.039239362 0.041890342 0.17901824
-0.039280038 0.039408084 0.18035214
-0.039410539 0.036524951 0.18151984
-0.039700098 0.033659864 0.18359567
-0.040133946 0.030679801 0.18579239
-0.040700529 0.028266907 0.18775238
-0.041138761 0.025471929 0.18961279
-0.041457798 0.022296241 0.19052686
-0.041921455 0.018721787 0.19280882
-0.042314533 0.014329487 0.19570252
-0.042012386 0.00865913 0.19741878
-0.041406728 0.0040829093 0.19737467
-0.041211385 -0.00038494318 0.19798458
-0.045694791 -2.0321977e-05 0.20757417
-0.046263609 -0.0024356714 0.21171775
-0.046541311 -0.0053510354 0.21481569
-0.046555407 -0.0085763652 0.2169829
-0.046555895 -0.011851879 0.2193772
-0.046651222 -0.015829111 0.2213833
-0.046068698 -0.019499969 0.223554
-0.036443345 0.042492982 0.1801386
-0.036477067 0.039785802 0.18138218
-0.036441319 0.037067842 0.18230726
-0.036715318 0.034081787 0.18453655
-0.03699426 0.031056162 0.18662429
-0.037649531 0.028470956 0.18814209
-0.038124502 0.025670761 0.19028518
-0.038437132 0.022507742 0.19200696
-0.038872022 0.018861817 0.19405083
-0.039178662 0.014696337 0.19615535
-0.038971502 0.0095734121 0.19786406
-0.038404077 0.0052756025 0.19819927
-0.038157534 0.0012219402 0.19965631
-0.040599093 -0.0011064707 0.20603938
-0.042582892 -0.0024312646 0.21122962
-0.042933498 -0.0052105119 0.21490768
-0.04291828 -0.0085308943 0.21750042
-0.042983111 -0.012226176 0.21855102
-0.042866345 -0.016215552 0.21978019
-0.042208374 -0.019535925 0.22184823
-0.042790685 -0.022415392 0.22498536
-0.033474158 0.042773735 0.18082514
-0.033471812 0.040124111 0.18195529
-0.033480089 0.037152667 0.18299983
-0.033601601 0.034338031 0.18465197
-0.033923246 0.031771753 0.18684052
-0.034532417 0.028959509 0.18935153
-0.035350945 0.026074134 0.19165862
-0.035719473 0.022979727 0.19403304
-0.036075301 0.01913026 0.19621877
-0.036496479 0.01478676 0.19796309
-0.036036965 0.010391976 0.19885319
-0.035548113 0.006127412 0.2000137
-0.035839763 0.0023385035 0.20269975
-0.037276119 -0.0004560822 0.20726323
-0.038904317 -0.0024862231 0.21159817
-0.039107796 -0.0051140669 0.21519056
-0.03922059 -0.0087736882 0.2173489
-0.038969714 -0.012761596 0.2173208
-0.038792007 -0.016467694 0.21933885
-0.039122798 -0.019598842 0.22171755
-0.040564485 -0.022521548 0.22498904
-0.030347157 0.042952869 0.18120436
-0.030288359 0.040380009 0.18251812
-0.030543623 0.037557092 0.1844423
-0.030675894 0.034703363 0.18607087
-0.031108541 0.032022551 0.18837836
-0.031418432 0.029233223 0.19040947
-0.032190491 0.026189024 0.19308311
-0.032759625 0.023191471 0.19526187
-0.033042241 0.019764544 0.19781138
-0.033389438 0.015162774 0.19938624
-0.032897696 0.010727823 0.20040122
-0.032763936 0.0067798211 0.20191357
-0.033168267 0.003295952 0.20492169
-0.034094673 0.00046284869 0.20889948
-0.034855317 -0.0021917876 0.21261382
-0.035471588 -0.0052680392 0.21504936
-0.035696436 -0.0087013813 0.21778139
-0.035381105 -0.012704425 0.21871227
-0.035564244 -0.016237294 0.2209274
-0.035923246 -0.01940172 0.22208671
-0.036759283 -0.022560058 0.22523719
-0.026663819 0.043073058 0.18127079
-0.026819924 0.040274285 0.18288526
-0.027447233 0.037764937 0.18561195
-0.027801249 0.035211951 0.18774439
-0.02819836 0.03245097 0.18984441
-0.028459504 0.029415753 0.19138221
-0.028910905 0.026431661 0.19382377
-0.029684301 0.023326304 0.19677049
-0.029948046 0.020236485 0.19926947
-0.030222595 0.015743166 0.20087774
-0.029976118 0.011437811 0.20222355
-0.029791659 0.0071969219 0.20418704
-0.030181881 0.0039451243 0.20703755
-0.030718096 0.00081814791 0.21034524
-0.031139864 -0.0021854693 0.21320109
-0.031839766 -0.0052328873 0.21553327
-0.03220259 -0.0087729115 0.21870272
-0.032292321 -0.012333638 0.22060484
-0.032398757 -0.015721001 0.22282125
-0.032728512 -0.018954638 0.22405128
-0.033581208 -0.022499721 0.22729374
-0.023598658 0.043332778 0.18211688
-0.023889456 0.040561661 0.18339385
-0.024364972 0.037904676 0.18604526
-0.024731625 0.035451319 0.18846934
-0.024924308 0.032810416 0.1908026
-0.025328547 0.029902227 0.19256927
-0.02585382 0.026877752 0.19496715
-0.0264214 0.023673194 0.1979531
-0.026736917 0.020312635 0.2005008
-0.02669866 0.016596468 0.202273
-0.026726164 0.012356079 0.20361952
-0.026524905 0.0079501616 0.20592292
-0.026694475 0.0044993749 0.20854202
-0.027148817 0.0011653136 0.21201624
-0.02778236 -0.0017913093 0.21473503
-0.028227136 -0.0050204555 0.2169735
-0.028461235 -0.0084164012 0.21973039
-0.028779013 -0.012190066 0.22137021
-0.029527066 -0.015117609 0.22494024
-0.029772541 -0.0189023 0.2270433
-0.030140892 -0.022713238 0.22934559
-0.030437063 -0.026409455 0.23187101
-0.020646237 0.043423515 0.18263529
-0.020723512 0.040852785 0.18408479
-0.021048903 0.037955824 0.18580088
-0.02136741 0.035606388 0.18886952
-0.021717878 0.033151016 0.19162683
-0.02210841 0.030252365 0.19416705
-0.022728857 0.027267387 0.19656856
-0.02334003 0.024013152 0.1993798
-0.02347151 0.02061758 0.20176125
-0.023404183 0.016927842 0.20354682
-0.023283577 0.012869402 0.20510814
-0.022930069 0.008678494 0.20730798
-0.023148896 0.005344891 0.21025291
-0.023863794 0.0021830539 0.21356802
-0.024392007 -0.00095622084 0.21624382
-0.024756279 -0.00472268 0.21816918
-0.025108838 -0.0082577122 0.22112738
-0.025246374 -0.01168821 0.22202955
-0.025734412 -0.014924094 0.22555663
-0.026136911 -0.01898035 0.22847378
-0.026611725 -0.022345981 0.2301033
-0.026531257 -0.02641635 0.23222224
-0.017352453 0.043337192 0.18353753
-0.017295968 0.040814478 0.18506595
-0.017414408 0.037975777 0.18619794
-0.017773747 0.035540279 0.18933371
-0.018260205 0.033247601 0.19218832
-0.018752305 0.030483542 0.19448592
-0.019457547 0.027810805 0.19786793
-0.0202237 0.024030225 0.2006216
-0.020313693 0.020906951 0.20290916
-0.019942127 0.017027002 0.20488085
-0.019488724 0.013070673 0.20662099
-0.019498998 0.0094933389 0.20945549
-0.020003917 0.005883941 0.21211661
-0.020472607 0.0026204588 0.21521783
-0.020800676 -0.00071766682 0.21744056
-0.021240734 -0.0043141376 0.22004412
-0.021706359 -0.0077573229 0.2228788
-0.02185099 -0.011191578 0.2238631
-0.022215188 -0.014907885 0.22634824
-0.022831472 -0.018654425 0.22885539
-0.022697516 -0.02222177 0.22943982
-0.022630261 -0.026178867 0.23289518
-0.013964732 0.040742584 0.18557316
-0.014185796 0.038014092 0.18741813
-0.014581013 0.035459559 0.1896604
-0.015067222 0.03319101 0.19279821
-0.01531441 0.030502981 0.19534698
-0.016579289 0.027979737 0.19891424
-0.017092144 0.024278959 0.20265265
-0.017397029 0.021053957 0.20478471
-0.01620217 0.016933199 0.2058855
-0.016055761 0.013505145 0.20780285
-0.016202016 0.010002673 0.21136895
-0.016767979 0.0065407078 0.21388289
-0.017000871 0.0029469384 0.2164553
-0.017192753 -0.00046645981 0.21890934
-0.017711528 -0.0035167146 0.22326235
-0.018387999 -0.0075732726 0.22575514
-0.018427374 -0.011051252 0.22587922
-0.018838052 -0.014683444 0.22779757
-0.019262882 -0.018832404 0.22957988
-0.019188402 -0.022249026 0.23040302
-0.018999072 -0.026086995 0.23522742
-0.011306028 0.038250618 0.18851455
-0.011380768 0.035519239 0.19085215
-0.011599567 0.033013813 0.19372998
-0.012210687 0.03019524 0.19660895
-0.013764953 0.027483201 0.19983576
-0.014075845 0.024457883 0.20373893
-0.01390259 0.020959636 0.2056165
-0.013266223 0.017236261 0.20759861
-0.01300931 0.01385839 0.2097556
-0.013041967 0.010426554 0.21291812
-0.01350271 0.0069517437 0.21527207
-0.013518333 0.0035393434 0.21738857
-0.014126879 -0.00015746191 0.22014718
-0.01439934 -0.0035691576 0.22475581
-0.014553797 -0.0076440969 0.2272142
-0.014748603 -0.011966419 0.22903246
-0.01522846 -0.015321357 0.22978823
-0.015267348 -0.01905212 0.23071155
-0.015693733 -0.022574976 0.23323075
-0.01551067 -0.025998153 0.23848379
-0.0086041624 0.035620604 0.19165806
-0.0083878413 0.033194669 0.19493994
-0.009119655 0.029721597 0.19803733
-0.010811315 0.026727224 0.2008533
-0.011202436 0.024420734 0.20404349
-0.01060224 0.021441637 0.20612155
-0.010128831 0.017716093 0.20863692
-0.0098087844 0.014270341 0.21133035
-0.0096239764 0.010784061 0.21362507
-0.010040137 0.0071083228 0.21684657
-0.010347374 0.0036599177 0.21904996
-0.010611363 -0.00011252306 0.22165151
-0.010586056 -0.0038923209 0.22530644
-0.010554213 -0.0079805069 0.22796591
-0.01080193 -0.012121233 0.22982301
-0.011067261 -0.015691144 0.23103632
-0.011597063 -0.019677198 0.23265515
-0.011904425 -0.023664422 0.23572487
-0.011563104 -0.026493063 0.23952265
-0.0051061232 0.033573911 0.19724776
-0.0059443433 0.029572016 0.19978577
-0.0076138 0.026675818 0.20275246
-0.0083064912 0.024299024 0.20483987
-0.0073598241 0.021790069 0.20674801
-0.0067708548 0.01801729 0.20962843
-0.0063982522 0.014603109 0.21219805
-0.0061606267 0.011279632 0.21467675
-0.0064815641 0.0075465473 0.21718138
-0.006676835 0.0038309912 0.21987814
-0.0068928283 -4.4594173e-05 0.22237846
-0.0068463325 -0.0040692599 0.22485602
-0.0068852403 -0.0080497162 0.22734644
-0.0069701672 -0.011933533 0.22929561
-0.0071690623 -0.015815048 0.23068036
-0.0076404414 -0.019894471 0.23366697
-0.0083225537 -0.02392007 0.236371
-0.00245074 0.029771738 0.20036478
-0.004030637 0.026095524 0.20305085
-0.0054757437 0.024150506 0.2049154
-0.0038417857 0.022363123 0.20684333
-0.0033043346 0.018443691 0.21021657
-0.0030102832 0.01498164 0.21312967
-0.0027650471 0.011446909 0.2156495
-0.0027959261 0.0076221856 0.21776292
-0.0028460112 0.0038933556 0.21968354
-0.0031673203 -0.00019565968 0.22296171
-0.0030416748 -0.0042510377 0.22423847
-0.0030967647 -0.0082287062 0.2266562
-0.0031965396 -0.0119225 0.22806059
-0.0036018393 -0.015709553 0.23023064
0.00020050551 0.029199257 0.2016646
-0.00062711007 0.025347512 0.20341095
-0.0018950133 0.023727085 0.20504189
-0.00028740981 0.02291861 0.2066668
-1.8448258e-05 0.019019224 0.20952231
0.00088750676 0.015156794 0.21235378
0.001059962 0.011407193 0.21498534
0.00089206337 0.0075173303 0.21758685
0.00098361622 0.003718039 0.2188019
0.00081537798 -0.000275926 0.22196364
0.00066466787 -0.0041908948 0.22355418
0.00067162979 -0.0081012817 0.22580399
0.0028079483 0.025126489 0.20394468
0.0021158566 0.023018744 0.20481974
0.0030318913 0.023582591 0.20675941
0.0039752913 0.019226247 0.20907211
0.0048161708 0.015088501 0.21156184
0.0049400176 0.011301291 0.21367863
0.0040600663 0.0075220182 0.2173814
0 0 0 1 0 0 0 1 0 0 0 1 0 0 0 0 0 336 1 0 0
