ply
format ascii 1.0
comment PCL generated
element vertex 336
property float x
property float y
property float z
element camera 1
property float view_px
property float view_py
property float view_pz
property float x_axisx
property float x_axisy
property float x_axisz
property float y_axisx
property float y_axisy
property float y_axisz
property float z_axisx
property float z_axisy
property float z_axisz
property float focal
property float scalex
property float scaley
property float centerx
property float centery
property int viewportx
property int viewporty
property float k1
property float k2
end_header
-0.055455569 0.029394276 0.18757136
-0.056292858 0.026789326 0.18894647
-0.056751531 0.023809576 0.19073664
-0.057600122 0.020709615 0.19263247
-0.058301695 0.01753143 0.19407028
-0.051824946 0.031771742 0.18497454
-0.052105024 0.029444903 0.18614902
-0.052587532 0.026716536 0.18734488
-0.053355485 0.024059605 0.18938875
-0.053920168 0.020865405 0.19192673
-0.054981057 0.017419642 0.19394909
-0.0557146 0.01428766 0.19593629
-0.057047933 0.011325101 0.19818603
-0.048594013 0.033515465 0.18230075
-0.048786461 0.031388171 0.18361902
-0.049128555 0.0288286 0.18527652
-0.049454205 0.026496863 0.18702123
-0.050223727 0.023866449 0.18969144
-0.050668985 0.020867499 0.19199517
-0.051667377 0.01765006 0.19421671
-0.052703023 0.014469699 0.19706984
-0.054981269 0.010078711 0.20070609
-0.056230694 0.0059368145 0.20382158
-0.055832971 0.001885243 0.20411173
-0.046130776 0.035769731 0.17992522
-0.045717403 0.033393055 0.18125911
-0.045693845 0.031093871 0.18327768
-0.046117704 0.028548583 0.18552852
-0.046703052 0.026222715 0.1875087
-0.04721025 0.023813603 0.19015974
-0.047696754 0.020956282 0.1922304
-0.048861191 0.017950671 0.19497418
-0.050050974 0.014678278 0.19817539
-0.051511962 0.0080170166 0.20052542
-0.051749524 0.0027123981 0.20047468
-0.050966736 -7.8194185e-05 0.20222731
-0.052457646 -0.0032264641 0.203116
-0.053381883 -0.005061863 0.20761529
-0.043187339 0.038493704 0.1784035
-0.043287132 0.036266487 0.1798249
-0.043033361 0.033804879 0.18139338
-0.043121718 0.031317897 0.18409407
-0.043372225 0.028623449 0.18656975
-0.043900564 0.026365621 0.1879676
-0.044462357 0.023801379 0.19042295
-0.044931136 0.020969383 0.19241835
-0.04566028 0.017721666 0.19518465
-0.046302952 0.013705512 0.19841188
-0.046065763 0.0073236255 0.19760391
-0.046028744 0.0029581105 0.19532822
-0.046429668 -0.0019795122 0.1987152
-0.049592212 -0.002755498 0.2037745
-0.050549865 -0.0049725338 0.20858403
-0.05091954 -0.0067805313 0.21263634
-0.05119225 -0.0083454968 0.21611036
-0.050994702 -0.0094220564 0.22023055
-0.040547181 0.039112799 0.17876476
-0.040191792 0.036951099 0.18026917
-0.040170148 0.034371488 0.18180378
-0.040309776 0.031956751 0.18437193
-0.040645611 0.028999975 0.18712109
-0.041168205 0.02636903 0.18866208
-0.041461077 0.023666937 0.19060363
-0.04186099 0.020817535 0.19220205
-0.042272922 0.017712975 0.1949525
-0.042567916 0.014067473 0.19856176
-0.042491168 0.0081633413 0.19773959
-0.042025711 0.0041155792 0.19614995
-0.041765921 -0.00014321299 0.19515796
-0.045674093 -0.0032882809 0.20289786
-0.046927039 -0.0047978396 0.20901123
-0.047574613 -0.0065307207 0.21302491
-0.047844321 -0.0083757658 0.2166304
-0.047862474 -0.0096445223 0.22074322
-0.048141986 -0.012869733 0.22413377
-0.047747187 -0.016518548 0.2265677
-0.037679564 0.039972283 0.17921665
-0.037401292 0.037684113 0.18079118
-0.037272949 0.035206247 0.18225166
-0.037210651 0.032658257 0.18475731
-0.037407309 0.029747514 0.18755148
-0.038320642 0.026686624 0.18900551
-0.038604137 0.023941474 0.19105293
-0.038848497 0.020893354 0.19301413
-0.039157905 0.017823795 0.19584584
-0.039892565 0.014180641 0.19865856
-0.039710365 0.008948829 0.19894552
-0.039161533 0.0049182619 0.19795989
-0.038825102 0.00090701872 0.19855706
-0.041058637 -0.0029309837 0.20487876
-0.043195717 -0.0050446331 0.20903331
-0.043870334 -0.0064587407 0.21323352
-0.044152755 -0.00800223 0.217447
-0.044336487 -0.01018556 0.22099304
-0.044520527 -0.014011619 0.22324622
-0.043418396 -0.018176591 0.22396609
-0.043719985 -0.021800507 0.22555095
-0.034657165 0.040506586 0.1796729
-0.034320213 0.03818281 0.18134728
-0.034311209 0.035697047 0.18295176
-0.03426348 0.033340249 0.18505001
-0.034304403 0.031361915 0.18773869
-0.034981158 0.027628053 0.18991072
-0.035712462 0.024207233 0.19197851
-0.035920598 0.021243386 0.19426088
-0.036277831 0.0179042 0.19705074
-0.037062824 0.014014859 0.19944459
-0.036872849 0.0096538831 0.20017001
-0.036347054 0.0055807061 0.20020404
-0.03682211 0.001623798 0.20290713
-0.038214765 -0.0018818516 0.20675577
-0.039475486 -0.0047599091 0.20989418
-0.040191084 -0.0063090823 0.21383867
-0.040498119 -0.0081072077 0.21791923
-0.040654097 -0.010701565 0.22084537
-0.04052446 -0.014660337 0.22211707
-0.040357001 -0.018875046 0.22273496
-0.041600376 -0.022521108 0.22502989
-0.031410847 0.040857352 0.18002735
-0.031181689 0.038633861 0.18177544
-0.031196488 0.036345068 0.18425007
-0.031238891 0.034101166 0.18651606
-0.031413216 0.031795066 0.18910277
-0.031700876 0.029051689 0.19084252
-0.032373801 0.024964197 0.19282041
-0.032822482 0.021710502 0.19519179
-0.033017348 0.018544134 0.19807506
-0.033820041 0.013993141 0.19999765
-0.033700351 0.009977784 0.20107445
-0.033648331 0.006160304 0.20230143
-0.034255989 0.0025692163 0.20498189
-0.035052396 -0.00074892765 0.20816965
-0.035894681 -0.0035777471 0.21177675
-0.036626827 -0.0060607661 0.21482538
-0.037188623 -0.0085344138 0.21865217
-0.037095476 -0.011732652 0.22067377
-0.036960457 -0.015604763 0.22175969
-0.037413087 -0.019149639 0.22226307
-0.037851099 -0.022897143 0.22487083
-0.026697477 0.041533154 0.18098488
-0.027006676 0.039082684 0.18292016
-0.027756371 0.036908332 0.18574801
-0.028148014 0.034599978 0.18790746
-0.028474549 0.032018691 0.18994226
-0.02871844 0.028998548 0.1914698
-0.029111233 0.025593454 0.19350113
-0.029712854 0.021967519 0.19617771
-0.02986002 0.019168219 0.19895926
-0.031007621 0.015044497 0.20125867
-0.030850973 0.010801766 0.20276424
-0.030802161 0.0065993369 0.20463356
-0.031350613 0.0032788599 0.20691842
-0.031759478 -0.00018091897 0.20999643
-0.032255583 -0.0033129153 0.21278185
-0.033177141 -0.0058740154 0.21586193
-0.033708513 -0.0087576304 0.21927452
-0.033651724 -0.012347512 0.22139022
-0.033501051 -0.016055208 0.22255968
-0.033867575 -0.019399837 0.2233966
-0.034435026 -0.023084365 0.22610044
-0.023575433 0.041946184 0.18187602
-0.023949742 0.039334074 0.18343624
-0.024511566 0.036893852 0.18600048
-0.024904747 0.034596805 0.18842487
-0.025133859 0.032033976 0.19069329
-0.025538929 0.029263733 0.19249988
-0.026035145 0.025990941 0.19450875
-0.026371811 0.022539912 0.19740225
-0.026762202 0.019580239 0.20031145
-0.027121261 0.016106423 0.20245332
-0.027715307 0.011992507 0.20434235
-0.027906669 0.007643213 0.20666109
-0.028140096 0.0042882818 0.20909753
-0.028465791 0.00044832367 0.21201248
-0.028990341 -0.0025973448 0.21463566
-0.029684201 -0.005796114 0.2172813
-0.029835999 -0.0091094803 0.21996245
-0.030119427 -0.012792984 0.2215611
-0.030069912 -0.01659511 0.22338144
-0.030619672 -0.02034222 0.22561441
-0.030961454 -0.02372984 0.22762567
-0.031250395 -0.027537348 0.22995493
-0.020569544 0.042054292 0.18254109
-0.020812245 0.03967163 0.18410476
-0.02118942 0.036894739 0.18584101
-0.021413052 0.034469731 0.1887619
-0.021313667 0.032039177 0.19167461
-0.02145558 0.02941023 0.19418435
-0.022332272 0.026512912 0.19626047
-0.023187978 0.023241438 0.19930993
-0.023543157 0.020010201 0.20174623
-0.02375214 0.016489644 0.20382451
-0.024252426 0.012731303 0.2058119
-0.024424328 0.0089658536 0.20877875
-0.024710853 0.0055670468 0.21149519
-0.025146911 0.0018353735 0.21432547
-0.025690805 -0.001538433 0.21627128
-0.02595068 -0.0057896655 0.21818522
-0.026436955 -0.0095329136 0.22070837
-0.026210802 -0.013495191 0.22130416
-0.026620485 -0.016817812 0.22455299
-0.027145768 -0.020580553 0.22693416
-0.02766154 -0.023268931 0.22814518
-0.027504267 -0.027475148 0.23039766
-0.017503748 0.042192616 0.18371962
-0.017447826 0.039869133 0.18530576
-0.0174632 0.037221558 0.18645832
-0.01748665 0.034558889 0.18941218
-0.01754003 0.032145027 0.19230905
-0.017937841 0.029474899 0.19468194
-0.018377759 0.026908951 0.19814971
-0.02006593 0.023431577 0.20100048
-0.02035312 0.020409044 0.20304874
-0.020393563 0.016698796 0.20523317
-0.020172374 0.013067102 0.20745602
-0.020523416 0.0098478245 0.21058789
-0.021162795 0.0062072906 0.21331006
-0.021636955 0.0026032121 0.21601193
-0.021869371 -0.00092938391 0.2178441
-0.022349192 -0.0053930124 0.21977864
-0.022547131 -0.0097809136 0.22149557
-0.022602305 -0.01349174 0.2231089
-0.023613039 -0.016902719 0.22586627
-0.024315573 -0.020195121 0.22728443
-0.02415424 -0.022774618 0.22732928
-0.023730176 -0.026874591 0.23075502
-0.014084539 0.040272739 0.1860227
-0.014116764 0.037405565 0.18765523
-0.014336126 0.034719676 0.1897085
-0.014119168 0.032186132 0.19287942
-0.013930144 0.029470662 0.19547732
-0.015388682 0.026984803 0.19915509
-0.016809922 0.023635874 0.20294045
-0.017491996 0.020513162 0.20491645
-0.016434841 0.01693874 0.20676157
-0.016338293 0.013606349 0.20882866
-0.016753452 0.0099101271 0.21213403
-0.017528957 0.0065709455 0.21462648
-0.017959155 0.0029194928 0.21707806
-0.018208776 -0.00061034691 0.21918643
-0.018470891 -0.0052712853 0.22184628
-0.018981161 -0.010145438 0.22423249
-0.019247951 -0.013275376 0.22513029
-0.020293903 -0.016644932 0.22694179
-0.021074312 -0.020358643 0.22781433
-0.02098657 -0.023021437 0.22820705
-0.020124994 -0.02683186 0.23275597
-0.011007042 0.037610494 0.18877481
-0.010586221 0.034631729 0.19096647
-0.010443583 0.032053161 0.19367446
-0.01085964 0.029323921 0.19655535
-0.012497841 0.026608698 0.19981498
-0.013665359 0.023694767 0.20396924
-0.013987055 0.020753611 0.20610392
-0.01329894 0.016980909 0.20842601
-0.013300339 0.013694745 0.2106601
-0.013331238 0.0099461311 0.21307655
-0.014128059 0.0065471088 0.21548951
-0.014248399 0.0031678095 0.21773341
-0.014807195 -0.00058899913 0.22017658
-0.015258124 -0.0056385314 0.22378856
-0.015664654 -0.0099658966 0.22619367
-0.015912415 -0.014204579 0.22783868
-0.01661572 -0.017499782 0.22840223
-0.016966738 -0.021139117 0.22901677
-0.017552488 -0.02359806 0.23078808
-0.016769707 -0.026320517 0.23551559
-0.0079428684 0.034935754 0.19197811
-0.0072582331 0.032569159 0.19473872
-0.0077150404 0.029130038 0.19780639
-0.0093464321 0.026035646 0.20071468
-0.010658607 0.023760814 0.20426545
-0.010697012 0.020920042 0.20691913
-0.010233101 0.017066468 0.20950833
-0.010036398 0.013549864 0.21198529
-0.0098202992 0.0098559624 0.21369033
-0.010534631 0.0063227746 0.21695969
-0.010798193 0.0028722829 0.21913753
-0.011088315 -0.0010351845 0.2215478
-0.01138645 -0.0058025229 0.22480582
-0.011723303 -0.010143568 0.2271951
-0.012072318 -0.013784245 0.22882795
-0.012829926 -0.017266322 0.23090078
-0.013562276 -0.020895891 0.23258457
-0.014584199 -0.024314376 0.2358541
-0.014008562 -0.02736699 0.23819557
-0.0041438444 0.033104118 0.19668695
-0.0044569154 0.029230926 0.19913085
-0.0063880756 0.026034016 0.20222436
-0.0078861136 0.023484739 0.20500049
-0.0073442431 0.020812012 0.20745569
-0.0069167153 0.01699389 0.21023698
-0.0067546833 0.013424803 0.21250963
-0.0063364338 0.0099864276 0.214338
-0.0069122151 0.0064087347 0.21734639
-0.0072255167 0.0028757725 0.21965159
-0.0074968468 -0.0012458513 0.22209744
-0.007446738 -0.0058660656 0.22456443
-0.0078924559 -0.0099377101 0.22703351
-0.0082866428 -0.013553744 0.22897173
-0.0089857029 -0.017332919 0.23155132
-0.0098669175 -0.020906521 0.23423338
-0.011106339 -0.024671359 0.2373677
-0.0012139006 0.029594965 0.19950038
-0.0025064116 0.02611958 0.20243078
-0.0051804916 0.02319872 0.20514102
-0.0038102681 0.020797106 0.2072445
-0.0036466275 0.016960941 0.21026608
-0.0033810954 0.013342911 0.21281853
-0.0030175492 0.0099446187 0.21506611
-0.0031337847 0.0062342375 0.21753317
-0.0031196179 0.002657749 0.21929884
-0.0035675317 -0.0018416066 0.22267008
-0.0036175335 -0.0059726341 0.22393812
-0.0038774062 -0.0099563506 0.2264909
-0.0044427346 -0.013681216 0.22880456
-0.0053360127 -0.017260548 0.23147696
0.0013250686 0.02921625 0.20046048
0.00061737874 0.025220662 0.20239766
-0.0016251561 0.022424832 0.20519589
-9.7695753e-05 0.020954603 0.2063607
-0.00053978059 0.016932499 0.20922223
0.00069946202 0.012987776 0.21160577
0.00096435641 0.0098007079 0.2146347
0.0010851301 0.0059848726 0.21685459
0.0010950898 0.002185028 0.21861848
0.00050823641 -0.00193541 0.22174846
0.00017730524 -0.0058911033 0.22367038
4.2582928e-06 -0.0099202013 0.22607322
0.0035233092 0.02444276 0.20255059
0.0021757951 0.021188052 0.20448166
0.0031145152 0.021306802 0.20597549
0.0038301831 0.016221492 0.20854998
0.0049861744 0.013223453 0.21102475
0.0054857037 0.0097448351 0.21330589
0.004376343 0.0058398689 0.21711306
0 0 0 1 0 0 0 1 0 0 0 1 0 0 0 0 0 336 1 0 0
