ply
format ascii 1.0
comment created by PLYWriter
element vertex 760
property float x
property float y
property float z
element face 1516
property list uchar int vertex_indices
end_header
-0.057126667 0.031173123 0.18755704 
-0.057784934 0.028319063 0.18829532 
-0.05806484 0.025553811 0.18972722 
-0.058328032 0.022691496 0.19133754 
-0.05832647 0.019926919 0.19282326 
-0.05791577 0.016893616 0.19402874 
-0.053069815 0.033363905 0.18379691 
-0.054572377 0.030891579 0.18552777 
-0.054388296 0.027957259 0.186001 
-0.054806363 0.024901027 0.1874041 
-0.055247277 0.02223991 0.18943392 
-0.055553958 0.019480523 0.19177595 
-0.055581883 0.016487146 0.19309929 
-0.0556466 0.013501263 0.19416545 
-0.05529918 0.010063681 0.195533 
-0.048162695 0.03589384 0.17983893 
-0.049186084 0.033486973 0.18112555 
-0.050166417 0.030441793 0.1826672 
-0.050631005 0.027585898 0.18433613 
-0.051216383 0.024589183 0.18623446 
-0.0519472 0.021649998 0.18787396 
-0.052345034 0.019205412 0.19024056 
-0.052426793 0.016302641 0.19272536 
-0.05300567 0.012698927 0.19387642 
-0.053614046 0.008778615 0.196364 
-0.05360691 0.0054033822 0.19939849 
-0.05332871 0.001999037 0.20238921 
-0.04461493 0.038351573 0.1777337 
-0.045373917 0.03574743 0.17868698 
-0.04600109 0.033326026 0.18030044 
-0.046649583 0.030593982 0.18203516 
-0.04737337 0.027704904 0.18438989 
-0.047964666 0.024700744 0.18668106 
-0.04850145 0.021381434 0.18850057 
-0.049104903 0.018852655 0.19063821 
-0.049120415 0.01585052 0.19271651 
-0.049969792 0.012062077 0.19406387 
-0.050153602 0.007718374 0.19547221 
-0.050296314 0.0029904011 0.19851653 
-0.050523255 -0.00035580836 0.20310982 
-0.051616218 -0.0019786176 0.20790425 
-0.05205502 -0.0039930027 0.21180463 
-0.041210078 0.04080332 0.17701098 
-0.04220048 0.03882315 0.1778583 
-0.042513512 0.036200102 0.17912562 
-0.042991314 0.033911776 0.18069129 
-0.04369705 0.030951716 0.18268435 
-0.043969523 0.027647413 0.18493097 
-0.044396102 0.024421556 0.18686417 
-0.04508475 0.021180509 0.18868482 
-0.045753438 0.018035742 0.1902829 
-0.045932807 0.015262653 0.19243477 
-0.04623719 0.009380299 0.19361933 
-0.04675351 0.0047057043 0.19447447 
-0.04628632 -0.00023614292 0.19794303 
-0.047061965 -0.0019600303 0.20353658 
-0.04835824 -0.003546832 0.20803992 
-0.0498857 -0.0048536486 0.2120719 
-0.05022888 -0.006441755 0.21565507 
-0.05086267 -0.008781551 0.21888301 
-0.038784154 0.041528326 0.17676452 
-0.039318487 0.039069932 0.17866111 
-0.039683633 0.036401942 0.18000562 
-0.040261418 0.033952225 0.18163985 
-0.04052209 0.030686747 0.18356039 
-0.04090512 0.026754888 0.18523702 
-0.04138969 0.023974735 0.18740183 
-0.04201553 0.021113126 0.18904147 
-0.0424325 0.018000983 0.19054313 
-0.04308154 0.014254009 0.19264832 
-0.04264982 0.008709782 0.19409496 
-0.04140234 -0.0015724885 0.19393271 
-0.039218172 -0.0059724892 0.19693916 
-0.043713186 -0.0041879257 0.20494865 
-0.045444004 -0.0054520834 0.20938575 
-0.046706107 -0.0054029915 0.2132636 
-0.047285706 -0.0070779524 0.21661156 
-0.049094904 -0.009427548 0.22011527 
-0.048723698 -0.012674839 0.22311535 
-0.048061617 -0.016288508 0.22432436 
-0.035624973 0.043427013 0.1756271 
-0.036267374 0.042127635 0.17731763 
-0.036433984 0.039444022 0.17914976 
-0.03688536 0.03658905 0.18059179 
-0.037337303 0.03414528 0.18257996 
-0.03754413 0.030683387 0.18444857 
-0.037813336 0.027089521 0.18605003 
-0.038518272 0.024325727 0.1885131 
-0.03900187 0.020963825 0.18979779 
-0.039274763 0.017647335 0.1910467 
-0.039162744 0.01251728 0.19347632 
-0.03927018 0.0076590045 0.19534482 
-0.038195353 -0.00039272223 0.19636217 
-0.036525797 -0.004872299 0.19895634 
-0.04041572 -0.004430492 0.20670092 
-0.04290207 -0.0049364627 0.2117451 
-0.044558544 -0.006422979 0.21578309 
-0.045152098 -0.008705651 0.21817708 
-0.045254663 -0.011370756 0.22012793 
-0.04506329 -0.015012706 0.22218338 
-0.045455266 -0.018392265 0.22625542 
-0.043521985 -0.021090208 0.22633663 
-0.032922667 0.043856103 0.17609157 
-0.03337927 0.042680547 0.17777692 
-0.033257168 0.03983533 0.17966364 
-0.0334558 0.037029266 0.18103167 
-0.033831146 0.034519758 0.18318233 
-0.034373842 0.030849649 0.18620837 
-0.034908686 0.027760977 0.18742454 
-0.035420768 0.024607988 0.18921588 
-0.03574823 0.020610617 0.19052932 
-0.03584848 0.017090848 0.19248949 
-0.03564788 0.011790704 0.19476785 
-0.035672136 0.008016811 0.19630617 
-0.035518378 0.0027393294 0.1994751 
-0.036488716 -0.0025354193 0.20360915 
-0.03847872 -0.004308472 0.20888488 
-0.04010489 -0.00420356 0.21378745 
-0.041025463 -0.006483881 0.21682002 
-0.04139849 -0.00914423 0.21858448 
-0.042234726 -0.012594492 0.22186737 
-0.041641377 -0.016418168 0.22197798 
-0.04120252 -0.019239867 0.22524148 
-0.040175345 -0.021551244 0.22607294 
-0.029918227 0.04395038 0.17673175 
-0.030169846 0.04258736 0.1781799 
-0.030375134 0.04017266 0.18017146 
-0.030412465 0.0376538 0.18235572 
-0.030773988 0.034590803 0.1844545 
-0.03134735 0.031097533 0.187293 
-0.031800438 0.028031824 0.18848318 
-0.032265168 0.024574744 0.19016188 
-0.032026388 0.020992357 0.1924548 
-0.03173078 0.01590887 0.19322595 
-0.032395083 0.012774391 0.19612975 
-0.03247971 0.0075519187 0.19832645 
-0.032175418 0.0033242693 0.20136191 
-0.032990675 -0.00021708463 0.2051286 
-0.0348328 -0.0023616217 0.21003665 
-0.03742392 -0.0040134992 0.21471076 
-0.037901536 -0.006865036 0.21757156 
-0.038273256 -0.009044561 0.2197008 
-0.038664624 -0.012603079 0.22150053 
-0.038434986 -0.016197309 0.22292194 
-0.03775996 -0.019669672 0.2240758 
-0.036239073 -0.021592261 0.22555114 
-0.026858365 0.044218283 0.1771068 
-0.027166625 0.04268387 0.17854394 
-0.02751104 0.040094316 0.18032314 
-0.027446723 0.037629314 0.18303838 
-0.027611097 0.03446515 0.18552154 
-0.028113319 0.031341106 0.18779574 
-0.028569285 0.02822222 0.18947853 
-0.028587507 0.02461764 0.1911678 
-0.028422996 0.020401416 0.19363636 
-0.028718613 0.015992556 0.1959812 
-0.029139545 0.012833592 0.19778068 
-0.02894685 0.009354845 0.1999979 
-0.029298216 0.005466054 0.20376611 
-0.030098224 0.0015944742 0.20715319 
-0.032222155 -0.0009644649 0.21178567 
-0.03351825 -0.0034185823 0.21515495 
-0.034110155 -0.0061149728 0.21859954 
-0.03501842 -0.008878453 0.2197578 
-0.035251547 -0.012689124 0.22197944 
-0.035254914 -0.016414925 0.22479059 
-0.033628605 -0.01879289 0.22536461 
-0.03303079 -0.021776116 0.22701661 
-0.023991825 0.044454407 0.17797142 
-0.024244057 0.04284427 0.17950056 
-0.024288021 0.040029675 0.18084416 
-0.02440268 0.03752709 0.18327175 
-0.024612093 0.034678243 0.1859936 
-0.024802066 0.031687927 0.18833496 
-0.025503997 0.028394595 0.19088769 
-0.025612086 0.02467079 0.19302352 
-0.025112063 0.020038 0.19545068 
-0.025371926 0.015674416 0.19779848 
-0.025212541 0.013173145 0.2004903 
-0.025422044 0.009504651 0.20260604 
-0.026725877 0.0066169538 0.20697886 
-0.027413204 0.0033086804 0.21018253 
-0.029073622 0.0006255364 0.21414697 
-0.029520147 -0.0028743567 0.21685658 
-0.030694697 -0.0066001764 0.21949057 
-0.031017885 -0.00951544 0.22103485 
-0.031438097 -0.012872381 0.22283608 
-0.03129518 -0.015827453 0.22471578 
-0.02991772 -0.01877195 0.22627166 
-0.030153165 -0.02254323 0.22787496 
-0.03039879 -0.024896363 0.2317035 
-0.020980312 0.04482001 0.17900927 
-0.021086456 0.043123137 0.18048914 
-0.021267472 0.040228542 0.18213 
-0.021354597 0.037403926 0.1836189 
-0.021390514 0.034602307 0.18678671 
-0.021815075 0.0317388 0.1889559 
-0.022296079 0.028964816 0.19189678 
-0.022671402 0.025437646 0.19481207 
-0.022396432 0.020256484 0.19835207 
-0.022399202 0.016113317 0.20082986 
-0.021955641 0.013483422 0.20360833 
-0.022264121 0.010237991 0.2056671 
-0.023437653 0.0066241464 0.20904583 
-0.02521451 0.004332221 0.2127443 
-0.025267141 0.000662072 0.215158 
-0.025993835 -0.00333279 0.2170829 
-0.02675816 -0.0064554047 0.22052911 
-0.027278101 -0.009442842 0.22244762 
-0.027219618 -0.0124777695 0.22352684 
-0.026866483 -0.015509046 0.2262005 
-0.026360832 -0.018649131 0.22698346 
-0.02684063 -0.022735516 0.22794177 
-0.0265606 -0.025987243 0.23209214 
-0.01811191 0.043244686 0.18177432 
-0.01831413 0.040829726 0.18382527 
-0.01819867 0.037625883 0.18520299 
-0.018514542 0.03479419 0.18713142 
-0.018702528 0.031865686 0.18958595 
-0.019143522 0.02900769 0.19192304 
-0.019471964 0.025729025 0.1962962 
-0.01960853 0.021493595 0.19934681 
-0.01937127 0.017236259 0.20218025 
-0.019170437 0.013650789 0.20435077 
-0.019343138 0.01009715 0.2069857 
-0.020013722 0.0066526015 0.20988962 
-0.021678617 0.0033504756 0.21318571 
-0.021732725 0.00046020688 0.21593343 
-0.02214655 -0.0026293267 0.2181979 
-0.023090037 -0.0061241332 0.22197165 
-0.023355804 -0.009560038 0.2236566 
-0.022942385 -0.012219314 0.2243554 
-0.02260373 -0.015754536 0.22688267 
-0.02258553 -0.01887362 0.22703153 
-0.022482766 -0.022423783 0.22757743 
-0.022739822 -0.026451657 0.23268732 
-0.015211363 0.041083153 0.18494293 
-0.015471182 0.038130637 0.18665048 
-0.015478905 0.03507432 0.18818788 
-0.015651222 0.032072157 0.19050953 
-0.016159387 0.029338362 0.19268939 
-0.016231133 0.026130475 0.1970895 
-0.016518127 0.022058144 0.20050405 
-0.016116206 0.018234368 0.20264624 
-0.01654106 0.014662469 0.20526208 
-0.016047241 0.010646688 0.20820208 
-0.016727967 0.007881744 0.2110263 
-0.01744361 0.0045734663 0.2140285 
-0.018116001 0.0015571207 0.21674645 
-0.018593213 -0.0017995965 0.22023407 
-0.019041067 -0.0053823018 0.22330604 
-0.019138746 -0.008646971 0.22500244 
-0.018410113 -0.0121914735 0.22589445 
-0.018400256 -0.015952632 0.22700709 
-0.01878233 -0.019245386 0.2280036 
-0.019009884 -0.023012992 0.2296753 
-0.019133996 -0.026672265 0.23450069 
-0.012600238 0.038133916 0.18785706 
-0.012497183 0.03503565 0.18936007 
-0.012818633 0.032038283 0.19139698 
-0.013050031 0.029181968 0.19319843 
-0.01311106 0.02607756 0.19632766 
-0.013475012 0.022653416 0.20089787 
-0.013810455 0.01915212 0.20405497 
-0.013592646 0.015500572 0.20699914 
-0.013411323 0.011917264 0.20970155 
-0.013486111 0.008743746 0.21197869 
-0.013615281 0.005589995 0.21464539 
-0.014056511 0.002346826 0.21794294 
-0.014491051 -0.0011867069 0.22120811 
-0.014999456 -0.004638828 0.22366804 
-0.014939423 -0.008363478 0.22524467 
-0.01467208 -0.0126416385 0.2266658 
-0.014654677 -0.016297292 0.22799163 
-0.015066276 -0.019758375 0.22973028 
-0.015436447 -0.023563039 0.23266391 
-0.015324681 -0.026633179 0.23651963 
-0.009674744 0.035113737 0.18990979 
-0.009451531 0.032356866 0.19187383 
-0.009721111 0.029390411 0.19398656 
-0.00991639 0.026507588 0.19697127 
-0.010513013 0.023219094 0.20110232 
-0.010749672 0.019949092 0.20532808 
-0.010397697 0.016579492 0.20844252 
-0.010444743 0.012949372 0.21063377 
-0.010238957 0.009482228 0.21270043 
-0.010233222 0.006302863 0.2159855 
-0.010633318 0.0030008203 0.21932921 
-0.010604748 -0.0010506291 0.22164525 
-0.01097373 -0.0042425715 0.22404326 
-0.011255021 -0.008216116 0.22584781 
-0.011108738 -0.01231602 0.2260337 
-0.010986392 -0.016208792 0.22923504 
-0.011317268 -0.019905442 0.23112856 
-0.011594109 -0.023792502 0.23468733 
-0.012258647 -0.02628922 0.23718044 
-0.0061081145 0.032306366 0.19252178 
-0.006262557 0.02965655 0.1951834 
-0.0066724345 0.026713673 0.19866131 
-0.0070571364 0.023771502 0.20158798 
-0.00745302 0.020494267 0.20555459 
-0.007116582 0.017183041 0.20867385 
-0.0070084454 0.013562334 0.21082945 
-0.0067286594 0.010144466 0.21262138 
-0.0064131785 0.006509804 0.21588022 
-0.006603107 0.0029488753 0.21923952 
-0.006802714 -0.0008089058 0.22246817 
-0.0070039574 -0.0042075478 0.22364965 
-0.007390482 -0.00803223 0.22614591 
-0.007295331 -0.012310447 0.22660525 
-0.0074178115 -0.016368635 0.2298814 
-0.007851264 -0.019807464 0.23200636 
-0.008563477 -0.022830026 0.23382862 
-0.0034667598 0.031775475 0.19411439 
-0.0030090907 0.029632704 0.19708073 
-0.003249009 0.026848486 0.1994294 
-0.0034116507 0.023782596 0.20183155 
-0.0034003113 0.020655371 0.20474271 
-0.0034160374 0.017438289 0.20779043 
-0.0031876143 0.013833794 0.21060383 
-0.0030914766 0.010328373 0.21273634 
-0.0027813737 0.007094553 0.21593581 
-0.0029084785 0.0030686122 0.21868478 
-0.003003713 -0.00053864374 0.22165899 
-0.0031347794 -0.004391529 0.22328769 
-0.0036072345 -0.008283092 0.22585727 
-0.0037871404 -0.012123355 0.2269335 
-0.0046380977 -0.015540433 0.22935441 
0.00038343653 0.02946355 0.19821157 
0.00036073994 0.027063709 0.19979584 
0.00031237645 0.024268726 0.20188543 
0.00012113912 0.020955324 0.20432599 
0.00028701633 0.017780028 0.20690447 
0.0005686869 0.014124169 0.20961685 
0.000688271 0.010725275 0.21217662 
0.0010499154 0.0076555773 0.21448666 
0.00067099807 0.0038104681 0.2168652 
0.0008695362 -6.750021e-05 0.21962348 
0.00029068047 -0.0037709454 0.22248034 
-0.0009557989 -0.0073114885 0.22613046 
0.0038209127 0.027579142 0.20030294 
0.0041890494 0.024749778 0.20195988 
0.004202968 0.02149385 0.20358115 
0.0040304447 0.018219326 0.20634924 
0.00428252 0.014771087 0.20843425 
0.0038392446 0.011593391 0.21085879 
-0.057898 0.035575 0.19312 
-0.058681 0.033478 0.19464 
-0.059087 0.031093 0.19648 
-0.059437 0.028587 0.19844 
-0.059657 0.026104 0.20041 
-0.059821 0.023744 0.20229 
-0.054525 0.039179 0.19102 
-0.05534543 0.0367614 0.19270822 
-0.05535606 0.034650892 0.19427511 
-0.055710897 0.032136466 0.1961733 
-0.056149717 0.029455531 0.198164 
-0.056549583 0.026879467 0.20032884 
-0.057023108 0.02418232 0.20207937 
-0.058153 0.021717 0.20436 
-0.058083 0.018744 0.20681 
-0.050046 0.042977 0.18904 
-0.051218 0.040869 0.19047 
-0.052054416 0.03835204 0.19209626 
-0.052309398 0.035382662 0.19405656 
-0.052290104 0.032434512 0.19630042 
-0.05260595 0.02971487 0.19829689 
-0.05291533 0.02671454 0.20016328 
-0.053423747 0.024042746 0.20197697 
-0.054340135 0.02090197 0.20405596 
-0.055008467 0.017631695 0.20720637 
-0.056375 0.014174 0.21096 
-0.056079 0.010721 0.21385 
-0.04665 0.045804 0.18759 
-0.04743249 0.043763623 0.18905663 
-0.04807082 0.041341554 0.19077794 
-0.048753455 0.038705185 0.1924927 
-0.04936143 0.03578181 0.1944488 
-0.04905596 0.03231901 0.1966373 
-0.049165983 0.029177422 0.19856848 
-0.049526643 0.02633614 0.20048822 
-0.0498516 0.02337423 0.2024711 
-0.050803535 0.02005072 0.2042427 
-0.05129092 0.016774876 0.20693977 
-0.05230688 0.012781405 0.21043262 
-0.053058695 0.009200404 0.21465486 
-0.054293 0.00592 0.21821 
-0.054385 0.0027001 0.22082 
-0.043317 0.048081 0.18656 
-0.0441086 0.04631221 0.18778178 
-0.044586048 0.043909855 0.18951981 
-0.0450135 0.041331563 0.19143318 
-0.045655 0.0384427 0.19326833 
-0.04581521 0.035309866 0.19524048 
-0.04574494 0.031801865 0.19730805 
-0.04586954 0.028676469 0.19913587 
-0.04605352 0.025344944 0.20066722 
-0.046440188 0.022339603 0.20249614 
-0.047149118 0.018849213 0.20468435 
-0.04742721 0.014977509 0.20684406 
-0.04817384 0.011896874 0.21084552 
-0.049528793 0.008153218 0.21493033 
-0.05066537 0.005225615 0.218353 
-0.051717024 0.0023614333 0.22131129 
-0.052313 -0.00041281 0.22388 
-0.052534 -0.0033181 0.22619 
-0.040856 0.048977 0.18645 
-0.041293357 0.046473473 0.18836406 
-0.041704834 0.04396146 0.19022667 
-0.0421084 0.04112475 0.19215459 
-0.04249659 0.03816309 0.19412138 
-0.04265778 0.034694377 0.19619097 
-0.042773467 0.031234983 0.19800691 
-0.042990882 0.02814341 0.19958952 
-0.04293865 0.025039036 0.20079368 
-0.043256834 0.021513164 0.20259976 
-0.04348588 0.017303905 0.2047432 
-0.043498088 0.014153 0.20742527 
-0.044078667 0.010898008 0.21133356 
-0.04601687 0.0074246735 0.21546984 
-0.047334142 0.0048319693 0.2188011 
-0.048114773 0.002407057 0.22183527 
-0.048975524 -0.00037796545 0.22450468 
-0.050045237 -0.003657931 0.22729626 
-0.050262 -0.007415 0.2301 
-0.050065 -0.0099304 0.2322 
-0.037833 0.051152 0.18543 
-0.038091436 0.04944969 0.18676898 
-0.038432553 0.046792325 0.18875761 
-0.038861495 0.043998778 0.19079766 
-0.039260745 0.0411504 0.19286484 
-0.039524216 0.03770376 0.1950276 
-0.039731897 0.03420194 0.19702104 
-0.03994833 0.030865535 0.19856517 
-0.040115576 0.027412072 0.20011942 
-0.040168524 0.024286248 0.20140447 
-0.040675513 0.020598844 0.20320137 
-0.040273987 0.016481292 0.20442158 
-0.040491194 0.012753832 0.20785122 
-0.0415508 0.009780788 0.21168508 
-0.042751763 0.0069552073 0.21585612 
-0.0439719 0.0047594886 0.21944024 
-0.044798464 0.002355674 0.2226327 
-0.045460094 3.6304125e-05 0.22540106 
-0.04626336 -0.0030666997 0.22801226 
-0.04695456 -0.0063206144 0.23044956 
-0.047795095 -0.010337449 0.2332561 
-0.046679 -0.012748 0.23535 
-0.035124 0.051519 0.18581 
-0.03521195 0.04990594 0.18713214 
-0.035339255 0.047185376 0.18926336 
-0.03560135 0.044606987 0.19115487 
-0.036068544 0.041460942 0.1933578 
-0.036416296 0.03729782 0.19599661 
-0.036788844 0.034072068 0.19770718 
-0.03703084 0.030427618 0.1993787 
-0.037109524 0.026716456 0.20074986 
-0.037182424 0.02276111 0.20203331 
-0.03750894 0.019237414 0.20366749 
-0.03731055 0.016132375 0.20466357 
-0.0375795 0.012356744 0.20821191 
-0.03872061 0.009668931 0.21201693 
-0.039652586 0.00673079 0.21611315 
-0.040781897 0.00432761 0.22005239 
-0.041556068 0.0022670534 0.22342786 
-0.042103495 0.0003014878 0.22607279 
-0.042867463 -0.0025201903 0.22868642 
-0.04347509 -0.005664992 0.23131473 
-0.04378315 -0.009412515 0.2338916 
-0.043446 -0.012583 0.23602 
-0.032113 0.051643 0.18646 
-0.03217613 0.050086383 0.18773307 
-0.0324761 0.047392678 0.18978168 
-0.032694254 0.04447427 0.19194382 
-0.033038184 0.041223306 0.194272 
-0.033393834 0.03715534 0.1967297 
-0.033854432 0.03391114 0.19846514 
-0.03407377 0.030205918 0.20028132 
-0.03415122 0.026026784 0.20171139 
-0.034335885 0.022112988 0.20274095 
-0.03470548 0.01849111 0.20420134 
-0.034635495 0.015662592 0.20549276 
-0.034786757 0.012474139 0.20887673 
-0.035739016 0.009610065 0.21231982 
-0.036450427 0.0069308756 0.21634476 
-0.037533984 0.0045767887 0.22045979 
-0.03829656 0.002392844 0.22405958 
-0.03885853 0.00021350976 0.22675513 
-0.039738625 -0.0026512647 0.22971337 
-0.040123712 -0.0054904246 0.23265517 
-0.040217806 -0.008892682 0.23449811 
-0.039704 -0.012041 0.23651 
-0.029233 0.051989 0.1869 
-0.029200267 0.050358076 0.18826827 
-0.029680561 0.04766871 0.19034527 
-0.029701138 0.044734288 0.19255029 
-0.029889606 0.04137155 0.19492921 
-0.030370027 0.037644606 0.19715926 
-0.030804154 0.03397105 0.19914278 
-0.03098639 0.03036968 0.20097797 
-0.031203408 0.025696142 0.2025406 
-0.03155933 0.02134297 0.20385087 
-0.03184822 0.018206442 0.20528597 
-0.03153935 0.015707972 0.20661056 
-0.032001864 0.012615952 0.21007527 
-0.03269139 0.010047345 0.2133425 
-0.033534728 0.007241 0.21724129 
-0.03445572 0.005019232 0.22096613 
-0.035076316 0.0023614026 0.225036 
-0.035685834 6.180887e-05 0.22763628 
-0.036420375 -0.0028136359 0.2307018 
-0.036482517 -0.0060786875 0.23361352 
-0.036373593 -0.0092834905 0.23549041 
-0.036454 -0.012426 0.23764 
-0.026317 0.052085 0.18755 
-0.026206832 0.050498992 0.18884195 
-0.026546095 0.04794756 0.19085059 
-0.026762096 0.04509046 0.19302806 
-0.026913043 0.041853774 0.19532813 
-0.027223371 0.0384025 0.19762269 
-0.027674498 0.034378644 0.19998342 
-0.028178545 0.030563984 0.20216805 
-0.028377555 0.025556462 0.2040719 
-0.028745307 0.021338023 0.2054617 
-0.028451376 0.018696146 0.2071013 
-0.028395107 0.016228257 0.2087633 
-0.029012589 0.012664257 0.21224631 
-0.029851552 0.0103117265 0.21523447 
-0.030376557 0.007632003 0.21925557 
-0.031036742 0.005083815 0.22240594 
-0.031722754 0.0021711986 0.22622868 
-0.031998836 -0.00022454502 0.22888558 
-0.0327299 -0.0029672615 0.23157108 
-0.03284176 -0.0063119475 0.23452948 
-0.03263723 -0.009367605 0.23670207 
-0.033217575 -0.0126236435 0.23882127 
-0.033741 -0.016125 0.24134 
-0.023349 0.052231 0.18817 
-0.023207488 0.050629396 0.18948641 
-0.023422908 0.048007626 0.19160803 
-0.023682646 0.04526868 0.19353032 
-0.023824114 0.04195546 0.19604778 
-0.024161937 0.03872518 0.19825405 
-0.024569577 0.03517018 0.2008939 
-0.024940906 0.031018328 0.2032713 
-0.024965089 0.02624009 0.20542282 
-0.025347635 0.0221785 0.2073974 
-0.02480599 0.018881328 0.20960209 
-0.025419012 0.016405879 0.2114397 
-0.025950441 0.013108291 0.21416904 
-0.02668934 0.010455637 0.21742396 
-0.02695119 0.008060381 0.22059704 
-0.027413562 0.005304298 0.22377653 
-0.027936678 0.0020871372 0.22744174 
-0.028230144 -0.0006599945 0.2302103 
-0.028500048 -0.0032586558 0.23259208 
-0.028793858 -0.0065453295 0.23535666 
-0.029152218 -0.00943795 0.23742828 
-0.029997356 -0.012346913 0.23953427 
-0.03019 -0.016568 0.24259 
-0.020429 0.050381 0.19041 
-0.02027093 0.048056085 0.19230212 
-0.020402953 0.04544175 0.1942765 
-0.020805892 0.042468682 0.1964556 
-0.020957116 0.039217964 0.19889855 
-0.021268582 0.036011748 0.20122683 
-0.021489466 0.031542238 0.20422898 
-0.021806357 0.027896864 0.20656732 
-0.022135446 0.0236826 0.20889236 
-0.02212958 0.020039594 0.2110629 
-0.022354446 0.017093873 0.21346708 
-0.022855313 0.0137443375 0.21592279 
-0.02338677 0.010801649 0.2190446 
-0.023600481 0.008228666 0.22202286 
-0.023799783 0.0052848742 0.2250915 
-0.024062479 0.0018110386 0.22865696 
-0.024579953 -0.0012891105 0.23153506 
-0.02461728 -0.0035794121 0.23366058 
-0.024400517 -0.006906136 0.23638618 
-0.024923895 -0.009426233 0.23819968 
-0.02585338 -0.01196597 0.24017812 
-0.026489 -0.016805 0.2437 
-0.017256 0.048036 0.19312 
-0.017393362 0.045498747 0.19508769 
-0.017568704 0.04265036 0.19718343 
-0.01780838 0.039585438 0.1995472 
-0.018185461 0.036443867 0.20178337 
-0.018154288 0.032420028 0.20486812 
-0.018482096 0.02841375 0.2075353 
-0.01900642 0.024996221 0.20967531 
-0.019299164 0.021836206 0.21183267 
-0.019101381 0.01794991 0.2148118 
-0.01951945 0.014609994 0.21740752 
-0.019878302 0.011681304 0.22019188 
-0.019920126 0.008611861 0.22324495 
-0.019984573 0.0049610734 0.22660151 
-0.020242274 0.0016456506 0.22974083 
-0.020585334 -0.001390919 0.2324739 
-0.020450735 -0.0038990418 0.23477054 
-0.020358857 -0.006680215 0.2369934 
-0.021117494 -0.009765948 0.23933151 
-0.02183416 -0.0129378885 0.2418352 
-0.022633 -0.017556 0.24528 
-0.014544 0.0452 0.19611 
-0.014423113 0.042635363 0.19807182 
-0.0145695275 0.039695237 0.2003463 
-0.014965955 0.036906403 0.20246014 
-0.014908724 0.033569407 0.2050791 
-0.015280972 0.029301232 0.20821762 
-0.015577159 0.02564099 0.2108732 
-0.015724177 0.022069799 0.21342966 
-0.015917346 0.01847026 0.2160808 
-0.01603076 0.015430107 0.21849756 
-0.015915249 0.012432212 0.22123866 
-0.015977984 0.008780977 0.22441153 
-0.016326707 0.0048682913 0.22774811 
-0.016450765 0.001757596 0.23057602 
-0.016629925 -0.0009510164 0.23300837 
-0.01659164 -0.004152891 0.23579732 
-0.016788112 -0.007136333 0.2382523 
-0.017172033 -0.010153599 0.24070378 
-0.017890314 -0.0141988965 0.24380146 
-0.018345 -0.018081 0.24678 
-0.011732 0.04267 0.19887 
-0.0112681575 0.040283702 0.2008503 
-0.011460727 0.037405957 0.20299168 
-0.011546321 0.03398554 0.2056402 
-0.01199141 0.029827153 0.20877503 
-0.012092004 0.025926 0.21180233 
-0.012059887 0.02247792 0.21445489 
-0.012585849 0.01910218 0.21694379 
-0.012495257 0.016158829 0.21917759 
-0.012064618 0.012676885 0.22231041 
-0.012218991 0.009026305 0.2254754 
-0.012448776 0.0054731485 0.22857568 
-0.012626432 0.0023050176 0.2312487 
-0.013142945 -0.0008466549 0.23383301 
-0.012977071 -0.0034310562 0.23613533 
-0.013154369 -0.0072537586 0.2392791 
-0.013519939 -0.010366043 0.2417425 
-0.014050155 -0.014865331 0.24524452 
-0.014929 -0.017639 0.24727 
-0.0081946 0.040334 0.20166 
-0.008118206 0.037572797 0.20388027 
-0.008374993 0.033801526 0.20659046 
-0.008466298 0.030599836 0.20916656 
-0.008755797 0.026586926 0.21226524 
-0.008592781 0.023117427 0.21495923 
-0.008725589 0.0198971 0.21749052 
-0.008864094 0.016918655 0.2197716 
-0.008382249 0.01315553 0.22292863 
-0.008403487 0.009413367 0.22623461 
-0.008591824 0.005692448 0.22949284 
-0.008959331 0.0028098405 0.23171794 
-0.009305768 -0.0006037323 0.23459746 
-0.009422055 -0.0032756443 0.2368669 
-0.009617606 -0.0072691073 0.24006349 
-0.01028 -0.010639 0.24273 
-0.011121 -0.013447 0.24481 
-0.0055146 0.039605 0.20293 
-0.0046489765 0.037109286 0.20503236 
-0.004703628 0.03430175 0.20733957 
-0.00482981 0.031180914 0.20967056 
-0.0049223597 0.027647516 0.21237332 
-0.0049883258 0.024135703 0.21514922 
-0.004916159 0.020696983 0.21790163 
-0.005051876 0.017472543 0.22045699 
-0.004691341 0.01413035 0.22335729 
-0.004846925 0.010473125 0.22648838 
-0.0048836195 0.006586192 0.22972554 
-0.0053563956 0.0035165357 0.23215689 
-0.005628475 -0.00023335846 0.23527001 
-0.0061969 -0.0031128 0.23761 
-0.0071032 -0.0063473 0.24002 
-0.0015804 0.036841 0.20617 
-0.0012551319 0.0347474 0.20781264 
-0.0013068056 0.03190827 0.21010256 
-0.0012950186 0.028850676 0.21250752 
-0.0012762978 0.025607534 0.21517824 
-0.0012417737 0.022050252 0.21793291 
-0.0012813213 0.018762028 0.2207112 
-0.0010313 0.015794 0.22347 
-0.0014019 0.012076 0.22642 
-0.0015742 0.0082159 0.22952 
-0.0022256 0.0044729 0.23241 
-0.0032191 0.0004202 0.23547 
0.0018553 0.035081 0.20846 
0.0022782 0.032625 0.21057 
0.002266 0.02993 0.21277 
0.0021046 0.026606 0.21544 
0.0020287 0.023613 0.21786 
0.0016399 0.020347 0.22043 
-0.007846291 -0.0019970404 0.23619762 
-0.047388814 0.030484397 0.19800396 
-0.058309045 0.02946626 0.19224904 
-0.021922266 0.046646968 0.19297841 
-0.016442848 0.038198486 0.2009686 
-0.016179614 -0.016180279 0.24574348 
-0.015142716 0.0068078833 0.21279335 
-0.058680344 0.024208002 0.19577558 
-0.046825483 -0.017836588 0.22922842 
-0.013105401 0.038552877 0.20166826 
-0.02343051 0.020722887 0.20940077 
-0.058675155 0.022383098 0.19821727 
-0.011719194 -0.020251896 0.24054329 
-0.0330272 0.05055127 0.1871739 
-0.048931055 -0.014230799 0.22558987 
-0.058460865 0.025822978 0.19332387 
-0.057787906 0.030916594 0.19004808 
-0.024062367 0.018455306 0.19770552 
-0.017649762 0.013922564 0.2192187 
-0.05876201 0.023044653 0.1970686 
-0.057036236 0.035020396 0.19366744 
-0.04390672 0.03997172 0.19265038 
-0.04039473 0.04273326 0.19148843 
-0.043328173 0.042516597 0.19086067 
-0.036732722 0.048450377 0.18792196 
-0.033885308 0.048532974 0.18853612 
-0.022173136 0.021862105 0.20974703 
-0.019619143 0.030689495 0.20558782 
-0.019338533 0.03761697 0.20057288 
-0.053371526 0.0015299289 0.22173157 
-0.046643592 0.0010972493 0.22355206 
-0.016834285 0.027554577 0.20894577 
-0.014090931 0.030791022 0.2074921 
-0.014460181 0.020098766 0.21552266 
-0.0105224755 0.03152998 0.20792407 
-0.0144434655 0.017498147 0.21750009 
0.00039652796 0.018490296 0.22150953 
-0.009844679 -0.017782431 0.23971993 
-0.0133247785 -0.022692768 0.24142791 
-0.01655167 -0.023118755 0.24089007 
-0.028469034 -0.021423291 0.23747954 
-0.038348064 -0.017664244 0.23222318 
-0.042267498 -0.018440804 0.23175637 
-0.045457873 -0.018533057 0.23061848 
-0.05648895 0.017160458 0.19938678 
-0.058773223 0.021077747 0.19957507 
-0.058780387 0.025245614 0.19451886 
-0.05809413 0.030257735 0.19075893 
-0.010476118 -0.015632091 0.24228105 
-0.03404639 0.047662336 0.18103696 
-0.031031564 0.04770147 0.1817198 
-0.025147434 0.04805863 0.1827455 
-0.028062018 0.047998577 0.18216507 
-0.04618433 -0.01568235 0.2331645 
-0.04293753 -0.015284044 0.23387168 
-0.02573488 0.050051697 0.18518415 
-0.028658044 0.0499412 0.184606 
-0.031580858 0.049625747 0.18422373 
-0.03458229 0.04957768 0.18353276 
-0.027493082 0.04607671 0.17967343 
-0.02458913 0.0460673 0.18029994 
-0.030498587 0.045850392 0.17920013 
-0.033555996 0.045801226 0.17862108 
-0.01743717 -0.020656008 0.24389157 
-0.057213556 0.019405052 0.20190585 
-0.016748922 0.030852392 0.20655368 
-0.055852577 0.015327054 0.19710577 
-0.031849235 0.05061312 0.18535323 
3 9 1 8 
3 8 19 9 
3 1 7 8 
3 9 2 1 
3 19 20 9 
3 8 18 19 
3 7 17 8 
3 9 10 2 
3 20 10 9 
3 20 21 10 
3 19 33 20 
3 18 32 19 
3 8 17 18 
3 17 31 18 
3 7 6 17 
3 10 3 2 
3 21 11 10 
3 20 34 21 
3 33 34 20 
3 33 50 34 
3 19 32 33 
3 32 49 33 
3 18 31 32 
3 31 47 32 
3 17 30 31 
3 6 16 17 
3 10 11 3 
3 11 4 3 
3 21 22 11 
3 34 22 21 
3 34 35 22 
3 50 35 34 
3 50 51 35 
3 33 49 50 
3 49 68 50 
3 32 48 49 
3 47 48 32 
3 47 65 48 
3 31 30 47 
3 30 46 47 
3 17 16 30 
3 16 29 30 
3 11 12 4 
3 22 12 11 
3 22 23 12 
3 35 36 22 
3 51 36 35 
3 51 52 36 
3 50 69 51 
3 68 69 50 
3 68 89 69 
3 49 67 68 
3 48 67 49 
3 48 66 67 
3 65 66 48 
3 65 86 66 
3 47 64 65 
3 46 64 47 
3 46 45 64 
3 30 29 46 
3 29 45 46 
3 29 28 45 
3 16 15 29 
3 12 5 4 
3 23 13 12 
3 22 36 23 
3 36 37 23 
3 52 37 36 
3 52 53 37 
3 51 69 52 
3 69 70 52 
3 89 90 69 
3 68 88 89 
3 67 88 68 
3 67 87 88 
3 66 87 67 
3 66 86 87 
3 86 108 87 
3 65 85 86 
3 64 85 65 
3 64 84 85 
3 45 63 64 
3 28 44 45 
3 29 15 28 
3 15 27 28 
3 12 13 5 
3 23 14 13 
3 37 24 23 
3 53 38 37 
3 52 70 53 
3 70 71 53 
3 69 90 70 
3 90 91 70 
3 89 111 90 
3 88 110 89 
3 87 109 88 
3 108 109 87 
3 108 130 109 
3 86 85 108 
3 85 107 108 
3 84 106 85 
3 64 63 84 
3 63 83 84 
3 45 44 63 
3 44 62 63 
3 28 27 44 
3 27 43 44 
3 23 24 14 
3 24 25 14 
3 37 38 24 
3 38 25 24 
3 38 26 25 
3 53 54 38 
3 71 54 53 
3 71 72 54 
3 70 91 71 
3 91 92 71 
3 90 112 91 
3 111 112 90 
3 111 133 112 
3 89 110 111 
3 110 132 111 
3 88 109 110 
3 109 131 110 
3 130 131 109 
3 130 152 131 
3 108 129 130 
3 107 129 108 
3 107 128 129 
3 85 106 107 
3 106 128 107 
3 106 127 128 
3 84 83 106 
3 83 105 106 
3 63 62 83 
3 62 61 83 
3 44 43 62 
3 43 61 62 
3 43 42 61 
3 27 42 43 
3 38 39 26 
3 71 92 72 
3 92 93 72 
3 91 113 92 
3 112 113 91 
3 112 134 113 
3 133 134 112 
3 133 155 134 
3 111 132 133 
3 132 154 133 
3 110 131 132 
3 131 153 132 
3 152 153 131 
3 152 174 153 
3 130 151 152 
3 129 151 130 
3 129 128 151 
3 128 150 151 
3 127 149 128 
3 106 105 127 
3 105 126 127 
3 83 82 105 
3 61 82 83 
3 61 60 82 
3 42 60 61 
3 93 73 72 
3 92 114 93 
3 113 114 92 
3 113 135 114 
3 134 135 113 
3 134 156 135 
3 155 156 134 
3 155 177 156 
3 133 154 155 
3 154 176 155 
3 132 153 154 
3 153 175 154 
3 174 175 153 
3 174 197 175 
3 152 173 174 
3 151 173 152 
3 151 150 173 
3 150 172 173 
3 128 149 150 
3 149 171 150 
3 127 148 149 
3 126 148 127 
3 126 125 148 
3 105 104 126 
3 82 104 105 
3 82 103 104 
3 60 81 82 
3 73 55 72 
3 93 94 73 
3 114 115 93 
3 135 136 114 
3 156 157 135 
3 177 178 156 
3 155 176 177 
3 715 713 409 
3 154 175 176 
3 175 198 176 
3 197 198 175 
3 197 219 198 
3 174 196 197 
3 173 196 174 
3 173 195 196 
3 172 195 173 
3 172 194 195 
3 150 171 172 
3 171 194 172 
3 171 170 194 
3 149 148 171 
3 148 170 171 
3 148 147 170 
3 125 147 148 
3 125 146 147 
3 126 104 125 
3 104 103 125 
3 103 102 125 
3 82 81 103 
3 81 80 103 
3 60 80 81 
3 73 56 55 
3 94 74 73 
3 93 116 94 
3 115 116 93 
3 115 138 116 
3 114 136 115 
3 136 137 115 
3 135 157 136 
3 157 158 136 
3 156 178 157 
3 178 179 157 
3 177 200 178 
3 200 201 178 
3 593 613 710 
3 198 199 176 
3 198 221 199 
3 219 220 198 
3 197 196 219 
3 196 218 219 
3 195 217 196 
3 194 217 195 
3 194 216 217 
3 170 193 194 
3 147 169 170 
3 146 168 147 
3 125 124 146 
3 102 124 125 
3 103 80 102 
3 56 40 55 
3 73 74 56 
3 74 57 56 
3 94 95 74 
3 116 117 94 
3 138 139 116 
3 115 137 138 
3 137 160 138 
3 136 159 137 
3 158 159 136 
3 158 180 159 
3 157 179 158 
3 179 180 158 
3 179 202 180 
3 178 201 179 
3 201 202 179 
3 201 223 202 
3 200 223 201 
3 200 222 223 
3 199 222 200 
3 199 221 222 
3 221 243 222 
3 198 220 221 
3 220 241 221 
3 219 240 220 
3 218 240 219 
3 218 239 240 
3 196 217 218 
3 217 238 218 
3 216 237 217 
3 194 193 216 
3 193 215 216 
3 170 192 193 
3 169 192 170 
3 169 191 192 
3 147 168 169 
3 168 191 169 
3 40 39 55 
3 56 41 40 
3 57 41 56 
3 57 58 41 
3 74 75 57 
3 95 75 74 
3 95 96 75 
3 94 117 95 
3 117 118 95 
3 116 139 117 
3 139 140 117 
3 138 161 139 
3 160 161 138 
3 160 182 161 
3 137 159 160 
3 159 181 160 
3 180 181 159 
3 180 203 181 
3 202 203 180 
3 202 224 203 
3 223 224 202 
3 223 245 224 
3 222 244 223 
3 243 244 222 
3 243 263 244 
3 221 242 243 
3 241 242 221 
3 241 262 242 
3 220 240 241 
3 240 261 241 
3 239 260 240 
3 218 238 239 
3 238 258 239 
3 217 237 238 
3 237 257 238 
3 216 236 237 
3 215 236 216 
3 215 214 236 
3 193 214 215 
3 193 192 214 
3 192 191 214 
3 39 54 55 
3 57 76 58 
3 75 76 57 
3 75 97 76 
3 96 97 75 
3 96 119 97 
3 95 118 96 
3 118 119 96 
3 118 140 119 
3 140 118 117 
3 139 161 140 
3 161 162 140 
3 182 183 161 
3 160 181 182 
3 181 204 182 
3 203 204 181 
3 203 225 204 
3 224 225 203 
3 224 245 225 
3 245 246 225 
3 223 244 245 
3 244 264 245 
3 263 264 244 
3 263 282 264 
3 243 262 263 
3 262 243 242 
3 241 261 262 
3 261 280 262 
3 240 260 261 
3 260 279 261 
3 239 259 260 
3 258 259 239 
3 258 277 259 
3 238 257 258 
3 257 277 258 
3 237 236 257 
3 76 59 58 
3 97 98 76 
3 119 120 97 
3 140 141 119 
3 162 141 140 
3 162 163 141 
3 161 183 162 
3 183 184 162 
3 182 205 183 
3 204 205 182 
3 204 226 205 
3 225 226 204 
3 225 247 226 
3 246 247 225 
3 605 606 701 
3 245 266 246 
3 245 265 266 
3 264 265 245 
3 264 283 265 
3 282 283 264 
3 282 300 283 
3 263 281 282 
3 262 281 263 
3 262 280 281 
3 280 298 281 
3 261 279 280 
3 279 297 280 
3 260 278 279 
3 259 278 260 
3 259 277 278 
3 277 296 278 
3 76 77 59 
3 98 77 76 
3 98 99 77 
3 97 120 98 
3 120 121 98 
3 119 141 120 
3 141 142 120 
3 163 142 141 
3 163 164 142 
3 162 184 163 
3 184 185 163 
3 183 206 184 
3 205 206 183 
3 205 227 206 
3 226 227 205 
3 226 247 227 
3 247 248 227 
3 3 4 699 
3 265 285 266 
3 283 284 265 
3 300 301 283 
3 282 299 300 
3 281 299 282 
3 281 298 299 
3 298 316 299 
3 280 297 298 
3 297 314 298 
3 279 296 297 
3 296 279 278 
3 77 78 59 
3 99 78 77 
3 99 79 78 
3 98 121 99 
3 121 122 99 
3 120 142 121 
3 142 143 121 
3 164 143 142 
3 164 165 143 
3 163 185 164 
3 185 186 164 
3 184 207 185 
3 206 207 184 
3 206 228 207 
3 227 228 206 
3 227 248 228 
3 248 249 228 
3 247 267 248 
3 267 268 248 
3 266 285 267 
3 285 286 267 
3 265 284 285 
3 284 303 285 
3 283 302 284 
3 301 302 283 
3 301 319 302 
3 300 318 301 
3 299 317 300 
3 316 317 299 
3 316 331 317 
3 298 315 316 
3 314 315 298 
3 314 328 315 
3 297 313 314 
3 296 313 297 
3 99 100 79 
3 122 100 99 
3 122 101 100 
3 121 144 122 
3 143 144 121 
3 143 165 144 
3 165 166 144 
3 164 186 165 
3 186 187 165 
3 185 208 186 
3 207 208 185 
3 207 229 208 
3 228 229 207 
3 228 249 229 
3 249 250 229 
3 248 268 249 
3 268 269 249 
3 267 286 268 
3 286 287 268 
3 285 303 286 
3 303 304 286 
3 284 302 303 
3 302 319 303 
3 319 320 303 
3 301 318 319 
3 318 333 319 
3 300 317 318 
3 317 332 318 
3 331 332 317 
3 331 343 332 
3 316 330 331 
3 315 330 316 
3 315 329 330 
3 328 329 315 
3 328 340 329 
3 100 101 79 
3 122 123 101 
3 144 145 122 
3 166 145 144 
3 166 167 145 
3 165 187 166 
3 187 188 166 
3 186 209 187 
3 208 209 186 
3 208 230 209 
3 229 230 208 
3 229 250 230 
3 250 251 230 
3 249 269 250 
3 269 270 250 
3 268 287 269 
3 287 288 269 
3 286 305 287 
3 304 305 286 
3 304 322 305 
3 303 321 304 
3 320 321 303 
3 320 335 321 
3 319 334 320 
3 333 334 319 
3 333 345 334 
3 318 332 333 
3 332 344 333 
3 343 344 332 
3 331 342 343 
3 330 342 331 
3 330 341 342 
3 329 340 330 
3 340 341 330 
3 122 145 123 
3 166 189 167 
3 188 189 166 
3 188 212 189 
3 187 210 188 
3 209 210 187 
3 209 231 210 
3 230 231 209 
3 230 251 231 
3 251 252 231 
3 250 271 251 
3 270 271 250 
3 270 289 271 
3 269 289 270 
3 269 288 289 
3 288 307 289 
3 287 305 288 
3 305 306 288 
3 322 323 305 
3 304 321 322 
3 321 336 322 
3 335 336 321 
3 320 334 335 
3 334 345 335 
3 333 344 345 
3 189 190 167 
3 212 190 189 
3 212 213 190 
3 188 211 212 
3 210 211 188 
3 210 232 211 
3 231 232 210 
3 231 252 232 
3 252 253 232 
3 251 271 252 
3 271 272 252 
3 289 290 271 
3 307 290 289 
3 307 308 290 
3 288 306 307 
3 306 324 307 
3 305 323 306 
3 323 324 306 
3 323 338 324 
3 322 337 323 
3 336 337 322 
3 211 234 212 
3 232 233 211 
3 253 233 232 
3 253 254 233 
3 252 272 253 
3 272 273 253 
3 271 291 272 
3 290 291 271 
3 290 308 291 
3 308 309 291 
3 307 325 308 
3 324 325 307 
3 324 339 325 
3 338 339 324 
3 323 337 338 
3 211 233 234 
3 233 254 234 
3 254 255 234 
3 253 273 254 
3 273 274 254 
3 272 291 273 
3 291 292 273 
3 309 292 291 
3 309 310 292 
3 308 325 309 
3 325 326 309 
3 339 326 325 
3 254 274 255 
3 274 275 255 
3 273 292 274 
3 292 293 274 
3 310 293 292 
3 310 311 293 
3 309 327 310 
3 326 327 309 
3 275 256 255 
3 274 293 275 
3 293 294 275 
3 311 312 293 
3 310 327 311 
3 256 235 255 
3 275 276 256 
3 294 295 275 
3 293 312 294 
3 275 295 276 
3 7 0 6 
3 72 55 54 
3 38 54 39 
3 39 40 26 
3 314 313 328 
3 212 234 213 
3 234 235 213 
3 235 234 255 
3 7 1 0 
3 294 312 295 
3 712 347 355 
3 365 354 355 
3 442 421 722 
3 348 355 347 
3 366 365 355 
3 364 354 365 
3 364 363 353 
3 356 355 348 
3 356 366 355 
3 367 366 356 
3 379 365 366 
3 378 364 365 
3 364 353 354 
3 377 363 364 
3 352 353 363 
3 349 356 348 
3 357 367 356 
3 380 366 367 
3 380 379 366 
3 396 379 380 
3 378 365 379 
3 605 585 696 
3 377 364 378 
3 393 377 378 
3 376 363 377 
3 362 352 363 
3 357 356 349 
3 350 357 349 
3 368 367 357 
3 367 381 380 
3 368 381 367 
3 380 397 396 
3 381 397 380 
3 395 379 396 
3 414 395 396 
3 1 2 694 
3 394 393 378 
3 411 393 394 
3 376 377 393 
3 392 376 393 
3 362 363 376 
3 375 362 376 
3 358 357 350 
3 358 368 357 
3 369 368 358 
3 382 381 368 
3 381 398 397 
3 382 398 381 
3 415 396 397 
3 415 414 396 
3 435 414 415 
3 413 395 414 
3 395 412 394 
3 413 412 395 
3 412 411 394 
3 432 411 412 
3 410 393 411 
3 410 392 393 
3 713 715 391 
3 375 376 392 
3 391 375 392 
3 374 375 391 
3 361 362 375 
3 351 358 350 
3 359 369 358 
3 382 368 369 
3 383 382 369 
3 383 398 382 
3 399 398 383 
3 415 397 398 
3 416 415 398 
3 436 435 415 
3 434 414 435 
3 434 413 414 
3 433 413 434 
3 433 412 413 
3 432 412 433 
3 454 432 433 
3 431 411 432 
3 431 410 411 
3 430 410 431 
3 429 408 714 
3 390 374 391 
3 361 375 374 
3 373 361 374 
3 359 358 351 
3 360 369 359 
3 370 383 369 
3 384 399 383 
3 416 398 399 
3 417 416 399 
3 436 415 416 
3 437 436 416 
3 457 435 436 
3 456 434 435 
3 455 433 434 
3 455 454 433 
3 476 454 455 
3 453 431 432 
3 454 453 432 
3 452 430 431 
3 409 410 430 
3 566 567 719 
3 449 427 716 
3 427 428 716 
3 373 374 390 
3 389 373 390 
3 370 369 360 
3 371 370 360 
3 384 383 370 
3 371 384 370 
3 372 384 371 
3 400 399 384 
3 400 417 399 
3 418 417 400 
3 437 416 417 
3 438 437 417 
3 458 436 437 
3 458 457 436 
3 479 457 458 
3 456 435 457 
3 478 456 457 
3 455 434 456 
3 477 455 456 
3 477 476 455 
3 498 476 477 
3 475 454 476 
3 475 453 454 
3 474 453 475 
3 452 431 453 
3 474 452 453 
3 473 452 474 
3 429 430 452 
3 451 429 452 
3 408 390 715 
3 407 408 429 
3 389 390 408 
3 407 389 408 
3 388 389 407 
3 388 373 389 
3 385 384 372 
3 438 417 418 
3 439 438 418 
3 459 437 438 
3 459 458 437 
3 480 458 459 
3 480 479 458 
3 501 479 480 
3 478 457 479 
3 500 478 479 
3 477 456 478 
3 499 477 478 
3 499 498 477 
3 520 498 499 
3 498 475 476 
3 498 497 475 
3 474 475 497 
3 496 474 497 
3 495 473 474 
3 451 452 473 
3 472 451 473 
3 428 429 451 
3 428 407 429 
3 406 407 428 
3 406 388 407 
3 419 439 418 
3 460 438 439 
3 460 459 438 
3 481 459 460 
3 481 480 459 
3 502 480 481 
3 502 501 480 
3 523 501 502 
3 500 479 501 
3 522 500 501 
3 499 478 500 
3 521 499 500 
3 521 520 499 
3 543 520 521 
3 520 497 498 
3 520 519 497 
3 496 497 519 
3 518 496 519 
3 495 474 496 
3 518 517 495 
3 494 473 495 
3 494 472 473 
3 471 472 494 
3 450 451 472 
3 450 428 451 
3 569 590 718 
3 427 406 428 
3 401 419 418 
3 440 439 419 
3 461 460 439 
3 482 481 460 
3 503 502 481 
3 524 523 502 
3 522 501 523 
3 523 545 522 
3 521 500 522 
3 544 521 522 
3 544 543 521 
3 565 543 544 
3 542 520 543 
3 542 519 520 
3 541 519 542 
3 541 518 519 
3 540 518 541 
3 518 495 496 
3 540 517 518 
3 516 517 540 
3 516 494 495 
3 517 516 495 
3 493 494 516 
3 493 471 494 
3 492 471 493 
3 702 569 718 
3 568 702 718 
3 346 0 708 
3 471 449 717 
3 426 427 449 
3 426 406 427 
3 402 419 401 
3 420 440 419 
3 462 439 440 
3 462 461 439 
3 484 461 462 
3 482 460 461 
3 483 482 461 
3 503 481 482 
3 504 503 482 
3 524 502 503 
3 525 524 503 
3 546 523 524 
3 547 546 524 
3 546 545 523 
3 545 544 522 
3 545 566 544 
3 566 565 544 
3 542 543 565 
3 564 542 565 
3 563 541 542 
3 563 540 541 
3 562 540 563 
3 539 516 540 
3 515 493 516 
3 514 492 493 
3 470 471 492 
3 78 79 706 
3 426 449 448 
3 386 402 401 
3 420 419 402 
3 403 420 402 
3 441 440 420 
3 463 462 440 
3 485 484 462 
3 483 461 484 
3 506 483 484 
3 483 504 482 
3 483 505 504 
3 526 504 505 
3 525 503 504 
3 526 525 504 
3 548 525 526 
3 547 524 525 
3 548 547 525 
3 569 547 548 
3 470 448 705 
3 711 4 5 
3 568 545 546 
3 567 545 568 
3 589 567 568 
3 567 566 545 
3 403 387 721 
3 586 565 566 
3 387 58 721 
3 58 404 721 
3 563 542 564 
3 584 563 564 
3 583 562 563 
3 266 267 698 
3 606 605 696 
3 538 516 539 
3 538 515 516 
3 537 515 538 
3 514 493 515 
3 537 514 515 
3 385 386 401 
3 387 402 386 
3 387 403 402 
3 680 681 728 
3 421 420 403 
3 421 441 420 
3 442 441 421 
3 463 440 441 
3 464 463 441 
3 485 462 463 
3 486 485 463 
3 507 484 485 
3 507 506 484 
3 528 506 507 
3 505 483 506 
3 527 505 506 
3 527 526 505 
3 549 526 527 
3 549 548 526 
3 570 548 549 
3 570 569 548 
3 591 569 570 
3 567 588 719 
3 565 586 720 
3 609 589 590 
3 588 567 589 
3 585 564 720 
3 586 566 587 
3 587 606 586 
3 347 708 739 
3 584 564 585 
3 604 584 585 
3 583 563 584 
3 603 583 584 
3 582 562 583 
3 582 561 562 
3 560 561 582 
3 560 539 561 
3 538 539 560 
3 537 538 560 
3 400 385 401 
3 422 403 404 
3 422 421 403 
3 645 644 726 
3 608 588 723 
3 465 442 443 
3 464 441 442 
3 465 464 442 
3 487 486 464 
3 464 486 463 
3 508 507 485 
3 486 508 485 
3 529 528 507 
3 527 506 528 
3 550 527 528 
3 550 549 527 
3 571 549 550 
3 571 570 549 
3 592 591 570 
3 571 592 570 
3 590 569 591 
3 610 590 591 
3 610 609 590 
3 628 609 610 
3 610 611 725 
3 608 627 724 
3 607 587 757 
3 611 630 725 
3 607 606 587 
3 625 606 607 
3 621 622 697 
3 605 604 585 
3 623 604 605 
3 603 584 604 
3 623 603 604 
3 582 583 603 
3 405 422 404 
3 444 443 422 
3 466 465 443 
3 465 487 464 
3 486 509 508 
3 487 509 486 
3 529 507 508 
3 530 529 508 
3 551 528 529 
3 551 550 528 
3 572 550 551 
3 572 571 550 
3 593 571 572 
3 593 592 571 
3 346 347 712 
3 592 611 591 
3 612 611 592 
3 611 610 591 
3 612 631 727 
3 629 628 610 
3 646 628 629 
3 627 609 628 
3 627 608 609 
3 630 629 725 
3 631 630 727 
3 625 607 626 
3 643 625 626 
3 587 719 757 
3 736 5 758 
3 623 605 624 
3 642 623 624 
3 423 422 405 
3 423 444 422 
3 445 444 423 
3 466 443 444 
3 467 466 444 
3 488 487 465 
3 466 488 465 
3 487 510 509 
3 488 510 487 
3 530 508 509 
3 531 530 509 
3 552 529 530 
3 552 551 529 
3 573 551 552 
3 573 572 551 
3 593 572 573 
3 594 593 573 
3 703 350 711 
3 312 311 729 
3 627 645 726 
3 647 646 629 
3 646 627 628 
3 646 645 627 
3 630 611 727 
3 645 661 644 
3 643 626 644 
3 660 643 644 
3 642 625 643 
3 625 642 624 
3 424 423 405 
3 424 445 423 
3 425 445 424 
3 467 444 445 
3 468 467 445 
3 488 466 467 
3 489 488 467 
3 489 510 488 
3 511 510 489 
3 531 509 510 
3 532 531 510 
3 553 530 531 
3 553 552 530 
3 574 552 553 
3 574 573 552 
3 594 573 574 
3 595 594 574 
3 613 593 594 
3 614 613 594 
3 631 612 613 
3 632 631 613 
3 681 335 728 
3 649 630 631 
3 648 629 630 
3 648 647 629 
3 665 647 648 
3 664 646 647 
3 663 645 646 
3 663 662 645 
3 677 662 663 
3 662 661 645 
3 661 660 644 
3 674 660 661 
3 659 643 660 
3 659 642 643 
3 446 445 425 
3 446 468 445 
3 447 468 446 
3 490 467 468 
3 490 489 467 
3 511 489 490 
3 512 511 490 
3 532 510 511 
3 533 532 511 
3 554 531 532 
3 554 553 531 
3 575 553 554 
3 575 574 553 
3 595 574 575 
3 596 595 575 
3 614 594 595 
3 615 614 595 
3 632 613 614 
3 633 632 614 
3 649 631 632 
3 650 649 632 
3 648 630 649 
3 666 665 648 
3 649 666 648 
3 664 647 665 
3 679 664 665 
3 663 646 664 
3 678 663 664 
3 678 677 663 
3 689 677 678 
3 676 662 677 
3 676 661 662 
3 675 661 676 
3 675 674 661 
3 686 674 675 
3 447 446 425 
3 469 468 447 
3 491 490 468 
3 491 512 490 
3 513 512 491 
3 533 511 512 
3 534 533 512 
3 555 532 533 
3 555 554 532 
3 576 554 555 
3 576 575 554 
3 596 575 576 
3 597 596 576 
3 615 595 596 
3 616 615 596 
3 633 614 615 
3 634 633 615 
3 633 650 632 
3 633 651 650 
3 668 650 651 
3 650 666 649 
3 650 667 666 
3 681 666 667 
3 680 665 666 
3 680 679 665 
3 691 679 680 
3 678 664 679 
3 690 678 679 
3 690 689 678 
3 688 677 689 
3 688 676 677 
3 687 676 688 
3 686 675 676 
3 687 686 676 
3 491 468 469 
3 513 534 512 
3 513 535 534 
3 558 534 535 
3 556 533 534 
3 556 555 533 
3 577 555 556 
3 577 576 555 
3 597 576 577 
3 598 597 577 
3 617 596 597 
3 617 616 596 
3 636 635 616 
3 635 615 616 
3 634 615 635 
3 653 634 635 
3 651 633 634 
3 652 651 634 
3 669 668 651 
3 667 650 668 
3 682 667 668 
3 682 681 667 
3 680 666 681 
3 191 168 752 
3 690 679 691 
3 536 535 513 
3 536 558 535 
3 559 558 536 
3 557 534 558 
3 557 556 534 
3 578 556 557 
3 578 577 556 
3 598 577 578 
3 599 598 578 
3 617 597 598 
3 618 617 598 
3 617 636 616 
3 635 654 653 
3 636 654 635 
3 652 634 653 
3 670 652 653 
3 669 651 652 
3 670 669 652 
3 684 669 670 
3 683 668 669 
3 683 682 668 
3 580 557 558 
3 579 578 557 
3 578 600 599 
3 579 600 578 
3 618 598 599 
3 619 618 599 
3 618 636 617 
3 618 637 636 
3 654 636 637 
3 655 654 637 
3 671 653 654 
3 671 670 653 
3 685 670 671 
3 685 684 670 
3 683 669 684 
3 579 557 580 
3 600 579 580 
3 601 600 580 
3 619 599 600 
3 620 619 600 
3 637 618 619 
3 638 637 619 
3 638 655 637 
3 656 655 638 
3 561 539 695 
3 395 394 693 
3 672 685 671 
3 620 600 601 
3 621 620 601 
3 638 619 620 
3 639 638 620 
3 639 656 638 
3 657 656 639 
3 673 655 656 
3 673 672 655 
3 602 621 601 
3 639 620 621 
3 640 639 621 
3 658 657 639 
3 673 656 657 
3 581 602 601 
3 622 621 602 
3 425 79 700 
3 658 639 640 
3 267 247 698 
3 346 353 352 
3 401 418 400 
3 400 384 385 
3 386 385 372 
3 659 660 674 
3 580 558 559 
3 581 580 559 
3 580 581 601 
3 410 409 713 
3 658 640 641 
3 15 361 373 
3 27 15 373 
3 27 373 388 
3 42 27 388 
3 42 388 406 
3 60 42 406 
3 60 406 426 
3 80 60 426 
3 700 735 745 
3 741 753 754 
3 745 735 746 
3 447 425 745 
3 168 751 752 
3 741 426 750 
3 80 741 754 
3 748 744 749 
3 514 537 747 
3 425 700 745 
3 191 537 560 
3 214 191 560 
3 214 560 582 
3 236 214 582 
3 236 582 603 
3 257 236 603 
3 257 603 623 
3 277 257 623 
3 277 623 642 
3 296 277 642 
3 642 659 313 
3 296 642 313 
3 313 659 674 
3 328 313 674 
3 328 674 686 
3 340 328 686 
3 340 686 687 
3 341 340 687 
3 341 687 688 
3 342 341 688 
3 342 688 689 
3 343 342 689 
3 343 689 690 
3 344 343 690 
3 344 690 691 
3 345 344 691 
3 704 312 729 
3 101 734 735 
3 335 681 682 
3 336 335 682 
3 336 682 683 
3 337 336 683 
3 337 683 684 
3 338 337 684 
3 338 684 685 
3 339 338 685 
3 339 685 672 
3 326 339 672 
3 326 672 673 
3 327 326 673 
3 327 673 657 
3 311 327 657 
3 737 736 756 
3 704 641 730 
3 348 2 707 
3 471 470 705 
3 213 235 732 
3 559 536 732 
3 190 213 732 
3 491 469 746 
3 256 602 581 
3 235 256 581 
3 145 167 733 
3 123 145 733 
3 537 743 747 
3 190 536 513 
3 167 190 513 
3 426 448 750 
3 700 101 735 
3 123 733 734 
3 101 123 734 
3 14 360 736 
3 448 470 759 
3 354 353 712 
3 624 605 701 
3 176 199 709 
3 2 3 707 
3 78 424 405 
3 59 78 405 
3 59 405 404 
3 58 59 404 
3 443 442 722 
3 41 58 387 
3 41 387 386 
3 40 41 386 
3 40 386 372 
3 26 40 372 
3 26 372 371 
3 25 26 371 
3 25 371 360 
3 14 25 360 
3 351 703 737 
3 5 736 737 
3 392 410 713 
3 699 349 738 
3 424 78 706 
3 295 312 704 
3 568 546 702 
3 79 101 700 
3 613 612 710 
3 0 1 708 
3 622 641 697 
3 562 561 695 
3 711 5 703 
3 199 200 709 
3 0 346 352 
3 6 0 352 
3 6 352 362 
3 16 6 362 
3 362 361 15 
3 16 362 15 
3 80 426 741 
3 655 672 692 
3 672 671 692 
3 394 378 693 
3 654 655 692 
3 671 654 692 
3 379 395 693 
3 378 379 693 
3 2 348 694 
3 348 347 694 
3 540 562 695 
3 539 540 695 
3 586 606 696 
3 588 589 723 
3 640 621 697 
3 641 640 697 
3 247 246 698 
3 246 266 698 
3 712 355 354 
3 350 349 699 
3 608 724 757 
3 469 745 746 
3 625 624 701 
3 606 625 701 
3 547 569 702 
3 546 547 702 
3 707 3 738 
3 351 350 703 
3 295 704 730 
3 742 750 749 
3 449 471 705 
3 448 449 705 
3 79 425 706 
3 425 424 706 
3 708 1 739 
3 641 622 755 
3 657 658 740 
3 347 346 708 
3 200 177 709 
3 177 176 709 
3 592 593 710 
3 612 592 710 
3 350 699 711 
3 699 4 711 
3 353 346 712 
3 472 471 717 
3 3 699 738 
3 391 392 713 
3 430 429 714 
3 409 430 714 
3 390 391 715 
3 714 408 715 
3 409 714 715 
3 428 450 716 
3 450 472 717 
3 716 450 717 
3 449 716 717 
3 590 589 718 
3 589 568 718 
3 587 566 719 
3 564 565 720 
3 696 585 720 
3 586 696 720 
3 404 403 721 
3 422 443 722 
3 421 422 722 
3 609 608 723 
3 589 609 723 
3 626 607 724 
3 5 13 758 
3 748 749 759 
3 629 610 725 
3 644 626 726 
3 724 627 726 
3 626 724 726 
3 611 612 727 
3 691 680 728 
3 345 691 728 
3 335 345 728 
3 311 657 729 
3 168 146 751 
3 581 559 732 
3 235 581 732 
3 295 730 731 
3 276 295 731 
3 256 276 731 
3 602 256 731 
3 536 190 732 
3 167 513 733 
3 513 491 733 
3 719 588 757 
3 703 5 737 
3 492 514 747 
3 694 347 739 
3 729 657 740 
3 588 608 757 
3 349 348 738 
3 348 707 738 
3 1 694 739 
3 704 729 740 
3 658 641 740 
3 641 704 740 
3 622 602 755 
3 492 747 748 
3 102 80 754 
3 735 734 746 
3 469 447 745 
3 743 748 747 
3 537 191 743 
3 744 752 751 
3 751 124 753 
3 734 733 746 
3 733 491 746 
3 744 748 743 
3 743 191 752 
3 744 742 749 
3 741 750 742 
3 146 124 751 
3 360 359 756 
3 742 744 751 
3 742 751 753 
3 743 752 744 
3 741 742 753 
3 602 731 755 
3 736 360 756 
3 754 753 102 
3 753 124 102 
3 731 730 755 
3 730 641 755 
3 359 351 756 
3 351 737 756 
3 724 607 757 
3 14 736 758 
3 13 14 758 
3 749 750 759 
3 750 448 759 
3 470 492 759 
3 492 748 759 
