ply
format ascii 1.0
comment created by PLYWriter
element vertex 760
property float x
property float y
property float z
element face 1516
property list uchar int vertex_indices
end_header
-0.057126667 0.031173123 0.18755704 
-0.057784934 0.028319063 0.18829532 
-0.05806484 0.025553811 0.18972722 
-0.058328032 0.022691496 0.19133754 
-0.05832647 0.019926919 0.19282326 
-0.05791577 0.016893616 0.19402874 
-0.053069815 0.033363905 0.18379691 
-0.054069493 0.03060089 0.18557183 
-0.053804167 0.027680542 0.18613228 
-0.054356728 0.024850594 0.18765292 
-0.05482481 0.022161096 0.18966725 
-0.05566308 0.019471321 0.1917551 
-0.055470433 0.01679015 0.19329943 
-0.0556466 0.013501263 0.19416545 
-0.05529918 0.010063681 0.195533 
-0.048162695 0.03589384 0.17983893 
-0.049186084 0.033486973 0.18112555 
-0.049693476 0.030260801 0.18290453 
-0.049955748 0.027384816 0.18463735 
-0.050654646 0.024704915 0.18678653 
-0.05182894 0.021667862 0.18855067 
-0.05229568 0.01913712 0.19085616 
-0.052426677 0.016455548 0.19309412 
-0.052832026 0.012978873 0.19401644 
-0.05347003 0.009030306 0.19627991 
-0.05360691 0.0054033822 0.19939849 
-0.05332871 0.001999037 0.20238921 
-0.04461493 0.038351573 0.1777337 
-0.04524168 0.035521872 0.17872511 
-0.046135094 0.033118423 0.18072812 
-0.04674868 0.030377127 0.18247998 
-0.047431104 0.027479311 0.18485521 
-0.048119 0.02439516 0.1874796 
-0.04860228 0.021624094 0.1895184 
-0.049211524 0.018951956 0.19151156 
-0.049089015 0.01614003 0.19329627 
-0.049848475 0.0121913925 0.19430304 
-0.04986969 0.007966908 0.19513026 
-0.0503353 0.0031443085 0.19856288 
-0.050546847 -0.00039616766 0.20383655 
-0.051616218 -0.0019786176 0.20790425 
-0.05205502 -0.0039930027 0.21180463 
-0.041210078 0.04080332 0.17701098 
-0.042032856 0.038617335 0.17774619 
-0.042422578 0.036016792 0.17904826 
-0.043253507 0.03338824 0.18103863 
-0.04398264 0.030636694 0.18329918 
-0.044223756 0.027389962 0.18565075 
-0.044810485 0.024256434 0.1880848 
-0.045483734 0.02132703 0.19002058 
-0.045768008 0.018368172 0.19144097 
-0.045844562 0.015704103 0.19320424 
-0.046423994 0.0105729755 0.1937518 
-0.04692339 0.0057754936 0.19414632 
-0.046512716 0.0009869164 0.19777425 
-0.046786852 -0.0014983884 0.204313 
-0.04810612 -0.0034069093 0.20875463 
-0.049281284 -0.0049616573 0.21285422 
-0.05022888 -0.006441755 0.21565507 
-0.05086267 -0.008781551 0.21888301 
-0.038784154 0.041528326 0.17676452 
-0.039129686 0.03876742 0.17850938 
-0.039571986 0.036124576 0.17988774 
-0.040446866 0.0335492 0.18179996 
-0.040790446 0.030453691 0.18400393 
-0.041342434 0.026570886 0.18632893 
-0.04178503 0.023871424 0.18862478 
-0.042413406 0.021222843 0.19042838 
-0.042620275 0.018130641 0.19177933 
-0.043156702 0.01471822 0.19353592 
-0.042793337 0.009874815 0.19412553 
-0.043874063 0.00031444314 0.19303395 
-0.042025935 -0.0040438795 0.19631404 
-0.043615058 -0.002994049 0.20527178 
-0.04481817 -0.00475434 0.20974563 
-0.045676626 -0.0053023 0.21380264 
-0.046958763 -0.007334338 0.21652839 
-0.048533417 -0.010116607 0.21992758 
-0.048723698 -0.012674839 0.22311535 
-0.048061617 -0.016288508 0.22432436 
-0.035624973 0.043427013 0.1756271 
-0.036002837 0.041816488 0.17721029 
-0.036223434 0.039041474 0.17895624 
-0.036757145 0.036215596 0.18043648 
-0.037494898 0.033678617 0.18267663 
-0.037936397 0.030314723 0.18500637 
-0.03846716 0.026661152 0.18718122 
-0.038964435 0.02425229 0.18973663 
-0.0395327 0.021264294 0.19143786 
-0.03956486 0.01810179 0.19263682 
-0.03950699 0.013679288 0.19462727 
-0.03959158 0.009226492 0.1956008 
-0.041321542 0.0016102914 0.1960974 
-0.039886523 -0.0028456813 0.1988665 
-0.040117342 -0.0032896479 0.20665373 
-0.04171156 -0.0043565193 0.21130835 
-0.042743903 -0.006122128 0.21495548 
-0.043463215 -0.00859982 0.21704073 
-0.044194527 -0.01136266 0.21918933 
-0.044208467 -0.014701485 0.22087945 
-0.04484403 -0.018629838 0.22474976 
-0.043521985 -0.021090208 0.22633663 
-0.032922667 0.043856103 0.17609157 
-0.033106294 0.042452797 0.17766258 
-0.03311028 0.039458342 0.1796575 
-0.033432763 0.036683634 0.18108739 
-0.034149516 0.03399854 0.18349981 
-0.03473714 0.030493256 0.18671988 
-0.035405114 0.02753028 0.1884558 
-0.03589335 0.02448191 0.1904494 
-0.03628226 0.021052698 0.19229096 
-0.03616809 0.017762713 0.19432013 
-0.03635421 0.013397356 0.19623691 
-0.036548316 0.0099252835 0.19704819 
-0.036877885 0.004793993 0.19952898 
-0.036953326 -5.8044818e-05 0.20269375 
-0.037809134 -0.0020107988 0.20802684 
-0.038416747 -0.003870583 0.21261723 
-0.039095428 -0.006362571 0.21558174 
-0.039703123 -0.00933874 0.21709141 
-0.040967118 -0.012388334 0.21975087 
-0.040432874 -0.01579543 0.22068404 
-0.040772393 -0.019229127 0.22351837 
-0.040175345 -0.021551244 0.22607294 
-0.029918227 0.04395038 0.17673175 
-0.029910319 0.0423198 0.17816325 
-0.030201139 0.039859887 0.18009353 
-0.030533757 0.037148427 0.18253036 
-0.031072022 0.03406023 0.18473233 
-0.031688854 0.03072301 0.18775502 
-0.032292973 0.027899511 0.18950078 
-0.032730844 0.024540197 0.19140118 
-0.032545127 0.021423267 0.19439161 
-0.032780513 0.017540066 0.19566362 
-0.033334028 0.014186463 0.19842039 
-0.033641245 0.009671136 0.19872138 
-0.033484217 0.0051958575 0.2014896 
-0.033746805 0.0015505636 0.20468882 
-0.034680273 -0.00091628736 0.20945252 
-0.03540771 -0.0032055809 0.21316013 
-0.035727546 -0.0063501317 0.21582878 
-0.036567535 -0.008912949 0.21754687 
-0.03747947 -0.012445258 0.21997772 
-0.037415393 -0.016039863 0.22166152 
-0.03718007 -0.019579725 0.22313972 
-0.036239073 -0.021592261 0.22555114 
-0.026858365 0.044218283 0.1771068 
-0.026917582 0.042379122 0.17862435 
-0.027342299 0.039750423 0.18033245 
-0.027507054 0.03731442 0.18309155 
-0.027810516 0.034282893 0.18583739 
-0.02832873 0.030990155 0.18832585 
-0.028961241 0.028090835 0.19040295 
-0.029054932 0.024853397 0.19244274 
-0.029140193 0.021010108 0.19542497 
-0.029762138 0.017218454 0.19819872 
-0.02999658 0.014183015 0.19999634 
-0.030333333 0.0108287195 0.20115982 
-0.03059437 0.00676996 0.2044612 
-0.03061453 0.003053767 0.20694587 
-0.03180662 -6.549319e-05 0.21157102 
-0.032463286 -0.00315605 0.21431172 
-0.03314336 -0.006320143 0.21775179 
-0.033520237 -0.008890332 0.21824655 
-0.03403369 -0.012693116 0.2206269 
-0.03433937 -0.016407995 0.22362196 
-0.03327782 -0.019319285 0.22444332 
-0.03303079 -0.021776116 0.22701661 
-0.023991825 0.044454407 0.17797142 
-0.024107078 0.04269657 0.179449 
-0.024189625 0.039713044 0.18087779 
-0.024467338 0.03717366 0.18336825 
-0.024806378 0.034444343 0.18630476 
-0.025040386 0.03166841 0.18893214 
-0.025655974 0.02812856 0.19152991 
-0.025960559 0.024799349 0.1941241 
-0.025816122 0.02067066 0.19725722 
-0.026338737 0.016755994 0.1998828 
-0.026403971 0.014055557 0.20222089 
-0.026698012 0.011027835 0.20365182 
-0.027555114 0.0072918185 0.2076056 
-0.02798355 0.0039622327 0.21025507 
-0.028921574 0.0005289444 0.214418 
-0.029264258 -0.0033552703 0.21662168 
-0.030115366 -0.007237973 0.21890403 
-0.030302225 -0.0100977775 0.22038244 
-0.030542688 -0.01339383 0.22202796 
-0.030657087 -0.015928553 0.22437783 
-0.029714966 -0.019097986 0.22553419 
-0.03005656 -0.022667235 0.22764282 
-0.03039879 -0.024896363 0.2317035 
-0.020980312 0.04482001 0.17900927 
-0.020973865 0.042967986 0.1805205 
-0.021219801 0.040094424 0.18219355 
-0.02136715 0.03728853 0.1837156 
-0.02161835 0.03450297 0.1872523 
-0.022051478 0.031738292 0.18955031 
-0.02239643 0.028682323 0.19241251 
-0.022835422 0.025246989 0.19545841 
-0.023040762 0.020349484 0.19940987 
-0.023233654 0.016587606 0.20230474 
-0.022762477 0.013831937 0.20499167 
-0.023054242 0.010890345 0.20666356 
-0.02417671 0.00712218 0.2098877 
-0.025297554 0.0042719976 0.21361627 
-0.025249772 0.0003215116 0.21554919 
-0.02569871 -0.0039086402 0.21771723 
-0.026769144 -0.0072979634 0.2206795 
-0.02690305 -0.010191059 0.22234161 
-0.026621245 -0.0130767785 0.22339848 
-0.026732722 -0.016030438 0.22643358 
-0.026388763 -0.018891515 0.22686335 
-0.026784835 -0.022927439 0.22811405 
-0.0265606 -0.025987243 0.23209214 
-0.01811191 0.043244686 0.18177432 
-0.018308109 0.040698953 0.18396308 
-0.018306788 0.037670147 0.18534938 
-0.01870188 0.03477217 0.18751276 
-0.01888846 0.031832714 0.19003887 
-0.019288408 0.02888355 0.19263418 
-0.019505441 0.025596745 0.19698644 
-0.019893274 0.021367384 0.2001452 
-0.019997846 0.017253716 0.2032486 
-0.0199848 0.013758149 0.20560685 
-0.02024211 0.010209609 0.20831431 
-0.020678982 0.0069613094 0.2106868 
-0.021746311 0.003232993 0.21371882 
-0.021674989 1.1394868e-05 0.21608442 
-0.022340478 -0.0032679038 0.21860565 
-0.023117958 -0.0069044186 0.22226502 
-0.023321547 -0.010096298 0.22375113 
-0.022876149 -0.01258788 0.22465947 
-0.022459507 -0.016119054 0.22724357 
-0.022578169 -0.019214228 0.22744295 
-0.022355499 -0.022501176 0.22761653 
-0.022739822 -0.026451657 0.23268732 
-0.015211363 0.041083153 0.18494293 
-0.0155591555 0.038043458 0.18662557 
-0.015661001 0.035081275 0.18854862 
-0.015836244 0.03216303 0.19097963 
-0.016196338 0.029318351 0.19324292 
-0.01622549 0.025898974 0.1976783 
-0.016656635 0.021861421 0.20119278 
-0.016619898 0.017971374 0.20344645 
-0.017016718 0.014499974 0.20613089 
-0.016861685 0.010618793 0.20930074 
-0.01744766 0.0077814674 0.21207853 
-0.01821396 0.004151795 0.21472347 
-0.018296935 0.0011989536 0.21752457 
-0.018855128 -0.00226794 0.22069058 
-0.019226687 -0.005815598 0.22374089 
-0.019409087 -0.008869302 0.2255865 
-0.018729499 -0.012279757 0.22646716 
-0.018449683 -0.016063025 0.22751108 
-0.019097364 -0.019244526 0.22828849 
-0.018928785 -0.02310631 0.22967099 
-0.019133996 -0.026672265 0.23450069 
-0.012600238 0.038133916 0.18785706 
-0.012674743 0.035075504 0.18971363 
-0.01287851 0.0320232 0.19188891 
-0.013077597 0.02916727 0.19370142 
-0.013114465 0.026103644 0.19708231 
-0.013513089 0.022434728 0.20149942 
-0.013850687 0.019007491 0.20468538 
-0.013752442 0.015343918 0.20765528 
-0.013856689 0.011811412 0.21057142 
-0.013978617 0.008475227 0.21286094 
-0.0139943175 0.005185884 0.21540768 
-0.01431183 0.002023422 0.21852113 
-0.014848747 -0.0011770406 0.22155568 
-0.015464253 -0.0046222294 0.22413324 
-0.015235964 -0.008367621 0.22566035 
-0.014942317 -0.012504914 0.22718701 
-0.014934699 -0.016286802 0.22836924 
-0.015224763 -0.01979166 0.23002493 
-0.015452508 -0.023601353 0.23265259 
-0.015324681 -0.026633179 0.23651963 
-0.009674744 0.035113737 0.18990979 
-0.0094177965 0.032268967 0.19211388 
-0.009735407 0.029382309 0.19443572 
-0.009809944 0.026473308 0.1976212 
-0.010476699 0.023125306 0.20164707 
-0.01071786 0.019731168 0.20582686 
-0.010455586 0.016347192 0.20893629 
-0.010605277 0.012704884 0.21127948 
-0.01054306 0.009285443 0.21341254 
-0.010574219 0.006035682 0.2165073 
-0.01082659 0.0026131861 0.21973583 
-0.010933631 -0.0011090874 0.22186975 
-0.011425826 -0.0043253712 0.22439072 
-0.011600872 -0.008354697 0.22609559 
-0.011358517 -0.0124258185 0.22637177 
-0.0112861665 -0.016074251 0.22956693 
-0.011394356 -0.01990734 0.23121843 
-0.011644147 -0.023750855 0.23461759 
-0.012258647 -0.02628922 0.23718044 
-0.0061081145 0.032306366 0.19252178 
-0.006264277 0.029630598 0.19536985 
-0.006624577 0.026738726 0.19906528 
-0.007005817 0.023738906 0.20198269 
-0.007468548 0.020435426 0.20598702 
-0.007077226 0.017174173 0.20916528 
-0.0071209134 0.013412358 0.21140505 
-0.006766406 0.010016459 0.21322876 
-0.00640435 0.006222955 0.21649632 
-0.006759906 0.0027979165 0.21961878 
-0.007165575 -0.0009224563 0.22268805 
-0.007313047 -0.0042635757 0.22373408 
-0.00757184 -0.0081069255 0.22610764 
-0.007305852 -0.01229793 0.22661151 
-0.0075661554 -0.016396474 0.22999138 
-0.007851264 -0.019807464 0.23200636 
-0.008563477 -0.022830026 0.23382862 
-0.0034667598 0.031775475 0.19411439 
-0.0029772478 0.02958929 0.19733205 
-0.0031676458 0.026797516 0.19968055 
-0.003384237 0.023757573 0.2023014 
-0.0033840546 0.020658024 0.20543578 
-0.003497193 0.01738382 0.20843714 
-0.003359621 0.013677565 0.21106406 
-0.003148054 0.010189151 0.21322131 
-0.002837359 0.0068642288 0.21633081 
-0.0030803762 0.002886873 0.218971 
-0.0031743497 -0.00066628854 0.22170609 
-0.003339456 -0.0045081405 0.2233598 
-0.0037273387 -0.008172576 0.22586548 
-0.0037871404 -0.012123355 0.2269335 
-0.0046380977 -0.015540433 0.22935441 
0.00038343653 0.02946355 0.19821157 
0.00032641162 0.026976496 0.20003715 
0.00031880618 0.02416194 0.20210065 
0.00010787137 0.020786121 0.20472746 
0.0001609702 0.017670332 0.20735464 
0.0005324584 0.014002717 0.21004637 
0.00051943137 0.01059656 0.21254416 
0.0010499154 0.0076555773 0.21448666 
0.00067099807 0.0038104681 0.2168652 
0.0008695362 -6.750021e-05 0.21962348 
0.00029068047 -0.0037709454 0.22248034 
-0.0009557989 -0.0073114885 0.22613046 
0.0038209127 0.027579142 0.20030294 
0.0041890494 0.024749778 0.20195988 
0.004202968 0.02149385 0.20358115 
0.0040304447 0.018219326 0.20634924 
0.00428252 0.014771087 0.20843425 
0.0038392446 0.011593391 0.21085879 
-0.057898 0.035575 0.19312 
-0.058681 0.033478 0.19464 
-0.059087 0.031093 0.19648 
-0.059437 0.028587 0.19844 
-0.059657 0.026104 0.20041 
-0.059821 0.023744 0.20229 
-0.054525 0.039179 0.19102 
-0.05541911 0.03682069 0.19265914 
-0.05550104 0.03482971 0.19429784 
-0.055807136 0.032259878 0.19621916 
-0.056271177 0.02957781 0.19826224 
-0.056680936 0.026955782 0.20040399 
-0.057180252 0.024318732 0.20218042 
-0.058153 0.021717 0.20436 
-0.058083 0.018744 0.20681 
-0.050046 0.042977 0.18904 
-0.051218 0.040869 0.19047 
-0.052114557 0.038480755 0.19215629 
-0.05247772 0.035706505 0.1941932 
-0.052566066 0.03284672 0.19646215 
-0.052928843 0.030074941 0.19848579 
-0.053258527 0.027151203 0.20046176 
-0.053758748 0.024499735 0.20235346 
-0.054566596 0.021322004 0.20433223 
-0.055260494 0.01791653 0.20732035 
-0.056375 0.014174 0.21096 
-0.056079 0.010721 0.21385 
-0.04665 0.045804 0.18759 
-0.047423396 0.04379722 0.18903014 
-0.048078828 0.041444026 0.19078389 
-0.04879465 0.0389482 0.19258752 
-0.049511313 0.036181375 0.19462009 
-0.049385615 0.032937862 0.19694734 
-0.049608365 0.029884491 0.19902724 
-0.050064906 0.027010297 0.20099181 
-0.050373152 0.024023991 0.20302604 
-0.051221587 0.020676874 0.2048464 
-0.05176343 0.017285345 0.20742972 
-0.052578434 0.01307209 0.21068002 
-0.053165775 0.0093776 0.21486369 
-0.054293 0.00592 0.21821 
-0.054385 0.0027001 0.22082 
-0.043317 0.048081 0.18656 
-0.044103272 0.04631258 0.18776187 
-0.04457755 0.043983955 0.18951184 
-0.04501205 0.04149545 0.19141908 
-0.045688886 0.03875556 0.19336891 
-0.046024058 0.035857562 0.19549105 
-0.046122186 0.032597225 0.19780865 
-0.046379767 0.029571824 0.19974789 
-0.046728823 0.026275722 0.20144005 
-0.047099583 0.023241315 0.2033083 
-0.047764596 0.01972962 0.20551169 
-0.04804231 0.0158642 0.20755391 
-0.048619956 0.012298002 0.21123101 
-0.04966356 0.008248562 0.2151946 
-0.050680272 0.0052088294 0.21856946 
-0.051676534 0.002345242 0.22147913 
-0.052313 -0.00041281 0.22388 
-0.052534 -0.0033181 0.22619 
-0.040856 0.048977 0.18645 
-0.041249335 0.046448223 0.1882755 
-0.041667063 0.044020146 0.1901596 
-0.042110745 0.041367576 0.19213766 
-0.042556692 0.038565733 0.19423158 
-0.042885367 0.035356294 0.19648652 
-0.04318353 0.032185797 0.19860077 
-0.043504484 0.029306332 0.20041722 
-0.043588877 0.026248846 0.20182627 
-0.043935943 0.02272755 0.2036673 
-0.044217188 0.018497957 0.20581469 
-0.044269543 0.014984921 0.20820595 
-0.044671666 0.011398988 0.21191536 
-0.04619545 0.0075153476 0.21583046 
-0.047297418 0.0046779257 0.21900511 
-0.047969747 0.0021887328 0.22187534 
-0.04888737 -0.0005835312 0.22437635 
-0.049919106 -0.0038163464 0.22705045 
-0.050262 -0.007415 0.2301 
-0.050065 -0.0099304 0.2322 
-0.037833 0.051152 0.18543 
-0.038073692 0.049428694 0.18672748 
-0.038401324 0.046792593 0.18868598 
-0.03883014 0.044071898 0.19071285 
-0.039237354 0.041371785 0.19280773 
-0.03960849 0.038159005 0.19513834 
-0.039945137 0.034962542 0.1973806 
-0.040320165 0.031906288 0.19926058 
-0.04065185 0.028645787 0.20112565 
-0.040849287 0.025622718 0.20261322 
-0.04140467 0.021929465 0.20445132 
-0.041111715 0.01781112 0.20578763 
-0.041263666 0.013700268 0.20871896 
-0.04207327 0.0103944335 0.21236321 
-0.042870868 0.0071374914 0.21622558 
-0.04382395 0.004503138 0.21947101 
-0.044545196 0.0019455357 0.22234121 
-0.045156136 -0.00045733375 0.22491418 
-0.045970764 -0.0034703682 0.22745351 
-0.046813227 -0.006432077 0.23016475 
-0.047630273 -0.010299046 0.2331651 
-0.046679 -0.012748 0.23535 
-0.035124 0.051519 0.18581 
-0.03518678 0.04986291 0.18707357 
-0.03529523 0.04715014 0.18917614 
-0.035570752 0.0446372 0.19106625 
-0.036057193 0.04164343 0.19329728 
-0.036503233 0.03782016 0.19612488 
-0.036975034 0.034848966 0.19809587 
-0.037349366 0.03150191 0.2001469 
-0.03765202 0.028081736 0.20195992 
-0.037908215 0.024285926 0.2035759 
-0.038293123 0.020749629 0.20527555 
-0.03818163 0.017611472 0.20634194 
-0.03836049 0.013431539 0.20926458 
-0.039176084 0.010264988 0.21275267 
-0.039780047 0.0070430995 0.21651775 
-0.04056998 0.0041858247 0.22009636 
-0.04126647 0.0017845782 0.22300878 
-0.041756827 -0.00026006653 0.22541521 
-0.042549517 -0.0029730555 0.22800139 
-0.043268528 -0.0059696827 0.23065966 
-0.04366842 -0.009520166 0.23366082 
-0.043446 -0.012583 0.23602 
-0.032113 0.051643 0.18646 
-0.032167226 0.050053395 0.18767783 
-0.03243401 0.04735624 0.18969493 
-0.032649238 0.04451692 0.19182867 
-0.033029314 0.041445524 0.19422191 
-0.033450425 0.03768388 0.19690304 
-0.033973802 0.03470341 0.19889975 
-0.034335054 0.031285472 0.20106953 
-0.034607112 0.027450452 0.20298818 
-0.034998883 0.023666421 0.20447686 
-0.035499122 0.020061402 0.20609318 
-0.03544722 0.01720931 0.20735647 
-0.035501756 0.013454357 0.2100323 
-0.03613995 0.01019139 0.21320695 
-0.036586985 0.0073293094 0.21693848 
-0.03737235 0.004545946 0.22059348 
-0.038088866 0.00200953 0.22376223 
-0.038586188 -0.00023102335 0.22611926 
-0.03947782 -0.0031094153 0.22892234 
-0.040048335 -0.006039799 0.23176098 
-0.04019752 -0.0090299435 0.23414011 
-0.039704 -0.012041 0.23651 
-0.029233 0.051989 0.1869 
-0.029198412 0.050333187 0.18821888 
-0.02964165 0.047638196 0.1902452 
-0.029669713 0.04475853 0.1924494 
-0.029873218 0.041537326 0.19489987 
-0.030371586 0.038070776 0.19735287 
-0.0308723 0.034723345 0.19958359 
-0.03115707 0.03137477 0.20176649 
-0.031548325 0.027021386 0.20390001 
-0.03211722 0.022851203 0.20572242 
-0.032555312 0.019699696 0.20724052 
-0.032264665 0.017052751 0.20849806 
-0.0325788 0.013435887 0.21125507 
-0.03304359 0.010633905 0.21439272 
-0.03359548 0.007443178 0.21793869 
-0.03433116 0.004829757 0.22125624 
-0.034998063 0.0018436463 0.22492267 
-0.035628743 -0.00044256687 0.22726637 
-0.036448285 -0.0032476857 0.23013262 
-0.03662704 -0.0065426393 0.23297422 
-0.03644619 -0.009443922 0.23531428 
-0.036454 -0.012426 0.23764 
-0.026317 0.052085 0.18755 
-0.026201917 0.050468653 0.18879235 
-0.026517637 0.047913216 0.19076939 
-0.026743041 0.045116764 0.19298083 
-0.026890965 0.041948963 0.1953196 
-0.02717339 0.038677093 0.1977699 
-0.027649876 0.03496647 0.20039724 
-0.028127154 0.031337395 0.20289929 
-0.02851643 0.026632315 0.20535131 
-0.029070107 0.02251876 0.20720991 
-0.028843818 0.019762896 0.20887272 
-0.028852647 0.01714731 0.21047124 
-0.029430363 0.013163542 0.21338288 
-0.030007496 0.010541554 0.21617003 
-0.030370712 0.007593592 0.21988583 
-0.030973287 0.004878447 0.22280736 
-0.031742092 0.0017239493 0.22627293 
-0.032105427 -0.00067687395 0.2287157 
-0.032943238 -0.0033425835 0.23128025 
-0.033135124 -0.006545704 0.23417054 
-0.032785144 -0.009545806 0.2363234 
-0.03325963 -0.012646293 0.2386725 
-0.033741 -0.016125 0.24134 
-0.023349 0.052231 0.18817 
-0.023199834 0.050595462 0.18944381 
-0.02341137 0.047973365 0.19155079 
-0.023662964 0.04529139 0.19351234 
-0.023779588 0.042050313 0.19607052 
-0.024066363 0.03891841 0.19840355 
-0.02444505 0.03550712 0.20117997 
-0.024771936 0.03156222 0.20388284 
-0.024888232 0.026955198 0.20649457 
-0.02539781 0.02294428 0.20880726 
-0.024971107 0.01955641 0.21100259 
-0.025641225 0.017000206 0.21282065 
-0.026219305 0.013514316 0.21536046 
-0.026848538 0.010573545 0.21835019 
-0.026945537 0.007815907 0.22119041 
-0.027405143 0.0049388018 0.22418807 
-0.028038945 0.001640497 0.22761829 
-0.028436346 -0.0010238988 0.23025048 
-0.028796889 -0.0035277298 0.23257656 
-0.029121896 -0.0067432267 0.23524596 
-0.02941546 -0.009627894 0.23725207 
-0.030122058 -0.01232972 0.23952316 
-0.03019 -0.016568 0.24259 
-0.020429 0.050381 0.19041 
-0.020267488 0.0480506 0.19230546 
-0.02039316 0.04544942 0.1942857 
-0.020768574 0.042532496 0.19651699 
-0.020870434 0.039324127 0.1990594 
-0.021149984 0.03622103 0.20147984 
-0.021299656 0.031844925 0.20473416 
-0.021608103 0.028239414 0.20727645 
-0.021977875 0.0241495 0.20984054 
-0.022090523 0.02045649 0.21220528 
-0.022411145 0.01738468 0.21464106 
-0.022984538 0.013936899 0.21700475 
-0.023537861 0.0108166225 0.21996287 
-0.023684949 0.00798967 0.22272313 
-0.023936858 0.0050504017 0.22567077 
-0.024276368 0.0014741308 0.22897707 
-0.024876837 -0.001543684 0.23178647 
-0.024927782 -0.0037598447 0.23388018 
-0.024696564 -0.0070279776 0.2365523 
-0.025199458 -0.009491601 0.23831293 
-0.02596285 -0.011978857 0.24017493 
-0.026489 -0.016805 0.2437 
-0.017256 0.048036 0.19312 
-0.017387265 0.045498878 0.19509794 
-0.017541409 0.04268265 0.19724591 
-0.017725358 0.039640106 0.19968331 
-0.018069917 0.036555555 0.20202781 
-0.017986331 0.032565985 0.20523913 
-0.018303497 0.028577823 0.20808826 
-0.018820168 0.025223231 0.2103919 
-0.019138554 0.022060314 0.21270256 
-0.019040937 0.018104034 0.21575294 
-0.01956796 0.014693344 0.21836795 
-0.01996173 0.011561326 0.22102249 
-0.020025237 0.0084238965 0.2239437 
-0.02013781 0.0047768108 0.22718622 
-0.020473441 0.0014838206 0.23019207 
-0.020853113 -0.0014684246 0.23290539 
-0.020735933 -0.00396627 0.23513743 
-0.020580832 -0.0066774143 0.23731501 
-0.021299705 -0.009764185 0.2395339 
-0.021887433 -0.012951932 0.24194013 
-0.022633 -0.017556 0.24528 
-0.014544 0.0452 0.19611 
-0.014398565 0.04262874 0.19808696 
-0.014510139 0.03972057 0.20044924 
-0.014863744 0.03697796 0.20265648 
-0.014790924 0.033651397 0.20536129 
-0.015138212 0.029386228 0.20867202 
-0.015422468 0.02570862 0.21140158 
-0.015593013 0.022121081 0.21408162 
-0.015860539 0.018493189 0.2168267 
-0.016049098 0.015418505 0.21926297 
-0.015961256 0.012336814 0.22195442 
-0.01610926 0.008626136 0.2249831 
-0.016497264 0.0047218613 0.22826284 
-0.016621735 0.0016794569 0.23104696 
-0.016782818 -0.0010181168 0.23345971 
-0.016752359 -0.0041708588 0.23617288 
-0.016906224 -0.007147365 0.23851734 
-0.017267305 -0.010099987 0.24095173 
-0.017901428 -0.014176653 0.24390447 
-0.018345 -0.018081 0.24678 
-0.011732 0.04267 0.19887 
-0.011241873 0.040294707 0.20088597 
-0.011384081 0.037402865 0.20310123 
-0.0114524 0.03401845 0.20586325 
-0.011885575 0.029879883 0.20914349 
-0.012015264 0.025962163 0.21224567 
-0.012003205 0.022477703 0.21495745 
-0.012554551 0.019069662 0.2175163 
-0.012496035 0.01607118 0.21978946 
-0.012110633 0.012561641 0.2229044 
-0.012333548 0.008925055 0.22598082 
-0.012589736 0.0054045217 0.22899932 
-0.012723659 0.0022200232 0.23157865 
-0.013234162 -0.0009020612 0.23413035 
-0.013062668 -0.0034355065 0.23639056 
-0.013223045 -0.0072250734 0.23948331 
-0.013554323 -0.010315885 0.2418721 
-0.014042589 -0.014868356 0.2452687 
-0.014929 -0.017639 0.24727 
-0.0081946 0.040334 0.20166 
-0.008062826 0.037581876 0.20395857 
-0.008317064 0.03383312 0.20679729 
-0.008398693 0.030642243 0.20943807 
-0.008715603 0.026627965 0.21262963 
-0.008588564 0.023107564 0.21538693 
-0.008738706 0.01982798 0.21793962 
-0.008896873 0.016830755 0.22027245 
-0.008451508 0.013073215 0.22335936 
-0.008502156 0.009357899 0.22662862 
-0.008674611 0.0056376834 0.22979037 
-0.009015285 0.0027320385 0.2319182 
-0.009352243 -0.0006516958 0.23476481 
-0.0094589675 -0.0032606192 0.23699963 
-0.009638795 -0.0072147357 0.2401742 
-0.01028 -0.010639 0.24273 
-0.011121 -0.013447 0.24481 
-0.0055146 0.039605 0.20293 
-0.0046559917 0.037167665 0.20515756 
-0.004663916 0.034314822 0.20746762 
-0.0047886195 0.031229595 0.20987396 
-0.0049154446 0.027687158 0.2126246 
-0.005007968 0.024177821 0.21551082 
-0.0049515925 0.020677574 0.21825852 
-0.0051247124 0.017456023 0.22078495 
-0.0047433716 0.014155117 0.22364853 
-0.0049057505 0.010496176 0.22677062 
-0.0048935423 0.0065208515 0.22983871 
-0.005378142 0.0034634473 0.23220974 
-0.005631059 -0.00024968758 0.23533127 
-0.0061969 -0.0031128 0.23761 
-0.0071032 -0.0063473 0.24002 
-0.0015804 0.036841 0.20617 
-0.0012401601 0.034752876 0.20783272 
-0.0012863863 0.031934977 0.21019518 
-0.0013049156 0.02890253 0.21266489 
-0.001316452 0.025741529 0.21545328 
-0.0012864484 0.02212626 0.21823831 
-0.0012717405 0.018777033 0.22086439 
-0.0010313 0.015794 0.22347 
-0.0014019 0.012076 0.22642 
-0.0015742 0.0082159 0.22952 
-0.0022256 0.0044729 0.23241 
-0.0032191 0.0004202 0.23547 
0.0018553 0.035081 0.20846 
0.0022782 0.032625 0.21057 
0.002266 0.02993 0.21277 
0.0021046 0.026606 0.21544 
0.0020287 0.023613 0.21786 
0.0016399 0.020347 0.22043 
-0.007866329 -0.0020067685 0.23629244 
-0.04783798 0.031266876 0.19848675 
-0.058352455 0.02947195 0.19224569 
-0.02191077 0.046649706 0.19296572 
-0.016340619 0.038252763 0.2011252 
-0.016166965 -0.016190983 0.24575166 
-0.015727967 0.0065060346 0.21369755 
-0.058811117 0.024229499 0.19574532 
-0.046167415 -0.017385956 0.2286849 
-0.013031206 0.03857192 0.2017748 
-0.023452101 0.021324465 0.21069375 
-0.05895433 0.022407109 0.19818282 
-0.011740116 -0.020276325 0.24055566 
-0.033017036 0.05052902 0.18713434 
-0.048730142 -0.014265341 0.22561179 
-0.058572065 0.025788864 0.19323614 
-0.057817202 0.030924285 0.19005854 
-0.024788717 0.019012196 0.1992984 
-0.01767812 0.013843605 0.22002462 
-0.058996413 0.023066066 0.19702753 
-0.057082444 0.035077505 0.19368634 
-0.043922767 0.040234093 0.19267277 
-0.040363465 0.042853147 0.19140102 
-0.043324035 0.042665217 0.19083646 
-0.036695212 0.048414804 0.18784809 
-0.03384624 0.048469383 0.18845618 
-0.022070222 0.02234399 0.21087158 
-0.019415693 0.030895805 0.20609494 
-0.019232545 0.037733365 0.20077935 
-0.053432122 0.0015048804 0.22179024 
-0.046479363 0.00082989637 0.22343697 
-0.016667677 0.02766709 0.20947792 
-0.0139705725 0.030873893 0.20787056 
-0.014380979 0.020100437 0.2161568 
-0.010431913 0.031570114 0.20819809 
-0.01441382 0.017448584 0.21817076 
0.00045086234 0.018510839 0.22157557 
-0.009813623 -0.017814262 0.23975548 
-0.013331713 -0.022727167 0.24143511 
-0.01656094 -0.023181867 0.24093585 
-0.028523518 -0.02146482 0.23751423 
-0.03824172 -0.017296722 0.23151284 
-0.04192406 -0.0179115 0.23093317 
-0.04506466 -0.018105865 0.23018326 
-0.056800675 0.017231015 0.19941773 
-0.059040554 0.02110215 0.19953178 
-0.058857907 0.025265384 0.19448955 
-0.058135323 0.030268034 0.19076037 
-0.010450161 -0.015637545 0.24230962 
-0.034026068 0.047544513 0.18102914 
-0.031019166 0.047525816 0.18171552 
-0.02513444 0.047964524 0.1827683 
-0.028057313 0.047829874 0.18218015 
-0.045941107 -0.015460897 0.2328498 
-0.042781316 -0.015161614 0.23363796 
-0.025738265 0.04999316 0.18519242 
-0.028647419 0.04986241 0.18459766 
-0.03157149 0.04955923 0.18417819 
-0.03457147 0.04953285 0.18351558 
-0.027448477 0.045861226 0.17971188 
-0.024551226 0.045902546 0.1803704 
-0.03041481 0.04564303 0.17924917 
-0.033440627 0.04558476 0.17865874 
-0.017452337 -0.020713687 0.24395841 
-0.057440747 0.0194499 0.2019064 
-0.016584298 0.030991891 0.2069797 
-0.056161918 0.01536042 0.19705202 
-0.031839747 0.050593615 0.18533021 
3 9 1 8 
3 8 19 9 
3 1 7 8 
3 9 2 1 
3 19 20 9 
3 8 18 19 
3 7 17 8 
3 9 10 2 
3 20 10 9 
3 20 21 10 
3 19 33 20 
3 18 32 19 
3 8 17 18 
3 17 31 18 
3 7 6 17 
3 10 3 2 
3 21 11 10 
3 20 34 21 
3 33 34 20 
3 33 50 34 
3 19 32 33 
3 32 49 33 
3 18 31 32 
3 31 47 32 
3 17 30 31 
3 6 16 17 
3 10 11 3 
3 11 4 3 
3 21 22 11 
3 34 22 21 
3 34 35 22 
3 50 35 34 
3 50 51 35 
3 33 49 50 
3 49 68 50 
3 32 48 49 
3 47 48 32 
3 47 65 48 
3 31 30 47 
3 30 46 47 
3 17 16 30 
3 16 29 30 
3 11 12 4 
3 22 12 11 
3 22 23 12 
3 35 36 22 
3 51 36 35 
3 51 52 36 
3 50 69 51 
3 68 69 50 
3 68 89 69 
3 49 67 68 
3 48 67 49 
3 48 66 67 
3 65 66 48 
3 65 86 66 
3 47 64 65 
3 46 64 47 
3 46 45 64 
3 30 29 46 
3 29 45 46 
3 29 28 45 
3 16 15 29 
3 12 5 4 
3 23 13 12 
3 22 36 23 
3 36 37 23 
3 52 37 36 
3 52 53 37 
3 51 69 52 
3 69 70 52 
3 89 90 69 
3 68 88 89 
3 67 88 68 
3 67 87 88 
3 66 87 67 
3 66 86 87 
3 86 108 87 
3 65 85 86 
3 64 85 65 
3 64 84 85 
3 45 63 64 
3 28 44 45 
3 29 15 28 
3 15 27 28 
3 12 13 5 
3 23 14 13 
3 37 24 23 
3 53 38 37 
3 52 70 53 
3 70 71 53 
3 69 90 70 
3 90 91 70 
3 89 111 90 
3 88 110 89 
3 87 109 88 
3 108 109 87 
3 108 130 109 
3 86 85 108 
3 85 107 108 
3 84 106 85 
3 64 63 84 
3 63 83 84 
3 45 44 63 
3 44 62 63 
3 28 27 44 
3 27 43 44 
3 23 24 14 
3 24 25 14 
3 37 38 24 
3 38 25 24 
3 38 26 25 
3 53 54 38 
3 71 54 53 
3 71 72 54 
3 70 91 71 
3 91 92 71 
3 90 112 91 
3 111 112 90 
3 111 133 112 
3 89 110 111 
3 110 132 111 
3 88 109 110 
3 109 131 110 
3 130 131 109 
3 130 152 131 
3 108 129 130 
3 107 129 108 
3 107 128 129 
3 85 106 107 
3 106 128 107 
3 106 127 128 
3 84 83 106 
3 83 105 106 
3 63 62 83 
3 62 61 83 
3 44 43 62 
3 43 61 62 
3 43 42 61 
3 27 42 43 
3 38 39 26 
3 71 92 72 
3 92 93 72 
3 91 113 92 
3 112 113 91 
3 112 134 113 
3 133 134 112 
3 133 155 134 
3 111 132 133 
3 132 154 133 
3 110 131 132 
3 131 153 132 
3 152 153 131 
3 152 174 153 
3 130 151 152 
3 129 151 130 
3 129 128 151 
3 128 150 151 
3 127 149 128 
3 106 105 127 
3 105 126 127 
3 83 82 105 
3 61 82 83 
3 61 60 82 
3 42 60 61 
3 93 73 72 
3 92 114 93 
3 113 114 92 
3 113 135 114 
3 134 135 113 
3 134 156 135 
3 155 156 134 
3 155 177 156 
3 133 154 155 
3 154 176 155 
3 132 153 154 
3 153 175 154 
3 174 175 153 
3 174 197 175 
3 152 173 174 
3 151 173 152 
3 151 150 173 
3 150 172 173 
3 128 149 150 
3 149 171 150 
3 127 148 149 
3 126 148 127 
3 126 125 148 
3 105 104 126 
3 82 104 105 
3 82 103 104 
3 60 81 82 
3 73 55 72 
3 93 94 73 
3 114 115 93 
3 135 136 114 
3 156 157 135 
3 177 178 156 
3 155 176 177 
3 715 713 409 
3 154 175 176 
3 175 198 176 
3 197 198 175 
3 197 219 198 
3 174 196 197 
3 173 196 174 
3 173 195 196 
3 172 195 173 
3 172 194 195 
3 150 171 172 
3 171 194 172 
3 171 170 194 
3 149 148 171 
3 148 170 171 
3 148 147 170 
3 125 147 148 
3 125 146 147 
3 126 104 125 
3 104 103 125 
3 103 102 125 
3 82 81 103 
3 81 80 103 
3 60 80 81 
3 73 56 55 
3 94 74 73 
3 93 116 94 
3 115 116 93 
3 115 138 116 
3 114 136 115 
3 136 137 115 
3 135 157 136 
3 157 158 136 
3 156 178 157 
3 178 179 157 
3 177 200 178 
3 200 201 178 
3 593 613 710 
3 198 199 176 
3 198 221 199 
3 219 220 198 
3 197 196 219 
3 196 218 219 
3 195 217 196 
3 194 217 195 
3 194 216 217 
3 170 193 194 
3 147 169 170 
3 146 168 147 
3 125 124 146 
3 102 124 125 
3 103 80 102 
3 56 40 55 
3 73 74 56 
3 74 57 56 
3 94 95 74 
3 116 117 94 
3 138 139 116 
3 115 137 138 
3 137 160 138 
3 136 159 137 
3 158 159 136 
3 158 180 159 
3 157 179 158 
3 179 180 158 
3 179 202 180 
3 178 201 179 
3 201 202 179 
3 201 223 202 
3 200 223 201 
3 200 222 223 
3 199 222 200 
3 199 221 222 
3 221 243 222 
3 198 220 221 
3 220 241 221 
3 219 240 220 
3 218 240 219 
3 218 239 240 
3 196 217 218 
3 217 238 218 
3 216 237 217 
3 194 193 216 
3 193 215 216 
3 170 192 193 
3 169 192 170 
3 169 191 192 
3 147 168 169 
3 168 191 169 
3 40 39 55 
3 56 41 40 
3 57 41 56 
3 57 58 41 
3 74 75 57 
3 95 75 74 
3 95 96 75 
3 94 117 95 
3 117 118 95 
3 116 139 117 
3 139 140 117 
3 138 161 139 
3 160 161 138 
3 160 182 161 
3 137 159 160 
3 159 181 160 
3 180 181 159 
3 180 203 181 
3 202 203 180 
3 202 224 203 
3 223 224 202 
3 223 245 224 
3 222 244 223 
3 243 244 222 
3 243 263 244 
3 221 242 243 
3 241 242 221 
3 241 262 242 
3 220 240 241 
3 240 261 241 
3 239 260 240 
3 218 238 239 
3 238 258 239 
3 217 237 238 
3 237 257 238 
3 216 236 237 
3 215 236 216 
3 215 214 236 
3 193 214 215 
3 193 192 214 
3 192 191 214 
3 39 54 55 
3 57 76 58 
3 75 76 57 
3 75 97 76 
3 96 97 75 
3 96 119 97 
3 95 118 96 
3 118 119 96 
3 118 140 119 
3 140 118 117 
3 139 161 140 
3 161 162 140 
3 182 183 161 
3 160 181 182 
3 181 204 182 
3 203 204 181 
3 203 225 204 
3 224 225 203 
3 224 245 225 
3 245 246 225 
3 223 244 245 
3 244 264 245 
3 263 264 244 
3 263 282 264 
3 243 262 263 
3 262 243 242 
3 241 261 262 
3 261 280 262 
3 240 260 261 
3 260 279 261 
3 239 259 260 
3 258 259 239 
3 258 277 259 
3 238 257 258 
3 257 277 258 
3 237 236 257 
3 76 59 58 
3 97 98 76 
3 119 120 97 
3 140 141 119 
3 162 141 140 
3 162 163 141 
3 161 183 162 
3 183 184 162 
3 182 205 183 
3 204 205 182 
3 204 226 205 
3 225 226 204 
3 225 247 226 
3 246 247 225 
3 605 606 701 
3 245 266 246 
3 245 265 266 
3 264 265 245 
3 264 283 265 
3 282 283 264 
3 282 300 283 
3 263 281 282 
3 262 281 263 
3 262 280 281 
3 280 298 281 
3 261 279 280 
3 279 297 280 
3 260 278 279 
3 259 278 260 
3 259 277 278 
3 277 296 278 
3 76 77 59 
3 98 77 76 
3 98 99 77 
3 97 120 98 
3 120 121 98 
3 119 141 120 
3 141 142 120 
3 163 142 141 
3 163 164 142 
3 162 184 163 
3 184 185 163 
3 183 206 184 
3 205 206 183 
3 205 227 206 
3 226 227 205 
3 226 247 227 
3 247 248 227 
3 3 4 699 
3 265 285 266 
3 283 284 265 
3 300 301 283 
3 282 299 300 
3 281 299 282 
3 281 298 299 
3 298 316 299 
3 280 297 298 
3 297 314 298 
3 279 296 297 
3 296 279 278 
3 77 78 59 
3 99 78 77 
3 99 79 78 
3 98 121 99 
3 121 122 99 
3 120 142 121 
3 142 143 121 
3 164 143 142 
3 164 165 143 
3 163 185 164 
3 185 186 164 
3 184 207 185 
3 206 207 184 
3 206 228 207 
3 227 228 206 
3 227 248 228 
3 248 249 228 
3 247 267 248 
3 267 268 248 
3 266 285 267 
3 285 286 267 
3 265 284 285 
3 284 303 285 
3 283 302 284 
3 301 302 283 
3 301 319 302 
3 300 318 301 
3 299 317 300 
3 316 317 299 
3 316 331 317 
3 298 315 316 
3 314 315 298 
3 314 328 315 
3 297 313 314 
3 296 313 297 
3 99 100 79 
3 122 100 99 
3 122 101 100 
3 121 144 122 
3 143 144 121 
3 143 165 144 
3 165 166 144 
3 164 186 165 
3 186 187 165 
3 185 208 186 
3 207 208 185 
3 207 229 208 
3 228 229 207 
3 228 249 229 
3 249 250 229 
3 248 268 249 
3 268 269 249 
3 267 286 268 
3 286 287 268 
3 285 303 286 
3 303 304 286 
3 284 302 303 
3 302 319 303 
3 319 320 303 
3 301 318 319 
3 318 333 319 
3 300 317 318 
3 317 332 318 
3 331 332 317 
3 331 343 332 
3 316 330 331 
3 315 330 316 
3 315 329 330 
3 328 329 315 
3 328 340 329 
3 100 101 79 
3 122 123 101 
3 144 145 122 
3 166 145 144 
3 166 167 145 
3 165 187 166 
3 187 188 166 
3 186 209 187 
3 208 209 186 
3 208 230 209 
3 229 230 208 
3 229 250 230 
3 250 251 230 
3 249 269 250 
3 269 270 250 
3 268 287 269 
3 287 288 269 
3 286 305 287 
3 304 305 286 
3 304 322 305 
3 303 321 304 
3 320 321 303 
3 320 335 321 
3 319 334 320 
3 333 334 319 
3 333 345 334 
3 318 332 333 
3 332 344 333 
3 343 344 332 
3 331 342 343 
3 330 342 331 
3 330 341 342 
3 329 340 330 
3 340 341 330 
3 122 145 123 
3 166 189 167 
3 188 189 166 
3 188 212 189 
3 187 210 188 
3 209 210 187 
3 209 231 210 
3 230 231 209 
3 230 251 231 
3 251 252 231 
3 250 271 251 
3 270 271 250 
3 270 289 271 
3 269 289 270 
3 269 288 289 
3 288 307 289 
3 287 305 288 
3 305 306 288 
3 322 323 305 
3 304 321 322 
3 321 336 322 
3 335 336 321 
3 320 334 335 
3 334 345 335 
3 333 344 345 
3 189 190 167 
3 212 190 189 
3 212 213 190 
3 188 211 212 
3 210 211 188 
3 210 232 211 
3 231 232 210 
3 231 252 232 
3 252 253 232 
3 251 271 252 
3 271 272 252 
3 289 290 271 
3 307 290 289 
3 307 308 290 
3 288 306 307 
3 306 324 307 
3 305 323 306 
3 323 324 306 
3 323 338 324 
3 322 337 323 
3 336 337 322 
3 211 234 212 
3 232 233 211 
3 253 233 232 
3 253 254 233 
3 252 272 253 
3 272 273 253 
3 271 291 272 
3 290 291 271 
3 290 308 291 
3 308 309 291 
3 307 325 308 
3 324 325 307 
3 324 339 325 
3 338 339 324 
3 323 337 338 
3 211 233 234 
3 233 254 234 
3 254 255 234 
3 253 273 254 
3 273 274 254 
3 272 291 273 
3 291 292 273 
3 309 292 291 
3 309 310 292 
3 308 325 309 
3 325 326 309 
3 339 326 325 
3 254 274 255 
3 274 275 255 
3 273 292 274 
3 292 293 274 
3 310 293 292 
3 310 311 293 
3 309 327 310 
3 326 327 309 
3 275 256 255 
3 274 293 275 
3 293 294 275 
3 311 312 293 
3 310 327 311 
3 256 235 255 
3 275 276 256 
3 294 295 275 
3 293 312 294 
3 275 295 276 
3 7 0 6 
3 72 55 54 
3 38 54 39 
3 39 40 26 
3 314 313 328 
3 212 234 213 
3 234 235 213 
3 235 234 255 
3 7 1 0 
3 294 312 295 
3 712 347 355 
3 365 354 355 
3 442 421 722 
3 348 355 347 
3 366 365 355 
3 364 354 365 
3 364 363 353 
3 356 355 348 
3 356 366 355 
3 367 366 356 
3 379 365 366 
3 378 364 365 
3 364 353 354 
3 377 363 364 
3 352 353 363 
3 349 356 348 
3 357 367 356 
3 380 366 367 
3 380 379 366 
3 396 379 380 
3 378 365 379 
3 605 585 696 
3 377 364 378 
3 393 377 378 
3 376 363 377 
3 362 352 363 
3 357 356 349 
3 350 357 349 
3 368 367 357 
3 367 381 380 
3 368 381 367 
3 380 397 396 
3 381 397 380 
3 395 379 396 
3 414 395 396 
3 1 2 694 
3 394 393 378 
3 411 393 394 
3 376 377 393 
3 392 376 393 
3 362 363 376 
3 375 362 376 
3 358 357 350 
3 358 368 357 
3 369 368 358 
3 382 381 368 
3 381 398 397 
3 382 398 381 
3 415 396 397 
3 415 414 396 
3 435 414 415 
3 413 395 414 
3 395 412 394 
3 413 412 395 
3 412 411 394 
3 432 411 412 
3 410 393 411 
3 410 392 393 
3 713 715 391 
3 375 376 392 
3 391 375 392 
3 374 375 391 
3 361 362 375 
3 351 358 350 
3 359 369 358 
3 382 368 369 
3 383 382 369 
3 383 398 382 
3 399 398 383 
3 415 397 398 
3 416 415 398 
3 436 435 415 
3 434 414 435 
3 434 413 414 
3 433 413 434 
3 433 412 413 
3 432 412 433 
3 454 432 433 
3 431 411 432 
3 431 410 411 
3 430 410 431 
3 429 408 714 
3 390 374 391 
3 361 375 374 
3 373 361 374 
3 359 358 351 
3 360 369 359 
3 370 383 369 
3 384 399 383 
3 416 398 399 
3 417 416 399 
3 436 415 416 
3 437 436 416 
3 457 435 436 
3 456 434 435 
3 455 433 434 
3 455 454 433 
3 476 454 455 
3 453 431 432 
3 454 453 432 
3 452 430 431 
3 409 410 430 
3 566 567 719 
3 449 427 716 
3 427 428 716 
3 373 374 390 
3 389 373 390 
3 370 369 360 
3 371 370 360 
3 384 383 370 
3 371 384 370 
3 372 384 371 
3 400 399 384 
3 400 417 399 
3 418 417 400 
3 437 416 417 
3 438 437 417 
3 458 436 437 
3 458 457 436 
3 479 457 458 
3 456 435 457 
3 478 456 457 
3 455 434 456 
3 477 455 456 
3 477 476 455 
3 498 476 477 
3 475 454 476 
3 475 453 454 
3 474 453 475 
3 452 431 453 
3 474 452 453 
3 473 452 474 
3 429 430 452 
3 451 429 452 
3 408 390 715 
3 407 408 429 
3 389 390 408 
3 407 389 408 
3 388 389 407 
3 388 373 389 
3 385 384 372 
3 438 417 418 
3 439 438 418 
3 459 437 438 
3 459 458 437 
3 480 458 459 
3 480 479 458 
3 501 479 480 
3 478 457 479 
3 500 478 479 
3 477 456 478 
3 499 477 478 
3 499 498 477 
3 520 498 499 
3 498 475 476 
3 498 497 475 
3 474 475 497 
3 496 474 497 
3 495 473 474 
3 451 452 473 
3 472 451 473 
3 428 429 451 
3 428 407 429 
3 406 407 428 
3 406 388 407 
3 419 439 418 
3 460 438 439 
3 460 459 438 
3 481 459 460 
3 481 480 459 
3 502 480 481 
3 502 501 480 
3 523 501 502 
3 500 479 501 
3 522 500 501 
3 499 478 500 
3 521 499 500 
3 521 520 499 
3 543 520 521 
3 520 497 498 
3 520 519 497 
3 496 497 519 
3 518 496 519 
3 495 474 496 
3 518 517 495 
3 494 473 495 
3 494 472 473 
3 471 472 494 
3 450 451 472 
3 450 428 451 
3 569 590 718 
3 427 406 428 
3 401 419 418 
3 440 439 419 
3 461 460 439 
3 482 481 460 
3 503 502 481 
3 524 523 502 
3 522 501 523 
3 523 545 522 
3 521 500 522 
3 544 521 522 
3 544 543 521 
3 565 543 544 
3 542 520 543 
3 542 519 520 
3 541 519 542 
3 541 518 519 
3 540 518 541 
3 518 495 496 
3 540 517 518 
3 516 517 540 
3 516 494 495 
3 517 516 495 
3 493 494 516 
3 493 471 494 
3 492 471 493 
3 702 569 718 
3 568 702 718 
3 346 0 708 
3 471 449 717 
3 426 427 449 
3 426 406 427 
3 402 419 401 
3 420 440 419 
3 462 439 440 
3 462 461 439 
3 484 461 462 
3 482 460 461 
3 483 482 461 
3 503 481 482 
3 504 503 482 
3 524 502 503 
3 525 524 503 
3 546 523 524 
3 547 546 524 
3 546 545 523 
3 545 544 522 
3 545 566 544 
3 566 565 544 
3 542 543 565 
3 564 542 565 
3 563 541 542 
3 563 540 541 
3 562 540 563 
3 539 516 540 
3 515 493 516 
3 514 492 493 
3 470 471 492 
3 78 79 706 
3 426 449 448 
3 386 402 401 
3 420 419 402 
3 403 420 402 
3 441 440 420 
3 463 462 440 
3 485 484 462 
3 483 461 484 
3 506 483 484 
3 483 504 482 
3 483 505 504 
3 526 504 505 
3 525 503 504 
3 526 525 504 
3 548 525 526 
3 547 524 525 
3 548 547 525 
3 569 547 548 
3 470 448 705 
3 711 4 5 
3 568 545 546 
3 567 545 568 
3 589 567 568 
3 567 566 545 
3 403 387 721 
3 586 565 566 
3 387 58 721 
3 58 404 721 
3 563 542 564 
3 584 563 564 
3 583 562 563 
3 266 267 698 
3 606 605 696 
3 538 516 539 
3 538 515 516 
3 537 515 538 
3 514 493 515 
3 537 514 515 
3 385 386 401 
3 387 402 386 
3 387 403 402 
3 680 681 728 
3 421 420 403 
3 421 441 420 
3 442 441 421 
3 463 440 441 
3 464 463 441 
3 485 462 463 
3 486 485 463 
3 507 484 485 
3 507 506 484 
3 528 506 507 
3 505 483 506 
3 527 505 506 
3 527 526 505 
3 549 526 527 
3 549 548 526 
3 570 548 549 
3 570 569 548 
3 591 569 570 
3 567 588 719 
3 565 586 720 
3 609 589 590 
3 588 567 589 
3 585 564 720 
3 586 566 587 
3 587 606 586 
3 347 708 739 
3 584 564 585 
3 604 584 585 
3 583 563 584 
3 603 583 584 
3 582 562 583 
3 582 561 562 
3 560 561 582 
3 560 539 561 
3 538 539 560 
3 537 538 560 
3 400 385 401 
3 422 403 404 
3 422 421 403 
3 645 644 726 
3 608 588 723 
3 465 442 443 
3 464 441 442 
3 465 464 442 
3 487 486 464 
3 464 486 463 
3 508 507 485 
3 486 508 485 
3 529 528 507 
3 527 506 528 
3 550 527 528 
3 550 549 527 
3 571 549 550 
3 571 570 549 
3 592 591 570 
3 571 592 570 
3 590 569 591 
3 610 590 591 
3 610 609 590 
3 628 609 610 
3 610 611 725 
3 608 627 724 
3 607 587 757 
3 611 630 725 
3 607 606 587 
3 625 606 607 
3 621 622 697 
3 605 604 585 
3 623 604 605 
3 603 584 604 
3 623 603 604 
3 582 583 603 
3 405 422 404 
3 444 443 422 
3 466 465 443 
3 465 487 464 
3 486 509 508 
3 487 509 486 
3 529 507 508 
3 530 529 508 
3 551 528 529 
3 551 550 528 
3 572 550 551 
3 572 571 550 
3 593 571 572 
3 593 592 571 
3 346 347 712 
3 592 611 591 
3 612 611 592 
3 611 610 591 
3 612 631 727 
3 629 628 610 
3 646 628 629 
3 627 609 628 
3 627 608 609 
3 630 629 725 
3 631 630 727 
3 625 607 626 
3 643 625 626 
3 587 719 757 
3 736 5 758 
3 623 605 624 
3 642 623 624 
3 423 422 405 
3 423 444 422 
3 445 444 423 
3 466 443 444 
3 467 466 444 
3 488 487 465 
3 466 488 465 
3 487 510 509 
3 488 510 487 
3 530 508 509 
3 531 530 509 
3 552 529 530 
3 552 551 529 
3 573 551 552 
3 573 572 551 
3 593 572 573 
3 594 593 573 
3 703 350 711 
3 312 311 729 
3 627 645 726 
3 647 646 629 
3 646 627 628 
3 646 645 627 
3 630 611 727 
3 645 661 644 
3 643 626 644 
3 660 643 644 
3 642 625 643 
3 625 642 624 
3 424 423 405 
3 424 445 423 
3 425 445 424 
3 467 444 445 
3 468 467 445 
3 488 466 467 
3 489 488 467 
3 489 510 488 
3 511 510 489 
3 531 509 510 
3 532 531 510 
3 553 530 531 
3 553 552 530 
3 574 552 553 
3 574 573 552 
3 594 573 574 
3 595 594 574 
3 613 593 594 
3 614 613 594 
3 631 612 613 
3 632 631 613 
3 681 335 728 
3 649 630 631 
3 648 629 630 
3 648 647 629 
3 665 647 648 
3 664 646 647 
3 663 645 646 
3 663 662 645 
3 677 662 663 
3 662 661 645 
3 661 660 644 
3 674 660 661 
3 659 643 660 
3 659 642 643 
3 446 445 425 
3 446 468 445 
3 447 468 446 
3 490 467 468 
3 490 489 467 
3 511 489 490 
3 512 511 490 
3 532 510 511 
3 533 532 511 
3 554 531 532 
3 554 553 531 
3 575 553 554 
3 575 574 553 
3 595 574 575 
3 596 595 575 
3 614 594 595 
3 615 614 595 
3 632 613 614 
3 633 632 614 
3 649 631 632 
3 650 649 632 
3 648 630 649 
3 666 665 648 
3 649 666 648 
3 664 647 665 
3 679 664 665 
3 663 646 664 
3 678 663 664 
3 678 677 663 
3 689 677 678 
3 676 662 677 
3 676 661 662 
3 675 661 676 
3 675 674 661 
3 686 674 675 
3 447 446 425 
3 469 468 447 
3 491 490 468 
3 491 512 490 
3 513 512 491 
3 533 511 512 
3 534 533 512 
3 555 532 533 
3 555 554 532 
3 576 554 555 
3 576 575 554 
3 596 575 576 
3 597 596 576 
3 615 595 596 
3 616 615 596 
3 633 614 615 
3 634 633 615 
3 633 650 632 
3 633 651 650 
3 668 650 651 
3 650 666 649 
3 650 667 666 
3 681 666 667 
3 680 665 666 
3 680 679 665 
3 691 679 680 
3 678 664 679 
3 690 678 679 
3 690 689 678 
3 688 677 689 
3 688 676 677 
3 687 676 688 
3 686 675 676 
3 687 686 676 
3 491 468 469 
3 513 534 512 
3 513 535 534 
3 558 534 535 
3 556 533 534 
3 556 555 533 
3 577 555 556 
3 577 576 555 
3 597 576 577 
3 598 597 577 
3 617 596 597 
3 617 616 596 
3 636 635 616 
3 635 615 616 
3 634 615 635 
3 653 634 635 
3 651 633 634 
3 652 651 634 
3 669 668 651 
3 667 650 668 
3 682 667 668 
3 682 681 667 
3 680 666 681 
3 191 168 752 
3 690 679 691 
3 536 535 513 
3 536 558 535 
3 559 558 536 
3 557 534 558 
3 557 556 534 
3 578 556 557 
3 578 577 556 
3 598 577 578 
3 599 598 578 
3 617 597 598 
3 618 617 598 
3 617 636 616 
3 635 654 653 
3 636 654 635 
3 652 634 653 
3 670 652 653 
3 669 651 652 
3 670 669 652 
3 684 669 670 
3 683 668 669 
3 683 682 668 
3 580 557 558 
3 579 578 557 
3 578 600 599 
3 579 600 578 
3 618 598 599 
3 619 618 599 
3 618 636 617 
3 618 637 636 
3 654 636 637 
3 655 654 637 
3 671 653 654 
3 671 670 653 
3 685 670 671 
3 685 684 670 
3 683 669 684 
3 579 557 580 
3 600 579 580 
3 601 600 580 
3 619 599 600 
3 620 619 600 
3 637 618 619 
3 638 637 619 
3 638 655 637 
3 656 655 638 
3 561 539 695 
3 395 394 693 
3 672 685 671 
3 620 600 601 
3 621 620 601 
3 638 619 620 
3 639 638 620 
3 639 656 638 
3 657 656 639 
3 673 655 656 
3 673 672 655 
3 602 621 601 
3 639 620 621 
3 640 639 621 
3 658 657 639 
3 673 656 657 
3 581 602 601 
3 622 621 602 
3 425 79 700 
3 658 639 640 
3 267 247 698 
3 346 353 352 
3 401 418 400 
3 400 384 385 
3 386 385 372 
3 659 660 674 
3 580 558 559 
3 581 580 559 
3 580 581 601 
3 410 409 713 
3 658 640 641 
3 15 361 373 
3 27 15 373 
3 27 373 388 
3 42 27 388 
3 42 388 406 
3 60 42 406 
3 60 406 426 
3 80 60 426 
3 700 735 745 
3 741 753 754 
3 745 735 746 
3 447 425 745 
3 168 751 752 
3 741 426 750 
3 80 741 754 
3 748 744 749 
3 514 537 747 
3 425 700 745 
3 191 537 560 
3 214 191 560 
3 214 560 582 
3 236 214 582 
3 236 582 603 
3 257 236 603 
3 257 603 623 
3 277 257 623 
3 277 623 642 
3 296 277 642 
3 642 659 313 
3 296 642 313 
3 313 659 674 
3 328 313 674 
3 328 674 686 
3 340 328 686 
3 340 686 687 
3 341 340 687 
3 341 687 688 
3 342 341 688 
3 342 688 689 
3 343 342 689 
3 343 689 690 
3 344 343 690 
3 344 690 691 
3 345 344 691 
3 704 312 729 
3 101 734 735 
3 335 681 682 
3 336 335 682 
3 336 682 683 
3 337 336 683 
3 337 683 684 
3 338 337 684 
3 338 684 685 
3 339 338 685 
3 339 685 672 
3 326 339 672 
3 326 672 673 
3 327 326 673 
3 327 673 657 
3 311 327 657 
3 737 736 756 
3 704 641 730 
3 348 2 707 
3 471 470 705 
3 213 235 732 
3 559 536 732 
3 190 213 732 
3 491 469 746 
3 256 602 581 
3 235 256 581 
3 145 167 733 
3 123 145 733 
3 537 743 747 
3 190 536 513 
3 167 190 513 
3 426 448 750 
3 700 101 735 
3 123 733 734 
3 101 123 734 
3 14 360 736 
3 448 470 759 
3 354 353 712 
3 624 605 701 
3 176 199 709 
3 2 3 707 
3 78 424 405 
3 59 78 405 
3 59 405 404 
3 58 59 404 
3 443 442 722 
3 41 58 387 
3 41 387 386 
3 40 41 386 
3 40 386 372 
3 26 40 372 
3 26 372 371 
3 25 26 371 
3 25 371 360 
3 14 25 360 
3 351 703 737 
3 5 736 737 
3 392 410 713 
3 699 349 738 
3 424 78 706 
3 295 312 704 
3 568 546 702 
3 79 101 700 
3 613 612 710 
3 0 1 708 
3 622 641 697 
3 562 561 695 
3 711 5 703 
3 199 200 709 
3 0 346 352 
3 6 0 352 
3 6 352 362 
3 16 6 362 
3 362 361 15 
3 16 362 15 
3 80 426 741 
3 655 672 692 
3 672 671 692 
3 394 378 693 
3 654 655 692 
3 671 654 692 
3 379 395 693 
3 378 379 693 
3 2 348 694 
3 348 347 694 
3 540 562 695 
3 539 540 695 
3 586 606 696 
3 588 589 723 
3 640 621 697 
3 641 640 697 
3 247 246 698 
3 246 266 698 
3 712 355 354 
3 350 349 699 
3 608 724 757 
3 469 745 746 
3 625 624 701 
3 606 625 701 
3 547 569 702 
3 546 547 702 
3 707 3 738 
3 351 350 703 
3 295 704 730 
3 742 750 749 
3 449 471 705 
3 448 449 705 
3 79 425 706 
3 425 424 706 
3 708 1 739 
3 641 622 755 
3 657 658 740 
3 347 346 708 
3 200 177 709 
3 177 176 709 
3 592 593 710 
3 612 592 710 
3 350 699 711 
3 699 4 711 
3 353 346 712 
3 472 471 717 
3 3 699 738 
3 391 392 713 
3 430 429 714 
3 409 430 714 
3 390 391 715 
3 714 408 715 
3 409 714 715 
3 428 450 716 
3 450 472 717 
3 716 450 717 
3 449 716 717 
3 590 589 718 
3 589 568 718 
3 587 566 719 
3 564 565 720 
3 696 585 720 
3 586 696 720 
3 404 403 721 
3 422 443 722 
3 421 422 722 
3 609 608 723 
3 589 609 723 
3 626 607 724 
3 5 13 758 
3 748 749 759 
3 629 610 725 
3 644 626 726 
3 724 627 726 
3 626 724 726 
3 611 612 727 
3 691 680 728 
3 345 691 728 
3 335 345 728 
3 311 657 729 
3 168 146 751 
3 581 559 732 
3 235 581 732 
3 295 730 731 
3 276 295 731 
3 256 276 731 
3 602 256 731 
3 536 190 732 
3 167 513 733 
3 513 491 733 
3 719 588 757 
3 703 5 737 
3 492 514 747 
3 694 347 739 
3 729 657 740 
3 588 608 757 
3 349 348 738 
3 348 707 738 
3 1 694 739 
3 704 729 740 
3 658 641 740 
3 641 704 740 
3 622 602 755 
3 492 747 748 
3 102 80 754 
3 735 734 746 
3 469 447 745 
3 743 748 747 
3 537 191 743 
3 744 752 751 
3 751 124 753 
3 734 733 746 
3 733 491 746 
3 744 748 743 
3 743 191 752 
3 744 742 749 
3 741 750 742 
3 146 124 751 
3 360 359 756 
3 742 744 751 
3 742 751 753 
3 743 752 744 
3 741 742 753 
3 602 731 755 
3 736 360 756 
3 754 753 102 
3 753 124 102 
3 731 730 755 
3 730 641 755 
3 359 351 756 
3 351 737 756 
3 724 607 757 
3 14 736 758 
3 13 14 758 
3 749 750 759 
3 750 448 759 
3 470 492 759 
3 492 748 759 
