ply
format ascii 1.0
comment created by PLYWriter
element vertex 760
property float x
property float y
property float z
element face 1516
property list uchar int vertex_indices
end_header
-0.057126667 0.031173123 0.18755704 
-0.057784934 0.028319063 0.18829532 
-0.05806484 0.025553811 0.18972722 
-0.058328032 0.022691496 0.19133754 
-0.05832647 0.019926919 0.19282326 
-0.05791577 0.016893616 0.19402874 
-0.053069815 0.033363905 0.18379691 
-0.05415189 0.030926649 0.18548638 
-0.053944133 0.028014706 0.18594068 
-0.054167695 0.025347147 0.1876703 
-0.05464039 0.022594852 0.1895132 
-0.05509343 0.019996138 0.19159687 
-0.055348467 0.016816463 0.19279467 
-0.0556466 0.013501263 0.19416545 
-0.05529918 0.010063681 0.195533 
-0.048162695 0.03589384 0.17983893 
-0.049186084 0.033486973 0.18112555 
-0.04992944 0.030584333 0.18260157 
-0.050247088 0.027692676 0.18419841 
-0.05053088 0.025242701 0.18675654 
-0.051064 0.022484213 0.18865646 
-0.051563565 0.019986713 0.19087185 
-0.052013468 0.017340073 0.19283397 
-0.05251193 0.013404355 0.19372131 
-0.053033732 0.009208094 0.19562818 
-0.05360691 0.0054033822 0.19939849 
-0.05332871 0.001999037 0.20238921 
-0.04461493 0.038351573 0.1777337 
-0.045440245 0.035966586 0.17866853 
-0.04586792 0.03334259 0.18010448 
-0.046402242 0.03069171 0.18193214 
-0.047022674 0.027911173 0.18437746 
-0.047277745 0.025240352 0.18705969 
-0.047644503 0.02269486 0.18941884 
-0.048346084 0.020160142 0.19147038 
-0.0488644 0.017341275 0.19367263 
-0.049409587 0.013478129 0.19459125 
-0.04958899 0.008869101 0.19552389 
-0.050352253 0.004570333 0.1990521 
-0.050663933 0.0010091445 0.20410402 
-0.051616218 -0.0019786176 0.20790425 
-0.05205502 -0.0039930027 0.21180463 
-0.041210078 0.04080332 0.17701098 
-0.04216279 0.03869464 0.17766972 
-0.042407773 0.036064867 0.17891635 
-0.042720463 0.033703886 0.18064319 
-0.043410927 0.031088 0.1827918 
-0.043625474 0.027996052 0.18527737 
-0.043843895 0.025219832 0.18787546 
-0.04429744 0.022552889 0.18993138 
-0.044992574 0.019794852 0.19186223 
-0.045738824 0.017218925 0.19421662 
-0.04595604 0.0132922195 0.1955146 
-0.04589262 0.008648951 0.1960894 
-0.0459201 0.003855502 0.19926871 
-0.047339365 0.0008031432 0.20513304 
-0.04825663 -0.0019356542 0.2091691 
-0.049411584 -0.0041992413 0.21278709 
-0.05022888 -0.006441755 0.21565507 
-0.05086267 -0.008781551 0.21888301 
-0.038784154 0.041528326 0.17676452 
-0.039276734 0.03898632 0.17842129 
-0.03957238 0.036309775 0.1797441 
-0.03995987 0.03376089 0.18150787 
-0.040202953 0.030863108 0.1836542 
-0.040421247 0.027554484 0.1862065 
-0.040890094 0.025076592 0.18866064 
-0.04135772 0.022489991 0.19047558 
-0.041726146 0.0197861 0.19225395 
-0.042421557 0.017156852 0.19484301 
-0.04254925 0.013167436 0.1966801 
-0.041911177 0.008420112 0.19770756 
-0.041339383 0.0034441673 0.20055088 
-0.04376575 0.00056503236 0.20656422 
-0.044970915 -0.0018577898 0.2105972 
-0.045823604 -0.0037310845 0.21414992 
-0.046868175 -0.0063152933 0.21690603 
-0.04824219 -0.009302073 0.2199666 
-0.048723698 -0.012674839 0.22311535 
-0.048061617 -0.016288508 0.22432436 
-0.035624973 0.043427013 0.1756271 
-0.03616619 0.041907437 0.17712604 
-0.03639712 0.039407585 0.17885892 
-0.03677321 0.036542337 0.18028072 
-0.03705433 0.034050144 0.18244796 
-0.037168246 0.03069274 0.18489994 
-0.03735667 0.027719032 0.18732747 
-0.038061477 0.02525786 0.18958151 
-0.03856992 0.022669708 0.19181418 
-0.038928263 0.019950666 0.19357075 
-0.03960423 0.017232332 0.19668129 
-0.03943508 0.013667157 0.19862458 
-0.03913205 0.008693912 0.20083511 
-0.038979486 0.003782553 0.20316696 
-0.040477335 0.00069908355 0.20824148 
-0.041651588 -0.0014546306 0.21214147 
-0.0424756 -0.0036828239 0.21523677 
-0.042761207 -0.0071247513 0.2167153 
-0.04350253 -0.010275831 0.21895307 
-0.044222806 -0.014317831 0.22144526 
-0.044707738 -0.0183077 0.22467715 
-0.043521985 -0.021090208 0.22633663 
-0.032922667 0.043856103 0.17609157 
-0.033197593 0.042543165 0.17750256 
-0.03308432 0.03974973 0.17945941 
-0.033172585 0.036953606 0.18080302 
-0.03354789 0.034435112 0.18326846 
-0.034010235 0.031081803 0.18662116 
-0.034428418 0.028040176 0.188267 
-0.03502768 0.025355715 0.19060533 
-0.035540637 0.02268673 0.1931228 
-0.03603505 0.020014595 0.19576527 
-0.036768988 0.01715655 0.19889656 
-0.036636163 0.014261943 0.20044595 
-0.03636865 0.0095650405 0.20284435 
-0.03640385 0.005443828 0.20563927 
-0.037584838 0.0023579854 0.21006928 
-0.038421087 -0.0007361605 0.21362299 
-0.03896967 -0.0035774973 0.21616888 
-0.039096296 -0.0071827048 0.21718352 
-0.0394091 -0.011316484 0.21874696 
-0.039941017 -0.015261929 0.22063233 
-0.040293455 -0.019135676 0.22336292 
-0.040175345 -0.021551244 0.22607294 
-0.029918227 0.04395038 0.17673175 
-0.029993432 0.042522497 0.17792495 
-0.030151946 0.040098708 0.17989735 
-0.030296057 0.037458897 0.18201344 
-0.030500952 0.03468005 0.1845141 
-0.030998202 0.031483226 0.18766631 
-0.031424735 0.028544571 0.18941283 
-0.031969585 0.025544018 0.1917066 
-0.03243487 0.02250829 0.19476452 
-0.033305433 0.019926615 0.19752416 
-0.034006048 0.017172666 0.2005776 
-0.033835966 0.014552038 0.20215338 
-0.033455715 0.010263038 0.20457995 
-0.03353506 0.0064494205 0.20746645 
-0.034568395 0.0032868236 0.21120806 
-0.03514141 -0.00018533524 0.2144199 
-0.03540078 -0.0035627424 0.21653648 
-0.035690792 -0.0073447204 0.21779571 
-0.036108673 -0.01125212 0.21963882 
-0.03641503 -0.015211902 0.22133854 
-0.03639609 -0.018880608 0.22295678 
-0.036239073 -0.021592261 0.22555114 
-0.026858365 0.044218283 0.1771068 
-0.02699931 0.042687282 0.17830966 
-0.027291521 0.040087007 0.18006723 
-0.027302912 0.037686795 0.18266267 
-0.02741294 0.03468826 0.18523417 
-0.027765008 0.03180168 0.18794331 
-0.028286437 0.028746061 0.19035035 
-0.028787827 0.025728613 0.19263776 
-0.029351097 0.022529706 0.19635348 
-0.030282354 0.019856757 0.19994816 
-0.030923726 0.017347766 0.20219234 
-0.030543286 0.014931995 0.20385183 
-0.03052543 0.011178529 0.20687632 
-0.030443273 0.0074919546 0.20916694 
-0.03137634 0.0035636525 0.2123491 
-0.03187571 1.7401653e-05 0.21486913 
-0.032107353 -0.004009708 0.21744275 
-0.032420456 -0.0074530975 0.21845359 
-0.032839593 -0.0113059 0.2204908 
-0.033103976 -0.015095104 0.22312567 
-0.03296108 -0.018627733 0.22462508 
-0.03303079 -0.021776116 0.22701661 
-0.023991825 0.044454407 0.17797142 
-0.02408703 0.043140892 0.17936225 
-0.024126932 0.04030321 0.18064882 
-0.02425783 0.037620854 0.18285406 
-0.024412466 0.034950588 0.18563081 
-0.024615536 0.031989913 0.18815672 
-0.025055127 0.02889255 0.19113345 
-0.025592802 0.025694905 0.19416417 
-0.02614744 0.02239414 0.19825138 
-0.026960945 0.01955525 0.20162724 
-0.026616126 0.017412389 0.20390505 
-0.026933251 0.015281055 0.20591953 
-0.027444664 0.01152514 0.20956281 
-0.02781171 0.007695976 0.21161032 
-0.028296454 0.0036953646 0.21435513 
-0.028429262 -0.00026546043 0.21598212 
-0.028802015 -0.004478229 0.21843833 
-0.028937424 -0.007863854 0.21964946 
-0.029424448 -0.0113702845 0.22152402 
-0.029420922 -0.014818651 0.2241479 
-0.029366553 -0.018342702 0.22576092 
-0.029825332 -0.021830367 0.2277881 
-0.03039879 -0.024896363 0.2317035 
-0.020980312 0.04482001 0.17900927 
-0.020934206 0.04340389 0.18035513 
-0.021102395 0.040477023 0.18192875 
-0.021177685 0.03762407 0.18335281 
-0.021312136 0.03486051 0.18634194 
-0.021609116 0.032103613 0.18864763 
-0.02207174 0.029402185 0.19171906 
-0.022439143 0.026112378 0.19501843 
-0.02283695 0.02222027 0.1996614 
-0.023369405 0.019231854 0.20287994 
-0.022797128 0.016676154 0.20563407 
-0.02323855 0.014218816 0.20753145 
-0.02400312 0.010979854 0.21065898 
-0.024883946 0.0077087055 0.21367426 
-0.024789423 0.0036156576 0.21507551 
-0.02480105 -0.00068369764 0.2161147 
-0.025193663 -0.0044471687 0.21932746 
-0.02541569 -0.008049511 0.22105148 
-0.02550458 -0.0113120675 0.22264211 
-0.02590589 -0.0147194695 0.22565682 
-0.025921019 -0.0183275 0.22684401 
-0.026458502 -0.022317851 0.22810908 
-0.0265606 -0.025987243 0.23209214 
-0.01811191 0.043244686 0.18177432 
-0.018153789 0.04104488 0.18363287 
-0.018123318 0.038104553 0.18497494 
-0.01842893 0.035149228 0.18678543 
-0.018496651 0.032231234 0.18911439 
-0.018670527 0.029468285 0.19175708 
-0.019069677 0.026325177 0.19619538 
-0.01940087 0.02268827 0.19952925 
-0.019747252 0.019099643 0.202879 
-0.019697651 0.01582268 0.20543379 
-0.019871468 0.012853244 0.20765083 
-0.020587618 0.009873688 0.21033917 
-0.021434845 0.006620901 0.21324904 
-0.02123974 0.0031888506 0.21514425 
-0.02114607 -0.00039886573 0.21756832 
-0.021643637 -0.004208942 0.22095147 
-0.022149306 -0.007879195 0.2232226 
-0.021921422 -0.01141384 0.22405806 
-0.021712676 -0.014965762 0.22654617 
-0.021698445 -0.01840467 0.22710216 
-0.022370689 -0.022343662 0.22764407 
-0.022739822 -0.026451657 0.23268732 
-0.015211363 0.041083153 0.18494293 
-0.015348566 0.03856816 0.18656626 
-0.015389904 0.03545086 0.18782176 
-0.015485724 0.032391045 0.1900543 
-0.015847208 0.029703166 0.19236833 
-0.015761917 0.026580388 0.19666761 
-0.016402176 0.022928266 0.2003036 
-0.016404057 0.019617302 0.2027862 
-0.01677208 0.016096141 0.20496273 
-0.016420685 0.012888114 0.20828794 
-0.016955039 0.009982505 0.21093199 
-0.017405702 0.0068256804 0.213547 
-0.017591901 0.0037004692 0.21624132 
-0.017685065 -6.006423e-05 0.21964057 
-0.018064197 -0.0037474092 0.22264098 
-0.018381933 -0.0075472435 0.22465059 
-0.01793272 -0.011308818 0.22563237 
-0.017869234 -0.01509303 0.2266608 
-0.0184335 -0.018861638 0.22788067 
-0.0185752 -0.022784853 0.22961494 
-0.019133996 -0.026672265 0.23450069 
-0.012600238 0.038133916 0.18785706 
-0.01239786 0.0354302 0.18896294 
-0.012566502 0.03245606 0.19106345 
-0.012728964 0.029564414 0.19281049 
-0.012475318 0.026716884 0.19605382 
-0.013231844 0.023226352 0.20037751 
-0.013410111 0.019953556 0.20365648 
-0.013405944 0.01669805 0.20665652 
-0.013336241 0.0135808615 0.20951387 
-0.013402638 0.0106020365 0.21183765 
-0.013437501 0.007528981 0.21438569 
-0.01377986 0.003956754 0.217616 
-0.014174754 0.00017952747 0.22114086 
-0.014415957 -0.0034266422 0.2236601 
-0.014417851 -0.0072140107 0.22507802 
-0.014245429 -0.011667171 0.2265979 
-0.014263261 -0.01562654 0.22776356 
-0.014842595 -0.019315086 0.22966073 
-0.015181185 -0.023362521 0.2326359 
-0.015324681 -0.026633179 0.23651963 
-0.009674744 0.035113737 0.18990979 
-0.00922794 0.032600258 0.19166484 
-0.009388875 0.02978633 0.19353339 
-0.009414891 0.026808837 0.19667444 
-0.009792353 0.02369578 0.20066424 
-0.01023408 0.020546619 0.20470884 
-0.010063091 0.01750781 0.20780379 
-0.010066312 0.014271453 0.21048869 
-0.009910529 0.011008038 0.21245271 
-0.009771371 0.0076888707 0.2156242 
-0.010198574 0.004101741 0.2186564 
-0.010325154 0.00025303566 0.22166987 
-0.01061989 -0.0032943108 0.2237282 
-0.010932504 -0.0073104305 0.22543314 
-0.0105162775 -0.011460584 0.22595221 
-0.010790348 -0.015749497 0.22907037 
-0.011039554 -0.019496853 0.23086973 
-0.011471951 -0.023772193 0.23461196 
-0.012258647 -0.02628922 0.23718044 
-0.0061081145 0.032306366 0.19252178 
-0.0060538603 0.029686114 0.19489518 
-0.00619858 0.026730027 0.1983198 
-0.0063920314 0.023876267 0.20107557 
-0.006713836 0.021182882 0.20504318 
-0.0065365243 0.018044025 0.20831925 
-0.006409074 0.014696559 0.21082662 
-0.0064256284 0.011296515 0.2126558 
-0.0062403223 0.0076045715 0.21576996 
-0.006412607 0.00377333 0.21890242 
-0.0064496 -4.327918e-05 0.22208835 
-0.006672357 -0.0035347985 0.22358553 
-0.0071709836 -0.0073963674 0.226053 
-0.007177988 -0.011841106 0.22654699 
-0.007233287 -0.016091887 0.22965795 
-0.007851264 -0.019807464 0.23200636 
-0.008563477 -0.022830026 0.23382862 
-0.0034667598 0.031775475 0.19411439 
-0.0025865054 0.02965405 0.19664983 
-0.0027409508 0.026811462 0.19892295 
-0.002901155 0.024006575 0.20144853 
-0.0029405984 0.021280663 0.20464899 
-0.0031300653 0.01797016 0.20765539 
-0.0028025203 0.014521885 0.21048829 
-0.0028452748 0.011165429 0.21284801 
-0.0025945932 0.0076830387 0.21564616 
-0.0027486135 0.0036901967 0.21818508 
-0.0027550962 -2.9312965e-05 0.22144236 
-0.0029234306 -0.003919039 0.2229704 
-0.0033880475 -0.0079366 0.22572415 
-0.0037871404 -0.012123355 0.2269335 
-0.0046380977 -0.015540433 0.22935441 
0.00038343653 0.02946355 0.19821157 
0.00058264314 0.027403152 0.1996394 
0.0006142649 0.024550255 0.20164941 
0.0005538095 0.02138103 0.20402217 
0.0005584333 0.018158793 0.20664085 
0.0008555881 0.014694832 0.20960587 
0.00095983275 0.011287685 0.21220782 
0.0010499154 0.0076555773 0.21448666 
0.00067099807 0.0038104681 0.2168652 
0.0008695362 -6.750021e-05 0.21962348 
0.00029068047 -0.0037709454 0.22248034 
-0.0009557989 -0.0073114885 0.22613046 
0.0038209127 0.027579142 0.20030294 
0.0041890494 0.024749778 0.20195988 
0.004202968 0.02149385 0.20358115 
0.0040304447 0.018219326 0.20634924 
0.00428252 0.014771087 0.20843425 
0.0038392446 0.011593391 0.21085879 
-0.057898 0.035575 0.19312 
-0.058681 0.033478 0.19464 
-0.059087 0.031093 0.19648 
-0.059437 0.028587 0.19844 
-0.059657 0.026104 0.20041 
-0.059821 0.023744 0.20229 
-0.054525 0.039179 0.19102 
-0.055458494 0.036927603 0.19264221 
-0.05556005 0.035030577 0.19418582 
-0.05587011 0.0325151 0.19615522 
-0.056333795 0.029861575 0.1981968 
-0.056766503 0.027172677 0.200275 
-0.057371855 0.024607675 0.20220055 
-0.058153 0.021717 0.20436 
-0.058083 0.018744 0.20681 
-0.050046 0.042977 0.18904 
-0.051218 0.040869 0.19047 
-0.052078854 0.038621765 0.19209856 
-0.052515753 0.03612304 0.19404975 
-0.052679267 0.03344694 0.1962142 
-0.05310462 0.030757653 0.19830152 
-0.053552493 0.028023338 0.20043974 
-0.054150347 0.025369108 0.20243609 
-0.05496872 0.02223882 0.2046842 
-0.055751402 0.018515462 0.20753528 
-0.056375 0.014174 0.21096 
-0.056079 0.010721 0.21385 
-0.04665 0.045804 0.18759 
-0.047415547 0.043861017 0.18898094 
-0.048015606 0.041580852 0.19069324 
-0.048679084 0.03923543 0.1924447 
-0.04943072 0.036641937 0.19440201 
-0.049486846 0.033784483 0.19673619 
-0.04990004 0.03104565 0.19889402 
-0.050465822 0.028334208 0.20097463 
-0.051012848 0.02538652 0.20320876 
-0.05188072 0.022182187 0.20549417 
-0.052516717 0.018650247 0.20819356 
-0.05312235 0.0142518105 0.2115767 
-0.05345421 0.009680728 0.21527545 
-0.054293 0.00592 0.21821 
-0.054385 0.0027001 0.22082 
-0.043317 0.048081 0.18656 
-0.04410708 0.04639999 0.18773766 
-0.044531688 0.04416581 0.18945958 
-0.044917375 0.041790508 0.1913029 
-0.045543462 0.039230317 0.19325043 
-0.045950677 0.03662202 0.1953062 
-0.046167854 0.033755567 0.19762808 
-0.04663183 0.031144893 0.19963245 
-0.04724791 0.02835657 0.20172366 
-0.04791735 0.025446624 0.20390779 
-0.04868274 0.021970466 0.20648085 
-0.049143497 0.018382274 0.2091072 
-0.04939561 0.014123693 0.21258454 
-0.05019534 0.009502185 0.2161475 
-0.050971106 0.0057341508 0.21912238 
-0.051810216 0.0024084942 0.22166033 
-0.052313 -0.00041281 0.22388 
-0.052534 -0.0033181 0.22619 
-0.040856 0.048977 0.18645 
-0.04122528 0.046610463 0.18829162 
-0.041606966 0.04427753 0.19010545 
-0.04201319 0.041846234 0.19200478 
-0.042392876 0.039202083 0.19407947 
-0.042774282 0.036346063 0.19633608 
-0.043227963 0.033615857 0.19847178 
-0.043698963 0.03115202 0.20036098 
-0.04403966 0.028587196 0.20231155 
-0.04474728 0.025395824 0.2046849 
-0.045326587 0.02169498 0.20744951 
-0.045517012 0.018055957 0.21027802 
-0.045685615 0.013755545 0.21380192 
-0.04686631 0.009163112 0.21724993 
-0.047676116 0.0055229967 0.2200657 
-0.048153203 0.0024923852 0.22247225 
-0.0489216 -0.0004596546 0.2247162 
-0.049903624 -0.003795883 0.2272052 
-0.050262 -0.007415 0.2301 
-0.050065 -0.0099304 0.2322 
-0.037833 0.051152 0.18543 
-0.03808232 0.04950562 0.18671627 
-0.03836179 0.047026612 0.18868124 
-0.038765613 0.044474922 0.19066662 
-0.039096687 0.041941095 0.19267695 
-0.039461803 0.039012432 0.1949901 
-0.039761264 0.03619189 0.19723798 
-0.040279135 0.033566665 0.19921982 
-0.04084848 0.03081016 0.20132278 
-0.041361436 0.028257811 0.2032458 
-0.042104695 0.024989236 0.20566434 
-0.042086165 0.02160193 0.2082952 
-0.042326584 0.017484777 0.21153298 
-0.042807024 0.013253109 0.21490617 
-0.043518238 0.008941431 0.21830998 
-0.044202156 0.005515025 0.22098878 
-0.04471753 0.002438833 0.22338043 
-0.045120396 -0.000264892 0.2254704 
-0.04582246 -0.0032980603 0.22778465 
-0.046715856 -0.0064946422 0.23020487 
-0.0475184 -0.010285743 0.23313934 
-0.046679 -0.012748 0.23535 
-0.035124 0.051519 0.18581 
-0.03519048 0.049951304 0.18708636 
-0.035238765 0.047455087 0.18912528 
-0.03550809 0.045100875 0.19099991 
-0.035911784 0.042323656 0.19316664 
-0.03631364 0.038876105 0.1959074 
-0.036763642 0.03623466 0.19794858 
-0.037237726 0.03336089 0.20013544 
-0.037822332 0.030522669 0.20227899 
-0.038394302 0.027526362 0.20453306 
-0.038992282 0.024318304 0.2069651 
-0.038919926 0.021653138 0.20906615 
-0.03916198 0.017498968 0.21235082 
-0.039550126 0.013523096 0.21556854 
-0.040177885 0.00942773 0.21881226 
-0.04076288 0.005721992 0.2217452 
-0.04117698 0.0026114485 0.22415897 
-0.041566495 0.00012804885 0.2260798 
-0.042220354 -0.002820032 0.2283204 
-0.042968374 -0.0059406855 0.23067741 
-0.043481357 -0.009558436 0.23357424 
-0.043446 -0.012583 0.23602 
-0.032113 0.051643 0.18646 
-0.032176916 0.050181426 0.1876524 
-0.032357924 0.047725827 0.18964553 
-0.032574918 0.04513222 0.1917172 
-0.032881834 0.042288553 0.19397041 
-0.033234403 0.038894027 0.19664846 
-0.033672217 0.03624056 0.19868901 
-0.034152403 0.03325072 0.20098904 
-0.0346377 0.030105678 0.20337585 
-0.035362594 0.027040172 0.20564789 
-0.03591729 0.023882236 0.20804866 
-0.03586403 0.02136512 0.21009499 
-0.035911065 0.017546615 0.21318176 
-0.03622869 0.013837257 0.21623257 
-0.03668451 0.0100290915 0.21928743 
-0.037203465 0.0063071335 0.22223389 
-0.037687544 0.0031102456 0.22473331 
-0.03817918 0.00043756948 0.22674824 
-0.039005615 -0.002850893 0.22920501 
-0.039526917 -0.00596206 0.23163384 
-0.039858256 -0.008968497 0.23398003 
-0.039704 -0.012041 0.23651 
-0.029233 0.051989 0.1869 
-0.029224008 0.050438 0.18818566 
-0.029553674 0.0479947 0.19015738 
-0.02955214 0.04535832 0.19230443 
-0.029736694 0.042337306 0.19467582 
-0.03014561 0.039211538 0.19714846 
-0.030543046 0.03628694 0.19941548 
-0.030947149 0.03328516 0.20174511 
-0.03147357 0.029725092 0.2044161 
-0.03222918 0.026261086 0.20704196 
-0.0327207 0.023494925 0.20917287 
-0.03237589 0.021142153 0.21116881 
-0.032498058 0.017422227 0.2141955 
-0.032644395 0.014111577 0.21691957 
-0.03326058 0.010238196 0.22002666 
-0.03378639 0.0068496093 0.22269502 
-0.034295056 0.003124625 0.22561508 
-0.034894433 0.00042931808 0.22760975 
-0.035650972 -0.002856014 0.23008339 
-0.036065165 -0.006378393 0.23285699 
-0.036206275 -0.009415348 0.23528278 
-0.036454 -0.012426 0.23764 
-0.026317 0.052085 0.18755 
-0.026223375 0.05058962 0.18881817 
-0.026454216 0.04824584 0.19071236 
-0.026642185 0.04557161 0.19283573 
-0.026760675 0.04260735 0.19519994 
-0.026979746 0.039592624 0.19760671 
-0.02727566 0.036267847 0.20020035 
-0.02770163 0.03297971 0.20271356 
-0.028175933 0.029107772 0.20576611 
-0.028792936 0.025663827 0.20840725 
-0.028520145 0.023247365 0.21045159 
-0.028522165 0.020816887 0.21243495 
-0.028922396 0.016782768 0.21568303 
-0.02927171 0.013626935 0.2182337 
-0.029689638 0.00992055 0.22121878 
-0.030176163 0.006729393 0.22374693 
-0.030878376 0.0029610638 0.22660992 
-0.03130793 0.00021699947 0.22871171 
-0.032090966 -0.0028837572 0.23103684 
-0.032501157 -0.006400809 0.23381123 
-0.03252129 -0.009415265 0.23621988 
-0.033232104 -0.012556192 0.23855348 
-0.033741 -0.016125 0.24134 
-0.023349 0.052231 0.18817 
-0.023190444 0.05073721 0.1894548 
-0.02342525 0.048173368 0.19150418 
-0.023615014 0.045723587 0.19343632 
-0.023651263 0.042675223 0.19590697 
-0.02390264 0.039791655 0.19818184 
-0.024004508 0.036573805 0.2007475 
-0.024269499 0.033029407 0.20352441 
-0.024320595 0.02914614 0.20667398 
-0.024769131 0.025622068 0.20941412 
-0.02422716 0.022689462 0.21198843 
-0.02473432 0.020087613 0.21401304 
-0.025260806 0.016566401 0.21676432 
-0.025844 0.013122911 0.21955319 
-0.026131682 0.010006204 0.22204971 
-0.026484398 0.006693098 0.22465473 
-0.027162572 0.0028971038 0.22758938 
-0.027634062 -0.0001623468 0.22997548 
-0.028007608 -0.0029548462 0.23218454 
-0.02858636 -0.006450445 0.23487546 
-0.02904878 -0.009387464 0.23708624 
-0.029992033 -0.012418485 0.23928533 
-0.03019 -0.016568 0.24259 
-0.020429 0.050381 0.19041 
-0.020261692 0.048146706 0.19227895 
-0.020410877 0.04567996 0.19425766 
-0.020686824 0.042993743 0.19640014 
-0.02076727 0.03994806 0.19883384 
-0.020808699 0.037111774 0.2011077 
-0.020812621 0.033057574 0.20437583 
-0.02093397 0.029777747 0.2070471 
-0.02102785 0.026296446 0.20985164 
-0.021107478 0.022949208 0.21252142 
-0.021299401 0.019827977 0.21506006 
-0.021838002 0.016507886 0.21771953 
-0.022478595 0.01297728 0.22047819 
-0.022661101 0.009913078 0.22298448 
-0.022958677 0.0065869913 0.22562154 
-0.023430774 0.0026459948 0.22874568 
-0.024113396 -0.0007037625 0.2313647 
-0.024328567 -0.0032381227 0.233362 
-0.024272192 -0.006650568 0.23611683 
-0.024855977 -0.009239396 0.23802859 
-0.025844328 -0.011996442 0.23998198 
-0.026489 -0.016805 0.2437 
-0.017256 0.048036 0.19312 
-0.017368313 0.045630507 0.195051 
-0.01751883 0.04301857 0.19716199 
-0.017619636 0.040078416 0.19947883 
-0.017814267 0.037303045 0.20169087 
-0.017565006 0.03341332 0.20489937 
-0.017684616 0.029871551 0.20776662 
-0.017860858 0.026854277 0.21019611 
-0.018174512 0.023803638 0.21259083 
-0.017986605 0.02004676 0.2157411 
-0.018430466 0.016699374 0.21845119 
-0.018904466 0.013415511 0.22105339 
-0.019041386 0.010029122 0.22378467 
-0.019282294 0.0061028064 0.2269434 
-0.019714754 0.002454791 0.2298458 
-0.020257905 -0.00084658206 0.2324227 
-0.020235132 -0.0035271826 0.23460767 
-0.020257015 -0.0063851895 0.23688246 
-0.021071168 -0.00956398 0.23923889 
-0.021834958 -0.012908706 0.24171956 
-0.022633 -0.017556 0.24528 
-0.014544 0.0452 0.19611 
-0.014361662 0.04282865 0.19807245 
-0.014484582 0.04000086 0.20033522 
-0.014678416 0.037414275 0.20237178 
-0.014431635 0.034233425 0.2049725 
-0.014487856 0.030326502 0.20811774 
-0.014573071 0.026906155 0.21094199 
-0.014708652 0.023586437 0.21369979 
-0.014874858 0.020127265 0.21650675 
-0.015030581 0.017049571 0.21904716 
-0.015045187 0.013816668 0.22169046 
-0.0152716795 0.009978331 0.2247403 
-0.015715262 0.0058615515 0.22799625 
-0.016012307 0.0025249133 0.23074144 
-0.016361691 -0.0004162548 0.23306562 
-0.016475655 -0.0037897504 0.23574589 
-0.016703172 -0.006907007 0.23819157 
-0.017151456 -0.010067464 0.24062182 
-0.017905315 -0.014186303 0.24372803 
-0.018345 -0.018081 0.24678 
-0.011732 0.04267 0.19887 
-0.011235234 0.040409867 0.20085332 
-0.011290502 0.037690505 0.20291375 
-0.011107243 0.0344767 0.2055216 
-0.011384239 0.0306551 0.2085886 
-0.01126471 0.026953153 0.21168056 
-0.011283667 0.02366014 0.21450047 
-0.011659884 0.020433037 0.21709886 
-0.011647682 0.017525136 0.21948034 
-0.011416867 0.013816662 0.22257797 
-0.0116862105 0.009913228 0.22563706 
-0.01194973 0.0061549335 0.22864915 
-0.012246783 0.00283761 0.23133227 
-0.012929149 -0.00045824386 0.23385975 
-0.012864034 -0.0031766507 0.2360954 
-0.013117007 -0.0071246335 0.23922653 
-0.0135003915 -0.01032135 0.24171019 
-0.014069607 -0.014858438 0.24522091 
-0.014929 -0.017639 0.24727 
-0.0081946 0.040334 0.20166 
-0.007968219 0.037619233 0.20378548 
-0.008055182 0.03416231 0.20650741 
-0.008121576 0.031092428 0.20906775 
-0.008162104 0.027367095 0.21212086 
-0.007977773 0.024044642 0.21499619 
-0.008036728 0.02091879 0.21756247 
-0.008192452 0.017969184 0.21996559 
-0.0080027785 0.014049676 0.22317582 
-0.008044106 0.010090472 0.22635716 
-0.008286243 0.006208894 0.22951952 
-0.008710802 0.0032591391 0.23184913 
-0.009164422 -0.00034071616 0.23466216 
-0.009355518 -0.0031261446 0.23688935 
-0.009607338 -0.007209345 0.24005134 
-0.01028 -0.010639 0.24273 
-0.011121 -0.013447 0.24481 
-0.0055146 0.039605 0.20293 
-0.0044926303 0.037184983 0.20487309 
-0.004582217 0.034518976 0.20722578 
-0.0046612294 0.03157476 0.20959294 
-0.0045681424 0.028226893 0.21236382 
-0.004634363 0.024800407 0.21519189 
-0.0045124595 0.021417195 0.218027 
-0.0046367655 0.018203335 0.22063866 
-0.0045583514 0.0146370735 0.22350234 
-0.004707005 0.010808143 0.22653675 
-0.0047686775 0.006921636 0.22981481 
-0.0052358885 0.0037930529 0.23228699 
-0.0055711167 -0.00011174721 0.23530902 
-0.0061969 -0.0031128 0.23761 
-0.0071032 -0.0063473 0.24002 
-0.0015804 0.036841 0.20617 
-0.0012000368 0.03487231 0.2078508 
-0.0012773988 0.032052126 0.21009713 
-0.0011612991 0.029123398 0.21248488 
-0.0011345098 0.025900673 0.2151565 
-0.0011332792 0.02243754 0.21802488 
-0.0010761236 0.018983033 0.22088285 
-0.0010313 0.015794 0.22347 
-0.0014019 0.012076 0.22642 
-0.0015742 0.0082159 0.22952 
-0.0022256 0.0044729 0.23241 
-0.0032191 0.0004202 0.23547 
0.0018553 0.035081 0.20846 
0.0022782 0.032625 0.21057 
0.002266 0.02993 0.21277 
0.0021046 0.026606 0.21544 
0.0020287 0.023613 0.21786 
0.0016399 0.020347 0.22043 
-0.0077765104 -0.0018644534 0.23623331 
-0.048013844 0.0324208 0.19824474 
-0.05837788 0.029517716 0.19218567 
-0.02187954 0.046891022 0.19291195 
-0.016167847 0.038765956 0.20090653 
-0.016202383 -0.016166113 0.24574251 
-0.015204361 0.008881809 0.21258533 
-0.05891051 0.024258833 0.19564846 
-0.045929287 -0.017184246 0.22854422 
-0.012960781 0.038867533 0.2016177 
-0.022616573 0.024041755 0.21124007 
-0.05899905 0.02259466 0.1980009 
-0.011734253 -0.020230208 0.24053161 
-0.033019755 0.05056906 0.18713023 
-0.048590455 -0.014279922 0.22563373 
-0.058605976 0.025765054 0.19321783 
-0.05782215 0.030951025 0.19004606 
-0.024986448 0.021147845 0.20010525 
-0.016637066 0.015556544 0.2198858 
-0.059040435 0.023173198 0.19683339 
-0.057114806 0.035160605 0.19367112 
-0.043798495 0.04064004 0.19252434 
-0.040279992 0.043247357 0.19129306 
-0.04325915 0.042989433 0.1907396 
-0.036679916 0.048582245 0.18783423 
-0.033822775 0.048725404 0.188449 
-0.0210751 0.024711223 0.2110983 
-0.018849736 0.032048598 0.20571133 
-0.019046163 0.038411386 0.20049646 
-0.05359666 0.0015051005 0.2219565 
-0.046591144 0.0010756254 0.22403939 
-0.015893245 0.028888585 0.20898873 
-0.0134899 0.031556994 0.20733704 
-0.013490094 0.021511698 0.21574026 
-0.0100123 0.03209002 0.20773701 
-0.013478223 0.01901302 0.2178249 
0.00056000316 0.018531721 0.22165988 
-0.009926958 -0.017808605 0.23971915 
-0.013366539 -0.022656715 0.24136294 
-0.016575046 -0.023068225 0.24079537 
-0.02837324 -0.02128445 0.23732397 
-0.037965458 -0.016827738 0.23106647 
-0.041630127 -0.017590398 0.23061821 
-0.0448121 -0.017837536 0.23000602 
-0.056900185 0.01759723 0.19927177 
-0.059137985 0.021301247 0.19937022 
-0.058810227 0.025291486 0.19448009 
-0.058128167 0.030301888 0.19073237 
-0.010520244 -0.015619604 0.24226889 
-0.034053728 0.04767653 0.18095085 
-0.031038245 0.04779166 0.18157484 
-0.025143314 0.048214506 0.18266721 
-0.02807596 0.04812487 0.18201996 
-0.045750786 -0.01529605 0.23268484 
-0.042592425 -0.014977613 0.23342904 
-0.025731442 0.050147716 0.18510774 
-0.028656716 0.050063934 0.18446586 
-0.031581122 0.04974734 0.18406826 
-0.034598477 0.04964095 0.1834411 
-0.027498232 0.046193905 0.179553 
-0.024569027 0.046340693 0.18017027 
-0.030500975 0.0458917 0.17912546 
-0.033537112 0.045760773 0.17853853 
-0.017458575 -0.020576611 0.24378744 
-0.05750629 0.019653859 0.20181933 
-0.016064387 0.03184401 0.20652428 
-0.056257535 0.015557562 0.19674125 
-0.03184866 0.05068898 0.18526453 
3 9 1 8 
3 8 19 9 
3 1 7 8 
3 9 2 1 
3 19 20 9 
3 8 18 19 
3 7 17 8 
3 9 10 2 
3 20 10 9 
3 20 21 10 
3 19 33 20 
3 18 32 19 
3 8 17 18 
3 17 31 18 
3 7 6 17 
3 10 3 2 
3 21 11 10 
3 20 34 21 
3 33 34 20 
3 33 50 34 
3 19 32 33 
3 32 49 33 
3 18 31 32 
3 31 47 32 
3 17 30 31 
3 6 16 17 
3 10 11 3 
3 11 4 3 
3 21 22 11 
3 34 22 21 
3 34 35 22 
3 50 35 34 
3 50 51 35 
3 33 49 50 
3 49 68 50 
3 32 48 49 
3 47 48 32 
3 47 65 48 
3 31 30 47 
3 30 46 47 
3 17 16 30 
3 16 29 30 
3 11 12 4 
3 22 12 11 
3 22 23 12 
3 35 36 22 
3 51 36 35 
3 51 52 36 
3 50 69 51 
3 68 69 50 
3 68 89 69 
3 49 67 68 
3 48 67 49 
3 48 66 67 
3 65 66 48 
3 65 86 66 
3 47 64 65 
3 46 64 47 
3 46 45 64 
3 30 29 46 
3 29 45 46 
3 29 28 45 
3 16 15 29 
3 12 5 4 
3 23 13 12 
3 22 36 23 
3 36 37 23 
3 52 37 36 
3 52 53 37 
3 51 69 52 
3 69 70 52 
3 89 90 69 
3 68 88 89 
3 67 88 68 
3 67 87 88 
3 66 87 67 
3 66 86 87 
3 86 108 87 
3 65 85 86 
3 64 85 65 
3 64 84 85 
3 45 63 64 
3 28 44 45 
3 29 15 28 
3 15 27 28 
3 12 13 5 
3 23 14 13 
3 37 24 23 
3 53 38 37 
3 52 70 53 
3 70 71 53 
3 69 90 70 
3 90 91 70 
3 89 111 90 
3 88 110 89 
3 87 109 88 
3 108 109 87 
3 108 130 109 
3 86 85 108 
3 85 107 108 
3 84 106 85 
3 64 63 84 
3 63 83 84 
3 45 44 63 
3 44 62 63 
3 28 27 44 
3 27 43 44 
3 23 24 14 
3 24 25 14 
3 37 38 24 
3 38 25 24 
3 38 26 25 
3 53 54 38 
3 71 54 53 
3 71 72 54 
3 70 91 71 
3 91 92 71 
3 90 112 91 
3 111 112 90 
3 111 133 112 
3 89 110 111 
3 110 132 111 
3 88 109 110 
3 109 131 110 
3 130 131 109 
3 130 152 131 
3 108 129 130 
3 107 129 108 
3 107 128 129 
3 85 106 107 
3 106 128 107 
3 106 127 128 
3 84 83 106 
3 83 105 106 
3 63 62 83 
3 62 61 83 
3 44 43 62 
3 43 61 62 
3 43 42 61 
3 27 42 43 
3 38 39 26 
3 71 92 72 
3 92 93 72 
3 91 113 92 
3 112 113 91 
3 112 134 113 
3 133 134 112 
3 133 155 134 
3 111 132 133 
3 132 154 133 
3 110 131 132 
3 131 153 132 
3 152 153 131 
3 152 174 153 
3 130 151 152 
3 129 151 130 
3 129 128 151 
3 128 150 151 
3 127 149 128 
3 106 105 127 
3 105 126 127 
3 83 82 105 
3 61 82 83 
3 61 60 82 
3 42 60 61 
3 93 73 72 
3 92 114 93 
3 113 114 92 
3 113 135 114 
3 134 135 113 
3 134 156 135 
3 155 156 134 
3 155 177 156 
3 133 154 155 
3 154 176 155 
3 132 153 154 
3 153 175 154 
3 174 175 153 
3 174 197 175 
3 152 173 174 
3 151 173 152 
3 151 150 173 
3 150 172 173 
3 128 149 150 
3 149 171 150 
3 127 148 149 
3 126 148 127 
3 126 125 148 
3 105 104 126 
3 82 104 105 
3 82 103 104 
3 60 81 82 
3 73 55 72 
3 93 94 73 
3 114 115 93 
3 135 136 114 
3 156 157 135 
3 177 178 156 
3 155 176 177 
3 715 713 409 
3 154 175 176 
3 175 198 176 
3 197 198 175 
3 197 219 198 
3 174 196 197 
3 173 196 174 
3 173 195 196 
3 172 195 173 
3 172 194 195 
3 150 171 172 
3 171 194 172 
3 171 170 194 
3 149 148 171 
3 148 170 171 
3 148 147 170 
3 125 147 148 
3 125 146 147 
3 126 104 125 
3 104 103 125 
3 103 102 125 
3 82 81 103 
3 81 80 103 
3 60 80 81 
3 73 56 55 
3 94 74 73 
3 93 116 94 
3 115 116 93 
3 115 138 116 
3 114 136 115 
3 136 137 115 
3 135 157 136 
3 157 158 136 
3 156 178 157 
3 178 179 157 
3 177 200 178 
3 200 201 178 
3 593 613 710 
3 198 199 176 
3 198 221 199 
3 219 220 198 
3 197 196 219 
3 196 218 219 
3 195 217 196 
3 194 217 195 
3 194 216 217 
3 170 193 194 
3 147 169 170 
3 146 168 147 
3 125 124 146 
3 102 124 125 
3 103 80 102 
3 56 40 55 
3 73 74 56 
3 74 57 56 
3 94 95 74 
3 116 117 94 
3 138 139 116 
3 115 137 138 
3 137 160 138 
3 136 159 137 
3 158 159 136 
3 158 180 159 
3 157 179 158 
3 179 180 158 
3 179 202 180 
3 178 201 179 
3 201 202 179 
3 201 223 202 
3 200 223 201 
3 200 222 223 
3 199 222 200 
3 199 221 222 
3 221 243 222 
3 198 220 221 
3 220 241 221 
3 219 240 220 
3 218 240 219 
3 218 239 240 
3 196 217 218 
3 217 238 218 
3 216 237 217 
3 194 193 216 
3 193 215 216 
3 170 192 193 
3 169 192 170 
3 169 191 192 
3 147 168 169 
3 168 191 169 
3 40 39 55 
3 56 41 40 
3 57 41 56 
3 57 58 41 
3 74 75 57 
3 95 75 74 
3 95 96 75 
3 94 117 95 
3 117 118 95 
3 116 139 117 
3 139 140 117 
3 138 161 139 
3 160 161 138 
3 160 182 161 
3 137 159 160 
3 159 181 160 
3 180 181 159 
3 180 203 181 
3 202 203 180 
3 202 224 203 
3 223 224 202 
3 223 245 224 
3 222 244 223 
3 243 244 222 
3 243 263 244 
3 221 242 243 
3 241 242 221 
3 241 262 242 
3 220 240 241 
3 240 261 241 
3 239 260 240 
3 218 238 239 
3 238 258 239 
3 217 237 238 
3 237 257 238 
3 216 236 237 
3 215 236 216 
3 215 214 236 
3 193 214 215 
3 193 192 214 
3 192 191 214 
3 39 54 55 
3 57 76 58 
3 75 76 57 
3 75 97 76 
3 96 97 75 
3 96 119 97 
3 95 118 96 
3 118 119 96 
3 118 140 119 
3 140 118 117 
3 139 161 140 
3 161 162 140 
3 182 183 161 
3 160 181 182 
3 181 204 182 
3 203 204 181 
3 203 225 204 
3 224 225 203 
3 224 245 225 
3 245 246 225 
3 223 244 245 
3 244 264 245 
3 263 264 244 
3 263 282 264 
3 243 262 263 
3 262 243 242 
3 241 261 262 
3 261 280 262 
3 240 260 261 
3 260 279 261 
3 239 259 260 
3 258 259 239 
3 258 277 259 
3 238 257 258 
3 257 277 258 
3 237 236 257 
3 76 59 58 
3 97 98 76 
3 119 120 97 
3 140 141 119 
3 162 141 140 
3 162 163 141 
3 161 183 162 
3 183 184 162 
3 182 205 183 
3 204 205 182 
3 204 226 205 
3 225 226 204 
3 225 247 226 
3 246 247 225 
3 605 606 701 
3 245 266 246 
3 245 265 266 
3 264 265 245 
3 264 283 265 
3 282 283 264 
3 282 300 283 
3 263 281 282 
3 262 281 263 
3 262 280 281 
3 280 298 281 
3 261 279 280 
3 279 297 280 
3 260 278 279 
3 259 278 260 
3 259 277 278 
3 277 296 278 
3 76 77 59 
3 98 77 76 
3 98 99 77 
3 97 120 98 
3 120 121 98 
3 119 141 120 
3 141 142 120 
3 163 142 141 
3 163 164 142 
3 162 184 163 
3 184 185 163 
3 183 206 184 
3 205 206 183 
3 205 227 206 
3 226 227 205 
3 226 247 227 
3 247 248 227 
3 3 4 699 
3 265 285 266 
3 283 284 265 
3 300 301 283 
3 282 299 300 
3 281 299 282 
3 281 298 299 
3 298 316 299 
3 280 297 298 
3 297 314 298 
3 279 296 297 
3 296 279 278 
3 77 78 59 
3 99 78 77 
3 99 79 78 
3 98 121 99 
3 121 122 99 
3 120 142 121 
3 142 143 121 
3 164 143 142 
3 164 165 143 
3 163 185 164 
3 185 186 164 
3 184 207 185 
3 206 207 184 
3 206 228 207 
3 227 228 206 
3 227 248 228 
3 248 249 228 
3 247 267 248 
3 267 268 248 
3 266 285 267 
3 285 286 267 
3 265 284 285 
3 284 303 285 
3 283 302 284 
3 301 302 283 
3 301 319 302 
3 300 318 301 
3 299 317 300 
3 316 317 299 
3 316 331 317 
3 298 315 316 
3 314 315 298 
3 314 328 315 
3 297 313 314 
3 296 313 297 
3 99 100 79 
3 122 100 99 
3 122 101 100 
3 121 144 122 
3 143 144 121 
3 143 165 144 
3 165 166 144 
3 164 186 165 
3 186 187 165 
3 185 208 186 
3 207 208 185 
3 207 229 208 
3 228 229 207 
3 228 249 229 
3 249 250 229 
3 248 268 249 
3 268 269 249 
3 267 286 268 
3 286 287 268 
3 285 303 286 
3 303 304 286 
3 284 302 303 
3 302 319 303 
3 319 320 303 
3 301 318 319 
3 318 333 319 
3 300 317 318 
3 317 332 318 
3 331 332 317 
3 331 343 332 
3 316 330 331 
3 315 330 316 
3 315 329 330 
3 328 329 315 
3 328 340 329 
3 100 101 79 
3 122 123 101 
3 144 145 122 
3 166 145 144 
3 166 167 145 
3 165 187 166 
3 187 188 166 
3 186 209 187 
3 208 209 186 
3 208 230 209 
3 229 230 208 
3 229 250 230 
3 250 251 230 
3 249 269 250 
3 269 270 250 
3 268 287 269 
3 287 288 269 
3 286 305 287 
3 304 305 286 
3 304 322 305 
3 303 321 304 
3 320 321 303 
3 320 335 321 
3 319 334 320 
3 333 334 319 
3 333 345 334 
3 318 332 333 
3 332 344 333 
3 343 344 332 
3 331 342 343 
3 330 342 331 
3 330 341 342 
3 329 340 330 
3 340 341 330 
3 122 145 123 
3 166 189 167 
3 188 189 166 
3 188 212 189 
3 187 210 188 
3 209 210 187 
3 209 231 210 
3 230 231 209 
3 230 251 231 
3 251 252 231 
3 250 271 251 
3 270 271 250 
3 270 289 271 
3 269 289 270 
3 269 288 289 
3 288 307 289 
3 287 305 288 
3 305 306 288 
3 322 323 305 
3 304 321 322 
3 321 336 322 
3 335 336 321 
3 320 334 335 
3 334 345 335 
3 333 344 345 
3 189 190 167 
3 212 190 189 
3 212 213 190 
3 188 211 212 
3 210 211 188 
3 210 232 211 
3 231 232 210 
3 231 252 232 
3 252 253 232 
3 251 271 252 
3 271 272 252 
3 289 290 271 
3 307 290 289 
3 307 308 290 
3 288 306 307 
3 306 324 307 
3 305 323 306 
3 323 324 306 
3 323 338 324 
3 322 337 323 
3 336 337 322 
3 211 234 212 
3 232 233 211 
3 253 233 232 
3 253 254 233 
3 252 272 253 
3 272 273 253 
3 271 291 272 
3 290 291 271 
3 290 308 291 
3 308 309 291 
3 307 325 308 
3 324 325 307 
3 324 339 325 
3 338 339 324 
3 323 337 338 
3 211 233 234 
3 233 254 234 
3 254 255 234 
3 253 273 254 
3 273 274 254 
3 272 291 273 
3 291 292 273 
3 309 292 291 
3 309 310 292 
3 308 325 309 
3 325 326 309 
3 339 326 325 
3 254 274 255 
3 274 275 255 
3 273 292 274 
3 292 293 274 
3 310 293 292 
3 310 311 293 
3 309 327 310 
3 326 327 309 
3 275 256 255 
3 274 293 275 
3 293 294 275 
3 311 312 293 
3 310 327 311 
3 256 235 255 
3 275 276 256 
3 294 295 275 
3 293 312 294 
3 275 295 276 
3 7 0 6 
3 72 55 54 
3 38 54 39 
3 39 40 26 
3 314 313 328 
3 212 234 213 
3 234 235 213 
3 235 234 255 
3 7 1 0 
3 294 312 295 
3 712 347 355 
3 365 354 355 
3 442 421 722 
3 348 355 347 
3 366 365 355 
3 364 354 365 
3 364 363 353 
3 356 355 348 
3 356 366 355 
3 367 366 356 
3 379 365 366 
3 378 364 365 
3 364 353 354 
3 377 363 364 
3 352 353 363 
3 349 356 348 
3 357 367 356 
3 380 366 367 
3 380 379 366 
3 396 379 380 
3 378 365 379 
3 605 585 696 
3 377 364 378 
3 393 377 378 
3 376 363 377 
3 362 352 363 
3 357 356 349 
3 350 357 349 
3 368 367 357 
3 367 381 380 
3 368 381 367 
3 380 397 396 
3 381 397 380 
3 395 379 396 
3 414 395 396 
3 1 2 694 
3 394 393 378 
3 411 393 394 
3 376 377 393 
3 392 376 393 
3 362 363 376 
3 375 362 376 
3 358 357 350 
3 358 368 357 
3 369 368 358 
3 382 381 368 
3 381 398 397 
3 382 398 381 
3 415 396 397 
3 415 414 396 
3 435 414 415 
3 413 395 414 
3 395 412 394 
3 413 412 395 
3 412 411 394 
3 432 411 412 
3 410 393 411 
3 410 392 393 
3 713 715 391 
3 375 376 392 
3 391 375 392 
3 374 375 391 
3 361 362 375 
3 351 358 350 
3 359 369 358 
3 382 368 369 
3 383 382 369 
3 383 398 382 
3 399 398 383 
3 415 397 398 
3 416 415 398 
3 436 435 415 
3 434 414 435 
3 434 413 414 
3 433 413 434 
3 433 412 413 
3 432 412 433 
3 454 432 433 
3 431 411 432 
3 431 410 411 
3 430 410 431 
3 429 408 714 
3 390 374 391 
3 361 375 374 
3 373 361 374 
3 359 358 351 
3 360 369 359 
3 370 383 369 
3 384 399 383 
3 416 398 399 
3 417 416 399 
3 436 415 416 
3 437 436 416 
3 457 435 436 
3 456 434 435 
3 455 433 434 
3 455 454 433 
3 476 454 455 
3 453 431 432 
3 454 453 432 
3 452 430 431 
3 409 410 430 
3 566 567 719 
3 449 427 716 
3 427 428 716 
3 373 374 390 
3 389 373 390 
3 370 369 360 
3 371 370 360 
3 384 383 370 
3 371 384 370 
3 372 384 371 
3 400 399 384 
3 400 417 399 
3 418 417 400 
3 437 416 417 
3 438 437 417 
3 458 436 437 
3 458 457 436 
3 479 457 458 
3 456 435 457 
3 478 456 457 
3 455 434 456 
3 477 455 456 
3 477 476 455 
3 498 476 477 
3 475 454 476 
3 475 453 454 
3 474 453 475 
3 452 431 453 
3 474 452 453 
3 473 452 474 
3 429 430 452 
3 451 429 452 
3 408 390 715 
3 407 408 429 
3 389 390 408 
3 407 389 408 
3 388 389 407 
3 388 373 389 
3 385 384 372 
3 438 417 418 
3 439 438 418 
3 459 437 438 
3 459 458 437 
3 480 458 459 
3 480 479 458 
3 501 479 480 
3 478 457 479 
3 500 478 479 
3 477 456 478 
3 499 477 478 
3 499 498 477 
3 520 498 499 
3 498 475 476 
3 498 497 475 
3 474 475 497 
3 496 474 497 
3 495 473 474 
3 451 452 473 
3 472 451 473 
3 428 429 451 
3 428 407 429 
3 406 407 428 
3 406 388 407 
3 419 439 418 
3 460 438 439 
3 460 459 438 
3 481 459 460 
3 481 480 459 
3 502 480 481 
3 502 501 480 
3 523 501 502 
3 500 479 501 
3 522 500 501 
3 499 478 500 
3 521 499 500 
3 521 520 499 
3 543 520 521 
3 520 497 498 
3 520 519 497 
3 496 497 519 
3 518 496 519 
3 495 474 496 
3 518 517 495 
3 494 473 495 
3 494 472 473 
3 471 472 494 
3 450 451 472 
3 450 428 451 
3 569 590 718 
3 427 406 428 
3 401 419 418 
3 440 439 419 
3 461 460 439 
3 482 481 460 
3 503 502 481 
3 524 523 502 
3 522 501 523 
3 523 545 522 
3 521 500 522 
3 544 521 522 
3 544 543 521 
3 565 543 544 
3 542 520 543 
3 542 519 520 
3 541 519 542 
3 541 518 519 
3 540 518 541 
3 518 495 496 
3 540 517 518 
3 516 517 540 
3 516 494 495 
3 517 516 495 
3 493 494 516 
3 493 471 494 
3 492 471 493 
3 702 569 718 
3 568 702 718 
3 346 0 708 
3 471 449 717 
3 426 427 449 
3 426 406 427 
3 402 419 401 
3 420 440 419 
3 462 439 440 
3 462 461 439 
3 484 461 462 
3 482 460 461 
3 483 482 461 
3 503 481 482 
3 504 503 482 
3 524 502 503 
3 525 524 503 
3 546 523 524 
3 547 546 524 
3 546 545 523 
3 545 544 522 
3 545 566 544 
3 566 565 544 
3 542 543 565 
3 564 542 565 
3 563 541 542 
3 563 540 541 
3 562 540 563 
3 539 516 540 
3 515 493 516 
3 514 492 493 
3 470 471 492 
3 78 79 706 
3 426 449 448 
3 386 402 401 
3 420 419 402 
3 403 420 402 
3 441 440 420 
3 463 462 440 
3 485 484 462 
3 483 461 484 
3 506 483 484 
3 483 504 482 
3 483 505 504 
3 526 504 505 
3 525 503 504 
3 526 525 504 
3 548 525 526 
3 547 524 525 
3 548 547 525 
3 569 547 548 
3 470 448 705 
3 711 4 5 
3 568 545 546 
3 567 545 568 
3 589 567 568 
3 567 566 545 
3 403 387 721 
3 586 565 566 
3 387 58 721 
3 58 404 721 
3 563 542 564 
3 584 563 564 
3 583 562 563 
3 266 267 698 
3 606 605 696 
3 538 516 539 
3 538 515 516 
3 537 515 538 
3 514 493 515 
3 537 514 515 
3 385 386 401 
3 387 402 386 
3 387 403 402 
3 680 681 728 
3 421 420 403 
3 421 441 420 
3 442 441 421 
3 463 440 441 
3 464 463 441 
3 485 462 463 
3 486 485 463 
3 507 484 485 
3 507 506 484 
3 528 506 507 
3 505 483 506 
3 527 505 506 
3 527 526 505 
3 549 526 527 
3 549 548 526 
3 570 548 549 
3 570 569 548 
3 591 569 570 
3 567 588 719 
3 565 586 720 
3 609 589 590 
3 588 567 589 
3 585 564 720 
3 586 566 587 
3 587 606 586 
3 347 708 739 
3 584 564 585 
3 604 584 585 
3 583 563 584 
3 603 583 584 
3 582 562 583 
3 582 561 562 
3 560 561 582 
3 560 539 561 
3 538 539 560 
3 537 538 560 
3 400 385 401 
3 422 403 404 
3 422 421 403 
3 645 644 726 
3 608 588 723 
3 465 442 443 
3 464 441 442 
3 465 464 442 
3 487 486 464 
3 464 486 463 
3 508 507 485 
3 486 508 485 
3 529 528 507 
3 527 506 528 
3 550 527 528 
3 550 549 527 
3 571 549 550 
3 571 570 549 
3 592 591 570 
3 571 592 570 
3 590 569 591 
3 610 590 591 
3 610 609 590 
3 628 609 610 
3 610 611 725 
3 608 627 724 
3 607 587 757 
3 611 630 725 
3 607 606 587 
3 625 606 607 
3 621 622 697 
3 605 604 585 
3 623 604 605 
3 603 584 604 
3 623 603 604 
3 582 583 603 
3 405 422 404 
3 444 443 422 
3 466 465 443 
3 465 487 464 
3 486 509 508 
3 487 509 486 
3 529 507 508 
3 530 529 508 
3 551 528 529 
3 551 550 528 
3 572 550 551 
3 572 571 550 
3 593 571 572 
3 593 592 571 
3 346 347 712 
3 592 611 591 
3 612 611 592 
3 611 610 591 
3 612 631 727 
3 629 628 610 
3 646 628 629 
3 627 609 628 
3 627 608 609 
3 630 629 725 
3 631 630 727 
3 625 607 626 
3 643 625 626 
3 587 719 757 
3 736 5 758 
3 623 605 624 
3 642 623 624 
3 423 422 405 
3 423 444 422 
3 445 444 423 
3 466 443 444 
3 467 466 444 
3 488 487 465 
3 466 488 465 
3 487 510 509 
3 488 510 487 
3 530 508 509 
3 531 530 509 
3 552 529 530 
3 552 551 529 
3 573 551 552 
3 573 572 551 
3 593 572 573 
3 594 593 573 
3 703 350 711 
3 312 311 729 
3 627 645 726 
3 647 646 629 
3 646 627 628 
3 646 645 627 
3 630 611 727 
3 645 661 644 
3 643 626 644 
3 660 643 644 
3 642 625 643 
3 625 642 624 
3 424 423 405 
3 424 445 423 
3 425 445 424 
3 467 444 445 
3 468 467 445 
3 488 466 467 
3 489 488 467 
3 489 510 488 
3 511 510 489 
3 531 509 510 
3 532 531 510 
3 553 530 531 
3 553 552 530 
3 574 552 553 
3 574 573 552 
3 594 573 574 
3 595 594 574 
3 613 593 594 
3 614 613 594 
3 631 612 613 
3 632 631 613 
3 681 335 728 
3 649 630 631 
3 648 629 630 
3 648 647 629 
3 665 647 648 
3 664 646 647 
3 663 645 646 
3 663 662 645 
3 677 662 663 
3 662 661 645 
3 661 660 644 
3 674 660 661 
3 659 643 660 
3 659 642 643 
3 446 445 425 
3 446 468 445 
3 447 468 446 
3 490 467 468 
3 490 489 467 
3 511 489 490 
3 512 511 490 
3 532 510 511 
3 533 532 511 
3 554 531 532 
3 554 553 531 
3 575 553 554 
3 575 574 553 
3 595 574 575 
3 596 595 575 
3 614 594 595 
3 615 614 595 
3 632 613 614 
3 633 632 614 
3 649 631 632 
3 650 649 632 
3 648 630 649 
3 666 665 648 
3 649 666 648 
3 664 647 665 
3 679 664 665 
3 663 646 664 
3 678 663 664 
3 678 677 663 
3 689 677 678 
3 676 662 677 
3 676 661 662 
3 675 661 676 
3 675 674 661 
3 686 674 675 
3 447 446 425 
3 469 468 447 
3 491 490 468 
3 491 512 490 
3 513 512 491 
3 533 511 512 
3 534 533 512 
3 555 532 533 
3 555 554 532 
3 576 554 555 
3 576 575 554 
3 596 575 576 
3 597 596 576 
3 615 595 596 
3 616 615 596 
3 633 614 615 
3 634 633 615 
3 633 650 632 
3 633 651 650 
3 668 650 651 
3 650 666 649 
3 650 667 666 
3 681 666 667 
3 680 665 666 
3 680 679 665 
3 691 679 680 
3 678 664 679 
3 690 678 679 
3 690 689 678 
3 688 677 689 
3 688 676 677 
3 687 676 688 
3 686 675 676 
3 687 686 676 
3 491 468 469 
3 513 534 512 
3 513 535 534 
3 558 534 535 
3 556 533 534 
3 556 555 533 
3 577 555 556 
3 577 576 555 
3 597 576 577 
3 598 597 577 
3 617 596 597 
3 617 616 596 
3 636 635 616 
3 635 615 616 
3 634 615 635 
3 653 634 635 
3 651 633 634 
3 652 651 634 
3 669 668 651 
3 667 650 668 
3 682 667 668 
3 682 681 667 
3 680 666 681 
3 191 168 752 
3 690 679 691 
3 536 535 513 
3 536 558 535 
3 559 558 536 
3 557 534 558 
3 557 556 534 
3 578 556 557 
3 578 577 556 
3 598 577 578 
3 599 598 578 
3 617 597 598 
3 618 617 598 
3 617 636 616 
3 635 654 653 
3 636 654 635 
3 652 634 653 
3 670 652 653 
3 669 651 652 
3 670 669 652 
3 684 669 670 
3 683 668 669 
3 683 682 668 
3 580 557 558 
3 579 578 557 
3 578 600 599 
3 579 600 578 
3 618 598 599 
3 619 618 599 
3 618 636 617 
3 618 637 636 
3 654 636 637 
3 655 654 637 
3 671 653 654 
3 671 670 653 
3 685 670 671 
3 685 684 670 
3 683 669 684 
3 579 557 580 
3 600 579 580 
3 601 600 580 
3 619 599 600 
3 620 619 600 
3 637 618 619 
3 638 637 619 
3 638 655 637 
3 656 655 638 
3 561 539 695 
3 395 394 693 
3 672 685 671 
3 620 600 601 
3 621 620 601 
3 638 619 620 
3 639 638 620 
3 639 656 638 
3 657 656 639 
3 673 655 656 
3 673 672 655 
3 602 621 601 
3 639 620 621 
3 640 639 621 
3 658 657 639 
3 673 656 657 
3 581 602 601 
3 622 621 602 
3 425 79 700 
3 658 639 640 
3 267 247 698 
3 346 353 352 
3 401 418 400 
3 400 384 385 
3 386 385 372 
3 659 660 674 
3 580 558 559 
3 581 580 559 
3 580 581 601 
3 410 409 713 
3 658 640 641 
3 15 361 373 
3 27 15 373 
3 27 373 388 
3 42 27 388 
3 42 388 406 
3 60 42 406 
3 60 406 426 
3 80 60 426 
3 700 735 745 
3 741 753 754 
3 745 735 746 
3 447 425 745 
3 168 751 752 
3 741 426 750 
3 80 741 754 
3 748 744 749 
3 514 537 747 
3 425 700 745 
3 191 537 560 
3 214 191 560 
3 214 560 582 
3 236 214 582 
3 236 582 603 
3 257 236 603 
3 257 603 623 
3 277 257 623 
3 277 623 642 
3 296 277 642 
3 642 659 313 
3 296 642 313 
3 313 659 674 
3 328 313 674 
3 328 674 686 
3 340 328 686 
3 340 686 687 
3 341 340 687 
3 341 687 688 
3 342 341 688 
3 342 688 689 
3 343 342 689 
3 343 689 690 
3 344 343 690 
3 344 690 691 
3 345 344 691 
3 704 312 729 
3 101 734 735 
3 335 681 682 
3 336 335 682 
3 336 682 683 
3 337 336 683 
3 337 683 684 
3 338 337 684 
3 338 684 685 
3 339 338 685 
3 339 685 672 
3 326 339 672 
3 326 672 673 
3 327 326 673 
3 327 673 657 
3 311 327 657 
3 737 736 756 
3 704 641 730 
3 348 2 707 
3 471 470 705 
3 213 235 732 
3 559 536 732 
3 190 213 732 
3 491 469 746 
3 256 602 581 
3 235 256 581 
3 145 167 733 
3 123 145 733 
3 537 743 747 
3 190 536 513 
3 167 190 513 
3 426 448 750 
3 700 101 735 
3 123 733 734 
3 101 123 734 
3 14 360 736 
3 448 470 759 
3 354 353 712 
3 624 605 701 
3 176 199 709 
3 2 3 707 
3 78 424 405 
3 59 78 405 
3 59 405 404 
3 58 59 404 
3 443 442 722 
3 41 58 387 
3 41 387 386 
3 40 41 386 
3 40 386 372 
3 26 40 372 
3 26 372 371 
3 25 26 371 
3 25 371 360 
3 14 25 360 
3 351 703 737 
3 5 736 737 
3 392 410 713 
3 699 349 738 
3 424 78 706 
3 295 312 704 
3 568 546 702 
3 79 101 700 
3 613 612 710 
3 0 1 708 
3 622 641 697 
3 562 561 695 
3 711 5 703 
3 199 200 709 
3 0 346 352 
3 6 0 352 
3 6 352 362 
3 16 6 362 
3 362 361 15 
3 16 362 15 
3 80 426 741 
3 655 672 692 
3 672 671 692 
3 394 378 693 
3 654 655 692 
3 671 654 692 
3 379 395 693 
3 378 379 693 
3 2 348 694 
3 348 347 694 
3 540 562 695 
3 539 540 695 
3 586 606 696 
3 588 589 723 
3 640 621 697 
3 641 640 697 
3 247 246 698 
3 246 266 698 
3 712 355 354 
3 350 349 699 
3 608 724 757 
3 469 745 746 
3 625 624 701 
3 606 625 701 
3 547 569 702 
3 546 547 702 
3 707 3 738 
3 351 350 703 
3 295 704 730 
3 742 750 749 
3 449 471 705 
3 448 449 705 
3 79 425 706 
3 425 424 706 
3 708 1 739 
3 641 622 755 
3 657 658 740 
3 347 346 708 
3 200 177 709 
3 177 176 709 
3 592 593 710 
3 612 592 710 
3 350 699 711 
3 699 4 711 
3 353 346 712 
3 472 471 717 
3 3 699 738 
3 391 392 713 
3 430 429 714 
3 409 430 714 
3 390 391 715 
3 714 408 715 
3 409 714 715 
3 428 450 716 
3 450 472 717 
3 716 450 717 
3 449 716 717 
3 590 589 718 
3 589 568 718 
3 587 566 719 
3 564 565 720 
3 696 585 720 
3 586 696 720 
3 404 403 721 
3 422 443 722 
3 421 422 722 
3 609 608 723 
3 589 609 723 
3 626 607 724 
3 5 13 758 
3 748 749 759 
3 629 610 725 
3 644 626 726 
3 724 627 726 
3 626 724 726 
3 611 612 727 
3 691 680 728 
3 345 691 728 
3 335 345 728 
3 311 657 729 
3 168 146 751 
3 581 559 732 
3 235 581 732 
3 295 730 731 
3 276 295 731 
3 256 276 731 
3 602 256 731 
3 536 190 732 
3 167 513 733 
3 513 491 733 
3 719 588 757 
3 703 5 737 
3 492 514 747 
3 694 347 739 
3 729 657 740 
3 588 608 757 
3 349 348 738 
3 348 707 738 
3 1 694 739 
3 704 729 740 
3 658 641 740 
3 641 704 740 
3 622 602 755 
3 492 747 748 
3 102 80 754 
3 735 734 746 
3 469 447 745 
3 743 748 747 
3 537 191 743 
3 744 752 751 
3 751 124 753 
3 734 733 746 
3 733 491 746 
3 744 748 743 
3 743 191 752 
3 744 742 749 
3 741 750 742 
3 146 124 751 
3 360 359 756 
3 742 744 751 
3 742 751 753 
3 743 752 744 
3 741 742 753 
3 602 731 755 
3 736 360 756 
3 754 753 102 
3 753 124 102 
3 731 730 755 
3 730 641 755 
3 359 351 756 
3 351 737 756 
3 724 607 757 
3 14 736 758 
3 13 14 758 
3 749 750 759 
3 750 448 759 
3 470 492 759 
3 492 748 759 
