ply
format ascii 1.0
comment Automatically gnerated by model-converter
element vertex 337
property float x
property float y
property float z
element face 0
property list uchar int vertex_indices
end_header
-0.0555137693882 0.0320572853088 0.185450300574
-0.0560836941004 0.02900913544 0.186399325728
-0.0568020157516 0.0260515920818 0.188506901264
-0.057619471103 0.0229695979506 0.190826699138
-0.0579923912883 0.0199471749365 0.193025425076
-0.0514396764338 0.0349413268268 0.182393088937
-0.0519279278815 0.0322022810578 0.184166952968
-0.0522647984326 0.0291883014143 0.184990182519
-0.0529208034277 0.0262738987803 0.186965852976
-0.0538318641484 0.0232734102756 0.189868658781
-0.0546874143183 0.0203627720475 0.192804679275
-0.0550281479955 0.0172888301313 0.195139020681
-0.0558224357665 0.0141328833997 0.197901919484
-0.0479217991233 0.0377846248448 0.180441394448
-0.0483040586114 0.0348417311907 0.181846916676
-0.0487231388688 0.0320406593382 0.183401316404
-0.0491086356342 0.0292254202068 0.18487764895
-0.0499646216631 0.0264275241643 0.187787264585
-0.050608240068 0.0234602186829 0.19013376534
-0.0512554980814 0.0207831114531 0.193043991923
-0.0521169416606 0.0178403705359 0.19631755352
-0.0532914847136 0.014243690297 0.200178280473
-0.0541563257575 0.0108793918043 0.204385846853
-0.0545693822205 0.00746870459989 0.206580355763
-0.0444671288133 0.0403802208602 0.179006040096
-0.0447526425123 0.0377060063183 0.180111423135
-0.0452345944941 0.0348976887763 0.181886807084
-0.0457772128284 0.032128199935 0.183987528086
-0.046237397939 0.0293262694031 0.185749933124
-0.0470651648939 0.0266009960324 0.188828885555
-0.0475650392473 0.0236238725483 0.190933853388
-0.0481701716781 0.021123945713 0.193715512753
-0.0493153296411 0.0183146782219 0.19749738276
-0.0503023527563 0.014585618861 0.202188685536
-0.0513255111873 0.0111013473943 0.206886380911
-0.0519485324621 0.00734027149156 0.209112778306
-0.0526806153357 0.00363448238932 0.211657613516
-0.0531135834754 0.000520605477504 0.213799670339
-0.0411255024374 0.0429620556533 0.178561002016
-0.04155607149 0.0405660159886 0.179773613811
-0.0418704561889 0.0378539860249 0.181081727147
-0.0424946807325 0.0351206213236 0.183387443423
-0.043039560318 0.0323998965323 0.185635298491
-0.0434016175568 0.0295484773815 0.187042415142
-0.0440101101995 0.0266974046826 0.189636692405
-0.0444006919861 0.0237063504755 0.19140869379
-0.0449698530138 0.020784324035 0.193910419941
-0.0457651168108 0.0179823581129 0.197391331196
-0.0468772426248 0.014786128886 0.202756389976
-0.0477530770004 0.01148854848 0.206868901849
-0.0485212951899 0.00771123962477 0.210220739245
-0.0492529682815 0.00370247545652 0.212329924107
-0.0496724024415 0.000504070543684 0.214257538319
-0.0499351546168 -0.00276375585236 0.216398566961
-0.0504249334335 -0.00592264533043 0.219040036201
-0.0503704436123 -0.00899670086801 0.221685767174
-0.0382846854627 0.0432404056191 0.178906515241
-0.0386390984058 0.0406084507704 0.180657401681
-0.039052657783 0.0379289463162 0.18205408752
-0.0395469367504 0.0351812057197 0.184241056442
-0.0400672852993 0.0323637351394 0.186727911234
-0.040498431772 0.0297131761909 0.188228011131
-0.040890622884 0.0267650745809 0.190056741238
-0.0411665961146 0.0237208064646 0.191351547837
-0.0416567139328 0.020722059533 0.193749204278
-0.0425274036825 0.017750043422 0.197964847088
-0.0434557832778 0.0149068795145 0.202547430992
-0.0441957749426 0.0117298699915 0.206538125873
-0.0448764897883 0.00805211719126 0.209728121758
-0.0457059592009 0.0038150891196 0.212132096291
-0.0461737811565 0.000571108597796 0.214889988303
-0.0465614497662 -0.0026683092583 0.21762406826
-0.0469271838665 -0.00610739411786 0.219493940473
-0.0471601337194 -0.00949920993298 0.221494540572
-0.0473723746836 -0.0134263904765 0.223465919495
-0.0471702367067 -0.0170985925943 0.225295975804
-0.0354243665934 0.0433544032276 0.179788678885
-0.0356983505189 0.0406319983304 0.181236997247
-0.0359623543918 0.0378476493061 0.18225158751
-0.0364602580667 0.0350817702711 0.184576064348
-0.0368867553771 0.0322067625821 0.186951711774
-0.037347625941 0.0299067925662 0.188599675894
-0.0378279648721 0.0269956234843 0.190709680319
-0.0380973853171 0.0237968340516 0.192354664207
-0.0385742709041 0.0208103079349 0.194903373718
-0.0393363535404 0.0178718715906 0.198799565434
-0.0401346124709 0.0150217115879 0.203049704432
-0.0407777838409 0.0117786573246 0.206403881311
-0.041304346174 0.00805552862585 0.208929017186
-0.0421048589051 0.00426152907312 0.21281850338
-0.0426790714264 0.000710933818482 0.215408116579
-0.0431986860931 -0.00250461767428 0.218647047877
-0.0435043349862 -0.00597361149266 0.221047833562
-0.0435656458139 -0.00971130933613 0.221693813801
-0.0439086072147 -0.0136409234256 0.223493099213
-0.0437402240932 -0.0175578668714 0.224712565541
-0.0438248962164 -0.0221234392375 0.226153850555
-0.0324936956167 0.0434198901057 0.180196553469
-0.0327033698559 0.0407302677631 0.181709632277
-0.0330506935716 0.0377857647836 0.183015555143
-0.0332448557019 0.0349855162203 0.184339702129
-0.033685863018 0.0324624218047 0.187018379569
-0.0342138633132 0.0299336332828 0.189529880881
-0.0348845347762 0.027095105499 0.191949233413
-0.0352367386222 0.0241606459022 0.194219738245
-0.0356806777418 0.0210883077234 0.1970590204
-0.0362398512661 0.0179949719459 0.200366720557
-0.0367983132601 0.0149359973148 0.203423008323
-0.037372302264 0.0116526838392 0.206566989422
-0.0378997549415 0.00787124689668 0.209571376443
-0.0385018102825 0.00419653113931 0.212851345539
-0.0391268953681 0.000737091235351 0.216085523367
-0.0394503176212 -0.00251407246105 0.219197049737
-0.0397863835096 -0.00606163218617 0.221364453435
-0.0399337299168 -0.00987719558179 0.221976086497
-0.0401987805963 -0.0138190165162 0.223694816232
-0.04024156183 -0.0182387325913 0.225198954344
-0.0403419211507 -0.0224860049784 0.2257129848
-0.0295205991715 0.0434093810618 0.180591568351
-0.029694115743 0.0407945625484 0.182084143162
-0.0299970246851 0.0379906669259 0.18420869112
-0.0302858613431 0.0351832062006 0.185819327831
-0.030786652118 0.0326678901911 0.188360899687
-0.0312423650175 0.0298744868487 0.19060972333
-0.0316690057516 0.0269613675773 0.192893624306
-0.0321134477854 0.0241031628102 0.19529992342
-0.0325187109411 0.0212622787803 0.198187053204
-0.0330023653805 0.0181554388255 0.20133189857
-0.0335414335132 0.0148518430069 0.204527229071
-0.0340293720365 0.0115062007681 0.207654356956
-0.0344501361251 0.00784782785922 0.21024531126
-0.034979686141 0.0041044158861 0.213444501162
-0.0354234948754 0.000614978547674 0.216870859265
-0.0358523800969 -0.00280083203688 0.218733936548
-0.0360335931182 -0.00644862418994 0.221177354455
-0.036230057478 -0.0103320060298 0.222917482257
-0.0363706089556 -0.0141966650262 0.224749341607
-0.0365614257753 -0.0183273777366 0.225204601884
-0.0365001261234 -0.0223559252918 0.225881502032
-0.0264891926199 0.0436027720571 0.181051403284
-0.0266282130033 0.0407820120454 0.182516843081
-0.0271189268678 0.0383709408343 0.185327589512
-0.0273828990757 0.0355848185718 0.187549993396
-0.0277775358409 0.0328194610775 0.18946492672
-0.0280748065561 0.0299104936421 0.191116377711
-0.0284581463784 0.0269216615707 0.193509012461
-0.0288660191 0.0240251999348 0.196425795555
-0.029320390895 0.0211798176169 0.199272170663
-0.0299080889672 0.0181091055274 0.202538490295
-0.0302712675184 0.0147520340979 0.205604985356
-0.0306332651526 0.0111861964688 0.208729207516
-0.0310566946864 0.00742157269269 0.211601451039
-0.0314631350338 0.00381242716685 0.214434877038
-0.031699642539 0.000340057013091 0.21717569232
-0.0321538895369 -0.00311665958725 0.218514099717
-0.0323334783316 -0.00675854971632 0.221660733223
-0.0325372256339 -0.0106086935848 0.223718374968
-0.0326939448714 -0.0144524825737 0.225307315588
-0.0328430682421 -0.0184274297208 0.225951448083
-0.0331537723541 -0.0224649459124 0.227857857943
-0.0329615361989 -0.0259394049644 0.230000928044
-0.0235791355371 0.0438340343535 0.181786671281
-0.023748671636 0.0411092042923 0.183113649487
-0.0240900330245 0.0385346375406 0.185769692063
-0.0243848655373 0.0357886664569 0.188081309199
-0.0245777256787 0.0329652577639 0.19007357955
-0.0249066762626 0.0300018135458 0.191841796041
-0.0252554565668 0.0268906559795 0.194107472897
-0.0256875641644 0.0241387113929 0.197411522269
-0.0262137055397 0.0212515220046 0.20038639009
-0.0265478044748 0.0181402750313 0.203027322888
-0.0268194098026 0.0147189572453 0.20580598712
-0.0271690767258 0.0110958162695 0.209559977055
-0.0274222809821 0.0073324535042 0.21236731112
-0.0277613997459 0.0036315084435 0.215373635292
-0.0281168334186 0.000277929328149 0.218100205064
-0.0284014083445 -0.00322475400753 0.219947382808
-0.0286084264517 -0.00679777562618 0.222845599055
-0.0288140513003 -0.0107163395733 0.224054560065
-0.0291478987783 -0.0146248126402 0.226278290153
-0.0294116027653 -0.0186144895852 0.22809715569
-0.0297978688031 -0.0226184204221 0.230002000928
-0.0300751235336 -0.0265182945877 0.231952741742
-0.0206193756312 0.0440844297409 0.182351738214
-0.0207472015172 0.0413647331297 0.183875605464
-0.0209327563643 0.0386091731489 0.185588076711
-0.021194294095 0.0358774401248 0.188105419278
-0.0215587206185 0.033073771745 0.190780296922
-0.0217741560191 0.0300674494356 0.192996919155
-0.0220720246434 0.0271658375859 0.195734515786
-0.0226031709462 0.0246232505888 0.199105888605
-0.0229604225606 0.0215785242617 0.201761126518
-0.0231762528419 0.0182610377669 0.204562097788
-0.0234226509929 0.0148327946663 0.206984266639
-0.0236616563052 0.0111265787855 0.210290580988
-0.0239297579974 0.0074398140423 0.213400512934
-0.0242569167167 0.00378693663515 0.216613546014
-0.0244882181287 0.000373193615815 0.21899074316
-0.0247329324484 -0.00326799950562 0.220765635371
-0.0250161942095 -0.0069251419045 0.224097937346
-0.0250903721899 -0.0108094010502 0.223983675241
-0.0253243632615 -0.0146282222122 0.22616609931
-0.0258609298617 -0.0186293255538 0.229464381933
-0.0263702869415 -0.022399995476 0.232040479779
-0.0263513829559 -0.0264523439109 0.233314022422
-0.0177399870008 0.0442861430347 0.183687984943
-0.017779648304 0.0416140034795 0.18514226377
-0.0178773719817 0.038694575429 0.186179846525
-0.0180884338915 0.0359099023044 0.18852199614
-0.018309591338 0.0331215821207 0.191063448787
-0.0185108557343 0.0302384775132 0.193301215768
-0.0190949719399 0.0276939533651 0.197346359491
-0.0194705352187 0.0249507073313 0.200311049819
-0.0197310876101 0.0218664892018 0.203235343099
-0.0199083145708 0.018364675343 0.206067502499
-0.0200748816133 0.0148954261094 0.208686217666
-0.0203429833055 0.0113405715674 0.21201698482
-0.020472323522 0.0076018339023 0.214404970407
-0.0207859631628 0.00401271600276 0.218106329441
-0.0208915714175 0.000493085128255 0.220328330994
-0.0210218112916 -0.0032482331153 0.221941545606
-0.0213405303657 -0.00696793431416 0.224839761853
-0.0215481836349 -0.0107133975253 0.22517812252
-0.0216977428645 -0.0146717811003 0.22686624527
-0.0221684817225 -0.0185284968466 0.230682194233
-0.0223118606955 -0.0224684588611 0.231647714972
-0.0226571206003 -0.0264342352748 0.234432354569
-0.0146491359919 0.0417535491288 0.185929983854
-0.0147773623466 0.0388658642769 0.187150225043
-0.0149365179241 0.0360144078732 0.188865065575
-0.0152207100764 0.0333481580019 0.191610515118
-0.0153826717287 0.0305083934218 0.193950399756
-0.0158781763166 0.0281696226448 0.198177650571
-0.0163967646658 0.0254583526403 0.202634990215
-0.0166437905282 0.0223950892687 0.205444797873
-0.0165106225759 0.0183731671423 0.207763016224
-0.0167116671801 0.014954123646 0.209869384766
-0.0168454237282 0.0115031674504 0.213233396411
-0.0169685911387 0.00782269518822 0.215759977698
-0.0172007102519 0.00424369471148 0.218909189105
-0.0172470267862 0.000582569395192 0.221456468105
-0.0175294280052 -0.00311091635376 0.223551258445
-0.0178651697934 -0.00710835680366 0.226246222854
-0.0178888067603 -0.0107868406922 0.226824462414
-0.0180777478963 -0.0146603370085 0.228946328163
-0.0183541085571 -0.0186665449291 0.231903478503
-0.018571536988 -0.022571163252 0.232984691858
-0.0191901605576 -0.02653298527 0.237414985895
-0.0118766184896 0.0391221158206 0.188199907541
-0.0118967676535 0.036289781332 0.189600721002
-0.0121021354571 0.0335558354855 0.192220509052
-0.0122650992125 0.0308943912387 0.195291921496
-0.0125295473263 0.0282464325428 0.198518112302
-0.0130444373935 0.0257113352418 0.203494131565
-0.0132265565917 0.0223167203367 0.206765502691
-0.0132061615586 0.0185634959489 0.209430158138
-0.0131808230653 0.0151388216764 0.211365282536
-0.0132730035111 0.0115540623665 0.21445851028
-0.0135475620627 0.00807080511004 0.217000469565
-0.0135560259223 0.00457253865898 0.218892320991
-0.0137402452528 0.000850054202601 0.221898987889
-0.0139377331361 -0.0032074470073 0.224667802453
-0.0140551021323 -0.0070884488523 0.226639136672
-0.0141767105088 -0.0111282039434 0.230102479458
-0.0142506407574 -0.0149408271536 0.231072425842
-0.0143528487533 -0.0187358800322 0.232777714729
-0.0147321829572 -0.022678412497 0.234914392233
-0.0157877709717 -0.026640670374 0.241398319602
-0.00915386341512 0.0361873097718 0.190613985062
-0.00885252654552 0.0337629728019 0.193048939109
-0.00905810855329 0.0311499554664 0.196601510048
-0.0092135630548 0.028466206044 0.199564933777
-0.00959322601557 0.0257518533617 0.203596442938
-0.00971690192819 0.0223673265427 0.206884518266
-0.00964559335262 0.0187289603055 0.209478527308
-0.00965194124728 0.0152749512345 0.212333828211
-0.00961687974632 0.0116599071771 0.214370518923
-0.00982192531228 0.00812299363315 0.217344105244
-0.00990828499198 0.00460561504588 0.219970956445
-0.0100062647834 0.000829621974844 0.222347691655
-0.0101065728813 -0.0032272466924 0.225293248892
-0.0101369405165 -0.00717129418626 0.227526396513
-0.0102214626968 -0.0112176705152 0.230423182249
-0.0102265570313 -0.0149717191234 0.231898516417
-0.0103202424943 -0.0190415196121 0.234226092696
-0.0103855570778 -0.0231090001762 0.236415192485
-0.0116970175877 -0.0264057926834 0.243081063032
-0.00575001724064 0.0343365855515 0.1966676265
-0.00590381957591 0.0316510498524 0.199078172445
-0.00605744495988 0.0288785267621 0.201847940683
-0.00628759805113 0.0262173041701 0.204919114709
-0.0062003089115 0.0225455667824 0.207004725933
-0.00608215807006 0.0189343728125 0.209635436535
-0.00608161557466 0.0153673924506 0.21251899004
-0.00614418881014 0.0117618283257 0.214782834053
-0.00620676856488 0.00815774593502 0.216915681958
-0.00616757106036 0.00452714972198 0.219878330827
-0.00623198645189 0.000767648569308 0.22251072526
-0.00626717228442 -0.00327341537923 0.224996998906
-0.0063163600862 -0.00722821941599 0.22733771801
-0.00623216945678 -0.011118450202 0.229691386223
-0.00627044122666 -0.0149908689782 0.230965211987
-0.00634588487446 -0.0190958380699 0.234433993697
-0.00663928315043 -0.0231393910944 0.237256780267
-0.00252155330963 0.0318731181324 0.199789062142
-0.00260603893548 0.0288913790137 0.20165874064
-0.00276367506012 0.026398723945 0.204635977745
-0.00260598026216 0.022766508162 0.206856042147
-0.00251771067269 0.0190784707665 0.209831789136
-0.00249704485759 0.0155357411131 0.212732091546
-0.0025283661671 0.0118022747338 0.214829906821
-0.00254107592627 0.00818764418364 0.21703453362
-0.00243292516097 0.00445256242529 0.219261839986
-0.0024501264561 0.000491030397825 0.223110750318
-0.00243008299731 -0.00342297949828 0.224846303463
-0.00247474201024 -0.00741009181365 0.226611807942
-0.00233123544604 -0.0111975874752 0.228329047561
-0.00272661214694 -0.0148663902655 0.230138272047
0.000423521822086 0.0315905325115 0.200532466173
0.000790491234511 0.0290408562869 0.201970666647
0.000832946621813 0.026241151616 0.204247325659
0.000965870567597 0.0231219436973 0.206330627203
0.0010271561332 0.0194528885186 0.20920497179
0.00112258980516 0.0156518127769 0.211589664221
0.00113168312237 0.0120487045497 0.213986471295
0.0011367991101 0.00833615567535 0.2166967839
0.00122760899831 0.00444987695664 0.218203499913
0.00132471544202 0.000436266622273 0.221798688173
0.00128092104569 -0.00352310831659 0.22325257957
0.00135384721216 -0.00738685904071 0.225812777877
0.00419923849404 0.0290101617575 0.202071174979
0.00423553725705 0.0259948000312 0.203139916062
0.00436291238293 0.0235151667148 0.205331191421
0.00456412136555 0.019945602864 0.208856537938
0.0046186610125 0.015977602452 0.211031571031
0.00463450187817 0.0123429242522 0.213033884764
0.00426115142182 0.00831939466298 0.216374307871
