ply
format ascii 1.0
comment Automatically gnerated by model-converter
element vertex 337
property float x
property float y
property float z
element face 0
property list uchar int vertex_indices
end_header
-0.0553500279784 0.0311957467347 0.186097204685
-0.0561524890363 0.0283159837127 0.187408953905
-0.0567023791373 0.0253824014217 0.189660310745
-0.0574870593846 0.0222492534667 0.191879823804
-0.0578649044037 0.0189537666738 0.193468749523
-0.0514055751264 0.0335417054594 0.18263015151
-0.0519025921822 0.0310791861266 0.184337809682
-0.052433039993 0.028285484761 0.18563836813
-0.053269661963 0.0254616905004 0.187812492251
-0.0539368391037 0.0223675053567 0.190614774823
-0.0547874979675 0.0187421832234 0.192904785275
-0.05519701913 0.0154125439003 0.194292426109
-0.0562157705426 0.0119379749522 0.196229577065
-0.0479934066534 0.0355878695846 0.180109262466
-0.048217240721 0.0329365171492 0.181279227138
-0.0487341471016 0.0304331686348 0.183201059699
-0.0493538044393 0.0280263256282 0.185307860374
-0.0502210333943 0.0253405421972 0.188201487064
-0.0507057271898 0.0223735440522 0.190504387021
-0.0514114238322 0.0187060516328 0.19227963686
-0.0521607771516 0.0151990614831 0.194834649563
-0.0538219362497 0.0111042866483 0.199028730392
-0.0544648841023 0.00688945408911 0.201584130526
-0.054444540292 0.00260717631318 0.202169463038
-0.0450392626226 0.0383535288274 0.178705513477
-0.0448788329959 0.0355304256082 0.179673299193
-0.0450851917267 0.0327058508992 0.181216657162
-0.0457371510565 0.0302365962416 0.18363134563
-0.0464339889586 0.0279406122863 0.185836464167
-0.0472012497485 0.025336490944 0.188712343574
-0.0477332659066 0.0222133286297 0.190608605742
-0.0484383180737 0.0186130944639 0.192344084382
-0.0493342615664 0.0150603465736 0.195560768247
-0.0502853505313 0.00936709623784 0.199463143945
-0.050215754658 0.00398716656491 0.200174883008
-0.0505774840713 0.00063019542722 0.203116774559
-0.0526195429265 -0.000328847207129 0.207957968116
-0.0530023612082 -0.00236712093465 0.210855439305
-0.0418129228055 0.0412637330592 0.17808444798
-0.0421327389777 0.0388610959053 0.179372817278
-0.0421408191323 0.0361054316163 0.180604681373
-0.0424894094467 0.0329846963286 0.182381913066
-0.0429776571691 0.0304734576494 0.185055971146
-0.0436841994524 0.0282129701227 0.186823070049
-0.0442185625434 0.0254078991711 0.189261645079
-0.044626686722 0.0221274066716 0.190502256155
-0.0452133454382 0.0184526108205 0.192619800568
-0.0457680895925 0.0141364661977 0.195627272129
-0.0455247052014 0.0077361902222 0.197923094034
-0.0453769266605 0.00293554505333 0.198078244925
-0.0453020781279 -0.00169249321334 0.199430525303
-0.0493908338249 0.000237415806623 0.208718121052
-0.0499312989414 -0.00250874157064 0.211500972509
-0.0499446205795 -0.00561428721994 0.21454629302
-0.0499915741384 -0.0084985261783 0.216859340668
-0.0496985539794 -0.0114255147055 0.219493418932
-0.0392393618822 0.0418903417885 0.179018244147
-0.039280038327 0.0394080840051 0.180352136493
-0.0394105389714 0.036524951458 0.181519836187
-0.0397000983357 0.033659864217 0.18359567225
-0.0401339456439 0.030679801479 0.185792386532
-0.0407005287707 0.0282669067383 0.187752380967
-0.0411387607455 0.0254719294608 0.189612790942
-0.041457798332 0.0222962405533 0.190526857972
-0.0419214554131 0.018721787259 0.192808821797
-0.0423145331442 0.0143294865265 0.195702522993
-0.042012386024 0.00865912996233 0.197418779135
-0.0414067283273 0.00408290931955 0.197374671698
-0.0412113852799 -0.000384943181416 0.197984576225
-0.0456947907805 -2.03219769901e-05 0.207574173808
-0.0462636090815 -0.00243567139842 0.211717754602
-0.0465413108468 -0.00535103539005 0.214815691113
-0.0465554073453 -0.00857636518776 0.216982901096
-0.0465558953583 -0.0118518788368 0.219377204776
-0.0466512218118 -0.0158291105181 0.221383303404
-0.0460686981678 -0.0194999687374 0.223554000258
-0.0364433452487 0.0424929820001 0.180138602853
-0.0364770665765 0.0397858023643 0.18138217926
-0.0364413186908 0.0370678417385 0.182307258248
-0.0367153175175 0.034081786871 0.184536546469
-0.0369942598045 0.0310561619699 0.186624288559
-0.0376495309174 0.0284709557891 0.188142091036
-0.0381245017052 0.0256707612425 0.190285176039
-0.0384371317923 0.0225077420473 0.192006960511
-0.0388720221817 0.018861817196 0.194050833583
-0.0391786620021 0.0146963372827 0.196155354381
-0.0389715023339 0.00957341212779 0.197864055634
-0.0384040772915 0.00527560245246 0.198199272156
-0.0381575338542 0.00122194015421 0.199656307697
-0.0405990928411 -0.00110647070687 0.206039384007
-0.0425828918815 -0.00243126461282 0.211229622364
-0.0429334975779 -0.00521051185206 0.214907675982
-0.042918279767 -0.00853089429438 0.217500418425
-0.0429831109941 -0.0122261755168 0.218551024795
-0.042866345495 -0.0162155516446 0.219780191779
-0.0422083735466 -0.0195359252393 0.221848234534
-0.042790684849 -0.0224153921008 0.224985361099
-0.0334741584957 0.0427737347782 0.180825144053
-0.0334718115628 0.0401241108775 0.181955292821
-0.0334800891578 0.0371526665986 0.182999834418
-0.0336016006768 0.0343380309641 0.184651970863
-0.0339232459664 0.0317717529833 0.186840519309
-0.0345324166119 0.0289595089853 0.189351528883
-0.0353509448469 0.0260741338134 0.191658616066
-0.0357194729149 0.0229797270149 0.194033041596
-0.0360753014684 0.0191302597523 0.196218773723
-0.0364964790642 0.0147867603227 0.197963088751
-0.0360369645059 0.010391975753 0.198853194714
-0.0355481132865 0.00612741196528 0.200013697147
-0.0358397625387 0.00233850348741 0.202699750662
-0.0372761189938 -0.00045608219807 0.207263231277
-0.0389043167233 -0.00248622312211 0.211598172784
-0.0391077958047 -0.0051140668802 0.215190559626
-0.0392205901444 -0.00877368822694 0.217348903418
-0.0389697141945 -0.012761595659 0.217320799828
-0.0387920066714 -0.0164676941931 0.219338849187
-0.0391227975488 -0.0195988416672 0.221717551351
-0.0405644848943 -0.0225215479732 0.224989041686
-0.0303471572697 0.0429528690875 0.181204363704
-0.0302883591503 0.0403800085187 0.18251812458
-0.0305436234921 0.0375570915639 0.184442296624
-0.0306758936495 0.0347033627331 0.186070874333
-0.0311085414141 0.0320225507021 0.188378363848
-0.0314184315503 0.0292332228273 0.190409466624
-0.032190490514 0.0261890236288 0.193083107471
-0.0327596254647 0.0231914706528 0.195261865854
-0.0330422408879 0.0197645444423 0.197811380029
-0.0333894379437 0.0151627743617 0.199386239052
-0.032897695899 0.0107278227806 0.200401216745
-0.0327639356256 0.00677982112393 0.201913565397
-0.0331682674587 0.00329595198855 0.20492169261
-0.0340946726501 0.000462848693132 0.208899483085
-0.0348553173244 -0.00219178758562 0.21261382103
-0.0354715883732 -0.00526803918183 0.215049356222
-0.0356964357197 -0.00870138127357 0.21778139472
-0.0353811047971 -0.0127044254914 0.21871227026
-0.0355642437935 -0.0162372943014 0.220927402377
-0.0359232462943 -0.0194017197937 0.222086712718
-0.0367592833936 -0.0225600581616 0.225237190723
-0.026663819328 0.0430730581284 0.18127079308
-0.0268199238926 0.04027428478 0.18288525939
-0.0274472329766 0.0377649366856 0.185611948371
-0.0278012491763 0.0352119505405 0.187744393945
-0.0281983595341 0.0324509702623 0.189844414592
-0.0284595042467 0.0294157527387 0.191382214427
-0.0289109051228 0.0264316610992 0.193823769689
-0.0296843014657 0.0233263038099 0.196770489216
-0.0299480464309 0.0202364847064 0.199269473553
-0.030222594738 0.0157431662083 0.200877740979
-0.029976118356 0.0114378109574 0.202223554254
-0.0297916587442 0.00719692185521 0.204187035561
-0.0301818810403 0.00394512433559 0.207037553191
-0.0307180956006 0.000818147906102 0.210345238447
-0.031139863655 -0.00218546926044 0.213201090693
-0.0318397656083 -0.00523288734257 0.215533271432
-0.0322025902569 -0.00877291150391 0.218702718616
-0.0322923213243 -0.0123336380348 0.220604836941
-0.0323987565935 -0.015721000731 0.222821250558
-0.0327285118401 -0.0189546383917 0.22405128181
-0.0335812084377 -0.0224997214973 0.227293744683
-0.0333295837045 -0.0256172921509 0.229887872934
-0.023598657921 0.0433327779174 0.182116881013
-0.0238894559443 0.0405616611242 0.183393850923
-0.0243649724871 0.0379046760499 0.186045259237
-0.0247316248715 0.0354513190687 0.188469335437
-0.0249243080616 0.0328104160726 0.19080260396
-0.0253285467625 0.0299022272229 0.19256927073
-0.0258538201451 0.0268777515739 0.194967150688
-0.0264213997871 0.0236731935292 0.197953104973
-0.0267369169742 0.020312635228 0.200500801206
-0.0266986601055 0.0165964681655 0.202272996306
-0.0267261639237 0.0123560791835 0.203619524837
-0.0265249051154 0.00795016158372 0.205922916532
-0.0266944747418 0.00449937488884 0.208542019129
-0.0271488167346 0.0011653136462 0.212016239762
-0.0277823600918 -0.00179130933248 0.214735031128
-0.0282271355391 -0.00502045545727 0.216973498464
-0.0284612346441 -0.00841640122235 0.219730392098
-0.0287790130824 -0.012190066278 0.221370205283
-0.0295270662755 -0.0151176089421 0.224940240383
-0.0297725405544 -0.0189022999257 0.227043300867
-0.0301408916712 -0.0227132383734 0.229345589876
-0.0304370634258 -0.0264094546437 0.231871008873
-0.0206462368369 0.0434235148132 0.182635292411
-0.0207235123962 0.0408527851105 0.184084787965
-0.0210489034653 0.0379558242857 0.185800880194
-0.0213674101979 0.0356063880026 0.188869521022
-0.0217178780586 0.0331510156393 0.191626831889
-0.0221084095538 0.0302523653954 0.194167047739
-0.022728856653 0.0272673871368 0.196568563581
-0.023340029642 0.024013152346 0.19937980175
-0.0234715100378 0.0206175800413 0.201761245728
-0.0234041828662 0.0169278420508 0.203546822071
-0.0232835765928 0.0128694018349 0.205108135939
-0.0229300688952 0.0086784940213 0.207307979465
-0.0231488961726 0.00534489098936 0.210252910852
-0.0238637942821 0.00218305387534 0.213568016887
-0.0243920069188 -0.000956220843364 0.216243818402
-0.0247562788427 -0.0047226799652 0.218169182539
-0.0251088384539 -0.00825771223754 0.22112737596
-0.0252463743091 -0.0116882100701 0.222029551864
-0.0257344115525 -0.0149240940809 0.225556626916
-0.0261369105428 -0.0189803503454 0.228473782539
-0.0266117248684 -0.0223459806293 0.230103299022
-0.0265312567353 -0.0264163501561 0.232222244143
-0.0173524525017 0.0433371923864 0.183537527919
-0.0172959677875 0.0408144779503 0.185065954924
-0.0174144078046 0.0379757769406 0.186197936535
-0.0177737474442 0.035540279001 0.189333707094
-0.0182602051646 0.0332476012409 0.192188322544
-0.0187523048371 0.0304835420102 0.194485917687
-0.0194575469941 0.0278108045459 0.197867929935
-0.0202236995101 0.0240302253515 0.200621604919
-0.0203136932105 0.0209069512784 0.20290915668
-0.0199421271682 0.017027001828 0.204880848527
-0.0194887239486 0.0130706727505 0.20662099123
-0.0194989982992 0.00949333887547 0.209455490112
-0.0200039166957 0.00588394096121 0.212116613984
-0.020472606644 0.00262045883574 0.215217828751
-0.0208006761968 -0.000717666815035 0.21744056046
-0.0212407335639 -0.00431413762271 0.220044121146
-0.0217063594609 -0.00775732286274 0.222878798842
-0.0218509901315 -0.0111915776506 0.223863095045
-0.0222151875496 -0.0149078853428 0.226348236203
-0.0228314716369 -0.0186544246972 0.228855386376
-0.0226975157857 -0.0222217701375 0.22943982482
-0.0226302612573 -0.0261788666248 0.232895180583
-0.0139647321776 0.0407425835729 0.185573160648
-0.0141857955605 0.0380140915513 0.18741813302
-0.0145810134709 0.0354595594108 0.189660400152
-0.0150672215968 0.0331910103559 0.192798212171
-0.0153144104406 0.030502980575 0.195346981287
-0.0165792889893 0.0279797371477 0.198914244771
-0.0170921441168 0.0242789592594 0.202652648091
-0.0173970293254 0.0210539568216 0.204784706235
-0.0162021704018 0.0169331990182 0.205885499716
-0.0160557609051 0.0135051449761 0.207802847028
-0.0162020158023 0.0100026726723 0.211368948221
-0.0167679786682 0.00654070777819 0.213882893324
-0.0170008707792 0.00294693838805 0.216455295682
-0.0171927530318 -0.000466459809104 0.218909338117
-0.0177115276456 -0.00351671455428 0.223262354732
-0.0183879993856 -0.00757327256724 0.225755140185
-0.0184273738414 -0.0110512524843 0.225879222155
-0.0188380517066 -0.0146834440529 0.227797567844
-0.0192628819495 -0.0188324041665 0.229579880834
-0.0191884022206 -0.022249026224 0.230403020978
-0.0189990717918 -0.0260869953781 0.235227420926
-0.0113060278818 0.0382506176829 0.18851454556
-0.0113807683811 0.0355192385614 0.190852150321
-0.0115995667875 0.0330138131976 0.19372998178
-0.0122106866911 0.0301952399313 0.196608945727
-0.0137649532408 0.0274832006544 0.199835762382
-0.0140758445486 0.0244578830898 0.203738927841
-0.0139025896788 0.0209596361965 0.205616503954
-0.0132662225515 0.0172362606972 0.207598611712
-0.0130093097687 0.0138583900407 0.209755599499
-0.0130419665948 0.0104265538976 0.212918117642
-0.0135027104989 0.00695174373686 0.215272068977
-0.0135183334351 0.00353934336454 0.217388570309
-0.0141268791631 -0.000157461909112 0.220147177577
-0.0143993403763 -0.00356915756129 0.224755808711
-0.0145537974313 -0.00764409685507 0.227214202285
-0.0147486031055 -0.0119664194062 0.229032456875
-0.0152284596115 -0.0153213571757 0.229788228869
-0.015267347917 -0.0190521199256 0.23071154952
-0.0156937334687 -0.0225749760866 0.233230754733
-0.0155106699094 -0.0259981527925 0.238483786583
-0.00860416237265 0.0356206037104 0.191658064723
-0.00838784128428 0.033194668591 0.194939941168
-0.00911965500563 0.0297215972096 0.198037326336
-0.0108113149181 0.0267272237688 0.200853303075
-0.0112024359405 0.0244207344949 0.204043492675
-0.0106022404507 0.0214416366071 0.20612154901
-0.0101288305596 0.0177160929888 0.208636924624
-0.00980878435075 0.0142703410238 0.211330354214
-0.00962397642434 0.0107840606943 0.213625073433
-0.0100401369855 0.00710832281038 0.216846570373
-0.0103473737836 0.00365991774015 0.219049960375
-0.0106113627553 -0.000112523055577 0.221651509404
-0.010586055927 -0.00389232090674 0.225306436419
-0.0105542130768 -0.00798050686717 0.227965906262
-0.0108019299805 -0.0121212331578 0.22982300818
-0.0110672609881 -0.0156911443919 0.231036320329
-0.0115970633924 -0.0196771975607 0.232655152678
-0.0119044249877 -0.0236644223332 0.23572486639
-0.011563103646 -0.0264930631965 0.239522650838
-0.0051061231643 0.033573910594 0.197247758508
-0.00594434328377 0.0295720156282 0.199785768986
-0.0076138000004 0.026675818488 0.202752456069
-0.0083064911887 0.0242990236729 0.204839870334
-0.00735982414335 0.0217900685966 0.206748008728
-0.00677085481584 0.0180172901601 0.209628432989
-0.00639825221151 0.014603109099 0.21219804883
-0.00616062665358 0.0112796323374 0.214676752687
-0.00648156413808 0.00754654733464 0.217181384563
-0.00667683500797 0.00383099121973 0.219878137112
-0.00689282827079 -4.45941732323e-05 0.222378462553
-0.00684633245692 -0.0040692598559 0.22485601902
-0.00688524032012 -0.00804971624166 0.227346435189
-0.00697016716003 -0.0119335334748 0.229295611382
-0.00716906227171 -0.0158150475472 0.23068036139
-0.00764044141397 -0.019894471392 0.233666971326
-0.00832255370915 -0.02392007038 0.236370995641
-0.00245073996484 0.0297717377543 0.200364783406
-0.0040306369774 0.0260955244303 0.203050851822
-0.00547574367374 0.024150505662 0.20491540432
-0.00384178571403 0.0223631225526 0.206843331456
-0.00330433459021 0.0184436906129 0.21021656692
-0.00301028322428 0.0149816395715 0.213129669428
-0.00276504713111 0.0114469090477 0.215649500489
-0.00279592606239 0.00762218562886 0.21776291728
-0.00284601119347 0.00389335560612 0.219683542848
-0.00316732027568 -0.000195659682504 0.222961708903
-0.00304167484865 -0.00425103772432 0.224238470197
-0.00309676467441 -0.00822870619595 0.226656198502
-0.00319653959014 -0.0119225000963 0.228060588241
-0.00360183930025 -0.0157095529139 0.230230644345
0.000200505513931 0.029199257493 0.201664596796
-0.000627110071946 0.0253475122154 0.203410953283
-0.00189501326531 0.0237270854414 0.205041885376
-0.000287409813609 0.0229186099023 0.2066667974
-1.84482578334e-05 0.0190192237496 0.209522306919
0.000887506757863 0.0151567943394 0.212353780866
0.0010599619709 0.0114071927965 0.214985340834
0.000892063369974 0.00751733034849 0.21758684516
0.000983616220765 0.0037180390209 0.218801900744
0.000815377978142 -0.000275925995084 0.221963644028
0.000664667866658 -0.00419089477509 0.223554179072
0.000671629793942 -0.00810128170997 0.225803986192
0.00280794827268 0.0251264888793 0.203944683075
0.00211585662328 0.0230187438428 0.204819738865
0.003031891305 0.0235825907439 0.206759408116
0.00397529127076 0.0192262474447 0.209072113037
0.00481617078185 0.0150885013863 0.211561843753
0.00494001759216 0.0113012911752 0.213678628206
0.0040600663051 0.00752201816067 0.21738140285
