ply
format ascii 1.0
comment Automatically gnerated by model-converter
element vertex 337
property float x
property float y
property float z
element face 0
property list uchar int vertex_indices
end_header
-0.055064715445 0.029593449086 0.185635015368
-0.0558385625482 0.026938918978 0.187159076333
-0.0562793202698 0.0238671787083 0.189267069101
-0.0570352785289 0.0207783430815 0.191475048661
-0.0575743839145 0.0175553541631 0.193161651492
-0.0515106245875 0.0320343784988 0.182454884052
-0.0519124269485 0.0294017158449 0.183443054557
-0.0525119155645 0.0266137719154 0.184576392174
-0.0533694550395 0.0236920230091 0.186762198806
-0.0538265518844 0.0204104613513 0.189379349351
-0.0546707212925 0.0168088190258 0.191764473915
-0.0553581081331 0.0135246366262 0.193297788501
-0.0562294721603 0.00932721979916 0.195503205061
-0.0480697080493 0.034423686564 0.180060490966
-0.048571921885 0.0317538417876 0.180992677808
-0.0489883981645 0.028836902231 0.182180151343
-0.0495446808636 0.0260747298598 0.18364828825
-0.050294149667 0.0230982135981 0.186131671071
-0.0507602915168 0.0198861062527 0.188174173236
-0.0516698807478 0.0163265764713 0.19017906487
-0.0523751415312 0.012596834451 0.19265204668
-0.0536429136992 0.00801912229508 0.197271808982
-0.0543657578528 0.00388906360604 0.20030143857
-0.0543381124735 -0.000702998891938 0.200531065464
-0.0451234616339 0.037167865783 0.178104937077
-0.0450057946146 0.0344724915922 0.179044246674
-0.0453560501337 0.031520396471 0.180484190583
-0.0459573306143 0.0285334587097 0.182239755988
-0.0465642213821 0.0257709715515 0.183720588684
-0.0472430512309 0.0226563215256 0.185729771852
-0.0477751456201 0.0193230248988 0.187264204025
-0.0488447509706 0.0156900379807 0.189389884472
-0.0495966412127 0.0118459919468 0.192335739732
-0.0502730309963 0.00555621972308 0.196598172188
-0.0502560772002 0.000160956638865 0.198112666607
-0.0489026680589 -0.00519056571648 0.198956862092
-0.0481635406613 -0.011100566946 0.198370411992
-0.0488539300859 -0.012929322198 0.20097258687
-0.0418924428523 0.0399900116026 0.17724968493
-0.0421779379249 0.0375390425324 0.178390905261
-0.0421643927693 0.0348577313125 0.179608821869
-0.0426347255707 0.0316304601729 0.181375011802
-0.043105032295 0.0283972229809 0.183235257864
-0.0436989217997 0.0258047822863 0.184238955379
-0.0441514030099 0.0226425211877 0.185958251357
-0.0444729290903 0.0192860458046 0.186661303043
-0.0449905507267 0.0151563072577 0.188393637538
-0.0458018146455 0.00992841552943 0.191144153476
-0.0449077412486 0.00308715249412 0.194567650557
-0.0449097454548 -0.00162551237736 0.195174828172
-0.0442968308926 -0.00656203785911 0.196928068995
-0.0454491227865 -0.00988141261041 0.199399366975
-0.0464450418949 -0.0119967786595 0.202496573329
-0.0473046302795 -0.0136802541092 0.206443086267
-0.0480138659477 -0.0152443330735 0.209803447127
-0.0485950633883 -0.0163148026913 0.213735729456
-0.0392583943903 0.0403902046382 0.17780816555
-0.03919217363 0.0379984788597 0.179061174393
-0.0394035018981 0.0352497734129 0.18038892746
-0.0397067852318 0.0323304496706 0.18242546916
-0.0401745066047 0.0288273710757 0.18407766521
-0.0408012978733 0.0258231405169 0.185100451112
-0.0410396195948 0.0226585287601 0.186118230224
-0.0413592904806 0.0193808339536 0.186368942261
-0.0416285842657 0.0152894956991 0.187857940793
-0.0416719056666 0.00996627658606 0.189946427941
-0.0413557365537 0.0038317530416 0.192994713783
-0.0408786907792 -0.000619558151811 0.193549603224
-0.0408146567643 -0.00485281087458 0.194876894355
-0.0416977144778 -0.00940546672791 0.199582710862
-0.04320288077 -0.010756790638 0.203680023551
-0.0443140715361 -0.0123808654025 0.207486078143
-0.0449430271983 -0.0143859107047 0.210925549269
-0.0456932559609 -0.0157664529979 0.214837908745
-0.0462311431766 -0.0183395799249 0.218567848206
-0.0459230914712 -0.0209045764059 0.222253084183
-0.0363194569945 0.0409442670643 0.178398683667
-0.0363417007029 0.038405559957 0.179813832045
-0.0364198237658 0.0357971414924 0.181099832058
-0.0366341695189 0.0328319072723 0.183246955276
-0.0369671322405 0.0294282343239 0.185055375099
-0.0379289835691 0.0262673087418 0.185848876834
-0.0381597876549 0.0229883976281 0.18702980876
-0.0381631553173 0.0193686969578 0.187569335103
-0.0383745245636 0.0151094440371 0.188358902931
-0.0384551361203 0.0101662380621 0.189923450351
-0.0380946137011 0.00475001055747 0.192479997873
-0.037664026022 0.00060602236772 0.193843632936
-0.0375290289521 -0.00313570676371 0.195766970515
-0.038549978286 -0.00687711779028 0.201270192862
-0.039789557457 -0.00987839326262 0.204603970051
-0.0410668924451 -0.0112853627652 0.208673074841
-0.0417331531644 -0.013013118878 0.212381288409
-0.042162977159 -0.0153767662123 0.215473145247
-0.0423756912351 -0.0183145590127 0.21864977479
-0.0418191626668 -0.0204805731773 0.221932157874
-0.042732745409 -0.0224681980908 0.225212931633
-0.0334095023572 0.0414239354432 0.179271459579
-0.0333663225174 0.0388696193695 0.18069678545
-0.0334945097566 0.0361192077398 0.181977659464
-0.033561181277 0.0333834961057 0.183673411608
-0.0336606018245 0.0308443196118 0.185649499297
-0.0346323437989 0.027043255046 0.187337189913
-0.0354526415467 0.023250496015 0.188478380442
-0.0352276712656 0.019504243508 0.189270928502
-0.0352042652667 0.014990484342 0.189993575215
-0.0354335680604 0.0100514227524 0.19127124548
-0.0348861068487 0.00558648863807 0.192850485444
-0.0344497784972 0.00141182856169 0.195238083601
-0.0347558222711 -0.00215295841917 0.19858288765
-0.0358203090727 -0.00530660664663 0.20284576714
-0.0366287901998 -0.00851474795491 0.206081658602
-0.0375954546034 -0.0101658916101 0.210031718016
-0.038363546133 -0.0122684175149 0.213474825025
-0.0384608581662 -0.0149412611499 0.216245517135
-0.038738001138 -0.0174953248352 0.219260111451
-0.0391606017947 -0.0199459902942 0.221983671188
-0.0408319495618 -0.0225855447352 0.224999517202
-0.0303324051201 0.0418001227081 0.179937824607
-0.0302768647671 0.039345420897 0.181476429105
-0.0305430032313 0.0366434454918 0.183532044291
-0.0306047145277 0.0338442921638 0.185128256679
-0.030708681792 0.0309299770743 0.186784088612
-0.0307160001248 0.0276665203273 0.187541276217
-0.0313600897789 0.0234601777047 0.188933342695
-0.0318978056312 0.0197121035308 0.190317571163
-0.031874127686 0.015614060685 0.191637352109
-0.0319533757865 0.0102736568078 0.192570343614
-0.0313378386199 0.00586240645498 0.194638922811
-0.0313520617783 0.00213032145984 0.197101965547
-0.0318121761084 -0.00126730161719 0.200303122401
-0.0324612632394 -0.00424374127761 0.204124867916
-0.033355101943 -0.0067135063 0.208187028766
-0.0342537760735 -0.00927208457142 0.211245000362
-0.0351392254233 -0.0115342158824 0.215065687895
-0.0352751538157 -0.0142940646037 0.217728167772
-0.0355611257255 -0.0169645212591 0.220673382282
-0.0361306220293 -0.0196317192167 0.222106322646
-0.0370264127851 -0.0228434596211 0.225065588951
-0.0262443386018 0.0421784855425 0.180520400405
-0.0265137050301 0.0394991077483 0.182193234563
-0.0271837580949 0.0369318500161 0.184821605682
-0.027591727674 0.0341740213335 0.18649674952
-0.0277182087302 0.0310715083033 0.187859967351
-0.0277145504951 0.02767621167 0.188308700919
-0.0279384590685 0.0239392127842 0.189623102546
-0.0284301042557 0.0198227651417 0.191365793347
-0.0283941067755 0.0162369087338 0.193167850375
-0.0284879971296 0.0111837238073 0.194960325956
-0.0282134748995 0.00687210774049 0.196670264006
-0.0282477922738 0.00277359783649 0.199093684554
-0.0285787303001 -0.000650308385957 0.201987832785
-0.0290903802961 -0.00366288376972 0.205724030733
-0.0298537854105 -0.00609943317249 0.209516987205
-0.0310586206615 -0.00818812474608 0.212968409061
-0.0321383848786 -0.0103930607438 0.216970041394
-0.0324416719377 -0.0134116113186 0.219857677817
-0.0325094945729 -0.0162150748074 0.222525015473
-0.0329362004995 -0.0192667208612 0.223772063851
-0.0337836146355 -0.0228673201054 0.226736679673
-0.0334741659462 -0.0261341147125 0.229013249278
-0.0231776703149 0.0424459837377 0.181366950274
-0.0235080514103 0.0397137850523 0.18267993629
-0.0240135062486 0.0370347984135 0.185205072165
-0.0243630036712 0.0343608371913 0.187194958329
-0.0244398191571 0.0312865562737 0.188893809915
-0.0246244203299 0.0280210897326 0.189687252045
-0.0249037500471 0.0243053138256 0.190866574645
-0.0251070484519 0.02025908418 0.192701518536
-0.0254492666572 0.0168809555471 0.19559648633
-0.0254303403199 0.0130175221711 0.197481513023
-0.025290902704 0.00848666206002 0.198629721999
-0.0251208227128 0.00402574520558 0.201089009643
-0.0250849947333 0.000512827245984 0.203975453973
-0.0257357098162 -0.00280387932435 0.207659840584
-0.0268579479307 -0.0049492707476 0.211533710361
-0.0280013233423 -0.00722169782966 0.215140461922
-0.0289081726223 -0.00944539532065 0.218943402171
-0.029394865036 -0.0126423193142 0.221542000771
-0.0298209320754 -0.015347680077 0.224949210882
-0.030114877969 -0.0193704999983 0.226589098573
-0.0304519813508 -0.0231826156378 0.228594526649
-0.030729373917 -0.0269299466163 0.230919912457
-0.0202295482159 0.0425107069314 0.181964173913
-0.0202840268612 0.0399309024215 0.183323532343
-0.0206754487008 0.037132050842 0.185076743364
-0.0209128018469 0.0344579517841 0.187653139234
-0.0209318902344 0.0315727926791 0.190005362034
-0.0210479423404 0.0282368771732 0.191885128617
-0.0215330906212 0.0247623380274 0.193018451333
-0.0221548657864 0.0209525581449 0.195162966847
-0.0224303174764 0.0175571236759 0.197606012225
-0.0223232079297 0.0138006936759 0.199318259954
-0.0221410393715 0.00968348793685 0.200733840466
-0.0216126032174 0.00558268185705 0.203450635076
-0.0216935127974 0.00206948630512 0.206264048815
-0.0224193353206 -0.00122460490093 0.209746837616
-0.0235844384879 -0.00369148771279 0.212967962027
-0.0245834868401 -0.00659929215908 0.216731354594
-0.0259127486497 -0.00880475435406 0.221028581262
-0.026164425537 -0.0118766073138 0.222945570946
-0.0266515016556 -0.0149610666558 0.226398795843
-0.026844823733 -0.0192518793046 0.228339731693
-0.0271370764822 -0.0227325763553 0.229274377227
-0.0269179102033 -0.0267243161798 0.231390997767
-0.0172448344529 0.0426812507212 0.183279365301
-0.0170843880624 0.0402726307511 0.184852227569
-0.0171331558377 0.0374814048409 0.185858383775
-0.0172311477363 0.0345210470259 0.188344672322
-0.0172950122505 0.0316577702761 0.190582558513
-0.0175894834101 0.0285004116595 0.192272156477
-0.0179283414036 0.0250275935978 0.194582059979
-0.0188969355077 0.0210655946285 0.196733132005
-0.0192740242928 0.0179263111204 0.19884711504
-0.0190146192908 0.0142382727936 0.200965553522
-0.0181676391512 0.0103375520557 0.202658891678
-0.0182871539146 0.00692042661831 0.205926001072
-0.0187276788056 0.0030734166503 0.20857180655
-0.0193636566401 -0.000124120109831 0.211676865816
-0.0199441853911 -0.00301936501637 0.214521437883
-0.0211595855653 -0.00568878185004 0.218523830175
-0.0225135087967 -0.00809102877975 0.222764357924
-0.0226709712297 -0.0114778000861 0.224661901593
-0.0232886429876 -0.0151331666857 0.227346986532
-0.0238737799227 -0.0189196579158 0.228956699371
-0.0234321076423 -0.022350911051 0.228351145983
-0.0231716558337 -0.0263072494417 0.231962114573
-0.0138443503529 0.0405081436038 0.185524225235
-0.0138297220692 0.0374882332981 0.186867013574
-0.0139949945733 0.0345564596355 0.188459485769
-0.0139490421861 0.0315255299211 0.190824970603
-0.013839378953 0.0282861031592 0.192751720548
-0.0151279168203 0.0250774025917 0.195483475924
-0.0156522728503 0.0209883190691 0.198501586914
-0.0159824285656 0.0176425166428 0.200204625726
-0.0149173922837 0.0145936552435 0.202512562275
-0.014766481705 0.0112972604111 0.204688921571
-0.0151351103559 0.0077326670289 0.208248510957
-0.0156829617918 0.00410820962861 0.210634693503
-0.0160796213895 0.000644605432171 0.213413506746
-0.0166066084057 -0.00240785325877 0.216146990657
-0.0175449810922 -0.00520701985806 0.220511466265
-0.0186306256801 -0.00868518929929 0.224542573094
-0.0189883671701 -0.0116561474279 0.22606728971
-0.0198276974261 -0.0151775078848 0.228306636214
-0.0204327106476 -0.0192451663315 0.229143187404
-0.0202459208667 -0.0224919300526 0.22917881608
-0.0195815265179 -0.026317184791 0.23413553834
-0.0108473449945 0.0376730747521 0.187906250358
-0.0104799428955 0.0344115942717 0.189527288079
-0.0103511689231 0.0315153375268 0.191804006696
-0.0109225679189 0.0283677503467 0.194452092052
-0.0125537216663 0.0248724892735 0.19677720964
-0.0125457495451 0.0209835488349 0.199586927891
-0.0125454384834 0.0182347204536 0.201588004827
-0.0122801866382 0.0151932090521 0.204718068242
-0.0121638961136 0.0120327528566 0.207176029682
-0.012217335403 0.00847268849611 0.210271522403
-0.0126814274117 0.00481321895495 0.212369337678
-0.0127971852198 0.00147913245019 0.214737996459
-0.0135705797002 -0.00213366048411 0.217356652021
-0.0142007069662 -0.00572701031342 0.221692785621
-0.0147104002535 -0.00937823578715 0.224769741297
-0.0152421584353 -0.0132754612714 0.227415382862
-0.0160265658051 -0.0163935497403 0.229491978884
-0.0163572356105 -0.020083643496 0.229738280177
-0.0166733879596 -0.0233475603163 0.231675028801
-0.0160519238561 -0.0262025259435 0.236939787865
-0.00782216805965 0.0346858426929 0.190646395087
-0.00726339081302 0.031993675977 0.193242490292
-0.00813964288682 0.0283679086715 0.196482568979
-0.00984059087932 0.0246605016291 0.198583871126
-0.00988387875259 0.0214637368917 0.200514748693
-0.00964196119457 0.0191698577255 0.203027427197
-0.00948878005147 0.0159675441682 0.206306770444
-0.00918847788125 0.0126654598862 0.209227278829
-0.00888045690954 0.00903563853353 0.211389958858
-0.00944034289569 0.00516428193077 0.214438602328
-0.00978273246437 0.00169889151584 0.216526061296
-0.0101491380483 -0.00210800906643 0.218990802765
-0.01054222323 -0.00582154514268 0.222889229655
-0.0108160059899 -0.0096548711881 0.226043537259
-0.011361207813 -0.0133539037779 0.228343680501
-0.0119184479117 -0.0168472845107 0.230119645596
-0.0126855410635 -0.0207599382848 0.231916174293
-0.013394350186 -0.0244839098305 0.23482811451
-0.0128252608702 -0.0272553358227 0.237948819995
-0.00428972672671 0.0325324498117 0.195707678795
-0.00520327826962 0.0286632124335 0.198637634516
-0.00726816058159 0.0249376725405 0.201026529074
-0.00736858835444 0.0218925084919 0.201973855495
-0.00665669841692 0.0199582986534 0.204351246357
-0.00631662039086 0.0165478568524 0.207789033651
-0.00605126842856 0.013171360828 0.21046961844
-0.00561414659023 0.00970360357314 0.212716445327
-0.00602462422103 0.00578641565517 0.215380772948
-0.00631628511474 0.00206198100932 0.217656821012
-0.00672646751627 -0.00180058227852 0.220245599747
-0.00683662388474 -0.00581031292677 0.223143950105
-0.00711842579767 -0.0097035067156 0.225818604231
-0.00753412861377 -0.0135199464858 0.22785654664
-0.0081473197788 -0.0173939559609 0.229789093137
-0.00881262775511 -0.0212207995355 0.232652634382
-0.00981908664107 -0.0251641646028 0.235561221838
-0.00176589481998 0.0291876681149 0.199381843209
-0.00374960899353 0.025358080864 0.20232629776
-0.00490488251671 0.022339599207 0.202887460589
-0.00330065749586 0.020846972242 0.204939231277
-0.00302867800929 0.0172727014869 0.208559766412
-0.00278750667349 0.0137103516608 0.211576938629
-0.00242647342384 0.0100861974061 0.214138031006
-0.00248014950193 0.00609039096162 0.21632681787
-0.00256058410741 0.00237738806754 0.218158125877
-0.00315378024243 -0.00169617042411 0.221673950553
-0.00306353950873 -0.00574245909229 0.223235413432
-0.00335256848484 -0.00970356725156 0.225791990757
-0.00389825669117 -0.0138354580849 0.226719811559
-0.00456374604255 -0.0175661575049 0.229045569897
0.000762369541917 0.0288711339235 0.200727015734
-0.000238041146076 0.0250712055713 0.203005984426
-0.00143379985821 0.0224913805723 0.20381437242
0.000258321873844 0.0215728040785 0.205096498132
0.000251759454841 0.0179198123515 0.208172142506
0.00126353115775 0.0140075013041 0.211083054543
0.0013294077944 0.0101194595918 0.213959798217
0.00116791424807 0.00618227524683 0.216540843248
0.00128433154896 0.00239140563644 0.218094170094
0.000863589229994 -0.00158840417862 0.221293359995
0.000625463144388 -0.0055406014435 0.22311656177
0.000439689494669 -0.00938672665507 0.225513532758
0.0032239081338 0.0246934797615 0.203402012587
0.00272884499282 0.0218013953418 0.203836500645
0.00333947082981 0.0225039757788 0.205641299486
0.00447710091248 0.0179357789457 0.207985281944
0.00536850374192 0.0138877900317 0.210788324475
0.00554822012782 0.0100583843887 0.213157266378
0.00435830419883 0.00631729513407 0.21690389514
