ply
format ascii 1.0
comment Automatically gnerated by model-converter
element vertex 337
property float x
property float y
property float z
element face 0
property list uchar int vertex_indices
end_header
-0.0551867373288 0.0296962950379 0.186274439096
-0.0558723993599 0.0270593166351 0.187914520502
-0.0562256090343 0.0239421725273 0.189972758293
-0.0569317676127 0.0207810606807 0.192131459713
-0.0575289912522 0.0174641441554 0.193667933345
-0.0518940277398 0.0320655852556 0.182804360986
-0.0522033832967 0.0294517241418 0.183836132288
-0.0526973046362 0.0267278607935 0.185120597482
-0.0534622482955 0.0237611718476 0.187250375748
-0.0538729019463 0.0204185210168 0.189768955112
-0.0547049976885 0.0167888496071 0.19218724966
-0.055404227227 0.0134052401409 0.193617105484
-0.0564123019576 0.00888447649777 0.195353776217
-0.0484329089522 0.0346764065325 0.180799990892
-0.0489510260522 0.031889796257 0.18146276474
-0.049294192344 0.0289496667683 0.182627543807
-0.0497573837638 0.0261950008571 0.184071645141
-0.0504034906626 0.0231599248946 0.186467900872
-0.0508330538869 0.0198520943522 0.188381403685
-0.0517483539879 0.0162171795964 0.190462976694
-0.0524771548808 0.0124381873757 0.192788735032
-0.0538411401212 0.00737342657521 0.196916118264
-0.0546304658055 0.00309265893884 0.19976259768
-0.0546690039337 -0.00147024122998 0.199900493026
-0.0454150997102 0.0375516824424 0.179085507989
-0.0453507341444 0.0348394326866 0.17993234098
-0.0457080714405 0.0318555869162 0.181242823601
-0.0462483242154 0.028811937198 0.182887241244
-0.0467565506697 0.0259924270213 0.184246316552
-0.0473594218493 0.02270706743 0.185926541686
-0.0478760264814 0.0192986708134 0.187270104885
-0.0489947609603 0.0155605608597 0.189497292042
-0.0497420579195 0.0116131613031 0.192269563675
-0.050543397665 0.00487171718851 0.196134954691
-0.0505279414356 -0.000549711869098 0.197812750936
-0.0490388162434 -0.00553421955556 0.1990083009
-0.0482652559876 -0.0110842101276 0.198033928871
-0.0488857962191 -0.0130513748154 0.200443089008
-0.0421122163534 0.0402143038809 0.177882745862
-0.0424181483686 0.0377815254033 0.17906601727
-0.0424469709396 0.0351330824196 0.180335402489
-0.0429722629488 0.0320127420127 0.18223567307
-0.0433694534004 0.0287354066968 0.183972552419
-0.0438356176019 0.025958571583 0.184629097581
-0.0442739725113 0.0227038171142 0.186061426997
-0.0445771478117 0.0192624926567 0.18647660315
-0.0451624318957 0.0150393312797 0.188123643398
-0.0460911765695 0.00952195376158 0.19078399241
-0.0451278053224 0.00245864177123 0.194397673011
-0.0450163818896 -0.00221841735765 0.195279955864
-0.0443679951131 -0.00683322688565 0.197104692459
-0.045575723052 -0.00984476134181 0.199068531394
-0.046484798193 -0.0121467607096 0.20200099051
-0.0472082793713 -0.0141468150541 0.205812141299
-0.0477869324386 -0.0160098019987 0.209024935961
-0.0482192002237 -0.0174952689558 0.212771862745
-0.0393878929317 0.0403830520809 0.177992150187
-0.03933333233 0.0379874333739 0.179233372211
-0.0396043732762 0.0353482738137 0.180763527751
-0.0398390814662 0.0324975959957 0.182919695973
-0.0403099358082 0.0289420373738 0.184527263045
-0.0409343726933 0.0258943159133 0.185346856713
-0.0411342121661 0.0226372350007 0.186149358749
-0.0414733849466 0.0193412657827 0.186152979732
-0.041807230562 0.0151324309409 0.187520429492
-0.0419116206467 0.0096543058753 0.189507544041
-0.0415852703154 0.003261431586 0.192786693573
-0.0410590730608 -0.00111082580406 0.193574249744
-0.0409008637071 -0.00528117548674 0.195053726435
-0.0418748632073 -0.0092688286677 0.199202165008
-0.0432954616845 -0.0109025621787 0.203248217702
-0.0442201830447 -0.0128338290378 0.20698171854
-0.0447368584573 -0.0151120405644 0.210180565715
-0.0453184954822 -0.0169351641089 0.213853508234
-0.045675419271 -0.0198495108634 0.217316150665
-0.0451955981553 -0.0226448569447 0.220777153969
-0.0363407284021 0.040634393692 0.178026363254
-0.0363920256495 0.0381716676056 0.179562717676
-0.0365290604532 0.0356887951493 0.181078523397
-0.0366903506219 0.0327561497688 0.183296725154
-0.0369758978486 0.0292923972011 0.185041919351
-0.0380094796419 0.0262089353055 0.185955986381
-0.03820759058 0.022853737697 0.186893776059
-0.0382394380867 0.0191811975092 0.187195986509
-0.0385481789708 0.0148850837722 0.187969088554
-0.038673941046 0.00987688824534 0.189578771591
-0.0383794903755 0.00436268234625 0.192313447595
-0.0379044674337 0.000256030034507 0.193832144141
-0.0377370305359 -0.00343510811217 0.195850491524
-0.0386914275587 -0.00699309073389 0.201080724597
-0.0398804470897 -0.00998716894537 0.204193204641
-0.0410363040864 -0.0116772484034 0.208160474896
-0.0415625981987 -0.0137028815225 0.211737364531
-0.0417976528406 -0.0164226852357 0.214510604739
-0.0418028607965 -0.0196235273033 0.217384174466
-0.0410704649985 -0.0219573713839 0.220400899649
-0.0419462062418 -0.024042095989 0.223393052816
-0.0334026366472 0.0410724394023 0.178797230124
-0.0333917923272 0.0386100225151 0.180384859443
-0.0335514880717 0.03591645509 0.181771889329
-0.0335853360593 0.0331562533975 0.183425664902
-0.0336363576353 0.0306025575846 0.185412466526
-0.0346122682095 0.026832357049 0.187196582556
-0.0354089550674 0.0229634642601 0.188111335039
-0.0352605879307 0.0192177519202 0.188818141818
-0.0353435613215 0.0146959163249 0.189544454217
-0.0356925986707 0.00977598503232 0.191071867943
-0.0352049134672 0.00532931322232 0.192803665996
-0.034734159708 0.00119169685058 0.195253834128
-0.0349258705974 -0.00239448691718 0.198603659868
-0.0359318293631 -0.00553404120728 0.20268599689
-0.0367117114365 -0.00867554731667 0.205680951476
-0.0375721380115 -0.0105521101505 0.209534674883
-0.0381871685386 -0.0129373464733 0.212800905108
-0.0381242036819 -0.0159528926015 0.215264216065
-0.0381549745798 -0.0186634007841 0.217976167798
-0.0384366922081 -0.0212323591113 0.220424503088
-0.0400913953781 -0.0239406023175 0.223233729601
-0.0303465723991 0.0414759740233 0.179497346282
-0.0303242187947 0.0390789546072 0.18117031455
-0.0305315256119 0.0363609790802 0.183215215802
-0.0305506289005 0.0335289388895 0.184750318527
-0.0306385327131 0.0306498631835 0.186430439353
-0.0306818149984 0.0274000186473 0.187218725681
-0.0313357412815 0.0231785774231 0.188545912504
-0.0319239869714 0.0194005873054 0.189880430698
-0.0319592878222 0.0152836563066 0.191183000803
-0.0323341414332 0.0100709572434 0.192623853683
-0.0317362658679 0.00571120111272 0.194744259119
-0.0316156633198 0.00193920009769 0.197087496519
-0.0319859236479 -0.00145825219806 0.200198709965
-0.0325707085431 -0.00444907369092 0.20391061902
-0.0333984345198 -0.00698933005333 0.207840576768
-0.0341999419034 -0.00969355367124 0.210704743862
-0.0349644348025 -0.0122127365321 0.214276850224
-0.0348916202784 -0.015200340189 0.216677591205
-0.035016477108 -0.0180047880858 0.219388514757
-0.0354472473264 -0.0207345858216 0.220638170838
-0.0363318324089 -0.023945171386 0.223548203707
-0.026345686987 0.0418986491859 0.180138260126
-0.0265710130334 0.039176363498 0.181741133332
-0.0271414220333 0.0364887565374 0.184206351638
-0.0274728164077 0.0337178297341 0.185831978917
-0.0275850072503 0.0306982249022 0.187283873558
-0.0276247579604 0.027322255075 0.187769427896
-0.027871651575 0.023607596755 0.189137533307
-0.0284391548485 0.0195096060634 0.190923631191
-0.0284860916436 0.0159334298223 0.192792832851
-0.0291057880968 0.0111521389335 0.195331856608
-0.0286694467068 0.00679107615724 0.196854412556
-0.0285232234746 0.00261410139501 0.199069991708
-0.0287803914398 -0.000765870965552 0.201891198754
-0.029162729159 -0.0038185317535 0.20561607182
-0.0298755224794 -0.00639588711783 0.209137052298
-0.0309486314654 -0.00872821547091 0.21237744391
-0.0318881198764 -0.011163068004 0.216185495257
-0.0320822969079 -0.0142897097394 0.218844220042
-0.0320634581149 -0.0171307474375 0.221294790506
-0.0323555953801 -0.0201846864074 0.222390517592
-0.0331945680082 -0.0237501859665 0.225396722555
-0.03286633268 -0.0268626101315 0.227791458368
-0.0232809782028 0.0421823449433 0.180973783135
-0.023556901142 0.039396058768 0.182189583778
-0.0239752456546 0.0365895405412 0.184517979622
-0.0242603998631 0.0338446684182 0.186384901404
-0.024285569787 0.030821479857 0.188121631742
-0.024439336732 0.0275914594531 0.188931286335
-0.0247654300183 0.023910433054 0.190212383866
-0.025104098022 0.0199122224003 0.19223806262
-0.0256594158709 0.0166482683271 0.195370823145
-0.0259154941887 0.0129246264696 0.197645321488
-0.0257860962301 0.00842262525111 0.198879346251
-0.0254804007709 0.00393354007974 0.201181963086
-0.02540839836 0.000461388321128 0.204039782286
-0.0259503461421 -0.00294167757966 0.207549497485
-0.0268501397222 -0.00534295523539 0.211147904396
-0.027824871242 -0.00788964144886 0.214486315846
-0.0285971071571 -0.0103097017854 0.218111798167
-0.0289525296539 -0.013539172709 0.22057518363
-0.0294171851128 -0.0160734169185 0.223541066051
-0.0295861531049 -0.0200997460634 0.225132271647
-0.0299116503447 -0.0238407254219 0.227321043611
-0.0301663689315 -0.0274796895683 0.229811117053
-0.0203410964459 0.0423099435866 0.18161393702
-0.0203567761928 0.0397082753479 0.18293890357
-0.0206642579287 0.0367866307497 0.184488981962
-0.0208229757845 0.0339987464249 0.186866655946
-0.0208822246641 0.03118288517 0.189322784543
-0.0209577791393 0.0277965869755 0.191119268537
-0.0213694069535 0.0243167374283 0.192204430699
-0.0222155433148 0.0205960962921 0.194686546922
-0.0227062962949 0.0173548124731 0.197428360581
-0.0228092819452 0.0137237980962 0.199482485652
-0.0226732157171 0.00964645203203 0.2010281533
-0.0221207626164 0.00556417321786 0.203701972961
-0.0222170446068 0.00207133288495 0.206486850977
-0.0227463245392 -0.00133042922243 0.20973110199
-0.0235881246626 -0.0042024818249 0.212591260672
-0.0243246853352 -0.00739528238773 0.215976417065
-0.0255186390132 -0.00977373030037 0.220048233867
-0.0256906636059 -0.0127727827057 0.221541136503
-0.026164855808 -0.0156809799373 0.224961355329
-0.0262642428279 -0.0198909621686 0.226782515645
-0.0266282781959 -0.0232624616474 0.228027582169
-0.0263884924352 -0.0271030552685 0.230352118611
-0.0174128897488 0.0425735451281 0.183074578643
-0.017229475081 0.0401525944471 0.184657752514
-0.0171835254878 0.0373330749571 0.185582637787
-0.0172590427101 0.0343324877322 0.187897130847
-0.0173426512629 0.0314543880522 0.190188035369
-0.0175854451954 0.0282288827002 0.191783472896
-0.0180269032717 0.02482974343 0.194162458181
-0.0190949682146 0.0208552945405 0.196401208639
-0.019605461508 0.0177766662091 0.198738530278
-0.0195527039468 0.0142033724114 0.20122165978
-0.0188337471336 0.0103868963197 0.203074619174
-0.0188427604735 0.00688918447122 0.206134974957
-0.019214823842 0.00304053723812 0.208758533001
-0.0196818932891 -0.000301319436403 0.211674258113
-0.0199786536396 -0.00352717679925 0.214149519801
-0.0208101905882 -0.00666013360023 0.217624619603
-0.0220451224595 -0.00904231425375 0.221360981464
-0.0222566518933 -0.0122353881598 0.223194614053
-0.0228784848005 -0.0157272070646 0.225964933634
-0.0233860351145 -0.0194808486849 0.227497458458
-0.0229391362518 -0.0228168219328 0.22722004354
-0.0226722639054 -0.0265738647431 0.231088921428
-0.0140742026269 0.0405699685216 0.185605064034
-0.0139780640602 0.0375130027533 0.186845332384
-0.0140563352033 0.0345342643559 0.188319221139
-0.0140656121075 0.0315008051693 0.190700575709
-0.0139669580385 0.0282293055207 0.192537412047
-0.0153633337468 0.0250889156014 0.195371553302
-0.0160201117396 0.021019520238 0.198440343142
-0.0163898542523 0.0176719296724 0.200241029263
-0.0156395900995 0.0145649379119 0.202749341726
-0.0155191533267 0.0112840756774 0.204962000251
-0.0157380979508 0.00770866079256 0.208468019962
-0.0161135252565 0.00402909331024 0.210697516799
-0.0163773912936 0.000406289822422 0.213349655271
-0.0166674274951 -0.00286470307037 0.21581530571
-0.0171164590865 -0.00623183650896 0.219320058823
-0.0182858631015 -0.00936066266149 0.223084703088
-0.0186238866299 -0.0122152268887 0.22476272285
-0.019465347752 -0.0156484395266 0.227036297321
-0.0199859626591 -0.0196931324899 0.227820679545
-0.0197555255145 -0.0228565391153 0.228010997176
-0.019158102572 -0.0264324452728 0.233394473791
-0.011121626012 0.037852820009 0.188116103411
-0.0107234576717 0.03459277004 0.189608350396
-0.0104993758723 0.0315702930093 0.191659033298
-0.0110037196428 0.0282821618021 0.19416731596
-0.0127817355096 0.0248930770904 0.19667558372
-0.0130212614313 0.0211927369237 0.199773177505
-0.0131723005325 0.0182539541274 0.201752960682
-0.0128966663033 0.0150322215632 0.204771846533
-0.012776941061 0.0118877924979 0.207259789109
-0.012702784501 0.00827368255705 0.210273966193
-0.0131509620696 0.0046318480745 0.212359949946
-0.0130939306691 0.00128211895935 0.214646816254
-0.0136613529176 -0.00247790734284 0.217109888792
-0.013876193203 -0.00635075056925 0.220693513751
-0.0143909845501 -0.00990112684667 0.223714336753
-0.0149307530373 -0.0136285163462 0.226546436548
-0.0156770907342 -0.0167094692588 0.228420808911
-0.0158874224871 -0.0204157177359 0.228543370962
-0.0162633080035 -0.0235664844513 0.230533361435
-0.0158128887415 -0.0259481873363 0.236288577318
-0.0080767730251 0.0349067114294 0.190735325217
-0.00739951897413 0.0320687443018 0.193128779531
-0.00811608042568 0.0282053444535 0.196084111929
-0.0100280260667 0.0246441401541 0.198423117399
-0.0103857181966 0.0216417144984 0.20073415339
-0.0102370772511 0.0190113522112 0.203051149845
-0.010003361851 0.0156650952995 0.20619212091
-0.0096528371796 0.0123542277142 0.209059178829
-0.00927058700472 0.00867196265608 0.211098253727
-0.00968982558697 0.00487763062119 0.214174747467
-0.00992779992521 0.0013956327457 0.216244146228
-0.0101245390251 -0.00252660387196 0.218626663089
-0.0102982772514 -0.00615840405226 0.222196906805
-0.0105929747224 -0.00989540666342 0.225304409862
-0.0111368792132 -0.0134126553312 0.227800607681
-0.0117033487186 -0.0167782660574 0.229845657945
-0.0124409161508 -0.0206008125097 0.231752693653
-0.0132367089391 -0.024094780907 0.234952569008
-0.012734699063 -0.0267473962158 0.237941741943
-0.00439323298633 0.0325457677245 0.195561826229
-0.00507158506662 0.0284218154848 0.198122918606
-0.00733865704387 0.0248281825334 0.200740784407
-0.00785220135003 0.0218641608953 0.202005192637
-0.00715157948434 0.0195611529052 0.204113021493
-0.00673174578696 0.0160825587809 0.207435429096
-0.00641095498577 0.0126928910613 0.210019543767
-0.0058530238457 0.0091814212501 0.212031185627
-0.00617264676839 0.0053636864759 0.214801937342
-0.00636009732261 0.00164437969215 0.217074617743
-0.00662821531296 -0.00226696860045 0.219529762864
-0.00661162380129 -0.00610066996887 0.22248545289
-0.00687239505351 -0.00979634560645 0.2253498137
-0.00728116603568 -0.0134167931974 0.227642461658
-0.00789575837553 -0.0171606689692 0.229868844151
-0.00866088457406 -0.0207513347268 0.232909440994
-0.00972971320152 -0.024534650147 0.236068144441
-0.00163439940661 0.0289671625942 0.198786064982
-0.00355808879249 0.0250395610929 0.201663777232
-0.00528569798917 0.0220484156162 0.202639579773
-0.00370679353364 0.0202133879066 0.204420521855
-0.00337892095558 0.0166354849935 0.207894280553
-0.00303891673684 0.0130579136312 0.21076606214
-0.00253056641668 0.00943891052157 0.213099136949
-0.00254220166244 0.00550288287923 0.215342178941
-0.00256489613093 0.00179324112833 0.217151641846
-0.00294595491141 -0.00228851218708 0.220580801368
-0.00285577378236 -0.00621651532128 0.222240224481
-0.00308448867872 -0.0100282654166 0.225009277463
-0.00355913909152 -0.0136687671766 0.226865902543
-0.00425670575351 -0.0172072481364 0.229439452291
0.000937339966185 0.0286213867366 0.200014621019
1.49406059791e-06 0.0245578680187 0.202035397291
-0.00171663891524 0.0218457765877 0.203175768256
-0.000119699325296 0.0208006817847 0.204392522573
-0.000125953985844 0.0171139333397 0.207271546125
0.00099179521203 0.0131232673302 0.209813207388
0.00118738238234 0.00931346043944 0.212539568543
0.00113286194392 0.00539912236854 0.215041786432
0.00127400702331 0.00160007679369 0.216594129801
0.00101099407766 -0.00229427474551 0.219892293215
0.000799257657491 -0.0061498535797 0.221893057227
0.000669496541377 -0.00989729724824 0.224426284432
0.00338642415591 0.02407611534 0.202341631055
0.00236577843316 0.0208829417825 0.202958256006
0.00305729266256 0.0215531215072 0.204681783915
0.00407281843945 0.0169401299208 0.206918880343
0.00501876696944 0.0129368044436 0.209068194032
0.00533156190068 0.00912574864924 0.211264804006
0.00436427118257 0.0054122810252 0.215124368668
