ply
format ascii 1.0
comment PCL generated
element vertex 791
property float x
property float y
property float z
property uchar red
property uchar green
property uchar blue
element face 1429
property list uchar int vertex_indices
end_header
-0.029518 0.018138 0.0883 250 0 0 
-0.030036 0.016894 0.089989 250 0 0 
-0.030192 0.015407 0.090655 250 0 0 
-0.030364 0.013822 0.09112 250 0 0 
-0.03065 0.012244 0.091906 250 0 0 
-0.031113 0.010899 0.092951 250 0 0 
-0.031442 0.0095731 0.093912 250 0 0 
-0.031769 0.008288 0.094722 250 0 0 
-0.032566 0.0070389 0.096238 250 0 0 
-0.033676 0.006126 0.099004 250 0 0 
-0.034899 0.0047412 0.10215 250 0 0 
-0.035334 0.0029433 0.10317 250 0 0 
-0.035418 0.0011875 0.10328 250 0 0 
-0.035374 -0.00059404 0.10342 250 0 0 
-0.035458 -0.0026839 0.10384 250 0 0 
-0.035873 -0.0049985 0.10507 250 0 0 
-0.036615 -0.0075519 0.10759 250 0 0 
-0.028533 0.018362 0.089467 250 0 0 
-0.02881 0.017098 0.090783 250 0 0 
-0.028948 0.015558 0.091292 250 0 0 
-0.029116 0.013953 0.091721 250 0 0 
-0.029476 0.012422 0.092599 250 0 0 
-0.029905 0.011043 0.093606 250 0 0 
-0.030359 0.0098224 0.094918 250 0 0 
-0.030892 0.0085312 0.095954 250 0 0 
-0.031561 0.0073038 0.097564 250 0 0 
-0.032532 0.0062305 0.10003 250 0 0 
-0.033515 0.0046296 0.10273 250 0 0 
-0.03395 0.0028378 0.10396 250 0 0 
-0.034059 0.0011543 0.10414 250 0 0 
-0.034078 -0.00077959 0.10452 250 0 0 
-0.034254 -0.0029951 0.10513 250 0 0 
-0.034545 -0.0053081 0.1062 250 0 0 
-0.035105 -0.007643 0.10774 250 0 0 
-0.026767 0.018288 0.088389 250 0 0 
-0.02727 0.017167 0.090345 250 0 0 
-0.027649 0.015564 0.091746 250 0 0 
-0.027829 0.01402 0.092407 250 0 0 
-0.028176 0.012653 0.093346 250 0 0 
-0.028494 0.011212 0.09422 250 0 0 
-0.028905 0.0098705 0.095418 250 0 0 
-0.029461 0.0086671 0.096525 250 0 0 
-0.030271 0.0074769 0.09871 250 0 0 
-0.031109 0.0062439 0.10098 250 0 0 
-0.031891 0.004613 0.10314 250 0 0 
-0.032472 0.0027472 0.10478 250 0 0 
-0.032603 0.00093097 0.10552 250 0 0 
-0.032632 -0.0010488 0.10571 250 0 0 
-0.032834 -0.0031177 0.10629 250 0 0 
-0.033144 -0.0054884 0.10742 250 0 0 
-0.033432 -0.0076624 0.10846 250 0 0 
-0.025095 0.018282 0.08782 250 0 0 
-0.025704 0.01725 0.089988 250 0 0 
-0.026349 0.015771 0.09221 250 0 0 
-0.026536 0.014205 0.093231 250 0 0 
-0.027068 0.012971 0.09472 250 0 0 
-0.027311 0.011467 0.09538 250 0 0 
-0.027613 0.010013 0.096233 250 0 0 
-0.028056 0.0087449 0.09737 250 0 0 
-0.028752 0.0075129 0.099252 250 0 0 
-0.029569 0.0062295 0.10195 250 0 0 
-0.030263 0.0046332 0.10358 250 0 0 
-0.030765 0.0028919 0.10515 250 0 0 
-0.031067 0.00076789 0.10647 250 0 0 
-0.031151 -0.0013128 0.10698 250 0 0 
-0.031278 -0.0032143 0.10735 250 0 0 
-0.03161 -0.0052103 0.10813 250 0 0 
-0.031859 -0.0074476 0.10928 250 0 0 
-0.023581 0.018309 0.087789 250 0 0 
-0.024255 0.017359 0.090161 250 0 0 
-0.024977 0.016051 0.092355 250 0 0 
-0.025031 0.014646 0.093709 250 0 0 
-0.025502 0.013043 0.094979 250 0 0 
-0.025716 0.011525 0.095726 250 0 0 
-0.026221 0.010089 0.097108 250 0 0 
-0.026634 0.0088482 0.09842 250 0 0 
-0.027183 0.007421 0.099705 250 0 0 
-0.027816 0.0061043 0.10203 250 0 0 
-0.028408 0.0045978 0.10332 250 0 0 
-0.028751 0.0029185 0.10504 250 0 0 
-0.029478 0.00087506 0.1069 250 0 0 
-0.029562 -0.0013906 0.10775 250 0 0 
-0.02974 -0.003335 0.10831 250 0 0 
-0.029971 -0.0052424 0.10899 250 0 0 
-0.030122 -0.007134 0.1098 250 0 0 
-0.021982 0.018251 0.087458 250 0 0 
-0.022877 0.01734 0.090393 250 0 0 
-0.023333 0.016181 0.092487 250 0 0 
-0.023469 0.014857 0.093539 250 0 0 
-0.023764 0.013191 0.094873 250 0 0 
-0.02407 0.011545 0.095976 250 0 0 
-0.024706 0.01016 0.097722 250 0 0 
-0.025091 0.0087427 0.098698 250 0 0 
-0.025472 0.00734 0.099958 250 0 0 
-0.02596 0.0058858 0.10153 250 0 0 
-0.026193 0.0043202 0.10284 250 0 0 
-0.026805 0.0027447 0.10474 250 0 0 
-0.027418 0.00071762 0.10669 250 0 0 
-0.027804 -0.0012826 0.10806 250 0 0 
-0.027958 -0.0033055 0.10875 250 0 0 
-0.028062 -0.0051839 0.10949 250 0 0 
-0.028223 -0.0070784 0.11025 250 0 0 
-0.020302 0.018114 0.08707 250 0 0 
-0.021269 0.017358 0.090201 250 0 0 
-0.021655 0.016277 0.092339 250 0 0 
-0.021892 0.014934 0.093702 250 0 0 
-0.02215 0.013478 0.094905 250 0 0 
-0.022506 0.011716 0.096272 250 0 0 
-0.023134 0.010209 0.098027 250 0 0 
-0.023387 0.0087513 0.098935 250 0 0 
-0.023659 0.0072644 0.09994 250 0 0 
-0.023965 0.0057822 0.10114 250 0 0 
-0.024228 0.004163 0.10221 250 0 0 
-0.024678 0.00247 0.10416 250 0 0 
-0.025446 0.00068813 0.10648 250 0 0 
-0.02597 -0.0012684 0.10809 250 0 0 
-0.026167 -0.0031583 0.10899 250 0 0 
-0.026169 -0.005084 0.10985 250 0 0 
-0.026548 -0.0068048 0.11028 250 0 0 
-0.018915 0.018095 0.087308 250 0 0 
-0.019624 0.017321 0.089883 250 0 0 
-0.020035 0.016281 0.092254 250 0 0 
-0.020247 0.014945 0.093584 250 0 0 
-0.020557 0.01354 0.095126 250 0 0 
-0.02081 0.011933 0.096295 250 0 0 
-0.021339 0.010278 0.09794 250 0 0 
-0.021626 0.0086994 0.098973 250 0 0 
-0.021878 0.0071133 0.099785 250 0 0 
-0.022189 0.0056485 0.10092 250 0 0 
-0.02239 0.0039553 0.10171 250 0 0 
-0.022779 0.0023601 0.10345 250 0 0 
-0.02329 0.00060262 0.10567 250 0 0 
-0.02395 -0.0011565 0.10767 250 0 0 
-0.02424 -0.0029986 0.10873 250 0 0 
-0.024293 -0.0049672 0.10955 250 0 0 
-0.024246 -0.0068203 0.11029 250 0 0 
-0.017335 0.018174 0.08706 250 0 0 
-0.017797 0.017223 0.089361 250 0 0 
-0.018242 0.016228 0.09171 250 0 0 
-0.018539 0.014941 0.093532 250 0 0 
-0.018882 0.013522 0.095135 250 0 0 
-0.019067 0.011883 0.096192 250 0 0 
-0.019459 0.010243 0.097599 250 0 0 
-0.01989 0.0087308 0.09914 250 0 0 
-0.020151 0.0071142 0.099977 250 0 0 
-0.020329 0.0054998 0.10064 250 0 0 
-0.020553 0.0038685 0.10145 250 0 0 
-0.020781 0.0022728 0.10289 250 0 0 
-0.021073 0.00064089 0.10442 250 0 0 
-0.021587 -0.0012662 0.10603 250 0 0 
-0.022008 -0.0030403 0.10763 250 0 0 
-0.022322 -0.0047953 0.10853 250 0 0 
-0.022229 -0.0066738 0.10934 250 0 0 
-0.02214 -0.0087717 0.11011 250 0 0 
-0.015769 0.018084 0.086266 250 0 0 
-0.016159 0.017157 0.088703 250 0 0 
-0.016395 0.01618 0.090821 250 0 0 
-0.016748 0.014914 0.093003 250 0 0 
-0.017048 0.013426 0.094843 250 0 0 
-0.017183 0.011849 0.096078 250 0 0 
-0.01766 0.010207 0.097426 250 0 0 
-0.018127 0.0087911 0.099114 250 0 0 
-0.018376 0.0071531 0.099947 250 0 0 
-0.018463 0.005471 0.10046 250 0 0 
-0.018709 0.0038739 0.10123 250 0 0 
-0.018855 0.0022936 0.10224 250 0 0 
-0.019111 0.00055746 0.1036 250 0 0 
-0.019448 -0.0012962 0.10466 250 0 0 
-0.019704 -0.0031921 0.10566 250 0 0 
-0.020051 -0.0050833 0.10663 250 0 0 
-0.020118 -0.0070392 0.10758 250 0 0 
-0.020295 -0.0089207 0.10884 250 0 0 
-0.020571 -0.010893 0.11061 250 0 0 
-0.014191 0.018144 0.085686 250 0 0 
-0.014567 0.017069 0.087956 250 0 0 
-0.014731 0.015946 0.090032 250 0 0 
-0.014936 0.014833 0.092615 250 0 0 
-0.015115 0.013279 0.09443 250 0 0 
-0.01517 0.011652 0.095787 250 0 0 
-0.015798 0.010166 0.097419 250 0 0 
-0.016342 0.0087039 0.099053 250 0 0 
-0.016535 0.0071372 0.099957 250 0 0 
-0.016642 0.0055395 0.10043 250 0 0 
-0.016767 0.0039424 0.10088 250 0 0 
-0.016934 0.0022878 0.10164 250 0 0 
-0.017196 0.00054756 0.10272 250 0 0 
-0.017285 -0.0012722 0.10314 250 0 0 
-0.017408 -0.003144 0.10376 250 0 0 
-0.017443 -0.0048286 0.10473 250 0 0 
-0.017788 -0.0069121 0.10608 250 0 0 
-0.017928 -0.0088565 0.10734 250 0 0 
-0.018243 -0.010871 0.10935 250 0 0 
-0.018345 -0.01244 0.11107 250 0 0 
-0.012652 0.018188 0.085243 250 0 0 
-0.013039 0.016986 0.087628 250 0 0 
-0.013087 0.015835 0.089369 250 0 0 
-0.013115 0.014698 0.091982 250 0 0 
-0.013251 0.013212 0.093767 250 0 0 
-0.013124 0.011683 0.095262 250 0 0 
-0.01275 0.010255 0.09678 250 0 0 
-0.013225 0.0088217 0.098634 250 0 0 
-0.014581 0.0072186 0.099726 250 0 0 
-0.014491 0.0057422 0.10027 250 0 0 
-0.014771 0.0040274 0.10073 250 0 0 
-0.014897 0.0022434 0.10101 250 0 0 
-0.015072 0.00053633 0.10161 250 0 0 
-0.015164 -0.0011706 0.10224 250 0 0 
-0.015188 -0.0029503 0.10261 250 0 0 
-0.015308 -0.0047102 0.10345 250 0 0 
-0.015583 -0.0066848 0.10473 250 0 0 
-0.015757 -0.0086025 0.10607 250 0 0 
-0.016067 -0.010581 0.10803 250 0 0 
-0.016416 -0.012646 0.1107 250 0 0 
-0.01121 0.018094 0.084845 250 0 0 
-0.011421 0.016904 0.086776 250 0 0 
-0.011523 0.015718 0.088788 250 0 0 
-0.011427 0.01444 0.090745 250 0 0 
-0.011326 0.013221 0.092977 250 0 0 
-0.011079 0.011761 0.093954 250 0 0 
-0.010568 0.010436 0.095174 250 0 0 
-0.0099269 0.0091883 0.096598 250 0 0 
-0.0092541 0.0079627 0.098036 250 0 0 
-0.012394 0.0057379 0.09945 250 0 0 
-0.012898 0.0039417 0.10016 250 0 0 
-0.013089 0.00222 0.10062 250 0 0 
-0.01317 0.00045947 0.10087 250 0 0 
-0.013242 -0.0012957 0.10121 250 0 0 
-0.013409 -0.0030525 0.10183 250 0 0 
-0.013453 -0.0047799 0.10277 250 0 0 
-0.013546 -0.006581 0.10369 250 0 0 
-0.013728 -0.008381 0.10505 250 0 0 
-0.014022 -0.010409 0.10705 250 0 0 
-0.014344 -0.012427 0.10972 250 0 0 
-0.009792 0.017992 0.084324 250 0 0 
-0.0099382 0.016829 0.086375 250 0 0 
-0.010113 0.015502 0.088138 250 0 0 
-0.01003 0.014157 0.089813 250 0 0 
-0.0096115 0.013077 0.091561 250 0 0 
-0.0092807 0.011796 0.092738 250 0 0 
-0.0087375 0.01049 0.093639 250 0 0 
-0.0082201 0.0091122 0.094587 250 0 0 
-0.00745 0.0078072 0.09556 250 0 0 
-0.0072928 0.0062514 0.09688 250 0 0 
-0.0089045 0.0043417 0.09914 250 0 0 
-0.010941 0.0022704 0.099861 250 0 0 
-0.011316 0.00045292 0.10026 250 0 0 
-0.011507 -0.0013191 0.10046 250 0 0 
-0.011576 -0.0030941 0.10116 250 0 0 
-0.011647 -0.0048239 0.1024 250 0 0 
-0.011713 -0.0064822 0.10339 250 0 0 
-0.011717 -0.0082631 0.10436 250 0 0 
-0.011936 -0.010149 0.10633 250 0 0 
-0.012272 -0.01227 0.10879 250 0 0 
-0.0083329 0.017968 0.084153 250 0 0 
-0.0084938 0.016776 0.085853 250 0 0 
-0.0087573 0.015425 0.087269 250 0 0 
-0.008619 0.014072 0.088866 250 0 0 
-0.0082007 0.012958 0.090372 250 0 0 
-0.0078319 0.011613 0.090843 250 0 0 
-0.0074307 0.010271 0.091499 250 0 0 
-0.0071667 0.0088248 0.092106 250 0 0 
-0.006748 0.0073147 0.093143 250 0 0 
-0.0065994 0.0058247 0.094244 250 0 0 
-0.0069288 0.0041184 0.095982 250 0 0 
-0.0076119 0.0023532 0.097859 250 0 0 
-0.0085037 0.00060775 0.099277 250 0 0 
-0.0091973 -0.0012131 0.099794 250 0 0 
-0.0097588 -0.0030929 0.10069 250 0 0 
-0.0097656 -0.0046576 0.10201 250 0 0 
-0.0097927 -0.0063194 0.1029 250 0 0 
-0.0098588 -0.0081136 0.10421 250 0 0 
-0.010103 -0.010037 0.10599 250 0 0 
-0.010271 -0.012149 0.10802 250 0 0 
-0.010489 -0.014119 0.11096 250 0 0 
-0.0069427 0.017946 0.083727 250 0 0 
-0.0069945 0.016777 0.085124 250 0 0 
-0.0072133 0.0154 0.086522 250 0 0 
-0.0072702 0.013936 0.087672 250 0 0 
-0.0071517 0.012648 0.088775 250 0 0 
-0.0065628 0.011577 0.08972 250 0 0 
-0.0064781 0.0097884 0.089202 250 0 0 
-0.0062786 0.0082163 0.089877 250 0 0 
-0.006077 0.0068211 0.091114 250 0 0 
-0.0059404 0.0053241 0.092251 250 0 0 
-0.0059084 0.0036681 0.093688 250 0 0 
-0.0062449 0.0019488 0.095379 250 0 0 
-0.0069369 0.00018848 0.097337 250 0 0 
-0.0073693 -0.0015746 0.098934 250 0 0 
-0.0077748 -0.0031591 0.10054 250 0 0 
-0.0078704 -0.004645 0.1018 250 0 0 
-0.0079905 -0.0063055 0.10272 250 0 0 
-0.0080463 -0.0079553 0.10401 250 0 0 
-0.0082546 -0.010141 0.10562 250 0 0 
-0.0084185 -0.012207 0.10756 250 0 0 
-0.0085978 -0.014383 0.11083 250 0 0 
-0.0054837 0.017999 0.083067 250 0 0 
-0.0055283 0.016785 0.084424 250 0 0 
-0.0057112 0.015406 0.085684 250 0 0 
-0.0058512 0.013948 0.086585 250 0 0 
-0.0059968 0.012444 0.087322 250 0 0 
-0.0060818 0.010969 0.087259 250 0 0 
-0.0058761 0.0095669 0.087417 250 0 0 
-0.0057905 0.0079099 0.087719 250 0 0 
-0.0057214 0.006278 0.08855 250 0 0 
-0.0054706 0.0047807 0.090025 250 0 0 
-0.0050493 0.0029557 0.091521 250 0 0 
-0.0052127 0.0013919 0.093054 250 0 0 
-0.0053961 -0.00029282 0.095214 250 0 0 
-0.0057001 -0.0018255 0.098242 250 0 0 
-0.0060409 -0.0034309 0.10006 250 0 0 
-0.0061072 -0.0048286 0.10139 250 0 0 
-0.0062381 -0.006485 0.10235 250 0 0 
-0.0062324 -0.0080745 0.1038 250 0 0 
-0.0063981 -0.010181 0.10537 250 0 0 
-0.0065035 -0.012182 0.10746 250 0 0 
-0.0066772 -0.014441 0.11074 250 0 0 
-0.004032 0.016821 0.083728 250 0 0 
-0.0042934 0.015414 0.085215 250 0 0 
-0.0044222 0.014118 0.08638 250 0 0 
-0.0045479 0.012574 0.087083 250 0 0 
-0.0045439 0.011041 0.086965 250 0 0 
-0.0046019 0.0094328 0.086598 250 0 0 
-0.0050157 0.0077151 0.08617 250 0 0 
-0.0049466 0.0060432 0.086504 250 0 0 
-0.0047314 0.0043986 0.087456 250 0 0 
-0.0037434 0.0024807 0.090218 250 0 0 
-0.003804 0.00072195 0.091424 250 0 0 
-0.0039637 -0.00087512 0.093417 250 0 0 
-0.004026 -0.0021069 0.097706 250 0 0 
-0.0043284 -0.003632 0.099522 250 0 0 
-0.0044299 -0.0050122 0.10069 250 0 0 
-0.004488 -0.0065025 0.10202 250 0 0 
-0.0045082 -0.0081775 0.10355 250 0 0 
-0.0045605 -0.010184 0.10532 250 0 0 
-0.004648 -0.012253 0.10772 250 0 0 
-0.0047128 -0.014504 0.11077 250 0 0 
-0.0022958 0.016879 0.083362 250 0 0 
-0.0026235 0.015728 0.085517 250 0 0 
-0.0029404 0.014241 0.086749 250 0 0 
-0.0030292 0.0127 0.087231 250 0 0 
-0.0030535 0.011137 0.087374 250 0 0 
-0.0030642 0.0094674 0.086747 250 0 0 
-0.0032844 0.0075097 0.08595 250 0 0 
-0.0032994 0.0058459 0.085788 250 0 0 
-0.0030511 0.004276 0.086757 250 0 0 
-0.001414 0.0015392 0.089617 250 0 0 
-0.0016249 8.849e-05 0.090941 250 0 0 
-0.0018826 -0.0014205 0.092562 250 0 0 
-0.0023672 -0.0022591 0.097087 250 0 0 
-0.0025924 -0.0036409 0.099441 250 0 0 
-0.0026501 -0.0051098 0.1007 250 0 0 
-0.0027111 -0.0066223 0.10186 250 0 0 
-0.002768 -0.0082032 0.10355 250 0 0 
-0.0027873 -0.010146 0.10516 250 0 0 
-0.0027537 -0.012316 0.10761 250 0 0 
-0.0028776 -0.014645 0.11037 250 0 0 
-0.00089842 0.016829 0.083554 250 0 0 
-0.0011843 0.015641 0.085546 250 0 0 
-0.0013926 0.014219 0.08717 250 0 0 
-0.001536 0.012735 0.087608 250 0 0 
-0.0015832 0.011172 0.087841 250 0 0 
-0.0015308 0.0095849 0.087757 250 0 0 
-0.001374 0.007416 0.086793 250 0 0 
-0.0014611 0.0058746 0.086397 250 0 0 
0.00026946 0.0032806 0.087749 250 0 0 
0.00063253 0.0013724 0.089531 250 0 0 
0.0003305 8.0475e-05 0.091318 250 0 0 
7.6245e-05 -0.0012939 0.093301 250 0 0 
-0.00072787 -0.0022771 0.096895 250 0 0 
-0.00087358 -0.0036368 0.09935 250 0 0 
-0.00091388 -0.0051232 0.1008 250 0 0 
-0.00091876 -0.0066893 0.10216 250 0 0 
-0.0010287 -0.0083656 0.10346 250 0 0 
-0.0010328 -0.010238 0.10569 250 0 0 
-0.0010058 -0.012549 0.10795 250 0 0 
-0.00088341 -0.014968 0.11058 250 0 0 
0.00053182 0.016796 0.083664 250 0 0 
0.00026534 0.015578 0.085737 250 0 0 
0.00015597 0.014226 0.087232 250 0 0 
-3.2216e-05 0.012683 0.088129 250 0 0 
-5.6541e-05 0.011038 0.088398 250 0 0 
0.00038826 0.0090352 0.088483 250 0 0 
0.00083287 0.0071675 0.088597 250 0 0 
0.0015296 0.005148 0.088762 250 0 0 
0.0020096 0.0032608 0.089937 250 0 0 
0.0019443 0.0017978 0.091069 250 0 0 
0.0019503 0.00033894 0.092316 250 0 0 
0.0015083 -0.0010554 0.094149 250 0 0 
0.00098359 -0.0021719 0.097252 250 0 0 
0.00080483 -0.0036703 0.099223 250 0 0 
0.00079802 -0.0051538 0.10083 250 0 0 
0.00076034 -0.0067422 0.10215 250 0 0 
0.00074265 -0.0085284 0.10326 250 0 0 
0.00078299 -0.010369 0.10562 250 0 0 
0.00087596 -0.01259 0.10785 250 0 0 
0.00098976 -0.015029 0.11036 250 0 0 
0.0019344 0.016755 0.083848 250 0 0 
0.0017176 0.015563 0.085908 250 0 0 
0.0016139 0.014204 0.087542 250 0 0 
0.0015166 0.012653 0.088633 250 0 0 
0.0015195 0.010845 0.088972 250 0 0 
0.0019797 0.0088388 0.089412 250 0 0 
0.0022775 0.0070391 0.090288 250 0 0 
0.002775 0.005324 0.090704 250 0 0 
0.0030043 0.0038344 0.091695 250 0 0 
0.0031673 0.0023066 0.092659 250 0 0 
0.0031302 0.0008701 0.093755 250 0 0 
0.0028516 -0.00071551 0.095386 250 0 0 
0.0026406 -0.0020372 0.098136 250 0 0 
0.002557 -0.0035852 0.099562 250 0 0 
0.0025348 -0.0052183 0.1007 250 0 0 
0.0024823 -0.0068003 0.10217 250 0 0 
0.0025311 -0.0086229 0.10319 250 0 0 
0.0026562 -0.010478 0.10539 250 0 0 
0.0027811 -0.012679 0.10767 250 0 0 
0.0028785 -0.015084 0.11004 250 0 0 
0.0033333 0.016707 0.083898 250 0 0 
0.0031496 0.015502 0.085856 250 0 0 
0.003023 0.014093 0.087868 250 0 0 
0.0029464 0.012581 0.088714 250 0 0 
0.0030252 0.010894 0.089271 250 0 0 
0.0033849 0.0090762 0.089886 250 0 0 
0.0035343 0.0073601 0.091078 250 0 0 
0.0038643 0.0058783 0.092076 250 0 0 
0.0040523 0.0044251 0.092913 250 0 0 
0.0041632 0.0029104 0.093897 250 0 0 
0.0042414 0.0013972 0.095095 250 0 0 
0.0040527 -0.00021328 0.096921 250 0 0 
0.0041876 -0.0018531 0.098949 250 0 0 
0.0042257 -0.0034646 0.10016 250 0 0 
0.0041735 -0.0051584 0.10118 250 0 0 
0.0042541 -0.0068081 0.10233 250 0 0 
0.0043177 -0.008674 0.10337 250 0 0 
0.0044111 -0.010647 0.10548 250 0 0 
0.0046279 -0.012879 0.10771 250 0 0 
0.0048643 -0.015124 0.11028 250 0 0 
0.0047139 0.016666 0.084284 250 0 0 
0.004513 0.015546 0.086159 250 0 0 
0.0044168 0.014146 0.087777 250 0 0 
0.0044237 0.012682 0.088545 250 0 0 
0.0044449 0.011093 0.089551 250 0 0 
0.0047819 0.0094264 0.090485 250 0 0 
0.0049411 0.0078637 0.091553 250 0 0 
0.0050351 0.0064329 0.092954 250 0 0 
0.0053077 0.0049296 0.093953 250 0 0 
0.0053564 0.0034874 0.095122 250 0 0 
0.0051931 0.0019451 0.096769 250 0 0 
0.0053766 0.00017009 0.098528 250 0 0 
0.0058885 -0.001727 0.099786 250 0 0 
0.0059289 -0.0033361 0.10077 250 0 0 
0.0060271 -0.0051019 0.10167 250 0 0 
0.0059737 -0.0068204 0.10274 250 0 0 
0.0060718 -0.0086485 0.10391 250 0 0 
0.0061616 -0.010926 0.10545 250 0 0 
0.00648 -0.013263 0.10776 250 0 0 
0.0059431 0.016562 0.084903 250 0 0 
0.0059716 0.015557 0.086286 250 0 0 
0.0059116 0.014151 0.08759 250 0 0 
0.0059062 0.012686 0.08829 250 0 0 
0.0059038 0.011219 0.089505 250 0 0 
0.0062631 0.0097899 0.090463 250 0 0 
0.0064868 0.0082968 0.09184 250 0 0 
0.0064644 0.0068883 0.093357 250 0 0 
0.0065974 0.0054304 0.094773 250 0 0 
0.0067981 0.0036083 0.096454 250 0 0 
0.006818 0.0021321 0.098235 250 0 0 
0.0073659 0.00018067 0.099622 250 0 0 
0.007627 -0.0016463 0.10041 250 0 0 
0.007703 -0.0033531 0.10135 250 0 0 
0.0077482 -0.0050848 0.10243 250 0 0 
0.0077368 -0.0068242 0.10349 250 0 0 
0.0079045 -0.0089236 0.10433 250 0 0 
0.0081211 -0.011324 0.10592 250 0 0 
0.0083815 -0.013795 0.10775 250 0 0 
0.0087797 -0.0159 0.10914 250 0 0 
0.0072941 0.01736 0.083572 250 0 0 
0.0074051 0.016559 0.085121 250 0 0 
0.0073912 0.015529 0.086511 250 0 0 
0.0074017 0.014149 0.087786 250 0 0 
0.0073449 0.01269 0.088298 250 0 0 
0.0073982 0.01109 0.089555 250 0 0 
0.0075977 0.0097288 0.090523 250 0 0 
0.0079181 0.0085517 0.091732 250 0 0 
0.0078044 0.0073205 0.094204 250 0 0 
0.0082563 0.0054989 0.095301 250 0 0 
0.0084557 0.0036749 0.096877 250 0 0 
0.008642 0.0020257 0.099038 250 0 0 
0.0089845 0.00024155 0.10014 250 0 0 
0.0092735 -0.0015678 0.10105 250 0 0 
0.0094224 -0.0032727 0.1021 250 0 0 
0.0094774 -0.0050992 0.10298 250 0 0 
0.0095764 -0.0069776 0.1042 250 0 0 
0.0097796 -0.0091014 0.1051 250 0 0 
0.010005 -0.011633 0.10628 250 0 0 
0.010161 -0.014272 0.10745 250 0 0 
0.0086846 0.017347 0.083598 250 0 0 
0.0088043 0.016486 0.085133 250 0 0 
0.008839 0.015423 0.086492 250 0 0 
0.0088145 0.01409 0.087778 250 0 0 
0.0088719 0.012552 0.088599 250 0 0 
0.0089585 0.011034 0.089658 250 0 0 
0.0090317 0.0096077 0.09046 250 0 0 
0.0091903 0.0081175 0.091507 250 0 0 
0.0095422 0.0073379 0.094397 250 0 0 
0.0099983 0.0053744 0.095362 250 0 0 
0.010211 0.0037465 0.097725 250 0 0 
0.010367 0.0021063 0.09943 250 0 0 
0.0106 0.00035845 0.10025 250 0 0 
0.010823 -0.0013696 0.10149 250 0 0 
0.011117 -0.0031931 0.10258 250 0 0 
0.011237 -0.0050359 0.1034 250 0 0 
0.011416 -0.0069549 0.10481 250 0 0 
0.011618 -0.009155 0.10589 250 0 0 
0.011831 -0.011931 0.10691 250 0 0 
0.011946 -0.014544 0.10796 250 0 0 
0.010056 0.017372 0.08364 250 0 0 
0.010153 0.016522 0.084926 250 0 0 
0.010128 0.015432 0.086282 250 0 0 
0.010263 0.014062 0.087436 250 0 0 
0.010383 0.012637 0.088271 250 0 0 
0.010475 0.011131 0.089443 250 0 0 
0.010554 0.0097331 0.090436 250 0 0 
0.010639 0.0082957 0.091452 250 0 0 
0.01122 0.0070139 0.093977 250 0 0 
0.011565 0.0052826 0.095731 250 0 0 
0.011833 0.0037987 0.098006 250 0 0 
0.012119 0.002166 0.099621 250 0 0 
0.012407 0.00046603 0.10047 250 0 0 
0.012579 -0.0012963 0.10163 250 0 0 
0.012831 -0.0030658 0.10279 250 0 0 
0.013058 -0.0048853 0.10395 250 0 0 
0.01327 -0.0068568 0.10545 250 0 0 
0.013399 -0.0095137 0.10681 250 0 0 
0.013655 -0.0123 0.10784 250 0 0 
0.013803 -0.014499 0.10868 250 0 0 
0.01151 0.017693 0.084222 250 0 0 
0.011575 0.01669 0.08509 250 0 0 
0.011517 0.015514 0.086388 250 0 0 
0.011746 0.014088 0.087506 250 0 0 
0.011904 0.012658 0.088215 250 0 0 
0.011938 0.011192 0.089232 250 0 0 
0.012027 0.009815 0.090205 250 0 0 
0.012099 0.0083741 0.091225 250 0 0 
0.012277 0.0071575 0.093707 250 0 0 
0.013123 0.0051738 0.095851 250 0 0 
0.013517 0.0037039 0.097922 250 0 0 
0.013855 0.0021734 0.099769 250 0 0 
0.014142 0.00057163 0.1008 250 0 0 
0.014391 -0.0011188 0.10162 250 0 0 
0.014621 -0.0029115 0.10313 250 0 0 
0.014827 -0.0048063 0.10426 250 0 0 
0.015062 -0.0069198 0.10639 250 0 0 
0.015275 -0.010134 0.10805 250 0 0 
0.015615 -0.012483 0.10936 250 0 0 
0.012912 0.017712 0.084263 250 0 0 
0.012958 0.016856 0.085488 250 0 0 
0.012979 0.015628 0.086446 250 0 0 
0.013242 0.014081 0.0878 250 0 0 
0.013392 0.012662 0.088419 250 0 0 
0.013408 0.011265 0.089384 250 0 0 
0.013506 0.0098913 0.09029 250 0 0 
0.013619 0.0084879 0.091393 250 0 0 
0.013781 0.0071266 0.093251 250 0 0 
0.014645 0.0050484 0.0958 250 0 0 
0.015308 0.0036818 0.098363 250 0 0 
0.015686 0.0021645 0.099839 250 0 0 
0.016015 0.00050904 0.10123 250 0 0 
0.016106 -0.0011219 0.10193 250 0 0 
0.016407 -0.0028753 0.10349 250 0 0 
0.01674 -0.0048302 0.10536 250 0 0 
0.017108 -0.0072128 0.10779 250 0 0 
0.017405 -0.010002 0.10964 250 0 0 
0.014456 0.017847 0.084677 250 0 0 
0.014532 0.016997 0.085871 250 0 0 
0.014558 0.01585 0.086916 250 0 0 
0.014764 0.014236 0.08767 250 0 0 
0.014888 0.012851 0.088649 250 0 0 
0.014991 0.011396 0.089695 250 0 0 
0.015051 0.0099371 0.090661 250 0 0 
0.015174 0.008569 0.092232 250 0 0 
0.015577 0.0072005 0.093935 250 0 0 
0.016113 0.0052969 0.095799 250 0 0 
0.016966 0.0036846 0.098513 250 0 0 
0.017414 0.0021302 0.099948 250 0 0 
0.017738 0.00054405 0.10133 250 0 0 
0.017984 -0.0011045 0.10242 250 0 0 
0.018275 -0.0029516 0.10394 250 0 0 
0.018791 -0.0049791 0.10655 250 0 0 
0.019524 -0.0075815 0.10987 250 0 0 
0.01608 0.018141 0.085442 250 0 0 
0.01614 0.017117 0.086495 250 0 0 
0.01617 0.015818 0.087417 250 0 0 
0.016337 0.014465 0.088241 250 0 0 
0.016457 0.012999 0.088992 250 0 0 
0.016617 0.011528 0.090285 250 0 0 
0.016619 0.010021 0.091152 250 0 0 
0.016887 0.0085953 0.092532 250 0 0 
0.017394 0.0071545 0.094721 250 0 0 
0.017696 0.0055065 0.095947 250 0 0 
0.018561 0.0038455 0.098488 250 0 0 
0.019122 0.0022206 0.099831 250 0 0 
0.019538 0.00067881 0.10142 250 0 0 
0.020023 -0.001203 0.103 250 0 0 
0.02043 -0.0032101 0.10487 250 0 0 
0.021056 -0.0053221 0.10791 250 0 0 
0.021851 -0.0075091 0.11085 250 0 0 
0.017685 0.018303 0.086153 250 0 0 
0.01776 0.017196 0.087109 250 0 0 
0.017757 0.015883 0.087799 250 0 0 
0.017927 0.014591 0.08884 250 0 0 
0.018095 0.01315 0.089688 250 0 0 
0.018401 0.011604 0.090494 250 0 0 
0.018255 0.01004 0.09128 250 0 0 
0.018406 0.0085493 0.092419 250 0 0 
0.019084 0.0071448 0.095195 250 0 0 
0.019495 0.0055961 0.096556 250 0 0 
0.020589 0.0038916 0.099037 250 0 0 
0.021027 0.0022935 0.10041 250 0 0 
0.021521 0.00056151 0.1019 250 0 0 
0.022075 -0.0015866 0.10362 250 0 0 
0.022999 -0.0036984 0.10625 250 0 0 
0.023406 -0.0054821 0.10918 250 0 0 
0.019161 0.018329 0.08626 250 0 0 
0.019386 0.017222 0.087429 250 0 0 
0.019479 0.015958 0.08826 250 0 0 
0.019676 0.014604 0.089145 250 0 0 
0.019832 0.013002 0.08964 250 0 0 
0.020025 0.011435 0.090434 250 0 0 
0.019922 0.0099423 0.091328 250 0 0 
0.020061 0.0085292 0.092574 250 0 0 
0.020768 0.0071048 0.095339 250 0 0 
0.021268 0.0056441 0.096736 250 0 0 
0.022413 0.0038555 0.099132 250 0 0 
0.022881 0.0022221 0.10077 250 0 0 
0.0235 0.00031831 0.10237 250 0 0 
0.024292 -0.0017589 0.10448 250 0 0 
0.025161 -0.0036389 0.10729 250 0 0 
0.025873 -0.0056454 0.11052 250 0 0 
0.020628 0.018272 0.086286 250 0 0 
0.020973 0.017167 0.087537 250 0 0 
0.02132 0.015803 0.088404 250 0 0 
0.02143 0.014453 0.089319 250 0 0 
0.021438 0.012952 0.089639 250 0 0 
0.021591 0.011398 0.090288 250 0 0 
0.021529 0.0098704 0.091157 250 0 0 
0.021823 0.0084828 0.093034 250 0 0 
0.022318 0.0070345 0.094993 250 0 0 
0.023023 0.0054347 0.096267 250 0 0 
0.024174 0.0038261 0.09908 250 0 0 
0.025095 0.0020797 0.10191 250 0 0 
0.025577 0.00016056 0.10315 250 0 0 
0.026338 -0.0016457 0.10522 250 0 0 
0.02733 -0.0036018 0.10876 250 0 0 
0.022257 0.018203 0.086504 250 0 0 
0.022532 0.016998 0.087405 250 0 0 
0.022869 0.015713 0.088357 250 0 0 
0.023022 0.014342 0.089104 250 0 0 
0.023042 0.012895 0.08956 250 0 0 
0.023235 0.011431 0.090408 250 0 0 
0.024141 0.010058 0.092473 250 0 0 
0.024167 0.008569 0.093805 250 0 0 
0.024494 0.0068748 0.095052 250 0 0 
0.025707 0.0054109 0.097544 250 0 0 
0.026568 0.0038792 0.10001 250 0 0 
0.027655 0.0018812 0.10312 250 0 0 
0.028038 0.0003136 0.10485 250 0 0 
0.028631 -0.0015292 0.10681 250 0 0 
0.029589 -0.0036765 0.11026 250 0 0 
0.023823 0.01806 0.086488 250 0 0 
0.024171 0.016931 0.087574 250 0 0 
0.024422 0.015646 0.088441 250 0 0 
0.024551 0.014262 0.088982 250 0 0 
0.024665 0.012871 0.089634 250 0 0 
0.025048 0.011571 0.090651 250 0 0 
0.025741 0.010225 0.091967 250 0 0 
0.026026 0.008757 0.092979 250 0 0 
0.02646 0.0071741 0.094627 250 0 0 
0.027682 0.0055701 0.097725 250 0 0 
0.028836 0.003784 0.10128 250 0 0 
0.030209 0.0019612 0.10428 250 0 0 
0.030602 0.00031188 0.10639 250 0 0 
0.030931 -0.001374 0.10839 250 0 0 
0.031704 -0.0034674 0.11092 250 0 0 
0.025287 0.017931 0.08621 250 0 0 
0.0257 0.016828 0.087493 250 0 0 
0.025973 0.01556 0.08845 250 0 0 
0.026102 0.014238 0.088987 250 0 0 
0.026225 0.012808 0.089569 250 0 0 
0.026687 0.011485 0.090118 250 0 0 
0.027028 0.010159 0.091007 250 0 0 
0.027394 0.0087804 0.092156 250 0 0 
0.027806 0.0072039 0.093515 250 0 0 
0.029278 0.0056803 0.097314 250 0 0 
0.031304 0.0036776 0.10264 250 0 0 
0.032289 0.002037 0.10554 250 0 0 
0.032637 0.00037862 0.10717 250 0 0 
0.033132 -0.0012639 0.10947 250 0 0 
0.026824 0.017886 0.08632 250 0 0 
0.027194 0.016792 0.087403 250 0 0 
0.02756 0.015562 0.088225 250 0 0 
0.027856 0.014342 0.089147 250 0 0 
0.028143 0.012806 0.08941 250 0 0 
0.028277 0.011434 0.089853 250 0 0 
0.02847 0.010127 0.090593 250 0 0 
0.028873 0.0087857 0.091951 250 0 0 
0.030219 0.0074796 0.095201 250 0 0 
0.030988 0.0057735 0.097491 250 0 0 
0.033724 0.0036124 0.10393 250 0 0 
0.034416 0.0021954 0.1069 250 0 0 
0.034839 0.00054341 0.10872 250 0 0 
0.035498 -0.0010667 0.11096 250 0 0 
0.027993 0.017745 0.085459 250 0 0 
0.028673 0.016854 0.087317 250 0 0 
0.029114 0.015688 0.088259 250 0 0 
0.02943 0.014285 0.088808 250 0 0 
0.029607 0.012759 0.089102 250 0 0 
0.029738 0.011371 0.089622 250 0 0 
0.029857 0.01004 0.09027 250 0 0 
0.030468 0.0087907 0.092103 250 0 0 
0.03176 0.0075459 0.095093 250 0 0 
0.032418 0.0058674 0.096784 250 0 0 
0.036455 0.0037518 0.10679 250 0 0 
0.036981 0.0021045 0.10858 250 0 0 
0.037252 0.00043972 0.11001 250 0 0 
0.038207 -0.0014254 0.11172 250 0 0 
0.028945 0.017445 0.084028 250 0 0 
0.029862 0.016756 0.086411 250 0 0 
0.030413 0.015539 0.087643 250 0 0 
0.030837 0.014206 0.08852 250 0 0 
0.031032 0.012722 0.088851 250 0 0 
0.031223 0.011331 0.089479 250 0 0 
0.031586 0.0099927 0.090611 250 0 0 
0.031913 0.0087164 0.091649 250 0 0 
0.032918 0.007409 0.094003 250 0 0 
0.035102 0.0054053 0.098901 250 0 0 
0.039056 0.0037679 0.10775 250 0 0 
0.03945 0.0021396 0.1096 250 0 0 
0.040019 0.00024985 0.11101 250 0 0 
0.040371 -0.0013384 0.11211 250 0 0 
0.030837 0.016449 0.084945 250 0 0 
0.031602 0.015341 0.086546 250 0 0 
0.032173 0.014061 0.087571 250 0 0 
0.032417 0.012612 0.088367 250 0 0 
0.032645 0.011151 0.089125 250 0 0 
0.033064 0.0097597 0.090369 250 0 0 
0.033528 0.008528 0.091808 250 0 0 
0.034478 0.007172 0.09412 250 0 0 
0.039572 0.00467 0.10381 250 0 0 
0.041058 0.0037236 0.10808 250 0 0 
0.041688 0.0020901 0.11016 250 0 0 
0.042096 0.00016346 0.11124 250 0 0 
0.042765 -0.0014524 0.1123 250 0 0 
0.032679 0.015236 0.084765 250 0 0 
0.03334 0.013979 0.086081 250 0 0 
0.033905 0.012605 0.088052 250 0 0 
0.034284 0.011009 0.088997 250 0 0 
0.034555 0.0096016 0.090088 250 0 0 
0.035006 0.0083534 0.091462 250 0 0 
0.037141 0.0067535 0.096184 250 0 0 
0.041511 0.004596 0.10419 250 0 0 
0.042763 0.0037426 0.10792 250 0 0 
0.043427 0.0021145 0.1096 250 0 0 
0.043956 0.00015786 0.11088 250 0 0 
0.044237 -0.0017041 0.11152 250 0 0 
-0.001838 -0.0065522 0.080591 0 250 0 
-0.001838 -0.0065522 0.080991 0 250 0 
-0.001838 -0.0065522 0.081391 0 250 0 
-0.001838 -0.0061522 0.080591 0 250 0 
-0.001838 -0.0061522 0.080991 0 250 0 
-0.001838 -0.0061522 0.081391 0 250 0 
-0.001838 -0.0057522 0.080591 0 250 0 
-0.001838 -0.0057522 0.080991 0 250 0 
-0.001838 -0.0057522 0.081391 0 250 0 
-0.001438 -0.0065522 0.080591 0 250 0 
-0.001438 -0.0065522 0.080991 0 250 0 
-0.001438 -0.0065522 0.081391 0 250 0 
-0.001438 -0.0061522 0.080591 0 250 0 
-0.001438 -0.0061522 0.080991 0 250 0 
-0.001438 -0.0061522 0.081391 0 250 0 
-0.001438 -0.0057522 0.080591 0 250 0 
-0.001438 -0.0057522 0.080991 0 250 0 
-0.001438 -0.0057522 0.081391 0 250 0 
-0.001038 -0.0065522 0.080591 0 250 0 
-0.001038 -0.0065522 0.080991 0 250 0 
-0.001038 -0.0065522 0.081391 0 250 0 
-0.001038 -0.0061522 0.080591 0 250 0 
-0.001038 -0.0061522 0.080991 0 250 0 
-0.001038 -0.0061522 0.081391 0 250 0 
-0.001038 -0.0057522 0.080591 0 250 0 
-0.001038 -0.0057522 0.080991 0 250 0 
-0.001038 -0.0057522 0.081391 0 250 0 
3 18 2 1
3 17 18 1
3 19 2 18
3 35 18 17
3 36 19 18
3 20 2 19
3 34 35 17
3 36 18 35
3 53 36 35
3 37 19 36
3 37 20 19
3 21 20 37
3 3 2 20
3 52 35 34
3 52 53 35
3 70 53 52
3 54 36 53
3 54 37 36
3 38 37 54
3 38 21 37
3 22 21 38
3 4 20 21
3 4 3 20
3 51 52 34
3 69 70 52
3 71 53 70
3 71 54 53
3 72 54 71
3 55 38 54
3 39 22 38
3 5 21 22
3 5 4 21
3 69 52 51
3 68 69 51
3 87 70 69
3 87 71 70
3 88 71 87
3 89 72 71
3 55 54 72
3 73 55 72
3 39 38 55
3 56 39 55
3 23 22 39
3 23 5 22
3 6 5 23
3 86 69 68
3 86 87 69
3 104 87 86
3 105 88 87
3 89 71 88
3 106 89 88
3 90 72 89
3 90 73 72
3 91 73 90
3 56 55 73
3 74 56 73
3 40 39 56
3 40 23 39
3 41 23 40
3 7 6 23
3 85 86 68
3 103 104 86
3 105 87 104
3 122 105 104
3 106 88 105
3 123 106 105
3 107 89 106
3 107 90 89
3 108 90 107
3 108 91 90
3 109 91 108
3 74 73 91
3 75 74 91
3 57 56 74
3 57 40 56
3 41 40 57
3 58 41 57
3 24 23 41
3 24 7 23
3 8 7 24
3 103 86 85
3 102 103 85
3 121 104 103
3 121 122 104
3 139 122 121
3 123 105 122
3 140 123 122
3 124 106 123
3 124 107 106
3 125 107 124
3 125 108 107
3 126 108 125
3 126 109 108
3 127 109 126
3 92 91 109
3 92 75 91
3 93 75 92
3 58 74 75
3 74 58 57
3 42 41 58
3 42 24 41
3 25 24 42
3 25 8 24
3 9 8 25
3 120 103 102
3 120 121 103
3 138 121 120
3 138 139 121
3 157 139 138
3 140 122 139
3 158 140 139
3 141 123 140
3 141 124 123
3 142 124 141
3 142 125 124
3 143 125 142
3 143 126 125
3 144 126 143
3 144 127 126
3 128 127 144
3 110 109 127
3 110 92 109
3 93 92 110
3 111 93 110
3 76 75 93
3 59 58 75
3 59 42 58
3 43 42 59
3 26 25 42
3 26 9 25
3 10 9 26
3 119 120 102
3 137 138 120
3 156 157 138
3 158 139 157
3 177 158 157
3 159 140 158
3 159 141 140
3 160 141 159
3 160 142 141
3 161 142 160
3 161 143 142
3 162 143 161
3 162 144 143
3 163 144 162
3 145 128 144
3 110 127 128
3 111 110 128
3 129 111 128
3 94 93 111
3 94 76 93
3 77 76 94
3 59 75 76
3 60 59 76
3 60 43 59
3 44 43 60
3 26 42 43
3 27 26 43
3 27 10 26
3 11 10 27
3 137 120 119
3 136 137 119
3 156 138 137
3 155 156 137
3 176 157 156
3 176 177 157
3 197 177 176
3 178 158 177
3 178 159 158
3 179 159 178
3 179 160 159
3 180 160 179
3 180 161 160
3 181 161 180
3 181 162 161
3 182 162 181
3 182 163 162
3 183 163 182
3 145 144 163
3 164 145 163
3 146 128 145
3 146 129 128
3 147 129 146
3 112 111 129
3 112 94 111
3 95 94 112
3 95 77 94
3 78 77 95
3 60 76 77
3 78 60 77
3 61 60 78
3 61 44 60
3 45 44 61
3 27 43 44
3 28 27 44
3 28 11 27
3 12 11 28
3 155 137 136
3 154 155 136
3 175 156 155
3 175 176 156
3 196 176 175
3 196 197 176
3 217 197 196
3 198 177 197
3 198 178 177
3 199 178 198
3 199 179 178
3 200 179 199
3 200 180 179
3 201 180 200
3 201 181 180
3 202 181 201
3 202 182 181
3 203 182 202
3 203 183 182
3 204 183 203
3 164 163 183
3 184 164 183
3 146 145 164
3 165 146 164
3 165 147 146
3 166 147 165
3 130 129 147
3 130 112 129
3 113 112 130
3 113 95 112
3 96 95 113
3 96 78 95
3 79 78 96
3 79 61 78
3 62 61 79
3 62 45 61
3 63 45 62
3 28 44 45
3 46 28 45
3 29 12 28
3 174 155 154
3 174 175 155
3 195 175 174
3 195 196 175
3 216 196 195
3 216 217 196
3 237 217 216
3 218 197 217
3 218 198 197
3 219 198 218
3 219 199 198
3 220 199 219
3 220 200 199
3 221 200 220
3 221 201 200
3 222 201 221
3 222 202 201
3 223 202 222
3 223 203 202
3 224 203 223
3 224 204 203
3 205 204 224
3 184 183 204
3 205 184 204
3 185 184 205
3 165 164 184
3 185 165 184
3 166 165 185
3 186 166 185
3 148 147 166
3 148 130 147
3 131 130 148
3 131 113 130
3 114 113 131
3 114 96 113
3 97 96 114
3 97 79 96
3 80 79 97
3 80 62 79
3 63 62 80
3 64 63 80
3 46 45 63
3 47 46 63
3 29 28 46
3 30 29 46
3 13 12 29
3 173 174 154
3 194 195 174
3 215 216 195
3 236 237 216
3 238 217 237
3 238 218 217
3 239 218 238
3 239 219 218
3 240 219 239
3 240 220 219
3 241 220 240
3 241 221 220
3 242 221 241
3 242 222 221
3 243 222 242
3 243 223 222
3 244 223 243
3 244 224 223
3 245 224 244
3 225 205 224
3 206 185 205
3 206 186 185
3 207 186 206
3 167 166 186
3 167 148 166
3 149 148 167
3 149 131 148
3 132 131 149
3 132 114 131
3 115 114 132
3 115 97 114
3 98 97 115
3 98 80 97
3 81 80 98
3 81 64 80
3 82 64 81
3 47 63 64
3 48 47 64
3 30 46 47
3 31 30 47
3 13 29 30
3 14 13 30
3 194 174 173
3 193 194 173
3 215 195 194
3 214 215 194
3 236 216 215
3 235 236 215
3 257 237 236
3 257 238 237
3 258 238 257
3 259 239 238
3 260 240 239
3 261 241 240
3 262 242 241
3 263 243 242
3 264 244 243
3 265 245 244
3 225 224 245
3 246 225 245
3 226 205 225
3 226 206 205
3 227 206 226
3 227 207 206
3 228 207 227
3 187 186 207
3 187 167 186
3 168 167 187
3 168 149 167
3 150 149 168
3 150 132 149
3 133 132 150
3 133 115 132
3 116 115 133
3 116 98 115
3 99 98 116
3 99 81 98
3 82 81 99
3 100 82 99
3 65 64 82
3 65 48 64
3 49 48 65
3 31 47 48
3 32 31 48
3 14 30 31
3 15 14 31
3 214 194 193
3 213 214 193
3 235 215 214
3 234 235 214
3 256 236 235
3 256 257 236
3 278 257 256
3 279 258 257
3 259 238 258
3 279 259 258
3 280 259 279
3 260 239 259
3 281 260 259
3 261 240 260
3 282 261 260
3 262 241 261
3 283 262 261
3 263 242 262
3 284 263 262
3 264 243 263
3 285 264 263
3 265 244 264
3 286 265 264
3 266 245 265
3 266 246 245
3 267 246 266
3 226 225 246
3 247 226 246
3 247 227 226
3 248 227 247
3 248 228 227
3 249 228 248
3 208 207 228
3 208 187 207
3 188 187 208
3 188 168 187
3 169 168 188
3 169 150 168
3 151 150 169
3 151 133 150
3 134 133 151
3 134 116 133
3 117 116 134
3 117 99 116
3 100 99 117
3 118 100 117
3 83 82 100
3 66 65 82
3 66 49 65
3 50 49 66
3 32 48 49
3 33 32 49
3 15 31 32
3 33 15 32
3 234 214 213
3 233 234 213
3 255 235 234
3 255 256 235
3 277 256 255
3 277 278 256
3 299 278 277
3 279 257 278
3 300 279 278
3 301 280 279
3 281 259 280
3 302 281 280
3 282 260 281
3 303 282 281
3 283 261 282
3 304 283 282
3 284 262 283
3 305 284 283
3 285 263 284
3 306 285 284
3 286 264 285
3 307 286 285
3 287 265 286
3 287 266 265
3 288 266 287
3 288 267 266
3 289 267 288
3 247 246 267
3 268 247 267
3 268 248 247
3 269 248 268
3 269 249 248
3 270 249 269
3 229 228 249
3 229 208 228
3 209 208 229
3 209 188 208
3 189 188 209
3 189 169 188
3 170 169 189
3 170 151 169
3 152 151 170
3 152 134 151
3 135 134 152
3 135 117 134
3 118 117 135
3 101 100 118
3 84 83 100
3 66 82 83
3 67 66 83
3 67 50 66
3 33 49 50
3 254 234 233
3 254 255 234
3 276 255 254
3 276 277 255
3 298 277 276
3 298 299 277
3 319 299 298
3 300 278 299
3 320 300 299
3 301 279 300
3 321 301 300
3 302 280 301
3 321 302 301
3 322 302 321
3 303 281 302
3 322 303 302
3 323 303 322
3 304 282 303
3 324 304 303
3 305 283 304
3 325 305 304
3 306 284 305
3 326 306 305
3 307 285 306
3 327 307 306
3 308 286 307
3 308 287 286
3 309 287 308
3 309 288 287
3 310 288 309
3 310 289 288
3 311 289 310
3 268 267 289
3 290 268 289
3 290 269 268
3 291 269 290
3 291 270 269
3 292 270 291
3 250 249 270
3 250 229 249
3 230 229 250
3 230 209 229
3 210 209 230
3 210 189 209
3 190 189 210
3 190 170 189
3 171 170 190
3 171 152 170
3 153 152 171
3 153 135 152
3 84 100 101
3 67 83 84
3 253 254 233
3 275 276 254
3 297 298 276
3 318 319 298
3 320 299 319
3 340 320 319
3 321 300 320
3 341 321 320
3 342 322 321
3 342 323 322
3 343 323 342
3 324 303 323
3 344 324 323
3 325 304 324
3 344 325 324
3 345 325 344
3 326 305 325
3 345 326 325
3 346 326 345
3 327 306 326
3 346 327 326
3 347 327 346
3 328 307 327
3 328 308 307
3 329 308 328
3 329 309 308
3 330 309 329
3 330 310 309
3 331 310 330
3 331 311 310
3 332 311 331
3 290 289 311
3 312 290 311
3 312 291 290
3 313 291 312
3 313 292 291
3 314 292 313
3 271 270 292
3 271 250 270
3 251 250 271
3 251 230 250
3 231 230 251
3 231 210 230
3 211 210 231
3 211 190 210
3 191 190 211
3 191 171 190
3 172 171 191
3 172 153 171
3 275 254 253
3 274 275 253
3 297 276 275
3 296 297 275
3 318 298 297
3 317 318 297
3 338 319 318
3 339 340 319
3 341 320 340
3 361 341 340
3 342 321 341
3 362 342 341
3 363 343 342
3 344 323 343
3 363 344 343
3 364 344 363
3 364 345 344
3 365 345 364
3 365 346 345
3 366 346 365
3 366 347 346
3 367 347 366
3 348 327 347
3 348 328 327
3 349 328 348
3 349 329 328
3 350 329 349
3 350 330 329
3 331 330 350
3 351 331 350
3 352 332 331
3 312 311 332
3 333 312 332
3 333 313 312
3 293 292 314
3 293 271 292
3 272 271 293
3 272 251 271
3 252 251 272
3 252 231 251
3 232 231 252
3 232 211 231
3 212 211 232
3 212 191 211
3 192 191 212
3 192 172 191
3 296 275 274
3 295 296 274
3 317 297 296
3 316 317 296
3 338 318 317
3 337 338 317
3 339 319 338
3 358 339 338
3 360 340 339
3 360 361 340
3 381 361 360
3 362 341 361
3 382 362 361
3 363 342 362
3 383 363 362
3 383 364 363
3 384 364 383
3 384 365 364
3 385 365 384
3 385 366 365
3 386 366 385
3 386 367 366
3 387 367 386
3 348 347 367
3 368 348 367
3 368 349 348
3 369 349 368
3 370 350 349
3 371 351 350
3 352 331 351
3 371 352 351
3 372 352 371
3 353 332 352
3 353 333 332
3 316 296 295
3 337 317 316
3 336 337 316
3 358 338 337
3 357 358 337
3 359 339 358
3 359 360 339
3 379 360 359
3 380 381 360
3 382 361 381
3 401 382 381
3 383 362 382
3 402 383 382
3 403 384 383
3 404 385 384
3 405 386 385
3 406 387 386
3 368 367 387
3 388 368 387
3 388 369 368
3 389 369 388
3 370 349 369
3 390 370 369
3 371 350 370
3 390 371 370
3 391 371 390
3 391 372 371
3 392 372 391
3 353 352 372
3 373 353 372
3 357 337 336
3 356 357 336
3 377 358 357
3 379 359 358
3 378 379 358
3 380 360 379
3 399 380 379
3 401 381 380
3 400 401 380
3 402 382 401
3 421 402 401
3 403 383 402
3 423 403 402
3 404 384 403
3 423 404 403
3 424 404 423
3 405 385 404
3 425 405 404
3 406 386 405
3 425 406 405
3 426 406 425
3 407 387 406
3 407 388 387
3 408 388 407
3 408 389 388
3 409 389 408
3 390 369 389
3 409 390 389
3 410 390 409
3 410 391 390
3 411 391 410
3 411 392 391
3 412 392 411
3 373 372 392
3 393 373 392
3 354 353 373
3 377 357 356
3 376 377 356
3 378 358 377
3 397 378 377
3 398 379 378
3 398 399 379
3 418 399 398
3 400 380 399
3 420 400 399
3 421 401 400
3 420 421 400
3 441 421 420
3 422 402 421
3 422 423 402
3 443 423 422
3 444 424 423
3 425 404 424
3 445 425 424
3 445 426 425
3 446 426 445
3 407 406 426
3 427 407 426
3 427 408 407
3 428 408 427
3 428 409 408
3 429 409 428
3 429 410 409
3 430 410 429
3 430 411 410
3 431 411 430
3 431 412 411
3 432 412 431
3 413 392 412
3 413 393 392
3 374 373 393
3 374 354 373
3 396 377 376
3 396 397 377
3 417 397 396
3 398 378 397
3 418 398 397
3 417 418 397
3 438 418 417
3 419 399 418
3 419 420 399
3 440 420 419
3 440 441 420
3 460 441 440
3 422 421 441
3 442 422 441
3 442 443 422
3 461 443 442
3 444 423 443
3 463 444 443
3 445 424 444
3 463 445 444
3 464 445 463
3 464 446 445
3 465 446 464
3 427 426 446
3 447 427 446
3 447 428 427
3 448 428 447
3 448 429 428
3 449 429 448
3 449 430 429
3 450 430 449
3 450 431 430
3 451 431 450
3 451 432 431
3 452 432 451
3 413 412 432
3 433 413 432
3 394 374 393
3 416 417 396
3 437 438 417
3 439 418 438
3 439 419 418
3 440 419 439
3 459 440 439
3 459 460 440
3 480 460 459
3 461 441 460
3 441 461 442
3 462 443 461
3 462 463 443
3 483 463 462
3 484 464 463
3 485 465 464
3 447 446 465
3 466 447 465
3 466 448 447
3 467 448 466
3 467 449 448
3 468 449 467
3 468 450 449
3 469 450 468
3 469 451 450
3 470 451 469
3 470 452 451
3 471 452 470
3 433 432 452
3 453 433 452
3 414 413 433
3 436 417 416
3 436 437 417
3 455 437 436
3 456 438 437
3 458 439 438
3 458 459 439
3 479 459 458
3 479 480 459
3 499 480 479
3 481 460 480
3 481 461 460
3 482 461 481
3 483 462 461
3 482 483 461
3 503 483 482
3 484 463 483
3 503 484 483
3 504 484 503
3 485 464 484
3 504 485 484
3 505 485 504
3 486 465 485
3 486 466 465
3 487 466 486
3 487 467 466
3 488 467 487
3 488 468 467
3 489 468 488
3 489 469 468
3 490 469 489
3 490 470 469
3 491 470 490
3 491 471 470
3 492 471 491
3 453 452 471
3 472 453 471
3 434 433 453
3 434 414 433
3 456 437 455
3 476 456 455
3 457 438 456
3 457 458 438
3 478 458 457
3 478 479 458
3 499 479 478
3 498 499 478
3 500 480 499
3 500 481 480
3 501 481 500
3 501 482 481
3 502 482 501
3 502 503 482
3 523 503 502
3 524 504 503
3 524 505 504
3 525 505 524
3 486 485 505
3 506 486 505
3 506 487 486
3 507 487 506
3 508 488 487
3 508 489 488
3 509 489 508
3 509 490 489
3 510 490 509
3 510 491 490
3 511 491 510
3 511 492 491
3 512 492 511
3 472 471 492
3 493 472 492
3 454 453 472
3 454 434 453
3 475 476 455
3 477 456 476
3 477 457 456
3 478 457 477
3 498 478 477
3 497 498 477
3 518 499 498
3 520 500 499
3 521 501 500
3 521 502 501
3 522 502 521
3 522 523 502
3 543 523 522
3 524 503 523
3 544 524 523
3 544 525 524
3 545 525 544
3 506 505 525
3 526 506 525
3 526 507 506
3 527 507 526
3 508 487 507
3 527 508 507
3 528 508 527
3 528 509 508
3 529 509 528
3 529 510 509
3 530 510 529
3 530 511 510
3 531 511 530
3 531 512 511
3 532 512 531
3 493 492 512
3 513 493 512
3 473 472 493
3 473 454 472
3 495 476 475
3 496 477 476
3 496 497 477
3 516 497 496
3 518 498 497
3 517 518 497
3 519 499 518
3 519 520 499
3 539 520 519
3 521 500 520
3 541 521 520
3 542 522 521
3 542 543 522
3 561 543 542
3 544 523 543
3 563 544 543
3 563 545 544
3 564 545 563
3 526 525 545
3 546 526 545
3 546 527 526
3 547 527 546
3 547 528 527
3 548 528 547
3 548 529 528
3 549 529 548
3 549 530 529
3 550 530 549
3 550 531 530
3 551 531 550
3 551 532 531
3 552 532 551
3 513 512 532
3 533 513 532
3 494 493 513
3 494 473 493
3 474 473 494
3 496 476 495
3 515 496 495
3 515 516 496
3 535 516 515
3 517 497 516
3 536 517 516
3 537 518 517
3 538 519 518
3 538 539 519
3 557 539 538
3 540 520 539
3 540 541 520
3 559 541 540
3 542 521 541
3 560 542 541
3 560 561 542
3 578 561 560
3 562 543 561
3 562 563 543
3 580 563 562
3 581 564 563
3 546 545 564
3 565 546 564
3 565 547 546
3 566 547 565
3 566 548 547
3 567 548 566
3 567 549 548
3 568 549 567
3 568 550 549
3 569 550 568
3 569 551 550
3 570 551 569
3 570 552 551
3 571 552 570
3 533 532 552
3 553 533 552
3 514 513 533
3 514 494 513
3 536 516 535
3 555 536 535
3 537 517 536
3 555 537 536
3 556 537 555
3 538 518 537
3 556 538 537
3 557 538 556
3 574 557 556
3 558 539 557
3 558 540 539
3 559 540 558
3 577 559 558
3 560 541 559
3 577 560 559
3 578 560 577
3 594 578 577
3 579 561 578
3 579 562 561
3 580 562 579
3 596 580 579
3 581 563 580
3 597 581 580
3 582 564 581
3 582 565 564
3 583 565 582
3 583 566 565
3 584 566 583
3 585 567 566
3 585 568 567
3 586 568 585
3 586 569 568
3 587 569 586
3 587 570 569
3 588 571 570
3 553 552 571
3 534 533 553
3 534 514 533
3 554 555 535
3 573 556 555
3 573 574 556
3 590 574 573
3 575 557 574
3 575 558 557
3 576 558 575
3 576 577 558
3 593 577 576
3 593 594 577
3 610 594 593
3 595 578 594
3 595 579 578
3 596 579 595
3 612 596 595
3 597 580 596
3 613 597 596
3 598 581 597
3 598 582 581
3 599 582 598
3 599 583 582
3 600 583 599
3 601 584 583
3 585 566 584
3 601 585 584
3 602 585 601
3 602 586 585
3 603 586 602
3 603 587 586
3 604 587 603
3 572 555 554
3 572 573 555
3 589 573 572
3 589 590 573
3 606 590 589
3 591 574 590
3 591 575 574
3 592 575 591
3 592 576 575
3 593 576 592
3 609 593 592
3 609 610 593
3 625 610 609
3 611 594 610
3 611 595 594
3 612 595 611
3 627 612 611
3 613 596 612
3 628 613 612
3 614 597 613
3 614 598 597
3 615 598 614
3 615 599 598
3 616 599 615
3 616 600 599
3 617 600 616
3 601 583 600
3 617 601 600
3 618 601 617
3 618 602 601
3 619 602 618
3 619 603 602
3 620 603 619
3 620 604 603
3 621 604 620
3 607 590 606
3 607 591 590
3 608 591 607
3 608 592 591
3 609 592 608
3 624 609 608
3 624 625 609
3 640 625 624
3 626 610 625
3 626 611 610
3 627 611 626
3 642 627 626
3 628 612 627
3 644 628 627
3 629 613 628
3 629 614 613
3 630 614 629
3 630 615 614
3 631 615 630
3 631 616 615
3 632 616 631
3 632 617 616
3 633 617 632
3 633 618 617
3 634 618 633
3 634 619 618
3 635 619 634
3 635 620 619
3 636 620 635
3 636 621 620
3 622 607 606
3 624 608 607
3 623 624 607
3 639 640 624
3 641 625 640
3 641 626 625
3 642 626 641
3 656 642 641
3 643 627 642
3 643 644 627
3 658 644 643
3 629 628 644
3 645 629 644
3 645 630 629
3 646 630 645
3 646 631 630
3 647 631 646
3 647 632 631
3 648 632 647
3 648 633 632
3 649 634 633
3 650 635 634
3 651 636 635
3 623 607 622
3 638 623 622
3 639 624 623
3 638 639 623
3 653 639 638
3 654 640 639
3 655 641 640
3 655 656 641
3 670 656 655
3 657 642 656
3 657 643 642
3 658 643 657
3 672 658 657
3 659 644 658
3 659 645 644
3 660 645 659
3 660 646 645
3 661 646 660
3 661 647 646
3 662 647 661
3 662 648 647
3 663 648 662
3 650 634 649
3 664 650 649
3 651 635 650
3 665 651 650
3 654 639 653
3 668 654 653
3 655 640 654
3 669 655 654
3 669 670 655
3 684 670 669
3 671 656 670
3 671 657 656
3 672 657 671
3 686 672 671
3 673 658 672
3 673 659 658
3 674 659 673
3 674 660 659
3 675 660 674
3 676 661 660
3 676 662 661
3 677 663 662
3 665 650 664
3 679 665 664
3 666 651 665
3 669 654 668
3 684 669 668
3 683 684 668
3 685 670 684
3 685 671 670
3 686 671 685
3 699 686 685
3 687 672 686
3 687 673 672
3 688 673 687
3 688 674 673
3 689 674 688
3 690 675 674
3 676 660 675
3 691 676 675
3 678 663 677
3 680 665 679
3 680 666 665
3 681 666 680
3 697 684 683
3 698 685 684
3 698 699 685
3 712 699 698
3 700 686 699
3 700 687 686
3 701 687 700
3 701 688 687
3 702 688 701
3 702 689 688
3 703 689 702
3 690 674 689
3 703 690 689
3 704 690 703
3 691 675 690
3 704 691 690
3 705 691 704
3 705 676 691
3 694 680 679
3 695 681 680
3 711 697 683
3 698 684 697
3 712 698 697
3 711 712 697
3 726 712 711
3 713 699 712
3 713 700 699
3 714 700 713
3 714 701 700
3 715 701 714
3 715 702 701
3 716 702 715
3 716 703 702
3 717 703 716
3 717 704 703
3 718 704 717
3 718 705 704
3 719 705 718
3 695 680 694
3 708 695 694
3 696 681 695
3 725 726 711
3 727 712 726
3 727 713 712
3 728 713 727
3 728 714 713
3 715 714 728
3 729 715 728
3 729 716 715
3 730 716 729
3 731 717 716
3 731 718 717
3 732 718 731
3 733 719 718
3 706 705 719
3 709 695 708
3 709 696 695
3 710 696 709
3 682 681 696
3 739 726 725
3 740 727 726
3 741 728 727
3 742 729 728
3 743 730 729
3 731 716 730
3 743 731 730
3 744 731 743
3 744 732 731
3 745 732 744
3 733 718 732
3 745 733 732
3 746 733 745
3 720 719 733
3 720 706 719
3 734 706 720
3 692 705 706
3 722 709 708
3 723 710 709
3 667 681 682
3 740 726 739
3 752 740 739
3 741 727 740
3 753 741 740
3 742 728 741
3 754 742 741
3 743 729 742
3 755 743 742
3 755 744 743
3 756 744 755
3 756 745 744
3 757 745 756
3 757 746 745
3 720 733 746
3 721 722 708
3 723 709 722
3 736 723 722
3 724 710 723
3 753 740 752
3 754 741 753
3 755 742 754
3 735 722 721
3 735 736 722
3 748 736 735
3 737 723 736
3 737 724 723
3 738 724 737
3 749 736 748
3 749 737 736
3 750 737 749
3 750 738 737
3 751 738 750
3 761 749 748
3 762 750 749
3 762 751 750
3 763 751 762
3 760 761 748
3 762 749 761
3 0 34 17
3 334 314 313
3 334 313 333
3 354 334 333
3 294 293 314
3 294 272 293
3 273 272 294
3 273 252 272
3 232 252 273
3 336 316 295
3 333 353 354
3 394 393 413
3 414 394 413
3 415 394 414
3 355 354 374
3 375 374 394
3 475 455 436
3 415 414 434
3 435 415 434
3 435 434 454
3 474 435 454
3 454 473 474
3 514 474 494
3 604 570 587
3 588 570 604
3 605 588 604
3 605 604 621
3 637 605 621
3 637 621 636
3 652 637 636
3 649 633 648
3 663 649 648
3 664 649 663
3 678 664 663
3 693 664 678
3 652 636 651
3 666 652 651
3 681 652 666
3 667 652 681
3 637 652 667
3 677 662 676
3 692 677 676
3 693 679 664
3 707 679 693
3 707 694 679
3 708 694 707
3 721 708 707
3 682 696 710
3 746 734 720
3 758 734 746
3 676 705 692
3 758 746 757
3 335 314 334
3 355 334 354
3 335 334 355
3 315 294 314
3 395 394 415
3 375 355 374
3 395 375 394
3 678 677 692
3 315 314 335
3 16 33 50
3 605 571 588
3 725 711 683
3 693 706 734
3 747 735 721
3 759 748 735
3 759 760 748
3 692 693 678
3 706 693 692
3 734 707 693
3 747 721 707
3 15 33 16
3 759 735 747
3 0 17 1
3 232 273 212
3 734 747 707
3 758 747 734
3 758 759 747
