ply
format ascii 1.0
comment PCL generated
element vertex 346
property float x
property float y
property float z
element face 627
property list uchar int vertex_indices
end_header
-0.057639 0.024031 0.18967 
-0.057793 0.021267 0.19143 
-0.054664 0.029683 0.18478 
-0.05539 0.027395 0.1862 
-0.055622 0.024437 0.1878 
-0.055807 0.021083 0.19014 
-0.056196 0.017401 0.19213 
-0.056367 0.013611 0.19383 
-0.056097 0.010582 0.19508 
-0.051159 0.032475 0.18142 
-0.051777 0.030576 0.18268 
-0.052429 0.027719 0.184 
-0.052531 0.024723 0.18553 
-0.052687 0.021425 0.18819 
-0.053276 0.017213 0.19039 
-0.053833 0.01317 0.19235 
-0.054163 0.009451 0.1948 
-0.054091 0.0057081 0.19502 
-0.047825 0.03519 0.17876 
-0.048364 0.03339 0.17961 
-0.048639 0.030865 0.18087 
-0.048968 0.027745 0.18235 
-0.049588 0.024941 0.18494 
-0.050134 0.021061 0.18772 
-0.050771 0.017115 0.18973 
-0.051073 0.012565 0.19201 
-0.051261 0.0088341 0.19365 
-0.051392 0.0037919 0.19402 
-0.051867 -0.00049847 0.19519 
-0.052172 -0.0040312 0.19609 
-0.045787 0.035934 0.17782 
-0.045517 0.033592 0.17872 
-0.045495 0.030777 0.1802 
-0.046072 0.027665 0.18263 
-0.046819 0.024682 0.18502 
-0.047379 0.020961 0.18738 
-0.048046 0.016796 0.18943 
-0.048486 0.012401 0.19136 
-0.048651 0.0069524 0.19205 
-0.048723 0.0023854 0.19237 
-0.048936 -0.0014226 0.19358 
-0.049391 -0.0060425 0.19516 
-0.049627 -0.0087663 0.19968 
-0.052152 -0.0083362 0.20566 
-0.052148 -0.0091122 0.21036 
-0.043297 0.039165 0.17636 
-0.043129 0.036935 0.17746 
-0.04275 0.034435 0.17878 
-0.042626 0.031669 0.18042 
-0.043078 0.027914 0.18277 
-0.043604 0.02467 0.18508 
-0.044253 0.020876 0.18687 
-0.044768 0.016644 0.18849 
-0.045736 0.011623 0.19015 
-0.045914 0.0060804 0.19057 
-0.045909 0.0014536 0.19045 
-0.045558 -0.0025447 0.19123 
-0.044359 -0.0062676 0.19569 
-0.047817 -0.0074407 0.20144 
-0.049456 -0.0079318 0.20658 
-0.049842 -0.0094406 0.21039 
-0.04982 -0.011256 0.21395 
-0.04964 -0.013612 0.21867 
-0.040781 0.040392 0.17642 
-0.040259 0.037832 0.17796 
-0.039793 0.035364 0.17916 
-0.039542 0.032433 0.18098 
-0.039638 0.029089 0.18308 
-0.040094 0.025248 0.18489 
-0.040974 0.020834 0.18662 
-0.041807 0.015879 0.18804 
-0.042759 0.01043 0.19052 
-0.042351 0.0052374 0.18988 
-0.041969 0.00030801 0.19007 
-0.040978 -0.0029971 0.19331 
-0.041559 -0.0050378 0.19806 
-0.044123 -0.0069749 0.20239 
-0.046025 -0.0075514 0.20748 
-0.046206 -0.0090592 0.21139 
-0.046303 -0.011166 0.2143 
-0.046612 -0.014054 0.21851 
-0.047016 -0.018016 0.22272 
-0.046308 -0.021545 0.22539 
-0.038192 0.043825 0.17559 
-0.037897 0.04208 0.17661 
-0.037213 0.039594 0.17808 
-0.036542 0.036423 0.17975 
-0.036587 0.033032 0.18172 
-0.036602 0.029779 0.1838 
-0.037088 0.025812 0.18565 
-0.037632 0.020592 0.18756 
-0.038609 0.014565 0.18874 
-0.039477 0.0087604 0.18971 
-0.038781 0.0038721 0.19021 
-0.037992 0.00051267 0.19249 
-0.03788 -0.0016616 0.19658 
-0.038915 -0.0038428 0.20017 
-0.040753 -0.0060215 0.20394 
-0.042444 -0.0074392 0.20816 
-0.04271 -0.0090761 0.21198 
-0.042695 -0.011911 0.21459 
-0.043384 -0.014289 0.21778 
-0.043188 -0.017582 0.22079 
-0.043625 -0.021687 0.22488 
-0.034497 0.045426 0.17507 
-0.034041 0.043864 0.1766 
-0.03377 0.041244 0.17857 
-0.03346 0.037996 0.17977 
-0.033539 0.034027 0.18209 
-0.033652 0.030314 0.18474 
-0.034309 0.025591 0.18695 
-0.034796 0.020564 0.18889 
-0.03534 0.014833 0.19026 
-0.036687 0.0083441 0.19064 
-0.035606 0.0043456 0.19218 
-0.035 0.0015722 0.1948 
-0.035055 -0.00059573 0.19794 
-0.036027 -0.0027214 0.20199 
-0.037527 -0.0050702 0.20621 
-0.038745 -0.0073501 0.20954 
-0.039438 -0.0092905 0.21301 
-0.039514 -0.011969 0.2155 
-0.039765 -0.014789 0.21777 
-0.039362 -0.017794 0.21998 
-0.039684 -0.020987 0.22374 
-0.039601 -0.024042 0.22611 
-0.030676 0.045925 0.17718 
-0.030615 0.04405 0.17752 
-0.030637 0.041549 0.17897 
-0.030492 0.038473 0.1807 
-0.03051 0.035088 0.1825 
-0.030887 0.030841 0.18506 
-0.031731 0.025239 0.1882 
-0.031938 0.020936 0.18975 
-0.032563 0.015173 0.19156 
-0.033905 0.0091842 0.19164 
-0.032832 0.0061048 0.19404 
-0.032196 0.0029179 0.19653 
-0.032395 0.0011 0.19977 
-0.033321 -0.0014859 0.20341 
-0.034282 -0.0042469 0.20785 
-0.035457 -0.0067877 0.21123 
-0.036016 -0.0093677 0.21418 
-0.036454 -0.011755 0.21661 
-0.036588 -0.01449 0.21881 
-0.0365 -0.017047 0.22126 
-0.03594 -0.0201 0.22333 
-0.036229 -0.023482 0.22647 
-0.027838 0.046429 0.17717 
-0.027624 0.044486 0.17778 
-0.027421 0.041626 0.17923 
-0.027485 0.038681 0.18126 
-0.027544 0.035617 0.18297 
-0.028172 0.031055 0.18574 
-0.028927 0.025306 0.18929 
-0.029235 0.021461 0.19064 
-0.029661 0.016298 0.1928 
-0.030521 0.010564 0.19262 
-0.029626 0.0085069 0.19505 
-0.029093 0.0059366 0.1977 
-0.029123 0.0031942 0.20075 
-0.029707 0.0015016 0.20279 
-0.030997 -0.0038672 0.20977 
-0.031743 -0.0061098 0.21263 
-0.033465 -0.0084974 0.21562 
-0.033324 -0.0108 0.21811 
-0.033222 -0.013465 0.22048 
-0.033198 -0.015981 0.22292 
-0.033054 -0.019162 0.22465 
-0.033417 -0.022392 0.22634 
-0.034789 -0.024414 0.22864 
-0.024408 0.046111 0.1776 
-0.024404 0.044228 0.17848 
-0.02431 0.041396 0.17965 
-0.024455 0.038394 0.18133 
-0.024736 0.035542 0.18357 
-0.025324 0.031546 0.18633 
-0.02592 0.025606 0.19069 
-0.026305 0.021755 0.19261 
-0.026289 0.018323 0.19503 
-0.026721 0.014414 0.19513 
-0.026311 0.011523 0.19676 
-0.026036 0.0081879 0.19909 
-0.025616 0.0050684 0.20209 
-0.025728 0.0023341 0.20578 
-0.027172 -0.0010473 0.21018 
-0.028499 -0.0044322 0.21385 
-0.029393 -0.0074692 0.21723 
-0.029583 -0.010185 0.22033 
-0.029818 -0.013392 0.22208 
-0.030208 -0.016823 0.2247 
-0.030402 -0.019882 0.22605 
-0.030929 -0.022739 0.22758 
-0.031508 -0.026005 0.23078 
-0.021016 0.04498 0.17867 
-0.02103 0.043294 0.18005 
-0.021138 0.040496 0.18132 
-0.021419 0.03771 0.18236 
-0.021996 0.035097 0.18465 
-0.022419 0.03112 0.18785 
-0.022505 0.026069 0.19199 
-0.022273 0.022217 0.19467 
-0.022782 0.019821 0.19684 
-0.022842 0.01755 0.19787 
-0.023061 0.014045 0.19936 
-0.022826 0.010747 0.20097 
-0.022523 0.0068518 0.20392 
-0.022931 0.003173 0.20858 
-0.023916 -3.0255e-05 0.21167 
-0.02449 -0.0031872 0.2149 
-0.025086 -0.0059201 0.21812 
-0.025661 -0.0093382 0.22173 
-0.025979 -0.013191 0.22323 
-0.026535 -0.016775 0.22603 
-0.026928 -0.019558 0.22737 
-0.027273 -0.022835 0.22853 
-0.027613 -0.026423 0.23177 
-0.018374 0.04276 0.18155 
-0.018457 0.040426 0.18332 
-0.018545 0.037604 0.18422 
-0.018602 0.0348 0.18604 
-0.018625 0.031385 0.18894 
-0.018556 0.026909 0.19297 
-0.018492 0.022953 0.19588 
-0.019363 0.020167 0.19733 
-0.019065 0.017748 0.19952 
-0.019409 0.014806 0.20122 
-0.019693 0.011537 0.20299 
-0.019726 0.0076769 0.20637 
-0.020023 0.0039045 0.21021 
-0.020728 0.00071283 0.21348 
-0.021207 -0.0023785 0.21679 
-0.021838 -0.0055932 0.22033 
-0.022505 -0.009069 0.22289 
-0.022824 -0.012713 0.22405 
-0.023241 -0.016669 0.22671 
-0.023265 -0.019597 0.22712 
-0.02364 -0.023004 0.22779 
-0.023812 -0.027059 0.23266 
-0.015338 0.040315 0.18497 
-0.015208 0.037791 0.18604 
-0.015268 0.034645 0.18767 
-0.015571 0.031027 0.19027 
-0.014839 0.027187 0.19367 
-0.015327 0.023771 0.1972 
-0.015898 0.02055 0.19885 
-0.015992 0.017609 0.20121 
-0.016066 0.014862 0.20269 
-0.016328 0.011831 0.20513 
-0.016706 0.0082257 0.20839 
-0.016689 0.0045458 0.21197 
-0.017463 0.0012982 0.21504 
-0.01785 -0.0020589 0.21888 
-0.018321 -0.005504 0.22235 
-0.018918 -0.0092108 0.22429 
-0.019227 -0.012935 0.22512 
-0.019475 -0.016696 0.22666 
-0.019639 -0.020273 0.22739 
-0.020149 -0.023924 0.22946 
-0.020108 -0.027402 0.23445 
-0.012397 0.037604 0.18751 
-0.012157 0.034567 0.18922 
-0.012189 0.031279 0.19152 
-0.011287 0.027502 0.19392 
-0.011809 0.024054 0.19773 
-0.012643 0.021263 0.2 
-0.013037 0.017856 0.20267 
-0.012999 0.014917 0.20508 
-0.013338 0.011758 0.20781 
-0.01357 0.008752 0.21031 
-0.013635 0.0053576 0.2134 
-0.014045 0.0018582 0.21679 
-0.014439 -0.0018507 0.22022 
-0.014807 -0.0054641 0.2233 
-0.015188 -0.0093175 0.22499 
-0.01565 -0.012952 0.22579 
-0.015759 -0.016597 0.22725 
-0.01589 -0.020348 0.22876 
-0.015912 -0.024512 0.23248 
-0.015499 -0.027678 0.23726 
-0.0095554 0.034162 0.19011 
-0.0085607 0.031282 0.19243 
-0.0081882 0.027815 0.19534 
-0.0081675 0.024497 0.19873 
-0.0090434 0.021603 0.20157 
-0.009849 0.018414 0.20413 
-0.010079 0.015365 0.20669 
-0.010249 0.012324 0.20916 
-0.010155 0.0094177 0.21129 
-0.010529 0.0063834 0.21431 
-0.01033 0.0027447 0.2175 
-0.010691 -0.00091902 0.22066 
-0.011393 -0.0045114 0.22304 
-0.011417 -0.0084653 0.22487 
-0.011761 -0.012389 0.22522 
-0.011749 -0.01643 0.22816 
-0.011934 -0.020417 0.23026 
-0.0113 -0.024747 0.23477 
-0.0055198 0.030659 0.19507 
-0.0047989 0.027624 0.19786 
-0.0044753 0.024475 0.20028 
-0.0053165 0.021486 0.20283 
-0.0062344 0.018689 0.20506 
-0.0066892 0.015678 0.20764 
-0.0070305 0.012961 0.21017 
-0.0069923 0.010134 0.21225 
-0.0069917 0.0068799 0.21525 
-0.0066897 0.0033349 0.21807 
-0.0070108 -0.00069144 0.2217 
-0.0074199 -0.0043578 0.22259 
-0.0076047 -0.0081627 0.22482 
-0.0076812 -0.012039 0.2258 
-0.0077958 -0.016071 0.22863 
-0.0085989 -0.020334 0.23079 
-0.0086749 -0.023549 0.2334 
-0.0024977 0.029635 0.19782 
-0.0010026 0.02727 0.19914 
-0.00087165 0.024055 0.20093 
-0.0016773 0.021289 0.20304 
-0.0024399 0.018615 0.20538 
-0.0024397 0.016029 0.20767 
-0.0030453 0.01334 0.21013 
-0.0030454 0.010478 0.21298 
-0.0028287 0.0070988 0.21566 
-0.0027146 0.003688 0.21782 
-0.0032265 -0.00033344 0.2218 
-0.0036374 -0.0040481 0.22275 
-0.0036494 -0.0078802 0.22425 
-0.0044616 -0.011479 0.22551 
0.001829 0.026069 0.1999 
0.0022019 0.023865 0.20113 
0.0015482 0.021232 0.20279 
0.0013191 0.018823 0.20503 
0.0015246 0.016088 0.20745 
0.0014485 0.013418 0.20997 
0.0013776 0.010749 0.21256 
0.0008321 0.0074007 0.21538 
0.00058187 0.0037905 0.21747 
-6.3653e-06 7.1464e-05 0.22049 
-0.0010606 -0.0037424 0.22294 
0.0048223 0.023554 0.20169 
0.0047315 0.021317 0.20271 
0.0046478 0.018722 0.20459 
0.0044842 0.016064 0.20726 
0.0041753 0.013489 0.20986 
0.003992 0.011675 0.21179 
3 14 6 5
3 5 13 14
3 6 1 5
3 14 15 6
3 13 24 14
3 5 4 13
3 1 4 5
3 15 7 6
3 14 25 15
3 24 25 14
3 24 37 25
3 13 23 24
3 4 12 13
3 15 8 7
3 25 16 15
3 37 38 25
3 24 36 37
3 23 36 24
3 23 35 36
3 13 12 23
3 12 22 23
3 4 3 12
3 15 16 8
3 16 17 8
3 25 26 16
3 38 26 25
3 38 27 26
3 37 54 38
3 36 53 37
3 35 52 36
3 23 22 35
3 22 34 35
3 12 21 22
3 3 11 12
3 16 26 17
3 26 27 17
3 27 28 17
3 38 39 27
3 54 55 38
3 37 53 54
3 53 71 54
3 36 52 53
3 52 71 53
3 52 70 71
3 35 51 52
3 34 51 35
3 34 50 51
3 22 21 34
3 21 33 34
3 12 11 21
3 11 10 21
3 3 2 11
3 27 40 28
3 39 40 27
3 39 55 40
3 55 39 38
3 54 72 55
3 71 72 54
3 71 92 72
3 70 91 71
3 52 51 70
3 51 69 70
3 50 69 51
3 50 68 69
3 34 33 50
3 33 49 50
3 21 32 33
3 10 20 21
3 11 2 10
3 40 29 28
3 55 56 40
3 72 73 55
3 92 93 72
3 71 91 92
3 91 112 92
3 70 90 91
3 69 90 70
3 69 89 90
3 68 89 69
3 68 88 89
3 50 49 68
3 49 67 68
3 33 32 49
3 32 48 49
3 21 20 32
3 20 19 32
3 10 9 20
3 40 41 29
3 56 41 40
3 56 57 41
3 55 73 56
3 73 74 56
3 72 93 73
3 93 94 73
3 92 113 93
3 112 113 92
3 112 135 113
3 91 111 112
3 90 111 91
3 90 110 111
3 89 110 90
3 89 109 110
3 88 109 89
3 88 87 109
3 68 67 88
3 67 66 88
3 49 48 67
3 48 66 67
3 48 65 66
3 32 31 48
3 19 31 32
3 19 18 31
3 20 9 19
3 41 42 29
3 57 42 41
3 57 58 42
3 56 74 57
3 74 75 57
3 73 94 74
3 94 95 74
3 93 114 94
3 113 114 93
3 113 135 114
3 135 136 114
3 112 134 135
3 111 133 112
3 110 132 111
3 109 131 110
3 87 108 109
3 88 66 87
3 66 65 87
3 65 86 87
3 48 47 65
3 31 47 48
3 31 30 47
3 18 30 31
3 58 43 42
3 57 75 58
3 75 76 58
3 74 95 75
3 95 96 75
3 94 115 95
3 114 115 94
3 114 137 115
3 136 137 114
3 136 159 137
3 135 157 136
3 134 157 135
3 134 156 157
3 112 133 134
3 133 156 134
3 133 155 156
3 111 132 133
3 132 155 133
3 132 154 155
3 110 131 132
3 131 153 132
3 109 108 131
3 108 130 131
3 87 86 108
3 86 107 108
3 65 64 86
3 47 46 65
3 30 46 47
3 30 45 46
3 58 59 43
3 76 59 58
3 76 77 59
3 75 97 76
3 96 97 75
3 96 118 97
3 95 117 96
3 115 116 95
3 137 116 115
3 137 138 116
3 159 160 137
3 136 158 159
3 157 158 136
3 157 181 158
3 156 180 157
3 155 178 156
3 154 177 155
3 132 153 154
3 153 176 154
3 131 130 153
3 130 152 153
3 108 107 130
3 107 129 130
3 86 85 107
3 64 85 86
3 64 63 85
3 65 46 64
3 46 45 64
3 45 63 64
3 59 60 43
3 77 60 59
3 77 78 60
3 76 98 77
3 97 98 76
3 97 119 98
3 118 119 97
3 118 141 119
3 96 117 118
3 117 140 118
3 95 116 117
3 116 139 117
3 138 139 116
3 138 161 139
3 137 160 138
3 160 161 138
3 160 183 161
3 159 183 160
3 159 182 183
3 158 182 159
3 158 181 182
3 181 204 182
3 157 180 181
3 180 203 181
3 156 179 180
3 178 179 156
3 178 201 179
3 155 177 178
3 177 200 178
3 154 176 177
3 176 199 177
3 153 152 176
3 152 175 176
3 130 129 152
3 129 151 152
3 107 128 129
3 85 106 107
3 63 84 85
3 60 44 43
3 78 61 60
3 77 98 78
3 98 99 78
3 119 99 98
3 119 120 99
3 141 142 119
3 118 140 141
3 140 163 141
3 117 139 140
3 139 162 140
3 161 162 139
3 161 185 162
3 183 184 161
3 182 205 183
3 204 205 182
3 204 226 205
3 181 203 204
3 203 225 204
3 180 179 203
3 179 202 203
3 201 202 179
3 201 223 202
3 178 200 201
3 200 222 201
3 177 199 200
3 199 221 200
3 176 198 199
3 175 198 176
3 175 197 198
3 152 174 175
3 151 174 152
3 151 150 174
3 129 150 151
3 129 128 150
3 128 127 150
3 107 106 128
3 106 105 128
3 85 105 106
3 85 84 105
3 84 104 105
3 63 83 84
3 60 61 44
3 78 79 61
3 99 100 78
3 120 100 99
3 120 121 100
3 119 142 120
3 142 121 120
3 142 143 121
3 141 164 142
3 163 164 141
3 163 187 164
3 140 162 163
3 162 186 163
3 185 186 162
3 185 208 186
3 161 184 185
3 184 208 185
3 184 207 208
3 183 206 184
3 205 206 183
3 205 227 206
3 226 227 205
3 226 247 227
3 204 225 226
3 225 247 226
3 225 246 247
3 203 224 225
3 202 224 203
3 202 223 224
3 223 244 224
3 201 222 223
3 222 243 223
3 200 221 222
3 221 242 222
3 199 220 221
3 198 220 199
3 198 219 220
3 197 219 198
3 197 218 219
3 175 174 197
3 174 196 197
3 150 173 174
3 127 149 150
3 128 105 127
3 105 104 127
3 104 126 127
3 84 83 104
3 79 80 61
3 78 100 79
3 100 101 79
3 121 122 100
3 143 122 121
3 143 144 122
3 142 165 143
3 164 165 142
3 164 187 165
3 187 188 165
3 163 186 187
3 186 209 187
3 208 209 186
3 208 230 209
3 207 229 208
3 184 206 207
3 206 228 207
3 227 228 206
3 227 248 228
3 247 248 227
3 247 267 248
3 246 266 247
3 225 245 246
3 224 245 225
3 224 244 245
3 244 264 245
3 223 243 244
3 243 264 244
3 243 263 264
3 222 242 243
3 242 263 243
3 242 262 263
3 221 241 242
3 220 241 221
3 220 240 241
3 219 240 220
3 219 239 240
3 218 239 219
3 218 217 239
3 197 196 218
3 196 217 218
3 196 195 217
3 174 173 196
3 173 195 196
3 173 172 195
3 150 149 173
3 149 172 173
3 149 171 172
3 127 126 149
3 126 148 149
3 80 62 61
3 79 101 80
3 101 102 80
3 100 122 101
3 122 123 101
3 144 123 122
3 144 145 123
3 143 165 144
3 165 166 144
3 188 166 165
3 188 189 166
3 187 210 188
3 209 210 187
3 209 231 210
3 230 231 209
3 230 251 231
3 208 229 230
3 229 250 230
3 207 228 229
3 228 249 229
3 248 249 228
3 248 268 249
3 267 268 248
3 267 287 268
3 247 266 267
3 266 285 267
3 246 265 266
3 245 265 246
3 245 264 265
3 264 283 265
3 263 283 264
3 263 282 283
3 262 281 263
3 242 261 262
3 241 261 242
3 241 260 261
3 240 260 241
3 240 239 260
3 195 194 217
3 172 194 195
3 172 171 194
3 149 148 171
3 80 81 62
3 102 81 80
3 102 103 81
3 101 123 102
3 123 124 102
3 145 146 123
3 144 166 145
3 166 167 145
3 189 167 166
3 189 190 167
3 188 212 189
3 210 211 188
3 231 232 210
3 251 252 231
3 230 250 251
3 250 270 251
3 229 249 250
3 249 269 250
3 268 269 249
3 268 288 269
3 287 288 268
3 287 304 288
3 267 286 287
3 285 286 267
3 285 302 286
3 266 284 285
3 265 284 266
3 265 283 284
3 283 300 284
3 282 299 283
3 263 281 282
3 281 298 282
3 262 280 281
3 261 280 262
3 261 260 280
3 103 82 81
3 102 124 103
3 124 125 103
3 123 146 124
3 146 147 124
3 145 167 146
3 167 168 146
3 190 168 167
3 190 191 168
3 189 212 190
3 212 213 190
3 188 211 212
3 211 234 212
3 210 232 211
3 232 233 211
3 231 252 232
3 252 253 232
3 251 271 252
3 270 271 251
3 270 290 271
3 250 269 270
3 269 288 270
3 288 289 270
3 304 305 288
3 287 303 304
3 286 303 287
3 286 302 303
3 302 320 303
3 285 284 302
3 284 301 302
3 300 301 284
3 300 318 301
3 283 299 300
3 299 316 300
3 282 298 299
3 298 315 299
3 281 280 298
3 124 147 125
3 146 169 147
3 168 169 146
3 168 191 169
3 191 192 169
3 190 213 191
3 213 214 191
3 212 234 213
3 234 235 213
3 211 233 234
3 233 254 234
3 232 253 233
3 253 254 233
3 253 273 254
3 252 272 253
3 271 272 252
3 271 291 272
3 290 291 271
3 290 307 291
3 270 289 290
3 289 307 290
3 289 306 307
3 288 306 289
3 288 305 306
3 305 323 306
3 304 321 305
3 303 321 304
3 303 320 321
3 320 334 321
3 302 319 320
3 301 319 302
3 301 318 319
3 318 332 319
3 300 317 318
3 316 317 300
3 316 329 317
3 299 315 316
3 147 169 170
3 169 192 170
3 192 193 170
3 191 215 192
3 214 215 191
3 214 237 215
3 213 236 214
3 235 236 213
3 235 256 236
3 234 256 235
3 234 255 256
3 254 255 234
3 254 274 255
3 273 274 254
3 273 293 274
3 253 272 273
3 272 292 273
3 291 292 272
3 291 309 292
3 307 308 291
3 306 324 307
3 323 324 306
3 323 337 324
3 305 322 323
3 321 322 305
3 321 335 322
3 334 335 321
3 334 345 335
3 320 333 334
3 319 333 320
3 319 332 333
3 332 343 333
3 318 331 332
3 317 331 318
3 317 330 331
3 329 330 317
3 329 340 330
3 192 215 193
3 215 216 193
3 237 216 215
3 237 238 216
3 214 236 237
3 236 257 237
3 256 257 236
3 256 276 257
3 255 275 256
3 274 275 255
3 274 294 275
3 293 294 274
3 293 310 294
3 273 292 293
3 292 310 293
3 292 309 310
3 309 327 310
3 291 308 309
3 308 326 309
3 307 325 308
3 324 325 307
3 324 338 325
3 337 338 324
3 323 336 337
3 322 336 323
3 322 335 336
3 335 345 336
3 334 344 345
3 333 344 334
3 333 343 344
3 332 342 343
3 331 342 332
3 331 341 342
3 330 341 331
3 330 340 341
3 237 258 238
3 257 258 237
3 257 277 258
3 276 277 257
3 276 295 277
3 256 275 276
3 275 294 276
3 294 295 276
3 294 312 295
3 310 311 294
3 327 328 310
3 309 326 327
3 326 339 327
3 308 325 326
3 325 339 326
3 325 338 339
3 258 259 238
3 277 278 258
3 295 296 277
3 312 313 295
3 294 311 312
3 311 328 312
3 328 311 310
3 258 278 259
3 278 279 259
3 277 296 278
3 296 297 278
3 295 313 296
3 313 314 296
3 278 297 279
3 296 314 297
3 4 0 3
3 4 1 0
