ply
format ascii 1.0
comment PCL generated
element vertex 346
property float x
property float y
property float z
element face 627
property list uchar int vertex_indices
end_header
-0.057601 0.023721 0.18962 
-0.057758 0.020935 0.19141 
-0.05463 0.029379 0.18471 
-0.055351 0.027095 0.18614 
-0.055588 0.024128 0.18776 
-0.055768 0.020763 0.1901 
-0.056158 0.017024 0.19213 
-0.056285 0.013203 0.19389 
-0.055996 0.010192 0.19526 
-0.051132 0.032216 0.18142 
-0.051743 0.030305 0.18264 
-0.052393 0.027434 0.18395 
-0.052501 0.024432 0.18548 
-0.05266 0.021116 0.18814 
-0.053255 0.016849 0.19037 
-0.053753 0.012734 0.19241 
-0.054064 0.0090097 0.19501 
-0.053768 0.005245 0.19542 
-0.047777 0.034951 0.17876 
-0.04833 0.033146 0.17962 
-0.048609 0.03062 0.18086 
-0.048932 0.027499 0.18231 
-0.049568 0.024675 0.18486 
-0.05015 0.020701 0.18762 
-0.050793 0.01675 0.18967 
-0.051019 0.012093 0.19204 
-0.051091 0.0082791 0.19373 
-0.051016 0.0030718 0.19431 
-0.051346 -0.0012327 0.19561 
-0.051565 -0.0047683 0.19659 
-0.045729 0.035694 0.17781 
-0.045468 0.033354 0.17872 
-0.045466 0.03054 0.1802 
-0.046047 0.027404 0.18258 
-0.046816 0.0244 0.18494 
-0.047418 0.020574 0.18724 
-0.048097 0.01637 0.18931 
-0.048478 0.011883 0.19135 
-0.048397 0.0061092 0.19206 
-0.048311 0.0014823 0.19246 
-0.048448 -0.0023135 0.1938 
-0.048841 -0.0069251 0.19538 
-0.049003 -0.0098479 0.19931 
-0.051592 -0.0095344 0.2048 
-0.051578 -0.010293 0.20943 
-0.043247 0.038927 0.17638 
-0.04307 0.036703 0.17746 
-0.042696 0.034212 0.17878 
-0.042585 0.031448 0.18044 
-0.043054 0.027632 0.18274 
-0.043615 0.024339 0.18501 
-0.044295 0.020445 0.18669 
-0.04483 0.016121 0.18832 
-0.045743 0.010834 0.18981 
-0.045617 0.0050982 0.1903 
-0.045566 0.00039592 0.19022 
-0.045162 -0.003575 0.19103 
-0.043791 -0.0072624 0.1952 
-0.047244 -0.0086446 0.20074 
-0.048906 -0.0091712 0.20564 
-0.049307 -0.010589 0.20944 
-0.049316 -0.012256 0.21304 
-0.049472 -0.013951 0.21828 
-0.040724 0.04016 0.17644 
-0.040205 0.037609 0.17798 
-0.039744 0.035152 0.17919 
-0.039497 0.032221 0.18097 
-0.039606 0.028835 0.18303 
-0.040102 0.024911 0.18484 
-0.041003 0.020345 0.18647 
-0.04186 0.015238 0.18786 
-0.042693 0.0096716 0.19042 
-0.042051 0.0041533 0.18913 
-0.041605 -0.00081168 0.18938 
-0.040492 -0.0040308 0.19272 
-0.041039 -0.0059884 0.19745 
-0.043544 -0.0081517 0.20161 
-0.045484 -0.0087583 0.20656 
-0.045706 -0.010152 0.21047 
-0.045821 -0.012162 0.21343 
-0.046483 -0.014413 0.21821 
-0.046905 -0.018213 0.22257 
-0.046214 -0.021693 0.22533 
-0.038163 0.043593 0.1756 
-0.037873 0.041853 0.17662 
-0.037181 0.039404 0.17811 
-0.036509 0.036224 0.17976 
-0.036547 0.032804 0.18169 
-0.036562 0.029515 0.18373 
-0.03706 0.025431 0.18552 
-0.037634 0.020028 0.18733 
-0.038638 0.013441 0.18802 
-0.03942 0.0076203 0.18897 
-0.038437 0.0027221 0.18936 
-0.037556 -0.00056317 0.19182 
-0.037451 -0.0025665 0.19603 
-0.038427 -0.0047459 0.19956 
-0.040231 -0.0071015 0.20319 
-0.041964 -0.0085995 0.20727 
-0.042249 -0.010159 0.21114 
-0.042471 -0.012522 0.21421 
-0.043245 -0.014674 0.21753 
-0.043063 -0.017793 0.22071 
-0.043529 -0.02182 0.22487 
-0.034519 0.045189 0.17499 
-0.034053 0.043656 0.17654 
-0.033767 0.041078 0.17857 
-0.033444 0.037846 0.1798 
-0.033505 0.033821 0.18207 
-0.033606 0.030037 0.18466 
-0.034263 0.025155 0.18675 
-0.034777 0.019997 0.18859 
-0.035315 0.013673 0.18943 
-0.036558 0.0071896 0.18989 
-0.035247 0.0032809 0.19146 
-0.034631 0.00063259 0.19418 
-0.034691 -0.00143 0.19736 
-0.03556 -0.0035626 0.20137 
-0.037033 -0.00606 0.20551 
-0.038298 -0.0083524 0.20879 
-0.039048 -0.01022 0.21232 
-0.039352 -0.012497 0.21523 
-0.039639 -0.01515 0.21762 
-0.039234 -0.018027 0.21997 
-0.039581 -0.021112 0.22381 
-0.039506 -0.024091 0.2262 
-0.030699 0.045747 0.17713 
-0.030628 0.04388 0.17748 
-0.030639 0.041402 0.17897 
-0.030479 0.038346 0.18071 
-0.030478 0.034951 0.18251 
-0.030849 0.030607 0.18501 
-0.031692 0.024767 0.18799 
-0.031917 0.020392 0.18945 
-0.03257 0.014484 0.19126 
-0.033805 0.0081213 0.19097 
-0.03255 0.0052122 0.1934 
-0.031871 0.0021178 0.19599 
-0.032044 0.00036869 0.19922 
-0.032919 -0.0022749 0.20284 
-0.033891 -0.0051099 0.20723 
-0.035158 -0.0075829 0.21066 
-0.03588 -0.0099027 0.21394 
-0.036335 -0.01218 0.21645 
-0.036499 -0.014782 0.21874 
-0.036412 -0.017226 0.22123 
-0.035835 -0.020192 0.2234 
-0.036146 -0.023508 0.2266 
-0.027869 0.046276 0.17713 
-0.027647 0.044352 0.17776 
-0.02743 0.041516 0.17925 
-0.027472 0.038586 0.18128 
-0.027513 0.035524 0.18297 
-0.028132 0.030847 0.18571 
-0.028912 0.024829 0.1891 
-0.029229 0.020924 0.19038 
-0.029665 0.015682 0.19249 
-0.030452 0.0097179 0.19204 
-0.029433 0.0078043 0.19447 
-0.028797 0.0052485 0.19709 
-0.028772 0.0025148 0.20011 
-0.029357 0.00083493 0.2022 
-0.030819 -0.0044374 0.20946 
-0.031638 -0.0065994 0.21241 
-0.03343 -0.0089122 0.21543 
-0.033258 -0.011102 0.218 
-0.033194 -0.013665 0.22045 
-0.033173 -0.016109 0.2229 
-0.033003 -0.019261 0.22463 
-0.033382 -0.022407 0.22629 
-0.034804 -0.024394 0.22854 
-0.024451 0.046004 0.1776 
-0.024438 0.044141 0.17851 
-0.02433 0.041356 0.17973 
-0.024443 0.038358 0.18138 
-0.024706 0.03548 0.18358 
-0.025288 0.031382 0.18632 
-0.02592 0.02512 0.19055 
-0.026305 0.021226 0.19239 
-0.026318 0.017809 0.19475 
-0.026693 0.013976 0.19481 
-0.02623 0.011108 0.19642 
-0.025889 0.0077644 0.1987 
-0.025385 0.0046462 0.20168 
-0.025471 0.0019039 0.20539 
-0.027003 -0.0014565 0.20985 
-0.028419 -0.004797 0.2136 
-0.029349 -0.0078089 0.21706 
-0.02961 -0.010418 0.22028 
-0.029859 -0.013572 0.22208 
-0.03028 -0.016963 0.22468 
-0.030433 -0.01997 0.22596 
-0.030961 -0.022751 0.22745 
-0.03156 -0.025977 0.2306 
-0.021069 0.044906 0.17879 
-0.021067 0.043231 0.18015 
-0.021156 0.040445 0.1814 
-0.021423 0.037659 0.18242 
-0.021984 0.035031 0.18465 
-0.022405 0.030917 0.18786 
-0.022519 0.025647 0.19195 
-0.022321 0.021729 0.19457 
-0.02286 0.019431 0.19668 
-0.022846 0.017303 0.19767 
-0.022991 0.013785 0.19907 
-0.022694 0.010462 0.20061 
-0.02232 0.0065531 0.2035 
-0.022714 0.002846 0.20822 
-0.023758 -0.00034402 0.21136 
-0.024378 -0.0034827 0.21465 
-0.024965 -0.0061895 0.21783 
-0.025627 -0.0095954 0.22153 
-0.026012 -0.013368 0.22319 
-0.026603 -0.016896 0.22599 
-0.026979 -0.019605 0.22726 
-0.027319 -0.022831 0.22841 
-0.027673 -0.026395 0.23163 
-0.018384 0.042674 0.18162 
-0.018458 0.040325 0.18337 
-0.018537 0.037506 0.18425 
-0.01858 0.034689 0.18603 
-0.018595 0.031258 0.18891 
-0.018498 0.026719 0.19295 
-0.018483 0.022718 0.19581 
-0.019423 0.01994 0.19723 
-0.019091 0.017564 0.19941 
-0.019386 0.014628 0.20102 
-0.019611 0.011341 0.20272 
-0.019591 0.0074513 0.20607 
-0.019891 0.0036832 0.20993 
-0.020632 0.0004915 0.21323 
-0.021132 -0.0026081 0.21658 
-0.021764 -0.0058005 0.22009 
-0.022463 -0.009294 0.22266 
-0.022833 -0.012885 0.22394 
-0.023322 -0.016747 0.22668 
-0.023333 -0.019624 0.22706 
-0.023696 -0.023018 0.22772 
-0.02389 -0.027042 0.23256 
-0.015311 0.040202 0.18498 
-0.015165 0.037683 0.18603 
-0.015218 0.034514 0.18763 
-0.015545 0.030861 0.19022 
-0.014729 0.027055 0.19368 
-0.01531 0.023626 0.19717 
-0.015962 0.020365 0.19874 
-0.016033 0.017448 0.20108 
-0.016062 0.014726 0.20252 
-0.016261 0.01167 0.20491 
-0.016634 0.0080707 0.20818 
-0.016637 0.00443 0.2118 
-0.017434 0.0011738 0.21487 
-0.01781 -0.00221 0.21874 
-0.018308 -0.0056584 0.22219 
-0.018899 -0.0093721 0.22412 
-0.019265 -0.01307 0.22507 
-0.019552 -0.01678 0.22672 
-0.019707 -0.020344 0.22736 
-0.020236 -0.023963 0.22941 
-0.020193 -0.0274 0.23441 
-0.012321 0.037504 0.18746 
-0.012098 0.034429 0.18915 
-0.012139 0.031103 0.19147 
-0.011158 0.027391 0.19402 
-0.011773 0.023954 0.1978 
-0.012709 0.021157 0.19994 
-0.013071 0.017738 0.20254 
-0.012988 0.014796 0.2049 
-0.013282 0.011645 0.2076 
-0.013519 0.008681 0.21015 
-0.013632 0.0053357 0.2133 
-0.014076 0.0018385 0.21674 
-0.014451 -0.0019319 0.22019 
-0.014828 -0.0055534 0.22327 
-0.015203 -0.0094126 0.22493 
-0.015716 -0.013045 0.22582 
-0.015829 -0.016668 0.22733 
-0.015967 -0.020383 0.2288 
-0.016 -0.024528 0.23247 
-0.01557 -0.027661 0.23728 
-0.0094797 0.034024 0.19012 
-0.008454 0.031155 0.19252 
-0.0080518 0.027718 0.19551 
-0.0080849 0.024442 0.19883 
-0.0090553 0.021587 0.20155 
-0.009892 0.018377 0.20401 
-0.010081 0.015277 0.20652 
-0.010223 0.012246 0.209 
-0.010148 0.0094048 0.2112 
-0.010562 0.0064053 0.21428 
-0.010376 0.0027311 0.21754 
-0.01073 -0.00097872 0.22072 
-0.011437 -0.0045405 0.22311 
-0.011455 -0.0084836 0.22496 
-0.011824 -0.012448 0.22531 
-0.01183 -0.016465 0.22823 
-0.01201 -0.020436 0.23034 
-0.011362 -0.024727 0.23485 
-0.0054072 0.030525 0.19523 
-0.0046676 0.027534 0.19797 
-0.004372 0.024457 0.20029 
-0.0052589 0.021512 0.2028 
-0.006228 0.01873 0.20497 
-0.0067071 0.015641 0.20747 
-0.0070384 0.012939 0.21006 
-0.0070084 0.010162 0.21221 
-0.0070469 0.0069221 0.21529 
-0.006728 0.0033147 0.21817 
-0.007046 -0.00076081 0.22177 
-0.0074525 -0.0044124 0.22264 
-0.0076481 -0.008203 0.22489 
-0.0077539 -0.01206 0.22587 
-0.0078652 -0.016095 0.22868 
-0.0086776 -0.020331 0.23087 
-0.0087351 -0.023527 0.23354 
-0.0023772 0.029517 0.19791 
-0.00089604 0.027234 0.19916 
-0.00075632 0.024048 0.20089 
-0.0015742 0.021313 0.20301 
-0.0023774 0.018646 0.20533 
-0.0023986 0.016044 0.20759 
-0.0030391 0.013353 0.21009 
-0.0030556 0.010505 0.21304 
-0.0028472 0.0071031 0.21576 
-0.0027375 0.0036592 0.21793 
-0.0032493 -0.00040697 0.22187 
-0.0036717 -0.004125 0.22277 
-0.0036993 -0.0079534 0.22428 
-0.0045275 -0.011548 0.22558 
0.001934 0.026051 0.19988 
0.0023002 0.023848 0.20111 
0.0016534 0.021251 0.20278 
0.0014022 0.018865 0.20503 
0.001598 0.016137 0.20746 
0.0015048 0.013468 0.21006 
0.0014175 0.010762 0.21266 
0.00085286 0.007396 0.2155 
0.0005876 0.003749 0.21759 
-2.0633e-05 -1.2111e-05 0.22056 
-0.0010746 -0.0038355 0.22296 
0.0049166 0.023554 0.20169 
0.0048227 0.021339 0.20273 
0.0047494 0.018769 0.20465 
0.0045672 0.01612 0.20734 
0.0042341 0.013541 0.21 
0.0040243 0.011702 0.21192 
3 14 6 5
3 5 13 14
3 6 1 5
3 14 15 6
3 13 24 14
3 5 4 13
3 1 4 5
3 15 7 6
3 14 25 15
3 24 25 14
3 24 37 25
3 13 23 24
3 4 12 13
3 15 8 7
3 25 16 15
3 37 38 25
3 24 36 37
3 23 36 24
3 23 35 36
3 13 12 23
3 12 22 23
3 4 3 12
3 15 16 8
3 16 17 8
3 25 26 16
3 38 26 25
3 38 27 26
3 37 54 38
3 36 53 37
3 35 52 36
3 23 22 35
3 22 34 35
3 12 21 22
3 3 11 12
3 16 26 17
3 26 27 17
3 27 28 17
3 38 39 27
3 54 55 38
3 37 53 54
3 53 71 54
3 36 52 53
3 52 71 53
3 52 70 71
3 35 51 52
3 34 51 35
3 34 50 51
3 22 21 34
3 21 33 34
3 12 11 21
3 11 10 21
3 3 2 11
3 27 40 28
3 39 40 27
3 39 55 40
3 55 39 38
3 54 72 55
3 71 72 54
3 71 92 72
3 70 91 71
3 52 51 70
3 51 69 70
3 50 69 51
3 50 68 69
3 34 33 50
3 33 49 50
3 21 32 33
3 10 20 21
3 11 2 10
3 40 29 28
3 55 56 40
3 72 73 55
3 92 93 72
3 71 91 92
3 91 112 92
3 70 90 91
3 69 90 70
3 69 89 90
3 68 89 69
3 68 88 89
3 50 49 68
3 49 67 68
3 33 32 49
3 32 48 49
3 21 20 32
3 20 19 32
3 10 9 20
3 40 41 29
3 56 41 40
3 56 57 41
3 55 73 56
3 73 74 56
3 72 93 73
3 93 94 73
3 92 113 93
3 112 113 92
3 112 135 113
3 91 111 112
3 90 111 91
3 90 110 111
3 89 110 90
3 89 109 110
3 88 109 89
3 88 87 109
3 68 67 88
3 67 66 88
3 49 48 67
3 48 66 67
3 48 65 66
3 32 31 48
3 19 31 32
3 19 18 31
3 20 9 19
3 41 42 29
3 57 42 41
3 57 58 42
3 56 74 57
3 74 75 57
3 73 94 74
3 94 95 74
3 93 114 94
3 113 114 93
3 113 135 114
3 135 136 114
3 112 134 135
3 111 133 112
3 110 132 111
3 109 131 110
3 87 108 109
3 88 66 87
3 66 65 87
3 65 86 87
3 48 47 65
3 31 47 48
3 31 30 47
3 18 30 31
3 58 43 42
3 57 75 58
3 75 76 58
3 74 95 75
3 95 96 75
3 94 115 95
3 114 115 94
3 114 137 115
3 136 137 114
3 136 159 137
3 135 157 136
3 134 157 135
3 134 156 157
3 112 133 134
3 133 156 134
3 133 155 156
3 111 132 133
3 132 155 133
3 132 154 155
3 110 131 132
3 131 153 132
3 109 108 131
3 108 130 131
3 87 86 108
3 86 107 108
3 65 64 86
3 47 46 65
3 30 46 47
3 30 45 46
3 58 59 43
3 76 59 58
3 76 77 59
3 75 97 76
3 96 97 75
3 96 118 97
3 95 117 96
3 115 116 95
3 137 116 115
3 137 138 116
3 159 160 137
3 136 158 159
3 157 158 136
3 157 181 158
3 156 180 157
3 155 178 156
3 154 177 155
3 132 153 154
3 153 176 154
3 131 130 153
3 130 152 153
3 108 107 130
3 107 129 130
3 86 85 107
3 64 85 86
3 64 63 85
3 65 46 64
3 46 45 64
3 45 63 64
3 59 60 43
3 77 60 59
3 77 78 60
3 76 98 77
3 97 98 76
3 97 119 98
3 118 119 97
3 118 141 119
3 96 117 118
3 117 140 118
3 95 116 117
3 116 139 117
3 138 139 116
3 138 161 139
3 137 160 138
3 160 161 138
3 160 183 161
3 159 183 160
3 159 182 183
3 158 182 159
3 158 181 182
3 181 204 182
3 157 180 181
3 180 203 181
3 156 179 180
3 178 179 156
3 178 201 179
3 155 177 178
3 177 200 178
3 154 176 177
3 176 199 177
3 153 152 176
3 152 175 176
3 130 129 152
3 129 151 152
3 107 128 129
3 85 106 107
3 63 84 85
3 60 44 43
3 78 61 60
3 77 98 78
3 98 99 78
3 119 99 98
3 119 120 99
3 141 142 119
3 118 140 141
3 140 163 141
3 117 139 140
3 139 162 140
3 161 162 139
3 161 185 162
3 183 184 161
3 182 205 183
3 204 205 182
3 204 226 205
3 181 203 204
3 203 225 204
3 180 179 203
3 179 202 203
3 201 202 179
3 201 223 202
3 178 200 201
3 200 222 201
3 177 199 200
3 199 221 200
3 176 198 199
3 175 198 176
3 175 197 198
3 152 174 175
3 151 174 152
3 151 150 174
3 129 150 151
3 129 128 150
3 128 127 150
3 107 106 128
3 106 105 128
3 85 105 106
3 85 84 105
3 84 104 105
3 63 83 84
3 60 61 44
3 78 79 61
3 99 100 78
3 120 100 99
3 120 121 100
3 119 142 120
3 142 121 120
3 142 143 121
3 141 164 142
3 163 164 141
3 163 187 164
3 140 162 163
3 162 186 163
3 185 186 162
3 185 208 186
3 161 184 185
3 184 208 185
3 184 207 208
3 183 206 184
3 205 206 183
3 205 227 206
3 226 227 205
3 226 247 227
3 204 225 226
3 225 247 226
3 225 246 247
3 203 224 225
3 202 224 203
3 202 223 224
3 223 244 224
3 201 222 223
3 222 243 223
3 200 221 222
3 221 242 222
3 199 220 221
3 198 220 199
3 198 219 220
3 197 219 198
3 197 218 219
3 175 174 197
3 174 196 197
3 150 173 174
3 127 149 150
3 128 105 127
3 105 104 127
3 104 126 127
3 84 83 104
3 79 80 61
3 78 100 79
3 100 101 79
3 121 122 100
3 143 122 121
3 143 144 122
3 142 165 143
3 164 165 142
3 164 187 165
3 187 188 165
3 163 186 187
3 186 209 187
3 208 209 186
3 208 230 209
3 207 229 208
3 184 206 207
3 206 228 207
3 227 228 206
3 227 248 228
3 247 248 227
3 247 267 248
3 246 266 247
3 225 245 246
3 224 245 225
3 224 244 245
3 244 264 245
3 223 243 244
3 243 264 244
3 243 263 264
3 222 242 243
3 242 263 243
3 242 262 263
3 221 241 242
3 220 241 221
3 220 240 241
3 219 240 220
3 219 239 240
3 218 239 219
3 218 217 239
3 197 196 218
3 196 217 218
3 196 195 217
3 174 173 196
3 173 195 196
3 173 172 195
3 150 149 173
3 149 172 173
3 149 171 172
3 127 126 149
3 126 148 149
3 80 62 61
3 79 101 80
3 101 102 80
3 100 122 101
3 122 123 101
3 144 123 122
3 144 145 123
3 143 165 144
3 165 166 144
3 188 166 165
3 188 189 166
3 187 210 188
3 209 210 187
3 209 231 210
3 230 231 209
3 230 251 231
3 208 229 230
3 229 250 230
3 207 228 229
3 228 249 229
3 248 249 228
3 248 268 249
3 267 268 248
3 267 287 268
3 247 266 267
3 266 285 267
3 246 265 266
3 245 265 246
3 245 264 265
3 264 283 265
3 263 283 264
3 263 282 283
3 262 281 263
3 242 261 262
3 241 261 242
3 241 260 261
3 240 260 241
3 240 239 260
3 195 194 217
3 172 194 195
3 172 171 194
3 149 148 171
3 80 81 62
3 102 81 80
3 102 103 81
3 101 123 102
3 123 124 102
3 145 146 123
3 144 166 145
3 166 167 145
3 189 167 166
3 189 190 167
3 188 212 189
3 210 211 188
3 231 232 210
3 251 252 231
3 230 250 251
3 250 270 251
3 229 249 250
3 249 269 250
3 268 269 249
3 268 288 269
3 287 288 268
3 287 304 288
3 267 286 287
3 285 286 267
3 285 302 286
3 266 284 285
3 265 284 266
3 265 283 284
3 283 300 284
3 282 299 283
3 263 281 282
3 281 298 282
3 262 280 281
3 261 280 262
3 261 260 280
3 103 82 81
3 102 124 103
3 124 125 103
3 123 146 124
3 146 147 124
3 145 167 146
3 167 168 146
3 190 168 167
3 190 191 168
3 189 212 190
3 212 213 190
3 188 211 212
3 211 234 212
3 210 232 211
3 232 233 211
3 231 252 232
3 252 253 232
3 251 271 252
3 270 271 251
3 270 290 271
3 250 269 270
3 269 288 270
3 288 289 270
3 304 305 288
3 287 303 304
3 286 303 287
3 286 302 303
3 302 320 303
3 285 284 302
3 284 301 302
3 300 301 284
3 300 318 301
3 283 299 300
3 299 316 300
3 282 298 299
3 298 315 299
3 281 280 298
3 124 147 125
3 146 169 147
3 168 169 146
3 168 191 169
3 191 192 169
3 190 213 191
3 213 214 191
3 212 234 213
3 234 235 213
3 211 233 234
3 233 254 234
3 232 253 233
3 253 254 233
3 253 273 254
3 252 272 253
3 271 272 252
3 271 291 272
3 290 291 271
3 290 307 291
3 270 289 290
3 289 307 290
3 289 306 307
3 288 306 289
3 288 305 306
3 305 323 306
3 304 321 305
3 303 321 304
3 303 320 321
3 320 334 321
3 302 319 320
3 301 319 302
3 301 318 319
3 318 332 319
3 300 317 318
3 316 317 300
3 316 329 317
3 299 315 316
3 147 169 170
3 169 192 170
3 192 193 170
3 191 215 192
3 214 215 191
3 214 237 215
3 213 236 214
3 235 236 213
3 235 256 236
3 234 256 235
3 234 255 256
3 254 255 234
3 254 274 255
3 273 274 254
3 273 293 274
3 253 272 273
3 272 292 273
3 291 292 272
3 291 309 292
3 307 308 291
3 306 324 307
3 323 324 306
3 323 337 324
3 305 322 323
3 321 322 305
3 321 335 322
3 334 335 321
3 334 345 335
3 320 333 334
3 319 333 320
3 319 332 333
3 332 343 333
3 318 331 332
3 317 331 318
3 317 330 331
3 329 330 317
3 329 340 330
3 192 215 193
3 215 216 193
3 237 216 215
3 237 238 216
3 214 236 237
3 236 257 237
3 256 257 236
3 256 276 257
3 255 275 256
3 274 275 255
3 274 294 275
3 293 294 274
3 293 310 294
3 273 292 293
3 292 310 293
3 292 309 310
3 309 327 310
3 291 308 309
3 308 326 309
3 307 325 308
3 324 325 307
3 324 338 325
3 337 338 324
3 323 336 337
3 322 336 323
3 322 335 336
3 335 345 336
3 334 344 345
3 333 344 334
3 333 343 344
3 332 342 343
3 331 342 332
3 331 341 342
3 330 341 331
3 330 340 341
3 237 258 238
3 257 258 237
3 257 277 258
3 276 277 257
3 276 295 277
3 256 275 276
3 275 294 276
3 294 295 276
3 294 312 295
3 310 311 294
3 327 328 310
3 309 326 327
3 326 339 327
3 308 325 326
3 325 339 326
3 325 338 339
3 258 259 238
3 277 278 258
3 295 296 277
3 312 313 295
3 294 311 312
3 311 328 312
3 328 311 310
3 258 278 259
3 278 279 259
3 277 296 278
3 296 297 278
3 295 313 296
3 313 314 296
3 278 297 279
3 296 314 297
3 4 0 3
3 4 1 0
