ply
format ascii 1.0
comment PCL generated
element vertex 346
property float x
property float y
property float z
element face 627
property list uchar int vertex_indices
end_header
-0.056707 0.019169 0.18871 
-0.05694 0.016137 0.19036 
-0.053896 0.024889 0.18377 
-0.054531 0.022718 0.18542 
-0.054918 0.019562 0.18702 
-0.05509 0.016119 0.18897 
-0.055398 0.012493 0.19093 
-0.055025 0.0087517 0.19306 
-0.054226 0.005339 0.19509 
-0.05131 0.028001 0.18133 
-0.051607 0.025891 0.18186 
-0.051816 0.023178 0.18292 
-0.051944 0.020156 0.18434 
-0.052061 0.016791 0.18657 
-0.052806 0.012389 0.18907 
-0.052744 0.0082194 0.19169 
-0.052363 0.0041937 0.19503 
-0.050754 -7.9857e-05 0.19689 
-0.047965 0.031267 0.17941 
-0.048606 0.029472 0.17991 
-0.048826 0.026795 0.18043 
-0.048808 0.023574 0.18142 
-0.049394 0.020499 0.1835 
-0.049983 0.01621 0.18593 
-0.050647 0.012305 0.18816 
-0.050171 0.0075274 0.19104 
-0.049455 0.0033361 0.19376 
-0.046929 -0.0032231 0.19443 
-0.046592 -0.008575 0.19393 
-0.046834 -0.011866 0.19407 
-0.046155 0.032239 0.1786 
-0.045889 0.030081 0.17915 
-0.045869 0.027058 0.1799 
-0.046357 0.023621 0.18162 
-0.046969 0.020206 0.18345 
-0.047545 0.015933 0.18502 
-0.048166 0.011639 0.18738 
-0.047949 0.0070191 0.19008 
-0.045509 -3.1775e-05 0.19208 
-0.044242 -0.0057171 0.19054 
-0.044258 -0.0097489 0.19055 
-0.044754 -0.013997 0.19196 
-0.045387 -0.016159 0.19402 
-0.04778 -0.014632 0.19882 
-0.04786 -0.013395 0.20418 
-0.044021 0.035609 0.17697 
-0.043725 0.033579 0.17795 
-0.043246 0.031412 0.17899 
-0.04303 0.028413 0.1802 
-0.043576 0.023958 0.18166 
-0.043846 0.020021 0.18307 
-0.044562 0.015585 0.18403 
-0.045173 0.01085 0.18609 
-0.044886 0.0049728 0.1891 
-0.042269 -0.0022394 0.18927 
-0.041774 -0.0070849 0.18702 
-0.041401 -0.010864 0.18672 
-0.039966 -0.014738 0.18997 
-0.043637 -0.015271 0.19483 
-0.045365 -0.014249 0.19963 
-0.045972 -0.013882 0.20427 
-0.046074 -0.014156 0.20859 
-0.046325 -0.014573 0.21426 
-0.041584 0.036994 0.17646 
-0.040837 0.03473 0.17805 
-0.040293 0.032515 0.17916 
-0.03999 0.029801 0.18024 
-0.040083 0.026056 0.18152 
-0.040102 0.020486 0.18248 
-0.04132 0.015335 0.18361 
-0.042833 0.0095918 0.18579 
-0.041706 0.00284 0.18794 
-0.039136 -0.0036547 0.18626 
-0.03833 -0.0083989 0.1851 
-0.036715 -0.011902 0.18719 
-0.036985 -0.01354 0.19165 
-0.039847 -0.015093 0.19637 
-0.041929 -0.014099 0.20103 
-0.04237 -0.014058 0.20535 
-0.04279 -0.014882 0.20915 
-0.044336 -0.016095 0.21526 
-0.045324 -0.020019 0.21955 
-0.045106 -0.023234 0.22258 
-0.039161 0.040597 0.17502 
-0.038791 0.039039 0.17592 
-0.037724 0.03729 0.17753 
-0.03722 0.034157 0.17923 
-0.037117 0.030586 0.18041 
-0.036731 0.026637 0.18163 
-0.03667 0.020641 0.18228 
-0.038174 0.014243 0.18354 
-0.039898 0.0074969 0.18531 
-0.038582 0.00054533 0.1857 
-0.036506 -0.0051011 0.18457 
-0.034734 -0.0084293 0.18555 
-0.033755 -0.010192 0.18935 
-0.034575 -0.011886 0.19349 
-0.03642 -0.013886 0.19751 
-0.038535 -0.014445 0.20167 
-0.039255 -0.014779 0.20631 
-0.040293 -0.016042 0.21049 
-0.041284 -0.017078 0.21461 
-0.041425 -0.019963 0.21806 
-0.042459 -0.023556 0.22237 
-0.035983 0.043489 0.17376 
-0.035101 0.042344 0.17513 
-0.034232 0.040213 0.17741 
-0.033733 0.037053 0.1791 
-0.034017 0.031872 0.18051 
-0.0336 0.027125 0.18204 
-0.033823 0.019804 0.18262 
-0.034944 0.014024 0.18345 
-0.036169 0.0078084 0.18457 
-0.036478 -0.00016899 0.18482 
-0.034047 -0.0044072 0.18485 
-0.032084 -0.0066188 0.18696 
-0.031429 -0.0082553 0.19011 
-0.03201 -0.010366 0.1947 
-0.03331 -0.012804 0.19956 
-0.03513 -0.014612 0.20323 
-0.036281 -0.015529 0.20776 
-0.037391 -0.016778 0.21165 
-0.038195 -0.018486 0.2147 
-0.037947 -0.020787 0.21771 
-0.038504 -0.023203 0.22191 
-0.038903 -0.025658 0.22438 
-0.031648 0.044943 0.17599 
-0.031423 0.043344 0.17628 
-0.030999 0.041033 0.17776 
-0.03054 0.038272 0.17948 
-0.030707 0.033868 0.18102 
-0.030997 0.028081 0.18221 
-0.031543 0.019513 0.18312 
-0.031981 0.014627 0.18356 
-0.032994 0.0083775 0.18458 
-0.034598 0.001007 0.18436 
-0.032089 -0.0014879 0.18558 
-0.030035 -0.0040468 0.1883 
-0.029676 -0.0060071 0.19127 
-0.030065 -0.0087764 0.1952 
-0.030465 -0.011943 0.20083 
-0.032161 -0.014049 0.20504 
-0.033556 -0.015405 0.20936 
-0.034393 -0.017165 0.21278 
-0.034982 -0.019051 0.21563 
-0.035051 -0.020425 0.21868 
-0.03476 -0.022297 0.22166 
-0.035491 -0.02523 0.22493 
-0.028912 0.045932 0.17573 
-0.028436 0.044305 0.17641 
-0.02776 0.041801 0.17775 
-0.027246 0.039072 0.17949 
-0.027427 0.035543 0.1812 
-0.028233 0.02905 0.18259 
-0.029063 0.019801 0.18391 
-0.029268 0.015532 0.18425 
-0.029719 0.010572 0.18502 
-0.03174 0.0043337 0.18439 
-0.030171 0.0030853 0.18546 
-0.028459 0.0010324 0.18739 
-0.027174 -0.0023583 0.19035 
-0.027295 -0.0052636 0.19333 
-0.02789 -0.010786 0.20287 
-0.028795 -0.012727 0.20677 
-0.030998 -0.014686 0.21047 
-0.030961 -0.016962 0.21421 
-0.031665 -0.018899 0.21696 
-0.032095 -0.02011 0.21948 
-0.032349 -0.022369 0.22206 
-0.032832 -0.024328 0.22354 
-0.033938 -0.025396 0.22527 
-0.025373 0.046131 0.17638 
-0.025115 0.044516 0.17709 
-0.024471 0.042093 0.17825 
-0.024073 0.039186 0.1794 
-0.024673 0.035747 0.18139 
-0.02552 0.029753 0.18324 
-0.026209 0.020297 0.18518 
-0.026213 0.016449 0.18599 
-0.025861 0.013896 0.18694 
-0.027617 0.010741 0.18618 
-0.027181 0.0083776 0.1871 
-0.026206 0.0049566 0.18868 
-0.024627 0.0015253 0.19126 
-0.023498 -0.0024557 0.19552 
-0.025143 -0.0073126 0.20178 
-0.026479 -0.010748 0.20704 
-0.027234 -0.014265 0.21227 
-0.028059 -0.01766 0.21602 
-0.029047 -0.019774 0.21827 
-0.030299 -0.021665 0.22126 
-0.030588 -0.023135 0.22256 
-0.030913 -0.024223 0.22424 
-0.031293 -0.02571 0.22736 
-0.021762 0.044463 0.17811 
-0.0215 0.042873 0.17902 
-0.02149 0.040222 0.17986 
-0.021788 0.037651 0.18048 
-0.022509 0.034839 0.18203 
-0.022733 0.029286 0.18507 
-0.022614 0.021922 0.18736 
-0.022178 0.018196 0.18861 
-0.022484 0.016547 0.18927 
-0.021739 0.01566 0.18989 
-0.021931 0.012395 0.19034 
-0.021883 0.0090646 0.19122 
-0.021091 0.0044034 0.19365 
-0.019971 -0.0016538 0.19936 
-0.021866 -0.0062776 0.20374 
-0.023061 -0.0092753 0.20804 
-0.023655 -0.012241 0.21211 
-0.025052 -0.015401 0.2175 
-0.025633 -0.018889 0.21941 
-0.026654 -0.021098 0.22193 
-0.027183 -0.022152 0.22311 
-0.027515 -0.0237 0.22458 
-0.027797 -0.025928 0.22806 
-0.018672 0.041686 0.18051 
-0.018959 0.039271 0.18178 
-0.019208 0.036478 0.18239 
-0.019396 0.033725 0.184 
-0.018928 0.030424 0.18717 
-0.017608 0.024915 0.19033 
-0.01711 0.020365 0.1905 
-0.018723 0.017708 0.19097 
-0.018049 0.015287 0.1927 
-0.018172 0.012651 0.19336 
-0.018203 0.0094014 0.19405 
-0.017837 0.0045989 0.19733 
-0.017668 -0.00063574 0.20182 
-0.018747 -0.0047174 0.20563 
-0.019944 -0.0083236 0.21025 
-0.020744 -0.01133 0.21459 
-0.022179 -0.014098 0.21859 
-0.023301 -0.0171 0.22041 
-0.023923 -0.020058 0.22249 
-0.024011 -0.021495 0.2228 
-0.024301 -0.023681 0.22407 
-0.024563 -0.02624 0.22904 
-0.015829 0.038603 0.18346 
-0.015693 0.036269 0.18447 
-0.015698 0.033297 0.18625 
-0.015613 0.029703 0.18861 
-0.012686 0.025586 0.19186 
-0.013614 0.021138 0.19298 
-0.015379 0.017422 0.19312 
-0.015285 0.014709 0.19481 
-0.015113 0.012468 0.19546 
-0.014891 0.0092761 0.19704 
-0.015109 0.0049244 0.20103 
-0.015141 0.0004073 0.2046 
-0.016114 -0.0033707 0.2075 
-0.01692 -0.0076714 0.21266 
-0.017625 -0.010825 0.21739 
-0.018824 -0.013487 0.22013 
-0.020208 -0.016571 0.22173 
-0.020499 -0.019314 0.22308 
-0.020821 -0.021291 0.2234 
-0.021399 -0.023952 0.22618 
-0.021269 -0.026371 0.23149 
-0.012637 0.035887 0.18611 
-0.012401 0.033052 0.18784 
-0.011736 0.029794 0.18989 
-0.0088525 0.026086 0.19321 
-0.0099595 0.021779 0.19509 
-0.012128 0.018631 0.19513 
-0.012474 0.014974 0.19674 
-0.011802 0.011868 0.19859 
-0.011606 0.0085208 0.20101 
-0.012028 0.0055927 0.20377 
-0.012586 0.0020121 0.20663 
-0.013381 -0.0019304 0.21028 
-0.013719 -0.007085 0.21491 
-0.014446 -0.010219 0.21889 
-0.015423 -0.01296 0.22134 
-0.017034 -0.01555 0.2225 
-0.01734 -0.018255 0.22363 
-0.017504 -0.021021 0.22508 
-0.017466 -0.024218 0.22961 
-0.017171 -0.02725 0.23482 
-0.0091957 0.032553 0.18939 
-0.007123 0.030082 0.19226 
-0.0057787 0.026442 0.19587 
-0.0058955 0.022601 0.198 
-0.0080972 0.019573 0.19806 
-0.0096975 0.015859 0.19889 
-0.0092478 0.012179 0.20076 
-0.0089665 0.0089515 0.20293 
-0.0091186 0.0064127 0.20494 
-0.010071 0.0036279 0.20808 
-0.010119 -0.0007079 0.21256 
-0.010294 -0.0050742 0.21658 
-0.011116 -0.008073 0.21939 
-0.011333 -0.011185 0.22215 
-0.01329 -0.013952 0.22286 
-0.013972 -0.017037 0.2252 
-0.013966 -0.020676 0.22759 
-0.013115 -0.024562 0.23312 
-0.0038016 0.029431 0.1961 
-0.0021551 0.026188 0.19864 
-0.0014673 0.023 0.19984 
-0.0027794 0.019847 0.20076 
-0.0052896 0.016904 0.20093 
-0.0064817 0.012998 0.20216 
-0.0063527 0.0097229 0.20419 
-0.0065008 0.0073634 0.20629 
-0.0071841 0.0044747 0.2102 
-0.0066792 -1.9746e-05 0.21442 
-0.0071048 -0.004059 0.2188 
-0.0073944 -0.0070176 0.22033 
-0.0079444 -0.0099806 0.22333 
-0.0085809 -0.012934 0.22487 
-0.0099696 -0.01573 0.22689 
-0.010905 -0.019979 0.22893 
-0.010597 -0.023279 0.23242 
4.736e-06 0.028075 0.1987 
0.0019947 0.025659 0.1991 
0.0025038 0.02235 0.19992 
0.001467 0.019524 0.20113 
0.00024567 0.016945 0.20277 
-0.00077089 0.014558 0.20431 
-0.002605 0.011026 0.20574 
-0.0030727 0.0078472 0.20895 
-0.0031571 0.0044583 0.21243 
-0.0028514 0.00074519 0.21565 
-0.0035994 -0.0031168 0.21979 
-0.003862 -0.0063139 0.22138 
-0.0042514 -0.0094816 0.2238 
-0.0053317 -0.01245 0.22566 
0.0048944 0.024224 0.199 
0.0053348 0.021827 0.19957 
0.0046315 0.01934 0.20066 
0.0041644 0.017091 0.20263 
0.0038467 0.014907 0.20526 
0.0027684 0.011888 0.20787 
0.0019702 0.0080621 0.20987 
0.00086254 0.00468 0.21326 
0.0003705 0.0011771 0.21624 
-0.00024246 -0.0024572 0.21945 
-0.001471 -0.0057969 0.22214 
0.0078464 0.02143 0.20006 
0.0076337 0.019361 0.20095 
0.0074455 0.017074 0.20286 
0.0068107 0.014821 0.20573 
0.0054993 0.012346 0.20843 
0.0048072 0.0098288 0.20948 
3 14 6 5
3 5 13 14
3 6 1 5
3 14 15 6
3 13 24 14
3 5 4 13
3 1 4 5
3 15 7 6
3 14 25 15
3 24 25 14
3 24 37 25
3 13 23 24
3 4 12 13
3 15 8 7
3 25 16 15
3 37 38 25
3 24 36 37
3 23 36 24
3 23 35 36
3 13 12 23
3 12 22 23
3 4 3 12
3 15 16 8
3 16 17 8
3 25 26 16
3 38 26 25
3 38 27 26
3 37 54 38
3 36 53 37
3 35 52 36
3 23 22 35
3 22 34 35
3 12 21 22
3 3 11 12
3 16 26 17
3 26 27 17
3 27 28 17
3 38 39 27
3 54 55 38
3 37 53 54
3 53 71 54
3 36 52 53
3 52 71 53
3 52 70 71
3 35 51 52
3 34 51 35
3 34 50 51
3 22 21 34
3 21 33 34
3 12 11 21
3 11 10 21
3 3 2 11
3 27 40 28
3 39 40 27
3 39 55 40
3 55 39 38
3 54 72 55
3 71 72 54
3 71 92 72
3 70 91 71
3 52 51 70
3 51 69 70
3 50 69 51
3 50 68 69
3 34 33 50
3 33 49 50
3 21 32 33
3 10 20 21
3 11 2 10
3 40 29 28
3 55 56 40
3 72 73 55
3 92 93 72
3 71 91 92
3 91 112 92
3 70 90 91
3 69 90 70
3 69 89 90
3 68 89 69
3 68 88 89
3 50 49 68
3 49 67 68
3 33 32 49
3 32 48 49
3 21 20 32
3 20 19 32
3 10 9 20
3 40 41 29
3 56 41 40
3 56 57 41
3 55 73 56
3 73 74 56
3 72 93 73
3 93 94 73
3 92 113 93
3 112 113 92
3 112 135 113
3 91 111 112
3 90 111 91
3 90 110 111
3 89 110 90
3 89 109 110
3 88 109 89
3 88 87 109
3 68 67 88
3 67 66 88
3 49 48 67
3 48 66 67
3 48 65 66
3 32 31 48
3 19 31 32
3 19 18 31
3 20 9 19
3 41 42 29
3 57 42 41
3 57 58 42
3 56 74 57
3 74 75 57
3 73 94 74
3 94 95 74
3 93 114 94
3 113 114 93
3 113 135 114
3 135 136 114
3 112 134 135
3 111 133 112
3 110 132 111
3 109 131 110
3 87 108 109
3 88 66 87
3 66 65 87
3 65 86 87
3 48 47 65
3 31 47 48
3 31 30 47
3 18 30 31
3 58 43 42
3 57 75 58
3 75 76 58
3 74 95 75
3 95 96 75
3 94 115 95
3 114 115 94
3 114 137 115
3 136 137 114
3 136 159 137
3 135 157 136
3 134 157 135
3 134 156 157
3 112 133 134
3 133 156 134
3 133 155 156
3 111 132 133
3 132 155 133
3 132 154 155
3 110 131 132
3 131 153 132
3 109 108 131
3 108 130 131
3 87 86 108
3 86 107 108
3 65 64 86
3 47 46 65
3 30 46 47
3 30 45 46
3 58 59 43
3 76 59 58
3 76 77 59
3 75 97 76
3 96 97 75
3 96 118 97
3 95 117 96
3 115 116 95
3 137 116 115
3 137 138 116
3 159 160 137
3 136 158 159
3 157 158 136
3 157 181 158
3 156 180 157
3 155 178 156
3 154 177 155
3 132 153 154
3 153 176 154
3 131 130 153
3 130 152 153
3 108 107 130
3 107 129 130
3 86 85 107
3 64 85 86
3 64 63 85
3 65 46 64
3 46 45 64
3 45 63 64
3 59 60 43
3 77 60 59
3 77 78 60
3 76 98 77
3 97 98 76
3 97 119 98
3 118 119 97
3 118 141 119
3 96 117 118
3 117 140 118
3 95 116 117
3 116 139 117
3 138 139 116
3 138 161 139
3 137 160 138
3 160 161 138
3 160 183 161
3 159 183 160
3 159 182 183
3 158 182 159
3 158 181 182
3 181 204 182
3 157 180 181
3 180 203 181
3 156 179 180
3 178 179 156
3 178 201 179
3 155 177 178
3 177 200 178
3 154 176 177
3 176 199 177
3 153 152 176
3 152 175 176
3 130 129 152
3 129 151 152
3 107 128 129
3 85 106 107
3 63 84 85
3 60 44 43
3 78 61 60
3 77 98 78
3 98 99 78
3 119 99 98
3 119 120 99
3 141 142 119
3 118 140 141
3 140 163 141
3 117 139 140
3 139 162 140
3 161 162 139
3 161 185 162
3 183 184 161
3 182 205 183
3 204 205 182
3 204 226 205
3 181 203 204
3 203 225 204
3 180 179 203
3 179 202 203
3 201 202 179
3 201 223 202
3 178 200 201
3 200 222 201
3 177 199 200
3 199 221 200
3 176 198 199
3 175 198 176
3 175 197 198
3 152 174 175
3 151 174 152
3 151 150 174
3 129 150 151
3 129 128 150
3 128 127 150
3 107 106 128
3 106 105 128
3 85 105 106
3 85 84 105
3 84 104 105
3 63 83 84
3 60 61 44
3 78 79 61
3 99 100 78
3 120 100 99
3 120 121 100
3 119 142 120
3 142 121 120
3 142 143 121
3 141 164 142
3 163 164 141
3 163 187 164
3 140 162 163
3 162 186 163
3 185 186 162
3 185 208 186
3 161 184 185
3 184 208 185
3 184 207 208
3 183 206 184
3 205 206 183
3 205 227 206
3 226 227 205
3 226 247 227
3 204 225 226
3 225 247 226
3 225 246 247
3 203 224 225
3 202 224 203
3 202 223 224
3 223 244 224
3 201 222 223
3 222 243 223
3 200 221 222
3 221 242 222
3 199 220 221
3 198 220 199
3 198 219 220
3 197 219 198
3 197 218 219
3 175 174 197
3 174 196 197
3 150 173 174
3 127 149 150
3 128 105 127
3 105 104 127
3 104 126 127
3 84 83 104
3 79 80 61
3 78 100 79
3 100 101 79
3 121 122 100
3 143 122 121
3 143 144 122
3 142 165 143
3 164 165 142
3 164 187 165
3 187 188 165
3 163 186 187
3 186 209 187
3 208 209 186
3 208 230 209
3 207 229 208
3 184 206 207
3 206 228 207
3 227 228 206
3 227 248 228
3 247 248 227
3 247 267 248
3 246 266 247
3 225 245 246
3 224 245 225
3 224 244 245
3 244 264 245
3 223 243 244
3 243 264 244
3 243 263 264
3 222 242 243
3 242 263 243
3 242 262 263
3 221 241 242
3 220 241 221
3 220 240 241
3 219 240 220
3 219 239 240
3 218 239 219
3 218 217 239
3 197 196 218
3 196 217 218
3 196 195 217
3 174 173 196
3 173 195 196
3 173 172 195
3 150 149 173
3 149 172 173
3 149 171 172
3 127 126 149
3 126 148 149
3 80 62 61
3 79 101 80
3 101 102 80
3 100 122 101
3 122 123 101
3 144 123 122
3 144 145 123
3 143 165 144
3 165 166 144
3 188 166 165
3 188 189 166
3 187 210 188
3 209 210 187
3 209 231 210
3 230 231 209
3 230 251 231
3 208 229 230
3 229 250 230
3 207 228 229
3 228 249 229
3 248 249 228
3 248 268 249
3 267 268 248
3 267 287 268
3 247 266 267
3 266 285 267
3 246 265 266
3 245 265 246
3 245 264 265
3 264 283 265
3 263 283 264
3 263 282 283
3 262 281 263
3 242 261 262
3 241 261 242
3 241 260 261
3 240 260 241
3 240 239 260
3 195 194 217
3 172 194 195
3 172 171 194
3 149 148 171
3 80 81 62
3 102 81 80
3 102 103 81
3 101 123 102
3 123 124 102
3 145 146 123
3 144 166 145
3 166 167 145
3 189 167 166
3 189 190 167
3 188 212 189
3 210 211 188
3 231 232 210
3 251 252 231
3 230 250 251
3 250 270 251
3 229 249 250
3 249 269 250
3 268 269 249
3 268 288 269
3 287 288 268
3 287 304 288
3 267 286 287
3 285 286 267
3 285 302 286
3 266 284 285
3 265 284 266
3 265 283 284
3 283 300 284
3 282 299 283
3 263 281 282
3 281 298 282
3 262 280 281
3 261 280 262
3 261 260 280
3 103 82 81
3 102 124 103
3 124 125 103
3 123 146 124
3 146 147 124
3 145 167 146
3 167 168 146
3 190 168 167
3 190 191 168
3 189 212 190
3 212 213 190
3 188 211 212
3 211 234 212
3 210 232 211
3 232 233 211
3 231 252 232
3 252 253 232
3 251 271 252
3 270 271 251
3 270 290 271
3 250 269 270
3 269 288 270
3 288 289 270
3 304 305 288
3 287 303 304
3 286 303 287
3 286 302 303
3 302 320 303
3 285 284 302
3 284 301 302
3 300 301 284
3 300 318 301
3 283 299 300
3 299 316 300
3 282 298 299
3 298 315 299
3 281 280 298
3 124 147 125
3 146 169 147
3 168 169 146
3 168 191 169
3 191 192 169
3 190 213 191
3 213 214 191
3 212 234 213
3 234 235 213
3 211 233 234
3 233 254 234
3 232 253 233
3 253 254 233
3 253 273 254
3 252 272 253
3 271 272 252
3 271 291 272
3 290 291 271
3 290 307 291
3 270 289 290
3 289 307 290
3 289 306 307
3 288 306 289
3 288 305 306
3 305 323 306
3 304 321 305
3 303 321 304
3 303 320 321
3 320 334 321
3 302 319 320
3 301 319 302
3 301 318 319
3 318 332 319
3 300 317 318
3 316 317 300
3 316 329 317
3 299 315 316
3 147 169 170
3 169 192 170
3 192 193 170
3 191 215 192
3 214 215 191
3 214 237 215
3 213 236 214
3 235 236 213
3 235 256 236
3 234 256 235
3 234 255 256
3 254 255 234
3 254 274 255
3 273 274 254
3 273 293 274
3 253 272 273
3 272 292 273
3 291 292 272
3 291 309 292
3 307 308 291
3 306 324 307
3 323 324 306
3 323 337 324
3 305 322 323
3 321 322 305
3 321 335 322
3 334 335 321
3 334 345 335
3 320 333 334
3 319 333 320
3 319 332 333
3 332 343 333
3 318 331 332
3 317 331 318
3 317 330 331
3 329 330 317
3 329 340 330
3 192 215 193
3 215 216 193
3 237 216 215
3 237 238 216
3 214 236 237
3 236 257 237
3 256 257 236
3 256 276 257
3 255 275 256
3 274 275 255
3 274 294 275
3 293 294 274
3 293 310 294
3 273 292 293
3 292 310 293
3 292 309 310
3 309 327 310
3 291 308 309
3 308 326 309
3 307 325 308
3 324 325 307
3 324 338 325
3 337 338 324
3 323 336 337
3 322 336 323
3 322 335 336
3 335 345 336
3 334 344 345
3 333 344 334
3 333 343 344
3 332 342 343
3 331 342 332
3 331 341 342
3 330 341 331
3 330 340 341
3 237 258 238
3 257 258 237
3 257 277 258
3 276 277 257
3 276 295 277
3 256 275 276
3 275 294 276
3 294 295 276
3 294 312 295
3 310 311 294
3 327 328 310
3 309 326 327
3 326 339 327
3 308 325 326
3 325 339 326
3 325 338 339
3 258 259 238
3 277 278 258
3 295 296 277
3 312 313 295
3 294 311 312
3 311 328 312
3 328 311 310
3 258 278 259
3 278 279 259
3 277 296 278
3 296 297 278
3 295 313 296
3 313 314 296
3 278 297 279
3 296 314 297
3 4 0 3
3 4 1 0
