ply
format ascii 1.0
comment PCL generated
element vertex 346
property float x
property float y
property float z
element face 627
property list uchar int vertex_indices
end_header
-0.057318 0.01987 0.19102 
-0.05766 0.017027 0.19257 
-0.054664 0.025215 0.1862 
-0.055217 0.023189 0.18783 
-0.055533 0.020183 0.18942 
-0.055774 0.016989 0.19121 
-0.056348 0.013566 0.19306 
-0.056214 0.01011 0.19511 
-0.055831 0.0067557 0.19676 
-0.052374 0.028203 0.18377 
-0.052542 0.026194 0.18431 
-0.05256 0.023657 0.18547 
-0.052533 0.020764 0.18695 
-0.05272 0.017566 0.18893 
-0.053791 0.013369 0.1912 
-0.05402 0.0094291 0.19377 
-0.054179 0.0054312 0.19651 
-0.053664 0.0014245 0.19856 
-0.049284 0.031214 0.18155 
-0.049847 0.029661 0.18221 
-0.049965 0.027052 0.18281 
-0.049719 0.023977 0.18397 
-0.050168 0.021107 0.18603 
-0.05081 0.017006 0.18829 
-0.051627 0.01321 0.1903 
-0.051553 0.0087272 0.1929 
-0.051698 0.0047901 0.19586 
-0.050697 -0.0014453 0.19565 
-0.050637 -0.006634 0.19495 
-0.05078 -0.0098651 0.19526 
-0.047685 0.031992 0.18062 
-0.047351 0.030062 0.18117 
-0.047117 0.027283 0.18209 
-0.047411 0.024082 0.18397 
-0.04793 0.020785 0.18572 
-0.048439 0.016761 0.18738 
-0.049085 0.012507 0.18962 
-0.049448 0.0080576 0.19194 
-0.048808 0.0015748 0.19347 
-0.04826 -0.0037527 0.1914 
-0.048311 -0.0077707 0.19143 
-0.048673 -0.011988 0.19318 
-0.048975 -0.013914 0.19567 
-0.051143 -0.01246 0.2007 
-0.051046 -0.011574 0.20655 
-0.045859 0.035253 0.17884 
-0.045396 0.033253 0.17963 
-0.044824 0.031212 0.1806 
-0.04445 0.02841 0.18191 
-0.044761 0.024423 0.18369 
-0.044927 0.02054 0.18503 
-0.045513 0.016362 0.18626 
-0.046236 0.011753 0.18826 
-0.047066 0.0063904 0.19137 
-0.046112 -0.00024438 0.19024 
-0.045613 -0.0049644 0.18783 
-0.045262 -0.0087621 0.18771 
-0.043668 -0.012361 0.19214 
-0.047191 -0.012838 0.19676 
-0.048609 -0.011891 0.20179 
-0.049073 -0.011842 0.20674 
-0.049073 -0.012602 0.21104 
-0.048523 -0.013684 0.21609 
-0.043423 0.036613 0.17798 
-0.042505 0.034344 0.17935 
-0.041862 0.032272 0.18042 
-0.041483 0.029763 0.18158 
-0.041457 0.026315 0.18312 
-0.041569 0.020921 0.18434 
-0.042711 0.01604 0.18565 
-0.044455 0.010562 0.18765 
-0.044347 0.004021 0.18854 
-0.042859 -0.0018447 0.18747 
-0.041973 -0.0064567 0.18677 
-0.04046 -0.0096387 0.18988 
-0.040776 -0.01067 0.19443 
-0.043321 -0.012041 0.19897 
-0.045117 -0.011335 0.20362 
-0.045461 -0.011728 0.20799 
-0.045785 -0.013099 0.21163 
-0.046647 -0.015455 0.217 
-0.047321 -0.020966 0.22021 
-0.046656 -0.024852 0.22229 
-0.040832 0.040933 0.17613 
-0.040464 0.039218 0.17695 
-0.039214 0.037454 0.17833 
-0.038697 0.034077 0.1802 
-0.038611 0.030697 0.18158 
-0.038155 0.026995 0.18315 
-0.038466 0.021212 0.1842 
-0.040074 0.014992 0.18546 
-0.042395 0.0086385 0.18769 
-0.04201 0.0022159 0.18751 
-0.040148 -0.0033672 0.18649 
-0.038408 -0.0064984 0.18834 
-0.037873 -0.007497 0.19246 
-0.038759 -0.0086722 0.19627 
-0.04033 -0.010424 0.20035 
-0.041936 -0.011234 0.20447 
-0.0424 -0.012218 0.20907 
-0.042603 -0.014241 0.21213 
-0.04357 -0.016109 0.21607 
-0.04365 -0.019929 0.21924 
-0.044057 -0.024717 0.22222 
-0.037163 0.044207 0.17418 
-0.03618 0.043097 0.17557 
-0.035263 0.040951 0.17781 
-0.034737 0.037383 0.17972 
-0.035332 0.031863 0.18153 
-0.034978 0.027391 0.1834 
-0.03571 0.020373 0.18442 
-0.036905 0.014622 0.18526 
-0.038725 0.0087731 0.18676 
-0.040137 0.0012656 0.18667 
-0.037807 -0.0027068 0.18721 
-0.036074 -0.0044202 0.18997 
-0.035791 -0.0054462 0.19322 
-0.036439 -0.0069363 0.19766 
-0.037373 -0.0089979 0.20269 
-0.038644 -0.011234 0.20621 
-0.039429 -0.01289 0.21032 
-0.039682 -0.015289 0.21304 
-0.040381 -0.01762 0.21599 
-0.039959 -0.020419 0.21866 
-0.040258 -0.023806 0.22208 
-0.040361 -0.026794 0.22381 
-0.03256 0.045642 0.17642 
-0.032364 0.044062 0.17673 
-0.03191 0.041774 0.17819 
-0.031398 0.038894 0.18009 
-0.031776 0.03369 0.18203 
-0.032446 0.028189 0.18353 
-0.033548 0.020011 0.18484 
-0.034041 0.01517 0.18535 
-0.035333 0.0090712 0.18576 
-0.038349 0.0024417 0.18646 
-0.036117 0.0002187 0.18787 
-0.034391 -0.0016924 0.19119 
-0.034161 -0.0031475 0.19432 
-0.034602 -0.0055506 0.19831 
-0.034582 -0.0082765 0.20393 
-0.035675 -0.01082 0.20793 
-0.036092 -0.01362 0.21075 
-0.036592 -0.016005 0.21431 
-0.036945 -0.018401 0.21692 
-0.036909 -0.020252 0.21952 
-0.03644 -0.022654 0.22199 
-0.036779 -0.025839 0.22454 
-0.029787 0.046686 0.17612 
-0.029288 0.045131 0.17685 
-0.028536 0.042661 0.1783 
-0.027986 0.040024 0.18025 
-0.028315 0.035953 0.18212 
-0.029593 0.029164 0.18396 
-0.031221 0.020206 0.18566 
-0.031504 0.016001 0.18609 
-0.032262 0.011238 0.18658 
-0.035252 0.0054639 0.18656 
-0.03389 0.0045234 0.18764 
-0.032406 0.0027982 0.18985 
-0.03157 9.7357e-05 0.19338 
-0.031702 -0.0024494 0.19646 
-0.031265 -0.0081867 0.20469 
-0.031778 -0.010616 0.2084 
-0.033563 -0.013122 0.21179 
-0.03305 -0.01599 0.21619 
-0.033658 -0.018361 0.21849 
-0.033975 -0.019971 0.22067 
-0.033858 -0.022564 0.2229 
-0.034059 -0.02457 0.22406 
-0.035031 -0.025695 0.22527 
-0.02607 0.046834 0.1769 
-0.025788 0.045268 0.17768 
-0.025064 0.042912 0.17904 
-0.024705 0.040104 0.18035 
-0.025511 0.036477 0.18232 
-0.026875 0.030053 0.18466 
-0.028604 0.020594 0.18702 
-0.028807 0.016835 0.1877 
-0.028688 0.014443 0.18835 
-0.030597 0.011547 0.18729 
-0.030111 0.0093968 0.18755 
-0.029251 0.0061813 0.18932 
-0.027986 0.0030989 0.19233 
-0.026719 -0.00012923 0.19742 
-0.028654 -0.0052852 0.2042 
-0.029591 -0.0088555 0.20913 
-0.029702 -0.01313 0.21473 
-0.030171 -0.016999 0.21821 
-0.030869 -0.019365 0.21996 
-0.031893 -0.021635 0.22253 
-0.031892 -0.023116 0.22357 
-0.032099 -0.024283 0.225 
-0.031982 -0.025804 0.22785 
-0.022125 0.044933 0.17901 
-0.021913 0.043346 0.17996 
-0.022051 0.04077 0.18083 
-0.0225 0.038262 0.18143 
-0.023436 0.035425 0.18294 
-0.024196 0.029709 0.18648 
-0.02521 0.022362 0.18924 
-0.025505 0.018915 0.19001 
-0.025897 0.017436 0.19032 
-0.025325 0.016918 0.19078 
-0.02526 0.01403 0.19112 
-0.024829 0.010891 0.19208 
-0.023465 0.0065347 0.19513 
-0.022291 0.00099175 0.20262 
-0.024567 -0.0043338 0.20717 
-0.026179 -0.0078372 0.21141 
-0.026438 -0.011545 0.21591 
-0.027134 -0.015327 0.22087 
-0.027474 -0.01857 0.22157 
-0.028216 -0.020887 0.22321 
-0.028698 -0.022057 0.22408 
-0.028622 -0.023543 0.22534 
-0.028498 -0.025865 0.22837 
-0.01906 0.041772 0.18157 
-0.019526 0.039404 0.18277 
-0.019985 0.036665 0.18333 
-0.020423 0.034022 0.18491 
-0.020028 0.030992 0.18839 
-0.019337 0.025605 0.19182 
-0.020712 0.021962 0.19192 
-0.022727 0.019464 0.19228 
-0.021834 0.017514 0.19445 
-0.021596 0.015122 0.19517 
-0.021209 0.012036 0.19573 
-0.019888 0.0072291 0.19961 
-0.020005 0.0019301 0.20502 
-0.02121 -0.0026902 0.20901 
-0.022826 -0.0071225 0.21382 
-0.023437 -0.010912 0.21846 
-0.024344 -0.014185 0.22228 
-0.025057 -0.017344 0.22316 
-0.025531 -0.019912 0.22393 
-0.025443 -0.021091 0.2238 
-0.025536 -0.023122 0.2247 
-0.025309 -0.025949 0.22911 
-0.016541 0.038472 0.18441 
-0.016537 0.036253 0.18545 
-0.016701 0.033498 0.18739 
-0.016842 0.030125 0.19005 
-0.013896 0.026222 0.19346 
-0.015839 0.022817 0.19457 
-0.019069 0.019698 0.19517 
-0.018633 0.017197 0.19697 
-0.018223 0.015218 0.19771 
-0.017425 0.01221 0.1992 
-0.017047 0.0075292 0.20363 
-0.017191 0.0026241 0.20749 
-0.018291 -0.0015257 0.21059 
-0.019661 -0.0068919 0.21608 
-0.020062 -0.010739 0.221 
-0.021075 -0.013671 0.22347 
-0.022063 -0.017004 0.22428 
-0.022142 -0.019399 0.22477 
-0.022364 -0.020798 0.22436 
-0.022476 -0.023279 0.22633 
-0.021848 -0.026062 0.23142 
-0.013469 0.035814 0.18702 
-0.01343 0.033098 0.18896 
-0.012889 0.030005 0.19124 
-0.01002 0.026401 0.1949 
-0.011695 0.023044 0.19681 
-0.014839 0.020549 0.19672 
-0.015321 0.017197 0.19855 
-0.014093 0.014312 0.2009 
-0.01337 0.011083 0.20382 
-0.013914 0.0079586 0.20644 
-0.014326 0.0038223 0.20904 
-0.014928 -0.0003309 0.21284 
-0.016451 -0.0067704 0.21822 
-0.016715 -0.010333 0.22197 
-0.01775 -0.01317 0.22408 
-0.019429 -0.015682 0.22473 
-0.019607 -0.018321 0.22509 
-0.019364 -0.020751 0.2257 
-0.018453 -0.023814 0.22971 
-0.017438 -0.027299 0.23509 
-0.010101 0.032494 0.19056 
-0.0079093 0.030086 0.19346 
-0.0066755 0.026592 0.19751 
-0.0073233 0.023275 0.19989 
-0.010114 0.02107 0.19944 
-0.012011 0.017868 0.20026 
-0.011131 0.014475 0.20339 
-0.010875 0.011257 0.20599 
-0.011125 0.0084574 0.20784 
-0.011848 0.0051493 0.21027 
-0.011429 0.0002106 0.21484 
-0.011886 -0.0049195 0.21925 
-0.013121 -0.008295 0.2219 
-0.013459 -0.011569 0.22441 
-0.016003 -0.013964 0.22493 
-0.016637 -0.017057 0.22647 
-0.016041 -0.020568 0.22794 
-0.013783 -0.02442 0.23322 
-0.0043739 0.029261 0.19713 
-0.0029951 0.026434 0.20009 
-0.0024797 0.023654 0.20149 
-0.004006 0.020931 0.20253 
-0.007163 0.018561 0.20249 
-0.0084916 0.015258 0.205 
-0.008438 0.011728 0.20737 
-0.0086746 0.0091959 0.20922 
-0.0089826 0.0055062 0.21262 
-0.0076224 0.0002866 0.21656 
-0.0081098 -0.0044546 0.22081 
-0.0087093 -0.0075573 0.22224 
-0.0092053 -0.010815 0.22493 
-0.01027 -0.013497 0.22637 
-0.012506 -0.015807 0.22801 
-0.013 -0.019891 0.22948 
-0.011486 -0.023149 0.23247 
-0.00086658 0.027955 0.19981 
0.00093183 0.025909 0.20021 
0.0015227 0.023176 0.20125 
0.00057349 0.020743 0.20249 
-0.00053778 0.0185 0.20418 
-0.0017771 0.016111 0.20583 
-0.0043637 0.012639 0.20854 
-0.0046423 0.0086361 0.21182 
-0.0042285 0.0047131 0.21484 
-0.0035333 0.00057896 0.21787 
-0.0043081 -0.0038185 0.22143 
-0.0047453 -0.0072663 0.22288 
-0.0050946 -0.010535 0.22499 
-0.0063223 -0.013442 0.22667 
0.003763 0.024665 0.2 
0.004234 0.022718 0.20061 
0.003591 0.020589 0.20172 
0.0033059 0.018649 0.20352 
0.0031725 0.01661 0.20592 
0.0025126 0.012945 0.20899 
0.0012463 0.0083046 0.21233 
0.00014509 0.0045918 0.21564 
-0.00030734 0.00091718 0.2184 
-0.00095216 -0.0033306 0.22106 
-0.0021161 -0.0069542 0.22335 
0.0066283 0.022351 0.20069 
0.0065148 0.020595 0.2016 
0.0064165 0.018639 0.20332 
0.006148 0.016497 0.20609 
0.0051219 0.013474 0.2092 
0.0043131 0.010221 0.21098 
3 14 6 5
3 5 13 14
3 6 1 5
3 14 15 6
3 13 24 14
3 5 4 13
3 1 4 5
3 15 7 6
3 14 25 15
3 24 25 14
3 24 37 25
3 13 23 24
3 4 12 13
3 15 8 7
3 25 16 15
3 37 38 25
3 24 36 37
3 23 36 24
3 23 35 36
3 13 12 23
3 12 22 23
3 4 3 12
3 15 16 8
3 16 17 8
3 25 26 16
3 38 26 25
3 38 27 26
3 37 54 38
3 36 53 37
3 35 52 36
3 23 22 35
3 22 34 35
3 12 21 22
3 3 11 12
3 16 26 17
3 26 27 17
3 27 28 17
3 38 39 27
3 54 55 38
3 37 53 54
3 53 71 54
3 36 52 53
3 52 71 53
3 52 70 71
3 35 51 52
3 34 51 35
3 34 50 51
3 22 21 34
3 21 33 34
3 12 11 21
3 11 10 21
3 3 2 11
3 27 40 28
3 39 40 27
3 39 55 40
3 55 39 38
3 54 72 55
3 71 72 54
3 71 92 72
3 70 91 71
3 52 51 70
3 51 69 70
3 50 69 51
3 50 68 69
3 34 33 50
3 33 49 50
3 21 32 33
3 10 20 21
3 11 2 10
3 40 29 28
3 55 56 40
3 72 73 55
3 92 93 72
3 71 91 92
3 91 112 92
3 70 90 91
3 69 90 70
3 69 89 90
3 68 89 69
3 68 88 89
3 50 49 68
3 49 67 68
3 33 32 49
3 32 48 49
3 21 20 32
3 20 19 32
3 10 9 20
3 40 41 29
3 56 41 40
3 56 57 41
3 55 73 56
3 73 74 56
3 72 93 73
3 93 94 73
3 92 113 93
3 112 113 92
3 112 135 113
3 91 111 112
3 90 111 91
3 90 110 111
3 89 110 90
3 89 109 110
3 88 109 89
3 88 87 109
3 68 67 88
3 67 66 88
3 49 48 67
3 48 66 67
3 48 65 66
3 32 31 48
3 19 31 32
3 19 18 31
3 20 9 19
3 41 42 29
3 57 42 41
3 57 58 42
3 56 74 57
3 74 75 57
3 73 94 74
3 94 95 74
3 93 114 94
3 113 114 93
3 113 135 114
3 135 136 114
3 112 134 135
3 111 133 112
3 110 132 111
3 109 131 110
3 87 108 109
3 88 66 87
3 66 65 87
3 65 86 87
3 48 47 65
3 31 47 48
3 31 30 47
3 18 30 31
3 58 43 42
3 57 75 58
3 75 76 58
3 74 95 75
3 95 96 75
3 94 115 95
3 114 115 94
3 114 137 115
3 136 137 114
3 136 159 137
3 135 157 136
3 134 157 135
3 134 156 157
3 112 133 134
3 133 156 134
3 133 155 156
3 111 132 133
3 132 155 133
3 132 154 155
3 110 131 132
3 131 153 132
3 109 108 131
3 108 130 131
3 87 86 108
3 86 107 108
3 65 64 86
3 47 46 65
3 30 46 47
3 30 45 46
3 58 59 43
3 76 59 58
3 76 77 59
3 75 97 76
3 96 97 75
3 96 118 97
3 95 117 96
3 115 116 95
3 137 116 115
3 137 138 116
3 159 160 137
3 136 158 159
3 157 158 136
3 157 181 158
3 156 180 157
3 155 178 156
3 154 177 155
3 132 153 154
3 153 176 154
3 131 130 153
3 130 152 153
3 108 107 130
3 107 129 130
3 86 85 107
3 64 85 86
3 64 63 85
3 65 46 64
3 46 45 64
3 45 63 64
3 59 60 43
3 77 60 59
3 77 78 60
3 76 98 77
3 97 98 76
3 97 119 98
3 118 119 97
3 118 141 119
3 96 117 118
3 117 140 118
3 95 116 117
3 116 139 117
3 138 139 116
3 138 161 139
3 137 160 138
3 160 161 138
3 160 183 161
3 159 183 160
3 159 182 183
3 158 182 159
3 158 181 182
3 181 204 182
3 157 180 181
3 180 203 181
3 156 179 180
3 178 179 156
3 178 201 179
3 155 177 178
3 177 200 178
3 154 176 177
3 176 199 177
3 153 152 176
3 152 175 176
3 130 129 152
3 129 151 152
3 107 128 129
3 85 106 107
3 63 84 85
3 60 44 43
3 78 61 60
3 77 98 78
3 98 99 78
3 119 99 98
3 119 120 99
3 141 142 119
3 118 140 141
3 140 163 141
3 117 139 140
3 139 162 140
3 161 162 139
3 161 185 162
3 183 184 161
3 182 205 183
3 204 205 182
3 204 226 205
3 181 203 204
3 203 225 204
3 180 179 203
3 179 202 203
3 201 202 179
3 201 223 202
3 178 200 201
3 200 222 201
3 177 199 200
3 199 221 200
3 176 198 199
3 175 198 176
3 175 197 198
3 152 174 175
3 151 174 152
3 151 150 174
3 129 150 151
3 129 128 150
3 128 127 150
3 107 106 128
3 106 105 128
3 85 105 106
3 85 84 105
3 84 104 105
3 63 83 84
3 60 61 44
3 78 79 61
3 99 100 78
3 120 100 99
3 120 121 100
3 119 142 120
3 142 121 120
3 142 143 121
3 141 164 142
3 163 164 141
3 163 187 164
3 140 162 163
3 162 186 163
3 185 186 162
3 185 208 186
3 161 184 185
3 184 208 185
3 184 207 208
3 183 206 184
3 205 206 183
3 205 227 206
3 226 227 205
3 226 247 227
3 204 225 226
3 225 247 226
3 225 246 247
3 203 224 225
3 202 224 203
3 202 223 224
3 223 244 224
3 201 222 223
3 222 243 223
3 200 221 222
3 221 242 222
3 199 220 221
3 198 220 199
3 198 219 220
3 197 219 198
3 197 218 219
3 175 174 197
3 174 196 197
3 150 173 174
3 127 149 150
3 128 105 127
3 105 104 127
3 104 126 127
3 84 83 104
3 79 80 61
3 78 100 79
3 100 101 79
3 121 122 100
3 143 122 121
3 143 144 122
3 142 165 143
3 164 165 142
3 164 187 165
3 187 188 165
3 163 186 187
3 186 209 187
3 208 209 186
3 208 230 209
3 207 229 208
3 184 206 207
3 206 228 207
3 227 228 206
3 227 248 228
3 247 248 227
3 247 267 248
3 246 266 247
3 225 245 246
3 224 245 225
3 224 244 245
3 244 264 245
3 223 243 244
3 243 264 244
3 243 263 264
3 222 242 243
3 242 263 243
3 242 262 263
3 221 241 242
3 220 241 221
3 220 240 241
3 219 240 220
3 219 239 240
3 218 239 219
3 218 217 239
3 197 196 218
3 196 217 218
3 196 195 217
3 174 173 196
3 173 195 196
3 173 172 195
3 150 149 173
3 149 172 173
3 149 171 172
3 127 126 149
3 126 148 149
3 80 62 61
3 79 101 80
3 101 102 80
3 100 122 101
3 122 123 101
3 144 123 122
3 144 145 123
3 143 165 144
3 165 166 144
3 188 166 165
3 188 189 166
3 187 210 188
3 209 210 187
3 209 231 210
3 230 231 209
3 230 251 231
3 208 229 230
3 229 250 230
3 207 228 229
3 228 249 229
3 248 249 228
3 248 268 249
3 267 268 248
3 267 287 268
3 247 266 267
3 266 285 267
3 246 265 266
3 245 265 246
3 245 264 265
3 264 283 265
3 263 283 264
3 263 282 283
3 262 281 263
3 242 261 262
3 241 261 242
3 241 260 261
3 240 260 241
3 240 239 260
3 195 194 217
3 172 194 195
3 172 171 194
3 149 148 171
3 80 81 62
3 102 81 80
3 102 103 81
3 101 123 102
3 123 124 102
3 145 146 123
3 144 166 145
3 166 167 145
3 189 167 166
3 189 190 167
3 188 212 189
3 210 211 188
3 231 232 210
3 251 252 231
3 230 250 251
3 250 270 251
3 229 249 250
3 249 269 250
3 268 269 249
3 268 288 269
3 287 288 268
3 287 304 288
3 267 286 287
3 285 286 267
3 285 302 286
3 266 284 285
3 265 284 266
3 265 283 284
3 283 300 284
3 282 299 283
3 263 281 282
3 281 298 282
3 262 280 281
3 261 280 262
3 261 260 280
3 103 82 81
3 102 124 103
3 124 125 103
3 123 146 124
3 146 147 124
3 145 167 146
3 167 168 146
3 190 168 167
3 190 191 168
3 189 212 190
3 212 213 190
3 188 211 212
3 211 234 212
3 210 232 211
3 232 233 211
3 231 252 232
3 252 253 232
3 251 271 252
3 270 271 251
3 270 290 271
3 250 269 270
3 269 288 270
3 288 289 270
3 304 305 288
3 287 303 304
3 286 303 287
3 286 302 303
3 302 320 303
3 285 284 302
3 284 301 302
3 300 301 284
3 300 318 301
3 283 299 300
3 299 316 300
3 282 298 299
3 298 315 299
3 281 280 298
3 124 147 125
3 146 169 147
3 168 169 146
3 168 191 169
3 191 192 169
3 190 213 191
3 213 214 191
3 212 234 213
3 234 235 213
3 211 233 234
3 233 254 234
3 232 253 233
3 253 254 233
3 253 273 254
3 252 272 253
3 271 272 252
3 271 291 272
3 290 291 271
3 290 307 291
3 270 289 290
3 289 307 290
3 289 306 307
3 288 306 289
3 288 305 306
3 305 323 306
3 304 321 305
3 303 321 304
3 303 320 321
3 320 334 321
3 302 319 320
3 301 319 302
3 301 318 319
3 318 332 319
3 300 317 318
3 316 317 300
3 316 329 317
3 299 315 316
3 147 169 170
3 169 192 170
3 192 193 170
3 191 215 192
3 214 215 191
3 214 237 215
3 213 236 214
3 235 236 213
3 235 256 236
3 234 256 235
3 234 255 256
3 254 255 234
3 254 274 255
3 273 274 254
3 273 293 274
3 253 272 273
3 272 292 273
3 291 292 272
3 291 309 292
3 307 308 291
3 306 324 307
3 323 324 306
3 323 337 324
3 305 322 323
3 321 322 305
3 321 335 322
3 334 335 321
3 334 345 335
3 320 333 334
3 319 333 320
3 319 332 333
3 332 343 333
3 318 331 332
3 317 331 318
3 317 330 331
3 329 330 317
3 329 340 330
3 192 215 193
3 215 216 193
3 237 216 215
3 237 238 216
3 214 236 237
3 236 257 237
3 256 257 236
3 256 276 257
3 255 275 256
3 274 275 255
3 274 294 275
3 293 294 274
3 293 310 294
3 273 292 293
3 292 310 293
3 292 309 310
3 309 327 310
3 291 308 309
3 308 326 309
3 307 325 308
3 324 325 307
3 324 338 325
3 337 338 324
3 323 336 337
3 322 336 323
3 322 335 336
3 335 345 336
3 334 344 345
3 333 344 334
3 333 343 344
3 332 342 343
3 331 342 332
3 331 341 342
3 330 341 331
3 330 340 341
3 237 258 238
3 257 258 237
3 257 277 258
3 276 277 257
3 276 295 277
3 256 275 276
3 275 294 276
3 294 295 276
3 294 312 295
3 310 311 294
3 327 328 310
3 309 326 327
3 326 339 327
3 308 325 326
3 325 339 326
3 325 338 339
3 258 259 238
3 277 278 258
3 295 296 277
3 312 313 295
3 294 311 312
3 311 328 312
3 328 311 310
3 258 278 259
3 278 279 259
3 277 296 278
3 296 297 278
3 295 313 296
3 313 314 296
3 278 297 279
3 296 314 297
3 4 0 3
3 4 1 0
