ply
format ascii 1.0
comment PCL generated
element vertex 346
property float x
property float y
property float z
element face 627
property list uchar int vertex_indices
end_header
-0.057292 0.019795 0.19067 
-0.057661 0.01711 0.19219 
-0.054768 0.02488 0.18611 
-0.055194 0.022939 0.18756 
-0.055504 0.020044 0.18908 
-0.055797 0.017045 0.19085 
-0.056535 0.013726 0.19251 
-0.0565 0.01045 0.19425 
-0.056091 0.0072531 0.19563 
-0.052817 0.027778 0.18358 
-0.05287 0.025786 0.18422 
-0.052715 0.023305 0.18532 
-0.05259 0.02052 0.18663 
-0.052758 0.017432 0.18853 
-0.054022 0.013458 0.19058 
-0.054388 0.0097634 0.19283 
-0.05457 0.0058808 0.19507 
-0.054006 0.0018184 0.19539 
-0.049782 0.03059 0.18123 
-0.050432 0.029134 0.18191 
-0.050446 0.026615 0.1826 
-0.050036 0.023583 0.18384 
-0.050319 0.020741 0.18577 
-0.050974 0.016854 0.1878 
-0.051988 0.013117 0.18944 
-0.052163 0.0089809 0.19164 
-0.052127 0.0048316 0.19267 
-0.051818 -0.00052861 0.19191 
-0.051783 -0.0052372 0.192 
-0.051815 -0.0081795 0.19301 
-0.048239 0.031241 0.18038 
-0.047971 0.029464 0.18079 
-0.047721 0.026766 0.18177 
-0.047857 0.023643 0.18361 
-0.048175 0.020314 0.1853 
-0.048675 0.016555 0.18682 
-0.04965 0.01222 0.18847 
-0.050395 0.0082537 0.19014 
-0.050331 0.0020548 0.18905 
-0.050154 -0.0031369 0.1871 
-0.050046 -0.0069969 0.188 
-0.050118 -0.010526 0.19106 
-0.050257 -0.011086 0.19465 
-0.051567 -0.0075204 0.20041 
-0.050241 -0.0052989 0.2075 
-0.046576 0.034314 0.17889 
-0.04606 0.032398 0.17945 
-0.045507 0.030456 0.18013 
-0.045115 0.027741 0.18122 
-0.045358 0.023916 0.1829 
-0.045339 0.019925 0.18419 
-0.045829 0.015921 0.18547 
-0.046718 0.011187 0.18649 
-0.048257 0.0059215 0.1865 
-0.048404 -0.00012346 0.18443 
-0.04809 -0.0051639 0.18282 
-0.04766 -0.0088511 0.18353 
-0.045554 -0.010835 0.19019 
-0.048437 -0.0093805 0.19569 
-0.048957 -0.0063788 0.20184 
-0.048388 -0.006089 0.2074 
-0.047721 -0.0076138 0.21157 
-0.047742 -0.011337 0.21706 
-0.044235 0.035647 0.17801 
-0.043303 0.033402 0.17908 
-0.042674 0.031424 0.17992 
-0.042323 0.029046 0.18081 
-0.042297 0.025626 0.18193 
-0.042296 0.019911 0.18284 
-0.043081 0.015174 0.18407 
-0.04499 0.0098823 0.18478 
-0.046006 0.0038204 0.18304 
-0.045309 -0.0025006 0.18109 
-0.044226 -0.0071387 0.18184 
-0.042507 -0.009393 0.18622 
-0.042324 -0.0085325 0.19215 
-0.044639 -0.0075714 0.19807 
-0.045167 -0.0062017 0.20359 
-0.044935 -0.0070435 0.20784 
-0.044831 -0.0095281 0.21172 
-0.046472 -0.014169 0.2176 
-0.047372 -0.02058 0.22032 
-0.046506 -0.024619 0.22183 
-0.041911 0.040511 0.17628 
-0.041471 0.038642 0.17699 
-0.04016 0.03704 0.17811 
-0.03962 0.033382 0.17984 
-0.039559 0.030023 0.18086 
-0.039123 0.026302 0.18197 
-0.039306 0.020323 0.18228 
-0.040513 0.014114 0.18296 
-0.042839 0.0079665 0.18103 
-0.043955 0.0014513 0.17919 
-0.042064 -0.0046886 0.18058 
-0.040056 -0.0070687 0.18376 
-0.039235 -0.0066112 0.18877 
-0.040039 -0.0063776 0.19344 
-0.041028 -0.0061582 0.1987 
-0.041963 -0.0069873 0.20393 
-0.041815 -0.0090032 0.20847 
-0.042503 -0.011931 0.21272 
-0.043552 -0.014879 0.2162 
-0.043928 -0.019413 0.21953 
-0.043937 -0.02444 0.22169 
-0.038565 0.044344 0.174 
-0.037448 0.043284 0.17531 
-0.036354 0.041133 0.17743 
-0.035494 0.037316 0.17935 
-0.036101 0.031322 0.18106 
-0.035823 0.02685 0.18238 
-0.036412 0.019972 0.1821 
-0.037247 0.013937 0.18211 
-0.039277 0.0082146 0.17931 
-0.041967 -0.00013098 0.17839 
-0.039232 -0.00425 0.18128 
-0.037394 -0.0047817 0.18476 
-0.037008 -0.0047808 0.18858 
-0.037407 -0.004889 0.19392 
-0.037771 -0.0056225 0.20093 
-0.03893 -0.0084917 0.20531 
-0.039266 -0.011194 0.20915 
-0.039778 -0.013812 0.21287 
-0.040457 -0.01674 0.21561 
-0.040148 -0.019884 0.21834 
-0.040233 -0.023587 0.22145 
-0.040137 -0.026692 0.22285 
-0.033766 0.045968 0.17596 
-0.033519 0.044411 0.17625 
-0.032923 0.042172 0.1777 
-0.032188 0.039275 0.1796 
-0.032187 0.033467 0.18179 
-0.033141 0.027893 0.18277 
-0.034149 0.019836 0.18231 
-0.034309 0.014744 0.18195 
-0.036133 0.008567 0.18036 
-0.039788 0.00046856 0.17775 
-0.037266 -0.0015943 0.18071 
-0.035564 -0.0019534 0.1847 
-0.035051 -0.0026291 0.18907 
-0.035357 -0.0039806 0.19412 
-0.034884 -0.0061844 0.20201 
-0.035971 -0.0096009 0.2065 
-0.036536 -0.01238 0.21043 
-0.036793 -0.015221 0.21389 
-0.037076 -0.01794 0.21626 
-0.036966 -0.02003 0.21864 
-0.03639 -0.022541 0.221 
-0.036535 -0.025608 0.22335 
-0.031014 0.047147 0.17553 
-0.030421 0.045651 0.17625 
-0.029507 0.043249 0.17767 
-0.02877 0.040724 0.17967 
-0.028904 0.036358 0.18185 
-0.030083 0.029236 0.18337 
-0.031759 0.020262 0.18309 
-0.031645 0.016015 0.18266 
-0.032549 0.010914 0.18165 
-0.03612 0.0042779 0.17821 
-0.034543 0.0034814 0.17984 
-0.032943 0.0023418 0.18266 
-0.032064 0.00024294 0.18704 
-0.032231 -0.0022808 0.1916 
-0.03211 -0.0069375 0.20421 
-0.0327 -0.010018 0.20797 
-0.033989 -0.012589 0.2111 
-0.033271 -0.015658 0.21574 
-0.033824 -0.018185 0.21777 
-0.034031 -0.019918 0.2197 
-0.033753 -0.02238 0.22167 
-0.033964 -0.024184 0.22285 
-0.034771 -0.025195 0.22392 
-0.027083 0.047329 0.1762 
-0.026703 0.045794 0.17699 
-0.025792 0.04347 0.17843 
-0.025361 0.040712 0.17993 
-0.026163 0.037081 0.18212 
-0.027438 0.030371 0.1843 
-0.029139 0.020792 0.18441 
-0.029025 0.017096 0.18417 
-0.028625 0.015033 0.18427 
-0.031075 0.011465 0.18213 
-0.030733 0.0092199 0.18192 
-0.030001 0.0062018 0.18396 
-0.028844 0.0036026 0.18745 
-0.02713 0.00077229 0.19389 
-0.029621 -0.0050306 0.20299 
-0.030547 -0.0091154 0.20871 
-0.030167 -0.01321 0.21454 
-0.030695 -0.016961 0.21774 
-0.031225 -0.019118 0.21907 
-0.031961 -0.02133 0.22136 
-0.031829 -0.022641 0.2223 
-0.031968 -0.023604 0.22362 
-0.031699 -0.024806 0.2263 
-0.022724 0.045237 0.17851 
-0.022421 0.043625 0.17961 
-0.022541 0.04111 0.18065 
-0.022998 0.038662 0.1814 
-0.023986 0.035937 0.18293 
-0.024685 0.029923 0.18593 
-0.025874 0.022734 0.18682 
-0.02597 0.01969 0.18679 
-0.026279 0.018255 0.1867 
-0.025623 0.018061 0.18708 
-0.025325 0.015523 0.18687 
-0.024642 0.01252 0.18743 
-0.022865 0.0078531 0.19079 
-0.021712 0.0015365 0.20034 
-0.02537 -0.0048821 0.20601 
-0.027481 -0.0086791 0.21079 
-0.027295 -0.012612 0.21495 
-0.027536 -0.015633 0.21969 
-0.027799 -0.018327 0.22034 
-0.028266 -0.020479 0.2217 
-0.028738 -0.021564 0.22252 
-0.028662 -0.022881 0.22372 
-0.028416 -0.025 0.22661 
-0.01939 0.041902 0.18176 
-0.019821 0.039623 0.18293 
-0.020234 0.036938 0.18346 
-0.020659 0.034302 0.18486 
-0.020175 0.031025 0.18791 
-0.019528 0.02576 0.19095 
-0.021113 0.023444 0.18965 
-0.023173 0.02122 0.18918 
-0.021808 0.019632 0.19124 
-0.021246 0.017377 0.19176 
-0.02048 0.014557 0.19198 
-0.018669 0.0085425 0.19633 
-0.019356 0.0024626 0.2027 
-0.021469 -0.0029844 0.20723 
-0.023722 -0.0083069 0.2127 
-0.024109 -0.012086 0.21703 
-0.024803 -0.015135 0.22078 
-0.025479 -0.01778 0.22149 
-0.025781 -0.019826 0.22219 
-0.025713 -0.02081 0.22203 
-0.02573 -0.022623 0.22298 
-0.025486 -0.025147 0.22715 
-0.016875 0.038722 0.18475 
-0.016819 0.036511 0.1856 
-0.017005 0.033615 0.18724 
-0.017161 0.029984 0.18966 
-0.014039 0.026247 0.19296 
-0.015672 0.024065 0.19311 
-0.01871 0.021741 0.19287 
-0.018094 0.019207 0.19435 
-0.017541 0.017295 0.19491 
-0.016353 0.014224 0.19612 
-0.015825 0.0082162 0.20089 
-0.016542 0.0029138 0.20526 
-0.018289 -0.0016368 0.20858 
-0.020377 -0.0081356 0.21451 
-0.0207 -0.011813 0.21948 
-0.021697 -0.014539 0.22189 
-0.022703 -0.01753 0.22261 
-0.022845 -0.01955 0.22304 
-0.02294 -0.020693 0.22257 
-0.022959 -0.022701 0.2242 
-0.022338 -0.025319 0.22931 
-0.01376 0.036093 0.18711 
-0.013794 0.033085 0.18875 
-0.013245 0.029834 0.19083 
-0.0098216 0.026277 0.19417 
-0.011213 0.023666 0.19567 
-0.014294 0.022021 0.19498 
-0.014759 0.018805 0.19635 
-0.013248 0.015617 0.19869 
-0.012307 0.011928 0.20172 
-0.012967 0.008488 0.20414 
-0.013636 0.0040604 0.20684 
-0.014665 -0.00036416 0.21083 
-0.017002 -0.0080845 0.2166 
-0.017393 -0.011383 0.22037 
-0.018608 -0.014024 0.22236 
-0.020243 -0.016196 0.22288 
-0.020577 -0.018599 0.22341 
-0.020241 -0.020623 0.22402 
-0.019253 -0.023388 0.22801 
-0.018427 -0.027161 0.23364 
-0.01027 0.032512 0.19001 
-0.0078131 0.030086 0.19263 
-0.0061128 0.026335 0.19644 
-0.0066504 0.023201 0.19861 
-0.0095601 0.021721 0.19802 
-0.011513 0.01913 0.19826 
-0.010287 0.015346 0.20156 
-0.010133 0.011933 0.2043 
-0.010455 0.0089782 0.20597 
-0.011388 0.0055034 0.2083 
-0.011332 -0.00016562 0.21347 
-0.01225 -0.0060621 0.21811 
-0.013801 -0.0094682 0.22032 
-0.014528 -0.012538 0.22288 
-0.01689 -0.014642 0.22293 
-0.017749 -0.017398 0.22445 
-0.017293 -0.020484 0.2262 
-0.014937 -0.024142 0.23188 
-0.0039115 0.029037 0.19584 
-0.002021 0.026136 0.19825 
-0.0014486 0.023577 0.19978 
-0.0031806 0.021098 0.20097 
-0.0065999 0.019194 0.20092 
-0.0078639 0.016069 0.20351 
-0.0079279 0.012305 0.20597 
-0.0082751 0.009642 0.20767 
-0.008915 0.0057785 0.21105 
-0.0078306 -0.00030386 0.21596 
-0.0087112 -0.0053603 0.22019 
-0.0094982 -0.0084518 0.22157 
-0.010322 -0.011506 0.22417 
-0.011623 -0.014131 0.2254 
-0.01373 -0.016348 0.22598 
-0.014427 -0.019802 0.22792 
-0.012731 -0.022895 0.23144 
7.2848e-05 0.027573 0.19794 
0.0019919 0.025719 0.19871 
0.0025563 0.02326 0.20016 
0.0015644 0.021038 0.20159 
0.00034354 0.018983 0.20339 
-0.0010086 0.016585 0.20518 
-0.0040321 0.013014 0.20758 
-0.0044397 0.0086541 0.21088 
-0.0042124 0.0043346 0.21416 
-0.0037959 -0.00012521 0.21767 
-0.00501 -0.0045588 0.22118 
-0.005604 -0.0079851 0.22274 
-0.006214 -0.011029 0.22487 
-0.0076836 -0.01376 0.22651 
0.0048629 0.024603 0.19917 
0.0053703 0.022848 0.20007 
0.0046178 0.020884 0.20133 
0.004238 0.01903 0.20324 
0.003885 0.017024 0.20563 
0.0030761 0.012766 0.20868 
0.0017242 0.0076751 0.21202 
0.00029286 0.0038637 0.21533 
-0.00051915 0.00013446 0.21831 
-0.0016204 -0.0040512 0.22116 
-0.0029623 -0.0075938 0.22338 
0.0077136 0.02251 0.20048 
0.007551 0.020871 0.20156 
0.0073172 0.01901 0.20339 
0.006879 0.016812 0.20612 
0.0056584 0.013286 0.20906 
0.0048387 0.0096107 0.21064 
3 14 6 5
3 5 13 14
3 6 1 5
3 14 15 6
3 13 24 14
3 5 4 13
3 1 4 5
3 15 7 6
3 14 25 15
3 24 25 14
3 24 37 25
3 13 23 24
3 4 12 13
3 15 8 7
3 25 16 15
3 37 38 25
3 24 36 37
3 23 36 24
3 23 35 36
3 13 12 23
3 12 22 23
3 4 3 12
3 15 16 8
3 16 17 8
3 25 26 16
3 38 26 25
3 38 27 26
3 37 54 38
3 36 53 37
3 35 52 36
3 23 22 35
3 22 34 35
3 12 21 22
3 3 11 12
3 16 26 17
3 26 27 17
3 27 28 17
3 38 39 27
3 54 55 38
3 37 53 54
3 53 71 54
3 36 52 53
3 52 71 53
3 52 70 71
3 35 51 52
3 34 51 35
3 34 50 51
3 22 21 34
3 21 33 34
3 12 11 21
3 11 10 21
3 3 2 11
3 27 40 28
3 39 40 27
3 39 55 40
3 55 39 38
3 54 72 55
3 71 72 54
3 71 92 72
3 70 91 71
3 52 51 70
3 51 69 70
3 50 69 51
3 50 68 69
3 34 33 50
3 33 49 50
3 21 32 33
3 10 20 21
3 11 2 10
3 40 29 28
3 55 56 40
3 72 73 55
3 92 93 72
3 71 91 92
3 91 112 92
3 70 90 91
3 69 90 70
3 69 89 90
3 68 89 69
3 68 88 89
3 50 49 68
3 49 67 68
3 33 32 49
3 32 48 49
3 21 20 32
3 20 19 32
3 10 9 20
3 40 41 29
3 56 41 40
3 56 57 41
3 55 73 56
3 73 74 56
3 72 93 73
3 93 94 73
3 92 113 93
3 112 113 92
3 112 135 113
3 91 111 112
3 90 111 91
3 90 110 111
3 89 110 90
3 89 109 110
3 88 109 89
3 88 87 109
3 68 67 88
3 67 66 88
3 49 48 67
3 48 66 67
3 48 65 66
3 32 31 48
3 19 31 32
3 19 18 31
3 20 9 19
3 41 42 29
3 57 42 41
3 57 58 42
3 56 74 57
3 74 75 57
3 73 94 74
3 94 95 74
3 93 114 94
3 113 114 93
3 113 135 114
3 135 136 114
3 112 134 135
3 111 133 112
3 110 132 111
3 109 131 110
3 87 108 109
3 88 66 87
3 66 65 87
3 65 86 87
3 48 47 65
3 31 47 48
3 31 30 47
3 18 30 31
3 58 43 42
3 57 75 58
3 75 76 58
3 74 95 75
3 95 96 75
3 94 115 95
3 114 115 94
3 114 137 115
3 136 137 114
3 136 159 137
3 135 157 136
3 134 157 135
3 134 156 157
3 112 133 134
3 133 156 134
3 133 155 156
3 111 132 133
3 132 155 133
3 132 154 155
3 110 131 132
3 131 153 132
3 109 108 131
3 108 130 131
3 87 86 108
3 86 107 108
3 65 64 86
3 47 46 65
3 30 46 47
3 30 45 46
3 58 59 43
3 76 59 58
3 76 77 59
3 75 97 76
3 96 97 75
3 96 118 97
3 95 117 96
3 115 116 95
3 137 116 115
3 137 138 116
3 159 160 137
3 136 158 159
3 157 158 136
3 157 181 158
3 156 180 157
3 155 178 156
3 154 177 155
3 132 153 154
3 153 176 154
3 131 130 153
3 130 152 153
3 108 107 130
3 107 129 130
3 86 85 107
3 64 85 86
3 64 63 85
3 65 46 64
3 46 45 64
3 45 63 64
3 59 60 43
3 77 60 59
3 77 78 60
3 76 98 77
3 97 98 76
3 97 119 98
3 118 119 97
3 118 141 119
3 96 117 118
3 117 140 118
3 95 116 117
3 116 139 117
3 138 139 116
3 138 161 139
3 137 160 138
3 160 161 138
3 160 183 161
3 159 183 160
3 159 182 183
3 158 182 159
3 158 181 182
3 181 204 182
3 157 180 181
3 180 203 181
3 156 179 180
3 178 179 156
3 178 201 179
3 155 177 178
3 177 200 178
3 154 176 177
3 176 199 177
3 153 152 176
3 152 175 176
3 130 129 152
3 129 151 152
3 107 128 129
3 85 106 107
3 63 84 85
3 60 44 43
3 78 61 60
3 77 98 78
3 98 99 78
3 119 99 98
3 119 120 99
3 141 142 119
3 118 140 141
3 140 163 141
3 117 139 140
3 139 162 140
3 161 162 139
3 161 185 162
3 183 184 161
3 182 205 183
3 204 205 182
3 204 226 205
3 181 203 204
3 203 225 204
3 180 179 203
3 179 202 203
3 201 202 179
3 201 223 202
3 178 200 201
3 200 222 201
3 177 199 200
3 199 221 200
3 176 198 199
3 175 198 176
3 175 197 198
3 152 174 175
3 151 174 152
3 151 150 174
3 129 150 151
3 129 128 150
3 128 127 150
3 107 106 128
3 106 105 128
3 85 105 106
3 85 84 105
3 84 104 105
3 63 83 84
3 60 61 44
3 78 79 61
3 99 100 78
3 120 100 99
3 120 121 100
3 119 142 120
3 142 121 120
3 142 143 121
3 141 164 142
3 163 164 141
3 163 187 164
3 140 162 163
3 162 186 163
3 185 186 162
3 185 208 186
3 161 184 185
3 184 208 185
3 184 207 208
3 183 206 184
3 205 206 183
3 205 227 206
3 226 227 205
3 226 247 227
3 204 225 226
3 225 247 226
3 225 246 247
3 203 224 225
3 202 224 203
3 202 223 224
3 223 244 224
3 201 222 223
3 222 243 223
3 200 221 222
3 221 242 222
3 199 220 221
3 198 220 199
3 198 219 220
3 197 219 198
3 197 218 219
3 175 174 197
3 174 196 197
3 150 173 174
3 127 149 150
3 128 105 127
3 105 104 127
3 104 126 127
3 84 83 104
3 79 80 61
3 78 100 79
3 100 101 79
3 121 122 100
3 143 122 121
3 143 144 122
3 142 165 143
3 164 165 142
3 164 187 165
3 187 188 165
3 163 186 187
3 186 209 187
3 208 209 186
3 208 230 209
3 207 229 208
3 184 206 207
3 206 228 207
3 227 228 206
3 227 248 228
3 247 248 227
3 247 267 248
3 246 266 247
3 225 245 246
3 224 245 225
3 224 244 245
3 244 264 245
3 223 243 244
3 243 264 244
3 243 263 264
3 222 242 243
3 242 263 243
3 242 262 263
3 221 241 242
3 220 241 221
3 220 240 241
3 219 240 220
3 219 239 240
3 218 239 219
3 218 217 239
3 197 196 218
3 196 217 218
3 196 195 217
3 174 173 196
3 173 195 196
3 173 172 195
3 150 149 173
3 149 172 173
3 149 171 172
3 127 126 149
3 126 148 149
3 80 62 61
3 79 101 80
3 101 102 80
3 100 122 101
3 122 123 101
3 144 123 122
3 144 145 123
3 143 165 144
3 165 166 144
3 188 166 165
3 188 189 166
3 187 210 188
3 209 210 187
3 209 231 210
3 230 231 209
3 230 251 231
3 208 229 230
3 229 250 230
3 207 228 229
3 228 249 229
3 248 249 228
3 248 268 249
3 267 268 248
3 267 287 268
3 247 266 267
3 266 285 267
3 246 265 266
3 245 265 246
3 245 264 265
3 264 283 265
3 263 283 264
3 263 282 283
3 262 281 263
3 242 261 262
3 241 261 242
3 241 260 261
3 240 260 241
3 240 239 260
3 195 194 217
3 172 194 195
3 172 171 194
3 149 148 171
3 80 81 62
3 102 81 80
3 102 103 81
3 101 123 102
3 123 124 102
3 145 146 123
3 144 166 145
3 166 167 145
3 189 167 166
3 189 190 167
3 188 212 189
3 210 211 188
3 231 232 210
3 251 252 231
3 230 250 251
3 250 270 251
3 229 249 250
3 249 269 250
3 268 269 249
3 268 288 269
3 287 288 268
3 287 304 288
3 267 286 287
3 285 286 267
3 285 302 286
3 266 284 285
3 265 284 266
3 265 283 284
3 283 300 284
3 282 299 283
3 263 281 282
3 281 298 282
3 262 280 281
3 261 280 262
3 261 260 280
3 103 82 81
3 102 124 103
3 124 125 103
3 123 146 124
3 146 147 124
3 145 167 146
3 167 168 146
3 190 168 167
3 190 191 168
3 189 212 190
3 212 213 190
3 188 211 212
3 211 234 212
3 210 232 211
3 232 233 211
3 231 252 232
3 252 253 232
3 251 271 252
3 270 271 251
3 270 290 271
3 250 269 270
3 269 288 270
3 288 289 270
3 304 305 288
3 287 303 304
3 286 303 287
3 286 302 303
3 302 320 303
3 285 284 302
3 284 301 302
3 300 301 284
3 300 318 301
3 283 299 300
3 299 316 300
3 282 298 299
3 298 315 299
3 281 280 298
3 124 147 125
3 146 169 147
3 168 169 146
3 168 191 169
3 191 192 169
3 190 213 191
3 213 214 191
3 212 234 213
3 234 235 213
3 211 233 234
3 233 254 234
3 232 253 233
3 253 254 233
3 253 273 254
3 252 272 253
3 271 272 252
3 271 291 272
3 290 291 271
3 290 307 291
3 270 289 290
3 289 307 290
3 289 306 307
3 288 306 289
3 288 305 306
3 305 323 306
3 304 321 305
3 303 321 304
3 303 320 321
3 320 334 321
3 302 319 320
3 301 319 302
3 301 318 319
3 318 332 319
3 300 317 318
3 316 317 300
3 316 329 317
3 299 315 316
3 147 169 170
3 169 192 170
3 192 193 170
3 191 215 192
3 214 215 191
3 214 237 215
3 213 236 214
3 235 236 213
3 235 256 236
3 234 256 235
3 234 255 256
3 254 255 234
3 254 274 255
3 273 274 254
3 273 293 274
3 253 272 273
3 272 292 273
3 291 292 272
3 291 309 292
3 307 308 291
3 306 324 307
3 323 324 306
3 323 337 324
3 305 322 323
3 321 322 305
3 321 335 322
3 334 335 321
3 334 345 335
3 320 333 334
3 319 333 320
3 319 332 333
3 332 343 333
3 318 331 332
3 317 331 318
3 317 330 331
3 329 330 317
3 329 340 330
3 192 215 193
3 215 216 193
3 237 216 215
3 237 238 216
3 214 236 237
3 236 257 237
3 256 257 236
3 256 276 257
3 255 275 256
3 274 275 255
3 274 294 275
3 293 294 274
3 293 310 294
3 273 292 293
3 292 310 293
3 292 309 310
3 309 327 310
3 291 308 309
3 308 326 309
3 307 325 308
3 324 325 307
3 324 338 325
3 337 338 324
3 323 336 337
3 322 336 323
3 322 335 336
3 335 345 336
3 334 344 345
3 333 344 334
3 333 343 344
3 332 342 343
3 331 342 332
3 331 341 342
3 330 341 331
3 330 340 341
3 237 258 238
3 257 258 237
3 257 277 258
3 276 277 257
3 276 295 277
3 256 275 276
3 275 294 276
3 294 295 276
3 294 312 295
3 310 311 294
3 327 328 310
3 309 326 327
3 326 339 327
3 308 325 326
3 325 339 326
3 325 338 339
3 258 259 238
3 277 278 258
3 295 296 277
3 312 313 295
3 294 311 312
3 311 328 312
3 328 311 310
3 258 278 259
3 278 279 259
3 277 296 278
3 296 297 278
3 295 313 296
3 313 314 296
3 278 297 279
3 296 314 297
3 4 0 3
3 4 1 0
