ply
format ascii 1.0
comment PCL generated
element vertex 348
property float x
property float y
property float z
element camera 1
property float view_px
property float view_py
property float view_pz
property float x_axisx
property float x_axisy
property float x_axisz
property float y_axisx
property float y_axisy
property float y_axisz
property float z_axisx
property float z_axisy
property float z_axisz
property float focal
property float scalex
property float scaley
property float centerx
property float centery
property int viewportx
property int viewporty
property float k1
property float k2
end_header
-0.05498448 0.027423576 0.18596455
-0.055831868 0.024897767 0.18775345
-0.056340918 0.021497374 0.18987314
-0.056817636 0.017990429 0.19192262
-0.057353362 0.014568792 0.19398369
-0.057432324 0.011529858 0.19545658
-0.0572985 0.0083145583 0.19719207
-0.051432479 0.029931527 0.18211117
-0.052535284 0.028233303 0.18323401
-0.052803263 0.025256312 0.18467151
-0.053233147 0.021780625 0.18684042
-0.053667106 0.017678099 0.18941616
-0.054319501 0.013883906 0.19167338
-0.055020712 0.010509468 0.19393858
-0.055378161 0.007522183 0.19654308
-0.054864265 0.0037790253 0.19843094
-0.054734714 0.00048207139 0.2005249
-0.047843594 0.03317415 0.17989744
-0.048576538 0.031203559 0.18054415
-0.048889514 0.028679052 0.18121225
-0.049492534 0.025916774 0.18221191
-0.0501872 0.022090577 0.18517399
-0.050320838 0.01642243 0.18873601
-0.051088978 0.012462123 0.19080228
-0.051825989 0.0094028227 0.1931873
-0.052062057 0.0061768889 0.19592984
-0.052238885 0.0024061892 0.19812353
-0.052702606 -0.00078016624 0.20008975
-0.053315546 -0.002757547 0.20292856
-0.053070981 -0.0040207529 0.20539047
-0.052860513 -0.0050517181 0.20708594
-0.045426875 0.034291327 0.17903204
-0.045599137 0.03166512 0.17954792
-0.045967206 0.029037964 0.18049709
-0.046479177 0.026501112 0.18193896
-0.047280096 0.023110449 0.18398215
-0.047439031 0.014600616 0.18829583
-0.048350934 0.010722847 0.19099553
-0.049094111 0.0076691648 0.19320603
-0.049416024 0.0035937582 0.19577001
-0.049816571 0.0001223361 0.19693461
-0.050077524 -0.0022670738 0.19935212
-0.050159678 -0.0033540227 0.20184389
-0.0502715 -0.0039191451 0.20556571
-0.050927464 -0.0057409992 0.20804279
-0.0513997 -0.008080286 0.2107584
-0.050955594 -0.01133495 0.21397565
-0.042153932 0.037743509 0.17814685
-0.042570159 0.035075959 0.17892949
-0.042735428 0.032153547 0.17965582
-0.043073025 0.029529143 0.18071884
-0.043796811 0.026720973 0.1824038
-0.044398963 0.023458246 0.1840931
-0.044924416 0.015474637 0.18674654
-0.046468254 0.0092366058 0.19069523
-0.046957359 0.0054238499 0.19321862
-0.047195103 0.0010493692 0.19556794
-0.047500283 -0.0031503695 0.19600993
-0.04785873 -0.0041359458 0.19775333
-0.047056865 -0.0034414609 0.20110828
-0.046943214 -0.0042908452 0.20542294
-0.047220517 -0.0063114944 0.2085229
-0.048237711 -0.0092117833 0.21100232
-0.049043726 -0.012135732 0.21349451
-0.050009187 -0.013732508 0.21810545
-0.039426252 0.039138287 0.17774807
-0.040200878 0.035618719 0.17924315
-0.039800245 0.032698788 0.18001096
-0.040367644 0.030016014 0.18122101
-0.040913507 0.027270319 0.18269415
-0.04133258 0.024032304 0.1842394
-0.042139105 0.018294292 0.18602306
-0.044794947 0.0077304184 0.19069815
-0.044754084 0.0036949867 0.19306412
-0.044438556 -0.00088579085 0.19464324
-0.044831581 -0.0044420124 0.19487078
-0.044388052 -0.0048817932 0.19772559
-0.043610189 -0.0037826546 0.20134999
-0.043579843 -0.00483179 0.20528403
-0.043780725 -0.0072658253 0.20867857
-0.044340339 -0.010423593 0.21120933
-0.045652166 -0.012767917 0.21399669
-0.047243591 -0.013679678 0.21878624
-0.047631886 -0.015825549 0.22305256
-0.047122017 -0.018293152 0.22591877
-0.035961911 0.041745536 0.17623354
-0.03636124 0.039835483 0.17788839
-0.035605758 0.036944032 0.17932849
-0.036718164 0.033927139 0.18006699
-0.037358299 0.030961104 0.18155096
-0.037987009 0.027703973 0.18338291
-0.037931673 0.024453012 0.1848032
-0.039696209 0.01791841 0.18661618
-0.04249841 0.007406563 0.19028063
-0.042013295 0.0032686025 0.19240616
-0.041364137 -0.0013047175 0.19322231
-0.040967356 -0.0042875921 0.19481725
-0.040056661 -0.0044526514 0.1982898
-0.039809085 -0.0038837933 0.20100695
-0.039982498 -0.0056587034 0.20471729
-0.040554527 -0.0085398229 0.20712988
-0.041636858 -0.011202964 0.20941561
-0.04323468 -0.013173143 0.2121802
-0.043563865 -0.014260476 0.21754277
-0.043742448 -0.016616885 0.22169968
-0.044617616 -0.019045366 0.22556368
-0.044307116 -0.021172633 0.2275379
-0.033499386 0.042184304 0.17639761
-0.033409916 0.040394269 0.17809674
-0.033413641 0.037495572 0.17932718
-0.033695661 0.034348886 0.18010023
-0.033846654 0.031544071 0.18180336
-0.034297958 0.028363841 0.18451439
-0.034239624 0.024936594 0.18607375
-0.037157554 0.017431578 0.18755336
-0.039785281 0.0085900836 0.18977152
-0.038478918 0.0040133074 0.19205791
-0.037793804 -0.00021044689 0.19279115
-0.036538154 -0.0030068196 0.19454847
-0.035777856 -0.0029889529 0.19784401
-0.035898745 -0.0045458754 0.20061632
-0.036731299 -0.0064976383 0.20360091
-0.037303366 -0.0087790219 0.20602466
-0.038714107 -0.010899138 0.20969482
-0.040373631 -0.013247008 0.21277954
-0.040185034 -0.01468992 0.21716742
-0.0401689 -0.016902983 0.22090368
-0.040703829 -0.019495999 0.2245141
-0.041039612 -0.021920817 0.22709449
-0.030593153 0.042553488 0.17699225
-0.030575657 0.040906414 0.17819542
-0.030749355 0.037811089 0.17993009
-0.030846357 0.034426723 0.18129751
-0.030746987 0.031713333 0.18280399
-0.030907048 0.028669517 0.18530251
-0.030915085 0.024941055 0.18781421
-0.031656057 0.020482849 0.18930276
-0.036484394 0.011268941 0.18969645
-0.035089295 0.0060783727 0.19230299
-0.032711051 0.0034769399 0.19467951
-0.032273483 0.0014831146 0.19723886
-0.032783292 -0.00089655712 0.19971602
-0.032854836 -0.0033212327 0.20200881
-0.033510413 -0.0056873281 0.20491061
-0.034268782 -0.0079880664 0.20742491
-0.035790376 -0.010055318 0.21107669
-0.037358612 -0.012491381 0.21448669
-0.03722832 -0.013970742 0.21774481
-0.036958218 -0.015904166 0.22149312
-0.03757406 -0.019563144 0.22409579
-0.037131879 -0.021975787 0.22645925
-0.027567254 0.042981856 0.1774933
-0.027631765 0.041212089 0.178789
-0.02769115 0.038250405 0.18043421
-0.027803909 0.035044715 0.18227527
-0.027737265 0.032328982 0.18395348
-0.028058356 0.029253298 0.18651094
-0.028176203 0.025637435 0.18902232
-0.027936077 0.022096729 0.19043107
-0.031311598 0.01522613 0.19121537
-0.031424347 0.0082658017 0.19327237
-0.028559363 0.0057598576 0.19672899
-0.028456358 0.0030763708 0.19955961
-0.029077535 0.00065988197 0.20170407
-0.02965609 -0.00053309253 0.20315385
-0.031118684 -0.0046385513 0.20682099
-0.031573888 -0.0064475066 0.20900276
-0.033128027 -0.0086784782 0.2126625
-0.034482889 -0.011241411 0.21613193
-0.033870168 -0.012716408 0.21918155
-0.033795826 -0.014892829 0.22373757
-0.033427536 -0.018059438 0.22555839
-0.03371378 -0.02199037 0.2272072
-0.033439305 -0.024128376 0.22983493
-0.024625715 0.043328278 0.17844835
-0.024748016 0.041564729 0.17966576
-0.024576508 0.038859721 0.18087883
-0.024663713 0.035670817 0.18280391
-0.024814118 0.032874074 0.18490934
-0.025222881 0.029820135 0.18758762
-0.025386425 0.026266055 0.19019943
-0.025306661 0.022490893 0.19176711
-0.026249478 0.017872062 0.19362362
-0.027600016 0.011080072 0.194985
-0.025047742 0.0077500762 0.19891743
-0.024591742 0.0044738944 0.20098324
-0.024432201 0.0018325933 0.20338844
-0.025494827 -0.00011901577 0.20608731
-0.027096825 -0.0024639694 0.20902322
-0.028771512 -0.0049455161 0.21131648
-0.030208532 -0.0072177188 0.21466561
-0.030439327 -0.0094397422 0.21814726
-0.029973442 -0.012037527 0.22095723
-0.030301705 -0.014907518 0.22485666
-0.030145546 -0.018531786 0.22648366
-0.030279756 -0.022447005 0.22798824
-0.030328892 -0.024738526 0.2308142
-0.022507373 0.0439137 0.17884172
-0.021836149 0.041891534 0.18074292
-0.021351753 0.039541759 0.1820087
-0.021335822 0.036506318 0.18357316
-0.021640774 0.033488795 0.18627819
-0.022257688 0.030758344 0.18850864
-0.022613799 0.026909735 0.19124389
-0.022511356 0.023012059 0.19355609
-0.022694223 0.019528728 0.19606148
-0.022960359 0.015004881 0.19890381
-0.022406522 0.010125913 0.20112988
-0.02139486 0.0061464594 0.20261869
-0.021438563 0.0032637897 0.20498423
-0.022598829 0.00067260728 0.20793417
-0.024007978 -0.0015688076 0.21087636
-0.024973851 -0.0038441727 0.21346466
-0.025852853 -0.0062153717 0.21656576
-0.025977615 -0.0090842424 0.22001319
-0.026301408 -0.012378465 0.2219065
-0.027057156 -0.015721679 0.22557469
-0.026680026 -0.019301133 0.22642402
-0.026864305 -0.023196176 0.228276
-0.02696795 -0.025722405 0.23127086
-0.018289587 0.042035926 0.18223912
-0.018707346 0.039241429 0.1837811
-0.018137693 0.036825985 0.18517798
-0.018549351 0.03412807 0.18727821
-0.019051721 0.031347398 0.18967174
-0.019581441 0.028285777 0.19206962
-0.019488484 0.023815941 0.19526315
-0.019703772 0.020031346 0.1978147
-0.020223431 0.016326532 0.20022158
-0.019919345 0.012507464 0.20244491
-0.018985528 0.0084396284 0.20421305
-0.018636189 0.0046333689 0.20664513
-0.019468628 0.0015703004 0.20965908
-0.02059014 -0.00074845843 0.21297108
-0.021384645 -0.0032262004 0.21564341
-0.021981679 -0.0059804651 0.2190095
-0.022315152 -0.0090659633 0.2218377
-0.022575408 -0.012596367 0.22363284
-0.023447473 -0.016567837 0.22658317
-0.023191828 -0.020111581 0.22600141
-0.023394544 -0.023623133 0.2272855
-0.023638325 -0.026265588 0.23112175
-0.015623416 0.040018566 0.18510361
-0.015135851 0.037133928 0.18634246
-0.015409706 0.034274708 0.1879566
-0.015778033 0.031627238 0.19015758
-0.0157708 0.028605232 0.19256821
-0.015874235 0.024899954 0.19659108
-0.017122224 0.020430084 0.19960424
-0.017243126 0.017104587 0.20199175
-0.016902072 0.013760911 0.20383646
-0.016220059 0.010057996 0.20614527
-0.015745563 0.0064944979 0.2082008
-0.016560124 0.0030905979 0.21154486
-0.017403435 2.4219506e-05 0.21488488
-0.017997477 -0.0027072488 0.21825725
-0.018464053 -0.0055589597 0.22149025
-0.018776413 -0.0087314649 0.22348128
-0.018916139 -0.012287036 0.22491254
-0.019470068 -0.015998229 0.22661595
-0.019691395 -0.019528637 0.22698551
-0.019738164 -0.023329193 0.22863646
-0.020057386 -0.026585296 0.23259725
-0.012477893 0.037250809 0.18738346
-0.012189426 0.0345998 0.18878241
-0.012362455 0.031846728 0.19085239
-0.012374735 0.028785856 0.19270539
-0.011842809 0.025562717 0.197035
-0.012623217 0.02183393 0.20124345
-0.014186346 0.017909961 0.20439294
-0.014245607 0.014670157 0.20642461
-0.013548806 0.011322425 0.20824383
-0.012999554 0.0078339856 0.21013655
-0.013596061 0.00421861 0.21343061
-0.014220613 0.00088501477 0.21668325
-0.014620296 -0.0019131075 0.21985364
-0.014779247 -0.005002182 0.22304371
-0.014806681 -0.0084220618 0.22461234
-0.015351664 -0.01218046 0.22528167
-0.015628329 -0.015716366 0.22700571
-0.015830833 -0.01938143 0.22801527
-0.01635525 -0.023278063 0.23061123
-0.016103033 -0.026282713 0.23420703
-0.0097315321 0.034451537 0.18945825
-0.0091043264 0.032003589 0.19144975
-0.0086338092 0.028988702 0.19411299
-0.0083837789 0.025749972 0.19785057
-0.0091639971 0.022246372 0.20210584
-0.010289093 0.018773623 0.2055753
-0.010840585 0.015565415 0.20799518
-0.010629876 0.012405268 0.20978007
-0.010211816 0.0092516718 0.21137831
-0.010463707 0.0056687682 0.21483386
-0.010702888 0.0019734174 0.21794631
-0.010736551 -0.0011410018 0.22094363
-0.010783658 -0.004683875 0.22327441
-0.010745684 -0.0082265865 0.2250189
-0.010975878 -0.011793545 0.22491658
-0.011410085 -0.01554673 0.22792955
-0.011516042 -0.018793978 0.22939998
-0.011917489 -0.023900462 0.23360965
-0.0054145041 0.031551305 0.19411992
-0.005079729 0.028853856 0.19651948
-0.0052786358 0.024903433 0.19929372
-0.0061545656 0.022914087 0.20191014
-0.006511752 0.018847631 0.20620713
-0.0069811437 0.016090704 0.20844336
-0.0071214992 0.013264642 0.21062201
-0.0067321695 0.010182186 0.21296948
-0.0071930336 0.0068716514 0.21586747
-0.0070280442 0.0029035504 0.21895909
-0.0071357959 -0.00075936882 0.22242258
-0.0068787253 -0.0044926712 0.22300234
-0.0069300286 -0.0081139887 0.22485109
-0.0070239352 -0.011782541 0.22538923
-0.007344408 -0.015427853 0.22802949
-0.0083497213 -0.018944522 0.23024625
-0.0096340282 -0.022204034 0.23222397
-0.0017309241 0.028088009 0.19854805
-0.0020246801 0.024600342 0.19988702
-0.001208534 0.021412065 0.20196503
-0.0021885317 0.018891376 0.20517133
-0.0024940528 0.015795622 0.20807269
-0.0025164995 0.01331133 0.21091604
-0.0025030952 0.010557115 0.21387474
-0.0032064663 0.0033620396 0.21940497
-0.0031918474 -0.00055929739 0.22248843
-0.0031005642 -0.0044369046 0.22285607
-0.0031654902 -0.0082770009 0.22416201
-0.0038380071 -0.011894967 0.22523953
-0.0047769486 -0.014806678 0.22763406
0.00091533159 0.027004879 0.19923785
0.0010439383 0.024345061 0.20011781
0.0013459992 0.021359578 0.20192292
0.0015572876 0.01866845 0.20487189
0.0015319568 0.015680321 0.20786402
0.0013426939 0.013126181 0.21094014
0.0012486692 0.010690059 0.21371804
0.00070723146 0.0078922305 0.21649404
0.00078750239 0.0041740164 0.21849699
0.00011708596 -4.6568792e-05 0.22117871
-0.000381438 -0.0040961723 0.2227267
0.0034967507 0.023943586 0.20041475
0.0047492585 0.021670055 0.20211922
0.0047522001 0.018639833 0.20497367
0.0044355653 0.015826292 0.20750871
0.0042431322 0.013447916 0.21038643
0.0040067332 0.011658587 0.2128067
0 0 0 1 0 0 0 1 0 0 0 1 0 0 0 0 0 348 1 0 0
