ply
format ascii 1.0
comment PCL generated
element vertex 348
property float x
property float y
property float z
element camera 1
property float view_px
property float view_py
property float view_pz
property float x_axisx
property float x_axisy
property float x_axisz
property float y_axisx
property float y_axisy
property float y_axisz
property float z_axisx
property float z_axisy
property float z_axisz
property float focal
property float scalex
property float scaley
property float centerx
property float centery
property int viewportx
property int viewporty
property float k1
property float k2
end_header
-0.054397546 0.032345913 0.18601322
-0.05561262 0.030051295 0.18722045
-0.056616783 0.027112598 0.18881831
-0.057578292 0.023952102 0.1911336
-0.058629662 0.020687751 0.1932368
-0.059199158 0.017443283 0.19464779
-0.059299823 0.014014111 0.19535196
-0.050506793 0.034177538 0.18177232
-0.051602494 0.03269976 0.18342499
-0.052276161 0.029948678 0.18482938
-0.053093243 0.026796762 0.18613674
-0.053995438 0.023644276 0.18883939
-0.054912779 0.020503169 0.19133747
-0.055851001 0.017365394 0.19328827
-0.056825634 0.013774974 0.19496092
-0.057582401 0.009402792 0.19597933
-0.057254281 0.0056530493 0.19765197
-0.046981733 0.036519568 0.17885195
-0.04768246 0.034696024 0.17986807
-0.048045516 0.032342702 0.18123582
-0.048572764 0.029722907 0.18277672
-0.049765423 0.026714573 0.18539906
-0.050621178 0.023270583 0.18913324
-0.051565368 0.020212797 0.19133402
-0.052520212 0.017241344 0.19346976
-0.053634517 0.013756903 0.19474413
-0.054472063 0.009345674 0.19558641
-0.054606244 0.005211967 0.19777288
-0.055091139 0.0018580001 0.20018885
-0.055034015 -0.00095219247 0.2024959
-0.054687463 -0.0025466683 0.20603515
-0.044442639 0.037300508 0.17776456
-0.044653609 0.034789987 0.17880635
-0.044957843 0.032323327 0.1804135
-0.045494374 0.030028269 0.18273845
-0.04631852 0.027057178 0.18529484
-0.047666024 0.022872254 0.19010517
-0.048667219 0.019705603 0.19256054
-0.049764451 0.016661739 0.19408588
-0.050928816 0.012780698 0.19448142
-0.051291801 0.0085791033 0.19484104
-0.051404104 0.0049941246 0.19761285
-0.05152902 0.0022235976 0.20038439
-0.05217839 -0.00052528497 0.20420015
-0.052662089 -0.0029498767 0.20784366
-0.052967325 -0.0053250939 0.21111915
-0.052541669 -0.0086038373 0.21425945
-0.041051969 0.040236622 0.17650092
-0.041598573 0.037798535 0.17753591
-0.041747387 0.035098199 0.17896545
-0.042005189 0.0326434 0.18071914
-0.042780206 0.030247457 0.18350762
-0.043374944 0.027439868 0.18597302
-0.044281736 0.023460755 0.18982434
-0.046084475 0.019400029 0.19322282
-0.047254238 0.015871732 0.19475514
-0.04795064 0.011746909 0.19448818
-0.047890253 0.0072230073 0.19459903
-0.048112821 0.0043105572 0.19730905
-0.04841432 0.0026079738 0.20155033
-0.049083184 6.4372391e-05 0.2058088
-0.049466867 -0.002627712 0.2093949
-0.049878791 -0.0057297703 0.21202829
-0.050190691 -0.0089382706 0.21430254
-0.050834097 -0.011954718 0.21829054
-0.038219474 0.041342206 0.17654724
-0.039211102 0.03816165 0.17792638
-0.038791899 0.035510905 0.17931031
-0.039307538 0.03313151 0.18138756
-0.039863274 0.030686174 0.18370442
-0.040311426 0.027826564 0.18606828
-0.041172009 0.02408443 0.18937638
-0.043735713 0.018747693 0.19440223
-0.044582278 0.015165063 0.1961602
-0.044652626 0.011034361 0.19575973
-0.044430077 0.0069474443 0.19607168
-0.04479605 0.0045361845 0.19934788
-0.04522299 0.0029564074 0.20366906
-0.045887832 0.00062975864 0.20763358
-0.046242505 -0.0023776046 0.21136312
-0.046415672 -0.0058258204 0.21373507
-0.046854515 -0.0088142296 0.21613137
-0.047759134 -0.012081217 0.21885392
-0.048168987 -0.015881043 0.22188497
-0.047649588 -0.01926101 0.22402135
-0.034786977 0.043671194 0.17575806
-0.035372388 0.041831829 0.1772273
-0.03481032 0.038924869 0.17872922
-0.035978939 0.036197174 0.17989504
-0.036609635 0.033658408 0.18197054
-0.037096649 0.030922275 0.18437256
-0.03718954 0.028152524 0.18671758
-0.038434926 0.024170291 0.19037525
-0.040560592 0.018637642 0.19571272
-0.041316114 0.015065181 0.19813348
-0.041538808 0.010994995 0.19834363
-0.041251656 0.0074681751 0.19897658
-0.041363619 0.0048306789 0.20237428
-0.041558973 0.0033319111 0.20651649
-0.042756759 0.0012318414 0.2102091
-0.043035135 -0.0018416647 0.21310134
-0.04322822 -0.0048931492 0.21544163
-0.043684535 -0.0082689086 0.21703885
-0.043734871 -0.011740839 0.21833292
-0.044281527 -0.015654681 0.22078559
-0.044966415 -0.019617971 0.22383873
-0.044689354 -0.022222264 0.22546554
-0.03244124 0.04384597 0.17603715
-0.03251135 0.042177446 0.17778032
-0.032725155 0.039636157 0.17935838
-0.033175606 0.036864776 0.18081135
-0.033532705 0.034175336 0.18281385
-0.034132075 0.031187927 0.18566006
-0.034263138 0.028410222 0.18814924
-0.03547078 0.024295885 0.19168043
-0.03731497 0.019193327 0.19624636
-0.037783347 0.015264631 0.19980486
-0.038056053 0.011619201 0.20098163
-0.03756278 0.0078517012 0.20153305
-0.037631832 0.0056250277 0.2052917
-0.038355883 0.0042032846 0.20914051
-0.039301425 0.0018730739 0.21233211
-0.039769907 -0.00076154014 0.21494704
-0.040422209 -0.0037859688 0.21742176
-0.040593218 -0.0076963692 0.21839841
-0.040147096 -0.011690523 0.21914019
-0.040452115 -0.015421245 0.22093663
-0.04090314 -0.019243957 0.22325599
-0.041087698 -0.022388883 0.22547162
-0.029444756 0.044034284 0.17680612
-0.029589107 0.042392526 0.17802702
-0.0299595 0.039919868 0.17999728
-0.030494843 0.03712691 0.18234734
-0.030663323 0.034517191 0.18425889
-0.031047191 0.031503793 0.18696919
-0.031198256 0.028456558 0.18982662
-0.03166692 0.024944685 0.19200329
-0.03375924 0.020197246 0.19612977
-0.034224544 0.015796535 0.20021485
-0.033298399 0.011605946 0.20268114
-0.03349375 0.0088125616 0.20511927
-0.034431569 0.0069603357 0.20770322
-0.035103422 0.0048638857 0.21068002
-0.035697252 0.0025753493 0.21396624
-0.03647162 -2.0660657e-06 0.21649091
-0.03706551 -0.003528106 0.21855804
-0.037205353 -0.0074717677 0.21968366
-0.036734074 -0.011349148 0.22024998
-0.036817007 -0.014839645 0.22237468
-0.03760789 -0.01954245 0.22346084
-0.037085544 -0.022453114 0.22595252
-0.026497038 0.044186141 0.17720705
-0.026605295 0.042455446 0.17861369
-0.026918922 0.039883241 0.18039636
-0.027376218 0.03747182 0.18335608
-0.027598737 0.034715284 0.18537837
-0.027995918 0.031743016 0.1878055
-0.028228825 0.02863496 0.19046912
-0.028326664 0.025265314 0.19244076
-0.029950706 0.021177255 0.19607633
-0.030672323 0.016522016 0.20075862
-0.029749323 0.012599329 0.20427322
-0.030321503 0.009931135 0.20741433
-0.030936562 0.0076132985 0.20959583
-0.031255964 0.0064778635 0.2107366
-0.032773618 0.0024871589 0.21534765
-0.03273036 0.00016813527 0.21712014
-0.033370201 -0.0033667258 0.21929029
-0.033790957 -0.007295771 0.22062157
-0.033145979 -0.011089654 0.22148564
-0.03327186 -0.014951596 0.22411393
-0.033160672 -0.018655939 0.22547926
-0.03357086 -0.022484791 0.22732353
-0.033636168 -0.024508677 0.23059899
-0.023467312 0.044398736 0.17829935
-0.023740781 0.042679083 0.17947271
-0.023821488 0.03996079 0.18064398
-0.024147434 0.037488554 0.18331681
-0.024596781 0.034876015 0.18589655
-0.024899427 0.031911887 0.18829972
-0.025070876 0.028888106 0.19128287
-0.025390884 0.025353715 0.19364777
-0.026362948 0.021818291 0.19678995
-0.027171349 0.017523648 0.20150915
-0.026575027 0.013691588 0.20579396
-0.027204433 0.011305175 0.20901206
-0.027684001 0.0090090819 0.21182755
-0.027994795 0.0065586218 0.21395656
-0.028324364 0.0033637811 0.21638027
-0.029080158 1.0611955e-05 0.21786155
-0.029267486 -0.0040530199 0.21893813
-0.029309891 -0.0076906667 0.22048746
-0.029206963 -0.01120481 0.22220258
-0.029489093 -0.01507874 0.22498621
-0.029833414 -0.0189915 0.22703981
-0.030232528 -0.022727689 0.22883214
-0.030504249 -0.02502515 0.23158626
-0.021304904 0.044753086 0.1785558
-0.020939277 0.042681307 0.18044785
-0.020687858 0.040351 0.18174951
-0.020841273 0.037658427 0.18350704
-0.021192918 0.034967978 0.18645504
-0.021664696 0.032189224 0.18870166
-0.022022286 0.028954601 0.19195935
-0.022268791 0.02561368 0.1951444
-0.022909436 0.022263011 0.19811668
-0.0236871 0.018491013 0.20288131
-0.023680992 0.014771316 0.20651849
-0.023836838 0.01207092 0.20957114
-0.024227969 0.0096527645 0.21257779
-0.0247379 0.0067277225 0.21528654
-0.025085948 0.0032437139 0.21684776
-0.025092894 -5.0301431e-05 0.21809667
-0.025337102 -0.0036930414 0.2199503
-0.025508599 -0.0075937645 0.22216192
-0.025584787 -0.011344304 0.22277266
-0.026250027 -0.015664712 0.22617331
-0.0264029 -0.019200947 0.22812556
-0.026780637 -0.023040226 0.2295021
-0.027123166 -0.025956957 0.2326842
-0.0176112 0.042803049 0.18198663
-0.018293746 0.040102046 0.18356279
-0.017818084 0.037766207 0.18497042
-0.017945338 0.035036385 0.18666099
-0.018325832 0.032368615 0.18904291
-0.018701283 0.029456826 0.19192819
-0.01894545 0.025814943 0.19666535
-0.019656802 0.022220412 0.19984008
-0.020417439 0.018818237 0.20327471
-0.020459251 0.015550636 0.20639841
-0.020384409 0.012478502 0.20949693
-0.020687519 0.0099699469 0.2128765
-0.021262266 0.0067322911 0.21587348
-0.021433905 0.003455858 0.21798721
-0.021535888 1.133159e-05 0.21986908
-0.021787541 -0.0036310961 0.22238021
-0.022019163 -0.0075086858 0.22397119
-0.022002278 -0.011588252 0.2245048
-0.022569817 -0.016053814 0.22728583
-0.022715785 -0.019471733 0.22809261
-0.02305215 -0.023275753 0.22888406
-0.023505354 -0.026183486 0.23269096
-0.015287658 0.040980384 0.18505572
-0.014884636 0.038076565 0.18640387
-0.014999736 0.035264298 0.18759042
-0.015114253 0.032508839 0.18948266
-0.015293926 0.029384706 0.19199902
-0.015499696 0.02626046 0.19712497
-0.016578719 0.021979267 0.20130548
-0.016865693 0.019043364 0.20397483
-0.01677292 0.01574672 0.20630117
-0.016849093 0.012818452 0.20933428
-0.016920025 0.010144052 0.2126209
-0.017326113 0.0067032254 0.21581854
-0.017649941 0.0033557853 0.21896926
-0.017859245 -0.00011825971 0.22210142
-0.018072784 -0.0036903799 0.22451746
-0.018349702 -0.0074817799 0.22566874
-0.018386979 -0.011516949 0.22608911
-0.018757297 -0.015380882 0.22713372
-0.019144686 -0.018970495 0.22849299
-0.019370571 -0.022906823 0.23020248
-0.019824773 -0.026455738 0.2341917
-0.012337551 0.038179141 0.18758154
-0.011939798 0.03556893 0.18866473
-0.011991545 0.032639906 0.19052617
-0.012076739 0.029419884 0.19218999
-0.012002015 0.02625636 0.19683659
-0.012284753 0.022833733 0.20183165
-0.013105855 0.019259775 0.20525222
-0.013276125 0.016120257 0.20759343
-0.013287199 0.013258816 0.21043281
-0.013447222 0.010345022 0.21323781
-0.013706352 0.0067552724 0.21655081
-0.014018361 0.003173393 0.21971723
-0.014167495 -0.00018909489 0.22235127
-0.014145802 -0.0038757636 0.22490261
-0.014451997 -0.0076063313 0.22619672
-0.014722396 -0.011304677 0.22628132
-0.014917871 -0.015059068 0.22754323
-0.015350845 -0.01890431 0.22902644
-0.01593917 -0.022984087 0.23208214
-0.015784163 -0.026148595 0.23574664
-0.0094678029 0.035300061 0.18937881
-0.0088353269 0.032726023 0.19116127
-0.0086208843 0.029429441 0.19339332
-0.0085254628 0.026307629 0.19749109
-0.0088264011 0.023336932 0.20264183
-0.0093185697 0.020007823 0.20658128
-0.0097189713 0.016809244 0.20872463
-0.0098963091 0.013780075 0.21098694
-0.0099467607 0.010666201 0.21304254
-0.010005546 0.0072623212 0.21649401
-0.010156376 0.0031263041 0.21919644
-0.010213032 -0.00047383079 0.22185409
-0.010276089 -0.0041843215 0.22392759
-0.010488022 -0.0077531268 0.22568555
-0.010864139 -0.011212902 0.22526388
-0.010946551 -0.015154569 0.22819337
-0.011012652 -0.018643608 0.22985734
-0.011347499 -0.023828523 0.23432754
-0.0054481663 0.031745914 0.19337721
-0.0051375371 0.029289469 0.19603103
-0.0052062012 0.026109209 0.19995952
-0.005757242 0.02406978 0.20252372
-0.0057582776 0.019915193 0.20717318
-0.0060536778 0.017165001 0.209356
-0.006216933 0.014200484 0.21123059
-0.0060107666 0.010987123 0.2132066
-0.0063481312 0.0076493314 0.21634017
-0.0064880815 0.0029974559 0.21858853
-0.006332498 -0.00078835111 0.22213185
-0.0066148825 -0.0044462201 0.22293521
-0.0067238612 -0.0078677097 0.22492379
-0.0069337562 -0.011299061 0.22546308
-0.0070247795 -0.015207084 0.22802737
-0.0078349691 -0.018947184 0.23027995
-0.0089297732 -0.022118876 0.23213083
-0.0015581679 0.028917762 0.19847171
-0.001772211 0.02596451 0.20083441
-0.0011450551 0.022810942 0.20340645
-0.0020922648 0.019983815 0.20629729
-0.0021482054 0.016616913 0.20834883
-0.0023213045 0.013656738 0.21058595
-0.0021824462 0.010549963 0.21293941
-0.0028046411 0.0028524441 0.2178534
-0.0026651802 -0.0010694015 0.22126967
-0.0029652156 -0.004643559 0.22215386
-0.0031106391 -0.0080104582 0.22376418
-0.0038288664 -0.011453901 0.22488636
-0.004467898 -0.014502183 0.22738257
0.001387986 0.028080611 0.19969596
0.001442709 0.025562489 0.20110473
0.0013491922 0.022573866 0.20314558
0.0011896061 0.019346349 0.20513308
0.001268446 0.015924308 0.20705231
0.0012381498 0.012837473 0.20939688
0.0013107746 0.0099885752 0.21188894
0.00089296885 0.0070007173 0.2145174
0.00063393835 0.0032920325 0.21621223
0.00012253798 -0.0010037979 0.21913394
-0.00035080922 -0.0043538637 0.22141077
0.0040683583 0.024794605 0.20136547
0.0044680131 0.022214994 0.20241287
0.00441095 0.018869603 0.20372489
0.0041694189 0.015609587 0.20605303
0.0039182398 0.01270011 0.20839822
0.0037955916 0.010695594 0.21052445
0 0 0 1 0 0 0 1 0 0 0 1 0 0 0 0 0 348 1 0 0
