ply
format ascii 1.0
comment PCL generated
element vertex 348
property float x
property float y
property float z
element camera 1
property float view_px
property float view_py
property float view_pz
property float x_axisx
property float x_axisy
property float x_axisz
property float y_axisx
property float y_axisy
property float y_axisz
property float z_axisx
property float z_axisy
property float z_axisz
property float focal
property float scalex
property float scaley
property float centerx
property float centery
property int viewportx
property int viewporty
property float k1
property float k2
end_header
-0.05591014 0.023668075 0.18833311
-0.056521647 0.021263158 0.18998395
-0.057093155 0.018008199 0.19165933
-0.057436414 0.01476334 0.19336459
-0.057602923 0.011651857 0.19509915
-0.057491001 0.0087865284 0.19686915
-0.057007473 0.0061295978 0.19858162
-0.052682381 0.025800806 0.18564782
-0.053425029 0.024474621 0.18611875
-0.053477265 0.021854885 0.18751678
-0.053899407 0.018506709 0.18903965
-0.054260429 0.01471613 0.19079889
-0.054809753 0.011225244 0.19267394
-0.055356249 0.008071932 0.19523002
-0.054757733 0.0048536258 0.19731048
-0.052476849 0.0011154962 0.19839305
-0.052915055 -0.0018964694 0.20031151
-0.050205372 0.028589556 0.18388887
-0.050570507 0.026924534 0.18489008
-0.05058372 0.024838651 0.18574283
-0.050851237 0.022456706 0.18667638
-0.050982602 0.018809246 0.18796314
-0.050876576 0.014114784 0.1896852
-0.051234208 0.010324121 0.19148867
-0.051524725 0.0070973635 0.19378729
-0.050900791 0.0032308665 0.19555679
-0.05024014 -0.00073093071 0.19804151
-0.051430795 -0.0034042296 0.20022239
-0.052562892 -0.0049386788 0.2028963
-0.052616507 -0.0061924569 0.20497127
-0.052511618 -0.0073514986 0.20543893
-0.047928993 0.029630866 0.18272221
-0.04798172 0.027568854 0.18389542
-0.048184998 0.025351375 0.18509822
-0.048567228 0.023054291 0.18645187
-0.048942875 0.019776518 0.18783529
-0.047892258 0.012850923 0.18909426
-0.048264276 0.0088092042 0.19137916
-0.048335511 0.005144611 0.19321491
-0.048030864 0.00010037027 0.19513826
-0.04880761 -0.0034169126 0.19718967
-0.049027663 -0.005506739 0.19881888
-0.049510159 -0.006330431 0.20119919
-0.049961731 -0.006541993 0.20452625
-0.050696634 -0.0080242567 0.20651892
-0.051232412 -0.010397295 0.20878822
-0.050880551 -0.013886819 0.21211556
-0.044952303 0.032791592 0.18042736
-0.045209128 0.030879455 0.18190762
-0.045318231 0.028394211 0.18357551
-0.045647241 0.026004134 0.18487658
-0.046129674 0.023428638 0.18624105
-0.046628546 0.020088388 0.18735853
-0.046179399 0.01374023 0.18803436
-0.046546448 0.0073004002 0.19132666
-0.046246707 0.0023986094 0.19288905
-0.047118902 -0.0032292285 0.19490428
-0.048389751 -0.0075627761 0.19600573
-0.048078652 -0.008413827 0.19766235
-0.047087315 -0.006851872 0.19981726
-0.046722285 -0.0070567909 0.20424533
-0.047119137 -0.0085588647 0.20726907
-0.048058245 -0.011484641 0.2093652
-0.049016107 -0.014579266 0.21151866
-0.050232071 -0.016755763 0.21470463
-0.042617477 0.034516219 0.17921966
-0.042860478 0.031695113 0.18168128
-0.042419743 0.029432025 0.18325715
-0.043021731 0.026763627 0.18481646
-0.043394934 0.024187643 0.18572681
-0.043705948 0.020871965 0.18657219
-0.044237409 0.015567276 0.18715182
-0.045227323 0.0060703359 0.19114892
-0.045024611 6.8901172e-05 0.19212089
-0.04639338 -0.0067734392 0.1934914
-0.046388987 -0.0097761648 0.19510123
-0.045005549 -0.0091166524 0.19768891
-0.044033825 -0.0072633801 0.19956879
-0.043675177 -0.0076394933 0.20385279
-0.043705877 -0.0094200149 0.20724076
-0.044216812 -0.012229135 0.20966966
-0.045814928 -0.014988119 0.21171001
-0.047900416 -0.016931238 0.21495688
-0.048205849 -0.019804843 0.21852113
-0.047628775 -0.022081256 0.2206087
-0.038936689 0.038888689 0.17670146
-0.039474569 0.036505152 0.17857431
-0.038248949 0.03403724 0.1806826
-0.039214354 0.03153519 0.18203533
-0.039604466 0.028547473 0.18329969
-0.040190484 0.024924589 0.18501852
-0.040154848 0.021554627 0.18554053
-0.041865401 0.015598941 0.18668111
-0.043829978 0.0060389675 0.19023469
-0.043011039 0.00018130857 0.19043365
-0.044328574 -0.0082350736 0.19193837
-0.04282039 -0.010137958 0.194876
-0.041497733 -0.0087578874 0.19757986
-0.041239507 -0.0077102175 0.19855033
-0.040547732 -0.0085875308 0.20225683
-0.041013408 -0.010700802 0.2050014
-0.042464077 -0.012901135 0.20701829
-0.044143524 -0.014591851 0.20955656
-0.044361345 -0.017043607 0.21361445
-0.044372153 -0.019989982 0.21732832
-0.045097072 -0.022823129 0.22064385
-0.04427357 -0.024889102 0.22222488
-0.036315549 0.040267412 0.17691475
-0.035991233 0.038481753 0.17870508
-0.035652675 0.035275035 0.1804415
-0.036221959 0.032427069 0.18114656
-0.035820358 0.029843943 0.18188567
-0.035528187 0.026242785 0.18347651
-0.035712518 0.023227882 0.18442838
-0.039373323 0.016321713 0.18603225
-0.04231393 0.0075910487 0.18905225
-0.040368836 0.0020641515 0.18882996
-0.040583752 -0.0091147125 0.19064461
-0.039269749 -0.010816544 0.19384786
-0.038679935 -0.0088947909 0.19496651
-0.038180701 -0.0081415614 0.19724233
-0.038133118 -0.0095736207 0.20034753
-0.038510889 -0.011446653 0.20268251
-0.039959177 -0.013188076 0.20605741
-0.042079311 -0.015329117 0.20908204
-0.041336935 -0.017241379 0.21298818
-0.04090156 -0.01976233 0.21667285
-0.041168366 -0.022613179 0.21993431
-0.041240785 -0.025004871 0.22204915
-0.033176079 0.041074112 0.17747553
-0.033008195 0.039317507 0.17893896
-0.032883316 0.03544496 0.18053547
-0.032996178 0.032034617 0.18087202
-0.032296155 0.029722806 0.18150765
-0.031865798 0.026683634 0.18305603
-0.032710858 0.023079406 0.1848391
-0.033813398 0.019351175 0.18517514
-0.040095057 0.010052865 0.18733931
-0.038005378 0.004332127 0.18804757
-0.036238961 0.00098854629 0.18796375
-0.035787966 -0.0068035997 0.18921913
-0.035316307 -0.0072077406 0.1933378
-0.035206079 -0.0066494038 0.19685812
-0.034912355 -0.0085068252 0.20055263
-0.03529273 -0.011011557 0.20301415
-0.036965489 -0.013074289 0.20690282
-0.038744915 -0.015499331 0.21026713
-0.038486715 -0.017204467 0.21322137
-0.037722606 -0.01936654 0.21684469
-0.038225025 -0.022465015 0.21958379
-0.037806656 -0.024407269 0.22168891
-0.030355576 0.041567609 0.17786124
-0.029960172 0.039748054 0.17913806
-0.029729825 0.035846081 0.18024805
-0.029424762 0.032431521 0.18064556
-0.028695796 0.030074593 0.18166868
-0.028946081 0.026897823 0.183568
-0.029640889 0.023756262 0.18555145
-0.029636493 0.021058157 0.18605818
-0.034461096 0.014361342 0.18600462
-0.034739498 0.0066442112 0.18779641
-0.031623565 0.0043376787 0.1889983
-0.031165184 0.00077957846 0.19091213
-0.03170361 -0.0032263764 0.19307651
-0.031994313 -0.0044494667 0.19533527
-0.032096099 -0.0077080093 0.20201065
-0.032324575 -0.0098718898 0.20416085
-0.033868548 -0.012671336 0.20815016
-0.035334799 -0.015347993 0.21157826
-0.03468946 -0.016895767 0.21405965
-0.034227695 -0.018686553 0.21827634
-0.034173783 -0.021015817 0.22044712
-0.034640793 -0.023859577 0.22279666
-0.034374069 -0.0252361 0.22546522
-0.027196584 0.0420454 0.17821544
-0.026853239 0.040308114 0.17920583
-0.026121859 0.03751703 0.18025915
-0.026046859 0.033639092 0.18105206
-0.025895879 0.030839723 0.18289767
-0.026234338 0.027555369 0.18481222
-0.026802471 0.02438646 0.1862873
-0.02736889 0.021395126 0.18696396
-0.029134877 0.016935367 0.18755867
-0.030675141 0.0095794536 0.18808049
-0.026889684 0.0060116476 0.19147231
-0.026206575 0.0027205611 0.19397567
-0.025587162 -0.00037805884 0.19740786
-0.026478579 -0.0036250751 0.2023697
-0.028025866 -0.0061326143 0.20531717
-0.02935119 -0.0089604137 0.20749462
-0.030464636 -0.012136455 0.21082599
-0.030740913 -0.014610584 0.21451864
-0.031050444 -0.016654091 0.21689612
-0.031357303 -0.018731816 0.21943744
-0.031371444 -0.021098509 0.2215832
-0.031698961 -0.023675965 0.22371651
-0.031510923 -0.02487373 0.22615926
-0.025055412 0.042834636 0.17827593
-0.023537144 0.041136999 0.17965999
-0.022514714 0.038981475 0.18075837
-0.022261906 0.035572365 0.18252128
-0.022786053 0.031834971 0.18487592
-0.023266992 0.028828958 0.18673308
-0.024201093 0.02514928 0.18758065
-0.025209052 0.021653799 0.18860385
-0.025599003 0.018058971 0.19037409
-0.025066625 0.014016228 0.19185469
-0.023609748 0.0086825499 0.19402584
-0.022668825 0.0044142422 0.19647276
-0.022604095 0.00086261122 0.1998205
-0.023625551 -0.0029724033 0.20438862
-0.024645133 -0.0058093942 0.20791069
-0.025454748 -0.0086081875 0.21099932
-0.026315559 -0.011550878 0.21447021
-0.026940024 -0.014303739 0.21781321
-0.0281804 -0.017285541 0.21979272
-0.029280689 -0.019462258 0.22119452
-0.02883276 -0.021336295 0.22201155
-0.028363619 -0.023170529 0.22370127
-0.028138317 -0.025097555 0.22651526
-0.019591218 0.041838896 0.18092866
-0.019608488 0.039089181 0.18260586
-0.018689699 0.036327858 0.18505351
-0.019253636 0.03326131 0.18711287
-0.01981687 0.03034869 0.18919438
-0.020351522 0.027003504 0.19065072
-0.022370489 0.02194248 0.1912815
-0.023080802 0.018728048 0.19262777
-0.022829147 0.01545401 0.19412716
-0.021903707 0.011494248 0.19538848
-0.020459507 0.0068911854 0.19766527
-0.019825619 0.0020301936 0.20252061
-0.020275626 -0.0025021951 0.20694554
-0.020592893 -0.0065931818 0.21134721
-0.021326371 -0.0095071541 0.21420935
-0.022218747 -0.0121778 0.21784776
-0.023761503 -0.01452159 0.22035831
-0.024856012 -0.017260997 0.22204812
-0.026445733 -0.019643148 0.22301833
-0.02573139 -0.021382278 0.2223828
-0.025231969 -0.02346334 0.22339869
-0.025042072 -0.025547409 0.22670379
-0.016527176 0.039769903 0.18471633
-0.015931481 0.037114747 0.18674286
-0.016281636 0.034380589 0.18875597
-0.01658156 0.031686664 0.19066752
-0.015958155 0.028727436 0.19261986
-0.015850568 0.024722438 0.19463596
-0.020261144 0.019719748 0.19501746
-0.020076072 0.016196538 0.19662635
-0.018794365 0.012261706 0.19791257
-0.017139262 0.007891193 0.20118618
-0.016997054 0.0035673394 0.20501576
-0.017220309 -0.0015112263 0.20967856
-0.017170783 -0.0069434945 0.21426284
-0.017473269 -0.010489249 0.21733542
-0.017867917 -0.013522223 0.22045234
-0.020060346 -0.014910547 0.22175241
-0.021723121 -0.01684971 0.22361988
-0.022683013 -0.018784167 0.22398213
-0.022668531 -0.020608759 0.22343551
-0.022094978 -0.023072541 0.22454309
-0.022267466 -0.025997497 0.22831698
-0.013236703 0.037558861 0.18799244
-0.013020298 0.035155565 0.18964981
-0.012874901 0.032616012 0.19135638
-0.012372719 0.029516283 0.19279496
-0.011193504 0.025586622 0.19580775
-0.012950817 0.019815909 0.19885513
-0.015308079 0.015538722 0.20022641
-0.01448114 0.011876917 0.20165665
-0.014434763 0.0086871414 0.20414354
-0.014639384 0.0050415541 0.20666105
-0.014642384 -0.00043828061 0.21183118
-0.01367745 -0.0070329867 0.21668558
-0.013506538 -0.010228202 0.2197073
-0.013490761 -0.013143163 0.22240447
-0.014181744 -0.015372545 0.22337702
-0.017183835 -0.016469814 0.22278373
-0.018629067 -0.018199662 0.22311789
-0.019079419 -0.020553075 0.22377764
-0.019463116 -0.023280831 0.22607389
-0.019308312 -0.025945559 0.22978121
-0.010507712 0.035417456 0.19044386
-0.0094053671 0.032975156 0.19201002
-0.0083180536 0.029627308 0.19402544
-0.0077925576 0.02515297 0.19729953
-0.0091055157 0.01971861 0.20086184
-0.01097822 0.015659828 0.20307596
-0.011437579 0.012335127 0.20491478
-0.011624114 0.0094502177 0.20637099
-0.011937764 0.0061434302 0.20806684
-0.012129477 0.0011621529 0.212598
-0.0098975496 -0.0060320911 0.21866584
-0.0097331936 -0.0092603527 0.22184765
-0.0097780833 -0.012215569 0.22398612
-0.010241295 -0.014437698 0.22521088
-0.011905719 -0.016128948 0.22478044
-0.013794047 -0.018012978 0.22543153
-0.014996081 -0.020679595 0.22625811
-0.01637676 -0.024787795 0.23006304
-0.005113326 0.0311148 0.1945343
-0.0048299236 0.027644644 0.19681802
-0.0054200436 0.023091076 0.19971456
-0.0063252491 0.02051555 0.20165549
-0.0074721808 0.016144656 0.20447932
-0.0080542611 0.012955798 0.2067605
-0.0082217744 0.0099091232 0.20839731
-0.0082655279 0.0066882716 0.21089563
-0.0095043555 0.0027301074 0.21337546
-0.0063606701 -0.0047729691 0.22054996
-0.0063427188 -0.0083999308 0.22387196
-0.0063830293 -0.011526864 0.22486883
-0.0072049722 -0.01406364 0.2263725
-0.0079359049 -0.016245326 0.22728923
-0.0096634813 -0.018650314 0.228752
-0.011944533 -0.021266248 0.22916375
-0.014121841 -0.023912989 0.23035264
-0.0020171658 0.025442801 0.19858319
-0.0023996562 0.022084273 0.20038651
-0.0017265509 0.019066051 0.2019877
-0.003217485 0.016675975 0.2043158
-0.0038034408 0.012949286 0.2077757
-0.0035601575 0.010056922 0.21076791
-0.0034619099 0.0072893929 0.2135397
-0.0028050262 -0.0028095688 0.22150762
-0.0027381082 -0.0076384228 0.22476956
-0.0029241182 -0.011151755 0.22575864
-0.0038078991 -0.013998483 0.22728954
-0.004946962 -0.016285772 0.22831626
-0.0068299267 -0.018472303 0.23022237
0.00016324113 0.023748985 0.1991473
0.00015436612 0.021373529 0.20013262
0.00053333526 0.018905491 0.20144947
0.00076066185 0.016396416 0.20441727
0.00061011437 0.012999351 0.20821896
0.00056657934 0.010154259 0.21132699
0.00063207006 0.0076756403 0.21398658
0.00019401335 0.0049791383 0.21684843
0.00082521891 8.5820815e-05 0.22023918
0.00035270522 -0.005900986 0.22409731
-0.00042772185 -0.01050575 0.22635245
0.0023536719 0.020644667 0.19991966
0.0038780065 0.019014999 0.20145769
0.003938891 0.016375545 0.20511517
0.0036256285 0.013338887 0.20829837
0.0035294765 0.010739787 0.21113117
0.003411103 0.0088041918 0.21344618
0 0 0 1 0 0 0 1 0 0 0 1 0 0 0 0 0 348 1 0 0
