ply
format ascii 1.0
comment PCL generated
element vertex 252
property float x
property float y
property float z
element camera 1
property float view_px
property float view_py
property float view_pz
property float x_axisx
property float x_axisy
property float x_axisz
property float y_axisx
property float y_axisy
property float y_axisz
property float z_axisx
property float z_axisy
property float z_axisz
property float focal
property float scalex
property float scaley
property float centerx
property float centery
property int viewportx
property int viewporty
property float k1
property float k2
end_header
-0.023511369 0.034156069 0.14396645
-0.023535479 0.03233422 0.14531228
-0.023937751 0.030615022 0.14846244
-0.02448573 0.028452102 0.15024783
-0.025202796 0.026360314 0.15281549
-0.025616843 0.023919171 0.15466712
-0.02615194 0.021457573 0.15803483
-0.026352957 0.019277761 0.16024844
-0.020992566 0.033991337 0.14297828
-0.021301251 0.032025453 0.14436698
-0.021705339 0.030519607 0.14801511
-0.022036692 0.028253578 0.14944449
-0.022641579 0.02619289 0.15222503
-0.02305981 0.02392463 0.15364574
-0.023587445 0.021404382 0.15600541
-0.023876823 0.019031316 0.15911168
-0.02393437 0.016609404 0.16150598
-0.023982925 0.014069861 0.16263944
-0.023964383 0.011470454 0.16389424
-0.024213692 0.0088355783 0.16510224
-0.024493702 0.0059819035 0.16499037
-0.024269205 0.0031764931 0.16583559
-0.02448808 0.00058197923 0.1675458
-0.01848348 0.033962924 0.14293176
-0.018918224 0.032246288 0.145622
-0.019297298 0.030389214 0.1480927
-0.019566264 0.028388664 0.14989643
-0.019893795 0.026158135 0.15196405
-0.020423774 0.023917634 0.15377103
-0.020776076 0.021445585 0.15542147
-0.02114852 0.019263452 0.15867123
-0.021182569 0.016858567 0.16118419
-0.021241376 0.014189301 0.16255943
-0.02127178 0.011470594 0.16367032
-0.021457743 0.0089174937 0.16518942
-0.021611009 0.0061553796 0.16541375
-0.021770889 0.0032461772 0.16720754
-0.021814371 0.00044525444 0.16804326
-0.021603175 -0.0018319767 0.1691428
-0.016018609 0.034234423 0.14284669
-0.016563307 0.032514978 0.14689457
-0.016716693 0.030480707 0.14821166
-0.017034557 0.028427616 0.15059432
-0.017326105 0.026205024 0.15241823
-0.017617757 0.023881003 0.15372556
-0.01808673 0.021671671 0.15665475
-0.018335622 0.019508246 0.15941682
-0.018455185 0.01699331 0.16144022
-0.018460976 0.014253885 0.16267309
-0.01851159 0.011629102 0.16441043
-0.018859744 0.0089661432 0.16633864
-0.019003842 0.0061850175 0.16618375
-0.018928669 0.0032621876 0.1679157
-0.019066243 0.00045293558 0.16939048
-0.013673176 0.034181077 0.14327237
-0.014090777 0.033101942 0.14780313
-0.014224137 0.030712521 0.1486395
-0.014546276 0.028516699 0.15096785
-0.014758103 0.026271587 0.15238495
-0.014876992 0.023773676 0.15366624
-0.015416621 0.021778923 0.15725479
-0.015661798 0.019607045 0.16050018
-0.015764939 0.017157078 0.16316137
-0.015697021 0.014298385 0.16519779
-0.015969031 0.011628248 0.16707301
-0.016070701 0.0087636132 0.16749711
-0.015982376 0.0061825756 0.16806556
-0.015845485 0.0033764569 0.16903895
-0.016042462 0.00050857454 0.16984795
-0.016263016 -0.0022907946 0.171904
-0.011372688 0.034657255 0.14435336
-0.011656165 0.033233181 0.14785367
-0.011786358 0.030868337 0.14877151
-0.011897777 0.02841386 0.15077613
-0.012141209 0.02612742 0.15246888
-0.012320839 0.023753285 0.15386748
-0.012790942 0.021794215 0.15764791
-0.013012903 0.019626407 0.16088133
-0.013062779 0.017074775 0.1635332
-0.012973127 0.014381159 0.16640678
-0.013090709 0.011485306 0.16770446
-0.01321917 0.0089767333 0.16952811
-0.013068536 0.0063668634 0.16973668
-0.013082797 0.0034431841 0.17053555
-0.013042017 0.00054804166 0.17087764
-0.013055367 -0.0024542755 0.17261499
-0.0090234056 0.035084911 0.14566714
-0.0091813495 0.033284705 0.1483029
-0.0092485603 0.030734263 0.14841484
-0.0093292147 0.028477821 0.15083066
-0.0094779413 0.025941603 0.1521063
-0.0096002854 0.023682253 0.15344705
-0.010111185 0.021724457 0.1572516
-0.010195684 0.019695932 0.16050138
-0.010267847 0.017068328 0.16279566
-0.010181419 0.014377434 0.16594376
-0.010313385 0.011428148 0.16779648
-0.010345159 0.0090396935 0.1699775
-0.010247148 0.0062556113 0.1719411
-0.010271497 0.0033745444 0.17245647
-0.010317006 0.00053095038 0.17189422
-0.010218656 -0.0023057277 0.17289668
-0.0065721818 0.035124153 0.14606626
-0.0066780057 0.033292305 0.14844128
-0.0066994964 0.030904625 0.14936309
-0.0067633777 0.028595753 0.1515723
-0.0068863928 0.026069153 0.15280943
-0.0070174276 0.023759574 0.15419702
-0.0072981738 0.021930506 0.15805392
-0.0073199328 0.019588813 0.1599232
-0.0074807191 0.01711347 0.16200724
-0.0075302729 0.014341505 0.16561364
-0.0076843388 0.011554359 0.16817042
-0.0072233845 0.0088203195 0.17004366
-0.0073149488 0.0061251787 0.17162561
-0.0071989335 0.0033253685 0.17374627
-0.0073507195 0.00050859404 0.17335269
-0.0077494965 -0.0019012133 0.17358777
-0.003994422 0.035014696 0.14595191
-0.0042569954 0.033443071 0.14862978
-0.0041449089 0.031163102 0.1503415
-0.0041808919 0.028653432 0.15278316
-0.0042685927 0.026166279 0.15329331
-0.004369122 0.024000458 0.15528338
-0.0044543082 0.022029834 0.15927769
-0.0044798912 0.01954999 0.15993547
-0.0046025915 0.017060412 0.16175917
-0.0047362116 0.014397449 0.16493897
-0.0048698639 0.011638105 0.1680823
-0.0049054208 0.0088889236 0.17074867
-0.0047380212 0.0060950401 0.17392871
-0.0047233831 0.0036717476 0.17544726
-0.0047556921 0.00066375337 0.17501993
-0.0016579343 0.03501809 0.14661607
-0.0017358244 0.033273213 0.14866796
-0.0016050343 0.030985706 0.15061533
-0.0015097023 0.028455041 0.15232328
-0.0016678406 0.026272738 0.15410112
-0.0018348632 0.024170293 0.15616481
-0.0018564841 0.021976201 0.15984197
-0.0017679144 0.019563898 0.16079882
-0.0018279932 0.017112333 0.16231914
-0.0017143125 0.014564934 0.1649196
-0.001960543 0.011743259 0.16913331
-0.0020762151 0.0088688629 0.17121965
-0.0020338853 0.0058331825 0.17366254
-0.0020707261 0.0032701269 0.17446025
-0.0021893843 0.0005579904 0.17551067
0.00087761658 0.03515894 0.14736287
0.00086442853 0.03311855 0.14872679
0.00081621687 0.030729191 0.14998077
0.00088324444 0.028298445 0.15227571
0.000924789 0.026136942 0.15359296
0.00067465886 0.024469052 0.15736438
0.00078224519 0.021984957 0.16009216
0.00089523412 0.019569259 0.16097783
0.00080155721 0.017015025 0.16297449
0.00099899445 0.014565573 0.16595559
0.00088091026 0.011746136 0.17006215
0.00086876261 0.0087593617 0.1718189
0.00091111538 0.0056935302 0.17388625
0.0008501939 0.0030482702 0.17471541
0.00079129206 0.00032759731 0.17617899
0.0033683926 0.035028283 0.14737792
0.0034042711 0.032808512 0.1485192
0.0034441047 0.030609913 0.15017442
0.003296887 0.028340776 0.15232688
0.0033813512 0.026247811 0.15489902
0.0035094125 0.024204347 0.15702835
0.0034624175 0.021979291 0.15914363
0.0035323764 0.019458868 0.16106959
0.0036158243 0.016960694 0.16323711
0.0037803908 0.014539013 0.1657813
0.0037690788 0.011762925 0.16968544
0.0037525464 0.0086702639 0.17094807
0.0036407681 0.0053318189 0.17208733
0.003640061 0.0028271945 0.17347765
0.003781375 5.1163035e-05 0.17623827
0.005828396 0.034937877 0.1468146
0.0059489687 0.033230379 0.14940117
0.0059962086 0.031042993 0.15076849
0.0058805193 0.028752837 0.1525608
0.0059874924 0.026580265 0.15500732
0.0061549186 0.024276605 0.15689209
0.0062078624 0.022001801 0.15872766
0.0063002352 0.019402215 0.16104347
0.0064824899 0.01691371 0.16367614
0.0064679366 0.014423646 0.16523887
0.0064059873 0.012050457 0.16862336
0.0063458499 0.0094262538 0.16979824
0.0062883585 0.0064690914 0.17081408
0.0065643056 0.0029138192 0.17354338
0.0067443419 7.4165953e-05 0.17583679
0.0084982878 0.034981526 0.14639823
0.0084110452 0.033376597 0.14934649
0.0083995406 0.031350736 0.15136519
0.0083714901 0.029136503 0.15325376
0.0083858483 0.026750207 0.15477662
0.0086175129 0.024613159 0.15719162
0.0085620107 0.022165878 0.15967819
0.009017217 0.019272802 0.16138242
0.0092637008 0.016818117 0.16305813
0.0091312649 0.014608498 0.16616936
0.0092388634 0.012038499 0.16826466
0.0090519777 0.0093490239 0.16949578
0.0089971628 0.0066248197 0.1713036
0.0094862506 0.0031565027 0.17482771
0.0097306203 0.00019018773 0.1764442
0.010911854 0.03549885 0.14632952
0.010875562 0.033590347 0.14975442
0.010913708 0.031389728 0.15148796
0.010949905 0.029399225 0.15359768
0.011024534 0.027380565 0.15623982
0.011004831 0.024754276 0.15920481
0.011198674 0.021864092 0.1599223
0.011924311 0.019310812 0.16236407
0.012123832 0.016762335 0.16437055
0.011898467 0.014519351 0.16679622
0.011949111 0.011875582 0.16779761
0.01176076 0.0092441812 0.16920657
0.011525918 0.0066994848 0.17124374
0.012383428 0.0033252316 0.17509046
0.012536121 0.00028140855 0.17657913
0.013182992 0.036056738 0.14344594
0.013397509 0.033953737 0.1479314
0.013649503 0.031295855 0.15123782
0.013660515 0.029212583 0.15515505
0.013597242 0.027005542 0.15781283
0.013986688 0.024398185 0.15959173
0.014070552 0.021665001 0.16034132
0.014695652 0.019091442 0.16227747
0.014798082 0.016670484 0.16478346
0.014867307 0.014299119 0.16653584
0.014645673 0.011583836 0.16727604
0.014507834 0.0090788594 0.16904673
0.014229164 0.0061830045 0.1717274
0.015051271 0.0032059527 0.17430836
0.015039387 0.00027769714 0.17528406
0.015846632 0.03436555 0.14646502
0.01616535 0.031189665 0.15088014
0.016699145 0.028495817 0.15640341
0.016955189 0.026544178 0.15824594
0.016883893 0.024094179 0.15944125
0.017182207 0.021593239 0.16131932
0.017730201 0.018804492 0.16227783
0.017584803 0.016300455 0.1640819
0.017562296 0.014005312 0.1666283
0.017463058 0.011313733 0.16843076
0.017227724 0.00827449 0.16994002
0.017138232 0.0055223927 0.17153282
0.01697612 0.0027541309 0.17256406
0.016904766 9.7823642e-05 0.17393284
0 0 0 1 0 0 0 1 0 0 0 1 0 0 0 0 0 252 1 0 0
