ply
format ascii 1.0
comment PCL generated
element vertex 252
property float x
property float y
property float z
element camera 1
property float view_px
property float view_py
property float view_pz
property float x_axisx
property float x_axisy
property float x_axisz
property float y_axisx
property float y_axisy
property float y_axisz
property float z_axisx
property float z_axisy
property float z_axisz
property float focal
property float scalex
property float scaley
property float centerx
property float centery
property int viewportx
property int viewporty
property float k1
property float k2
end_header
-0.023882322 0.033968177 0.14448754
-0.023807857 0.032072425 0.14557068
-0.024053371 0.030283827 0.14823379
-0.024567623 0.028247576 0.14998962
-0.02557373 0.026303953 0.15294315
-0.025922919 0.024086878 0.1548119
-0.026287118 0.021709997 0.15806273
-0.026398491 0.019437648 0.16004777
-0.021266088 0.033765785 0.14299016
-0.021549409 0.031831808 0.14435124
-0.021817232 0.0301961 0.14773513
-0.022072073 0.028016854 0.14893994
-0.022945073 0.026022386 0.15178975
-0.023469567 0.023869384 0.15324481
-0.024017256 0.021492997 0.15566324
-0.024181258 0.018977623 0.158399
-0.02435053 0.016379336 0.16002062
-0.024539677 0.01378653 0.16041127
-0.024342572 0.010929645 0.16124998
-0.024499077 0.0081628906 0.16170219
-0.024708364 0.0054461737 0.16112728
-0.024251545 0.0025316267 0.16167572
-0.02436512 -0.00038315385 0.16305815
-0.018732915 0.03377353 0.14288929
-0.019088335 0.031943791 0.14529075
-0.019388676 0.03003454 0.14750212
-0.019643994 0.028118216 0.14925636
-0.020074455 0.025995409 0.15142307
-0.020868327 0.023675883 0.15322503
-0.021289771 0.021190571 0.15478912
-0.021588225 0.019101826 0.15758996
-0.021628473 0.016410742 0.15954395
-0.021800507 0.013725834 0.16024981
-0.02166882 0.011009374 0.16055132
-0.02171888 0.0082759773 0.1612993
-0.021866016 0.0056117182 0.16118675
-0.021708811 0.0024094039 0.16299258
-0.02167662 -0.0004521379 0.1636073
-0.021599945 -0.0029716252 0.16430724
-0.016084142 0.034147657 0.14270829
-0.016715392 0.032020807 0.1459171
-0.016750481 0.030003661 0.14716849
-0.017042963 0.028295413 0.14961489
-0.017493466 0.02621251 0.15190235
-0.018026123 0.023791378 0.15338269
-0.018498473 0.021163445 0.15579936
-0.018619848 0.018928288 0.15822516
-0.018852135 0.016294319 0.15964259
-0.019105874 0.013633656 0.16018234
-0.018854238 0.01109746 0.16115436
-0.019067137 0.0081874151 0.1622573
-0.019159589 0.0055930922 0.16168378
-0.01891895 0.0023192535 0.16387475
-0.019117417 -0.00070919015 0.16515756
-0.013529756 0.034036621 0.1432032
-0.014081103 0.032423068 0.1465853
-0.014279952 0.030091038 0.14720869
-0.014590844 0.028325787 0.15032879
-0.014912427 0.026298435 0.15202847
-0.01517053 0.023804685 0.15358263
-0.015625479 0.021462463 0.15692955
-0.016052768 0.018492635 0.15944037
-0.01622236 0.015866669 0.16124028
-0.016007103 0.013379458 0.16272165
-0.016315704 0.010475626 0.16403699
-0.016509226 0.0075850002 0.16385169
-0.016292186 0.0048374333 0.16458881
-0.016230296 0.0019766919 0.16629958
-0.016476279 -0.00074295135 0.16674522
-0.016645446 -0.0034333565 0.16880955
-0.011342602 0.034600224 0.14449275
-0.011758984 0.032801375 0.14713816
-0.011877904 0.030439368 0.14777505
-0.012055937 0.028109664 0.15062045
-0.012358878 0.025893373 0.15215375
-0.012520751 0.023577772 0.1534794
-0.013099274 0.021264954 0.15752374
-0.013427562 0.018364403 0.159886
-0.013516859 0.015690332 0.16178748
-0.013281398 0.013210071 0.16400576
-0.013442224 0.010191091 0.16476992
-0.013625989 0.0074670492 0.16621548
-0.013474077 0.0049488521 0.16673294
-0.013533001 0.0021557929 0.16807313
-0.01366398 -0.00055633415 0.16880582
-0.013667429 -0.0032828513 0.17101298
-0.009082132 0.03507955 0.1458732
-0.0094068572 0.033039551 0.14794356
-0.0093533928 0.030531304 0.14803895
-0.0095546367 0.028246883 0.15086263
-0.0095675001 0.025736677 0.15181378
-0.009667051 0.023385391 0.15301265
-0.010301725 0.021219159 0.15697367
-0.010567972 0.018391412 0.1594858
-0.010844124 0.015512428 0.16126913
-0.010549164 0.013119181 0.16354153
-0.010698037 0.010021693 0.16511437
-0.010795621 0.007449978 0.16684391
-0.010653566 0.004927258 0.16902782
-0.010661128 0.0021063839 0.16973193
-0.010822264 -0.00067891943 0.16956635
-0.01066308 -0.0033388406 0.17078631
-0.0067275767 0.035256337 0.14646471
-0.0069593228 0.033194121 0.14850256
-0.0069906143 0.03079984 0.14942127
-0.0071476982 0.028535929 0.15186296
-0.0070024873 0.025871139 0.15274529
-0.0070992964 0.023482507 0.15380716
-0.0075896871 0.021174438 0.15748917
-0.0076758326 0.018530624 0.15877686
-0.0079662921 0.015491937 0.16049662
-0.0077220849 0.012900276 0.16301252
-0.0078317085 0.010030961 0.16539009
-0.0075150467 0.0073842546 0.16735204
-0.0077614742 0.0046861907 0.16879165
-0.0075817308 0.0021071609 0.17072244
-0.0075464025 -0.00065000373 0.17015077
-0.0078628436 -0.0030557362 0.17022769
-0.0040802797 0.035222653 0.14637733
-0.0044766981 0.033406552 0.14886402
-0.0045586419 0.031096093 0.15067703
-0.0045270738 0.028581148 0.15300603
-0.0043775858 0.025992638 0.15289772
-0.0044131791 0.023716416 0.15448712
-0.0049541774 0.02111681 0.15871495
-0.0049141888 0.018530469 0.15897638
-0.0050182547 0.015625613 0.16034977
-0.0043499661 0.013041437 0.16316165
-0.0042340821 0.010406309 0.16616338
-0.0046485877 0.007500085 0.16843763
-0.0047818096 0.0044989712 0.17046534
-0.005293645 0.0024705289 0.17176698
-0.0049961391 -0.0004538119 0.17149475
-0.0017593649 0.035134662 0.14702079
-0.0019014942 0.03332768 0.14902091
-0.0020082579 0.031201674 0.15131271
-0.0018199962 0.028661771 0.15274264
-0.0018571197 0.026194591 0.15384391
-0.0020754659 0.023792068 0.15584497
-0.0023518375 0.02115028 0.15935555
-0.0022936736 0.01855444 0.16011012
-0.0020637945 0.016080482 0.16174483
-0.0013575517 0.013840352 0.16434319
-0.001695084 0.010757616 0.16765921
-0.0019541613 0.0078408839 0.16963232
-0.0024632455 0.0046049645 0.17157707
-0.0026296396 0.0022234288 0.17175058
-0.0026772826 -0.00038749934 0.17258467
0.00078230462 0.035268057 0.14783527
0.00068291184 0.033178348 0.14915617
0.00040322015 0.03108044 0.15072209
0.00061478151 0.028661925 0.15294898
0.00071327476 0.026271973 0.15364595
0.00045717237 0.02404152 0.15693979
0.00024778169 0.021245118 0.15985489
0.00066516508 0.018967634 0.16087151
0.00091360568 0.016532229 0.16292794
0.0012994782 0.013990002 0.16560104
0.00091368268 0.010968313 0.16904926
0.00069959136 0.0080166869 0.171013
0.00014014746 0.0046838126 0.17298755
-8.5349799e-05 0.0023507734 0.17341216
-0.00026180837 -0.00031740626 0.17459956
0.0033002289 0.035216041 0.14791682
0.0032952155 0.032996189 0.14901476
0.0033828041 0.030797379 0.1505556
0.003283917 0.028632676 0.15306161
0.0033048855 0.026319902 0.15525098
0.0033513736 0.023989653 0.15692258
0.003266522 0.021443089 0.15897816
0.0036137917 0.018983722 0.16123128
0.003842108 0.016561154 0.16318992
0.0040440084 0.013980072 0.16553925
0.0038673987 0.011049787 0.16894905
0.0035735993 0.0081135584 0.17085952
0.003270227 0.0046191304 0.17272577
0.0027189786 0.002651612 0.17372602
0.002520114 -0.00020605378 0.17627895
0.0058132363 0.035217073 0.14738889
0.0060875211 0.033308674 0.14961095
0.0060848566 0.031092696 0.15103701
0.005946958 0.028782858 0.15274516
0.0059519326 0.026351264 0.15515475
0.0060064071 0.023838969 0.15675679
0.0059851795 0.021379663 0.15850805
0.0064012008 0.01896802 0.16107167
0.0066675008 0.016459417 0.16367002
0.0067199478 0.013886804 0.16510084
0.0067367558 0.011336438 0.16807303
0.0067932522 0.0088400207 0.16939829
0.006832812 0.0058765239 0.17105575
0.0064893039 0.0025403574 0.17447917
0.0059466842 4.3531862e-05 0.17666137
0.0086105717 0.0352282 0.1468838
0.0085193589 0.033404045 0.14970632
0.0084733013 0.031257231 0.15159377
0.0083541907 0.028976014 0.15321939
0.0082825888 0.026560675 0.15454973
0.0084941192 0.02407047 0.15676139
0.0089814076 0.021476278 0.15876934
0.0090987813 0.018639935 0.16094482
0.0094047887 0.016222926 0.16274247
0.0093776602 0.013925892 0.16560794
0.0096077519 0.011347794 0.16741452
0.009555405 0.0086318757 0.16884527
0.010011368 0.0060666422 0.17109522
0.0097458456 0.0028196054 0.17550145
0.0094749657 0.00021477531 0.17763874
0.010967023 0.035435271 0.14653954
0.010873705 0.033347603 0.14985424
0.010925647 0.031175017 0.15143435
0.010968061 0.029144779 0.1532464
0.011018476 0.027029095 0.15591857
0.011009232 0.024327522 0.15874788
0.011761523 0.02137371 0.15935946
0.012043541 0.018645944 0.16136979
0.012261761 0.016000284 0.16317074
0.012135107 0.013806254 0.16572148
0.012222111 0.011100383 0.16663451
0.012282234 0.0085629784 0.16837381
0.01258216 0.0063355905 0.17112771
0.012854865 0.0033335444 0.17626885
0.012610291 0.00065197039 0.17830713
0.013246231 0.035102621 0.14288501
0.013484491 0.033270795 0.14742726
0.013705311 0.031099865 0.15104544
0.013597029 0.029189659 0.15502749
0.013265792 0.026918454 0.1577642
0.013942077 0.024178239 0.15949719
0.014267428 0.021405017 0.16000156
0.014734018 0.018605964 0.16124319
0.014773206 0.015800495 0.16339469
0.014884061 0.013481406 0.16517425
0.014667774 0.010865698 0.1661057
0.015079356 0.0084196674 0.16828614
0.015480384 0.006106989 0.17221519
0.015999597 0.0035720586 0.17568114
0.015680125 0.00081032282 0.17736986
0.01606195 0.033125449 0.14538124
0.016297977 0.031234827 0.15086339
0.016362786 0.029079562 0.1568526
0.016517624 0.026905769 0.1587275
0.016610945 0.024286145 0.15981489
0.016985741 0.021510441 0.16136594
0.01777358 0.018504648 0.16159269
0.01736344 0.015581761 0.162761
0.017447373 0.013149617 0.16520914
0.01749135 0.01055383 0.16709913
0.018401638 0.0079233516 0.16979229
0.018542027 0.0056640073 0.17208852
0.018215364 0.0031979436 0.17402193
0.017925162 0.00078981864 0.17591164
0 0 0 1 0 0 0 1 0 0 0 1 0 0 0 0 0 252 1 0 0
