ply
format ascii 1.0
comment PCL generated
element vertex 252
property float x
property float y
property float z
element camera 1
property float view_px
property float view_py
property float view_pz
property float x_axisx
property float x_axisy
property float x_axisz
property float y_axisx
property float y_axisy
property float y_axisz
property float z_axisx
property float z_axisy
property float z_axisz
property float focal
property float scalex
property float scaley
property float centerx
property float centery
property int viewportx
property int viewporty
property float k1
property float k2
end_header
-0.023368621 0.034302291 0.14384425
-0.02332652 0.032421142 0.14506364
-0.023786718 0.03082398 0.1484327
-0.024322215 0.028739179 0.15034936
-0.024952544 0.026763489 0.15328307
-0.025277028 0.024354244 0.15518419
-0.025795128 0.021884363 0.1584992
-0.02610058 0.01958609 0.16060147
-0.020811977 0.034095734 0.1428726
-0.021099828 0.032155212 0.1443335
-0.021556403 0.030733489 0.14802571
-0.021840466 0.028519314 0.14955892
-0.022410328 0.026602652 0.15261285
-0.022784933 0.024331979 0.15421668
-0.023205524 0.021937771 0.15648901
-0.023544893 0.019474812 0.15967
-0.023633419 0.016870759 0.16176115
-0.023687249 0.01418491 0.16271402
-0.023692923 0.01148638 0.16364071
-0.023957629 0.0087233856 0.16468184
-0.024149043 0.0058265151 0.1644484
-0.023987759 0.0030428516 0.16518112
-0.024279578 0.00038933608 0.16675428
-0.01836933 0.034127824 0.14292952
-0.018721545 0.032366093 0.14551617
-0.019105677 0.030555887 0.14803691
-0.019381337 0.028704107 0.1500653
-0.019721711 0.02661694 0.15241231
-0.020146295 0.024287179 0.15429798
-0.020413477 0.021863058 0.15589331
-0.020818293 0.019689009 0.15913895
-0.020859499 0.017092425 0.16139752
-0.020984698 0.014274141 0.16259366
-0.020962011 0.011504947 0.16345678
-0.021232884 0.0088200346 0.16496697
-0.021353111 0.0060440358 0.16504763
-0.021535249 0.0030957791 0.16661924
-0.02157473 0.00023578039 0.1674073
-0.021471977 -0.002043261 0.16847846
-0.016085865 0.034314904 0.14289337
-0.016343767 0.032489389 0.14659247
-0.016490471 0.030500975 0.14806136
-0.016875928 0.028761685 0.15073211
-0.017251072 0.026745344 0.1530021
-0.017468877 0.024340536 0.15428807
-0.017803414 0.021981731 0.15703493
-0.018023841 0.019770883 0.15961175
-0.01811021 0.017086538 0.16154669
-0.018159216 0.014301312 0.16253744
-0.018096881 0.011596411 0.16405264
-0.018557886 0.0088395448 0.16600499
-0.018715551 0.0061324728 0.1659887
-0.018785315 0.003116172 0.16753632
-0.018979399 0.00028346202 0.16895598
-0.013799717 0.034251623 0.14318611
-0.014070141 0.032833718 0.14726402
-0.01405694 0.030583663 0.14833714
-0.014425229 0.028790615 0.15103199
-0.014727942 0.026696699 0.15308288
-0.014891382 0.024200868 0.15432081
-0.015193698 0.022031128 0.15757234
-0.015365608 0.019715302 0.1605109
-0.015405879 0.017147001 0.16308646
-0.015398638 0.014328276 0.16513525
-0.015628906 0.011532301 0.166849
-0.015678117 0.008700286 0.16711712
-0.015775561 0.0059570558 0.16792025
-0.016070329 0.0032064663 0.16933055
-0.016228564 0.00041353572 0.17007273
-0.016559714 -0.0023149184 0.17217341
-0.011502772 0.034768775 0.14422394
-0.011748549 0.033142101 0.14753361
-0.011790942 0.03081274 0.14830935
-0.01194458 0.028534336 0.15088753
-0.012148597 0.026373666 0.15288053
-0.012306031 0.023993652 0.15419786
-0.012620964 0.021939196 0.15785322
-0.012683753 0.019679463 0.16082954
-0.012691046 0.017133335 0.16340898
-0.012725514 0.01455654 0.16645311
-0.012844341 0.01158036 0.16758533
-0.013054687 0.0087860469 0.16930272
-0.013197117 0.0060889814 0.16986308
-0.01344129 0.0033310214 0.17123564
-0.013635431 0.00048939022 0.1718449
-0.013806625 -0.0022222397 0.17384018
-0.0092053004 0.035293072 0.14573914
-0.0093138767 0.033374742 0.14816268
-0.0092424639 0.030814955 0.14817271
-0.0093964217 0.028648041 0.15091905
-0.0095013669 0.026124749 0.1522944
-0.0095572341 0.023826968 0.15348075
-0.0099220509 0.021775778 0.1571573
-0.0099443011 0.019616997 0.16031021
-0.0099216569 0.01702242 0.16254383
-0.0099273073 0.014592821 0.16611165
-0.010036552 0.011536051 0.16773368
-0.010211116 0.0086613633 0.16975862
-0.010277413 0.006111749 0.17198311
-0.010551444 0.003308061 0.17308682
-0.010837952 0.00036965255 0.17278244
-0.010853291 -0.0023834219 0.17402278
-0.0067206728 0.035479229 0.14628257
-0.0068099215 0.033514198 0.14840446
-0.0067803138 0.031144284 0.14931202
-0.0068598217 0.028871885 0.15177983
-0.0069000633 0.026303208 0.15298657
-0.0069591408 0.023824945 0.15401965
-0.0071120569 0.021746404 0.15776925
-0.0071062339 0.019360054 0.15959269
-0.0071839308 0.016836651 0.16154826
-0.0071524596 0.014373212 0.16534664
-0.007478904 0.011400565 0.16768238
-0.0072659678 0.0082741976 0.16955554
-0.0073988945 0.0056896261 0.17150067
-0.0074913399 0.0031416754 0.17412362
-0.0077980827 0.00026162525 0.17402977
-0.0082436446 -0.0021616109 0.17424548
-0.0040221708 0.035325389 0.14606924
-0.004263177 0.033672892 0.14875951
-0.004236734 0.031475946 0.15042074
-0.0043013263 0.028964303 0.1529009
-0.0042832075 0.026405632 0.15320112
-0.0042969072 0.023940198 0.15499444
-0.0043193162 0.02183025 0.15910497
-0.0042726379 0.019328864 0.15966688
-0.0043581738 0.01677968 0.16133556
-0.0044493456 0.014228258 0.16439086
-0.0046762526 0.011436652 0.16753224
-0.0046912087 0.0084338374 0.16976076
-0.0046602217 0.0054101264 0.17258812
-0.0048051747 0.0033446038 0.17538001
-0.0048755738 0.00031599868 0.1750675
-0.0016715785 0.035312999 0.14673039
-0.0017391914 0.033551112 0.14873111
-0.0017018318 0.031455386 0.15080339
-0.0016192296 0.02890208 0.15245804
-0.001676716 0.026495859 0.15396811
-0.001743238 0.024057336 0.15574352
-0.0017142872 0.021813089 0.15974067
-0.0016084072 0.01945864 0.1606916
-0.0016895219 0.017154718 0.16245891
-0.0016307302 0.014748679 0.16522937
-0.0018271161 0.011567194 0.16880625
-0.0019093258 0.0085190358 0.17054312
-0.0019163158 0.005346355 0.17274167
-0.0020351261 0.0028193463 0.17381102
-0.0021151616 0.00017382663 0.17502923
0.00085908419 0.035495307 0.1475428
0.00084301486 0.033457935 0.14891677
0.0007822091 0.031256754 0.15024261
0.00079429819 0.02888434 0.15262333
0.00090324297 0.02653352 0.15355854
0.00079558021 0.024292378 0.15694678
0.00094731827 0.021858098 0.15993778
0.0010014639 0.019714285 0.16131783
0.00085804984 0.01736971 0.16369581
0.0010810919 0.014769041 0.1664263
0.0010013194 0.011605463 0.17006995
0.00097529643 0.0085004987 0.17141533
0.0010179452 0.0054499013 0.17335837
0.00095421582 0.002839423 0.1742055
0.0009068225 0.00015357953 0.17571908
0.003364326 0.03537887 0.1476054
0.0034179674 0.03315945 0.1487522
0.0034826982 0.030946488 0.1503381
0.0033543266 0.028938586 0.1526455
0.0034475899 0.026704498 0.15510181
0.0035958737 0.02445079 0.15699553
0.0035941699 0.02194584 0.1590381
0.0035940651 0.019795097 0.16183314
0.0036638412 0.017302372 0.16411339
0.0038314015 0.014745839 0.16644169
0.0039297007 0.011700056 0.16980267
0.0039394889 0.0085405363 0.17083958
0.0039913491 0.0053553469 0.17211868
0.0037448339 0.0029135754 0.17342085
0.0039144228 0.00024563124 0.17620149
0.0058791791 0.035251737 0.14702126
0.0059761619 0.033531364 0.14962222
0.0060342718 0.031389114 0.15107392
0.0059570563 0.029058533 0.15273249
0.0060683992 0.026821237 0.15504719
0.006213889 0.02444079 0.15680206
0.0062745167 0.022044089 0.15876342
0.0063517792 0.019670213 0.1617016
0.0065213768 0.017190918 0.1645229
0.006483946 0.014618964 0.16585186
0.0065205134 0.01186057 0.16875274
0.0064038206 0.0089880349 0.16948773
0.0063998206 0.0059562372 0.17038277
0.0066562993 0.0029547841 0.17354447
0.006873148 0.00014031275 0.17586884
0.0085175829 0.035261028 0.14658783
0.0084392317 0.03373104 0.14965735
0.0084438464 0.031594593 0.1516798
0.0085057877 0.029257383 0.15336889
0.008529068 0.026801925 0.15465279
0.0087475162 0.024563076 0.15700278
0.0089114252 0.021936757 0.1594547
0.0091733392 0.01938715 0.16180466
0.0092958519 0.017034622 0.16372056
0.0092167677 0.014532676 0.16639479
0.00931988 0.011640384 0.16814218
0.0090689547 0.008755073 0.16883606
0.0090108775 0.0058933268 0.17044778
0.0095885191 0.0026935432 0.17422226
0.0098193381 -0.00020229658 0.17596427
0.010858899 0.035579894 0.14614823
0.010804619 0.033782657 0.14989868
0.010933822 0.03152946 0.15166625
0.011096721 0.029385781 0.1536172
0.011234802 0.027203383 0.15612164
0.011110336 0.024669057 0.15918414
0.011499997 0.022074742 0.16028744
0.012092743 0.019646179 0.16306214
0.012218824 0.016957603 0.16493751
0.012035238 0.01427911 0.16687953
0.012016845 0.01147288 0.1675777
0.011786887 0.0086249961 0.16848047
0.011591574 0.0059147477 0.17026348
0.012510516 0.0025877061 0.17416693
0.012630576 -0.00038807129 0.17564264
0.013046388 0.035833273 0.14331788
0.013253504 0.033866156 0.14776056
0.013610423 0.031368822 0.15118176
0.013811279 0.029352732 0.15522532
0.013551519 0.027260888 0.15828227
0.014014509 0.024829365 0.16031052
0.01429939 0.022154601 0.16116197
0.014869248 0.019600073 0.16336413
0.014939035 0.016819829 0.16534267
0.015014217 0.014082838 0.16650763
0.014731982 0.011233582 0.16683768
0.014579025 0.0084221773 0.16823526
0.01438588 0.0053784768 0.1708654
0.015207533 0.0022900307 0.17338693
0.015120638 -0.00057594158 0.17426653
0.015709639 0.034278013 0.14631058
0.016211106 0.031639162 0.15121022
0.016724603 0.029296963 0.15714592
0.016875543 0.02739316 0.1595346
0.016940245 0.024886752 0.16079609
0.017266952 0.022318229 0.16258273
0.017892914 0.019481938 0.16372208
0.017731681 0.016409781 0.16444451
0.017693972 0.013642796 0.1662129
0.017614061 0.01072382 0.16775239
0.017371433 0.00750231 0.16906519
0.017270284 0.0046743369 0.17048161
0.017048888 0.0018594755 0.17137705
0.01695073 -0.00085310388 0.17279741
0 0 0 1 0 0 0 1 0 0 0 1 0 0 0 0 0 252 1 0 0
