ply
format ascii 1.0
comment PCL generated
element vertex 239
property float x
property float y
property float z
element camera 1
property float view_px
property float view_py
property float view_pz
property float x_axisx
property float x_axisy
property float x_axisz
property float y_axisx
property float y_axisy
property float y_axisz
property float z_axisx
property float z_axisy
property float z_axisz
property float focal
property float scalex
property float scaley
property float centerx
property float centery
property int viewportx
property int viewporty
property float k1
property float k2
end_header
-0.02434212 0.035057079 0.14658064
-0.024278583 0.032749332 0.14682493
-0.024534423 0.030867968 0.14897627
-0.024700422 0.028594766 0.15053877
-0.024853019 0.026406229 0.15195577
-0.025513159 0.023938039 0.15568589
-0.02658152 0.022100665 0.16059203
-0.027190933 0.019841846 0.16346078
-0.027306287 0.017241646 0.16441721
-0.027332477 0.014506129 0.16530608
-0.027459849 0.011757083 0.16636285
-0.02759558 0.0089914659 0.16800331
-0.027659694 0.0061099385 0.1682197
-0.021828543 0.034870092 0.14593934
-0.021813523 0.032786403 0.14712788
-0.022039346 0.030900361 0.14931226
-0.022090457 0.02863862 0.15040712
-0.022303622 0.026575973 0.15233237
-0.022710301 0.024082281 0.15484056
-0.023242937 0.021334887 0.15828414
-0.023735242 0.019266127 0.16075051
-0.023994479 0.016910767 0.16264091
-0.024314027 0.014412834 0.16440326
-0.024515117 0.011814313 0.16559947
-0.024825318 0.0090930695 0.16790576
-0.024960611 0.0061096824 0.16953762
-0.024998302 0.0031385431 0.17199017
-0.019196991 0.035010505 0.14609353
-0.019394599 0.033148523 0.14843929
-0.01946569 0.030850932 0.1492888
-0.019581296 0.028676264 0.15075804
-0.019732133 0.026578471 0.15209016
-0.020146409 0.024242371 0.15545788
-0.020783845 0.021703074 0.15932962
-0.021075791 0.019319929 0.16105263
-0.021161804 0.016936587 0.16269371
-0.021584859 0.014574354 0.16483749
-0.021990435 0.01197629 0.16791302
-0.022037523 0.0090398891 0.17007059
-0.02189968 0.005763887 0.17145932
-0.02200699 0.0029291699 0.17266715
-0.022027368 -0.00010211158 0.17303385
-0.016709959 0.035338312 0.14742456
-0.016954089 0.033249747 0.14892699
-0.016842939 0.030853726 0.14906164
-0.0171293 0.028953856 0.15153685
-0.01723139 0.026814893 0.15256925
-0.01753909 0.024410324 0.15548362
-0.018194333 0.02206351 0.15988624
-0.0181171 0.019391693 0.16040041
-0.018387886 0.017048685 0.16283415
-0.01871115 0.014650938 0.16597259
-0.018931122 0.011741826 0.16941822
-0.019107303 0.0088533554 0.17066218
-0.019330768 0.0058968491 0.17297825
-0.019485002 0.0029691989 0.17431866
-0.019703979 -2.6256654e-05 0.17501129
-0.014237233 0.035562117 0.14777881
-0.014388732 0.033341143 0.14898813
-0.014135672 0.030903246 0.14886551
-0.014712244 0.02916624 0.15165924
-0.014757966 0.026980614 0.1536447
-0.014967656 0.024659479 0.15581185
-0.015469393 0.022229685 0.16050516
-0.015435742 0.019573377 0.1608265
-0.015635556 0.017175164 0.16314642
-0.015756613 0.014605989 0.16621329
-0.01586744 0.01147635 0.16870074
-0.016271889 0.0087999348 0.17190611
-0.016718397 0.0059968904 0.17521612
-0.016790831 0.0030003986 0.1757917
-0.016544245 -0.00012024503 0.17503276
-0.011873581 0.035974365 0.14818637
-0.011922721 0.033572156 0.14922734
-0.011712025 0.031276342 0.15011311
-0.011944717 0.028916419 0.15203576
-0.012125885 0.026934881 0.15366299
-0.012338779 0.02464263 0.15589607
-0.012606526 0.022179712 0.1594006
-0.012672999 0.019614384 0.16043688
-0.012814512 0.017180583 0.16295472
-0.012932809 0.014444482 0.16663615
-0.013111736 0.011140802 0.17096187
-0.013637979 0.0087364605 0.17469795
-0.01381866 0.0058882087 0.17633806
-0.013988678 0.0029959604 0.1763059
-0.013215385 -0.00038170087 0.17381234
-0.0094954278 0.036235329 0.14841597
-0.0093991933 0.034012571 0.14936675
-0.0093007628 0.031609122 0.15110168
-0.0094113704 0.028810145 0.15252006
-0.0093886703 0.026579093 0.15383424
-0.0097020976 0.024621673 0.15639281
-0.0097504817 0.022192579 0.15952462
-0.0098124621 0.019463943 0.15959425
-0.0099146785 0.016927777 0.16273983
-0.010208186 0.01449012 0.16722153
-0.01030232 0.010760509 0.17168808
-0.010763761 0.0086827911 0.17530811
-0.010749965 0.0056943367 0.175832
-0.01085869 0.0028900069 0.17570359
-0.01049715 -0.00021928558 0.17456697
-0.007062363 0.036686759 0.14953502
-0.007048266 0.034364134 0.15040062
-0.0069389804 0.03181269 0.15185621
-0.006709835 0.029256439 0.15234165
-0.0067969169 0.026778163 0.15357308
-0.006975051 0.024598146 0.15684153
-0.0070809787 0.022162151 0.16032197
-0.0069081634 0.019291112 0.16045596
-0.0071043004 0.016827412 0.16361283
-0.007447565 0.014139011 0.16772576
-0.0076491632 0.01066685 0.17079294
-0.0078857327 0.0085740397 0.17458588
-0.0079229157 0.0058346982 0.1761951
-0.007965114 0.0028189304 0.17658161
-0.0082608368 0.00037675002 0.17888471
-0.0047066784 0.036947757 0.15039882
-0.0046528634 0.034552559 0.15144207
-0.0044472446 0.032270622 0.15247007
-0.0041758991 0.029386714 0.15354019
-0.0042339731 0.026873037 0.15544958
-0.0043363292 0.024995744 0.15975906
-0.0043863938 0.022295536 0.16118546
-0.0043508001 0.019632654 0.16218029
-0.0044772844 0.017046884 0.16495532
-0.0046474161 0.014418869 0.168164
-0.0046818112 0.01117499 0.17128263
-0.004887179 0.008794277 0.1744829
-0.0048497859 0.0060082432 0.17562163
-0.0049202032 0.0030173725 0.17613876
-0.0046017724 -1.8758297e-05 0.17982548
-0.0022044382 0.037136331 0.15070333
-0.0021267603 0.034655202 0.15181616
-0.0017050696 0.031840038 0.15170223
-0.0016383142 0.02918422 0.15284616
-0.0016120477 0.026704371 0.15509579
-0.0015657668 0.024951082 0.15933637
-0.0016499397 0.022375513 0.16110153
-0.0017087697 0.019922374 0.16355316
-0.0016511204 0.017546691 0.16572736
-0.0018766216 0.014725274 0.16949947
-0.0018562331 0.011669818 0.17239597
-0.0019167102 0.0092990184 0.17497601
-0.0019458439 0.0065888655 0.1766914
-0.0017299686 0.0034819008 0.17672238
-0.0015059349 0.00017101203 0.18075618
0.00085297343 0.036241636 0.14952409
0.00088660157 0.033937987 0.15072235
0.00090195722 0.031680457 0.15266517
0.0010683812 0.02879986 0.15369135
0.001109947 0.026782487 0.15667416
0.0011240918 0.024885399 0.15930861
0.001157074 0.022535123 0.16164593
0.0010332286 0.020210216 0.16412437
0.0011129818 0.017950788 0.16653542
0.0010603063 0.015155591 0.1698336
0.00090212829 0.012194552 0.1727474
0.0010822343 0.0094915768 0.17477119
0.0010607217 0.0066998182 0.17627586
0.0011446611 0.0037387628 0.17805788
0.0013578768 0.00056931714 0.1800444
0.0033899357 0.036314484 0.14985138
0.0034496712 0.034134522 0.15196478
0.003473015 0.031718116 0.15283531
0.003684876 0.028778939 0.15421543
0.0037370548 0.026679846 0.15675902
0.003814463 0.024701888 0.15916115
0.0038353216 0.022179671 0.16027315
0.0038592101 0.019926855 0.16342257
0.0038919705 0.017996931 0.1664917
0.0041055791 0.015617305 0.17003109
0.0038203257 0.012579949 0.17245701
0.0040366929 0.0097341267 0.17392483
0.0042569283 0.0068568722 0.17458577
0.0040955748 0.0039926292 0.17742611
0.0043036775 0.00084257824 0.17864466
0.0058342041 0.036109086 0.14888081
0.0059282077 0.034089006 0.15135741
0.0060514682 0.031771511 0.15269646
0.0060692001 0.029510994 0.15478322
0.0062401798 0.027226349 0.15786164
0.006521001 0.024684554 0.1593869
0.0066372748 0.022091337 0.16085511
0.0067406637 0.019614322 0.16291597
0.0068137329 0.017257536 0.16547246
0.0071129645 0.015548889 0.17042631
0.0068665612 0.012705685 0.17206156
0.0069102799 0.010022173 0.17364548
0.0068435781 0.0072898502 0.17573029
0.0070742345 0.0040823347 0.17814459
0.0070833266 0.00094062468 0.18013987
0.0083768796 0.036214825 0.14942655
0.0084931608 0.034129221 0.15157133
0.008511059 0.031678308 0.15199536
0.0087861102 0.029896045 0.156426
0.0089816479 0.027466103 0.15923254
0.0091722263 0.024832554 0.15997244
0.009456343 0.021938119 0.16156934
0.009747264 0.019401155 0.16419132
0.009760268 0.01723529 0.16647108
0.0098908246 0.015426756 0.17033657
0.0099987434 0.012760685 0.17153554
0.0098382039 0.01018316 0.17302024
0.0096231997 0.0070604058 0.17665558
0.01007471 0.0034584741 0.17972483
0.010012422 0.00048552902 0.18121447
0.010851021 0.036055535 0.14872672
0.010955479 0.033874791 0.15033199
0.011122138 0.031721178 0.15250911
0.011478657 0.030059028 0.15701227
0.011609589 0.027645782 0.15930961
0.011738176 0.0250658 0.15883625
0.011987423 0.022115679 0.16162629
0.01241772 0.019606832 0.16441108
0.012541035 0.017274825 0.16649376
0.012776583 0.015008872 0.16899586
0.013062639 0.012799753 0.17124926
0.012625221 0.010101803 0.17294914
0.012651087 0.0066187824 0.1769125
0.013089644 0.0029454047 0.17848238
0.013222564 0.035728287 0.14726891
0.013387772 0.033583347 0.14894967
0.013760374 0.031916089 0.15315089
0.014047754 0.030158019 0.15752523
0.014278045 0.02780089 0.15901822
0.014521936 0.025201621 0.15983185
0.014823792 0.02242318 0.16327113
0.015156738 0.019748513 0.16467191
0.015375756 0.017370095 0.166568
0.015544202 0.015134435 0.16886522
0.015805226 0.013062625 0.17130379
0.01539451 0.010261768 0.17407417
0.015578923 0.0062362333 0.17571108
0.015328961 0.00297299 0.17547072
0.015345113 0.035275716 0.14532055
0.015565584 0.033310764 0.14839081
0.016035723 0.032374587 0.15414396
0.016584536 0.028110998 0.15902819
0 0 0 1 0 0 0 1 0 0 0 1 0 0 0 0 0 239 1 0 0
